<svg width="2551" height="800" viewBox="0 0 2551 800" fill="none" xmlns="http://www.w3.org/2000/svg">
<g clip-path="url(#clip0_4706_49015)">
<path d="M2550 100C2550 127.614 2527.61 150 2500 150C2527.61 150 2550 172.386 2550 200V100Z" fill="white" stroke="white" stroke-width="0.5" stroke-miterlimit="10"/>
<path d="M2450 100C2450 127.614 2472.39 150 2500 150C2472.39 150 2450 172.386 2450 200V100Z" fill="white" stroke="white" stroke-width="0.5" stroke-miterlimit="10"/>
<path d="M2550 200C2550 227.614 2527.61 250 2500 250C2527.61 250 2550 272.386 2550 300V200Z" fill="white" stroke="white" stroke-width="0.5" stroke-miterlimit="10"/>
<path d="M2450 200C2450 227.614 2472.39 250 2500 250C2472.39 250 2450 272.386 2450 300V200Z" fill="white" stroke="white" stroke-width="0.5" stroke-miterlimit="10"/>
<path d="M2550 400C2550 427.614 2527.61 450 2500 450C2527.61 450 2550 472.386 2550 500V400Z" fill="white" stroke="white" stroke-width="0.5" stroke-miterlimit="10"/>
<path d="M2450 400C2450 427.614 2472.39 450 2500 450C2472.39 450 2450 472.386 2450 500V400Z" fill="white" stroke="white" stroke-width="0.5" stroke-miterlimit="10"/>
<path d="M2500 750.25C2472.29 750.25 2449.75 727.708 2449.75 700V699.75H2500.25V750.25H2500Z" fill="#0AA7FF"/>
<path d="M2500 700V750C2472.39 750 2450 727.614 2450 700H2500ZM2500.5 699.5H2449.5V700C2449.5 727.846 2472.15 750.5 2500 750.5H2500.5V699.5Z" fill="#0AA7FF"/>
<path d="M2499.75 750.25V699.75H2550.25V700C2550.25 727.708 2527.71 750.25 2500 750.25H2499.75Z" fill="#0AA7FF"/>
<path d="M2550 700C2550 727.614 2527.61 750 2500 750V700H2550ZM2550.5 699.5H2499.5V750.5H2500C2527.85 750.5 2550.5 727.846 2550.5 700V699.5Z" fill="#0AA7FF"/>
<path d="M2449.75 100.25V100C2449.75 72.292 2472.29 49.75 2500 49.75H2500.25V100.25H2449.75Z" fill="#0AA7FF"/>
<path d="M2500 50V100H2450C2450 72.386 2472.39 50 2500 50ZM2500.5 49.5H2500C2472.15 49.5 2449.5 72.154 2449.5 100V100.5H2500.5V49.5Z" fill="#0AA7FF"/>
<path d="M2499.75 100.25V49.75H2500C2527.71 49.75 2550.25 72.292 2550.25 100V100.25H2499.75Z" fill="#0AA7FF"/>
<path d="M2500 50C2527.61 50 2550 72.386 2550 100H2500V50ZM2500 49.5H2499.5V100.5H2550.5V100C2550.5 72.154 2527.85 49.5 2500 49.5Z" fill="#0AA7FF"/>
<path d="M2449.75 300.25V300C2449.75 272.292 2472.29 249.75 2500 249.75H2500.25V300.25H2449.75Z" fill="#0AA7FF"/>
<path d="M2500 250V300H2450C2450 272.386 2472.39 250 2500 250ZM2500.5 249.5H2500C2472.15 249.5 2449.5 272.154 2449.5 300V300.5H2500.5V249.5Z" fill="#0AA7FF"/>
<path d="M2499.75 300.25V249.75H2500C2527.71 249.75 2550.25 272.292 2550.25 300V300.25H2499.75Z" fill="#0AA7FF"/>
<path d="M2500 250C2527.61 250 2550 272.386 2550 300H2500V250ZM2500 249.5H2499.5V300.5H2550.5V300C2550.5 272.154 2527.85 249.5 2500 249.5Z" fill="#0AA7FF"/>
<path d="M2499.75 150.25V99.75H2550.25V100C2550.25 127.708 2527.71 150.25 2500 150.25H2499.75Z" fill="#0AA7FF"/>
<path d="M2550 100C2550 127.614 2527.61 150 2500 150V100H2550ZM2550.5 99.5H2499.5V150.5H2500C2527.85 150.5 2550.5 127.846 2550.5 100V99.5Z" fill="#0AA7FF"/>
<path d="M2500 150.25C2472.29 150.25 2449.75 127.708 2449.75 100V99.75H2500.25V150.25H2500Z" fill="#0AA7FF"/>
<path d="M2500 100V150C2472.39 150 2450 127.614 2450 100H2500ZM2500.5 99.5H2449.5V100C2449.5 127.846 2472.15 150.5 2500 150.5H2500.5V99.5Z" fill="#0AA7FF"/>
<path d="M2449.75 200.25V200C2449.75 172.292 2472.29 149.75 2500 149.75H2500.25V200.25H2449.75Z" fill="#0AA7FF"/>
<path d="M2500 150V200H2450C2450 172.386 2472.39 150 2500 150ZM2500.5 149.5H2500C2472.15 149.5 2449.5 172.154 2449.5 200V200.5H2500.5V149.5Z" fill="#0AA7FF"/>
<path d="M2499.75 200.25V149.75H2500C2527.71 149.75 2550.25 172.292 2550.25 200V200.25H2499.75Z" fill="#0AA7FF"/>
<path d="M2500 150C2527.61 150 2550 172.386 2550 200H2500V150ZM2500 149.5H2499.5V200.5H2550.5V200C2550.5 172.154 2527.85 149.5 2500 149.5Z" fill="#0AA7FF"/>
<path d="M2499.75 250.25V199.75H2550.25V200C2550.25 227.708 2527.71 250.25 2500 250.25H2499.75Z" fill="#0AA7FF"/>
<path d="M2550 200C2550 227.614 2527.61 250 2500 250V200H2550ZM2550.5 199.5H2499.5V250.5H2500C2527.85 250.5 2550.5 227.846 2550.5 200V199.5Z" fill="#0AA7FF"/>
<path d="M2500 250.25C2472.29 250.25 2449.75 227.708 2449.75 200V199.75H2500.25V250.25H2500Z" fill="#0AA7FF"/>
<path d="M2500 200V250C2472.39 250 2450 227.614 2450 200H2500ZM2500.5 199.5H2449.5V200C2449.5 227.846 2472.15 250.5 2500 250.5H2500.5V199.5Z" fill="#0AA7FF"/>
<path d="M2500 350.25C2472.29 350.25 2449.75 327.708 2449.75 300V299.75H2500.25V350.25H2500Z" fill="#0AA7FF"/>
<path d="M2500 300V350C2472.39 350 2450 327.614 2450 300H2500ZM2500.5 299.5H2449.5V300C2449.5 327.846 2472.15 350.5 2500 350.5H2500.5V299.5Z" fill="#0AA7FF"/>
<path d="M2449.75 400.25V400C2449.75 372.292 2472.29 349.75 2500 349.75H2500.25V400.25H2449.75Z" fill="#0AA7FF"/>
<path d="M2500 350V400H2450C2450 372.386 2472.39 350 2500 350ZM2500.5 349.5H2500C2472.15 349.5 2449.5 372.154 2449.5 400V400.5H2500.5V349.5Z" fill="#0AA7FF"/>
<path d="M2499.75 400.25V349.75H2500C2527.71 349.75 2550.25 372.292 2550.25 400V400.25H2499.75Z" fill="#0AA7FF"/>
<path d="M2500 350C2527.61 350 2550 372.386 2550 400H2500V350ZM2500 349.5H2499.5V400.5H2550.5V400C2550.5 372.154 2527.85 349.5 2500 349.5Z" fill="#0AA7FF"/>
<path d="M2499.75 450.25V399.75H2550.25V400C2550.25 427.708 2527.71 450.25 2500 450.25H2499.75Z" fill="#0AA7FF"/>
<path d="M2550 400C2550 427.614 2527.61 450 2500 450V400H2550ZM2550.5 399.5H2499.5V450.5H2500C2527.85 450.5 2550.5 427.846 2550.5 400V399.5Z" fill="#0AA7FF"/>
<path d="M2500 450.25C2472.29 450.25 2449.75 427.708 2449.75 400V399.75H2500.25V450.25H2500Z" fill="#0AA7FF"/>
<path d="M2500 400V450C2472.39 450 2450 427.614 2450 400H2500ZM2500.5 399.5H2449.5V400C2449.5 427.846 2472.15 450.5 2500 450.5H2500.5V399.5Z" fill="#0AA7FF"/>
<path d="M2449.75 500.25V500C2449.75 472.292 2472.29 449.75 2500 449.75H2500.25V500.25H2449.75Z" fill="#0AA7FF"/>
<path d="M2500 450V500H2450C2450 472.386 2472.39 450 2500 450ZM2500.5 449.5H2500C2472.15 449.5 2449.5 472.154 2449.5 500V500.5H2500.5V449.5Z" fill="#0AA7FF"/>
<path d="M2499.75 500.25V449.75H2500C2527.71 449.75 2550.25 472.292 2550.25 500V500.25H2499.75Z" fill="#0AA7FF"/>
<path d="M2500 450C2527.61 450 2550 472.386 2550 500H2500V450ZM2500 449.5H2499.5V500.5H2550.5V500C2550.5 472.154 2527.85 449.5 2500 449.5Z" fill="#0AA7FF"/>
<path d="M2499.75 550.25V499.75H2550.25V500C2550.25 527.708 2527.71 550.25 2500 550.25H2499.75Z" fill="#0AA7FF"/>
<path d="M2550 500C2550 527.614 2527.61 550 2500 550V500H2550ZM2550.5 499.5H2499.5V550.5H2500C2527.85 550.5 2550.5 527.846 2550.5 500V499.5Z" fill="#0AA7FF"/>
<path d="M2500 550.25C2472.29 550.25 2449.75 527.708 2449.75 500V499.75H2500.25V550.25H2500Z" fill="#0AA7FF"/>
<path d="M2500 500V550C2472.39 550 2450 527.614 2450 500H2500ZM2500.5 499.5H2449.5V500C2449.5 527.846 2472.15 550.5 2500 550.5H2500.5V499.5Z" fill="#0AA7FF"/>
<path d="M2449.75 700.25V700C2449.75 672.292 2472.29 649.75 2500 649.75H2500.25V700.25H2449.75Z" fill="#0AA7FF"/>
<path d="M2500 650V700H2450C2450 672.386 2472.39 650 2500 650ZM2500.5 649.5H2500C2472.15 649.5 2449.5 672.154 2449.5 700V700.5H2500.5V649.5Z" fill="#0AA7FF"/>
<path d="M2499.75 700.25V649.75H2500C2527.71 649.75 2550.25 672.292 2550.25 700V700.25H2499.75Z" fill="#0AA7FF"/>
<path d="M2500 650C2527.61 650 2550 672.386 2550 700H2500V650ZM2500 649.5H2499.5V700.5H2550.5V700C2550.5 672.154 2527.85 649.5 2500 649.5Z" fill="#0AA7FF"/>
<path d="M2499.75 350.25V299.75H2550.25V300C2550.25 327.708 2527.71 350.25 2500 350.25H2499.75Z" fill="#0AA7FF"/>
<path d="M2550 300C2550 327.614 2527.61 350 2500 350V300H2550ZM2550.5 299.5H2499.5V350.5H2500C2527.85 350.5 2550.5 327.846 2550.5 300V299.5Z" fill="#0AA7FF"/>
<path d="M1609 550C1581.39 550 1559 527.614 1559 500C1559 527.614 1536.61 550 1509 550C1536.61 550 1559 572.386 1559 600C1559 572.386 1581.39 550 1609 550Z" fill="white" stroke="white" stroke-width="0.5" stroke-miterlimit="10"/>
<path d="M1509 450C1481.39 450 1459 427.614 1459 400C1459 427.614 1436.61 450 1409 450C1436.61 450 1459 472.386 1459 500C1459 472.386 1481.39 450 1509 450Z" fill="white" stroke="white" stroke-width="0.5" stroke-miterlimit="10"/>
<path d="M1409 350C1381.39 350 1359 327.614 1359 300C1359 327.614 1336.61 350 1309 350C1336.61 350 1359 372.386 1359 400C1359 372.386 1381.39 350 1409 350Z" fill="white" stroke="white" stroke-width="0.5" stroke-miterlimit="10"/>
<path d="M1309 250C1281.39 250 1259 227.614 1259 200C1259 227.614 1236.61 250 1209 250C1236.61 250 1259 272.386 1259 300C1259 272.386 1281.39 250 1309 250Z" fill="white" stroke="white" stroke-width="0.5" stroke-miterlimit="10"/>
<path d="M1259 100C1259 127.614 1236.61 150 1209 150C1236.61 150 1259 172.386 1259 200V100Z" fill="white" stroke="white" stroke-width="0.5" stroke-miterlimit="10"/>
<path d="M1159 100C1159 127.614 1181.39 150 1209 150C1181.39 150 1159 172.386 1159 200V100Z" fill="white" stroke="white" stroke-width="0.5" stroke-miterlimit="10"/>
<path d="M1259 400C1259 427.614 1236.61 450 1209 450C1236.61 450 1259 472.386 1259 500V400Z" fill="white" stroke="white" stroke-width="0.5" stroke-miterlimit="10"/>
<path d="M1159 400C1159 427.614 1181.39 450 1209 450C1181.39 450 1159 472.386 1159 500V400Z" fill="white" stroke="white" stroke-width="0.5" stroke-miterlimit="10"/>
<path d="M1259 500C1259 527.614 1236.61 550 1209 550C1236.61 550 1259 572.386 1259 600V500Z" fill="white" stroke="white" stroke-width="0.5" stroke-miterlimit="10"/>
<path d="M1159 500C1159 527.614 1181.39 550 1209 550C1181.39 550 1159 572.386 1159 600V500Z" fill="white" stroke="white" stroke-width="0.5" stroke-miterlimit="10"/>
<path d="M1259 600C1259 627.614 1236.61 650 1209 650C1236.61 650 1259 672.386 1259 700V600Z" fill="white" stroke="white" stroke-width="0.5" stroke-miterlimit="10"/>
<path d="M1159 600C1159 627.614 1181.39 650 1209 650C1181.39 650 1159 672.386 1159 700V600Z" fill="white" stroke="white" stroke-width="0.5" stroke-miterlimit="10"/>
<path d="M1659 600C1659 627.614 1636.61 650 1609 650C1636.61 650 1659 672.386 1659 700V600Z" fill="white" stroke="white" stroke-width="0.5" stroke-miterlimit="10"/>
<path d="M1659 500C1659 527.614 1636.61 550 1609 550C1636.61 550 1659 572.386 1659 600V500Z" fill="white" stroke="white" stroke-width="0.5" stroke-miterlimit="10"/>
<path d="M1559 600C1559 627.614 1581.39 650 1609 650C1581.39 650 1559 672.386 1559 700V600Z" fill="white" stroke="white" stroke-width="0.5" stroke-miterlimit="10"/>
<path d="M1659 100C1659 127.614 1636.61 150 1609 150C1636.61 150 1659 172.386 1659 200V100Z" fill="white" stroke="white" stroke-width="0.5" stroke-miterlimit="10"/>
<path d="M1559 100C1559 127.614 1581.39 150 1609 150C1581.39 150 1559 172.386 1559 200V100Z" fill="white" stroke="white" stroke-width="0.5" stroke-miterlimit="10"/>
<path d="M1659 200C1659 227.614 1636.61 250 1609 250C1636.61 250 1659 272.386 1659 300V200Z" fill="white" stroke="white" stroke-width="0.5" stroke-miterlimit="10"/>
<path d="M1559 200C1559 227.614 1581.39 250 1609 250C1581.39 250 1559 272.386 1559 300V200Z" fill="white" stroke="white" stroke-width="0.5" stroke-miterlimit="10"/>
<path d="M1659 300C1659 327.614 1636.61 350 1609 350C1636.61 350 1659 372.386 1659 400V300Z" fill="white" stroke="white" stroke-width="0.5" stroke-miterlimit="10"/>
<path d="M1559 300C1559 327.614 1581.39 350 1609 350C1581.39 350 1559 372.386 1559 400V300Z" fill="white" stroke="white" stroke-width="0.5" stroke-miterlimit="10"/>
<path d="M1159 200C1159 227.614 1181.39 250 1209 250C1181.39 250 1159 272.386 1159 300V200Z" fill="white" stroke="white" stroke-width="0.5" stroke-miterlimit="10"/>
<path d="M1209 450.25C1181.29 450.25 1158.75 427.708 1158.75 400V399.75H1209.25V450.25H1209Z" fill="#0AA7FF"/>
<path d="M1209 400V450C1181.39 450 1159 427.614 1159 400H1209ZM1209.5 399.5H1158.5V400C1158.5 427.846 1181.15 450.5 1209 450.5H1209.5V399.5Z" fill="#0AA7FF"/>
<path d="M1158.75 500.25V500C1158.75 472.292 1181.29 449.75 1209 449.75H1209.25V500.25H1158.75Z" fill="#0AA7FF"/>
<path d="M1209 450V500H1159C1159 472.386 1181.39 450 1209 450ZM1209.5 449.5H1209C1181.15 449.5 1158.5 472.154 1158.5 500V500.5H1209.5V449.5Z" fill="#0AA7FF"/>
<path d="M1208.75 500.25V449.75H1209C1236.71 449.75 1259.25 472.292 1259.25 500V500.25H1208.75Z" fill="#0AA7FF"/>
<path d="M1209 450C1236.61 450 1259 472.386 1259 500H1209V450ZM1209 449.5H1208.5V500.5H1259.5V500C1259.5 472.154 1236.85 449.5 1209 449.5Z" fill="#0AA7FF"/>
<path d="M1208.75 550.25V499.75H1259.25V500C1259.25 527.708 1236.71 550.25 1209 550.25H1208.75Z" fill="#0AA7FF"/>
<path d="M1259 500C1259 527.614 1236.61 550 1209 550V500H1259ZM1259.5 499.5H1208.5V550.5H1209C1236.85 550.5 1259.5 527.846 1259.5 500V499.5Z" fill="#0AA7FF"/>
<path d="M1209 550.25C1181.29 550.25 1158.75 527.708 1158.75 500V499.75H1209.25V550.25H1209Z" fill="#0AA7FF"/>
<path d="M1209 500V550C1181.39 550 1159 527.614 1159 500H1209ZM1209.5 499.5H1158.5V500C1158.5 527.846 1181.15 550.5 1209 550.5H1209.5V499.5Z" fill="#0AA7FF"/>
<path d="M1158.75 600.25V600C1158.75 572.292 1181.29 549.75 1209 549.75H1209.25V600.25H1158.75Z" fill="#0AA7FF"/>
<path d="M1209 550V600H1159C1159 572.386 1181.39 550 1209 550ZM1209.5 549.5H1209C1181.15 549.5 1158.5 572.154 1158.5 600V600.5H1209.5V549.5Z" fill="#0AA7FF"/>
<path d="M1208.75 600.25V549.75H1209C1236.71 549.75 1259.25 572.292 1259.25 600V600.25H1208.75Z" fill="#0AA7FF"/>
<path d="M1209 550C1236.61 550 1259 572.386 1259 600H1209V550ZM1209 549.5H1208.5V600.5H1259.5V600C1259.5 572.154 1236.85 549.5 1209 549.5Z" fill="#0AA7FF"/>
<path d="M1158.75 700.25V700C1158.75 672.292 1181.29 649.75 1209 649.75H1209.25V700.25H1158.75Z" fill="#0AA7FF"/>
<path d="M1209 650V700H1159C1159 672.386 1181.39 650 1209 650ZM1209.5 649.5H1209C1181.15 649.5 1158.5 672.154 1158.5 700V700.5H1209.5V649.5Z" fill="#0AA7FF"/>
<path d="M1208.75 700.25V649.75H1209C1236.71 649.75 1259.25 672.292 1259.25 700V700.25H1208.75Z" fill="#0AA7FF"/>
<path d="M1209 650C1236.61 650 1259 672.386 1259 700H1209V650ZM1209 649.5H1208.5V700.5H1259.5V700C1259.5 672.154 1236.85 649.5 1209 649.5Z" fill="#0AA7FF"/>
<path d="M1208.75 650.25V599.75H1259.25V600C1259.25 627.708 1236.71 650.25 1209 650.25H1208.75Z" fill="#0AA7FF"/>
<path d="M1259 600C1259 627.614 1236.61 650 1209 650V600H1259ZM1259.5 599.5H1208.5V650.5H1209C1236.85 650.5 1259.5 627.846 1259.5 600V599.5Z" fill="#0AA7FF"/>
<path d="M1209 650.25C1181.29 650.25 1158.75 627.708 1158.75 600V599.75H1209.25V650.25H1209Z" fill="#0AA7FF"/>
<path d="M1209 600V650C1181.39 650 1159 627.614 1159 600H1209ZM1209.5 599.5H1158.5V600C1158.5 627.846 1181.15 650.5 1209 650.5H1209.5V599.5Z" fill="#0AA7FF"/>
<path d="M1208.75 450.25V399.75H1259.25V400C1259.25 427.708 1236.71 450.25 1209 450.25H1208.75Z" fill="#0AA7FF"/>
<path d="M1259 400C1259 427.614 1236.61 450 1209 450V400H1259ZM1259.5 399.5H1208.5V450.5H1209C1236.85 450.5 1259.5 427.846 1259.5 400V399.5Z" fill="#0AA7FF"/>
<path d="M1409 450.25C1381.29 450.25 1358.75 427.708 1358.75 400V399.75H1409.25V450.25H1409Z" fill="#0AA7FF"/>
<path d="M1409 400V450C1381.39 450 1359 427.614 1359 400H1409ZM1409.5 399.5H1358.5V400C1358.5 427.846 1381.15 450.5 1409 450.5H1409.5V399.5Z" fill="#0AA7FF"/>
<path d="M1209 750.25C1181.29 750.25 1158.75 727.708 1158.75 700V699.75H1209.25V750.25H1209Z" fill="#0AA7FF"/>
<path d="M1209 700V750C1181.39 750 1159 727.614 1159 700H1209ZM1209.5 699.5H1158.5V700C1158.5 727.846 1181.15 750.5 1209 750.5H1209.5V699.5Z" fill="#0AA7FF"/>
<path d="M1208.75 750.25V699.75H1259.25V700C1259.25 727.708 1236.71 750.25 1209 750.25H1208.75Z" fill="#0AA7FF"/>
<path d="M1259 700C1259 727.614 1236.61 750 1209 750V700H1259ZM1259.5 699.5H1208.5V750.5H1209C1236.85 750.5 1259.5 727.846 1259.5 700V699.5Z" fill="#0AA7FF"/>
<path d="M1509 550.25C1481.29 550.25 1458.75 527.708 1458.75 500V499.75H1509.25V550.25H1509Z" fill="#0AA7FF"/>
<path d="M1509 500V550C1481.39 550 1459 527.614 1459 500H1509ZM1509.5 499.5H1458.5V500C1458.5 527.846 1481.15 550.5 1509 550.5H1509.5V499.5Z" fill="#0AA7FF"/>
<path d="M1508.75 550.25V499.75H1559.25V500C1559.25 527.708 1536.71 550.25 1509 550.25H1508.75Z" fill="#0AA7FF"/>
<path d="M1559 500C1559 527.614 1536.61 550 1509 550V500H1559ZM1559.5 499.5H1508.5V550.5H1509C1536.85 550.5 1559.5 527.846 1559.5 500V499.5Z" fill="#0AA7FF"/>
<path d="M1458.75 500.25V500C1458.75 472.292 1481.29 449.75 1509 449.75H1509.25V500.25H1458.75Z" fill="#0AA7FF"/>
<path d="M1509 450V500H1459C1459 472.386 1481.39 450 1509 450ZM1509.5 449.5H1509C1481.15 449.5 1458.5 472.154 1458.5 500V500.5H1509.5V449.5Z" fill="#0AA7FF"/>
<path d="M1408.75 450.25V399.75H1459.25V400C1459.25 427.708 1436.71 450.25 1409 450.25H1408.75Z" fill="#0AA7FF"/>
<path d="M1459 400C1459 427.614 1436.61 450 1409 450V400H1459ZM1459.5 399.5H1408.5V450.5H1409C1436.85 450.5 1459.5 427.846 1459.5 400V399.5Z" fill="#0AA7FF"/>
<path d="M1508.75 500.25V449.75H1509C1536.71 449.75 1559.25 472.292 1559.25 500V500.25H1508.75Z" fill="#0AA7FF"/>
<path d="M1509 450C1536.61 450 1559 472.386 1559 500H1509V450ZM1509 449.5H1508.5V500.5H1559.5V500C1559.5 472.154 1536.85 449.5 1509 449.5Z" fill="#0AA7FF"/>
<path d="M1609 750.25C1581.29 750.25 1558.75 727.708 1558.75 700V699.75H1609.25V750.25H1609Z" fill="#0AA7FF"/>
<path d="M1609 700V750C1581.39 750 1559 727.614 1559 700H1609ZM1609.5 699.5H1558.5V700C1558.5 727.846 1581.15 750.5 1609 750.5H1609.5V699.5Z" fill="#0AA7FF"/>
<path d="M1608.75 750.25V699.75H1659.25V700C1659.25 727.708 1636.71 750.25 1609 750.25H1608.75Z" fill="#0AA7FF"/>
<path d="M1659 700C1659 727.614 1636.61 750 1609 750V700H1659ZM1659.5 699.5H1608.5V750.5H1609C1636.85 750.5 1659.5 727.846 1659.5 700V699.5Z" fill="#0AA7FF"/>
<path d="M1158.75 100.25V100C1158.75 72.292 1181.29 49.75 1209 49.75H1209.25V100.25H1158.75Z" fill="#0AA7FF"/>
<path d="M1209 50V100H1159C1159 72.386 1181.39 50 1209 50ZM1209.5 49.5H1209C1181.15 49.5 1158.5 72.154 1158.5 100V100.5H1209.5V49.5Z" fill="#0AA7FF"/>
<path d="M1208.75 100.25V49.75H1209C1236.71 49.75 1259.25 72.292 1259.25 100V100.25H1208.75Z" fill="#0AA7FF"/>
<path d="M1209 50C1236.61 50 1259 72.386 1259 100H1209V50ZM1209 49.5H1208.5V100.5H1259.5V100C1259.5 72.154 1236.85 49.5 1209 49.5Z" fill="#0AA7FF"/>
<path d="M1208.75 150.25V99.75H1259.25V100C1259.25 127.708 1236.71 150.25 1209 150.25H1208.75Z" fill="#0AA7FF"/>
<path d="M1259 100C1259 127.614 1236.61 150 1209 150V100H1259ZM1259.5 99.5H1208.5V150.5H1209C1236.85 150.5 1259.5 127.846 1259.5 100V99.5Z" fill="#0AA7FF"/>
<path d="M1209 150.25C1181.29 150.25 1158.75 127.708 1158.75 100V99.75H1209.25V150.25H1209Z" fill="#0AA7FF"/>
<path d="M1209 100V150C1181.39 150 1159 127.614 1159 100H1209ZM1209.5 99.5H1158.5V100C1158.5 127.846 1181.15 150.5 1209 150.5H1209.5V99.5Z" fill="#0AA7FF"/>
<path d="M1158.75 200.25V200C1158.75 172.292 1181.29 149.75 1209 149.75H1209.25V200.25H1158.75Z" fill="#0AA7FF"/>
<path d="M1209 150V200H1159C1159 172.386 1181.39 150 1209 150ZM1209.5 149.5H1209C1181.15 149.5 1158.5 172.154 1158.5 200V200.5H1209.5V149.5Z" fill="#0AA7FF"/>
<path d="M1208.75 200.25V149.75H1209C1236.71 149.75 1259.25 172.292 1259.25 200V200.25H1208.75Z" fill="#0AA7FF"/>
<path d="M1209 150C1236.61 150 1259 172.386 1259 200H1209V150ZM1209 149.5H1208.5V200.5H1259.5V200C1259.5 172.154 1236.85 149.5 1209 149.5Z" fill="#0AA7FF"/>
<path d="M1208.75 250.128V199.628H1259.25V199.878C1259.25 227.586 1236.71 250.128 1209 250.128H1208.75Z" fill="#0AA7FF"/>
<path d="M1259 199.879C1259 227.493 1236.61 249.879 1209 249.879V199.879H1259ZM1259.5 199.379H1208.5V250.379H1209C1236.85 250.379 1259.5 227.725 1259.5 199.879V199.379Z" fill="#0AA7FF"/>
<path d="M1209 250.25C1181.29 250.25 1158.75 227.708 1158.75 200V199.75H1209.25V250.25H1209Z" fill="#0AA7FF"/>
<path d="M1209 200V250C1181.39 250 1159 227.614 1159 200H1209ZM1209.5 199.5H1158.5V200C1158.5 227.846 1181.15 250.5 1209 250.5H1209.5V199.5Z" fill="#0AA7FF"/>
<path d="M1158.75 300.25V300C1158.75 272.292 1181.29 249.75 1209 249.75H1209.25V300.25H1158.75Z" fill="#0AA7FF"/>
<path d="M1209 250V300H1159C1159 272.386 1181.39 250 1209 250ZM1209.5 249.5H1209C1181.15 249.5 1158.5 272.154 1158.5 300V300.5H1209.5V249.5Z" fill="#0AA7FF"/>
<path d="M1258.75 300.25V300C1258.75 272.292 1281.29 249.75 1309 249.75H1309.25V300.25H1258.75Z" fill="#0AA7FF"/>
<path d="M1309 250V300H1259C1259 272.386 1281.39 250 1309 250ZM1309.5 249.5H1309C1281.15 249.5 1258.5 272.154 1258.5 300V300.5H1309.5V249.5Z" fill="#0AA7FF"/>
<path d="M1208.75 300.25V249.75H1209C1236.71 249.75 1259.25 272.292 1259.25 300V300.25H1208.75Z" fill="#0AA7FF"/>
<path d="M1209 250C1236.61 250 1259 272.386 1259 300H1209V250ZM1209 249.5H1208.5V300.5H1259.5V300C1259.5 272.154 1236.85 249.5 1209 249.5Z" fill="#0AA7FF"/>
<path d="M1208.75 350.25V299.75H1259.25V300C1259.25 327.708 1236.71 350.25 1209 350.25H1208.75Z" fill="#0AA7FF"/>
<path d="M1259 300C1259 327.614 1236.61 350 1209 350V300H1259ZM1259.5 299.5H1208.5V350.5H1209C1236.85 350.5 1259.5 327.846 1259.5 300V299.5Z" fill="#0AA7FF"/>
<path d="M1308.75 350.25V299.75H1359.25V300C1359.25 327.708 1336.71 350.25 1309 350.25H1308.75Z" fill="#0AA7FF"/>
<path d="M1359 300C1359 327.614 1336.61 350 1309 350V300H1359ZM1359.5 299.5H1308.5V350.5H1309C1336.85 350.5 1359.5 327.846 1359.5 300V299.5Z" fill="#0AA7FF"/>
<path d="M1209 350.25C1181.29 350.25 1158.75 327.708 1158.75 300V299.75H1209.25V350.25H1209Z" fill="#0AA7FF"/>
<path d="M1209 300V350C1181.39 350 1159 327.614 1159 300H1209ZM1209.5 299.5H1158.5V300C1158.5 327.846 1181.15 350.5 1209 350.5H1209.5V299.5Z" fill="#0AA7FF"/>
<path d="M1158.75 400.25V400C1158.75 372.292 1181.29 349.75 1209 349.75H1209.25V400.25H1158.75Z" fill="#0AA7FF"/>
<path d="M1209 350V400H1159C1159 372.386 1181.39 350 1209 350ZM1209.5 349.5H1209C1181.15 349.5 1158.5 372.154 1158.5 400V400.5H1209.5V349.5Z" fill="#0AA7FF"/>
<path d="M1208.75 400.25V349.75H1209C1236.71 349.75 1259.25 372.292 1259.25 400V400.25H1208.75Z" fill="#0AA7FF"/>
<path d="M1209 350C1236.61 350 1259 372.386 1259 400H1209V350ZM1209 349.5H1208.5V400.5H1259.5V400C1259.5 372.154 1236.85 349.5 1209 349.5Z" fill="#0AA7FF"/>
<path d="M1308.75 300.25V249.75H1309C1336.71 249.75 1359.25 272.292 1359.25 300V300.25H1308.75Z" fill="#0AA7FF"/>
<path d="M1309 250C1336.61 250 1359 272.386 1359 300H1309V250ZM1309 249.5H1308.5V300.5H1359.5V300C1359.5 272.154 1336.85 249.5 1309 249.5Z" fill="#0AA7FF"/>
<path d="M1309 350.25C1281.29 350.25 1258.75 327.708 1258.75 300V299.75H1309.25V350.25H1309Z" fill="#0AA7FF"/>
<path d="M1309 300V350C1281.39 350 1259 327.614 1259 300H1309ZM1309.5 299.5H1258.5V300C1258.5 327.846 1281.15 350.5 1309 350.5H1309.5V299.5Z" fill="#0AA7FF"/>
<path d="M1358.75 400.25V400C1358.75 372.292 1381.29 349.75 1409 349.75H1409.25V400.25H1358.75Z" fill="#0AA7FF"/>
<path d="M1409 350V400H1359C1359 372.386 1381.39 350 1409 350ZM1409.5 349.5H1409C1381.15 349.5 1358.5 372.154 1358.5 400V400.5H1409.5V349.5Z" fill="#0AA7FF"/>
<path d="M1558.75 100.25V100C1558.75 72.292 1581.29 49.75 1609 49.75H1609.25V100.25H1558.75Z" fill="#0AA7FF"/>
<path d="M1609 50V100H1559C1559 72.386 1581.39 50 1609 50ZM1609.5 49.5H1609C1581.15 49.5 1558.5 72.154 1558.5 100V100.5H1609.5V49.5Z" fill="#0AA7FF"/>
<path d="M1608.75 100.25V49.75H1609C1636.71 49.75 1659.25 72.292 1659.25 100V100.25H1608.75Z" fill="#0AA7FF"/>
<path d="M1609 50C1636.61 50 1659 72.386 1659 100H1609V50ZM1609 49.5H1608.5V100.5H1659.5V100C1659.5 72.154 1636.85 49.5 1609 49.5Z" fill="#0AA7FF"/>
<path d="M1558.75 300.25V300C1558.75 272.292 1581.29 249.75 1609 249.75H1609.25V300.25H1558.75Z" fill="#0AA7FF"/>
<path d="M1609 250V300H1559C1559 272.386 1581.39 250 1609 250ZM1609.5 249.5H1609C1581.15 249.5 1558.5 272.154 1558.5 300V300.5H1609.5V249.5Z" fill="#0AA7FF"/>
<path d="M1608.75 300.25V249.75H1609C1636.71 249.75 1659.25 272.292 1659.25 300V300.25H1608.75Z" fill="#0AA7FF"/>
<path d="M1609 250C1636.61 250 1659 272.386 1659 300H1609V250ZM1609 249.5H1608.5V300.5H1659.5V300C1659.5 272.154 1636.85 249.5 1609 249.5Z" fill="#0AA7FF"/>
<path d="M1608.75 150.25V99.75H1659.25V100C1659.25 127.708 1636.71 150.25 1609 150.25H1608.75Z" fill="#0AA7FF"/>
<path d="M1659 100C1659 127.614 1636.61 150 1609 150V100H1659ZM1659.5 99.5H1608.5V150.5H1609C1636.85 150.5 1659.5 127.846 1659.5 100V99.5Z" fill="#0AA7FF"/>
<path d="M1609 150.25C1581.29 150.25 1558.75 127.708 1558.75 100V99.75H1609.25V150.25H1609Z" fill="#0AA7FF"/>
<path d="M1609 100V150C1581.39 150 1559 127.614 1559 100H1609ZM1609.5 99.5H1558.5V100C1558.5 127.846 1581.15 150.5 1609 150.5H1609.5V99.5Z" fill="#0AA7FF"/>
<path d="M1558.75 200.25V200C1558.75 172.292 1581.29 149.75 1609 149.75H1609.25V200.25H1558.75Z" fill="#0AA7FF"/>
<path d="M1609 150V200H1559C1559 172.386 1581.39 150 1609 150ZM1609.5 149.5H1609C1581.15 149.5 1558.5 172.154 1558.5 200V200.5H1609.5V149.5Z" fill="#0AA7FF"/>
<path d="M1608.75 200.25V149.75H1609C1636.71 149.75 1659.25 172.292 1659.25 200V200.25H1608.75Z" fill="#0AA7FF"/>
<path d="M1609 150C1636.61 150 1659 172.386 1659 200H1609V150ZM1609 149.5H1608.5V200.5H1659.5V200C1659.5 172.154 1636.85 149.5 1609 149.5Z" fill="#0AA7FF"/>
<path d="M1608.75 250.25V199.75H1659.25V200C1659.25 227.708 1636.71 250.25 1609 250.25H1608.75Z" fill="#0AA7FF"/>
<path d="M1659 200C1659 227.614 1636.61 250 1609 250V200H1659ZM1659.5 199.5H1608.5V250.5H1609C1636.85 250.5 1659.5 227.846 1659.5 200V199.5Z" fill="#0AA7FF"/>
<path d="M1609 250.25C1581.29 250.25 1558.75 227.708 1558.75 200V199.75H1609.25V250.25H1609Z" fill="#0AA7FF"/>
<path d="M1609 200V250C1581.39 250 1559 227.614 1559 200H1609ZM1609.5 199.5H1558.5V200C1558.5 227.846 1581.15 250.5 1609 250.5H1609.5V199.5Z" fill="#0AA7FF"/>
<path d="M1408.75 400.25V349.75H1409C1436.71 349.75 1459.25 372.292 1459.25 400V400.25H1408.75Z" fill="#0AA7FF"/>
<path d="M1409 350C1436.61 350 1459 372.386 1459 400H1409V350ZM1409 349.5H1408.5V400.5H1459.5V400C1459.5 372.154 1436.85 349.5 1409 349.5Z" fill="#0AA7FF"/>
<path d="M1609 350.25C1581.29 350.25 1558.75 327.708 1558.75 300V299.75H1609.25V350.25H1609Z" fill="#0AA7FF"/>
<path d="M1609 300V350C1581.39 350 1559 327.614 1559 300H1609ZM1609.5 299.5H1558.5V300C1558.5 327.846 1581.15 350.5 1609 350.5H1609.5V299.5Z" fill="#0AA7FF"/>
<path d="M1558.75 400.25V400C1558.75 372.292 1581.29 349.75 1609 349.75H1609.25V400.25H1558.75Z" fill="#0AA7FF"/>
<path d="M1609 350V400H1559C1559 372.386 1581.39 350 1609 350ZM1609.5 349.5H1609C1581.15 349.5 1558.5 372.154 1558.5 400V400.5H1609.5V349.5Z" fill="#0AA7FF"/>
<path d="M1608.75 400.25V349.75H1609C1636.71 349.75 1659.25 372.292 1659.25 400V400.25H1608.75Z" fill="#0AA7FF"/>
<path d="M1609 350C1636.61 350 1659 372.386 1659 400H1609V350ZM1609 349.5H1608.5V400.5H1659.5V400C1659.5 372.154 1636.85 349.5 1609 349.5Z" fill="#0AA7FF"/>
<path d="M1608.75 450.25V399.75H1659.25V400C1659.25 427.708 1636.71 450.25 1609 450.25H1608.75Z" fill="#0AA7FF"/>
<path d="M1659 400C1659 427.614 1636.61 450 1609 450V400H1659ZM1659.5 399.5H1608.5V450.5H1609C1636.85 450.5 1659.5 427.846 1659.5 400V399.5Z" fill="#0AA7FF"/>
<path d="M1609 450.25C1581.29 450.25 1558.75 427.708 1558.75 400V399.75H1609.25V450.25H1609Z" fill="#0AA7FF"/>
<path d="M1609 400V450C1581.39 450 1559 427.614 1559 400H1609ZM1609.5 399.5H1558.5V400C1558.5 427.846 1581.15 450.5 1609 450.5H1609.5V399.5Z" fill="#0AA7FF"/>
<path d="M1558.75 500.25V500C1558.75 472.292 1581.29 449.75 1609 449.75H1609.25V500.25H1558.75Z" fill="#0AA7FF"/>
<path d="M1609 450V500H1559C1559 472.386 1581.39 450 1609 450ZM1609.5 449.5H1609C1581.15 449.5 1558.5 472.154 1558.5 500V500.5H1609.5V449.5Z" fill="#0AA7FF"/>
<path d="M1608.75 500.25V449.75H1609C1636.71 449.75 1659.25 472.292 1659.25 500V500.25H1608.75Z" fill="#0AA7FF"/>
<path d="M1609 450C1636.61 450 1659 472.386 1659 500H1609V450ZM1609 449.5H1608.5V500.5H1659.5V500C1659.5 472.154 1636.85 449.5 1609 449.5Z" fill="#0AA7FF"/>
<path d="M1608.75 550.25V499.75H1659.25V500C1659.25 527.708 1636.71 550.25 1609 550.25H1608.75Z" fill="#0AA7FF"/>
<path d="M1659 500C1659 527.614 1636.61 550 1609 550V500H1659ZM1659.5 499.5H1608.5V550.5H1609C1636.85 550.5 1659.5 527.846 1659.5 500V499.5Z" fill="#0AA7FF"/>
<path d="M1609 550.25C1581.29 550.25 1558.75 527.708 1558.75 500V499.75H1609.25V550.25H1609Z" fill="#0AA7FF"/>
<path d="M1609 500V550C1581.39 550 1559 527.614 1559 500H1609ZM1609.5 499.5H1558.5V500C1558.5 527.846 1581.15 550.5 1609 550.5H1609.5V499.5Z" fill="#0AA7FF"/>
<path d="M1558.75 600.25V600C1558.75 572.292 1581.29 549.75 1609 549.75H1609.25V600.25H1558.75Z" fill="#0AA7FF"/>
<path d="M1609 550V600H1559C1559 572.386 1581.39 550 1609 550ZM1609.5 549.5H1609C1581.15 549.5 1558.5 572.154 1558.5 600V600.5H1609.5V549.5Z" fill="#0AA7FF"/>
<path d="M1608.75 600.25V549.75H1609C1636.71 549.75 1659.25 572.292 1659.25 600V600.25H1608.75Z" fill="#0AA7FF"/>
<path d="M1609 550C1636.61 550 1659 572.386 1659 600H1609V550ZM1609 549.5H1608.5V600.5H1659.5V600C1659.5 572.154 1636.85 549.5 1609 549.5Z" fill="#0AA7FF"/>
<path d="M1558.75 700.25V700C1558.75 672.292 1581.29 649.75 1609 649.75H1609.25V700.25H1558.75Z" fill="#0AA7FF"/>
<path d="M1609 650V700H1559C1559 672.386 1581.39 650 1609 650ZM1609.5 649.5H1609C1581.15 649.5 1558.5 672.154 1558.5 700V700.5H1609.5V649.5Z" fill="#0AA7FF"/>
<path d="M1608.75 700.25V649.75H1609C1636.71 649.75 1659.25 672.292 1659.25 700V700.25H1608.75Z" fill="#0AA7FF"/>
<path d="M1609 650C1636.61 650 1659 672.386 1659 700H1609V650ZM1609 649.5H1608.5V700.5H1659.5V700C1659.5 672.154 1636.85 649.5 1609 649.5Z" fill="#0AA7FF"/>
<path d="M1608.75 650.25V599.75H1659.25V600C1659.25 627.708 1636.71 650.25 1609 650.25H1608.75Z" fill="#0AA7FF"/>
<path d="M1659 600C1659 627.614 1636.61 650 1609 650V600H1659ZM1659.5 599.5H1608.5V650.5H1609C1636.85 650.5 1659.5 627.846 1659.5 600V599.5Z" fill="#0AA7FF"/>
<path d="M1609 650.25C1581.29 650.25 1558.75 627.708 1558.75 600V599.75H1609.25V650.25H1609Z" fill="#0AA7FF"/>
<path d="M1609 600V650C1581.39 650 1559 627.614 1559 600H1609ZM1609.5 599.5H1558.5V600C1558.5 627.846 1581.15 650.5 1609 650.5H1609.5V599.5Z" fill="#0AA7FF"/>
<path d="M1608.75 350.25V299.75H1659.25V300C1659.25 327.708 1636.71 350.25 1609 350.25H1608.75Z" fill="#0AA7FF"/>
<path d="M1659 300C1659 327.614 1636.61 350 1609 350V300H1659ZM1659.5 299.5H1608.5V350.5H1609C1636.85 350.5 1659.5 327.846 1659.5 300V299.5Z" fill="#0AA7FF"/>
<path d="M2320 550.25C2292.29 550.25 2269.75 527.708 2269.75 500V499.75H2320.25V550.25H2320Z" fill="white"/>
<path d="M2320 500V550C2292.39 550 2270 527.614 2270 500H2320ZM2320.5 499.5H2269.5V500C2269.5 527.846 2292.15 550.5 2320 550.5H2320.5V499.5Z" fill="white"/>
<path d="M2320 450.25C2292.29 450.25 2269.75 427.708 2269.75 400V399.75H2320.25V450.25H2320Z" fill="white"/>
<path d="M2320 400V450C2292.39 450 2270 427.614 2270 400H2320ZM2320.5 399.5H2269.5V400C2269.5 427.846 2292.15 450.5 2320 450.5H2320.5V399.5Z" fill="white"/>
<path d="M2269.75 500.25V500C2269.75 472.292 2292.29 449.75 2320 449.75H2320.25V500.25H2269.75Z" fill="white"/>
<path d="M2320 450V500H2270C2270 472.386 2292.39 450 2320 450ZM2320.5 449.5H2320C2292.15 449.5 2269.5 472.154 2269.5 500V500.5H2320.5V449.5Z" fill="white"/>
<path d="M2269.75 700.25V700C2269.75 672.292 2292.29 649.75 2320 649.75H2320.25V700.25H2269.75Z" fill="white"/>
<path d="M2320 650V700H2270C2270 672.386 2292.39 650 2320 650ZM2320.5 649.5H2320C2292.15 649.5 2269.5 672.154 2269.5 700V700.5H2320.5V649.5Z" fill="white"/>
<path d="M2320 750.25C2292.29 750.25 2269.75 727.708 2269.75 700V699.75H2320.25V750.25H2320Z" fill="white"/>
<path d="M2320 700V750C2292.39 750 2270 727.614 2270 700H2320ZM2320.5 699.5H2269.5V700C2269.5 727.846 2292.15 750.5 2320 750.5H2320.5V699.5Z" fill="white"/>
<path d="M2319.75 550.25V499.75H2370.25V500C2370.25 527.708 2347.71 550.25 2320 550.25H2319.75Z" fill="white"/>
<path d="M2370 500C2370 527.614 2347.61 550 2320 550V500H2370ZM2370.5 499.5H2319.5V550.5H2320C2347.85 550.5 2370.5 527.846 2370.5 500V499.5Z" fill="white"/>
<path d="M2319.75 500.25V449.75H2320C2347.71 449.75 2370.25 472.292 2370.25 500V500.25H2319.75Z" fill="white"/>
<path d="M2320 450C2347.61 450 2370 472.386 2370 500H2320V450ZM2320 449.5H2319.5V500.5H2370.5V500C2370.5 472.154 2347.85 449.5 2320 449.5Z" fill="white"/>
<path d="M2319.75 450.25V399.75H2370.25V400C2370.25 427.708 2347.71 450.25 2320 450.25H2319.75Z" fill="white"/>
<path d="M2370 400C2370 427.614 2347.61 450 2320 450V400H2370ZM2370.5 399.5H2319.5V450.5H2320C2347.85 450.5 2370.5 427.846 2370.5 400V399.5Z" fill="white"/>
<path d="M2319.75 700.25V649.75H2320C2347.71 649.75 2370.25 672.292 2370.25 700V700.25H2319.75Z" fill="white"/>
<path d="M2320 650C2347.61 650 2370 672.386 2370 700H2320V650ZM2320 649.5H2319.5V700.5H2370.5V700C2370.5 672.154 2347.85 649.5 2320 649.5Z" fill="white"/>
<path d="M2319.75 750.25V699.75H2370.25V700C2370.25 727.708 2347.71 750.25 2320 750.25H2319.75Z" fill="white"/>
<path d="M2370 700C2370 727.614 2347.61 750 2320 750V700H2370ZM2370.5 699.5H2319.5V750.5H2320C2347.85 750.5 2370.5 727.846 2370.5 700V699.5Z" fill="white"/>
<path d="M2320 150.25C2292.29 150.25 2269.75 127.708 2269.75 100V99.75H2320.25V150.25H2320Z" fill="white"/>
<path d="M2320 100V150C2292.39 150 2270 127.614 2270 100H2320ZM2320.5 99.5H2269.5V100C2269.5 127.846 2292.15 150.5 2320 150.5H2320.5V99.5Z" fill="white"/>
<path d="M2269.75 200.25V200C2269.75 172.292 2292.29 149.75 2320 149.75H2320.25V200.25H2269.75Z" fill="white"/>
<path d="M2320 150V200H2270C2270 172.386 2292.39 150 2320 150ZM2320.5 149.5H2320C2292.15 149.5 2269.5 172.154 2269.5 200V200.5H2320.5V149.5Z" fill="white"/>
<path d="M2269.75 100.25V100C2269.75 72.292 2292.29 49.75 2320 49.75H2320.25V100.25H2269.75Z" fill="white"/>
<path d="M2320 50V100H2270C2270 72.386 2292.39 50 2320 50ZM2320.5 49.5H2320C2292.15 49.5 2269.5 72.154 2269.5 100V100.5H2320.5V49.5Z" fill="white"/>
<path d="M2320 250.25C2292.29 250.25 2269.75 227.708 2269.75 200V199.75H2320.25V250.25H2320Z" fill="white"/>
<path d="M2320 200V250C2292.39 250 2270 227.614 2270 200H2320ZM2320.5 199.5H2269.5V200C2269.5 227.846 2292.15 250.5 2320 250.5H2320.5V199.5Z" fill="white"/>
<path d="M2269.75 300.25V300C2269.75 272.292 2292.29 249.75 2320 249.75H2320.25V300.25H2269.75Z" fill="white"/>
<path d="M2320 250V300H2270C2270 272.386 2292.39 250 2320 250ZM2320.5 249.5H2320C2292.15 249.5 2269.5 272.154 2269.5 300V300.5H2320.5V249.5Z" fill="white"/>
<path d="M2320 350.25C2292.29 350.25 2269.75 327.708 2269.75 300V299.75H2320.25V350.25H2320Z" fill="white"/>
<path d="M2320 300V350C2292.39 350 2270 327.614 2270 300H2320ZM2320.5 299.5H2269.5V300C2269.5 327.846 2292.15 350.5 2320 350.5H2320.5V299.5Z" fill="white"/>
<path d="M2269.75 400.25V400C2269.75 372.292 2292.29 349.75 2320 349.75H2320.25V400.25H2269.75Z" fill="white"/>
<path d="M2320 350V400H2270C2270 372.386 2292.39 350 2320 350ZM2320.5 349.5H2320C2292.15 349.5 2269.5 372.154 2269.5 400V400.5H2320.5V349.5Z" fill="white"/>
<path d="M2319.75 200.25V149.75H2320C2347.71 149.75 2370.25 172.292 2370.25 200V200.25H2319.75Z" fill="white"/>
<path d="M2320 150C2347.61 150 2370 172.386 2370 200H2320V150ZM2320 149.5H2319.5V200.5H2370.5V200C2370.5 172.154 2347.85 149.5 2320 149.5Z" fill="white"/>
<path d="M2319.75 150.25V99.75H2370.25V100C2370.25 127.708 2347.71 150.25 2320 150.25H2319.75Z" fill="white"/>
<path d="M2370 100C2370 127.614 2347.61 150 2320 150V100H2370ZM2370.5 99.5H2319.5V150.5H2320C2347.85 150.5 2370.5 127.846 2370.5 100V99.5Z" fill="white"/>
<path d="M2319.75 100.25V49.75H2320C2347.71 49.75 2370.25 72.292 2370.25 100V100.25H2319.75Z" fill="white"/>
<path d="M2320 50C2347.61 50 2370 72.386 2370 100H2320V50ZM2320 49.5H2319.5V100.5H2370.5V100C2370.5 72.154 2347.85 49.5 2320 49.5Z" fill="white"/>
<path d="M2319.75 300.25V249.75H2320C2347.71 249.75 2370.25 272.292 2370.25 300V300.25H2319.75Z" fill="white"/>
<path d="M2320 250C2347.61 250 2370 272.386 2370 300H2320V250ZM2320 249.5H2319.5V300.5H2370.5V300C2370.5 272.154 2347.85 249.5 2320 249.5Z" fill="white"/>
<path d="M2319.75 250.25V199.75H2370.25V200C2370.25 227.708 2347.71 250.25 2320 250.25H2319.75Z" fill="white"/>
<path d="M2370 200C2370 227.614 2347.61 250 2320 250V200H2370ZM2370.5 199.5H2319.5V250.5H2320C2347.85 250.5 2370.5 227.846 2370.5 200V199.5Z" fill="white"/>
<path d="M2319.75 400.25V349.75H2320C2347.71 349.75 2370.25 372.292 2370.25 400V400.25H2319.75Z" fill="white"/>
<path d="M2320 350C2347.61 350 2370 372.386 2370 400H2320V350ZM2320 349.5H2319.5V400.5H2370.5V400C2370.5 372.154 2347.85 349.5 2320 349.5Z" fill="white"/>
<path d="M2319.75 350.25V299.75H2370.25V300C2370.25 327.708 2347.71 350.25 2320 350.25H2319.75Z" fill="white"/>
<path d="M2370 300C2370 327.614 2347.61 350 2320 350V300H2370ZM2370.5 299.5H2319.5V350.5H2320C2347.85 350.5 2370.5 327.846 2370.5 300V299.5Z" fill="white"/>
<path d="M2269.75 600C2269.75 572.567 2247.43 550.25 2220 550.25V549.75C2247.43 549.75 2269.75 527.433 2269.75 500H2270.25C2270.25 527.433 2292.57 549.75 2320 549.75V550.25C2292.57 550.25 2270.25 572.567 2270.25 600H2269.75Z" fill="#A54AFF"/>
<path d="M2270 500C2270 527.614 2292.39 550 2320 550C2292.39 550 2270 572.386 2270 600C2270 572.386 2247.61 550 2220 550C2247.61 550 2270 527.614 2270 500ZM2270.5 500H2269.5C2269.5 527.294 2247.29 549.5 2220 549.5V550.5C2247.29 550.5 2269.5 572.706 2269.5 600H2270.5C2270.5 572.706 2292.71 550.5 2320 550.5V549.5C2292.71 549.5 2270.5 527.294 2270.5 500Z" fill="#A54AFF"/>
<path d="M2269.75 500C2269.75 472.567 2247.43 450.25 2220 450.25V449.75C2247.43 449.75 2269.75 427.433 2269.75 400H2270.25C2270.25 427.433 2292.57 449.75 2320 449.75V450.25C2292.57 450.25 2270.25 472.567 2270.25 500H2269.75Z" fill="#A54AFF"/>
<path d="M2270 400C2270 427.614 2292.39 450 2320 450C2292.39 450 2270 472.386 2270 500C2270 472.386 2247.61 450 2220 450C2247.61 450 2270 427.614 2270 400ZM2270.5 400H2269.5C2269.5 427.294 2247.29 449.5 2220 449.5V450.5C2247.29 450.5 2269.5 472.706 2269.5 500H2270.5C2270.5 472.706 2292.71 450.5 2320 450.5V449.5C2292.71 449.5 2270.5 427.294 2270.5 400Z" fill="#A54AFF"/>
<path d="M2269.75 700C2269.75 672.567 2247.43 650.25 2220 650.25V649.75C2247.43 649.75 2269.75 627.433 2269.75 600H2270.25C2270.25 627.433 2292.57 649.75 2320 649.75V650.25C2292.57 650.25 2270.25 672.567 2270.25 700H2269.75Z" fill="#A54AFF"/>
<path d="M2270 600C2270 627.614 2292.39 650 2320 650C2292.39 650 2270 672.386 2270 700C2270 672.386 2247.61 650 2220 650C2247.61 650 2270 627.614 2270 600ZM2270.5 600H2269.5C2269.5 627.294 2247.29 649.5 2220 649.5V650.5C2247.29 650.5 2269.5 672.706 2269.5 700H2270.5C2270.5 672.706 2292.71 650.5 2320 650.5V649.5C2292.71 649.5 2270.5 627.294 2270.5 600Z" fill="#A54AFF"/>
<path d="M2269.75 800C2269.75 772.567 2247.43 750.25 2220 750.25V749.75C2247.43 749.75 2269.75 727.433 2269.75 700H2270.25C2270.25 727.433 2292.57 749.75 2320 749.75V750.25C2292.57 750.25 2270.25 772.567 2270.25 800H2269.75Z" fill="#A54AFF"/>
<path d="M2270 700C2270 727.614 2292.39 750 2320 750C2292.39 750 2270 772.386 2270 800C2270 772.386 2247.61 750 2220 750C2247.61 750 2270 727.614 2270 700ZM2270.5 700H2269.5C2269.5 727.294 2247.29 749.5 2220 749.5V750.5C2247.29 750.5 2269.5 772.706 2269.5 800H2270.5C2270.5 772.706 2292.71 750.5 2320 750.5V749.5C2292.71 749.5 2270.5 727.294 2270.5 700Z" fill="#A54AFF"/>
<path d="M2369.75 600C2369.75 572.567 2347.43 550.25 2320 550.25V549.75C2347.43 549.75 2369.75 527.433 2369.75 500H2370.25C2370.25 527.433 2392.57 549.75 2420 549.75V550.25C2392.57 550.25 2370.25 572.567 2370.25 600H2369.75Z" fill="#A54AFF"/>
<path d="M2370 500C2370 527.614 2392.39 550 2420 550C2392.39 550 2370 572.386 2370 600C2370 572.386 2347.61 550 2320 550C2347.61 550 2370 527.614 2370 500ZM2370.5 500H2369.5C2369.5 527.294 2347.29 549.5 2320 549.5V550.5C2347.29 550.5 2369.5 572.706 2369.5 600H2370.5C2370.5 572.706 2392.71 550.5 2420 550.5V549.5C2392.71 549.5 2370.5 527.294 2370.5 500Z" fill="#A54AFF"/>
<path d="M2369.75 500C2369.75 472.567 2347.43 450.25 2320 450.25V449.75C2347.43 449.75 2369.75 427.433 2369.75 400H2370.25C2370.25 427.433 2392.57 449.75 2420 449.75V450.25C2392.57 450.25 2370.25 472.567 2370.25 500H2369.75Z" fill="#A54AFF"/>
<path d="M2370 400C2370 427.614 2392.39 450 2420 450C2392.39 450 2370 472.386 2370 500C2370 472.386 2347.61 450 2320 450C2347.61 450 2370 427.614 2370 400ZM2370.5 400H2369.5C2369.5 427.294 2347.29 449.5 2320 449.5V450.5C2347.29 450.5 2369.5 472.706 2369.5 500H2370.5C2370.5 472.706 2392.71 450.5 2420 450.5V449.5C2392.71 449.5 2370.5 427.294 2370.5 400Z" fill="#A54AFF"/>
<path d="M2369.75 700C2369.75 672.567 2347.43 650.25 2320 650.25V649.75C2347.43 649.75 2369.75 627.433 2369.75 600H2370.25C2370.25 627.433 2392.57 649.75 2420 649.75V650.25C2392.57 650.25 2370.25 672.567 2370.25 700H2369.75Z" fill="#A54AFF"/>
<path d="M2370 600C2370 627.614 2392.39 650 2420 650C2392.39 650 2370 672.386 2370 700C2370 672.386 2347.61 650 2320 650C2347.61 650 2370 627.614 2370 600ZM2370.5 600H2369.5C2369.5 627.294 2347.29 649.5 2320 649.5V650.5C2347.29 650.5 2369.5 672.706 2369.5 700H2370.5C2370.5 672.706 2392.71 650.5 2420 650.5V649.5C2392.71 649.5 2370.5 627.294 2370.5 600Z" fill="#A54AFF"/>
<path d="M2369.75 800C2369.75 772.567 2347.43 750.25 2320 750.25V749.75C2347.43 749.75 2369.75 727.433 2369.75 700H2370.25C2370.25 727.433 2392.57 749.75 2420 749.75V750.25C2392.57 750.25 2370.25 772.567 2370.25 800H2369.75Z" fill="#A54AFF"/>
<path d="M2370 700C2370 727.614 2392.39 750 2420 750C2392.39 750 2370 772.386 2370 800C2370 772.386 2347.61 750 2320 750C2347.61 750 2370 727.614 2370 700ZM2370.5 700H2369.5C2369.5 727.294 2347.29 749.5 2320 749.5V750.5C2347.29 750.5 2369.5 772.706 2369.5 800H2370.5C2370.5 772.706 2392.71 750.5 2420 750.5V749.5C2392.71 749.5 2370.5 727.294 2370.5 700Z" fill="#A54AFF"/>
<path d="M2269.75 200C2269.75 172.568 2247.43 150.25 2220 150.25V149.75C2247.43 149.75 2269.75 127.432 2269.75 100H2270.25C2270.25 127.432 2292.57 149.75 2320 149.75V150.25C2292.57 150.25 2270.25 172.568 2270.25 200H2269.75Z" fill="#A54AFF"/>
<path d="M2270 100C2270 127.614 2292.39 150 2320 150C2292.39 150 2270 172.386 2270 200C2270 172.386 2247.61 150 2220 150C2247.61 150 2270 127.614 2270 100ZM2270.5 100H2269.5C2269.5 127.294 2247.29 149.5 2220 149.5V150.5C2247.29 150.5 2269.5 172.706 2269.5 200H2270.5C2270.5 172.706 2292.71 150.5 2320 150.5V149.5C2292.71 149.5 2270.5 127.294 2270.5 100Z" fill="#A54AFF"/>
<path d="M2269.75 100C2269.75 72.568 2247.43 50.25 2220 50.25V49.75C2247.43 49.75 2269.75 27.432 2269.75 0H2270.25C2270.25 27.432 2292.57 49.75 2320 49.75V50.25C2292.57 50.25 2270.25 72.568 2270.25 100H2269.75Z" fill="#A54AFF"/>
<path d="M2270 0C2270 27.614 2292.39 50 2320 50C2292.39 50 2270 72.386 2270 100C2270 72.386 2247.61 50 2220 50C2247.61 50 2270 27.614 2270 0ZM2270.5 0H2269.5C2269.5 27.294 2247.29 49.5 2220 49.5V50.5C2247.29 50.5 2269.5 72.706 2269.5 100H2270.5C2270.5 72.706 2292.71 50.5 2320 50.5V49.5C2292.71 49.5 2270.5 27.294 2270.5 0Z" fill="#A54AFF"/>
<path d="M2269.75 300C2269.75 272.568 2247.43 250.25 2220 250.25V249.75C2247.43 249.75 2269.75 227.432 2269.75 200H2270.25C2270.25 227.432 2292.57 249.75 2320 249.75V250.25C2292.57 250.25 2270.25 272.568 2270.25 300H2269.75Z" fill="#A54AFF"/>
<path d="M2270 200C2270 227.614 2292.39 250 2320 250C2292.39 250 2270 272.386 2270 300C2270 272.386 2247.61 250 2220 250C2247.61 250 2270 227.614 2270 200ZM2270.5 200H2269.5C2269.5 227.294 2247.29 249.5 2220 249.5V250.5C2247.29 250.5 2269.5 272.706 2269.5 300H2270.5C2270.5 272.706 2292.71 250.5 2320 250.5V249.5C2292.71 249.5 2270.5 227.294 2270.5 200Z" fill="#A54AFF"/>
<path d="M2269.75 400C2269.75 372.568 2247.43 350.25 2220 350.25V349.75C2247.43 349.75 2269.75 327.432 2269.75 300H2270.25C2270.25 327.432 2292.57 349.75 2320 349.75V350.25C2292.57 350.25 2270.25 372.568 2270.25 400H2269.75Z" fill="#A54AFF"/>
<path d="M2270 300C2270 327.614 2292.39 350 2320 350C2292.39 350 2270 372.386 2270 400C2270 372.386 2247.61 350 2220 350C2247.61 350 2270 327.614 2270 300ZM2270.5 300H2269.5C2269.5 327.294 2247.29 349.5 2220 349.5V350.5C2247.29 350.5 2269.5 372.706 2269.5 400H2270.5C2270.5 372.706 2292.71 350.5 2320 350.5V349.5C2292.71 349.5 2270.5 327.294 2270.5 300Z" fill="#A54AFF"/>
<path d="M2369.75 200C2369.75 172.568 2347.43 150.25 2320 150.25V149.75C2347.43 149.75 2369.75 127.432 2369.75 100H2370.25C2370.25 127.432 2392.57 149.75 2420 149.75V150.25C2392.57 150.25 2370.25 172.568 2370.25 200H2369.75Z" fill="#A54AFF"/>
<path d="M2370 100C2370 127.614 2392.39 150 2420 150C2392.39 150 2370 172.386 2370 200C2370 172.386 2347.61 150 2320 150C2347.61 150 2370 127.614 2370 100ZM2370.5 100H2369.5C2369.5 127.294 2347.29 149.5 2320 149.5V150.5C2347.29 150.5 2369.5 172.706 2369.5 200H2370.5C2370.5 172.706 2392.71 150.5 2420 150.5V149.5C2392.71 149.5 2370.5 127.294 2370.5 100Z" fill="#A54AFF"/>
<path d="M2369.75 100C2369.75 72.568 2347.43 50.25 2320 50.25V49.75C2347.43 49.75 2369.75 27.432 2369.75 0H2370.25C2370.25 27.432 2392.57 49.75 2420 49.75V50.25C2392.57 50.25 2370.25 72.568 2370.25 100H2369.75Z" fill="#A54AFF"/>
<path d="M2370 0C2370 27.614 2392.39 50 2420 50C2392.39 50 2370 72.386 2370 100C2370 72.386 2347.61 50 2320 50C2347.61 50 2370 27.614 2370 0ZM2370.5 0H2369.5C2369.5 27.294 2347.29 49.5 2320 49.5V50.5C2347.29 50.5 2369.5 72.706 2369.5 100H2370.5C2370.5 72.706 2392.71 50.5 2420 50.5V49.5C2392.71 49.5 2370.5 27.294 2370.5 0Z" fill="#A54AFF"/>
<path d="M2369.75 300C2369.75 272.568 2347.43 250.25 2320 250.25V249.75C2347.43 249.75 2369.75 227.432 2369.75 200H2370.25C2370.25 227.432 2392.57 249.75 2420 249.75V250.25C2392.57 250.25 2370.25 272.568 2370.25 300H2369.75Z" fill="#A54AFF"/>
<path d="M2370 200C2370 227.614 2392.39 250 2420 250C2392.39 250 2370 272.386 2370 300C2370 272.386 2347.61 250 2320 250C2347.61 250 2370 227.614 2370 200ZM2370.5 200H2369.5C2369.5 227.294 2347.29 249.5 2320 249.5V250.5C2347.29 250.5 2369.5 272.706 2369.5 300H2370.5C2370.5 272.706 2392.71 250.5 2420 250.5V249.5C2392.71 249.5 2370.5 227.294 2370.5 200Z" fill="#A54AFF"/>
<path d="M2369.75 400C2369.75 372.568 2347.43 350.25 2320 350.25V349.75C2347.43 349.75 2369.75 327.432 2369.75 300H2370.25C2370.25 327.432 2392.57 349.75 2420 349.75V350.25C2392.57 350.25 2370.25 372.568 2370.25 400H2369.75Z" fill="#A54AFF"/>
<path d="M2370 300C2370 327.614 2392.39 350 2420 350C2392.39 350 2370 372.386 2370 400C2370 372.386 2347.61 350 2320 350C2347.61 350 2370 327.614 2370 300ZM2370.5 300H2369.5C2369.5 327.294 2347.29 349.5 2320 349.5V350.5C2347.29 350.5 2369.5 372.706 2369.5 400H2370.5C2370.5 372.706 2392.71 350.5 2420 350.5V349.5C2392.71 349.5 2370.5 327.294 2370.5 300Z" fill="#A54AFF"/>
<path d="M579.75 600.25V600C579.75 572.292 602.292 549.75 630 549.75H630.25V600.25H579.75Z" fill="white"/>
<path d="M630 550V600H580C580 572.386 602.386 550 630 550ZM630.5 549.5H630C602.154 549.5 579.5 572.154 579.5 600V600.5H630.5V549.5Z" fill="white"/>
<path d="M629.75 550.25V499.75H680.25V500C680.25 527.708 657.708 550.25 630 550.25H629.75Z" fill="white"/>
<path d="M680 500C680 527.614 657.614 550 630 550V500H680ZM680.5 499.5H629.5V550.5H630C657.846 550.5 680.5 527.846 680.5 500V499.5Z" fill="white"/>
<path d="M579.75 500.25V500C579.75 472.292 602.292 449.75 630 449.75H630.25V500.25H579.75Z" fill="white"/>
<path d="M630 450V500H580C580 472.386 602.386 450 630 450ZM630.5 449.5H630C602.154 449.5 579.5 472.154 579.5 500V500.5H630.5V449.5Z" fill="white"/>
<path d="M629.75 450.25V399.75H680.25V400C680.25 427.708 657.708 450.25 630 450.25H629.75Z" fill="white"/>
<path d="M680 400C680 427.614 657.614 450 630 450V400H680ZM680.5 399.5H629.5V450.5H630C657.846 450.5 680.5 427.846 680.5 400V399.5Z" fill="white"/>
<path d="M729.75 450.25V399.75H780.25V400C780.25 427.708 757.708 450.25 730 450.25H729.75Z" fill="white"/>
<path d="M780 400C780 427.614 757.614 450 730 450V400H780ZM780.5 399.5H729.5V450.5H730C757.846 450.5 780.5 427.846 780.5 400V399.5Z" fill="white"/>
<path d="M579.75 700.25V700C579.75 672.292 602.292 649.75 630 649.75H630.25V700.25H579.75Z" fill="white"/>
<path d="M630 650V700H580C580 672.386 602.386 650 630 650ZM630.5 649.5H630C602.154 649.5 579.5 672.154 579.5 700V700.5H630.5V649.5Z" fill="white"/>
<path d="M629.75 650.25V599.75H680.25V600C680.25 627.708 657.708 650.25 630 650.25H629.75Z" fill="white"/>
<path d="M680 600C680 627.614 657.614 650 630 650V600H680ZM680.5 599.5H629.5V650.5H630C657.846 650.5 680.5 627.846 680.5 600V599.5Z" fill="white"/>
<path d="M979.75 600.25V600C979.75 572.292 1002.29 549.75 1030 549.75H1030.25V600.25H979.75Z" fill="white"/>
<path d="M1030 550V600H980C980 572.386 1002.39 550 1030 550ZM1030.5 549.5H1030C1002.15 549.5 979.5 572.154 979.5 600V600.5H1030.5V549.5Z" fill="white"/>
<path d="M1029.75 550.25V499.75H1080.25V500C1080.25 527.708 1057.71 550.25 1030 550.25H1029.75Z" fill="white"/>
<path d="M1080 500C1080 527.614 1057.61 550 1030 550V500H1080ZM1080.5 499.5H1029.5V550.5H1030C1057.85 550.5 1080.5 527.846 1080.5 500V499.5Z" fill="white"/>
<path d="M829.75 450.25V399.75H880.25V400C880.25 427.708 857.708 450.25 830 450.25H829.75Z" fill="white"/>
<path d="M880 400C880 427.614 857.614 450 830 450V400H880ZM880.5 399.5H829.5V450.5H830C857.846 450.5 880.5 427.846 880.5 400V399.5Z" fill="white"/>
<path d="M979.75 500.25V500C979.75 472.292 1002.29 449.75 1030 449.75H1030.25V500.25H979.75Z" fill="white"/>
<path d="M1030 450V500H980C980 472.386 1002.39 450 1030 450ZM1030.5 449.5H1030C1002.15 449.5 979.5 472.154 979.5 500V500.5H1030.5V449.5Z" fill="white"/>
<path d="M929.75 450.25V399.75H980.25V400C980.25 427.708 957.708 450.25 930 450.25H929.75Z" fill="white"/>
<path d="M980 400C980 427.614 957.614 450 930 450V400H980ZM980.5 399.5H929.5V450.5H930C957.846 450.5 980.5 427.846 980.5 400V399.5Z" fill="white"/>
<path d="M1029.75 450.25V399.75H1080.25V400C1080.25 427.708 1057.71 450.25 1030 450.25H1029.75Z" fill="white"/>
<path d="M1080 400C1080 427.614 1057.61 450 1030 450V400H1080ZM1080.5 399.5H1029.5V450.5H1030C1057.85 450.5 1080.5 427.846 1080.5 400V399.5Z" fill="white"/>
<path d="M979.75 700.25V700C979.75 672.292 1002.29 649.75 1030 649.75H1030.25V700.25H979.75Z" fill="white"/>
<path d="M1030 650V700H980C980 672.386 1002.39 650 1030 650ZM1030.5 649.5H1030C1002.15 649.5 979.5 672.154 979.5 700V700.5H1030.5V649.5Z" fill="white"/>
<path d="M1029.75 650.25V599.75H1080.25V600C1080.25 627.708 1057.71 650.25 1030 650.25H1029.75Z" fill="white"/>
<path d="M1080 600C1080 627.614 1057.61 650 1030 650V600H1080ZM1080.5 599.5H1029.5V650.5H1030C1057.85 650.5 1080.5 627.846 1080.5 600V599.5Z" fill="white"/>
<path d="M1029.75 750.25V699.75H1080.25V700C1080.25 727.708 1057.71 750.25 1030 750.25H1029.75Z" fill="white"/>
<path d="M1080 700C1080 727.614 1057.61 750 1030 750V700H1080ZM1080.5 699.5H1029.5V750.5H1030C1057.85 750.5 1080.5 727.846 1080.5 700V699.5Z" fill="white"/>
<path d="M679.75 200.25V200C679.75 172.292 702.292 149.75 730 149.75H730.25V200.25H679.75Z" fill="white"/>
<path d="M730 150V200H680C680 172.386 702.386 150 730 150ZM730.5 149.5H730C702.154 149.5 679.5 172.154 679.5 200V200.5H730.5V149.5Z" fill="white"/>
<path d="M779.75 100.25V100C779.75 72.292 802.292 49.75 830 49.75H830.25V100.25H779.75Z" fill="white"/>
<path d="M830 50V100H780C780 72.386 802.386 50 830 50ZM830.5 49.5H830C802.154 49.5 779.5 72.154 779.5 100V100.5H830.5V49.5Z" fill="white"/>
<path d="M579.75 300.25V300C579.75 272.292 602.292 249.75 630 249.75H630.25V300.25H579.75Z" fill="white"/>
<path d="M630 250V300H580C580 272.386 602.386 250 630 250ZM630.5 249.5H630C602.154 249.5 579.5 272.154 579.5 300V300.5H630.5V249.5Z" fill="white"/>
<path d="M729.75 250.25V199.75H780.25V200C780.25 227.708 757.708 250.25 730 250.25H729.75Z" fill="white"/>
<path d="M780 200C780 227.614 757.614 250 730 250V200H780ZM780.5 199.5H729.5V250.5H730C757.846 250.5 780.5 227.846 780.5 200V199.5Z" fill="white"/>
<path d="M579.75 400.25V400C579.75 372.292 602.292 349.75 630 349.75H630.25V400.25H579.75Z" fill="white"/>
<path d="M630 350V400H580C580 372.386 602.386 350 630 350ZM630.5 349.5H630C602.154 349.5 579.5 372.154 579.5 400V400.5H630.5V349.5Z" fill="white"/>
<path d="M679.75 400.25V400C679.75 372.292 702.292 349.75 730 349.75H730.25V400.25H679.75Z" fill="white"/>
<path d="M730 350V400H680C680 372.386 702.386 350 730 350ZM730.5 349.5H730C702.154 349.5 679.5 372.154 679.5 400V400.5H730.5V349.5Z" fill="white"/>
<path d="M629.75 350.25V299.75H680.25V300C680.25 327.708 657.708 350.25 630 350.25H629.75Z" fill="white"/>
<path d="M680 300C680 327.614 657.614 350 630 350V300H680ZM680.5 299.5H629.5V350.5H630C657.846 350.5 680.5 327.846 680.5 300V299.5Z" fill="white"/>
<path d="M779.75 400.25V400C779.75 372.292 802.292 349.75 830 349.75H830.25V400.25H779.75Z" fill="white"/>
<path d="M830 350V400H780C780 372.386 802.386 350 830 350ZM830.5 349.5H830C802.154 349.5 779.5 372.154 779.5 400V400.5H830.5V349.5Z" fill="white"/>
<path d="M879.75 200.25V200C879.75 172.292 902.292 149.75 930 149.75H930.25V200.25H879.75Z" fill="white"/>
<path d="M930 150V200H880C880 172.386 902.386 150 930 150ZM930.5 149.5H930C902.154 149.5 879.5 172.154 879.5 200V200.5H930.5V149.5Z" fill="white"/>
<path d="M829.75 150.25V99.75H880.25V100C880.25 127.708 857.708 150.25 830 150.25H829.75Z" fill="white"/>
<path d="M880 100C880 127.614 857.614 150 830 150V100H880ZM880.5 99.5H829.5V150.5H830C857.846 150.5 880.5 127.846 880.5 100V99.5Z" fill="white"/>
<path d="M979.75 300.25V300C979.75 272.292 1002.29 249.75 1030 249.75H1030.25V300.25H979.75Z" fill="white"/>
<path d="M1030 250V300H980C980 272.386 1002.39 250 1030 250ZM1030.5 249.5H1030C1002.15 249.5 979.5 272.154 979.5 300V300.5H1030.5V249.5Z" fill="white"/>
<path d="M929.75 250.25V199.75H980.25V200C980.25 227.708 957.708 250.25 930 250.25H929.75Z" fill="white"/>
<path d="M980 200C980 227.614 957.614 250 930 250V200H980ZM980.5 199.5H929.5V250.5H930C957.846 250.5 980.5 227.846 980.5 200V199.5Z" fill="white"/>
<path d="M879.75 400.25V400C879.75 372.292 902.292 349.75 930 349.75H930.25V400.25H879.75Z" fill="white"/>
<path d="M930 350V400H880C880 372.386 902.386 350 930 350ZM930.5 349.5H930C902.154 349.5 879.5 372.154 879.5 400V400.5H930.5V349.5Z" fill="white"/>
<path d="M979.75 400.25V400C979.75 372.292 1002.29 349.75 1030 349.75H1030.25V400.25H979.75Z" fill="white"/>
<path d="M1030 350V400H980C980 372.386 1002.39 350 1030 350ZM1030.5 349.5H1030C1002.15 349.5 979.5 372.154 979.5 400V400.5H1030.5V349.5Z" fill="white"/>
<path d="M1029.75 350.25V299.75H1080.25V300C1080.25 327.708 1057.71 350.25 1030 350.25H1029.75Z" fill="white"/>
<path d="M1080 300C1080 327.614 1057.61 350 1030 350V300H1080ZM1080.5 299.5H1029.5V350.5H1030C1057.85 350.5 1080.5 327.846 1080.5 300V299.5Z" fill="white"/>
<path d="M579.75 600C579.75 572.567 557.433 550.25 530 550.25V549.75C557.433 549.75 579.75 527.433 579.75 500H580.25C580.25 527.433 602.567 549.75 630 549.75V550.25C602.567 550.25 580.25 572.567 580.25 600H579.75Z" fill="#A54AFF"/>
<path d="M580 500C580 527.614 602.386 550 630 550C602.386 550 580 572.386 580 600C580 572.386 557.614 550 530 550C557.614 550 580 527.614 580 500ZM580.5 500H579.5C579.5 527.294 557.294 549.5 530 549.5V550.5C557.294 550.5 579.5 572.706 579.5 600H580.5C580.5 572.706 602.706 550.5 630 550.5V549.5C602.706 549.5 580.5 527.294 580.5 500Z" fill="#A54AFF"/>
<path d="M630 550.25C602.292 550.25 579.75 527.708 579.75 500V499.75H630.25V550.25H630Z" fill="#A54AFF"/>
<path d="M630 500V550C602.386 550 580 527.614 580 500H630ZM630.5 499.5H579.5V500C579.5 527.846 602.154 550.5 630 550.5H630.5V499.5Z" fill="#A54AFF"/>
<path d="M679.75 600C679.75 572.567 657.433 550.25 630 550.25V549.75C657.433 549.75 679.75 527.433 679.75 500H680.25C680.25 527.433 702.567 549.75 730 549.75V550.25C702.567 550.25 680.25 572.567 680.25 600H679.75Z" fill="#A54AFF"/>
<path d="M680 500C680 527.614 702.386 550 730 550C702.386 550 680 572.386 680 600C680 572.386 657.614 550 630 550C657.614 550 680 527.614 680 500ZM680.5 500H679.5C679.5 527.294 657.294 549.5 630 549.5V550.5C657.294 550.5 679.5 572.706 679.5 600H680.5C680.5 572.706 702.706 550.5 730 550.5V549.5C702.706 549.5 680.5 527.294 680.5 500Z" fill="#A54AFF"/>
<path d="M629.75 600.25V549.75H630C657.708 549.75 680.25 572.292 680.25 600V600.25H629.75Z" fill="#A54AFF"/>
<path d="M630 550C657.614 550 680 572.386 680 600H630V550ZM630 549.5H629.5V600.5H680.5V600C680.5 572.154 657.846 549.5 630 549.5Z" fill="#A54AFF"/>
<path d="M579.75 500C579.75 472.567 557.433 450.25 530 450.25V449.75C557.433 449.75 579.75 427.433 579.75 400H580.25C580.25 427.433 602.567 449.75 630 449.75V450.25C602.567 450.25 580.25 472.567 580.25 500H579.75Z" fill="#A54AFF"/>
<path d="M580 400C580 427.614 602.386 450 630 450C602.386 450 580 472.386 580 500C580 472.386 557.614 450 530 450C557.614 450 580 427.614 580 400ZM580.5 400H579.5C579.5 427.294 557.294 449.5 530 449.5V450.5C557.294 450.5 579.5 472.706 579.5 500H580.5C580.5 472.706 602.706 450.5 630 450.5V449.5C602.706 449.5 580.5 427.294 580.5 400Z" fill="#A54AFF"/>
<path d="M630 450.25C602.292 450.25 579.75 427.708 579.75 400V399.75H630.25V450.25H630Z" fill="#A54AFF"/>
<path d="M630 400V450C602.386 450 580 427.614 580 400H630ZM630.5 399.5H579.5V400C579.5 427.846 602.154 450.5 630 450.5H630.5V399.5Z" fill="#A54AFF"/>
<path d="M679.75 500C679.75 472.567 657.433 450.25 630 450.25V449.75C657.433 449.75 679.75 427.433 679.75 400H680.25C680.25 427.433 702.567 449.75 730 449.75V450.25C702.567 450.25 680.25 472.567 680.25 500H679.75Z" fill="#A54AFF"/>
<path d="M680 400C680 427.614 702.386 450 730 450C702.386 450 680 472.386 680 500C680 472.386 657.614 450 630 450C657.614 450 680 427.614 680 400ZM680.5 400H679.5C679.5 427.294 657.294 449.5 630 449.5V450.5C657.294 450.5 679.5 472.706 679.5 500H680.5C680.5 472.706 702.706 450.5 730 450.5V449.5C702.706 449.5 680.5 427.294 680.5 400Z" fill="#A54AFF"/>
<path d="M730 450.25C702.292 450.25 679.75 427.708 679.75 400V399.75H730.25V450.25H730Z" fill="#A54AFF"/>
<path d="M730 400V450C702.386 450 680 427.614 680 400H730ZM730.5 399.5H679.5V400C679.5 427.846 702.154 450.5 730 450.5H730.5V399.5Z" fill="#A54AFF"/>
<path d="M629.75 500.25V449.75H630C657.708 449.75 680.25 472.292 680.25 500V500.25H629.75Z" fill="#A54AFF"/>
<path d="M630 450C657.614 450 680 472.386 680 500H630V450ZM630 449.5H629.5V500.5H680.5V500C680.5 472.154 657.846 449.5 630 449.5Z" fill="#A54AFF"/>
<path d="M779.75 500C779.75 472.567 757.433 450.25 730 450.25V449.75C757.433 449.75 779.75 427.433 779.75 400H780.25C780.25 427.433 802.567 449.75 830 449.75V450.25C802.567 450.25 780.25 472.567 780.25 500H779.75Z" fill="#A54AFF"/>
<path d="M780 400C780 427.614 802.386 450 830 450C802.386 450 780 472.386 780 500C780 472.386 757.614 450 730 450C757.614 450 780 427.614 780 400ZM780.5 400H779.5C779.5 427.294 757.294 449.5 730 449.5V450.5C757.294 450.5 779.5 472.706 779.5 500H780.5C780.5 472.706 802.706 450.5 830 450.5V449.5C802.706 449.5 780.5 427.294 780.5 400Z" fill="#A54AFF"/>
<path d="M830 450.25C802.292 450.25 779.75 427.708 779.75 400V399.75H830.25V450.25H830Z" fill="#A54AFF"/>
<path d="M830 400V450C802.386 450 780 427.614 780 400H830ZM830.5 399.5H779.5V400C779.5 427.846 802.154 450.5 830 450.5H830.5V399.5Z" fill="#A54AFF"/>
<path d="M579.75 700C579.75 672.567 557.433 650.25 530 650.25V649.75C557.433 649.75 579.75 627.433 579.75 600H580.25C580.25 627.433 602.567 649.75 630 649.75V650.25C602.567 650.25 580.25 672.567 580.25 700H579.75Z" fill="#A54AFF"/>
<path d="M580 600C580 627.614 602.386 650 630 650C602.386 650 580 672.386 580 700C580 672.386 557.614 650 530 650C557.614 650 580 627.614 580 600ZM580.5 600H579.5C579.5 627.294 557.294 649.5 530 649.5V650.5C557.294 650.5 579.5 672.706 579.5 700H580.5C580.5 672.706 602.706 650.5 630 650.5V649.5C602.706 649.5 580.5 627.294 580.5 600Z" fill="#A54AFF"/>
<path d="M630 650.25C602.292 650.25 579.75 627.708 579.75 600V599.75H630.25V650.25H630Z" fill="#A54AFF"/>
<path d="M630 600V650C602.386 650 580 627.614 580 600H630ZM630.5 599.5H579.5V600C579.5 627.846 602.154 650.5 630 650.5H630.5V599.5Z" fill="#A54AFF"/>
<path d="M679.75 700C679.75 672.567 657.433 650.25 630 650.25V649.75C657.433 649.75 679.75 627.433 679.75 600H680.25C680.25 627.433 702.567 649.75 730 649.75V650.25C702.567 650.25 680.25 672.567 680.25 700H679.75Z" fill="#A54AFF"/>
<path d="M680 600C680 627.614 702.386 650 730 650C702.386 650 680 672.386 680 700C680 672.386 657.614 650 630 650C657.614 650 680 627.614 680 600ZM680.5 600H679.5C679.5 627.294 657.294 649.5 630 649.5V650.5C657.294 650.5 679.5 672.706 679.5 700H680.5C680.5 672.706 702.706 650.5 730 650.5V649.5C702.706 649.5 680.5 627.294 680.5 600Z" fill="#A54AFF"/>
<path d="M629.75 700.25V649.75H630C657.708 649.75 680.25 672.292 680.25 700V700.25H629.75Z" fill="#A54AFF"/>
<path d="M630 650C657.614 650 680 672.386 680 700H630V650ZM630 649.5H629.5V700.5H680.5V700C680.5 672.154 657.846 649.5 630 649.5Z" fill="#A54AFF"/>
<path d="M579.75 800C579.75 772.567 557.433 750.25 530 750.25V749.75C557.433 749.75 579.75 727.433 579.75 700H580.25C580.25 727.433 602.567 749.75 630 749.75V750.25C602.567 750.25 580.25 772.567 580.25 800H579.75Z" fill="#A54AFF"/>
<path d="M580 700C580 727.614 602.386 750 630 750C602.386 750 580 772.386 580 800C580 772.386 557.614 750 530 750C557.614 750 580 727.614 580 700ZM580.5 700H579.5C579.5 727.294 557.294 749.5 530 749.5V750.5C557.294 750.5 579.5 772.706 579.5 800H580.5C580.5 772.706 602.706 750.5 630 750.5V749.5C602.706 749.5 580.5 727.294 580.5 700Z" fill="#A54AFF"/>
<path d="M630 750.25C602.292 750.25 579.75 727.708 579.75 700V699.75H630.25V750.25H630Z" fill="#A54AFF"/>
<path d="M630 700V750C602.386 750 580 727.614 580 700H630ZM630.5 699.5H579.5V700C579.5 727.846 602.154 750.5 630 750.5H630.5V699.5Z" fill="#A54AFF"/>
<path d="M629.75 750.25V699.75H680.25V700C680.25 727.708 657.708 750.25 630 750.25H629.75Z" fill="white"/>
<path d="M680 700C680 727.614 657.614 750 630 750V700H680ZM680.5 699.5H629.5V750.5H630C657.846 750.5 680.5 727.846 680.5 700V699.5Z" fill="white"/>
<path d="M679.75 800C679.75 772.567 657.433 750.25 630 750.25V749.75C657.433 749.75 679.75 727.433 679.75 700H680.25C680.25 727.433 702.567 749.75 730 749.75V750.25C702.567 750.25 680.25 772.567 680.25 800H679.75Z" fill="#A54AFF"/>
<path d="M680 700C680 727.614 702.386 750 730 750C702.386 750 680 772.386 680 800C680 772.386 657.614 750 630 750C657.614 750 680 727.614 680 700ZM680.5 700H679.5C679.5 727.294 657.294 749.5 630 749.5V750.5C657.294 750.5 679.5 772.706 679.5 800H680.5C680.5 772.706 702.706 750.5 730 750.5V749.5C702.706 749.5 680.5 727.294 680.5 700Z" fill="#A54AFF"/>
<path d="M979.75 600C979.75 572.567 957.433 550.25 930 550.25V549.75C957.433 549.75 979.75 527.433 979.75 500H980.25C980.25 527.433 1002.57 549.75 1030 549.75V550.25C1002.57 550.25 980.25 572.567 980.25 600H979.75Z" fill="#A54AFF"/>
<path d="M980 500C980 527.614 1002.39 550 1030 550C1002.39 550 980 572.386 980 600C980 572.386 957.614 550 930 550C957.614 550 980 527.614 980 500ZM980.5 500H979.5C979.5 527.294 957.294 549.5 930 549.5V550.5C957.294 550.5 979.5 572.706 979.5 600H980.5C980.5 572.706 1002.71 550.5 1030 550.5V549.5C1002.71 549.5 980.5 527.294 980.5 500Z" fill="#A54AFF"/>
<path d="M1030 550.25C1002.29 550.25 979.75 527.708 979.75 500V499.75H1030.25V550.25H1030Z" fill="#A54AFF"/>
<path d="M1030 500V550C1002.39 550 980 527.614 980 500H1030ZM1030.5 499.5H979.5V500C979.5 527.846 1002.15 550.5 1030 550.5H1030.5V499.5Z" fill="#A54AFF"/>
<path d="M1079.75 600C1079.75 572.567 1057.43 550.25 1030 550.25V549.75C1057.43 549.75 1079.75 527.433 1079.75 500H1080.25C1080.25 527.433 1102.57 549.75 1130 549.75V550.25C1102.57 550.25 1080.25 572.567 1080.25 600H1079.75Z" fill="#A54AFF"/>
<path d="M1080 500C1080 527.614 1102.39 550 1130 550C1102.39 550 1080 572.386 1080 600C1080 572.386 1057.61 550 1030 550C1057.61 550 1080 527.614 1080 500ZM1080.5 500H1079.5C1079.5 527.294 1057.29 549.5 1030 549.5V550.5C1057.29 550.5 1079.5 572.706 1079.5 600H1080.5C1080.5 572.706 1102.71 550.5 1130 550.5V549.5C1102.71 549.5 1080.5 527.294 1080.5 500Z" fill="#A54AFF"/>
<path d="M1029.75 600.25V549.75H1030C1057.71 549.75 1080.25 572.292 1080.25 600V600.25H1029.75Z" fill="#A54AFF"/>
<path d="M1030 550C1057.61 550 1080 572.386 1080 600H1030V550ZM1030 549.5H1029.5V600.5H1080.5V600C1080.5 572.154 1057.85 549.5 1030 549.5Z" fill="#A54AFF"/>
<path d="M879.75 500C879.75 472.567 857.433 450.25 830 450.25V449.75C857.433 449.75 879.75 427.433 879.75 400H880.25C880.25 427.433 902.567 449.75 930 449.75V450.25C902.567 450.25 880.25 472.567 880.25 500H879.75Z" fill="#A54AFF"/>
<path d="M880 400C880 427.614 902.386 450 930 450C902.386 450 880 472.386 880 500C880 472.386 857.614 450 830 450C857.614 450 880 427.614 880 400ZM880.5 400H879.5C879.5 427.294 857.294 449.5 830 449.5V450.5C857.294 450.5 879.5 472.706 879.5 500H880.5C880.5 472.706 902.706 450.5 930 450.5V449.5C902.706 449.5 880.5 427.294 880.5 400Z" fill="#A54AFF"/>
<path d="M930 450.25C902.292 450.25 879.75 427.708 879.75 400V399.75H930.25V450.25H930Z" fill="#A54AFF"/>
<path d="M930 400V450C902.386 450 880 427.614 880 400H930ZM930.5 399.5H879.5V400C879.5 427.846 902.154 450.5 930 450.5H930.5V399.5Z" fill="#A54AFF"/>
<path d="M979.75 500C979.75 472.567 957.433 450.25 930 450.25V449.75C957.433 449.75 979.75 427.433 979.75 400H980.25C980.25 427.433 1002.57 449.75 1030 449.75V450.25C1002.57 450.25 980.25 472.567 980.25 500H979.75Z" fill="#A54AFF"/>
<path d="M980 400C980 427.614 1002.39 450 1030 450C1002.39 450 980 472.386 980 500C980 472.386 957.614 450 930 450C957.614 450 980 427.614 980 400ZM980.5 400H979.5C979.5 427.294 957.294 449.5 930 449.5V450.5C957.294 450.5 979.5 472.706 979.5 500H980.5C980.5 472.706 1002.71 450.5 1030 450.5V449.5C1002.71 449.5 980.5 427.294 980.5 400Z" fill="#A54AFF"/>
<path d="M1030 450.25C1002.29 450.25 979.75 427.708 979.75 400V399.75H1030.25V450.25H1030Z" fill="#A54AFF"/>
<path d="M1030 400V450C1002.39 450 980 427.614 980 400H1030ZM1030.5 399.5H979.5V400C979.5 427.846 1002.15 450.5 1030 450.5H1030.5V399.5Z" fill="#A54AFF"/>
<path d="M1079.75 500C1079.75 472.567 1057.43 450.25 1030 450.25V449.75C1057.43 449.75 1079.75 427.433 1079.75 400H1080.25C1080.25 427.433 1102.57 449.75 1130 449.75V450.25C1102.57 450.25 1080.25 472.567 1080.25 500H1079.75Z" fill="#A54AFF"/>
<path d="M1080 400C1080 427.614 1102.39 450 1130 450C1102.39 450 1080 472.386 1080 500C1080 472.386 1057.61 450 1030 450C1057.61 450 1080 427.614 1080 400ZM1080.5 400H1079.5C1079.5 427.294 1057.29 449.5 1030 449.5V450.5C1057.29 450.5 1079.5 472.706 1079.5 500H1080.5C1080.5 472.706 1102.71 450.5 1130 450.5V449.5C1102.71 449.5 1080.5 427.294 1080.5 400Z" fill="#A54AFF"/>
<path d="M1029.75 500.25V449.75H1030C1057.71 449.75 1080.25 472.292 1080.25 500V500.25H1029.75Z" fill="#A54AFF"/>
<path d="M1030 450C1057.61 450 1080 472.386 1080 500H1030V450ZM1030 449.5H1029.5V500.5H1080.5V500C1080.5 472.154 1057.85 449.5 1030 449.5Z" fill="#A54AFF"/>
<path d="M979.75 700C979.75 672.567 957.433 650.25 930 650.25V649.75C957.433 649.75 979.75 627.433 979.75 600H980.25C980.25 627.433 1002.57 649.75 1030 649.75V650.25C1002.57 650.25 980.25 672.567 980.25 700H979.75Z" fill="#A54AFF"/>
<path d="M980 600C980 627.614 1002.39 650 1030 650C1002.39 650 980 672.386 980 700C980 672.386 957.614 650 930 650C957.614 650 980 627.614 980 600ZM980.5 600H979.5C979.5 627.294 957.294 649.5 930 649.5V650.5C957.294 650.5 979.5 672.706 979.5 700H980.5C980.5 672.706 1002.71 650.5 1030 650.5V649.5C1002.71 649.5 980.5 627.294 980.5 600Z" fill="#A54AFF"/>
<path d="M1030 650.25C1002.29 650.25 979.75 627.708 979.75 600V599.75H1030.25V650.25H1030Z" fill="#A54AFF"/>
<path d="M1030 600V650C1002.39 650 980 627.614 980 600H1030ZM1030.5 599.5H979.5V600C979.5 627.846 1002.15 650.5 1030 650.5H1030.5V599.5Z" fill="#A54AFF"/>
<path d="M1079.75 700C1079.75 672.567 1057.43 650.25 1030 650.25V649.75C1057.43 649.75 1079.75 627.433 1079.75 600H1080.25C1080.25 627.433 1102.57 649.75 1130 649.75V650.25C1102.57 650.25 1080.25 672.567 1080.25 700H1079.75Z" fill="#A54AFF"/>
<path d="M1080 600C1080 627.614 1102.39 650 1130 650C1102.39 650 1080 672.386 1080 700C1080 672.386 1057.61 650 1030 650C1057.61 650 1080 627.614 1080 600ZM1080.5 600H1079.5C1079.5 627.294 1057.29 649.5 1030 649.5V650.5C1057.29 650.5 1079.5 672.706 1079.5 700H1080.5C1080.5 672.706 1102.71 650.5 1130 650.5V649.5C1102.71 649.5 1080.5 627.294 1080.5 600Z" fill="#A54AFF"/>
<path d="M1029.75 700.25V649.75H1030C1057.71 649.75 1080.25 672.292 1080.25 700V700.25H1029.75Z" fill="#A54AFF"/>
<path d="M1030 650C1057.61 650 1080 672.386 1080 700H1030V650ZM1030 649.5H1029.5V700.5H1080.5V700C1080.5 672.154 1057.85 649.5 1030 649.5Z" fill="#A54AFF"/>
<path d="M979.75 800C979.75 772.567 957.433 750.25 930 750.25V749.75C957.433 749.75 979.75 727.433 979.75 700H980.25C980.25 727.433 1002.57 749.75 1030 749.75V750.25C1002.57 750.25 980.25 772.567 980.25 800H979.75Z" fill="#A54AFF"/>
<path d="M980 700C980 727.614 1002.39 750 1030 750C1002.39 750 980 772.386 980 800C980 772.386 957.614 750 930 750C957.614 750 980 727.614 980 700ZM980.5 700H979.5C979.5 727.294 957.294 749.5 930 749.5V750.5C957.294 750.5 979.5 772.706 979.5 800H980.5C980.5 772.706 1002.71 750.5 1030 750.5V749.5C1002.71 749.5 980.5 727.294 980.5 700Z" fill="#A54AFF"/>
<path d="M1030 750.25C1002.29 750.25 979.75 727.708 979.75 700V699.75H1030.25V750.25H1030Z" fill="#A54AFF"/>
<path d="M1030 700V750C1002.39 750 980 727.614 980 700H1030ZM1030.5 699.5H979.5V700C979.5 727.846 1002.15 750.5 1030 750.5H1030.5V699.5Z" fill="#A54AFF"/>
<path d="M1079.75 800C1079.75 772.567 1057.43 750.25 1030 750.25V749.75C1057.43 749.75 1079.75 727.433 1079.75 700H1080.25C1080.25 727.433 1102.57 749.75 1130 749.75V750.25C1102.57 750.25 1080.25 772.567 1080.25 800H1079.75Z" fill="#A54AFF"/>
<path d="M1080 700C1080 727.614 1102.39 750 1130 750C1102.39 750 1080 772.386 1080 800C1080 772.386 1057.61 750 1030 750C1057.61 750 1080 727.614 1080 700ZM1080.5 700H1079.5C1079.5 727.294 1057.29 749.5 1030 749.5V750.5C1057.29 750.5 1079.5 772.706 1079.5 800H1080.5C1080.5 772.706 1102.71 750.5 1130 750.5V749.5C1102.71 749.5 1080.5 727.294 1080.5 700Z" fill="#A54AFF"/>
<path d="M679.75 200C679.75 172.568 657.433 150.25 630 150.25V149.75C657.433 149.75 679.75 127.432 679.75 100H680.25C680.25 127.432 702.567 149.75 730 149.75V150.25C702.567 150.25 680.25 172.568 680.25 200H679.75Z" fill="#A54AFF"/>
<path d="M680 100C680 127.614 702.386 150 730 150C702.386 150 680 172.386 680 200C680 172.386 657.614 150 630 150C657.614 150 680 127.614 680 100ZM680.5 100H679.5C679.5 127.294 657.294 149.5 630 149.5V150.5C657.294 150.5 679.5 172.706 679.5 200H680.5C680.5 172.706 702.706 150.5 730 150.5V149.5C702.706 149.5 680.5 127.294 680.5 100Z" fill="#A54AFF"/>
<path d="M779.75 200C779.75 172.568 757.433 150.25 730 150.25V149.75C757.433 149.75 779.75 127.432 779.75 100H780.25C780.25 127.432 802.567 149.75 830 149.75V150.25C802.567 150.25 780.25 172.568 780.25 200H779.75Z" fill="#A54AFF"/>
<path d="M780 100C780 127.614 802.386 150 830 150C802.386 150 780 172.386 780 200C780 172.386 757.614 150 730 150C757.614 150 780 127.614 780 100ZM780.5 100H779.5C779.5 127.294 757.294 149.5 730 149.5V150.5C757.294 150.5 779.5 172.706 779.5 200H780.5C780.5 172.706 802.706 150.5 830 150.5V149.5C802.706 149.5 780.5 127.294 780.5 100Z" fill="#A54AFF"/>
<path d="M830 150.25C802.292 150.25 779.75 127.708 779.75 100V99.75H830.25V150.25H830Z" fill="#A54AFF"/>
<path d="M830 100V150C802.386 150 780 127.614 780 100H830ZM830.5 99.5H779.5V100C779.5 127.846 802.154 150.5 830 150.5H830.5V99.5Z" fill="#A54AFF"/>
<path d="M729.75 200.25V149.75H730C757.708 149.75 780.25 172.292 780.25 200V200.25H729.75Z" fill="#A54AFF"/>
<path d="M730 150C757.614 150 780 172.386 780 200H730V150ZM730 149.5H729.5V200.5H780.5V200C780.5 172.154 757.846 149.5 730 149.5Z" fill="#A54AFF"/>
<path d="M779.75 100C779.75 72.568 757.433 50.25 730 50.25V49.75C757.433 49.75 779.75 27.432 779.75 0H780.25C780.25 27.432 802.567 49.75 830 49.75V50.25C802.567 50.25 780.25 72.568 780.25 100H779.75Z" fill="#A54AFF"/>
<path d="M780 0C780 27.614 802.386 50 830 50C802.386 50 780 72.386 780 100C780 72.386 757.614 50 730 50C757.614 50 780 27.614 780 0ZM780.5 0H779.5C779.5 27.294 757.294 49.5 730 49.5V50.5C757.294 50.5 779.5 72.706 779.5 100H780.5C780.5 72.706 802.706 50.5 830 50.5V49.5C802.706 49.5 780.5 27.294 780.5 0Z" fill="#A54AFF"/>
<path d="M579.75 300C579.75 272.568 557.433 250.25 530 250.25V249.75C557.433 249.75 579.75 227.432 579.75 200H580.25C580.25 227.432 602.567 249.75 630 249.75V250.25C602.567 250.25 580.25 272.568 580.25 300H579.75Z" fill="#A54AFF"/>
<path d="M580 200C580 227.614 602.386 250 630 250C602.386 250 580 272.386 580 300C580 272.386 557.614 250 530 250C557.614 250 580 227.614 580 200ZM580.5 200H579.5C579.5 227.294 557.294 249.5 530 249.5V250.5C557.294 250.5 579.5 272.706 579.5 300H580.5C580.5 272.706 602.706 250.5 630 250.5V249.5C602.706 249.5 580.5 227.294 580.5 200Z" fill="#A54AFF"/>
<path d="M679.75 300C679.75 272.568 657.433 250.25 630 250.25V249.75C657.433 249.75 679.75 227.432 679.75 200H680.25C680.25 227.432 702.567 249.75 730 249.75V250.25C702.567 250.25 680.25 272.568 680.25 300H679.75Z" fill="#A54AFF"/>
<path d="M680 200C680 227.614 702.386 250 730 250C702.386 250 680 272.386 680 300C680 272.386 657.614 250 630 250C657.614 250 680 227.614 680 200ZM680.5 200H679.5C679.5 227.294 657.294 249.5 630 249.5V250.5C657.294 250.5 679.5 272.706 679.5 300H680.5C680.5 272.706 702.706 250.5 730 250.5V249.5C702.706 249.5 680.5 227.294 680.5 200Z" fill="#A54AFF"/>
<path d="M730 250.25C702.292 250.25 679.75 227.708 679.75 200V199.75H730.25V250.25H730Z" fill="#A54AFF"/>
<path d="M730 200V250C702.386 250 680 227.614 680 200H730ZM730.5 199.5H679.5V200C679.5 227.846 702.154 250.5 730 250.5H730.5V199.5Z" fill="#A54AFF"/>
<path d="M629.75 300.25V249.75H630C657.708 249.75 680.25 272.292 680.25 300V300.25H629.75Z" fill="#A54AFF"/>
<path d="M630 250C657.614 250 680 272.386 680 300H630V250ZM630 249.5H629.5V300.5H680.5V300C680.5 272.154 657.846 249.5 630 249.5Z" fill="#A54AFF"/>
<path d="M779.75 300C779.75 272.568 757.433 250.25 730 250.25V249.75C757.433 249.75 779.75 227.432 779.75 200H780.25C780.25 227.432 802.567 249.75 830 249.75V250.25C802.567 250.25 780.25 272.568 780.25 300H779.75Z" fill="#A54AFF"/>
<path d="M780 200C780 227.614 802.386 250 830 250C802.386 250 780 272.386 780 300C780 272.386 757.614 250 730 250C757.614 250 780 227.614 780 200ZM780.5 200H779.5C779.5 227.294 757.294 249.5 730 249.5V250.5C757.294 250.5 779.5 272.706 779.5 300H780.5C780.5 272.706 802.706 250.5 830 250.5V249.5C802.706 249.5 780.5 227.294 780.5 200Z" fill="#A54AFF"/>
<path d="M579.75 400C579.75 372.568 557.433 350.25 530 350.25V349.75C557.433 349.75 579.75 327.432 579.75 300H580.25C580.25 327.432 602.567 349.75 630 349.75V350.25C602.567 350.25 580.25 372.568 580.25 400H579.75Z" fill="#A54AFF"/>
<path d="M580 300C580 327.614 602.386 350 630 350C602.386 350 580 372.386 580 400C580 372.386 557.614 350 530 350C557.614 350 580 327.614 580 300ZM580.5 300H579.5C579.5 327.294 557.294 349.5 530 349.5V350.5C557.294 350.5 579.5 372.706 579.5 400H580.5C580.5 372.706 602.706 350.5 630 350.5V349.5C602.706 349.5 580.5 327.294 580.5 300Z" fill="#A54AFF"/>
<path d="M630 350.25C602.292 350.25 579.75 327.708 579.75 300V299.75H630.25V350.25H630Z" fill="#A54AFF"/>
<path d="M630 300V350C602.386 350 580 327.614 580 300H630ZM630.5 299.5H579.5V300C579.5 327.846 602.154 350.5 630 350.5H630.5V299.5Z" fill="#A54AFF"/>
<path d="M679.75 400C679.75 372.568 657.433 350.25 630 350.25V349.75C657.433 349.75 679.75 327.432 679.75 300H680.25C680.25 327.432 702.567 349.75 730 349.75V350.25C702.567 350.25 680.25 372.568 680.25 400H679.75Z" fill="#A54AFF"/>
<path d="M680 300C680 327.614 702.386 350 730 350C702.386 350 680 372.386 680 400C680 372.386 657.614 350 630 350C657.614 350 680 327.614 680 300ZM680.5 300H679.5C679.5 327.294 657.294 349.5 630 349.5V350.5C657.294 350.5 679.5 372.706 679.5 400H680.5C680.5 372.706 702.706 350.5 730 350.5V349.5C702.706 349.5 680.5 327.294 680.5 300Z" fill="#A54AFF"/>
<path d="M629.75 400.25V349.75H630C657.708 349.75 680.25 372.292 680.25 400V400.25H629.75Z" fill="#A54AFF"/>
<path d="M630 350C657.614 350 680 372.386 680 400H630V350ZM630 349.5H629.5V400.5H680.5V400C680.5 372.154 657.846 349.5 630 349.5Z" fill="#A54AFF"/>
<path d="M779.75 400C779.75 372.568 757.433 350.25 730 350.25V349.75C757.433 349.75 779.75 327.432 779.75 300H780.25C780.25 327.432 802.567 349.75 830 349.75V350.25C802.567 350.25 780.25 372.568 780.25 400H779.75Z" fill="#A54AFF"/>
<path d="M780 300C780 327.614 802.386 350 830 350C802.386 350 780 372.386 780 400C780 372.386 757.614 350 730 350C757.614 350 780 327.614 780 300ZM780.5 300H779.5C779.5 327.294 757.294 349.5 730 349.5V350.5C757.294 350.5 779.5 372.706 779.5 400H780.5C780.5 372.706 802.706 350.5 830 350.5V349.5C802.706 349.5 780.5 327.294 780.5 300Z" fill="#A54AFF"/>
<path d="M729.75 400.25V349.75H730C757.708 349.75 780.25 372.292 780.25 400V400.25H729.75Z" fill="#A54AFF"/>
<path d="M730 350C757.614 350 780 372.386 780 400H730V350ZM730 349.5H729.5V400.5H780.5V400C780.5 372.154 757.846 349.5 730 349.5Z" fill="#A54AFF"/>
<path d="M879.75 200C879.75 172.568 857.433 150.25 830 150.25V149.75C857.433 149.75 879.75 127.432 879.75 100H880.25C880.25 127.432 902.567 149.75 930 149.75V150.25C902.567 150.25 880.25 172.568 880.25 200H879.75Z" fill="#A54AFF"/>
<path d="M880 100C880 127.614 902.386 150 930 150C902.386 150 880 172.386 880 200C880 172.386 857.614 150 830 150C857.614 150 880 127.614 880 100ZM880.5 100H879.5C879.5 127.294 857.294 149.5 830 149.5V150.5C857.294 150.5 879.5 172.706 879.5 200H880.5C880.5 172.706 902.706 150.5 930 150.5V149.5C902.706 149.5 880.5 127.294 880.5 100Z" fill="#A54AFF"/>
<path d="M979.75 200C979.75 172.568 957.433 150.25 930 150.25V149.75C957.433 149.75 979.75 127.432 979.75 100H980.25C980.25 127.432 1002.57 149.75 1030 149.75V150.25C1002.57 150.25 980.25 172.568 980.25 200H979.75Z" fill="#A54AFF"/>
<path d="M980 100C980 127.614 1002.39 150 1030 150C1002.39 150 980 172.386 980 200C980 172.386 957.614 150 930 150C957.614 150 980 127.614 980 100ZM980.5 100H979.5C979.5 127.294 957.294 149.5 930 149.5V150.5C957.294 150.5 979.5 172.706 979.5 200H980.5C980.5 172.706 1002.71 150.5 1030 150.5V149.5C1002.71 149.5 980.5 127.294 980.5 100Z" fill="#A54AFF"/>
<path d="M929.75 200.25V149.75H930C957.708 149.75 980.25 172.292 980.25 200V200.25H929.75Z" fill="#A54AFF"/>
<path d="M930 150C957.614 150 980 172.386 980 200H930V150ZM930 149.5H929.5V200.5H980.5V200C980.5 172.154 957.846 149.5 930 149.5Z" fill="#A54AFF"/>
<path d="M879.75 100C879.75 72.568 857.433 50.25 830 50.25V49.75C857.433 49.75 879.75 27.432 879.75 0H880.25C880.25 27.432 902.567 49.75 930 49.75V50.25C902.567 50.25 880.25 72.568 880.25 100H879.75Z" fill="#A54AFF"/>
<path d="M880 0C880 27.614 902.386 50 930 50C902.386 50 880 72.386 880 100C880 72.386 857.614 50 830 50C857.614 50 880 27.614 880 0ZM880.5 0H879.5C879.5 27.294 857.294 49.5 830 49.5V50.5C857.294 50.5 879.5 72.706 879.5 100H880.5C880.5 72.706 902.706 50.5 930 50.5V49.5C902.706 49.5 880.5 27.294 880.5 0Z" fill="#A54AFF"/>
<path d="M829.75 100.25V49.75H830C857.708 49.75 880.25 72.292 880.25 100V100.25H829.75Z" fill="#A54AFF"/>
<path d="M830 50C857.614 50 880 72.386 880 100H830V50ZM830 49.5H829.5V100.5H880.5V100C880.5 72.154 857.846 49.5 830 49.5Z" fill="#A54AFF"/>
<path d="M879.75 300C879.75 272.568 857.433 250.25 830 250.25V249.75C857.433 249.75 879.75 227.432 879.75 200H880.25C880.25 227.432 902.567 249.75 930 249.75V250.25C902.567 250.25 880.25 272.568 880.25 300H879.75Z" fill="#A54AFF"/>
<path d="M880 200C880 227.614 902.386 250 930 250C902.386 250 880 272.386 880 300C880 272.386 857.614 250 830 250C857.614 250 880 227.614 880 200ZM880.5 200H879.5C879.5 227.294 857.294 249.5 830 249.5V250.5C857.294 250.5 879.5 272.706 879.5 300H880.5C880.5 272.706 902.706 250.5 930 250.5V249.5C902.706 249.5 880.5 227.294 880.5 200Z" fill="#A54AFF"/>
<path d="M930 250.25C902.292 250.25 879.75 227.708 879.75 200V199.75H930.25V250.25H930Z" fill="#A54AFF"/>
<path d="M930 200V250C902.386 250 880 227.614 880 200H930ZM930.5 199.5H879.5V200C879.5 227.846 902.154 250.5 930 250.5H930.5V199.5Z" fill="#A54AFF"/>
<path d="M979.75 300C979.75 272.568 957.433 250.25 930 250.25V249.75C957.433 249.75 979.75 227.432 979.75 200H980.25C980.25 227.432 1002.57 249.75 1030 249.75V250.25C1002.57 250.25 980.25 272.568 980.25 300H979.75Z" fill="#A54AFF"/>
<path d="M980 200C980 227.614 1002.39 250 1030 250C1002.39 250 980 272.386 980 300C980 272.386 957.614 250 930 250C957.614 250 980 227.614 980 200ZM980.5 200H979.5C979.5 227.294 957.294 249.5 930 249.5V250.5C957.294 250.5 979.5 272.706 979.5 300H980.5C980.5 272.706 1002.71 250.5 1030 250.5V249.5C1002.71 249.5 980.5 227.294 980.5 200Z" fill="#A54AFF"/>
<path d="M1079.75 300C1079.75 272.568 1057.43 250.25 1030 250.25V249.75C1057.43 249.75 1079.75 227.432 1079.75 200H1080.25C1080.25 227.432 1102.57 249.75 1130 249.75V250.25C1102.57 250.25 1080.25 272.568 1080.25 300H1079.75Z" fill="#A54AFF"/>
<path d="M1080 200C1080 227.614 1102.39 250 1130 250C1102.39 250 1080 272.386 1080 300C1080 272.386 1057.61 250 1030 250C1057.61 250 1080 227.614 1080 200ZM1080.5 200H1079.5C1079.5 227.294 1057.29 249.5 1030 249.5V250.5C1057.29 250.5 1079.5 272.706 1079.5 300H1080.5C1080.5 272.706 1102.71 250.5 1130 250.5V249.5C1102.71 249.5 1080.5 227.294 1080.5 200Z" fill="#A54AFF"/>
<path d="M1029.75 300.25V249.75H1030C1057.71 249.75 1080.25 272.292 1080.25 300V300.25H1029.75Z" fill="#A54AFF"/>
<path d="M1030 250C1057.61 250 1080 272.386 1080 300H1030V250ZM1030 249.5H1029.5V300.5H1080.5V300C1080.5 272.154 1057.85 249.5 1030 249.5Z" fill="#A54AFF"/>
<path d="M879.75 400C879.75 372.568 857.433 350.25 830 350.25V349.75C857.433 349.75 879.75 327.432 879.75 300H880.25C880.25 327.432 902.567 349.75 930 349.75V350.25C902.567 350.25 880.25 372.568 880.25 400H879.75Z" fill="#A54AFF"/>
<path d="M880 300C880 327.614 902.386 350 930 350C902.386 350 880 372.386 880 400C880 372.386 857.614 350 830 350C857.614 350 880 327.614 880 300ZM880.5 300H879.5C879.5 327.294 857.294 349.5 830 349.5V350.5C857.294 350.5 879.5 372.706 879.5 400H880.5C880.5 372.706 902.706 350.5 930 350.5V349.5C902.706 349.5 880.5 327.294 880.5 300Z" fill="#A54AFF"/>
<path d="M829.75 400.25V349.75H830C857.708 349.75 880.25 372.292 880.25 400V400.25H829.75Z" fill="#A54AFF"/>
<path d="M830 350C857.614 350 880 372.386 880 400H830V350ZM830 349.5H829.5V400.5H880.5V400C880.5 372.154 857.846 349.5 830 349.5Z" fill="#A54AFF"/>
<path d="M979.75 400C979.75 372.568 957.433 350.25 930 350.25V349.75C957.433 349.75 979.75 327.432 979.75 300H980.25C980.25 327.432 1002.57 349.75 1030 349.75V350.25C1002.57 350.25 980.25 372.568 980.25 400H979.75Z" fill="#A54AFF"/>
<path d="M980 300C980 327.614 1002.39 350 1030 350C1002.39 350 980 372.386 980 400C980 372.386 957.614 350 930 350C957.614 350 980 327.614 980 300ZM980.5 300H979.5C979.5 327.294 957.294 349.5 930 349.5V350.5C957.294 350.5 979.5 372.706 979.5 400H980.5C980.5 372.706 1002.71 350.5 1030 350.5V349.5C1002.71 349.5 980.5 327.294 980.5 300Z" fill="#A54AFF"/>
<path d="M1030 350.25C1002.29 350.25 979.75 327.708 979.75 300V299.75H1030.25V350.25H1030Z" fill="#A54AFF"/>
<path d="M1030 300V350C1002.39 350 980 327.614 980 300H1030ZM1030.5 299.5H979.5V300C979.5 327.846 1002.15 350.5 1030 350.5H1030.5V299.5Z" fill="#A54AFF"/>
<path d="M929.75 400.25V349.75H930C957.708 349.75 980.25 372.292 980.25 400V400.25H929.75Z" fill="#A54AFF"/>
<path d="M930 350C957.614 350 980 372.386 980 400H930V350ZM930 349.5H929.5V400.5H980.5V400C980.5 372.154 957.846 349.5 930 349.5Z" fill="#A54AFF"/>
<path d="M1079.75 400C1079.75 372.568 1057.43 350.25 1030 350.25V349.75C1057.43 349.75 1079.75 327.432 1079.75 300H1080.25C1080.25 327.432 1102.57 349.75 1130 349.75V350.25C1102.57 350.25 1080.25 372.568 1080.25 400H1079.75Z" fill="#A54AFF"/>
<path d="M1080 300C1080 327.614 1102.39 350 1130 350C1102.39 350 1080 372.386 1080 400C1080 372.386 1057.61 350 1030 350C1057.61 350 1080 327.614 1080 300ZM1080.5 300H1079.5C1079.5 327.294 1057.29 349.5 1030 349.5V350.5C1057.29 350.5 1079.5 372.706 1079.5 400H1080.5C1080.5 372.706 1102.71 350.5 1130 350.5V349.5C1102.71 349.5 1080.5 327.294 1080.5 300Z" fill="#A54AFF"/>
<path d="M1029.75 400.25V349.75H1030C1057.71 349.75 1080.25 372.292 1080.25 400V400.25H1029.75Z" fill="#A54AFF"/>
<path d="M1030 350C1057.61 350 1080 372.386 1080 400H1030V350ZM1030 349.5H1029.5V400.5H1080.5V400C1080.5 372.154 1057.85 349.5 1030 349.5Z" fill="#A54AFF"/>
<path d="M50 50H0V100H50V50Z" fill="#FF1345"/>
<path d="M50 100H0V150H50V100Z" fill="white"/>
<path d="M100 50H50V100H100V50Z" fill="white"/>
<path d="M100 100H50V150H100V100Z" fill="#FF1345"/>
<path d="M150 50H100V100H150V50Z" fill="#FF1345"/>
<path d="M150 100H100V150H150V100Z" fill="white"/>
<path d="M200 50H150V100H200V50Z" fill="white"/>
<path d="M200 100H150V150H200V100Z" fill="#FF1345"/>
<path d="M250 50H200V100H250V50Z" fill="#FF1345"/>
<path d="M250 100H200V150H250V100Z" fill="white"/>
<path d="M300 50H250V100H300V50Z" fill="white"/>
<path d="M300 100H250V150H300V100Z" fill="#FF1345"/>
<path d="M350 50H300V100H350V50Z" fill="#FF1345"/>
<path d="M350 100H300V150H350V100Z" fill="white"/>
<path d="M400 50H350V100H400V50Z" fill="white"/>
<path d="M400 100H350V150H400V100Z" fill="#FF1345"/>
<path d="M50 150H0V200H50V150Z" fill="#FF1345"/>
<path d="M50 200H0V250H50V200Z" fill="white"/>
<path d="M100 150H50V200H100V150Z" fill="white"/>
<path d="M100 200H50V250H100V200Z" fill="#FF1345"/>
<path d="M50 250H0V300H50V250Z" fill="#FF1345"/>
<path d="M50 300H0V350H50V300Z" fill="white"/>
<path d="M100 250H50V300H100V250Z" fill="white"/>
<path d="M100 300H50V350H100V300Z" fill="#FF1345"/>
<path d="M50 350H0V400H50V350Z" fill="#FF1345"/>
<path d="M50 400H0V450H50V400Z" fill="white"/>
<path d="M100 350H50V400H100V350Z" fill="white"/>
<path d="M100 400H50V450H100V400Z" fill="#FF1345"/>
<path d="M50 450H0V500H50V450Z" fill="#FF1345"/>
<path d="M50 500H0V550H50V500Z" fill="white"/>
<path d="M100 450H50V500H100V450Z" fill="white"/>
<path d="M100 500H50V550H100V500Z" fill="#FF1345"/>
<path d="M50 550H0V600H50V550Z" fill="#FF1345"/>
<path d="M50 600H0V650H50V600Z" fill="white"/>
<path d="M100 550H50V600H100V550Z" fill="white"/>
<path d="M100 600H50V650H100V600Z" fill="#FF1345"/>
<path d="M50 650H0V700H50V650Z" fill="#FF1345"/>
<path d="M50 700H0V750H50V700Z" fill="white"/>
<path d="M100 650H50V700H100V650Z" fill="white"/>
<path d="M100 700H50V750H100V700Z" fill="#FF1345"/>
<path d="M150 650H100V700H150V650Z" fill="#FF1345"/>
<path d="M150 700H100V750H150V700Z" fill="white"/>
<path d="M200 650H150V700H200V650Z" fill="white"/>
<path d="M200 700H150V750H200V700Z" fill="#FF1345"/>
<path d="M250 650H200V700H250V650Z" fill="#FF1345"/>
<path d="M250 700H200V750H250V700Z" fill="white"/>
<path d="M300 650H250V700H300V650Z" fill="white"/>
<path d="M300 700H250V750H300V700Z" fill="#FF1345"/>
<path d="M350 650H300V700H350V650Z" fill="#FF1345"/>
<path d="M350 700H300V750H350V700Z" fill="white"/>
<path d="M400 650H350V700H400V650Z" fill="white"/>
<path d="M400 700H350V750H400V700Z" fill="#FF1345"/>
<path d="M450 650H400V700H450V650Z" fill="#FF1345"/>
<path d="M450 700H400V750H450V700Z" fill="white"/>
<path d="M500 650H450V700H500V650Z" fill="white"/>
<path d="M500 700H450V750H500V700Z" fill="#FF1345"/>
<path d="M450 550H400V600H450V550Z" fill="#FF1345"/>
<path d="M450 600H400V650H450V600Z" fill="white"/>
<path d="M500 550H450V600H500V550Z" fill="white"/>
<path d="M500 600H450V650H500V600Z" fill="#FF1345"/>
<path d="M450 450H400V500H450V450Z" fill="#FF1345"/>
<path d="M450 500H400V550H450V500Z" fill="white"/>
<path d="M500 450H450V500H500V450Z" fill="white"/>
<path d="M500 500H450V550H500V500Z" fill="#FF1345"/>
<path d="M350 350H300V400H350V350Z" fill="#FF1345"/>
<path d="M350 400H300V450H350V400Z" fill="white"/>
<path d="M400 350H350V400H400V350Z" fill="white"/>
<path d="M400 400H350V450H400V400Z" fill="#FF1345"/>
<path d="M250 350H200V400H250V350Z" fill="#FF1345"/>
<path d="M250 400H200V450H250V400Z" fill="white"/>
<path d="M300 350H250V400H300V350Z" fill="white"/>
<path d="M300 400H250V450H300V400Z" fill="#FF1345"/>
<path d="M450 250H400V300H450V250Z" fill="#FF1345"/>
<path d="M450 300H400V350H450V300Z" fill="white"/>
<path d="M500 250H450V300H500V250Z" fill="white"/>
<path d="M500 300H450V350H500V300Z" fill="#FF1345"/>
<path d="M450 150H400V200H450V150Z" fill="#FF1345"/>
<path d="M450 200H400V250H450V200Z" fill="white"/>
<path d="M500 150H450V200H500V150Z" fill="white"/>
<path d="M500 200H450V250H500V200Z" fill="#FF1345"/>
<path d="M1840 50H1790V100H1840V50Z" fill="#FF1345"/>
<path d="M1840 100H1790V150H1840V100Z" fill="white"/>
<path d="M1890 50H1840V100H1890V50Z" fill="white"/>
<path d="M1890 100H1840V150H1890V100Z" fill="#FF1345"/>
<path d="M1940 50H1890V100H1940V50Z" fill="#FF1345"/>
<path d="M1940 100H1890V150H1940V100Z" fill="white"/>
<path d="M1990 50H1940V100H1990V50Z" fill="white"/>
<path d="M1990 100H1940V150H1990V100Z" fill="#FF1345"/>
<path d="M2040 50H1990V100H2040V50Z" fill="#FF1345"/>
<path d="M2040 100H1990V150H2040V100Z" fill="white"/>
<path d="M2090 50H2040V100H2090V50Z" fill="white"/>
<path d="M2090 100H2040V150H2090V100Z" fill="#FF1345"/>
<path d="M1740 150H1690V200H1740V150Z" fill="#FF1345"/>
<path d="M1740 200H1690V250H1740V200Z" fill="white"/>
<path d="M1790 150H1740V200H1790V150Z" fill="white"/>
<path d="M1790 200H1740V250H1790V200Z" fill="#FF1345"/>
<path d="M1740 250H1690V300H1740V250Z" fill="#FF1345"/>
<path d="M1740 300H1690V350H1740V300Z" fill="white"/>
<path d="M1790 250H1740V300H1790V250Z" fill="white"/>
<path d="M1790 300H1740V350H1790V300Z" fill="#FF1345"/>
<path d="M1740 350H1690V400H1740V350Z" fill="#FF1345"/>
<path d="M1740 400H1690V450H1740V400Z" fill="white"/>
<path d="M1790 350H1740V400H1790V350Z" fill="white"/>
<path d="M1790 400H1740V450H1790V400Z" fill="#FF1345"/>
<path d="M1740 450H1690V500H1740V450Z" fill="#FF1345"/>
<path d="M1740 500H1690V550H1740V500Z" fill="white"/>
<path d="M1790 450H1740V500H1790V450Z" fill="white"/>
<path d="M1790 500H1740V550H1790V500Z" fill="#FF1345"/>
<path d="M1740 550H1690V600H1740V550Z" fill="#FF1345"/>
<path d="M1740 600H1690V650H1740V600Z" fill="white"/>
<path d="M1790 550H1740V600H1790V550Z" fill="white"/>
<path d="M1790 600H1740V650H1790V600Z" fill="#FF1345"/>
<path d="M1840 650H1790V700H1840V650Z" fill="#FF1345"/>
<path d="M1840 700H1790V750H1840V700Z" fill="white"/>
<path d="M1890 650H1840V700H1890V650Z" fill="white"/>
<path d="M1890 700H1840V750H1890V700Z" fill="#FF1345"/>
<path d="M1940 650H1890V700H1940V650Z" fill="#FF1345"/>
<path d="M1940 700H1890V750H1940V700Z" fill="white"/>
<path d="M1990 650H1940V700H1990V650Z" fill="white"/>
<path d="M1990 700H1940V750H1990V700Z" fill="#FF1345"/>
<path d="M2040 650H1990V700H2040V650Z" fill="#FF1345"/>
<path d="M2040 700H1990V750H2040V700Z" fill="white"/>
<path d="M2090 650H2040V700H2090V650Z" fill="white"/>
<path d="M2090 700H2040V750H2090V700Z" fill="#FF1345"/>
<path d="M2140 550H2090V600H2140V550Z" fill="#FF1345"/>
<path d="M2140 600H2090V650H2140V600Z" fill="white"/>
<path d="M2190 550H2140V600H2190V550Z" fill="white"/>
<path d="M2190 600H2140V650H2190V600Z" fill="#FF1345"/>
<path d="M2140 450H2090V500H2140V450Z" fill="#FF1345"/>
<path d="M2140 500H2090V550H2140V500Z" fill="white"/>
<path d="M2190 450H2140V500H2190V450Z" fill="white"/>
<path d="M2190 500H2140V550H2190V500Z" fill="#FF1345"/>
<path d="M2040 350H1990V400H2040V350Z" fill="#FF1345"/>
<path d="M2040 400H1990V450H2040V400Z" fill="white"/>
<path d="M2090 350H2040V400H2090V350Z" fill="white"/>
<path d="M2090 400H2040V450H2090V400Z" fill="#FF1345"/>
<path d="M1940 350H1890V400H1940V350Z" fill="#FF1345"/>
<path d="M1940 400H1890V450H1940V400Z" fill="white"/>
<path d="M1990 350H1940V400H1990V350Z" fill="white"/>
<path d="M1990 400H1940V450H1990V400Z" fill="#FF1345"/>
<path d="M2140 150H2090V200H2140V150Z" fill="#FF1345"/>
<path d="M2140 200H2090V250H2140V200Z" fill="white"/>
<path d="M2190 150H2140V200H2190V150Z" fill="white"/>
<path d="M2190 200H2140V250H2190V200Z" fill="#FF1345"/>
</g>
<defs>
<clipPath id="clip0_4706_49015">
<rect width="2550.5" height="800" fill="white"/>
</clipPath>
</defs>
</svg>
