<svg width="2551" height="800" viewBox="0 0 2551 800" fill="none" xmlns="http://www.w3.org/2000/svg">
<g clip-path="url(#clip0_4706_48143)">
<path d="M2550 100C2550 127.614 2527.61 150 2500 150C2527.61 150 2550 172.386 2550 200V100Z" fill="white"/>
<path d="M2450 100C2450 127.614 2472.39 150 2500 150C2472.39 150 2450 172.386 2450 200V100Z" fill="white"/>
<path d="M2550 200C2550 227.614 2527.61 250 2500 250C2527.61 250 2550 272.386 2550 300V200Z" fill="white"/>
<path d="M2450 200C2450 227.614 2472.39 250 2500 250C2472.39 250 2450 272.386 2450 300V200Z" fill="white"/>
<path d="M2550 300C2550 327.614 2527.61 350 2500 350C2527.61 350 2550 372.386 2550 400V300Z" fill="white"/>
<path d="M2450 300C2450 327.614 2472.39 350 2500 350C2472.39 350 2450 372.386 2450 400V300Z" fill="white"/>
<path d="M2500 750.05C2472.4 750.05 2449.95 727.598 2449.95 700L2500 699.95L2500.05 750.05H2500Z" fill="#0AA7FF"/>
<path d="M2500 700V750C2472.39 750 2450 727.614 2450 700H2500ZM2500.1 699.9H2449.9V700C2449.9 727.625 2472.38 750.1 2500 750.1H2500.1V699.9Z" fill="#0AA7FF"/>
<path d="M2499.95 750.05V700L2550 699.95C2550.05 727.597 2527.6 750.05 2500 750.05H2499.95Z" fill="#0AA7FF"/>
<path d="M2550 700C2550 727.614 2527.61 750 2500 750V700H2550ZM2550.1 699.9H2499.9V750.1H2500C2527.63 750.1 2550.1 727.625 2550.1 700V699.9Z" fill="#0AA7FF"/>
<path d="M2450 100.05C2449.95 72.4029 2472.4 49.9509 2500 49.9509L2500.05 100.05H2450Z" fill="#0AA7FF"/>
<path d="M2500 49.9999V99.9999H2450C2450 72.3859 2472.39 49.9999 2500 49.9999ZM2500.1 49.8999H2500C2472.38 49.8999 2449.9 72.3749 2449.9 99.9999V100.1H2500.1V49.8999Z" fill="#0AA7FF"/>
<path d="M2500 100.05L2499.95 50.001H2500.04C2527.65 50.001 2550.05 72.434 2550.05 100.001V100.051L2500 100.05Z" fill="#0AA7FF"/>
<path d="M2500 49.9999C2527.61 49.9999 2550 72.3859 2550 99.9999H2500V49.9999ZM2500 49.8999H2499.9V100.1H2550.1V99.9999C2550.1 72.3749 2527.63 49.8999 2500 49.8999Z" fill="#0AA7FF"/>
<path d="M2450 300.05C2449.95 272.403 2472.4 249.95 2500 249.95L2500.05 300.05H2450Z" fill="#0AA7FF"/>
<path d="M2500 250V300H2450C2450 272.386 2472.39 250 2500 250ZM2500.1 249.9H2500C2472.38 249.9 2449.9 272.375 2449.9 300V300.1H2500.1V249.9Z" fill="#0AA7FF"/>
<path d="M2500 300.05L2499.95 250H2500.04C2527.65 250 2550.05 272.433 2550.05 300V300.05H2500Z" fill="#0AA7FF"/>
<path d="M2500 250C2527.61 250 2550 272.386 2550 300H2500V250ZM2500 249.9H2499.9V300.1H2550.1V300C2550.1 272.375 2527.63 249.9 2500 249.9Z" fill="#0AA7FF"/>
<path d="M2499.95 150.05V100L2550 99.95C2550.05 127.597 2527.6 150.05 2500 150.05H2499.95Z" fill="#0AA7FF"/>
<path d="M2550 99.9999C2550 127.614 2527.61 150 2500 150V99.9999H2550ZM2550.1 99.8999H2499.9V150.1H2500C2527.63 150.1 2550.1 127.625 2550.1 99.9999V99.8999Z" fill="#0AA7FF"/>
<path d="M2500 150.05C2472.4 150.05 2449.95 127.598 2449.95 100L2500 99.95L2500.05 150.05H2500Z" fill="#0AA7FF"/>
<path d="M2500 99.9999V150C2472.39 150 2450 127.614 2450 99.9999H2500ZM2500.1 99.8999H2449.9V99.9999C2449.9 127.625 2472.38 150.1 2500 150.1H2500.1V99.8999Z" fill="#0AA7FF"/>
<path d="M2450 200.05C2449.95 172.403 2472.4 149.95 2500 149.95L2500.05 200.05H2450Z" fill="#0AA7FF"/>
<path d="M2500 150V200H2450C2450 172.386 2472.39 150 2500 150ZM2500.1 149.9H2500C2472.38 149.9 2449.9 172.375 2449.9 200V200.1H2500.1V149.9Z" fill="#0AA7FF"/>
<path d="M2500 200.05L2499.95 150H2500.04C2527.65 150 2550.05 172.433 2550.05 200V200.05H2500Z" fill="#0AA7FF"/>
<path d="M2500 150C2527.61 150 2550 172.386 2550 200H2500V150ZM2500 149.9H2499.9V200.1H2550.1V200C2550.1 172.375 2527.63 149.9 2500 149.9Z" fill="#0AA7FF"/>
<path d="M2499.95 250.05V200L2550 199.95C2550.05 227.597 2527.6 250.05 2500 250.05H2499.95Z" fill="#0AA7FF"/>
<path d="M2550 200C2550 227.614 2527.61 250 2500 250V200H2550ZM2550.1 199.9H2499.9V250.1H2500C2527.63 250.1 2550.1 227.625 2550.1 200V199.9Z" fill="#0AA7FF"/>
<path d="M2500 250.05C2472.4 250.05 2449.95 227.598 2449.95 200L2500 199.95L2500.05 250.05H2500Z" fill="#0AA7FF"/>
<path d="M2500 200V250C2472.39 250 2450 227.614 2450 200H2500ZM2500.1 199.9H2449.9V200C2449.9 227.625 2472.38 250.1 2500 250.1H2500.1V199.9Z" fill="#0AA7FF"/>
<path d="M2500 350.05C2472.4 350.05 2449.95 327.598 2449.95 300L2500 299.95L2500.05 350.05H2500Z" fill="#0AA7FF"/>
<path d="M2500 300V350C2472.39 350 2450 327.614 2450 300H2500ZM2500.1 299.9H2449.9V300C2449.9 327.625 2472.38 350.1 2500 350.1H2500.1V299.9Z" fill="#0AA7FF"/>
<path d="M2450 400.05C2449.95 372.403 2472.4 349.95 2500 349.95L2500.05 400.05H2450Z" fill="#0AA7FF"/>
<path d="M2500 350V400H2450C2450 372.386 2472.39 350 2500 350ZM2500.1 349.9H2500C2472.38 349.9 2449.9 372.375 2449.9 400V400.1H2500.1V349.9Z" fill="#0AA7FF"/>
<path d="M2500 400.05L2499.95 350H2500.04C2527.65 350 2550.05 372.433 2550.05 400V400.05H2500Z" fill="#0AA7FF"/>
<path d="M2500 350C2527.61 350 2550 372.386 2550 400H2500V350ZM2500 349.9H2499.9V400.1H2550.1V400C2550.1 372.375 2527.63 349.9 2500 349.9Z" fill="#0AA7FF"/>
<path d="M2499.95 450.05V400L2550 399.95C2550.05 427.597 2527.6 450.05 2500 450.05H2499.95Z" fill="#0AA7FF"/>
<path d="M2550 400C2550 427.614 2527.61 450 2500 450V400H2550ZM2550.1 399.9H2499.9V450.1H2500C2527.63 450.1 2550.1 427.625 2550.1 400V399.9Z" fill="#0AA7FF"/>
<path d="M2500 450.05C2472.4 450.05 2449.95 427.598 2449.95 400L2500 399.95L2500.05 450.05H2500Z" fill="#0AA7FF"/>
<path d="M2500 400V450C2472.39 450 2450 427.614 2450 400H2500ZM2500.1 399.9H2449.9V400C2449.9 427.625 2472.38 450.1 2500 450.1H2500.1V399.9Z" fill="#0AA7FF"/>
<path d="M2450 500.05C2449.95 472.403 2472.4 449.95 2500 449.95L2500.05 500.05H2450Z" fill="#0AA7FF"/>
<path d="M2500 450V500H2450C2450 472.386 2472.39 450 2500 450ZM2500.1 449.9H2500C2472.38 449.9 2449.9 472.375 2449.9 500V500.1H2500.1V449.9Z" fill="#0AA7FF"/>
<path d="M2500 500.05L2499.95 450H2500.04C2527.65 450 2550.05 472.433 2550.05 500V500.05H2500Z" fill="#0AA7FF"/>
<path d="M2500 450C2527.61 450 2550 472.386 2550 500H2500V450ZM2500 449.9H2499.9V500.1H2550.1V500C2550.1 472.375 2527.63 449.9 2500 449.9Z" fill="#0AA7FF"/>
<path d="M2499.95 550.05V500L2550 499.95C2550.05 527.597 2527.6 550.05 2500 550.05H2499.95Z" fill="#0AA7FF"/>
<path d="M2550 500C2550 527.614 2527.61 550 2500 550V500H2550ZM2550.1 499.9H2499.9V550.1H2500C2527.63 550.1 2550.1 527.625 2550.1 500V499.9Z" fill="#0AA7FF"/>
<path d="M2500 550.05C2472.4 550.05 2449.95 527.598 2449.95 500L2500 499.95L2500.05 550.05H2500Z" fill="#0AA7FF"/>
<path d="M2500 500V550C2472.39 550 2450 527.614 2450 500H2500ZM2500.1 499.9H2449.9V500C2449.9 527.625 2472.38 550.1 2500 550.1H2500.1V499.9Z" fill="#0AA7FF"/>
<path d="M2450 700.05C2449.95 672.403 2472.4 649.95 2500 649.95L2500.05 700.05H2450Z" fill="#0AA7FF"/>
<path d="M2500 650V700H2450C2450 672.386 2472.39 650 2500 650ZM2500.1 649.9H2500C2472.38 649.9 2449.9 672.375 2449.9 700V700.1H2500.1V649.9Z" fill="#0AA7FF"/>
<path d="M2500 700.05L2499.95 650H2500.04C2527.65 650 2550.05 672.433 2550.05 700V700.05H2500Z" fill="#0AA7FF"/>
<path d="M2500 650C2527.61 650 2550 672.386 2550 700H2500V650ZM2500 649.9H2499.9V700.1H2550.1V700C2550.1 672.375 2527.63 649.9 2500 649.9Z" fill="#0AA7FF"/>
<path d="M2499.95 350.05V300L2550 299.95C2550.05 327.597 2527.6 350.05 2500 350.05H2499.95Z" fill="#0AA7FF"/>
<path d="M2550 300C2550 327.614 2527.61 350 2500 350V300H2550ZM2550.1 299.9H2499.9V350.1H2500C2527.63 350.1 2550.1 327.625 2550.1 300V299.9Z" fill="#0AA7FF"/>
<path d="M1609 550C1581.39 550 1559 527.614 1559 500C1559 527.614 1536.61 550 1509 550C1536.61 550 1559 572.386 1559 600C1559 572.386 1581.39 550 1609 550Z" fill="white"/>
<path d="M1509 450C1481.39 450 1459 427.614 1459 400C1459 427.614 1436.61 450 1409 450C1436.61 450 1459 472.386 1459 500C1459 472.386 1481.39 450 1509 450Z" fill="white"/>
<path d="M1409 350C1381.39 350 1359 327.614 1359 300C1359 327.614 1336.61 350 1309 350C1336.61 350 1359 372.386 1359 400C1359 372.386 1381.39 350 1409 350Z" fill="white"/>
<path d="M1309 250C1281.39 250 1259 227.614 1259 200C1259 227.614 1236.61 250 1209 250C1236.61 250 1259 272.386 1259 300C1259 272.386 1281.39 250 1309 250Z" fill="white"/>
<path d="M1259 100C1259 127.614 1236.61 150 1209 150C1236.61 150 1259 172.386 1259 200V100Z" fill="white"/>
<path d="M1159 100C1159 127.614 1181.39 150 1209 150C1181.39 150 1159 172.386 1159 200V100Z" fill="white"/>
<path d="M1259 400C1259 427.614 1236.61 450 1209 450C1236.61 450 1259 472.386 1259 500V400Z" fill="white"/>
<path d="M1159 400C1159 427.614 1181.39 450 1209 450C1181.39 450 1159 472.386 1159 500V400Z" fill="white"/>
<path d="M1259 500C1259 527.614 1236.61 550 1209 550C1236.61 550 1259 572.386 1259 600V500Z" fill="white"/>
<path d="M1159 500C1159 527.614 1181.39 550 1209 550C1181.39 550 1159 572.386 1159 600V500Z" fill="white"/>
<path d="M1259 600C1259 627.614 1236.61 650 1209 650C1236.61 650 1259 672.386 1259 700V600Z" fill="white"/>
<path d="M1159 600C1159 627.614 1181.39 650 1209 650C1181.39 650 1159 672.386 1159 700V600Z" fill="white"/>
<path d="M1659 600C1659 627.614 1636.61 650 1609 650C1636.61 650 1659 672.386 1659 700V600Z" fill="white"/>
<path d="M1659 500C1659 527.614 1636.61 550 1609 550C1636.61 550 1659 572.386 1659 600V500Z" fill="white"/>
<path d="M1559 600C1559 627.614 1581.39 650 1609 650C1581.39 650 1559 672.386 1559 700V600Z" fill="white"/>
<path d="M1659 100C1659 127.614 1636.61 150 1609 150C1636.61 150 1659 172.386 1659 200V100Z" fill="white"/>
<path d="M1559 100C1559 127.614 1581.39 150 1609 150C1581.39 150 1559 172.386 1559 200V100Z" fill="white"/>
<path d="M1659 200C1659 227.614 1636.61 250 1609 250C1636.61 250 1659 272.386 1659 300V200Z" fill="white"/>
<path d="M1559 200C1559 227.614 1581.39 250 1609 250C1581.39 250 1559 272.386 1559 300V200Z" fill="white"/>
<path d="M1659 300C1659 327.614 1636.61 350 1609 350C1636.61 350 1659 372.386 1659 400V300Z" fill="white"/>
<path d="M1559 300C1559 327.614 1581.39 350 1609 350C1581.39 350 1559 372.386 1559 400V300Z" fill="white"/>
<path d="M1159 200C1159 227.614 1181.39 250 1209 250C1181.39 250 1159 272.386 1159 300V200Z" fill="white"/>
<path d="M1209 450.05C1181.4 450.05 1158.95 427.598 1158.95 400L1209 399.95L1209.05 450.05H1209Z" fill="#0AA7FF"/>
<path d="M1209 400V450C1181.39 450 1159 427.614 1159 400H1209ZM1209.1 399.9H1158.9V400C1158.9 427.625 1181.38 450.1 1209 450.1H1209.1V399.9Z" fill="#0AA7FF"/>
<path d="M1159 500.05C1158.95 472.403 1181.4 449.95 1209 449.95L1209.05 500.05H1159Z" fill="#0AA7FF"/>
<path d="M1209 450V500H1159C1159 472.386 1181.39 450 1209 450ZM1209.1 449.9H1209C1181.38 449.9 1158.9 472.375 1158.9 500V500.1H1209.1V449.9Z" fill="#0AA7FF"/>
<path d="M1209 500.05L1208.95 450H1209.04C1236.65 450 1259.05 472.433 1259.05 500V500.05H1209Z" fill="#0AA7FF"/>
<path d="M1209 450C1236.61 450 1259 472.386 1259 500H1209V450ZM1209 449.9H1208.9V500.1H1259.1V500C1259.1 472.375 1236.63 449.9 1209 449.9Z" fill="#0AA7FF"/>
<path d="M1208.95 550.05V500L1259 499.95C1259.05 527.597 1236.6 550.05 1209 550.05H1208.95Z" fill="#0AA7FF"/>
<path d="M1259 500C1259 527.614 1236.61 550 1209 550V500H1259ZM1259.1 499.9H1208.9V550.1H1209C1236.63 550.1 1259.1 527.625 1259.1 500V499.9Z" fill="#0AA7FF"/>
<path d="M1209 550.05C1181.4 550.05 1158.95 527.598 1158.95 500L1209 499.95L1209.05 550.05H1209Z" fill="#0AA7FF"/>
<path d="M1209 500V550C1181.39 550 1159 527.614 1159 500H1209ZM1209.1 499.9H1158.9V500C1158.9 527.625 1181.38 550.1 1209 550.1H1209.1V499.9Z" fill="#0AA7FF"/>
<path d="M1159 600.05C1158.95 572.403 1181.4 549.95 1209 549.95L1209.05 600.05H1159Z" fill="#0AA7FF"/>
<path d="M1209 550V600H1159C1159 572.386 1181.39 550 1209 550ZM1209.1 549.9H1209C1181.38 549.9 1158.9 572.375 1158.9 600V600.1H1209.1V549.9Z" fill="#0AA7FF"/>
<path d="M1209 600.05L1208.95 550H1209.04C1236.65 550 1259.05 572.433 1259.05 600V600.05H1209Z" fill="#0AA7FF"/>
<path d="M1209 550C1236.61 550 1259 572.386 1259 600H1209V550ZM1209 549.9H1208.9V600.1H1259.1V600C1259.1 572.375 1236.63 549.9 1209 549.9Z" fill="#0AA7FF"/>
<path d="M1159 700.05C1158.95 672.403 1181.4 649.95 1209 649.95L1209.05 700.05H1159Z" fill="#0AA7FF"/>
<path d="M1209 650V700H1159C1159 672.386 1181.39 650 1209 650ZM1209.1 649.9H1209C1181.38 649.9 1158.9 672.375 1158.9 700V700.1H1209.1V649.9Z" fill="#0AA7FF"/>
<path d="M1209 700.05L1208.95 650H1209.04C1236.65 650 1259.05 672.433 1259.05 700V700.05H1209Z" fill="#0AA7FF"/>
<path d="M1209 650C1236.61 650 1259 672.386 1259 700H1209V650ZM1209 649.9H1208.9V700.1H1259.1V700C1259.1 672.375 1236.63 649.9 1209 649.9Z" fill="#0AA7FF"/>
<path d="M1208.95 650.05V600L1259 599.95C1259.05 627.597 1236.6 650.05 1209 650.05H1208.95Z" fill="#0AA7FF"/>
<path d="M1259 600C1259 627.614 1236.61 650 1209 650V600H1259ZM1259.1 599.9H1208.9V650.1H1209C1236.63 650.1 1259.1 627.625 1259.1 600V599.9Z" fill="#0AA7FF"/>
<path d="M1209 650.05C1181.4 650.05 1158.95 627.598 1158.95 600L1209 599.95L1209.05 650.05H1209Z" fill="#0AA7FF"/>
<path d="M1209 600V650C1181.39 650 1159 627.614 1159 600H1209ZM1209.1 599.9H1158.9V600C1158.9 627.625 1181.38 650.1 1209 650.1H1209.1V599.9Z" fill="#0AA7FF"/>
<path d="M1208.95 450.05V400L1259 399.95C1259.05 427.597 1236.6 450.05 1209 450.05H1208.95Z" fill="#0AA7FF"/>
<path d="M1259 400C1259 427.614 1236.61 450 1209 450V400H1259ZM1259.1 399.9H1208.9V450.1H1209C1236.63 450.1 1259.1 427.625 1259.1 400V399.9Z" fill="#0AA7FF"/>
<path d="M1409 450.05C1381.4 450.05 1358.95 427.598 1358.95 400L1409 399.95L1409.05 450.05H1409Z" fill="#0AA7FF"/>
<path d="M1409 400V450C1381.39 450 1359 427.614 1359 400H1409ZM1409.1 399.9H1358.9V400C1358.9 427.625 1381.38 450.1 1409 450.1H1409.1V399.9Z" fill="#0AA7FF"/>
<path d="M1209 750.05C1181.4 750.05 1158.95 727.598 1158.95 700L1209 699.95L1209.05 750.05H1209Z" fill="#0AA7FF"/>
<path d="M1209 700V750C1181.39 750 1159 727.614 1159 700H1209ZM1209.1 699.9H1158.9V700C1158.9 727.625 1181.38 750.1 1209 750.1H1209.1V699.9Z" fill="#0AA7FF"/>
<path d="M1208.95 750.05V700L1259 699.95C1259.05 727.597 1236.6 750.05 1209 750.05H1208.95Z" fill="#0AA7FF"/>
<path d="M1259 700C1259 727.614 1236.61 750 1209 750V700H1259ZM1259.1 699.9H1208.9V750.1H1209C1236.63 750.1 1259.1 727.625 1259.1 700V699.9Z" fill="#0AA7FF"/>
<path d="M1509 550.05C1481.4 550.05 1458.95 527.598 1458.95 500L1509 499.95L1509.05 550.05H1509Z" fill="#0AA7FF"/>
<path d="M1509 500V550C1481.39 550 1459 527.614 1459 500H1509ZM1509.1 499.9H1458.9V500C1458.9 527.625 1481.38 550.1 1509 550.1H1509.1V499.9Z" fill="#0AA7FF"/>
<path d="M1508.95 550.05V500L1559 499.95C1559.05 527.597 1536.6 550.05 1509 550.05H1508.95Z" fill="#0AA7FF"/>
<path d="M1559 500C1559 527.614 1536.61 550 1509 550V500H1559ZM1559.1 499.9H1508.9V550.1H1509C1536.63 550.1 1559.1 527.625 1559.1 500V499.9Z" fill="#0AA7FF"/>
<path d="M1459 500.05C1458.95 472.403 1481.4 449.95 1509 449.95L1509.05 500.05H1459Z" fill="#0AA7FF"/>
<path d="M1509 450V500H1459C1459 472.386 1481.39 450 1509 450ZM1509.1 449.9H1509C1481.38 449.9 1458.9 472.375 1458.9 500V500.1H1509.1V449.9Z" fill="#0AA7FF"/>
<path d="M1408.95 450.05V400L1459 399.95C1459.05 427.597 1436.6 450.05 1409 450.05H1408.95Z" fill="#0AA7FF"/>
<path d="M1459 400C1459 427.614 1436.61 450 1409 450V400H1459ZM1459.1 399.9H1408.9V450.1H1409C1436.63 450.1 1459.1 427.625 1459.1 400V399.9Z" fill="#0AA7FF"/>
<path d="M1509 500.05L1508.95 450H1509.04C1536.65 450 1559.05 472.433 1559.05 500V500.05H1509Z" fill="#0AA7FF"/>
<path d="M1509 450C1536.61 450 1559 472.386 1559 500H1509V450ZM1509 449.9H1508.9V500.1H1559.1V500C1559.1 472.375 1536.63 449.9 1509 449.9Z" fill="#0AA7FF"/>
<path d="M1609 750.05C1581.4 750.05 1558.95 727.598 1558.95 700L1609 699.95L1609.05 750.05H1609Z" fill="#0AA7FF"/>
<path d="M1609 700V750C1581.39 750 1559 727.614 1559 700H1609ZM1609.1 699.9H1558.9V700C1558.9 727.625 1581.38 750.1 1609 750.1H1609.1V699.9Z" fill="#0AA7FF"/>
<path d="M1608.95 750.05V700L1659 699.95C1659.05 727.597 1636.6 750.05 1609 750.05H1608.95Z" fill="#0AA7FF"/>
<path d="M1659 700C1659 727.614 1636.61 750 1609 750V700H1659ZM1659.1 699.9H1608.9V750.1H1609C1636.63 750.1 1659.1 727.625 1659.1 700V699.9Z" fill="#0AA7FF"/>
<path d="M1159 100.05C1158.95 72.4029 1181.4 49.9509 1209 49.9509L1209.05 100.05H1159Z" fill="#0AA7FF"/>
<path d="M1209 49.9999V99.9999H1159C1159 72.3859 1181.39 49.9999 1209 49.9999ZM1209.1 49.8999H1209C1181.38 49.8999 1158.9 72.3749 1158.9 99.9999V100.1H1209.1V49.8999Z" fill="#0AA7FF"/>
<path d="M1209 100.05L1208.95 50.001H1209.04C1236.65 50.001 1259.05 72.434 1259.05 100.001V100.051L1209 100.05Z" fill="#0AA7FF"/>
<path d="M1209 49.9999C1236.61 49.9999 1259 72.3859 1259 99.9999H1209V49.9999ZM1209 49.8999H1208.9V100.1H1259.1V99.9999C1259.1 72.3749 1236.63 49.8999 1209 49.8999Z" fill="#0AA7FF"/>
<path d="M1208.95 150.05V100L1259 99.95C1259.05 127.597 1236.6 150.05 1209 150.05H1208.95Z" fill="#0AA7FF"/>
<path d="M1259 99.9999C1259 127.614 1236.61 150 1209 150V99.9999H1259ZM1259.1 99.8999H1208.9V150.1H1209C1236.63 150.1 1259.1 127.625 1259.1 99.9999V99.8999Z" fill="#0AA7FF"/>
<path d="M1209 150.05C1181.4 150.05 1158.95 127.598 1158.95 100L1209 99.95L1209.05 150.05H1209Z" fill="#0AA7FF"/>
<path d="M1209 99.9999V150C1181.39 150 1159 127.614 1159 99.9999H1209ZM1209.1 99.8999H1158.9V99.9999C1158.9 127.625 1181.38 150.1 1209 150.1H1209.1V99.8999Z" fill="#0AA7FF"/>
<path d="M1159 200.05C1158.95 172.403 1181.4 149.95 1209 149.95L1209.05 200.05H1159Z" fill="#0AA7FF"/>
<path d="M1209 150V200H1159C1159 172.386 1181.39 150 1209 150ZM1209.1 149.9H1209C1181.38 149.9 1158.9 172.375 1158.9 200V200.1H1209.1V149.9Z" fill="#0AA7FF"/>
<path d="M1209 200.05L1208.95 150H1209.04C1236.65 150 1259.05 172.433 1259.05 200V200.05H1209Z" fill="#0AA7FF"/>
<path d="M1209 150C1236.61 150 1259 172.386 1259 200H1209V150ZM1209 149.9H1208.9V200.1H1259.1V200C1259.1 172.375 1236.63 149.9 1209 149.9Z" fill="#0AA7FF"/>
<path d="M1208.95 249.928V199.878L1259 199.828C1259.05 227.475 1236.6 249.928 1209 249.928H1208.95Z" fill="#0AA7FF"/>
<path d="M1259 199.879C1259 227.493 1236.61 249.879 1209 249.879V199.879H1259ZM1259.1 199.779H1208.9V249.979H1209C1236.63 249.979 1259.1 227.504 1259.1 199.879V199.779Z" fill="#0AA7FF"/>
<path d="M1209 250.05C1181.4 250.05 1158.95 227.598 1158.95 200L1209 199.95L1209.05 250.05H1209Z" fill="#0AA7FF"/>
<path d="M1209 200V250C1181.39 250 1159 227.614 1159 200H1209ZM1209.1 199.9H1158.9V200C1158.9 227.625 1181.38 250.1 1209 250.1H1209.1V199.9Z" fill="#0AA7FF"/>
<path d="M1159 300.05C1158.95 272.403 1181.4 249.95 1209 249.95L1209.05 300.05H1159Z" fill="#0AA7FF"/>
<path d="M1209 250V300H1159C1159 272.386 1181.39 250 1209 250ZM1209.1 249.9H1209C1181.38 249.9 1158.9 272.375 1158.9 300V300.1H1209.1V249.9Z" fill="#0AA7FF"/>
<path d="M1259 300.05C1258.95 272.403 1281.4 249.95 1309 249.95L1309.05 300.05H1259Z" fill="#0AA7FF"/>
<path d="M1309 250V300H1259C1259 272.386 1281.39 250 1309 250ZM1309.1 249.9H1309C1281.38 249.9 1258.9 272.375 1258.9 300V300.1H1309.1V249.9Z" fill="#0AA7FF"/>
<path d="M1209 300.05L1208.95 250H1209.04C1236.65 250 1259.05 272.433 1259.05 300V300.05H1209Z" fill="#0AA7FF"/>
<path d="M1209 250C1236.61 250 1259 272.386 1259 300H1209V250ZM1209 249.9H1208.9V300.1H1259.1V300C1259.1 272.375 1236.63 249.9 1209 249.9Z" fill="#0AA7FF"/>
<path d="M1208.95 350.05V300L1259 299.95C1259.05 327.597 1236.6 350.05 1209 350.05H1208.95Z" fill="#0AA7FF"/>
<path d="M1259 300C1259 327.614 1236.61 350 1209 350V300H1259ZM1259.1 299.9H1208.9V350.1H1209C1236.63 350.1 1259.1 327.625 1259.1 300V299.9Z" fill="#0AA7FF"/>
<path d="M1308.95 350.05V300L1359 299.95C1359.05 327.597 1336.6 350.05 1309 350.05H1308.95Z" fill="#0AA7FF"/>
<path d="M1359 300C1359 327.614 1336.61 350 1309 350V300H1359ZM1359.1 299.9H1308.9V350.1H1309C1336.63 350.1 1359.1 327.625 1359.1 300V299.9Z" fill="#0AA7FF"/>
<path d="M1209 350.05C1181.4 350.05 1158.95 327.598 1158.95 300L1209 299.95L1209.05 350.05H1209Z" fill="#0AA7FF"/>
<path d="M1209 300V350C1181.39 350 1159 327.614 1159 300H1209ZM1209.1 299.9H1158.9V300C1158.9 327.625 1181.38 350.1 1209 350.1H1209.1V299.9Z" fill="#0AA7FF"/>
<path d="M1159 400.05C1158.95 372.403 1181.4 349.95 1209 349.95L1209.05 400.05H1159Z" fill="#0AA7FF"/>
<path d="M1209 350V400H1159C1159 372.386 1181.39 350 1209 350ZM1209.1 349.9H1209C1181.38 349.9 1158.9 372.375 1158.9 400V400.1H1209.1V349.9Z" fill="#0AA7FF"/>
<path d="M1209 400.05L1208.95 350H1209.04C1236.65 350 1259.05 372.433 1259.05 400V400.05H1209Z" fill="#0AA7FF"/>
<path d="M1209 350C1236.61 350 1259 372.386 1259 400H1209V350ZM1209 349.9H1208.9V400.1H1259.1V400C1259.1 372.375 1236.63 349.9 1209 349.9Z" fill="#0AA7FF"/>
<path d="M1309 300.05L1308.95 250H1309.04C1336.65 250 1359.05 272.433 1359.05 300V300.05H1309Z" fill="#0AA7FF"/>
<path d="M1309 250C1336.61 250 1359 272.386 1359 300H1309V250ZM1309 249.9H1308.9V300.1H1359.1V300C1359.1 272.375 1336.63 249.9 1309 249.9Z" fill="#0AA7FF"/>
<path d="M1309 350.05C1281.4 350.05 1258.95 327.598 1258.95 300L1309 299.95L1309.05 350.05H1309Z" fill="#0AA7FF"/>
<path d="M1309 300V350C1281.39 350 1259 327.614 1259 300H1309ZM1309.1 299.9H1258.9V300C1258.9 327.625 1281.38 350.1 1309 350.1H1309.1V299.9Z" fill="#0AA7FF"/>
<path d="M1359 400.05C1358.95 372.403 1381.4 349.95 1409 349.95L1409.05 400.05H1359Z" fill="#0AA7FF"/>
<path d="M1409 350V400H1359C1359 372.386 1381.39 350 1409 350ZM1409.1 349.9H1409C1381.38 349.9 1358.9 372.375 1358.9 400V400.1H1409.1V349.9Z" fill="#0AA7FF"/>
<path d="M1559 100.05C1558.95 72.4029 1581.4 49.9509 1609 49.9509L1609.05 100.05H1559Z" fill="#0AA7FF"/>
<path d="M1609 49.9999V99.9999H1559C1559 72.3859 1581.39 49.9999 1609 49.9999ZM1609.1 49.8999H1609C1581.38 49.8999 1558.9 72.3749 1558.9 99.9999V100.1H1609.1V49.8999Z" fill="#0AA7FF"/>
<path d="M1609 100.05L1608.95 50.001H1609.04C1636.65 50.001 1659.05 72.434 1659.05 100.001V100.051L1609 100.05Z" fill="#0AA7FF"/>
<path d="M1609 49.9999C1636.61 49.9999 1659 72.3859 1659 99.9999H1609V49.9999ZM1609 49.8999H1608.9V100.1H1659.1V99.9999C1659.1 72.3749 1636.63 49.8999 1609 49.8999Z" fill="#0AA7FF"/>
<path d="M1559 300.05C1558.95 272.403 1581.4 249.95 1609 249.95L1609.05 300.05H1559Z" fill="#0AA7FF"/>
<path d="M1609 250V300H1559C1559 272.386 1581.39 250 1609 250ZM1609.1 249.9H1609C1581.38 249.9 1558.9 272.375 1558.9 300V300.1H1609.1V249.9Z" fill="#0AA7FF"/>
<path d="M1609 300.05L1608.95 250H1609.04C1636.65 250 1659.05 272.433 1659.05 300V300.05H1609Z" fill="#0AA7FF"/>
<path d="M1609 250C1636.61 250 1659 272.386 1659 300H1609V250ZM1609 249.9H1608.9V300.1H1659.1V300C1659.1 272.375 1636.63 249.9 1609 249.9Z" fill="#0AA7FF"/>
<path d="M1608.95 150.05V100L1659 99.95C1659.05 127.597 1636.6 150.05 1609 150.05H1608.95Z" fill="#0AA7FF"/>
<path d="M1659 99.9999C1659 127.614 1636.61 150 1609 150V99.9999H1659ZM1659.1 99.8999H1608.9V150.1H1609C1636.63 150.1 1659.1 127.625 1659.1 99.9999V99.8999Z" fill="#0AA7FF"/>
<path d="M1609 150.05C1581.4 150.05 1558.95 127.598 1558.95 100L1609 99.95L1609.05 150.05H1609Z" fill="#0AA7FF"/>
<path d="M1609 99.9999V150C1581.39 150 1559 127.614 1559 99.9999H1609ZM1609.1 99.8999H1558.9V99.9999C1558.9 127.625 1581.38 150.1 1609 150.1H1609.1V99.8999Z" fill="#0AA7FF"/>
<path d="M1559 200.05C1558.95 172.403 1581.4 149.95 1609 149.95L1609.05 200.05H1559Z" fill="#0AA7FF"/>
<path d="M1609 150V200H1559C1559 172.386 1581.39 150 1609 150ZM1609.1 149.9H1609C1581.38 149.9 1558.9 172.375 1558.9 200V200.1H1609.1V149.9Z" fill="#0AA7FF"/>
<path d="M1609 200.05L1608.95 150H1609.04C1636.65 150 1659.05 172.433 1659.05 200V200.05H1609Z" fill="#0AA7FF"/>
<path d="M1609 150C1636.61 150 1659 172.386 1659 200H1609V150ZM1609 149.9H1608.9V200.1H1659.1V200C1659.1 172.375 1636.63 149.9 1609 149.9Z" fill="#0AA7FF"/>
<path d="M1608.95 250.05V200L1659 199.95C1659.05 227.597 1636.6 250.05 1609 250.05H1608.95Z" fill="#0AA7FF"/>
<path d="M1659 200C1659 227.614 1636.61 250 1609 250V200H1659ZM1659.1 199.9H1608.9V250.1H1609C1636.63 250.1 1659.1 227.625 1659.1 200V199.9Z" fill="#0AA7FF"/>
<path d="M1609 250.05C1581.4 250.05 1558.95 227.598 1558.95 200L1609 199.95L1609.05 250.05H1609Z" fill="#0AA7FF"/>
<path d="M1609 200V250C1581.39 250 1559 227.614 1559 200H1609ZM1609.1 199.9H1558.9V200C1558.9 227.625 1581.38 250.1 1609 250.1H1609.1V199.9Z" fill="#0AA7FF"/>
<path d="M1409 400.05L1408.95 350H1409.04C1436.65 350 1459.05 372.433 1459.05 400V400.05H1409Z" fill="#0AA7FF"/>
<path d="M1409 350C1436.61 350 1459 372.386 1459 400H1409V350ZM1409 349.9H1408.9V400.1H1459.1V400C1459.1 372.375 1436.63 349.9 1409 349.9Z" fill="#0AA7FF"/>
<path d="M1609 350.05C1581.4 350.05 1558.95 327.598 1558.95 300L1609 299.95L1609.05 350.05H1609Z" fill="#0AA7FF"/>
<path d="M1609 300V350C1581.39 350 1559 327.614 1559 300H1609ZM1609.1 299.9H1558.9V300C1558.9 327.625 1581.38 350.1 1609 350.1H1609.1V299.9Z" fill="#0AA7FF"/>
<path d="M1559 400.05C1558.95 372.403 1581.4 349.95 1609 349.95L1609.05 400.05H1559Z" fill="#0AA7FF"/>
<path d="M1609 350V400H1559C1559 372.386 1581.39 350 1609 350ZM1609.1 349.9H1609C1581.38 349.9 1558.9 372.375 1558.9 400V400.1H1609.1V349.9Z" fill="#0AA7FF"/>
<path d="M1609 400.05L1608.95 350H1609.04C1636.65 350 1659.05 372.433 1659.05 400V400.05H1609Z" fill="#0AA7FF"/>
<path d="M1609 350C1636.61 350 1659 372.386 1659 400H1609V350ZM1609 349.9H1608.9V400.1H1659.1V400C1659.1 372.375 1636.63 349.9 1609 349.9Z" fill="#0AA7FF"/>
<path d="M1608.95 450.05V400L1659 399.95C1659.05 427.597 1636.6 450.05 1609 450.05H1608.95Z" fill="#0AA7FF"/>
<path d="M1659 400C1659 427.614 1636.61 450 1609 450V400H1659ZM1659.1 399.9H1608.9V450.1H1609C1636.63 450.1 1659.1 427.625 1659.1 400V399.9Z" fill="#0AA7FF"/>
<path d="M1609 450.05C1581.4 450.05 1558.95 427.598 1558.95 400L1609 399.95L1609.05 450.05H1609Z" fill="#0AA7FF"/>
<path d="M1609 400V450C1581.39 450 1559 427.614 1559 400H1609ZM1609.1 399.9H1558.9V400C1558.9 427.625 1581.38 450.1 1609 450.1H1609.1V399.9Z" fill="#0AA7FF"/>
<path d="M1559 500.05C1558.95 472.403 1581.4 449.95 1609 449.95L1609.05 500.05H1559Z" fill="#0AA7FF"/>
<path d="M1609 450V500H1559C1559 472.386 1581.39 450 1609 450ZM1609.1 449.9H1609C1581.38 449.9 1558.9 472.375 1558.9 500V500.1H1609.1V449.9Z" fill="#0AA7FF"/>
<path d="M1609 500.05L1608.95 450H1609.04C1636.65 450 1659.05 472.433 1659.05 500V500.05H1609Z" fill="#0AA7FF"/>
<path d="M1609 450C1636.61 450 1659 472.386 1659 500H1609V450ZM1609 449.9H1608.9V500.1H1659.1V500C1659.1 472.375 1636.63 449.9 1609 449.9Z" fill="#0AA7FF"/>
<path d="M1608.95 550.05V500L1659 499.95C1659.05 527.597 1636.6 550.05 1609 550.05H1608.95Z" fill="#0AA7FF"/>
<path d="M1659 500C1659 527.614 1636.61 550 1609 550V500H1659ZM1659.1 499.9H1608.9V550.1H1609C1636.63 550.1 1659.1 527.625 1659.1 500V499.9Z" fill="#0AA7FF"/>
<path d="M1609 550.05C1581.4 550.05 1558.95 527.598 1558.95 500L1609 499.95L1609.05 550.05H1609Z" fill="#0AA7FF"/>
<path d="M1609 500V550C1581.39 550 1559 527.614 1559 500H1609ZM1609.1 499.9H1558.9V500C1558.9 527.625 1581.38 550.1 1609 550.1H1609.1V499.9Z" fill="#0AA7FF"/>
<path d="M1559 600.05C1558.95 572.403 1581.4 549.95 1609 549.95L1609.05 600.05H1559Z" fill="#0AA7FF"/>
<path d="M1609 550V600H1559C1559 572.386 1581.39 550 1609 550ZM1609.1 549.9H1609C1581.38 549.9 1558.9 572.375 1558.9 600V600.1H1609.1V549.9Z" fill="#0AA7FF"/>
<path d="M1609 600.05L1608.95 550H1609.04C1636.65 550 1659.05 572.433 1659.05 600V600.05H1609Z" fill="#0AA7FF"/>
<path d="M1609 550C1636.61 550 1659 572.386 1659 600H1609V550ZM1609 549.9H1608.9V600.1H1659.1V600C1659.1 572.375 1636.63 549.9 1609 549.9Z" fill="#0AA7FF"/>
<path d="M1559 700.05C1558.95 672.403 1581.4 649.95 1609 649.95L1609.05 700.05H1559Z" fill="#0AA7FF"/>
<path d="M1609 650V700H1559C1559 672.386 1581.39 650 1609 650ZM1609.1 649.9H1609C1581.38 649.9 1558.9 672.375 1558.9 700V700.1H1609.1V649.9Z" fill="#0AA7FF"/>
<path d="M1609 700.05L1608.95 650H1609.04C1636.65 650 1659.05 672.433 1659.05 700V700.05H1609Z" fill="#0AA7FF"/>
<path d="M1609 650C1636.61 650 1659 672.386 1659 700H1609V650ZM1609 649.9H1608.9V700.1H1659.1V700C1659.1 672.375 1636.63 649.9 1609 649.9Z" fill="#0AA7FF"/>
<path d="M1608.95 650.05V600L1659 599.95C1659.05 627.597 1636.6 650.05 1609 650.05H1608.95Z" fill="#0AA7FF"/>
<path d="M1659 600C1659 627.614 1636.61 650 1609 650V600H1659ZM1659.1 599.9H1608.9V650.1H1609C1636.63 650.1 1659.1 627.625 1659.1 600V599.9Z" fill="#0AA7FF"/>
<path d="M1609 650.05C1581.4 650.05 1558.95 627.598 1558.95 600L1609 599.95L1609.05 650.05H1609Z" fill="#0AA7FF"/>
<path d="M1609 600V650C1581.39 650 1559 627.614 1559 600H1609ZM1609.1 599.9H1558.9V600C1558.9 627.625 1581.38 650.1 1609 650.1H1609.1V599.9Z" fill="#0AA7FF"/>
<path d="M1608.95 350.05V300L1659 299.95C1659.05 327.597 1636.6 350.05 1609 350.05H1608.95Z" fill="#0AA7FF"/>
<path d="M1659 300C1659 327.614 1636.61 350 1609 350V300H1659ZM1659.1 299.9H1608.9V350.1H1609C1636.63 350.1 1659.1 327.625 1659.1 300V299.9Z" fill="#0AA7FF"/>
<path d="M2320 550.1C2292.38 550.1 2269.9 527.625 2269.9 500V499.9H2320.1V550.099H2320L2320 550.1Z" fill="white"/>
<path d="M2320 500V550C2292.39 550 2270 527.614 2270 500H2320ZM2320.2 499.8H2269.8V500C2269.8 527.68 2292.32 550.2 2320 550.2H2320.2V499.8Z" fill="white"/>
<path d="M2320 450.1C2292.38 450.1 2269.9 427.625 2269.9 400V399.9H2320.1V450.099H2320L2320 450.1Z" fill="white"/>
<path d="M2320 400V450C2292.39 450 2270 427.614 2270 400H2320ZM2320.2 399.8H2269.8V400C2269.8 427.68 2292.32 450.2 2320 450.2H2320.2V399.8Z" fill="white"/>
<path d="M2269.9 500.1V500C2269.9 472.375 2292.38 449.9 2320 449.9H2320.1V500.099H2269.9L2269.9 500.1Z" fill="white"/>
<path d="M2320 450V500H2270C2270 472.386 2292.39 450 2320 450ZM2320.2 449.8H2320C2292.32 449.8 2269.8 472.32 2269.8 500V500.2H2320.2V449.8Z" fill="white"/>
<path d="M2269.9 700.1V700C2269.9 672.375 2292.38 649.9 2320 649.9H2320.1V700.099H2269.9L2269.9 700.1Z" fill="white"/>
<path d="M2320 650V700H2270C2270 672.386 2292.39 650 2320 650ZM2320.2 649.8H2320C2292.32 649.8 2269.8 672.32 2269.8 700V700.2H2320.2V649.8Z" fill="white"/>
<path d="M2320 750.1C2292.38 750.1 2269.9 727.625 2269.9 700V699.9H2320.1V750.099H2320L2320 750.1Z" fill="white"/>
<path d="M2320 700V750C2292.39 750 2270 727.614 2270 700H2320ZM2320.2 699.8H2269.8V700C2269.8 727.68 2292.32 750.2 2320 750.2H2320.2V699.8Z" fill="white"/>
<path d="M2319.9 550.1V499.901H2370.1V500.001C2370.1 527.626 2347.63 550.101 2320 550.101H2319.9L2319.9 550.1Z" fill="white"/>
<path d="M2370 500C2370 527.614 2347.61 550 2320 550V500H2370ZM2370.2 499.8H2319.8V550.2H2320C2347.68 550.2 2370.2 527.68 2370.2 500V499.8Z" fill="white"/>
<path d="M2319.9 500.1V449.901H2320C2347.63 449.901 2370.1 472.376 2370.1 500.001V500.101H2319.9L2319.9 500.1Z" fill="white"/>
<path d="M2320 450C2347.61 450 2370 472.386 2370 500H2320V450ZM2320 449.8H2319.8V500.2H2370.2V500C2370.2 472.32 2347.68 449.8 2320 449.8Z" fill="white"/>
<path d="M2319.9 450.1V399.901H2370.1V400.001C2370.1 427.626 2347.63 450.101 2320 450.101H2319.9L2319.9 450.1Z" fill="white"/>
<path d="M2370 400C2370 427.614 2347.61 450 2320 450V400H2370ZM2370.2 399.8H2319.8V450.2H2320C2347.68 450.2 2370.2 427.68 2370.2 400V399.8Z" fill="white"/>
<path d="M2319.9 700.1V649.901H2320C2347.63 649.901 2370.1 672.376 2370.1 700.001V700.101H2319.9L2319.9 700.1Z" fill="white"/>
<path d="M2320 650C2347.61 650 2370 672.386 2370 700H2320V650ZM2320 649.8H2319.8V700.2H2370.2V700C2370.2 672.32 2347.68 649.8 2320 649.8Z" fill="white"/>
<path d="M2319.9 750.1V699.901H2370.1V700.001C2370.1 727.626 2347.63 750.101 2320 750.101H2319.9L2319.9 750.1Z" fill="white"/>
<path d="M2370 700C2370 727.614 2347.61 750 2320 750V700H2370ZM2370.2 699.8H2319.8V750.2H2320C2347.68 750.2 2370.2 727.68 2370.2 700V699.8Z" fill="white"/>
<path d="M2320 150.1C2292.38 150.1 2269.9 127.625 2269.9 100V99.9001H2320.1V150.1H2320Z" fill="white"/>
<path d="M2320 100V150C2292.39 150 2270 127.614 2270 100H2320ZM2320.2 99.8H2269.8V100C2269.8 127.68 2292.32 150.2 2320 150.2H2320.2V99.8Z" fill="white"/>
<path d="M2269.9 200.1V200C2269.9 172.375 2292.38 149.9 2320 149.9H2320.1V200.1H2269.9Z" fill="white"/>
<path d="M2320 150V200H2270C2270 172.386 2292.39 150 2320 150ZM2320.2 149.8H2320C2292.32 149.8 2269.8 172.32 2269.8 200V200.2H2320.2V149.8Z" fill="white"/>
<path d="M2269.9 100.1V100C2269.9 72.3751 2292.38 49.9001 2320 49.9001H2320.1V100.1H2269.9Z" fill="white"/>
<path d="M2320 50V100H2270C2270 72.386 2292.39 50 2320 50ZM2320.2 49.8H2320C2292.32 49.8 2269.8 72.32 2269.8 100V100.2H2320.2V49.8Z" fill="white"/>
<path d="M2320 250.1C2292.38 250.1 2269.9 227.625 2269.9 200V199.9H2320.1V250.1H2320Z" fill="white"/>
<path d="M2320 200V250C2292.39 250 2270 227.614 2270 200H2320ZM2320.2 199.8H2269.8V200C2269.8 227.68 2292.32 250.2 2320 250.2H2320.2V199.8Z" fill="white"/>
<path d="M2269.9 300.1V300C2269.9 272.375 2292.38 249.9 2320 249.9H2320.1V300.1H2269.9Z" fill="white"/>
<path d="M2320 250V300H2270C2270 272.386 2292.39 250 2320 250ZM2320.2 249.8H2320C2292.32 249.8 2269.8 272.32 2269.8 300V300.2H2320.2V249.8Z" fill="white"/>
<path d="M2320 350.1C2292.38 350.1 2269.9 327.625 2269.9 300V299.9H2320.1V350.1H2320Z" fill="white"/>
<path d="M2320 300V350C2292.39 350 2270 327.614 2270 300H2320ZM2320.2 299.8H2269.8V300C2269.8 327.68 2292.32 350.2 2320 350.2H2320.2V299.8Z" fill="white"/>
<path d="M2269.9 400.1V400C2269.9 372.375 2292.38 349.9 2320 349.9H2320.1V400.1H2269.9Z" fill="white"/>
<path d="M2320 350V400H2270C2270 372.386 2292.39 350 2320 350ZM2320.2 349.8H2320C2292.32 349.8 2269.8 372.32 2269.8 400V400.2H2320.2V349.8Z" fill="white"/>
<path d="M2319.9 200.1V149.9H2320C2347.63 149.9 2370.1 172.375 2370.1 200V200.1H2319.9Z" fill="white"/>
<path d="M2320 150C2347.61 150 2370 172.386 2370 200H2320V150ZM2320 149.8H2319.8V200.2H2370.2V200C2370.2 172.32 2347.68 149.8 2320 149.8Z" fill="white"/>
<path d="M2319.9 150.1V99.9001H2370.1V100C2370.1 127.625 2347.63 150.1 2320 150.1H2319.9Z" fill="white"/>
<path d="M2370 100C2370 127.614 2347.61 150 2320 150V100H2370ZM2370.2 99.8H2319.8V150.2H2320C2347.68 150.2 2370.2 127.68 2370.2 100V99.8Z" fill="white"/>
<path d="M2319.9 100.1V49.9001H2320C2347.63 49.9001 2370.1 72.3751 2370.1 100V100.1H2319.9Z" fill="white"/>
<path d="M2320 50C2347.61 50 2370 72.386 2370 100H2320V50ZM2320 49.8H2319.8V100.2H2370.2V100C2370.2 72.32 2347.68 49.8 2320 49.8Z" fill="white"/>
<path d="M2319.9 300.1V249.9H2320C2347.63 249.9 2370.1 272.375 2370.1 300V300.1H2319.9Z" fill="white"/>
<path d="M2320 250C2347.61 250 2370 272.386 2370 300H2320V250ZM2320 249.8H2319.8V300.2H2370.2V300C2370.2 272.32 2347.68 249.8 2320 249.8Z" fill="white"/>
<path d="M2319.9 250.1V199.9H2370.1V200C2370.1 227.625 2347.63 250.1 2320 250.1H2319.9Z" fill="white"/>
<path d="M2370 200C2370 227.614 2347.61 250 2320 250V200H2370ZM2370.2 199.8H2319.8V250.2H2320C2347.68 250.2 2370.2 227.68 2370.2 200V199.8Z" fill="white"/>
<path d="M2319.9 400.1V349.9H2320C2347.63 349.9 2370.1 372.375 2370.1 400V400.1H2319.9Z" fill="white"/>
<path d="M2320 350C2347.61 350 2370 372.386 2370 400H2320V350ZM2320 349.8H2319.8V400.2H2370.2V400C2370.2 372.32 2347.68 349.8 2320 349.8Z" fill="white"/>
<path d="M2319.9 350.1V299.9H2370.1V300C2370.1 327.625 2347.63 350.1 2320 350.1H2319.9Z" fill="white"/>
<path d="M2370 300C2370 327.614 2347.61 350 2320 350V300H2370ZM2370.2 299.8H2319.8V350.2H2320C2347.68 350.2 2370.2 327.68 2370.2 300V299.8Z" fill="white"/>
<path d="M2269.9 600C2269.9 572.485 2247.51 550.1 2220 550.1V549.901C2247.51 549.901 2269.9 527.515 2269.9 500.001H2270.1C2270.1 527.516 2292.49 549.901 2320 549.901V550.1C2292.48 550.1 2270.1 572.486 2270.1 600H2269.9Z" fill="#A54AFF"/>
<path d="M2270 500C2270 527.614 2292.39 550 2320 550C2292.39 550 2270 572.386 2270 600C2270 572.386 2247.61 550 2220 550C2247.61 550 2270 527.614 2270 500ZM2270.2 500H2269.8C2269.8 527.46 2247.46 549.8 2220 549.8V550.2C2247.46 550.2 2269.8 572.54 2269.8 600H2270.2C2270.2 572.54 2292.54 550.2 2320 550.2V549.8C2292.54 549.8 2270.2 527.46 2270.2 500Z" fill="#A54AFF"/>
<path d="M2269.9 500C2269.9 472.485 2247.51 450.1 2220 450.1V449.901C2247.51 449.901 2269.9 427.515 2269.9 400.001H2270.1C2270.1 427.516 2292.49 449.901 2320 449.901V450.1C2292.48 450.1 2270.1 472.486 2270.1 500H2269.9Z" fill="#A54AFF"/>
<path d="M2270 400C2270 427.614 2292.39 450 2320 450C2292.39 450 2270 472.386 2270 500C2270 472.386 2247.61 450 2220 450C2247.61 450 2270 427.614 2270 400ZM2270.2 400H2269.8C2269.8 427.46 2247.46 449.8 2220 449.8V450.2C2247.46 450.2 2269.8 472.54 2269.8 500H2270.2C2270.2 472.54 2292.54 450.2 2320 450.2V449.8C2292.54 449.8 2270.2 427.46 2270.2 400Z" fill="#A54AFF"/>
<path d="M2269.9 700C2269.9 672.485 2247.51 650.1 2220 650.1V649.901C2247.51 649.901 2269.9 627.515 2269.9 600.001H2270.1C2270.1 627.516 2292.49 649.901 2320 649.901V650.1C2292.48 650.1 2270.1 672.486 2270.1 700H2269.9Z" fill="#A54AFF"/>
<path d="M2270 600C2270 627.614 2292.39 650 2320 650C2292.39 650 2270 672.386 2270 700C2270 672.386 2247.61 650 2220 650C2247.61 650 2270 627.614 2270 600ZM2270.2 600H2269.8C2269.8 627.46 2247.46 649.8 2220 649.8V650.2C2247.46 650.2 2269.8 672.54 2269.8 700H2270.2C2270.2 672.54 2292.54 650.2 2320 650.2V649.8C2292.54 649.8 2270.2 627.46 2270.2 600Z" fill="#A54AFF"/>
<path d="M2269.9 800C2269.9 772.485 2247.51 750.1 2220 750.1V749.901C2247.51 749.901 2269.9 727.515 2269.9 700.001H2270.1C2270.1 727.516 2292.49 749.901 2320 749.901V750.1C2292.48 750.1 2270.1 772.486 2270.1 800H2269.9Z" fill="#A54AFF"/>
<path d="M2270 700C2270 727.614 2292.39 750 2320 750C2292.39 750 2270 772.386 2270 800C2270 772.386 2247.61 750 2220 750C2247.61 750 2270 727.614 2270 700ZM2270.2 700H2269.8C2269.8 727.46 2247.46 749.8 2220 749.8V750.2C2247.46 750.2 2269.8 772.54 2269.8 800H2270.2C2270.2 772.54 2292.54 750.2 2320 750.2V749.8C2292.54 749.8 2270.2 727.46 2270.2 700Z" fill="#A54AFF"/>
<path d="M2369.9 600C2369.9 572.485 2347.51 550.1 2320 550.1V549.901C2347.51 549.901 2369.9 527.515 2369.9 500.001H2370.1C2370.1 527.516 2392.49 549.901 2420 549.901V550.1C2392.48 550.1 2370.1 572.486 2370.1 600H2369.9Z" fill="#A54AFF"/>
<path d="M2370 500C2370 527.614 2392.39 550 2420 550C2392.39 550 2370 572.386 2370 600C2370 572.386 2347.61 550 2320 550C2347.61 550 2370 527.614 2370 500ZM2370.2 500H2369.8C2369.8 527.46 2347.46 549.8 2320 549.8V550.2C2347.46 550.2 2369.8 572.54 2369.8 600H2370.2C2370.2 572.54 2392.54 550.2 2420 550.2V549.8C2392.54 549.8 2370.2 527.46 2370.2 500Z" fill="#A54AFF"/>
<path d="M2369.9 500C2369.9 472.485 2347.51 450.1 2320 450.1V449.901C2347.51 449.901 2369.9 427.515 2369.9 400.001H2370.1C2370.1 427.516 2392.49 449.901 2420 449.901V450.1C2392.48 450.1 2370.1 472.486 2370.1 500H2369.9Z" fill="#A54AFF"/>
<path d="M2370 400C2370 427.614 2392.39 450 2420 450C2392.39 450 2370 472.386 2370 500C2370 472.386 2347.61 450 2320 450C2347.61 450 2370 427.614 2370 400ZM2370.2 400H2369.8C2369.8 427.46 2347.46 449.8 2320 449.8V450.2C2347.46 450.2 2369.8 472.54 2369.8 500H2370.2C2370.2 472.54 2392.54 450.2 2420 450.2V449.8C2392.54 449.8 2370.2 427.46 2370.2 400Z" fill="#A54AFF"/>
<path d="M2369.9 700C2369.9 672.485 2347.51 650.1 2320 650.1V649.901C2347.51 649.901 2369.9 627.515 2369.9 600.001H2370.1C2370.1 627.516 2392.49 649.901 2420 649.901V650.1C2392.48 650.1 2370.1 672.486 2370.1 700H2369.9Z" fill="#A54AFF"/>
<path d="M2370 600C2370 627.614 2392.39 650 2420 650C2392.39 650 2370 672.386 2370 700C2370 672.386 2347.61 650 2320 650C2347.61 650 2370 627.614 2370 600ZM2370.2 600H2369.8C2369.8 627.46 2347.46 649.8 2320 649.8V650.2C2347.46 650.2 2369.8 672.54 2369.8 700H2370.2C2370.2 672.54 2392.54 650.2 2420 650.2V649.8C2392.54 649.8 2370.2 627.46 2370.2 600Z" fill="#A54AFF"/>
<path d="M2369.9 800C2369.9 772.485 2347.51 750.1 2320 750.1V749.901C2347.51 749.901 2369.9 727.515 2369.9 700.001H2370.1C2370.1 727.516 2392.49 749.901 2420 749.901V750.1C2392.48 750.1 2370.1 772.486 2370.1 800H2369.9Z" fill="#A54AFF"/>
<path d="M2370 700C2370 727.614 2392.39 750 2420 750C2392.39 750 2370 772.386 2370 800C2370 772.386 2347.61 750 2320 750C2347.61 750 2370 727.614 2370 700ZM2370.2 700H2369.8C2369.8 727.46 2347.46 749.8 2320 749.8V750.2C2347.46 750.2 2369.8 772.54 2369.8 800H2370.2C2370.2 772.54 2392.54 750.2 2420 750.2V749.8C2392.54 749.8 2370.2 727.46 2370.2 700Z" fill="#A54AFF"/>
<path d="M2269.9 200C2269.9 172.485 2247.51 150.1 2220 150.1V149.9C2247.51 149.9 2269.9 127.515 2269.9 100H2270.1C2270.1 127.515 2292.49 149.9 2320 149.9V150.1C2292.48 150.1 2270.1 172.485 2270.1 200H2269.9Z" fill="#A54AFF"/>
<path d="M2270 100C2270 127.614 2292.39 150 2320 150C2292.39 150 2270 172.386 2270 200C2270 172.386 2247.61 150 2220 150C2247.61 150 2270 127.614 2270 100ZM2270.2 100H2269.8C2269.8 127.46 2247.46 149.8 2220 149.8V150.2C2247.46 150.2 2269.8 172.54 2269.8 200H2270.2C2270.2 172.54 2292.54 150.2 2320 150.2V149.8C2292.54 149.8 2270.2 127.46 2270.2 100Z" fill="#A54AFF"/>
<path d="M2269.9 100C2269.9 72.485 2247.51 50.1 2220 50.1V49.9C2247.51 49.9 2269.9 27.515 2269.9 0H2270.1C2270.1 27.515 2292.49 49.9 2320 49.9V50.1C2292.48 50.1 2270.1 72.485 2270.1 100H2269.9Z" fill="#A54AFF"/>
<path d="M2270 0C2270 27.614 2292.39 50 2320 50C2292.39 50 2270 72.386 2270 100C2270 72.386 2247.61 50 2220 50C2247.61 50 2270 27.614 2270 0ZM2270.2 0H2269.8C2269.8 27.46 2247.46 49.8 2220 49.8V50.2C2247.46 50.2 2269.8 72.54 2269.8 100H2270.2C2270.2 72.54 2292.54 50.2 2320 50.2V49.8C2292.54 49.8 2270.2 27.46 2270.2 0Z" fill="#A54AFF"/>
<path d="M2269.9 300C2269.9 272.485 2247.51 250.1 2220 250.1V249.9C2247.51 249.9 2269.9 227.515 2269.9 200H2270.1C2270.1 227.515 2292.49 249.9 2320 249.9V250.1C2292.48 250.1 2270.1 272.485 2270.1 300H2269.9Z" fill="#A54AFF"/>
<path d="M2270 200C2270 227.614 2292.39 250 2320 250C2292.39 250 2270 272.386 2270 300C2270 272.386 2247.61 250 2220 250C2247.61 250 2270 227.614 2270 200ZM2270.2 200H2269.8C2269.8 227.46 2247.46 249.8 2220 249.8V250.2C2247.46 250.2 2269.8 272.54 2269.8 300H2270.2C2270.2 272.54 2292.54 250.2 2320 250.2V249.8C2292.54 249.8 2270.2 227.46 2270.2 200Z" fill="#A54AFF"/>
<path d="M2269.9 400C2269.9 372.485 2247.51 350.1 2220 350.1V349.9C2247.51 349.9 2269.9 327.515 2269.9 300H2270.1C2270.1 327.515 2292.49 349.9 2320 349.9V350.1C2292.48 350.1 2270.1 372.485 2270.1 400H2269.9Z" fill="#A54AFF"/>
<path d="M2270 300C2270 327.614 2292.39 350 2320 350C2292.39 350 2270 372.386 2270 400C2270 372.386 2247.61 350 2220 350C2247.61 350 2270 327.614 2270 300ZM2270.2 300H2269.8C2269.8 327.46 2247.46 349.8 2220 349.8V350.2C2247.46 350.2 2269.8 372.54 2269.8 400H2270.2C2270.2 372.54 2292.54 350.2 2320 350.2V349.8C2292.54 349.8 2270.2 327.46 2270.2 300Z" fill="#A54AFF"/>
<path d="M2369.9 200C2369.9 172.485 2347.51 150.1 2320 150.1V149.9C2347.51 149.9 2369.9 127.515 2369.9 100H2370.1C2370.1 127.515 2392.49 149.9 2420 149.9V150.1C2392.48 150.1 2370.1 172.485 2370.1 200H2369.9Z" fill="#A54AFF"/>
<path d="M2370 100C2370 127.614 2392.39 150 2420 150C2392.39 150 2370 172.386 2370 200C2370 172.386 2347.61 150 2320 150C2347.61 150 2370 127.614 2370 100ZM2370.2 100H2369.8C2369.8 127.46 2347.46 149.8 2320 149.8V150.2C2347.46 150.2 2369.8 172.54 2369.8 200H2370.2C2370.2 172.54 2392.54 150.2 2420 150.2V149.8C2392.54 149.8 2370.2 127.46 2370.2 100Z" fill="#A54AFF"/>
<path d="M2369.9 100C2369.9 72.485 2347.51 50.1 2320 50.1V49.9C2347.51 49.9 2369.9 27.515 2369.9 0H2370.1C2370.1 27.515 2392.49 49.9 2420 49.9V50.1C2392.48 50.1 2370.1 72.485 2370.1 100H2369.9Z" fill="#A54AFF"/>
<path d="M2370 0C2370 27.614 2392.39 50 2420 50C2392.39 50 2370 72.386 2370 100C2370 72.386 2347.61 50 2320 50C2347.61 50 2370 27.614 2370 0ZM2370.2 0H2369.8C2369.8 27.46 2347.46 49.8 2320 49.8V50.2C2347.46 50.2 2369.8 72.54 2369.8 100H2370.2C2370.2 72.54 2392.54 50.2 2420 50.2V49.8C2392.54 49.8 2370.2 27.46 2370.2 0Z" fill="#A54AFF"/>
<path d="M2369.9 300C2369.9 272.485 2347.51 250.1 2320 250.1V249.9C2347.51 249.9 2369.9 227.515 2369.9 200H2370.1C2370.1 227.515 2392.49 249.9 2420 249.9V250.1C2392.48 250.1 2370.1 272.485 2370.1 300H2369.9Z" fill="#A54AFF"/>
<path d="M2370 200C2370 227.614 2392.39 250 2420 250C2392.39 250 2370 272.386 2370 300C2370 272.386 2347.61 250 2320 250C2347.61 250 2370 227.614 2370 200ZM2370.2 200H2369.8C2369.8 227.46 2347.46 249.8 2320 249.8V250.2C2347.46 250.2 2369.8 272.54 2369.8 300H2370.2C2370.2 272.54 2392.54 250.2 2420 250.2V249.8C2392.54 249.8 2370.2 227.46 2370.2 200Z" fill="#A54AFF"/>
<path d="M2369.9 400C2369.9 372.485 2347.51 350.1 2320 350.1V349.9C2347.51 349.9 2369.9 327.515 2369.9 300H2370.1C2370.1 327.515 2392.49 349.9 2420 349.9V350.1C2392.48 350.1 2370.1 372.485 2370.1 400H2369.9Z" fill="#A54AFF"/>
<path d="M2370 300C2370 327.614 2392.39 350 2420 350C2392.39 350 2370 372.386 2370 400C2370 372.386 2347.61 350 2320 350C2347.61 350 2370 327.614 2370 300ZM2370.2 300H2369.8C2369.8 327.46 2347.46 349.8 2320 349.8V350.2C2347.46 350.2 2369.8 372.54 2369.8 400H2370.2C2370.2 372.54 2392.54 350.2 2420 350.2V349.8C2392.54 349.8 2370.2 327.46 2370.2 300Z" fill="#A54AFF"/>
<path d="M579.899 600.1V600C579.899 572.375 602.374 549.9 629.999 549.9H630.099V600.099H579.9L579.899 600.1Z" fill="white"/>
<path d="M630 550V600H580C580 572.386 602.386 550 630 550ZM630.2 549.8H630C602.32 549.8 579.8 572.32 579.8 600V600.2H630.2V549.8Z" fill="white"/>
<path d="M629.899 550.1V499.901H680.098V500.001C680.098 527.626 657.623 550.101 629.998 550.101H629.898L629.899 550.1Z" fill="white"/>
<path d="M680 500C680 527.614 657.614 550 630 550V500H680ZM680.2 499.8H629.8V550.2H630C657.68 550.2 680.2 527.68 680.2 500V499.8Z" fill="white"/>
<path d="M579.899 500.1V500C579.899 472.375 602.374 449.9 629.999 449.9H630.099V500.099H579.9L579.899 500.1Z" fill="white"/>
<path d="M630 450V500H580C580 472.386 602.386 450 630 450ZM630.2 449.8H630C602.32 449.8 579.8 472.32 579.8 500V500.2H630.2V449.8Z" fill="white"/>
<path d="M629.899 450.1V399.901H680.098V400.001C680.098 427.626 657.623 450.101 629.998 450.101H629.898L629.899 450.1Z" fill="white"/>
<path d="M680 400C680 427.614 657.614 450 630 450V400H680ZM680.2 399.8H629.8V450.2H630C657.68 450.2 680.2 427.68 680.2 400V399.8Z" fill="white"/>
<path d="M729.901 450.1V399.901H780.1V400.001C780.1 427.626 757.625 450.101 730 450.101H729.9L729.901 450.1Z" fill="white"/>
<path d="M780.001 400C780.001 427.614 757.615 450 730.001 450V400H780.001ZM780.201 399.8H729.801V450.2H730.001C757.681 450.2 780.201 427.68 780.201 400V399.8Z" fill="white"/>
<path d="M579.899 700.1V700C579.899 672.375 602.374 649.9 629.999 649.9H630.099V700.099H579.9L579.899 700.1Z" fill="white"/>
<path d="M630 650V700H580C580 672.386 602.386 650 630 650ZM630.2 649.8H630C602.32 649.8 579.8 672.32 579.8 700V700.2H630.2V649.8Z" fill="white"/>
<path d="M629.899 650.1V599.901H680.098V600.001C680.098 627.626 657.623 650.101 629.998 650.101H629.898L629.899 650.1Z" fill="white"/>
<path d="M680 600C680 627.614 657.614 650 630 650V600H680ZM680.2 599.8H629.8V650.2H630C657.68 650.2 680.2 627.68 680.2 600V599.8Z" fill="white"/>
<path d="M979.9 600.1V600C979.9 572.375 1002.38 549.9 1030 549.9H1030.1V600.099H979.901L979.9 600.1Z" fill="white"/>
<path d="M1030 550V600H980.001C980.001 572.386 1002.39 550 1030 550ZM1030.2 549.8H1030C1002.32 549.8 979.801 572.32 979.801 600V600.2H1030.2V549.8Z" fill="white"/>
<path d="M1029.9 550.1V499.901H1080.1V500.001C1080.1 527.626 1057.63 550.101 1030 550.101H1029.9L1029.9 550.1Z" fill="white"/>
<path d="M1080 500C1080 527.614 1057.61 550 1030 550V500H1080ZM1080.2 499.8H1029.8V550.2H1030C1057.68 550.2 1080.2 527.68 1080.2 500V499.8Z" fill="white"/>
<path d="M829.901 450.1V399.901H880.1V400.001C880.1 427.626 857.625 450.101 830 450.101H829.9L829.901 450.1Z" fill="white"/>
<path d="M880.001 400C880.001 427.614 857.615 450 830.001 450V400H880.001ZM880.201 399.8H829.801V450.2H830.001C857.681 450.2 880.201 427.68 880.201 400V399.8Z" fill="white"/>
<path d="M979.9 500.1V500C979.9 472.375 1002.38 449.9 1030 449.9H1030.1V500.099H979.901L979.9 500.1Z" fill="white"/>
<path d="M1030 450V500H980.001C980.001 472.386 1002.39 450 1030 450ZM1030.2 449.8H1030C1002.32 449.8 979.801 472.32 979.801 500V500.2H1030.2V449.8Z" fill="white"/>
<path d="M929.901 450.1V399.901H980.1V400.001C980.1 427.626 957.625 450.101 930 450.101H929.9L929.901 450.1Z" fill="white"/>
<path d="M980.001 400C980.001 427.614 957.615 450 930.001 450V400H980.001ZM980.201 399.8H929.801V450.2H930.001C957.681 450.2 980.201 427.68 980.201 400V399.8Z" fill="white"/>
<path d="M1029.9 450.1V399.901H1080.1V400.001C1080.1 427.626 1057.63 450.101 1030 450.101H1029.9L1029.9 450.1Z" fill="white"/>
<path d="M1080 400C1080 427.614 1057.61 450 1030 450V400H1080ZM1080.2 399.8H1029.8V450.2H1030C1057.68 450.2 1080.2 427.68 1080.2 400V399.8Z" fill="white"/>
<path d="M979.9 700.1V700C979.9 672.375 1002.38 649.9 1030 649.9H1030.1V700.099H979.901L979.9 700.1Z" fill="white"/>
<path d="M1030 650V700H980.001C980.001 672.386 1002.39 650 1030 650ZM1030.2 649.8H1030C1002.32 649.8 979.801 672.32 979.801 700V700.2H1030.2V649.8Z" fill="white"/>
<path d="M1029.9 650.1V599.901H1080.1V600.001C1080.1 627.626 1057.63 650.101 1030 650.101H1029.9L1029.9 650.1Z" fill="white"/>
<path d="M1080 600C1080 627.614 1057.61 650 1030 650V600H1080ZM1080.2 599.8H1029.8V650.2H1030C1057.68 650.2 1080.2 627.68 1080.2 600V599.8Z" fill="white"/>
<path d="M1029.9 750.1V699.901H1080.1V700.001C1080.1 727.626 1057.63 750.101 1030 750.101H1029.9L1029.9 750.1Z" fill="white"/>
<path d="M1080 700C1080 727.614 1057.61 750 1030 750V700H1080ZM1080.2 699.8H1029.8V750.2H1030C1057.68 750.2 1080.2 727.68 1080.2 700V699.8Z" fill="white"/>
<path d="M679.899 200.1V200C679.899 172.375 702.374 149.9 729.999 149.9H730.099V200.1H679.899Z" fill="white"/>
<path d="M730 150V200H680C680 172.386 702.386 150 730 150ZM730.2 149.8H730C702.32 149.8 679.8 172.32 679.8 200V200.2H730.2V149.8Z" fill="white"/>
<path d="M779.9 100.1V100C779.9 72.3751 802.375 49.9001 830 49.9001H830.1V100.1H779.9Z" fill="white"/>
<path d="M830.001 50V100H780.001C780.001 72.386 802.387 50 830.001 50ZM830.201 49.8H830.001C802.321 49.8 779.801 72.32 779.801 100V100.2H830.201V49.8Z" fill="white"/>
<path d="M579.899 300.1V300C579.899 272.375 602.374 249.9 629.999 249.9H630.099V300.1H579.899Z" fill="white"/>
<path d="M630 250V300H580C580 272.386 602.386 250 630 250ZM630.2 249.8H630C602.32 249.8 579.8 272.32 579.8 300V300.2H630.2V249.8Z" fill="white"/>
<path d="M729.901 250.1V199.9H780.1V200C780.1 227.625 757.625 250.1 730 250.1H729.9H729.901Z" fill="white"/>
<path d="M780.001 200C780.001 227.614 757.615 250 730.001 250V200H780.001ZM780.201 199.8H729.801V250.2H730.001C757.681 250.2 780.201 227.68 780.201 200V199.8Z" fill="white"/>
<path d="M579.899 400.1V400C579.899 372.375 602.374 349.9 629.999 349.9H630.099V400.1H579.899Z" fill="white"/>
<path d="M630 350V400H580C580 372.386 602.386 350 630 350ZM630.2 349.8H630C602.32 349.8 579.8 372.32 579.8 400V400.2H630.2V349.8Z" fill="white"/>
<path d="M679.899 400.1V400C679.899 372.375 702.374 349.9 729.999 349.9H730.099V400.1H679.899Z" fill="white"/>
<path d="M730 350V400H680C680 372.386 702.386 350 730 350ZM730.2 349.8H730C702.32 349.8 679.8 372.32 679.8 400V400.2H730.2V349.8Z" fill="white"/>
<path d="M629.899 350.1V299.9H680.098V300C680.098 327.625 657.623 350.1 629.998 350.1H629.898H629.899Z" fill="white"/>
<path d="M680 300C680 327.614 657.614 350 630 350V300H680ZM680.2 299.8H629.8V350.2H630C657.68 350.2 680.2 327.68 680.2 300V299.8Z" fill="white"/>
<path d="M779.9 400.1V400C779.9 372.375 802.375 349.9 830 349.9H830.1V400.1H779.9Z" fill="white"/>
<path d="M830.001 350V400H780.001C780.001 372.386 802.387 350 830.001 350ZM830.201 349.8H830.001C802.321 349.8 779.801 372.32 779.801 400V400.2H830.201V349.8Z" fill="white"/>
<path d="M879.9 200.1V200C879.9 172.375 902.375 149.9 930 149.9H930.1V200.1H879.9Z" fill="white"/>
<path d="M930.001 150V200H880.001C880.001 172.386 902.387 150 930.001 150ZM930.201 149.8H930.001C902.321 149.8 879.801 172.32 879.801 200V200.2H930.201V149.8Z" fill="white"/>
<path d="M829.901 150.1V99.9001H880.1V100C880.1 127.625 857.625 150.1 830 150.1H829.9H829.901Z" fill="white"/>
<path d="M880.001 100C880.001 127.614 857.615 150 830.001 150V100H880.001ZM880.201 99.8H829.801V150.2H830.001C857.681 150.2 880.201 127.68 880.201 100V99.8Z" fill="white"/>
<path d="M979.9 300.1V300C979.9 272.375 1002.38 249.9 1030 249.9H1030.1V300.1H979.9Z" fill="white"/>
<path d="M1030 250V300H980.001C980.001 272.386 1002.39 250 1030 250ZM1030.2 249.8H1030C1002.32 249.8 979.801 272.32 979.801 300V300.2H1030.2V249.8Z" fill="white"/>
<path d="M929.901 250.1V199.9H980.1V200C980.1 227.625 957.625 250.1 930 250.1H929.9H929.901Z" fill="white"/>
<path d="M980.001 200C980.001 227.614 957.615 250 930.001 250V200H980.001ZM980.201 199.8H929.801V250.2H930.001C957.681 250.2 980.201 227.68 980.201 200V199.8Z" fill="white"/>
<path d="M879.9 400.1V400C879.9 372.375 902.375 349.9 930 349.9H930.1V400.1H879.9Z" fill="white"/>
<path d="M930.001 350V400H880.001C880.001 372.386 902.387 350 930.001 350ZM930.201 349.8H930.001C902.321 349.8 879.801 372.32 879.801 400V400.2H930.201V349.8Z" fill="white"/>
<path d="M979.9 400.1V400C979.9 372.375 1002.38 349.9 1030 349.9H1030.1V400.1H979.9Z" fill="white"/>
<path d="M1030 350V400H980.001C980.001 372.386 1002.39 350 1030 350ZM1030.2 349.8H1030C1002.32 349.8 979.801 372.32 979.801 400V400.2H1030.2V349.8Z" fill="white"/>
<path d="M1029.9 350.1V299.9H1080.1V300C1080.1 327.625 1057.63 350.1 1030 350.1H1029.9Z" fill="white"/>
<path d="M1080 300C1080 327.614 1057.61 350 1030 350V300H1080ZM1080.2 299.8H1029.8V350.2H1030C1057.68 350.2 1080.2 327.68 1080.2 300V299.8Z" fill="white"/>
<path d="M579.9 600C579.9 572.485 557.514 550.1 530 550.1V549.901C557.515 549.901 579.9 527.515 579.9 500.001H580.099C580.099 527.516 602.485 549.901 629.999 549.901V550.1C602.484 550.1 580.099 572.486 580.099 600H579.9Z" fill="#A54AFF"/>
<path d="M580 500C580 527.614 602.386 550 630 550C602.386 550 580 572.386 580 600C580 572.386 557.614 550 530 550C557.614 550 580 527.614 580 500ZM580.2 500H579.8C579.8 527.46 557.46 549.8 530 549.8V550.2C557.46 550.2 579.8 572.54 579.8 600H580.2C580.2 572.54 602.54 550.2 630 550.2V549.8C602.54 549.8 580.2 527.46 580.2 500Z" fill="#A54AFF"/>
<path d="M629.999 550.1C602.374 550.1 579.899 527.625 579.899 500V499.9H630.098V550.099H629.998L629.999 550.1Z" fill="#A54AFF"/>
<path d="M630 500V550C602.386 550 580 527.614 580 500H630ZM630.2 499.8H579.8V500C579.8 527.68 602.32 550.2 630 550.2H630.2V499.8Z" fill="#A54AFF"/>
<path d="M679.9 600C679.9 572.485 657.514 550.1 630 550.1V549.901C657.515 549.901 679.9 527.515 679.9 500.001H680.099C680.099 527.516 702.485 549.901 729.999 549.901V550.1C702.484 550.1 680.099 572.486 680.099 600H679.9Z" fill="#A54AFF"/>
<path d="M680 500C680 527.614 702.386 550 730 550C702.386 550 680 572.386 680 600C680 572.386 657.614 550 630 550C657.614 550 680 527.614 680 500ZM680.2 500H679.8C679.8 527.46 657.46 549.8 630 549.8V550.2C657.46 550.2 679.8 572.54 679.8 600H680.2C680.2 572.54 702.54 550.2 730 550.2V549.8C702.54 549.8 680.2 527.46 680.2 500Z" fill="#A54AFF"/>
<path d="M629.899 600.1V549.901H629.999C657.624 549.901 680.099 572.376 680.099 600.001V600.101H629.9L629.899 600.1Z" fill="#A54AFF"/>
<path d="M630 550C657.614 550 680 572.386 680 600H630V550ZM630 549.8H629.8V600.2H680.2V600C680.2 572.32 657.68 549.8 630 549.8Z" fill="#A54AFF"/>
<path d="M579.9 500C579.9 472.485 557.514 450.1 530 450.1V449.901C557.515 449.901 579.9 427.515 579.9 400.001H580.099C580.099 427.516 602.485 449.901 629.999 449.901V450.1C602.484 450.1 580.099 472.486 580.099 500H579.9Z" fill="#A54AFF"/>
<path d="M580 400C580 427.614 602.386 450 630 450C602.386 450 580 472.386 580 500C580 472.386 557.614 450 530 450C557.614 450 580 427.614 580 400ZM580.2 400H579.8C579.8 427.46 557.46 449.8 530 449.8V450.2C557.46 450.2 579.8 472.54 579.8 500H580.2C580.2 472.54 602.54 450.2 630 450.2V449.8C602.54 449.8 580.2 427.46 580.2 400Z" fill="#A54AFF"/>
<path d="M629.999 450.1C602.374 450.1 579.899 427.625 579.899 400V399.9H630.098V450.099H629.998L629.999 450.1Z" fill="#A54AFF"/>
<path d="M630 400V450C602.386 450 580 427.614 580 400H630ZM630.2 399.8H579.8V400C579.8 427.68 602.32 450.2 630 450.2H630.2V399.8Z" fill="#A54AFF"/>
<path d="M679.9 500C679.9 472.485 657.514 450.1 630 450.1V449.901C657.515 449.901 679.9 427.515 679.9 400.001H680.099C680.099 427.516 702.485 449.901 729.999 449.901V450.1C702.484 450.1 680.099 472.486 680.099 500H679.9Z" fill="#A54AFF"/>
<path d="M680 400C680 427.614 702.386 450 730 450C702.386 450 680 472.386 680 500C680 472.386 657.614 450 630 450C657.614 450 680 427.614 680 400ZM680.2 400H679.8C679.8 427.46 657.46 449.8 630 449.8V450.2C657.46 450.2 679.8 472.54 679.8 500H680.2C680.2 472.54 702.54 450.2 730 450.2V449.8C702.54 449.8 680.2 427.46 680.2 400Z" fill="#A54AFF"/>
<path d="M729.999 450.1C702.374 450.1 679.899 427.625 679.899 400V399.9H730.098V450.099H729.998L729.999 450.1Z" fill="#A54AFF"/>
<path d="M730 400V450C702.386 450 680 427.614 680 400H730ZM730.2 399.8H679.8V400C679.8 427.68 702.32 450.2 730 450.2H730.2V399.8Z" fill="#A54AFF"/>
<path d="M629.899 500.1V449.901H629.999C657.624 449.901 680.099 472.376 680.099 500.001V500.101H629.9L629.899 500.1Z" fill="#A54AFF"/>
<path d="M630 450C657.614 450 680 472.386 680 500H630V450ZM630 449.8H629.8V500.2H680.2V500C680.2 472.32 657.68 449.8 630 449.8Z" fill="#A54AFF"/>
<path d="M779.9 500C779.9 472.485 757.514 450.1 730 450.1V449.901C757.515 449.901 779.9 427.515 779.9 400.001H780.099C780.099 427.516 802.485 449.901 829.999 449.901V450.1C802.484 450.1 780.099 472.486 780.099 500H779.9Z" fill="#A54AFF"/>
<path d="M780 400C780 427.614 802.386 450 830 450C802.386 450 780 472.386 780 500C780 472.386 757.614 450 730 450C757.614 450 780 427.614 780 400ZM780.2 400H779.8C779.8 427.46 757.46 449.8 730 449.8V450.2C757.46 450.2 779.8 472.54 779.8 500H780.2C780.2 472.54 802.54 450.2 830 450.2V449.8C802.54 449.8 780.2 427.46 780.2 400Z" fill="#A54AFF"/>
<path d="M830 450.1C802.375 450.1 779.9 427.625 779.9 400V399.9H830.099V450.099H829.999L830 450.1Z" fill="#A54AFF"/>
<path d="M830.001 400V450C802.387 450 780.001 427.614 780.001 400H830.001ZM830.201 399.8H779.801V400C779.801 427.68 802.321 450.2 830.001 450.2H830.201V399.8Z" fill="#A54AFF"/>
<path d="M579.9 700C579.9 672.485 557.514 650.1 530 650.1V649.901C557.515 649.901 579.9 627.515 579.9 600.001H580.099C580.099 627.516 602.485 649.901 629.999 649.901V650.1C602.484 650.1 580.099 672.486 580.099 700H579.9Z" fill="#A54AFF"/>
<path d="M580 600C580 627.614 602.386 650 630 650C602.386 650 580 672.386 580 700C580 672.386 557.614 650 530 650C557.614 650 580 627.614 580 600ZM580.2 600H579.8C579.8 627.46 557.46 649.8 530 649.8V650.2C557.46 650.2 579.8 672.54 579.8 700H580.2C580.2 672.54 602.54 650.2 630 650.2V649.8C602.54 649.8 580.2 627.46 580.2 600Z" fill="#A54AFF"/>
<path d="M629.999 650.1C602.374 650.1 579.899 627.625 579.899 600V599.9H630.098V650.099H629.998L629.999 650.1Z" fill="#A54AFF"/>
<path d="M630 600V650C602.386 650 580 627.614 580 600H630ZM630.2 599.8H579.8V600C579.8 627.68 602.32 650.2 630 650.2H630.2V599.8Z" fill="#A54AFF"/>
<path d="M679.9 700C679.9 672.485 657.514 650.1 630 650.1V649.901C657.515 649.901 679.9 627.515 679.9 600.001H680.099C680.099 627.516 702.485 649.901 729.999 649.901V650.1C702.484 650.1 680.099 672.486 680.099 700H679.9Z" fill="#A54AFF"/>
<path d="M680 600C680 627.614 702.386 650 730 650C702.386 650 680 672.386 680 700C680 672.386 657.614 650 630 650C657.614 650 680 627.614 680 600ZM680.2 600H679.8C679.8 627.46 657.46 649.8 630 649.8V650.2C657.46 650.2 679.8 672.54 679.8 700H680.2C680.2 672.54 702.54 650.2 730 650.2V649.8C702.54 649.8 680.2 627.46 680.2 600Z" fill="#A54AFF"/>
<path d="M629.899 700.1V649.901H629.999C657.624 649.901 680.099 672.376 680.099 700.001V700.101H629.9L629.899 700.1Z" fill="#A54AFF"/>
<path d="M630 650C657.614 650 680 672.386 680 700H630V650ZM630 649.8H629.8V700.2H680.2V700C680.2 672.32 657.68 649.8 630 649.8Z" fill="#A54AFF"/>
<path d="M579.9 800C579.9 772.485 557.514 750.1 530 750.1V749.901C557.515 749.901 579.9 727.515 579.9 700.001H580.099C580.099 727.516 602.485 749.901 629.999 749.901V750.1C602.484 750.1 580.099 772.486 580.099 800H579.9Z" fill="#A54AFF"/>
<path d="M580 700C580 727.614 602.386 750 630 750C602.386 750 580 772.386 580 800C580 772.386 557.614 750 530 750C557.614 750 580 727.614 580 700ZM580.2 700H579.8C579.8 727.46 557.46 749.8 530 749.8V750.2C557.46 750.2 579.8 772.54 579.8 800H580.2C580.2 772.54 602.54 750.2 630 750.2V749.8C602.54 749.8 580.2 727.46 580.2 700Z" fill="#A54AFF"/>
<path d="M629.999 750.1C602.374 750.1 579.899 727.625 579.899 700V699.9H630.098V750.099H629.998L629.999 750.1Z" fill="#A54AFF"/>
<path d="M630 700V750C602.386 750 580 727.614 580 700H630ZM630.2 699.8H579.8V700C579.8 727.68 602.32 750.2 630 750.2H630.2V699.8Z" fill="#A54AFF"/>
<path d="M629.899 750.1V699.901H680.098V700.001C680.098 727.626 657.623 750.101 629.998 750.101H629.898L629.899 750.1Z" fill="white"/>
<path d="M680 700C680 727.614 657.614 750 630 750V700H680ZM680.2 699.8H629.8V750.2H630C657.68 750.2 680.2 727.68 680.2 700V699.8Z" fill="white"/>
<path d="M679.9 800C679.9 772.485 657.514 750.1 630 750.1V749.901C657.515 749.901 679.9 727.515 679.9 700.001H680.099C680.099 727.516 702.485 749.901 729.999 749.901V750.1C702.484 750.1 680.099 772.486 680.099 800H679.9Z" fill="#A54AFF"/>
<path d="M680 700C680 727.614 702.386 750 730 750C702.386 750 680 772.386 680 800C680 772.386 657.614 750 630 750C657.614 750 680 727.614 680 700ZM680.2 700H679.8C679.8 727.46 657.46 749.8 630 749.8V750.2C657.46 750.2 679.8 772.54 679.8 800H680.2C680.2 772.54 702.54 750.2 730 750.2V749.8C702.54 749.8 680.2 727.46 680.2 700Z" fill="#A54AFF"/>
<path d="M979.9 600C979.9 572.485 957.514 550.1 930 550.1V549.901C957.515 549.901 979.9 527.515 979.9 500.001H980.099C980.099 527.516 1002.49 549.901 1030 549.901V550.1C1002.48 550.1 980.099 572.486 980.099 600H979.9Z" fill="#A54AFF"/>
<path d="M980 500C980 527.614 1002.39 550 1030 550C1002.39 550 980 572.386 980 600C980 572.386 957.614 550 930 550C957.614 550 980 527.614 980 500ZM980.2 500H979.8C979.8 527.46 957.46 549.8 930 549.8V550.2C957.46 550.2 979.8 572.54 979.8 600H980.2C980.2 572.54 1002.54 550.2 1030 550.2V549.8C1002.54 549.8 980.2 527.46 980.2 500Z" fill="#A54AFF"/>
<path d="M1030 550.1C1002.38 550.1 979.9 527.625 979.9 500V499.9H1030.1V550.099H1030L1030 550.1Z" fill="#A54AFF"/>
<path d="M1030 500V550C1002.39 550 980.001 527.614 980.001 500H1030ZM1030.2 499.8H979.801V500C979.801 527.68 1002.32 550.2 1030 550.2H1030.2V499.8Z" fill="#A54AFF"/>
<path d="M1079.9 600C1079.9 572.485 1057.51 550.1 1030 550.1V549.901C1057.51 549.901 1079.9 527.515 1079.9 500.001H1080.1C1080.1 527.516 1102.49 549.901 1130 549.901V550.1C1102.48 550.1 1080.1 572.486 1080.1 600H1079.9Z" fill="#A54AFF"/>
<path d="M1080 500C1080 527.614 1102.39 550 1130 550C1102.39 550 1080 572.386 1080 600C1080 572.386 1057.61 550 1030 550C1057.61 550 1080 527.614 1080 500ZM1080.2 500H1079.8C1079.8 527.46 1057.46 549.8 1030 549.8V550.2C1057.46 550.2 1079.8 572.54 1079.8 600H1080.2C1080.2 572.54 1102.54 550.2 1130 550.2V549.8C1102.54 549.8 1080.2 527.46 1080.2 500Z" fill="#A54AFF"/>
<path d="M1029.9 600.1V549.901H1030C1057.63 549.901 1080.1 572.376 1080.1 600.001V600.101H1029.9L1029.9 600.1Z" fill="#A54AFF"/>
<path d="M1030 550C1057.61 550 1080 572.386 1080 600H1030V550ZM1030 549.8H1029.8V600.2H1080.2V600C1080.2 572.32 1057.68 549.8 1030 549.8Z" fill="#A54AFF"/>
<path d="M879.9 500C879.9 472.485 857.514 450.1 830 450.1V449.901C857.515 449.901 879.9 427.515 879.9 400.001H880.099C880.099 427.516 902.485 449.901 929.999 449.901V450.1C902.484 450.1 880.099 472.486 880.099 500H879.9Z" fill="#A54AFF"/>
<path d="M880 400C880 427.614 902.386 450 930 450C902.386 450 880 472.386 880 500C880 472.386 857.614 450 830 450C857.614 450 880 427.614 880 400ZM880.2 400H879.8C879.8 427.46 857.46 449.8 830 449.8V450.2C857.46 450.2 879.8 472.54 879.8 500H880.2C880.2 472.54 902.54 450.2 930 450.2V449.8C902.54 449.8 880.2 427.46 880.2 400Z" fill="#A54AFF"/>
<path d="M930 450.1C902.375 450.1 879.9 427.625 879.9 400V399.9H930.099V450.099H929.999L930 450.1Z" fill="#A54AFF"/>
<path d="M930.001 400V450C902.387 450 880.001 427.614 880.001 400H930.001ZM930.201 399.8H879.801V400C879.801 427.68 902.321 450.2 930.001 450.2H930.201V399.8Z" fill="#A54AFF"/>
<path d="M979.9 500C979.9 472.485 957.514 450.1 930 450.1V449.901C957.515 449.901 979.9 427.515 979.9 400.001H980.099C980.099 427.516 1002.49 449.901 1030 449.901V450.1C1002.48 450.1 980.099 472.486 980.099 500H979.9Z" fill="#A54AFF"/>
<path d="M980 400C980 427.614 1002.39 450 1030 450C1002.39 450 980 472.386 980 500C980 472.386 957.614 450 930 450C957.614 450 980 427.614 980 400ZM980.2 400H979.8C979.8 427.46 957.46 449.8 930 449.8V450.2C957.46 450.2 979.8 472.54 979.8 500H980.2C980.2 472.54 1002.54 450.2 1030 450.2V449.8C1002.54 449.8 980.2 427.46 980.2 400Z" fill="#A54AFF"/>
<path d="M1030 450.1C1002.38 450.1 979.9 427.625 979.9 400V399.9H1030.1V450.099H1030L1030 450.1Z" fill="#A54AFF"/>
<path d="M1030 400V450C1002.39 450 980.001 427.614 980.001 400H1030ZM1030.2 399.8H979.801V400C979.801 427.68 1002.32 450.2 1030 450.2H1030.2V399.8Z" fill="#A54AFF"/>
<path d="M1079.9 500C1079.9 472.485 1057.51 450.1 1030 450.1V449.901C1057.51 449.901 1079.9 427.515 1079.9 400.001H1080.1C1080.1 427.516 1102.49 449.901 1130 449.901V450.1C1102.48 450.1 1080.1 472.486 1080.1 500H1079.9Z" fill="#A54AFF"/>
<path d="M1080 400C1080 427.614 1102.39 450 1130 450C1102.39 450 1080 472.386 1080 500C1080 472.386 1057.61 450 1030 450C1057.61 450 1080 427.614 1080 400ZM1080.2 400H1079.8C1079.8 427.46 1057.46 449.8 1030 449.8V450.2C1057.46 450.2 1079.8 472.54 1079.8 500H1080.2C1080.2 472.54 1102.54 450.2 1130 450.2V449.8C1102.54 449.8 1080.2 427.46 1080.2 400Z" fill="#A54AFF"/>
<path d="M1029.9 500.1V449.901H1030C1057.63 449.901 1080.1 472.376 1080.1 500.001V500.101H1029.9L1029.9 500.1Z" fill="#A54AFF"/>
<path d="M1030 450C1057.61 450 1080 472.386 1080 500H1030V450ZM1030 449.8H1029.8V500.2H1080.2V500C1080.2 472.32 1057.68 449.8 1030 449.8Z" fill="#A54AFF"/>
<path d="M979.9 700C979.9 672.485 957.514 650.1 930 650.1V649.901C957.515 649.901 979.9 627.515 979.9 600.001H980.099C980.099 627.516 1002.49 649.901 1030 649.901V650.1C1002.48 650.1 980.099 672.486 980.099 700H979.9Z" fill="#A54AFF"/>
<path d="M980 600C980 627.614 1002.39 650 1030 650C1002.39 650 980 672.386 980 700C980 672.386 957.614 650 930 650C957.614 650 980 627.614 980 600ZM980.2 600H979.8C979.8 627.46 957.46 649.8 930 649.8V650.2C957.46 650.2 979.8 672.54 979.8 700H980.2C980.2 672.54 1002.54 650.2 1030 650.2V649.8C1002.54 649.8 980.2 627.46 980.2 600Z" fill="#A54AFF"/>
<path d="M1030 650.1C1002.38 650.1 979.9 627.625 979.9 600V599.9H1030.1V650.099H1030L1030 650.1Z" fill="#A54AFF"/>
<path d="M1030 600V650C1002.39 650 980.001 627.614 980.001 600H1030ZM1030.2 599.8H979.801V600C979.801 627.68 1002.32 650.2 1030 650.2H1030.2V599.8Z" fill="#A54AFF"/>
<path d="M1079.9 700C1079.9 672.485 1057.51 650.1 1030 650.1V649.901C1057.51 649.901 1079.9 627.515 1079.9 600.001H1080.1C1080.1 627.516 1102.49 649.901 1130 649.901V650.1C1102.48 650.1 1080.1 672.486 1080.1 700H1079.9Z" fill="#A54AFF"/>
<path d="M1080 600C1080 627.614 1102.39 650 1130 650C1102.39 650 1080 672.386 1080 700C1080 672.386 1057.61 650 1030 650C1057.61 650 1080 627.614 1080 600ZM1080.2 600H1079.8C1079.8 627.46 1057.46 649.8 1030 649.8V650.2C1057.46 650.2 1079.8 672.54 1079.8 700H1080.2C1080.2 672.54 1102.54 650.2 1130 650.2V649.8C1102.54 649.8 1080.2 627.46 1080.2 600Z" fill="#A54AFF"/>
<path d="M1029.9 700.1V649.901H1030C1057.63 649.901 1080.1 672.376 1080.1 700.001V700.101H1029.9L1029.9 700.1Z" fill="#A54AFF"/>
<path d="M1030 650C1057.61 650 1080 672.386 1080 700H1030V650ZM1030 649.8H1029.8V700.2H1080.2V700C1080.2 672.32 1057.68 649.8 1030 649.8Z" fill="#A54AFF"/>
<path d="M979.9 800C979.9 772.485 957.514 750.1 930 750.1V749.901C957.515 749.901 979.9 727.515 979.9 700.001H980.099C980.099 727.516 1002.49 749.901 1030 749.901V750.1C1002.48 750.1 980.099 772.486 980.099 800H979.9Z" fill="#A54AFF"/>
<path d="M980 700C980 727.614 1002.39 750 1030 750C1002.39 750 980 772.386 980 800C980 772.386 957.614 750 930 750C957.614 750 980 727.614 980 700ZM980.2 700H979.8C979.8 727.46 957.46 749.8 930 749.8V750.2C957.46 750.2 979.8 772.54 979.8 800H980.2C980.2 772.54 1002.54 750.2 1030 750.2V749.8C1002.54 749.8 980.2 727.46 980.2 700Z" fill="#A54AFF"/>
<path d="M1030 750.1C1002.38 750.1 979.9 727.625 979.9 700V699.9H1030.1V750.099H1030L1030 750.1Z" fill="#A54AFF"/>
<path d="M1030 700V750C1002.39 750 980.001 727.614 980.001 700H1030ZM1030.2 699.8H979.801V700C979.801 727.68 1002.32 750.2 1030 750.2H1030.2V699.8Z" fill="#A54AFF"/>
<path d="M1079.9 800C1079.9 772.485 1057.51 750.1 1030 750.1V749.901C1057.51 749.901 1079.9 727.515 1079.9 700.001H1080.1C1080.1 727.516 1102.49 749.901 1130 749.901V750.1C1102.48 750.1 1080.1 772.486 1080.1 800H1079.9Z" fill="#A54AFF"/>
<path d="M1080 700C1080 727.614 1102.39 750 1130 750C1102.39 750 1080 772.386 1080 800C1080 772.386 1057.61 750 1030 750C1057.61 750 1080 727.614 1080 700ZM1080.2 700H1079.8C1079.8 727.46 1057.46 749.8 1030 749.8V750.2C1057.46 750.2 1079.8 772.54 1079.8 800H1080.2C1080.2 772.54 1102.54 750.2 1130 750.2V749.8C1102.54 749.8 1080.2 727.46 1080.2 700Z" fill="#A54AFF"/>
<path d="M679.9 200C679.9 172.485 657.514 150.1 630 150.1V149.9C657.515 149.9 679.9 127.515 679.9 100H680.099C680.099 127.515 702.485 149.9 729.999 149.9V150.1C702.484 150.1 680.099 172.485 680.099 200H679.9Z" fill="#A54AFF"/>
<path d="M680 100C680 127.614 702.386 150 730 150C702.386 150 680 172.386 680 200C680 172.386 657.614 150 630 150C657.614 150 680 127.614 680 100ZM680.2 100H679.8C679.8 127.46 657.46 149.8 630 149.8V150.2C657.46 150.2 679.8 172.54 679.8 200H680.2C680.2 172.54 702.54 150.2 730 150.2V149.8C702.54 149.8 680.2 127.46 680.2 100Z" fill="#A54AFF"/>
<path d="M779.9 200C779.9 172.485 757.514 150.1 730 150.1V149.9C757.515 149.9 779.9 127.515 779.9 100H780.099C780.099 127.515 802.485 149.9 829.999 149.9V150.1C802.484 150.1 780.099 172.485 780.099 200H779.9Z" fill="#A54AFF"/>
<path d="M780 100C780 127.614 802.386 150 830 150C802.386 150 780 172.386 780 200C780 172.386 757.614 150 730 150C757.614 150 780 127.614 780 100ZM780.2 100H779.8C779.8 127.46 757.46 149.8 730 149.8V150.2C757.46 150.2 779.8 172.54 779.8 200H780.2C780.2 172.54 802.54 150.2 830 150.2V149.8C802.54 149.8 780.2 127.46 780.2 100Z" fill="#A54AFF"/>
<path d="M830 150.1C802.375 150.1 779.9 127.625 779.9 100V99.9001H830.099V150.1H830Z" fill="#A54AFF"/>
<path d="M830.001 100V150C802.387 150 780.001 127.614 780.001 100H830.001ZM830.201 99.8H779.801V100C779.801 127.68 802.321 150.2 830.001 150.2H830.201V99.8Z" fill="#A54AFF"/>
<path d="M729.9 200.1V149.9H730C757.625 149.9 780.1 172.375 780.1 200V200.1H729.9Z" fill="#A54AFF"/>
<path d="M730.001 150C757.615 150 780.001 172.386 780.001 200H730.001V150ZM730.001 149.8H729.801V200.2H780.201V200C780.201 172.32 757.681 149.8 730.001 149.8Z" fill="#A54AFF"/>
<path d="M779.9 100C779.9 72.485 757.514 50.1 730 50.1V49.9C757.515 49.9 779.9 27.515 779.9 0H780.099C780.099 27.515 802.485 49.9 829.999 49.9V50.1C802.484 50.1 780.099 72.485 780.099 100H779.9Z" fill="#A54AFF"/>
<path d="M780 0C780 27.614 802.386 50 830 50C802.386 50 780 72.386 780 100C780 72.386 757.614 50 730 50C757.614 50 780 27.614 780 0ZM780.2 0H779.8C779.8 27.46 757.46 49.8 730 49.8V50.2C757.46 50.2 779.8 72.54 779.8 100H780.2C780.2 72.54 802.54 50.2 830 50.2V49.8C802.54 49.8 780.2 27.46 780.2 0Z" fill="#A54AFF"/>
<path d="M579.9 300C579.9 272.485 557.514 250.1 530 250.1V249.9C557.515 249.9 579.9 227.515 579.9 200H580.099C580.099 227.515 602.485 249.9 629.999 249.9V250.1C602.484 250.1 580.099 272.485 580.099 300H579.9Z" fill="#A54AFF"/>
<path d="M580 200C580 227.614 602.386 250 630 250C602.386 250 580 272.386 580 300C580 272.386 557.614 250 530 250C557.614 250 580 227.614 580 200ZM580.2 200H579.8C579.8 227.46 557.46 249.8 530 249.8V250.2C557.46 250.2 579.8 272.54 579.8 300H580.2C580.2 272.54 602.54 250.2 630 250.2V249.8C602.54 249.8 580.2 227.46 580.2 200Z" fill="#A54AFF"/>
<path d="M679.9 300C679.9 272.485 657.514 250.1 630 250.1V249.9C657.515 249.9 679.9 227.515 679.9 200H680.099C680.099 227.515 702.485 249.9 729.999 249.9V250.1C702.484 250.1 680.099 272.485 680.099 300H679.9Z" fill="#A54AFF"/>
<path d="M680 200C680 227.614 702.386 250 730 250C702.386 250 680 272.386 680 300C680 272.386 657.614 250 630 250C657.614 250 680 227.614 680 200ZM680.2 200H679.8C679.8 227.46 657.46 249.8 630 249.8V250.2C657.46 250.2 679.8 272.54 679.8 300H680.2C680.2 272.54 702.54 250.2 730 250.2V249.8C702.54 249.8 680.2 227.46 680.2 200Z" fill="#A54AFF"/>
<path d="M729.999 250.1C702.374 250.1 679.899 227.625 679.899 200V199.9H730.098V250.1H729.999Z" fill="#A54AFF"/>
<path d="M730 200V250C702.386 250 680 227.614 680 200H730ZM730.2 199.8H679.8V200C679.8 227.68 702.32 250.2 730 250.2H730.2V199.8Z" fill="#A54AFF"/>
<path d="M629.899 300.1V249.9H629.999C657.624 249.9 680.099 272.375 680.099 300V300.1H629.899Z" fill="#A54AFF"/>
<path d="M630 250C657.614 250 680 272.386 680 300H630V250ZM630 249.8H629.8V300.2H680.2V300C680.2 272.32 657.68 249.8 630 249.8Z" fill="#A54AFF"/>
<path d="M779.9 300C779.9 272.485 757.514 250.1 730 250.1V249.9C757.515 249.9 779.9 227.515 779.9 200H780.099C780.099 227.515 802.485 249.9 829.999 249.9V250.1C802.484 250.1 780.099 272.485 780.099 300H779.9Z" fill="#A54AFF"/>
<path d="M780 200C780 227.614 802.386 250 830 250C802.386 250 780 272.386 780 300C780 272.386 757.614 250 730 250C757.614 250 780 227.614 780 200ZM780.2 200H779.8C779.8 227.46 757.46 249.8 730 249.8V250.2C757.46 250.2 779.8 272.54 779.8 300H780.2C780.2 272.54 802.54 250.2 830 250.2V249.8C802.54 249.8 780.2 227.46 780.2 200Z" fill="#A54AFF"/>
<path d="M579.9 400C579.9 372.485 557.514 350.1 530 350.1V349.9C557.515 349.9 579.9 327.515 579.9 300H580.099C580.099 327.515 602.485 349.9 629.999 349.9V350.1C602.484 350.1 580.099 372.485 580.099 400H579.9Z" fill="#A54AFF"/>
<path d="M580 300C580 327.614 602.386 350 630 350C602.386 350 580 372.386 580 400C580 372.386 557.614 350 530 350C557.614 350 580 327.614 580 300ZM580.2 300H579.8C579.8 327.46 557.46 349.8 530 349.8V350.2C557.46 350.2 579.8 372.54 579.8 400H580.2C580.2 372.54 602.54 350.2 630 350.2V349.8C602.54 349.8 580.2 327.46 580.2 300Z" fill="#A54AFF"/>
<path d="M629.999 350.1C602.374 350.1 579.899 327.625 579.899 300V299.9H630.098V350.1H629.999Z" fill="#A54AFF"/>
<path d="M630 300V350C602.386 350 580 327.614 580 300H630ZM630.2 299.8H579.8V300C579.8 327.68 602.32 350.2 630 350.2H630.2V299.8Z" fill="#A54AFF"/>
<path d="M679.9 400C679.9 372.485 657.514 350.1 630 350.1V349.9C657.515 349.9 679.9 327.515 679.9 300H680.099C680.099 327.515 702.485 349.9 729.999 349.9V350.1C702.484 350.1 680.099 372.485 680.099 400H679.9Z" fill="#A54AFF"/>
<path d="M680 300C680 327.614 702.386 350 730 350C702.386 350 680 372.386 680 400C680 372.386 657.614 350 630 350C657.614 350 680 327.614 680 300ZM680.2 300H679.8C679.8 327.46 657.46 349.8 630 349.8V350.2C657.46 350.2 679.8 372.54 679.8 400H680.2C680.2 372.54 702.54 350.2 730 350.2V349.8C702.54 349.8 680.2 327.46 680.2 300Z" fill="#A54AFF"/>
<path d="M629.899 400.1V349.9H629.999C657.624 349.9 680.099 372.375 680.099 400V400.1H629.899Z" fill="#A54AFF"/>
<path d="M630 350C657.614 350 680 372.386 680 400H630V350ZM630 349.8H629.8V400.2H680.2V400C680.2 372.32 657.68 349.8 630 349.8Z" fill="#A54AFF"/>
<path d="M779.9 400C779.9 372.485 757.514 350.1 730 350.1V349.9C757.515 349.9 779.9 327.515 779.9 300H780.099C780.099 327.515 802.485 349.9 829.999 349.9V350.1C802.484 350.1 780.099 372.485 780.099 400H779.9Z" fill="#A54AFF"/>
<path d="M780 300C780 327.614 802.386 350 830 350C802.386 350 780 372.386 780 400C780 372.386 757.614 350 730 350C757.614 350 780 327.614 780 300ZM780.2 300H779.8C779.8 327.46 757.46 349.8 730 349.8V350.2C757.46 350.2 779.8 372.54 779.8 400H780.2C780.2 372.54 802.54 350.2 830 350.2V349.8C802.54 349.8 780.2 327.46 780.2 300Z" fill="#A54AFF"/>
<path d="M729.9 400.1V349.9H730C757.625 349.9 780.1 372.375 780.1 400V400.1H729.9Z" fill="#A54AFF"/>
<path d="M730.001 350C757.615 350 780.001 372.386 780.001 400H730.001V350ZM730.001 349.8H729.801V400.2H780.201V400C780.201 372.32 757.681 349.8 730.001 349.8Z" fill="#A54AFF"/>
<path d="M879.9 200C879.9 172.485 857.514 150.1 830 150.1V149.9C857.515 149.9 879.9 127.515 879.9 100H880.099C880.099 127.515 902.485 149.9 929.999 149.9V150.1C902.484 150.1 880.099 172.485 880.099 200H879.9Z" fill="#A54AFF"/>
<path d="M880 100C880 127.614 902.386 150 930 150C902.386 150 880 172.386 880 200C880 172.386 857.614 150 830 150C857.614 150 880 127.614 880 100ZM880.2 100H879.8C879.8 127.46 857.46 149.8 830 149.8V150.2C857.46 150.2 879.8 172.54 879.8 200H880.2C880.2 172.54 902.54 150.2 930 150.2V149.8C902.54 149.8 880.2 127.46 880.2 100Z" fill="#A54AFF"/>
<path d="M979.9 200C979.9 172.485 957.514 150.1 930 150.1V149.9C957.515 149.9 979.9 127.515 979.9 100H980.099C980.099 127.515 1002.49 149.9 1030 149.9V150.1C1002.48 150.1 980.099 172.485 980.099 200H979.9Z" fill="#A54AFF"/>
<path d="M980 100C980 127.614 1002.39 150 1030 150C1002.39 150 980 172.386 980 200C980 172.386 957.614 150 930 150C957.614 150 980 127.614 980 100ZM980.2 100H979.8C979.8 127.46 957.46 149.8 930 149.8V150.2C957.46 150.2 979.8 172.54 979.8 200H980.2C980.2 172.54 1002.54 150.2 1030 150.2V149.8C1002.54 149.8 980.2 127.46 980.2 100Z" fill="#A54AFF"/>
<path d="M929.9 200.1V149.9H930C957.625 149.9 980.1 172.375 980.1 200V200.1H929.9Z" fill="#A54AFF"/>
<path d="M930.001 150C957.615 150 980.001 172.386 980.001 200H930.001V150ZM930.001 149.8H929.801V200.2H980.201V200C980.201 172.32 957.681 149.8 930.001 149.8Z" fill="#A54AFF"/>
<path d="M879.9 100C879.9 72.485 857.514 50.1 830 50.1V49.9C857.515 49.9 879.9 27.515 879.9 0H880.099C880.099 27.515 902.485 49.9 929.999 49.9V50.1C902.484 50.1 880.099 72.485 880.099 100H879.9Z" fill="#A54AFF"/>
<path d="M880 0C880 27.614 902.386 50 930 50C902.386 50 880 72.386 880 100C880 72.386 857.614 50 830 50C857.614 50 880 27.614 880 0ZM880.2 0H879.8C879.8 27.46 857.46 49.8 830 49.8V50.2C857.46 50.2 879.8 72.54 879.8 100H880.2C880.2 72.54 902.54 50.2 930 50.2V49.8C902.54 49.8 880.2 27.46 880.2 0Z" fill="#A54AFF"/>
<path d="M829.9 100.1V49.9001H830C857.625 49.9001 880.1 72.3751 880.1 100V100.1H829.9Z" fill="#A54AFF"/>
<path d="M830.001 50C857.615 50 880.001 72.386 880.001 100H830.001V50ZM830.001 49.8H829.801V100.2H880.201V100C880.201 72.32 857.681 49.8 830.001 49.8Z" fill="#A54AFF"/>
<path d="M879.9 300C879.9 272.485 857.514 250.1 830 250.1V249.9C857.515 249.9 879.9 227.515 879.9 200H880.099C880.099 227.515 902.485 249.9 929.999 249.9V250.1C902.484 250.1 880.099 272.485 880.099 300H879.9Z" fill="#A54AFF"/>
<path d="M880 200C880 227.614 902.386 250 930 250C902.386 250 880 272.386 880 300C880 272.386 857.614 250 830 250C857.614 250 880 227.614 880 200ZM880.2 200H879.8C879.8 227.46 857.46 249.8 830 249.8V250.2C857.46 250.2 879.8 272.54 879.8 300H880.2C880.2 272.54 902.54 250.2 930 250.2V249.8C902.54 249.8 880.2 227.46 880.2 200Z" fill="#A54AFF"/>
<path d="M930 250.1C902.375 250.1 879.9 227.625 879.9 200V199.9H930.099V250.1H930Z" fill="#A54AFF"/>
<path d="M930.001 200V250C902.387 250 880.001 227.614 880.001 200H930.001ZM930.201 199.8H879.801V200C879.801 227.68 902.321 250.2 930.001 250.2H930.201V199.8Z" fill="#A54AFF"/>
<path d="M979.9 300C979.9 272.485 957.514 250.1 930 250.1V249.9C957.515 249.9 979.9 227.515 979.9 200H980.099C980.099 227.515 1002.49 249.9 1030 249.9V250.1C1002.48 250.1 980.099 272.485 980.099 300H979.9Z" fill="#A54AFF"/>
<path d="M980 200C980 227.614 1002.39 250 1030 250C1002.39 250 980 272.386 980 300C980 272.386 957.614 250 930 250C957.614 250 980 227.614 980 200ZM980.2 200H979.8C979.8 227.46 957.46 249.8 930 249.8V250.2C957.46 250.2 979.8 272.54 979.8 300H980.2C980.2 272.54 1002.54 250.2 1030 250.2V249.8C1002.54 249.8 980.2 227.46 980.2 200Z" fill="#A54AFF"/>
<path d="M1079.9 300C1079.9 272.485 1057.51 250.1 1030 250.1V249.9C1057.51 249.9 1079.9 227.515 1079.9 200H1080.1C1080.1 227.515 1102.49 249.9 1130 249.9V250.1C1102.48 250.1 1080.1 272.485 1080.1 300H1079.9Z" fill="#A54AFF"/>
<path d="M1080 200C1080 227.614 1102.39 250 1130 250C1102.39 250 1080 272.386 1080 300C1080 272.386 1057.61 250 1030 250C1057.61 250 1080 227.614 1080 200ZM1080.2 200H1079.8C1079.8 227.46 1057.46 249.8 1030 249.8V250.2C1057.46 250.2 1079.8 272.54 1079.8 300H1080.2C1080.2 272.54 1102.54 250.2 1130 250.2V249.8C1102.54 249.8 1080.2 227.46 1080.2 200Z" fill="#A54AFF"/>
<path d="M1029.9 300.1V249.9H1030C1057.63 249.9 1080.1 272.375 1080.1 300V300.1H1029.9Z" fill="#A54AFF"/>
<path d="M1030 250C1057.61 250 1080 272.386 1080 300H1030V250ZM1030 249.8H1029.8V300.2H1080.2V300C1080.2 272.32 1057.68 249.8 1030 249.8Z" fill="#A54AFF"/>
<path d="M879.9 400C879.9 372.485 857.514 350.1 830 350.1V349.9C857.515 349.9 879.9 327.515 879.9 300H880.099C880.099 327.515 902.485 349.9 929.999 349.9V350.1C902.484 350.1 880.099 372.485 880.099 400H879.9Z" fill="#A54AFF"/>
<path d="M880 300C880 327.614 902.386 350 930 350C902.386 350 880 372.386 880 400C880 372.386 857.614 350 830 350C857.614 350 880 327.614 880 300ZM880.2 300H879.8C879.8 327.46 857.46 349.8 830 349.8V350.2C857.46 350.2 879.8 372.54 879.8 400H880.2C880.2 372.54 902.54 350.2 930 350.2V349.8C902.54 349.8 880.2 327.46 880.2 300Z" fill="#A54AFF"/>
<path d="M829.9 400.1V349.9H830C857.625 349.9 880.1 372.375 880.1 400V400.1H829.9Z" fill="#A54AFF"/>
<path d="M830.001 350C857.615 350 880.001 372.386 880.001 400H830.001V350ZM830.001 349.8H829.801V400.2H880.201V400C880.201 372.32 857.681 349.8 830.001 349.8Z" fill="#A54AFF"/>
<path d="M979.9 400C979.9 372.485 957.514 350.1 930 350.1V349.9C957.515 349.9 979.9 327.515 979.9 300H980.099C980.099 327.515 1002.49 349.9 1030 349.9V350.1C1002.48 350.1 980.099 372.485 980.099 400H979.9Z" fill="#A54AFF"/>
<path d="M980 300C980 327.614 1002.39 350 1030 350C1002.39 350 980 372.386 980 400C980 372.386 957.614 350 930 350C957.614 350 980 327.614 980 300ZM980.2 300H979.8C979.8 327.46 957.46 349.8 930 349.8V350.2C957.46 350.2 979.8 372.54 979.8 400H980.2C980.2 372.54 1002.54 350.2 1030 350.2V349.8C1002.54 349.8 980.2 327.46 980.2 300Z" fill="#A54AFF"/>
<path d="M1030 350.1C1002.38 350.1 979.9 327.625 979.9 300V299.9H1030.1V350.1H1030Z" fill="#A54AFF"/>
<path d="M1030 300V350C1002.39 350 980.001 327.614 980.001 300H1030ZM1030.2 299.8H979.801V300C979.801 327.68 1002.32 350.2 1030 350.2H1030.2V299.8Z" fill="#A54AFF"/>
<path d="M929.9 400.1V349.9H930C957.625 349.9 980.1 372.375 980.1 400V400.1H929.9Z" fill="#A54AFF"/>
<path d="M930.001 350C957.615 350 980.001 372.386 980.001 400H930.001V350ZM930.001 349.8H929.801V400.2H980.201V400C980.201 372.32 957.681 349.8 930.001 349.8Z" fill="#A54AFF"/>
<path d="M1079.9 400C1079.9 372.485 1057.51 350.1 1030 350.1V349.9C1057.51 349.9 1079.9 327.515 1079.9 300H1080.1C1080.1 327.515 1102.49 349.9 1130 349.9V350.1C1102.48 350.1 1080.1 372.485 1080.1 400H1079.9Z" fill="#A54AFF"/>
<path d="M1080 300C1080 327.614 1102.39 350 1130 350C1102.39 350 1080 372.386 1080 400C1080 372.386 1057.61 350 1030 350C1057.61 350 1080 327.614 1080 300ZM1080.2 300H1079.8C1079.8 327.46 1057.46 349.8 1030 349.8V350.2C1057.46 350.2 1079.8 372.54 1079.8 400H1080.2C1080.2 372.54 1102.54 350.2 1130 350.2V349.8C1102.54 349.8 1080.2 327.46 1080.2 300Z" fill="#A54AFF"/>
<path d="M1029.9 400.1V349.9H1030C1057.63 349.9 1080.1 372.375 1080.1 400V400.1H1029.9Z" fill="#A54AFF"/>
<path d="M1030 350C1057.61 350 1080 372.386 1080 400H1030V350ZM1030 349.8H1029.8V400.2H1080.2V400C1080.2 372.32 1057.68 349.8 1030 349.8Z" fill="#A54AFF"/>
<path d="M50 50H0V100H50V50Z" fill="#FF1345"/>
<path d="M50 100H0V150H50V100Z" fill="white"/>
<path d="M100 50H50V100H100V50Z" fill="white"/>
<path d="M100 100H50V150H100V100Z" fill="#FF1345"/>
<path d="M150 50H100V100H150V50Z" fill="#FF1345"/>
<path d="M150 100H100V150H150V100Z" fill="white"/>
<path d="M200 50H150V100H200V50Z" fill="white"/>
<path d="M200 100H150V150H200V100Z" fill="#FF1345"/>
<path d="M250 50H200V100H250V50Z" fill="#FF1345"/>
<path d="M250 100H200V150H250V100Z" fill="white"/>
<path d="M300 50H250V100H300V50Z" fill="white"/>
<path d="M300 100H250V150H300V100Z" fill="#FF1345"/>
<path d="M350 50H300V100H350V50Z" fill="#FF1345"/>
<path d="M350 100H300V150H350V100Z" fill="white"/>
<path d="M400 50H350V100H400V50Z" fill="white"/>
<path d="M400 100H350V150H400V100Z" fill="#FF1345"/>
<path d="M50 150H0V200H50V150Z" fill="#FF1345"/>
<path d="M50 200H0V250H50V200Z" fill="white"/>
<path d="M100 150H50V200H100V150Z" fill="white"/>
<path d="M100 200H50V250H100V200Z" fill="#FF1345"/>
<path d="M50 250H0V300H50V250Z" fill="#FF1345"/>
<path d="M50 300H0V350H50V300Z" fill="white"/>
<path d="M100 250H50V300H100V250Z" fill="white"/>
<path d="M100 300H50V350H100V300Z" fill="#FF1345"/>
<path d="M50 350H0V400H50V350Z" fill="#FF1345"/>
<path d="M50 400H0V450H50V400Z" fill="white"/>
<path d="M100 350H50V400H100V350Z" fill="white"/>
<path d="M100 400H50V450H100V400Z" fill="#FF1345"/>
<path d="M50 450H0V500H50V450Z" fill="#FF1345"/>
<path d="M50 500H0V550H50V500Z" fill="white"/>
<path d="M100 450H50V500H100V450Z" fill="white"/>
<path d="M100 500H50V550H100V500Z" fill="#FF1345"/>
<path d="M50 550H0V600H50V550Z" fill="#FF1345"/>
<path d="M50 600H0V650H50V600Z" fill="white"/>
<path d="M100 550H50V600H100V550Z" fill="white"/>
<path d="M100 600H50V650H100V600Z" fill="#FF1345"/>
<path d="M50 650H0V700H50V650Z" fill="#FF1345"/>
<path d="M50 700H0V750H50V700Z" fill="white"/>
<path d="M100 650H50V700H100V650Z" fill="white"/>
<path d="M100 700H50V750H100V700Z" fill="#FF1345"/>
<path d="M150 650H100V700H150V650Z" fill="#FF1345"/>
<path d="M150 700H100V750H150V700Z" fill="white"/>
<path d="M200 650H150V700H200V650Z" fill="white"/>
<path d="M200 700H150V750H200V700Z" fill="#FF1345"/>
<path d="M250 650H200V700H250V650Z" fill="#FF1345"/>
<path d="M250 700H200V750H250V700Z" fill="white"/>
<path d="M300 650H250V700H300V650Z" fill="white"/>
<path d="M300 700H250V750H300V700Z" fill="#FF1345"/>
<path d="M350 650H300V700H350V650Z" fill="#FF1345"/>
<path d="M350 700H300V750H350V700Z" fill="white"/>
<path d="M400 650H350V700H400V650Z" fill="white"/>
<path d="M400 700H350V750H400V700Z" fill="#FF1345"/>
<path d="M450 650H400V700H450V650Z" fill="#FF1345"/>
<path d="M450 700H400V750H450V700Z" fill="white"/>
<path d="M500 650H450V700H500V650Z" fill="white"/>
<path d="M500 700H450V750H500V700Z" fill="#FF1345"/>
<path d="M450 550H400V600H450V550Z" fill="#FF1345"/>
<path d="M450 600H400V650H450V600Z" fill="white"/>
<path d="M500 550H450V600H500V550Z" fill="white"/>
<path d="M500 600H450V650H500V600Z" fill="#FF1345"/>
<path d="M450 450H400V500H450V450Z" fill="#FF1345"/>
<path d="M450 500H400V550H450V500Z" fill="white"/>
<path d="M500 450H450V500H500V450Z" fill="white"/>
<path d="M500 500H450V550H500V500Z" fill="#FF1345"/>
<path d="M350 350H300V400H350V350Z" fill="#FF1345"/>
<path d="M350 400H300V450H350V400Z" fill="white"/>
<path d="M400 350H350V400H400V350Z" fill="white"/>
<path d="M400 400H350V450H400V400Z" fill="#FF1345"/>
<path d="M250 350H200V400H250V350Z" fill="#FF1345"/>
<path d="M250 400H200V450H250V400Z" fill="white"/>
<path d="M300 350H250V400H300V350Z" fill="white"/>
<path d="M300 400H250V450H300V400Z" fill="#FF1345"/>
<path d="M450 250H400V300H450V250Z" fill="#FF1345"/>
<path d="M450 300H400V350H450V300Z" fill="white"/>
<path d="M500 250H450V300H500V250Z" fill="white"/>
<path d="M500 300H450V350H500V300Z" fill="#FF1345"/>
<path d="M450 150H400V200H450V150Z" fill="#FF1345"/>
<path d="M450 200H400V250H450V200Z" fill="white"/>
<path d="M500 150H450V200H500V150Z" fill="white"/>
<path d="M500 200H450V250H500V200Z" fill="#FF1345"/>
<path d="M1840 50H1790V100H1840V50Z" fill="#FF1345"/>
<path d="M1840 100H1790V150H1840V100Z" fill="white"/>
<path d="M1890 50H1840V100H1890V50Z" fill="white"/>
<path d="M1890 100H1840V150H1890V100Z" fill="#FF1345"/>
<path d="M1940 50H1890V100H1940V50Z" fill="#FF1345"/>
<path d="M1940 100H1890V150H1940V100Z" fill="white"/>
<path d="M1990 50H1940V100H1990V50Z" fill="white"/>
<path d="M1990 100H1940V150H1990V100Z" fill="#FF1345"/>
<path d="M2040 50H1990V100H2040V50Z" fill="#FF1345"/>
<path d="M2040 100H1990V150H2040V100Z" fill="white"/>
<path d="M2090 50H2040V100H2090V50Z" fill="white"/>
<path d="M2090 100H2040V150H2090V100Z" fill="#FF1345"/>
<path d="M1740 150H1690V200H1740V150Z" fill="#FF1345"/>
<path d="M1740 200H1690V250H1740V200Z" fill="white"/>
<path d="M1790 150H1740V200H1790V150Z" fill="white"/>
<path d="M1790 200H1740V250H1790V200Z" fill="#FF1345"/>
<path d="M1740 250H1690V300H1740V250Z" fill="#FF1345"/>
<path d="M1740 300H1690V350H1740V300Z" fill="white"/>
<path d="M1790 250H1740V300H1790V250Z" fill="white"/>
<path d="M1790 300H1740V350H1790V300Z" fill="#FF1345"/>
<path d="M1740 350H1690V400H1740V350Z" fill="#FF1345"/>
<path d="M1740 400H1690V450H1740V400Z" fill="white"/>
<path d="M1790 350H1740V400H1790V350Z" fill="white"/>
<path d="M1790 400H1740V450H1790V400Z" fill="#FF1345"/>
<path d="M1740 450H1690V500H1740V450Z" fill="#FF1345"/>
<path d="M1740 500H1690V550H1740V500Z" fill="white"/>
<path d="M1790 450H1740V500H1790V450Z" fill="white"/>
<path d="M1790 500H1740V550H1790V500Z" fill="#FF1345"/>
<path d="M1740 550H1690V600H1740V550Z" fill="#FF1345"/>
<path d="M1740 600H1690V650H1740V600Z" fill="white"/>
<path d="M1790 550H1740V600H1790V550Z" fill="white"/>
<path d="M1790 600H1740V650H1790V600Z" fill="#FF1345"/>
<path d="M1840 650H1790V700H1840V650Z" fill="#FF1345"/>
<path d="M1840 700H1790V750H1840V700Z" fill="white"/>
<path d="M1890 650H1840V700H1890V650Z" fill="white"/>
<path d="M1890 700H1840V750H1890V700Z" fill="#FF1345"/>
<path d="M1940 650H1890V700H1940V650Z" fill="#FF1345"/>
<path d="M1940 700H1890V750H1940V700Z" fill="white"/>
<path d="M1990 650H1940V700H1990V650Z" fill="white"/>
<path d="M1990 700H1940V750H1990V700Z" fill="#FF1345"/>
<path d="M2040 650H1990V700H2040V650Z" fill="#FF1345"/>
<path d="M2040 700H1990V750H2040V700Z" fill="white"/>
<path d="M2090 650H2040V700H2090V650Z" fill="white"/>
<path d="M2090 700H2040V750H2090V700Z" fill="#FF1345"/>
<path d="M2140 550H2090V600H2140V550Z" fill="#FF1345"/>
<path d="M2140 600H2090V650H2140V600Z" fill="white"/>
<path d="M2190 550H2140V600H2190V550Z" fill="white"/>
<path d="M2190 600H2140V650H2190V600Z" fill="#FF1345"/>
<path d="M2140 450H2090V500H2140V450Z" fill="#FF1345"/>
<path d="M2140 500H2090V550H2140V500Z" fill="white"/>
<path d="M2190 450H2140V500H2190V450Z" fill="white"/>
<path d="M2190 500H2140V550H2190V500Z" fill="#FF1345"/>
<path d="M2040 350H1990V400H2040V350Z" fill="#FF1345"/>
<path d="M2040 400H1990V450H2040V400Z" fill="white"/>
<path d="M2090 350H2040V400H2090V350Z" fill="white"/>
<path d="M2090 400H2040V450H2090V400Z" fill="#FF1345"/>
<path d="M1940 350H1890V400H1940V350Z" fill="#FF1345"/>
<path d="M1940 400H1890V450H1940V400Z" fill="white"/>
<path d="M1990 350H1940V400H1990V350Z" fill="white"/>
<path d="M1990 400H1940V450H1990V400Z" fill="#FF1345"/>
<path d="M2140 150H2090V200H2140V150Z" fill="#FF1345"/>
<path d="M2140 200H2090V250H2140V200Z" fill="white"/>
<path d="M2190 150H2140V200H2190V150Z" fill="white"/>
<path d="M2190 200H2140V250H2190V200Z" fill="#FF1345"/>
</g>
<defs>
<clipPath id="clip0_4706_48143">
<rect width="2550.1" height="800" fill="white"/>
</clipPath>
</defs>
</svg>
