<?xml version="1.0" encoding="UTF-8"?>
<svg id="b" data-name="Layer 2" xmlns="http://www.w3.org/2000/svg" width="2550.25" height="800" viewBox="0 0 2550.25 800">
  <g id="c" data-name="Layer 2">
    <g>
      <path d="M2550,100c0,27.614-22.386,50-50,50,27.614,0,50,22.386,50,50V100Z" fill="#fff" stroke="#fff" stroke-miterlimit="10" stroke-width=".25"/>
      <path d="M2450,100c0,27.614,22.386,50,50,50-27.614,0-50,22.386-50,50V100Z" fill="#fff" stroke="#fff" stroke-miterlimit="10" stroke-width=".25"/>
      <path d="M2550,200c0,27.614-22.386,50-50,50,27.614,0,50,22.386,50,50v-100Z" fill="#fff" stroke="#fff" stroke-miterlimit="10" stroke-width=".25"/>
      <path d="M2450,200c0,27.614,22.386,50,50,50-27.614,0-50,22.386-50,50v-100Z" fill="#fff" stroke="#fff" stroke-miterlimit="10" stroke-width=".25"/>
      <path d="M2550,400c0,27.614-22.386,50-50,50,27.614,0,50,22.386,50,50v-100Z" fill="#fff" stroke="#fff" stroke-miterlimit="10" stroke-width=".25"/>
      <path d="M2450,400c0,27.614,22.386,50,50,50-27.614,0-50,22.386-50,50v-100Z" fill="#fff" stroke="#fff" stroke-miterlimit="10" stroke-width=".25"/>
      <g>
        <path d="M2500,750.125c-27.639,0-50.125-22.486-50.125-50.125v-.125h50.25v50.25h-.125Z" fill="#0aa7ff"/>
        <path d="M2500,700v50c-27.614,0-50-22.386-50-50h50m.25-.25h-50.5v.25c0,27.708,22.542,50.25,50.25,50.25h.25v-50.5h0Z" fill="#0aa7ff"/>
      </g>
      <g>
        <path d="M2499.875,750.125v-50.25h50.25v.125c0,27.639-22.486,50.125-50.125,50.125h-.125Z" fill="#0aa7ff"/>
        <path d="M2550,700c0,27.614-22.386,50-50,50v-50h50m.25-.25h-50.5v50.5h.25c27.708,0,50.25-22.542,50.25-50.25v-.25h0Z" fill="#0aa7ff"/>
      </g>
      <g>
        <path d="M2449.875,100.125v-.125c0-27.639,22.486-50.125,50.125-50.125h.125v50.25h-50.25Z" fill="#0aa7ff"/>
        <path d="M2500,50v50h-50c0-27.614,22.386-50,50-50m.25-.25h-.25c-27.708,0-50.25,22.542-50.25,50.25v.25h50.5V49.75h0Z" fill="#0aa7ff"/>
      </g>
      <g>
        <path d="M2499.875,100.125V49.875h.125c27.639,0,50.125,22.486,50.125,50.125v.125h-50.25Z" fill="#0aa7ff"/>
        <path d="M2500,50c27.614,0,50,22.386,50,50h-50V50m0-.25h-.25v50.5h50.5v-.25c0-27.708-22.542-50.25-50.25-50.25h0Z" fill="#0aa7ff"/>
      </g>
      <g>
        <path d="M2449.875,300.125v-.125c0-27.639,22.486-50.125,50.125-50.125h.125v50.25h-50.25Z" fill="#0aa7ff"/>
        <path d="M2500,250v50h-50c0-27.614,22.386-50,50-50m.25-.25h-.25c-27.708,0-50.25,22.542-50.25,50.25v.25h50.5v-50.5h0Z" fill="#0aa7ff"/>
      </g>
      <g>
        <path d="M2499.875,300.125v-50.25h.125c27.639,0,50.125,22.486,50.125,50.125v.125h-50.25Z" fill="#0aa7ff"/>
        <path d="M2500,250c27.614,0,50,22.386,50,50h-50v-50m0-.25h-.25v50.5h50.5v-.25c0-27.708-22.542-50.25-50.25-50.25h0Z" fill="#0aa7ff"/>
      </g>
      <g>
        <path d="M2499.875,150.125v-50.25h50.25v.125c0,27.639-22.486,50.125-50.125,50.125h-.125Z" fill="#0aa7ff"/>
        <path d="M2550,100c0,27.614-22.386,50-50,50v-50h50m.25-.25h-50.5v50.5h.25c27.708,0,50.25-22.542,50.25-50.25v-.25h0Z" fill="#0aa7ff"/>
      </g>
      <g>
        <path d="M2500,150.125c-27.639,0-50.125-22.486-50.125-50.125v-.125h50.25v50.25h-.125Z" fill="#0aa7ff"/>
        <path d="M2500,100v50c-27.614,0-50-22.386-50-50h50m.25-.25h-50.5v.25c0,27.708,22.542,50.25,50.25,50.25h.25v-50.5h0Z" fill="#0aa7ff"/>
      </g>
      <g>
        <path d="M2449.875,200.125v-.125c0-27.639,22.486-50.125,50.125-50.125h.125v50.25h-50.25Z" fill="#0aa7ff"/>
        <path d="M2500,150v50h-50c0-27.614,22.386-50,50-50m.25-.25h-.25c-27.708,0-50.25,22.542-50.25,50.25v.25h50.5v-50.5h0Z" fill="#0aa7ff"/>
      </g>
      <g>
        <path d="M2499.875,200.125v-50.25h.125c27.639,0,50.125,22.486,50.125,50.125v.125h-50.25Z" fill="#0aa7ff"/>
        <path d="M2500,150c27.614,0,50,22.386,50,50h-50v-50m0-.25h-.25v50.5h50.5v-.25c0-27.708-22.542-50.25-50.25-50.25h0Z" fill="#0aa7ff"/>
      </g>
      <g>
        <path d="M2499.875,250.125v-50.25h50.25v.125c0,27.639-22.486,50.125-50.125,50.125h-.125Z" fill="#0aa7ff"/>
        <path d="M2550,200c0,27.614-22.386,50-50,50v-50h50m.25-.25h-50.5v50.5h.25c27.708,0,50.25-22.542,50.25-50.25v-.25h0Z" fill="#0aa7ff"/>
      </g>
      <g>
        <path d="M2500,250.125c-27.639,0-50.125-22.486-50.125-50.125v-.125h50.25v50.25h-.125Z" fill="#0aa7ff"/>
        <path d="M2500,200v50c-27.614,0-50-22.386-50-50h50m.25-.25h-50.5v.25c0,27.708,22.542,50.25,50.25,50.25h.25v-50.5h0Z" fill="#0aa7ff"/>
      </g>
      <g>
        <path d="M2500,350.125c-27.639,0-50.125-22.486-50.125-50.125v-.125h50.25v50.25h-.125Z" fill="#0aa7ff"/>
        <path d="M2500,300v50c-27.614,0-50-22.386-50-50h50m.25-.25h-50.5v.25c0,27.708,22.542,50.25,50.25,50.25h.25v-50.5h0Z" fill="#0aa7ff"/>
      </g>
      <g>
        <path d="M2449.875,400.125v-.125c0-27.639,22.486-50.125,50.125-50.125h.125v50.25h-50.25Z" fill="#0aa7ff"/>
        <path d="M2500,350v50h-50c0-27.614,22.386-50,50-50m.25-.25h-.25c-27.708,0-50.25,22.542-50.25,50.25v.25h50.5v-50.5h0Z" fill="#0aa7ff"/>
      </g>
      <g>
        <path d="M2499.875,400.125v-50.25h.125c27.639,0,50.125,22.486,50.125,50.125v.125h-50.25Z" fill="#0aa7ff"/>
        <path d="M2500,350c27.614,0,50,22.386,50,50h-50v-50m0-.25h-.25v50.5h50.5v-.25c0-27.708-22.542-50.25-50.25-50.25h0Z" fill="#0aa7ff"/>
      </g>
      <g>
        <path d="M2499.875,450.125v-50.25h50.25v.125c0,27.639-22.486,50.125-50.125,50.125h-.125Z" fill="#0aa7ff"/>
        <path d="M2550,400c0,27.614-22.386,50-50,50v-50h50m.25-.25h-50.5v50.5h.25c27.708,0,50.25-22.542,50.25-50.25v-.25h0Z" fill="#0aa7ff"/>
      </g>
      <g>
        <path d="M2500,450.125c-27.639,0-50.125-22.486-50.125-50.125v-.125h50.25v50.25h-.125Z" fill="#0aa7ff"/>
        <path d="M2500,400v50c-27.614,0-50-22.386-50-50h50m.25-.25h-50.5v.25c0,27.708,22.542,50.25,50.25,50.25h.25v-50.5h0Z" fill="#0aa7ff"/>
      </g>
      <g>
        <path d="M2449.875,500.125v-.125c0-27.639,22.486-50.125,50.125-50.125h.125v50.25h-50.25Z" fill="#0aa7ff"/>
        <path d="M2500,450v50h-50c0-27.614,22.386-50,50-50m.25-.25h-.25c-27.708,0-50.25,22.542-50.25,50.25v.25h50.5v-50.5h0Z" fill="#0aa7ff"/>
      </g>
      <g>
        <path d="M2499.875,500.125v-50.25h.125c27.639,0,50.125,22.486,50.125,50.125v.125h-50.25Z" fill="#0aa7ff"/>
        <path d="M2500,450c27.614,0,50,22.386,50,50h-50v-50m0-.25h-.25v50.5h50.5v-.25c0-27.708-22.542-50.25-50.25-50.25h0Z" fill="#0aa7ff"/>
      </g>
      <g>
        <path d="M2499.875,550.125v-50.25h50.25v.125c0,27.639-22.486,50.125-50.125,50.125h-.125Z" fill="#0aa7ff"/>
        <path d="M2550,500c0,27.614-22.386,50-50,50v-50h50m.25-.25h-50.5v50.5h.25c27.708,0,50.25-22.542,50.25-50.25v-.25h0Z" fill="#0aa7ff"/>
      </g>
      <g>
        <path d="M2500,550.125c-27.639,0-50.125-22.486-50.125-50.125v-.125h50.25v50.25h-.125Z" fill="#0aa7ff"/>
        <path d="M2500,500v50c-27.614,0-50-22.386-50-50h50m.25-.25h-50.5v.25c0,27.708,22.542,50.25,50.25,50.25h.25v-50.5h0Z" fill="#0aa7ff"/>
      </g>
      <g>
        <path d="M2449.875,700.125v-.125c0-27.639,22.486-50.125,50.125-50.125h.125v50.25h-50.25Z" fill="#0aa7ff"/>
        <path d="M2500,650v50h-50c0-27.614,22.386-50,50-50m.25-.25h-.25c-27.708,0-50.25,22.542-50.25,50.25v.25h50.5v-50.5h0Z" fill="#0aa7ff"/>
      </g>
      <g>
        <path d="M2499.875,700.125v-50.25h.125c27.639,0,50.125,22.486,50.125,50.125v.125h-50.25Z" fill="#0aa7ff"/>
        <path d="M2500,650c27.614,0,50,22.386,50,50h-50v-50m0-.25h-.25v50.5h50.5v-.25c0-27.708-22.542-50.25-50.25-50.25h0Z" fill="#0aa7ff"/>
      </g>
      <g>
        <path d="M2499.875,350.125v-50.25h50.25v.125c0,27.639-22.486,50.125-50.125,50.125h-.125Z" fill="#0aa7ff"/>
        <path d="M2550,300c0,27.614-22.386,50-50,50v-50h50m.25-.25h-50.5v50.5h.25c27.708,0,50.25-22.542,50.25-50.25v-.25h0Z" fill="#0aa7ff"/>
      </g>
      <path d="M1609,550c-27.614,0-50-22.386-50-50,0,27.614-22.386,50-50,50,27.614,0,50,22.386,50,50,0-27.614,22.386-50,50-50Z" fill="#fff" stroke="#fff" stroke-miterlimit="10" stroke-width=".25"/>
      <path d="M1509,450c-27.614,0-50-22.386-50-50,0,27.614-22.386,50-50,50,27.614,0,50,22.386,50,50,0-27.614,22.386-50,50-50Z" fill="#fff" stroke="#fff" stroke-miterlimit="10" stroke-width=".25"/>
      <path d="M1409,350c-27.614,0-50-22.386-50-50,0,27.614-22.386,50-50,50,27.614,0,50,22.386,50,50,0-27.614,22.386-50,50-50Z" fill="#fff" stroke="#fff" stroke-miterlimit="10" stroke-width=".25"/>
      <path d="M1309,250c-27.614,0-50-22.386-50-50,0,27.614-22.386,50-50,50,27.614,0,50,22.386,50,50,0-27.614,22.386-50,50-50Z" fill="#fff" stroke="#fff" stroke-miterlimit="10" stroke-width=".25"/>
      <path d="M1259,100c0,27.614-22.386,50-50,50,27.614,0,50,22.386,50,50V100Z" fill="#fff" stroke="#fff" stroke-miterlimit="10" stroke-width=".25"/>
      <path d="M1159,100c0,27.614,22.386,50,50,50-27.614,0-50,22.386-50,50V100Z" fill="#fff" stroke="#fff" stroke-miterlimit="10" stroke-width=".25"/>
      <path d="M1259,400c0,27.614-22.386,50-50,50,27.614,0,50,22.386,50,50v-100Z" fill="#fff" stroke="#fff" stroke-miterlimit="10" stroke-width=".25"/>
      <path d="M1159,400c0,27.614,22.386,50,50,50-27.614,0-50,22.386-50,50v-100Z" fill="#fff" stroke="#fff" stroke-miterlimit="10" stroke-width=".25"/>
      <path d="M1259,500c0,27.614-22.386,50-50,50,27.614,0,50,22.386,50,50v-100Z" fill="#fff" stroke="#fff" stroke-miterlimit="10" stroke-width=".25"/>
      <path d="M1159,500c0,27.614,22.386,50,50,50-27.614,0-50,22.386-50,50v-100Z" fill="#fff" stroke="#fff" stroke-miterlimit="10" stroke-width=".25"/>
      <path d="M1259,600c0,27.614-22.386,50-50,50,27.614,0,50,22.386,50,50v-100Z" fill="#fff" stroke="#fff" stroke-miterlimit="10" stroke-width=".25"/>
      <path d="M1159,600c0,27.614,22.386,50,50,50-27.614,0-50,22.386-50,50v-100Z" fill="#fff" stroke="#fff" stroke-miterlimit="10" stroke-width=".25"/>
      <path d="M1659,600c0,27.614-22.386,50-50,50,27.614,0,50,22.386,50,50v-100Z" fill="#fff" stroke="#fff" stroke-miterlimit="10" stroke-width=".25"/>
      <path d="M1659,500c0,27.614-22.386,50-50,50,27.614,0,50,22.386,50,50v-100Z" fill="#fff" stroke="#fff" stroke-miterlimit="10" stroke-width=".25"/>
      <path d="M1559,600c0,27.614,22.386,50,50,50-27.614,0-50,22.386-50,50v-100Z" fill="#fff" stroke="#fff" stroke-miterlimit="10" stroke-width=".25"/>
      <path d="M1659,100c0,27.614-22.386,50-50,50,27.614,0,50,22.386,50,50V100Z" fill="#fff" stroke="#fff" stroke-miterlimit="10" stroke-width=".25"/>
      <path d="M1559,100c0,27.614,22.386,50,50,50-27.614,0-50,22.386-50,50V100Z" fill="#fff" stroke="#fff" stroke-miterlimit="10" stroke-width=".25"/>
      <path d="M1659,200c0,27.614-22.386,50-50,50,27.614,0,50,22.386,50,50v-100Z" fill="#fff" stroke="#fff" stroke-miterlimit="10" stroke-width=".25"/>
      <path d="M1559,200c0,27.614,22.386,50,50,50-27.614,0-50,22.386-50,50v-100Z" fill="#fff" stroke="#fff" stroke-miterlimit="10" stroke-width=".25"/>
      <path d="M1659,300c0,27.614-22.386,50-50,50,27.614,0,50,22.386,50,50v-100Z" fill="#fff" stroke="#fff" stroke-miterlimit="10" stroke-width=".25"/>
      <path d="M1559,300c0,27.614,22.386,50,50,50-27.614,0-50,22.386-50,50v-100Z" fill="#fff" stroke="#fff" stroke-miterlimit="10" stroke-width=".25"/>
      <path d="M1159,200c0,27.614,22.386,50,50,50-27.614,0-50,22.386-50,50v-100Z" fill="#fff" stroke="#fff" stroke-miterlimit="10" stroke-width=".25"/>
      <g>
        <path d="M1209,450.125c-27.639,0-50.125-22.486-50.125-50.125v-.125h50.25v50.25h-.125Z" fill="#0aa7ff"/>
        <path d="M1209,400v50c-27.614,0-50-22.386-50-50h50m.25-.25h-50.5v.25c0,27.708,22.542,50.25,50.25,50.25h.25v-50.5h0Z" fill="#0aa7ff"/>
      </g>
      <g>
        <path d="M1158.875,500.125v-.125c0-27.639,22.486-50.125,50.125-50.125h.125v50.25h-50.25Z" fill="#0aa7ff"/>
        <path d="M1209,450v50h-50c0-27.614,22.386-50,50-50m.25-.25h-.25c-27.708,0-50.25,22.542-50.25,50.25v.25h50.5v-50.5h0Z" fill="#0aa7ff"/>
      </g>
      <g>
        <path d="M1208.875,500.125v-50.25h.125c27.639,0,50.125,22.486,50.125,50.125v.125h-50.25Z" fill="#0aa7ff"/>
        <path d="M1209,450c27.614,0,50,22.386,50,50h-50v-50m0-.25h-.25v50.5h50.5v-.25c0-27.708-22.542-50.25-50.25-50.25h0Z" fill="#0aa7ff"/>
      </g>
      <g>
        <path d="M1208.875,550.125v-50.25h50.25v.125c0,27.639-22.486,50.125-50.125,50.125h-.125Z" fill="#0aa7ff"/>
        <path d="M1259,500c0,27.614-22.386,50-50,50v-50h50m.25-.25h-50.5v50.5h.25c27.708,0,50.25-22.542,50.25-50.25v-.25h0Z" fill="#0aa7ff"/>
      </g>
      <g>
        <path d="M1209,550.125c-27.639,0-50.125-22.486-50.125-50.125v-.125h50.25v50.25h-.125Z" fill="#0aa7ff"/>
        <path d="M1209,500v50c-27.614,0-50-22.386-50-50h50m.25-.25h-50.5v.25c0,27.708,22.542,50.25,50.25,50.25h.25v-50.5h0Z" fill="#0aa7ff"/>
      </g>
      <g>
        <path d="M1158.875,600.125v-.125c0-27.639,22.486-50.125,50.125-50.125h.125v50.25h-50.25Z" fill="#0aa7ff"/>
        <path d="M1209,550v50h-50c0-27.614,22.386-50,50-50m.25-.25h-.25c-27.708,0-50.25,22.542-50.25,50.25v.25h50.5v-50.5h0Z" fill="#0aa7ff"/>
      </g>
      <g>
        <path d="M1208.875,600.125v-50.25h.125c27.639,0,50.125,22.486,50.125,50.125v.125h-50.25Z" fill="#0aa7ff"/>
        <path d="M1209,550c27.614,0,50,22.386,50,50h-50v-50m0-.25h-.25v50.5h50.5v-.25c0-27.708-22.542-50.25-50.25-50.25h0Z" fill="#0aa7ff"/>
      </g>
      <g>
        <path d="M1158.875,700.125v-.125c0-27.639,22.486-50.125,50.125-50.125h.125v50.25h-50.25Z" fill="#0aa7ff"/>
        <path d="M1209,650v50h-50c0-27.614,22.386-50,50-50m.25-.25h-.25c-27.708,0-50.25,22.542-50.25,50.25v.25h50.5v-50.5h0Z" fill="#0aa7ff"/>
      </g>
      <g>
        <path d="M1208.875,700.125v-50.25h.125c27.639,0,50.125,22.486,50.125,50.125v.125h-50.25Z" fill="#0aa7ff"/>
        <path d="M1209,650c27.614,0,50,22.386,50,50h-50v-50m0-.25h-.25v50.5h50.5v-.25c0-27.708-22.542-50.25-50.25-50.25h0Z" fill="#0aa7ff"/>
      </g>
      <g>
        <path d="M1208.875,650.125v-50.25h50.25v.125c0,27.639-22.486,50.125-50.125,50.125h-.125Z" fill="#0aa7ff"/>
        <path d="M1259,600c0,27.614-22.386,50-50,50v-50h50m.25-.25h-50.5v50.5h.25c27.708,0,50.25-22.542,50.25-50.25v-.25h0Z" fill="#0aa7ff"/>
      </g>
      <g>
        <path d="M1209,650.125c-27.639,0-50.125-22.486-50.125-50.125v-.125h50.25v50.25h-.125Z" fill="#0aa7ff"/>
        <path d="M1209,600v50c-27.614,0-50-22.386-50-50h50m.25-.25h-50.5v.25c0,27.708,22.542,50.25,50.25,50.25h.25v-50.5h0Z" fill="#0aa7ff"/>
      </g>
      <g>
        <path d="M1208.875,450.125v-50.25h50.25v.125c0,27.639-22.486,50.125-50.125,50.125h-.125Z" fill="#0aa7ff"/>
        <path d="M1259,400c0,27.614-22.386,50-50,50v-50h50m.25-.25h-50.5v50.5h.25c27.708,0,50.25-22.542,50.25-50.25v-.25h0Z" fill="#0aa7ff"/>
      </g>
      <g>
        <path d="M1409,450.125c-27.639,0-50.125-22.486-50.125-50.125v-.125h50.25v50.25h-.125Z" fill="#0aa7ff"/>
        <path d="M1409,400v50c-27.614,0-50-22.386-50-50h50m.25-.25h-50.5v.25c0,27.708,22.542,50.25,50.25,50.25h.25v-50.5h0Z" fill="#0aa7ff"/>
      </g>
      <g>
        <path d="M1209,750.125c-27.639,0-50.125-22.486-50.125-50.125v-.125h50.25v50.25h-.125Z" fill="#0aa7ff"/>
        <path d="M1209,700v50c-27.614,0-50-22.386-50-50h50m.25-.25h-50.5v.25c0,27.708,22.542,50.25,50.25,50.25h.25v-50.5h0Z" fill="#0aa7ff"/>
      </g>
      <g>
        <path d="M1208.875,750.125v-50.25h50.25v.125c0,27.639-22.486,50.125-50.125,50.125h-.125Z" fill="#0aa7ff"/>
        <path d="M1259,700c0,27.614-22.386,50-50,50v-50h50m.25-.25h-50.5v50.5h.25c27.708,0,50.25-22.542,50.25-50.25v-.25h0Z" fill="#0aa7ff"/>
      </g>
      <g>
        <path d="M1509,550.125c-27.639,0-50.125-22.486-50.125-50.125v-.125h50.25v50.25h-.125Z" fill="#0aa7ff"/>
        <path d="M1509,500v50c-27.614,0-50-22.386-50-50h50m.25-.25h-50.5v.25c0,27.708,22.542,50.25,50.25,50.25h.25v-50.5h0Z" fill="#0aa7ff"/>
      </g>
      <g>
        <path d="M1508.875,550.125v-50.25h50.25v.125c0,27.639-22.486,50.125-50.125,50.125h-.125Z" fill="#0aa7ff"/>
        <path d="M1559,500c0,27.614-22.386,50-50,50v-50h50m.25-.25h-50.5v50.5h.25c27.708,0,50.25-22.542,50.25-50.25v-.25h0Z" fill="#0aa7ff"/>
      </g>
      <g>
        <path d="M1458.875,500.125v-.125c0-27.639,22.486-50.125,50.125-50.125h.125v50.25h-50.25Z" fill="#0aa7ff"/>
        <path d="M1509,450v50h-50c0-27.614,22.386-50,50-50m.25-.25h-.25c-27.708,0-50.25,22.542-50.25,50.25v.25h50.5v-50.5h0Z" fill="#0aa7ff"/>
      </g>
      <g>
        <path d="M1408.875,450.125v-50.25h50.25v.125c0,27.639-22.486,50.125-50.125,50.125h-.125Z" fill="#0aa7ff"/>
        <path d="M1459,400c0,27.614-22.386,50-50,50v-50h50m.25-.25h-50.5v50.5h.25c27.708,0,50.25-22.542,50.25-50.25v-.25h0Z" fill="#0aa7ff"/>
      </g>
      <g>
        <path d="M1508.875,500.125v-50.25h.125c27.639,0,50.125,22.486,50.125,50.125v.125h-50.25Z" fill="#0aa7ff"/>
        <path d="M1509,450c27.614,0,50,22.386,50,50h-50v-50m0-.25h-.25v50.5h50.5v-.25c0-27.708-22.542-50.25-50.25-50.25h0Z" fill="#0aa7ff"/>
      </g>
      <g>
        <path d="M1609,750.125c-27.639,0-50.125-22.486-50.125-50.125v-.125h50.25v50.25h-.125Z" fill="#0aa7ff"/>
        <path d="M1609,700v50c-27.614,0-50-22.386-50-50h50m.25-.25h-50.5v.25c0,27.708,22.542,50.25,50.25,50.25h.25v-50.5h0Z" fill="#0aa7ff"/>
      </g>
      <g>
        <path d="M1608.875,750.125v-50.25h50.25v.125c0,27.639-22.486,50.125-50.125,50.125h-.125Z" fill="#0aa7ff"/>
        <path d="M1659,700c0,27.614-22.386,50-50,50v-50h50m.25-.25h-50.5v50.5h.25c27.708,0,50.25-22.542,50.25-50.25v-.25h0Z" fill="#0aa7ff"/>
      </g>
      <g>
        <path d="M1158.875,100.125v-.125c0-27.639,22.486-50.125,50.125-50.125h.125v50.25h-50.25Z" fill="#0aa7ff"/>
        <path d="M1209,50v50h-50c0-27.614,22.386-50,50-50m.25-.25h-.25c-27.708,0-50.25,22.542-50.25,50.25v.25h50.5V49.75h0Z" fill="#0aa7ff"/>
      </g>
      <g>
        <path d="M1208.875,100.125V49.875h.125c27.639,0,50.125,22.486,50.125,50.125v.125h-50.25Z" fill="#0aa7ff"/>
        <path d="M1209,50c27.614,0,50,22.386,50,50h-50V50m0-.25h-.25v50.5h50.5v-.25c0-27.708-22.542-50.25-50.25-50.25h0Z" fill="#0aa7ff"/>
      </g>
      <g>
        <path d="M1208.875,150.125v-50.25h50.25v.125c0,27.639-22.486,50.125-50.125,50.125h-.125Z" fill="#0aa7ff"/>
        <path d="M1259,100c0,27.614-22.386,50-50,50v-50h50m.25-.25h-50.5v50.5h.25c27.708,0,50.25-22.542,50.25-50.25v-.25h0Z" fill="#0aa7ff"/>
      </g>
      <g>
        <path d="M1209,150.125c-27.639,0-50.125-22.486-50.125-50.125v-.125h50.25v50.25h-.125Z" fill="#0aa7ff"/>
        <path d="M1209,100v50c-27.614,0-50-22.386-50-50h50m.25-.25h-50.5v.25c0,27.708,22.542,50.25,50.25,50.25h.25v-50.5h0Z" fill="#0aa7ff"/>
      </g>
      <g>
        <path d="M1158.875,200.125v-.125c0-27.639,22.486-50.125,50.125-50.125h.125v50.25h-50.25Z" fill="#0aa7ff"/>
        <path d="M1209,150v50h-50c0-27.614,22.386-50,50-50m.25-.25h-.25c-27.708,0-50.25,22.542-50.25,50.25v.25h50.5v-50.5h0Z" fill="#0aa7ff"/>
      </g>
      <g>
        <path d="M1208.875,200.125v-50.25h.125c27.639,0,50.125,22.486,50.125,50.125v.125h-50.25Z" fill="#0aa7ff"/>
        <path d="M1209,150c27.614,0,50,22.386,50,50h-50v-50m0-.25h-.25v50.5h50.5v-.25c0-27.708-22.542-50.25-50.25-50.25h0Z" fill="#0aa7ff"/>
      </g>
      <g>
        <path d="M1208.875,250.003v-50.25h50.25v.125c0,27.639-22.486,50.125-50.125,50.125h-.125Z" fill="#0aa7ff"/>
        <path d="M1259,199.879c0,27.614-22.386,50-50,50v-50h50m.25-.25h-50.5v50.5h.25c27.708,0,50.25-22.542,50.25-50.25v-.25h0Z" fill="#0aa7ff"/>
      </g>
      <g>
        <path d="M1209,250.125c-27.639,0-50.125-22.486-50.125-50.125v-.125h50.25v50.25h-.125Z" fill="#0aa7ff"/>
        <path d="M1209,200v50c-27.614,0-50-22.386-50-50h50m.25-.25h-50.5v.25c0,27.708,22.542,50.25,50.25,50.25h.25v-50.5h0Z" fill="#0aa7ff"/>
      </g>
      <g>
        <path d="M1158.875,300.125v-.125c0-27.639,22.486-50.125,50.125-50.125h.125v50.25h-50.25Z" fill="#0aa7ff"/>
        <path d="M1209,250v50h-50c0-27.614,22.386-50,50-50m.25-.25h-.25c-27.708,0-50.25,22.542-50.25,50.25v.25h50.5v-50.5h0Z" fill="#0aa7ff"/>
      </g>
      <g>
        <path d="M1258.875,300.125v-.125c0-27.639,22.486-50.125,50.125-50.125h.125v50.25h-50.25Z" fill="#0aa7ff"/>
        <path d="M1309,250v50h-50c0-27.614,22.386-50,50-50m.25-.25h-.25c-27.708,0-50.25,22.542-50.25,50.25v.25h50.5v-50.5h0Z" fill="#0aa7ff"/>
      </g>
      <g>
        <path d="M1208.875,300.125v-50.25h.125c27.639,0,50.125,22.486,50.125,50.125v.125h-50.25Z" fill="#0aa7ff"/>
        <path d="M1209,250c27.614,0,50,22.386,50,50h-50v-50m0-.25h-.25v50.5h50.5v-.25c0-27.708-22.542-50.25-50.25-50.25h0Z" fill="#0aa7ff"/>
      </g>
      <g>
        <path d="M1208.875,350.125v-50.25h50.25v.125c0,27.639-22.486,50.125-50.125,50.125h-.125Z" fill="#0aa7ff"/>
        <path d="M1259,300c0,27.614-22.386,50-50,50v-50h50m.25-.25h-50.5v50.5h.25c27.708,0,50.25-22.542,50.25-50.25v-.25h0Z" fill="#0aa7ff"/>
      </g>
      <g>
        <path d="M1308.875,350.125v-50.25h50.25v.125c0,27.639-22.486,50.125-50.125,50.125h-.125Z" fill="#0aa7ff"/>
        <path d="M1359,300c0,27.614-22.386,50-50,50v-50h50m.25-.25h-50.5v50.5h.25c27.708,0,50.25-22.542,50.25-50.25v-.25h0Z" fill="#0aa7ff"/>
      </g>
      <g>
        <path d="M1209,350.125c-27.639,0-50.125-22.486-50.125-50.125v-.125h50.25v50.25h-.125Z" fill="#0aa7ff"/>
        <path d="M1209,300v50c-27.614,0-50-22.386-50-50h50m.25-.25h-50.5v.25c0,27.708,22.542,50.25,50.25,50.25h.25v-50.5h0Z" fill="#0aa7ff"/>
      </g>
      <g>
        <path d="M1158.875,400.125v-.125c0-27.639,22.486-50.125,50.125-50.125h.125v50.25h-50.25Z" fill="#0aa7ff"/>
        <path d="M1209,350v50h-50c0-27.614,22.386-50,50-50m.25-.25h-.25c-27.708,0-50.25,22.542-50.25,50.25v.25h50.5v-50.5h0Z" fill="#0aa7ff"/>
      </g>
      <g>
        <path d="M1208.875,400.125v-50.25h.125c27.639,0,50.125,22.486,50.125,50.125v.125h-50.25Z" fill="#0aa7ff"/>
        <path d="M1209,350c27.614,0,50,22.386,50,50h-50v-50m0-.25h-.25v50.5h50.5v-.25c0-27.708-22.542-50.25-50.25-50.25h0Z" fill="#0aa7ff"/>
      </g>
      <g>
        <path d="M1308.875,300.125v-50.25h.125c27.639,0,50.125,22.486,50.125,50.125v.125h-50.25Z" fill="#0aa7ff"/>
        <path d="M1309,250c27.614,0,50,22.386,50,50h-50v-50m0-.25h-.25v50.5h50.5v-.25c0-27.708-22.542-50.25-50.25-50.25h0Z" fill="#0aa7ff"/>
      </g>
      <g>
        <path d="M1309,350.125c-27.639,0-50.125-22.486-50.125-50.125v-.125h50.25v50.25h-.125Z" fill="#0aa7ff"/>
        <path d="M1309,300v50c-27.614,0-50-22.386-50-50h50m.25-.25h-50.5v.25c0,27.708,22.542,50.25,50.25,50.25h.25v-50.5h0Z" fill="#0aa7ff"/>
      </g>
      <g>
        <path d="M1358.875,400.125v-.125c0-27.639,22.486-50.125,50.125-50.125h.125v50.25h-50.25Z" fill="#0aa7ff"/>
        <path d="M1409,350v50h-50c0-27.614,22.386-50,50-50m.25-.25h-.25c-27.708,0-50.25,22.542-50.25,50.25v.25h50.5v-50.5h0Z" fill="#0aa7ff"/>
      </g>
      <g>
        <path d="M1558.875,100.125v-.125c0-27.639,22.486-50.125,50.125-50.125h.125v50.25h-50.25Z" fill="#0aa7ff"/>
        <path d="M1609,50v50h-50c0-27.614,22.386-50,50-50m.25-.25h-.25c-27.708,0-50.25,22.542-50.25,50.25v.25h50.5V49.75h0Z" fill="#0aa7ff"/>
      </g>
      <g>
        <path d="M1608.875,100.125V49.875h.125c27.639,0,50.125,22.486,50.125,50.125v.125h-50.25Z" fill="#0aa7ff"/>
        <path d="M1609,50c27.614,0,50,22.386,50,50h-50V50m0-.25h-.25v50.5h50.5v-.25c0-27.708-22.542-50.25-50.25-50.25h0Z" fill="#0aa7ff"/>
      </g>
      <g>
        <path d="M1558.875,300.125v-.125c0-27.639,22.486-50.125,50.125-50.125h.125v50.25h-50.25Z" fill="#0aa7ff"/>
        <path d="M1609,250v50h-50c0-27.614,22.386-50,50-50m.25-.25h-.25c-27.708,0-50.25,22.542-50.25,50.25v.25h50.5v-50.5h0Z" fill="#0aa7ff"/>
      </g>
      <g>
        <path d="M1608.875,300.125v-50.25h.125c27.639,0,50.125,22.486,50.125,50.125v.125h-50.25Z" fill="#0aa7ff"/>
        <path d="M1609,250c27.614,0,50,22.386,50,50h-50v-50m0-.25h-.25v50.5h50.5v-.25c0-27.708-22.542-50.25-50.25-50.25h0Z" fill="#0aa7ff"/>
      </g>
      <g>
        <path d="M1608.875,150.125v-50.25h50.25v.125c0,27.639-22.486,50.125-50.125,50.125h-.125Z" fill="#0aa7ff"/>
        <path d="M1659,100c0,27.614-22.386,50-50,50v-50h50m.25-.25h-50.5v50.5h.25c27.708,0,50.25-22.542,50.25-50.25v-.25h0Z" fill="#0aa7ff"/>
      </g>
      <g>
        <path d="M1609,150.125c-27.639,0-50.125-22.486-50.125-50.125v-.125h50.25v50.25h-.125Z" fill="#0aa7ff"/>
        <path d="M1609,100v50c-27.614,0-50-22.386-50-50h50m.25-.25h-50.5v.25c0,27.708,22.542,50.25,50.25,50.25h.25v-50.5h0Z" fill="#0aa7ff"/>
      </g>
      <g>
        <path d="M1558.875,200.125v-.125c0-27.639,22.486-50.125,50.125-50.125h.125v50.25h-50.25Z" fill="#0aa7ff"/>
        <path d="M1609,150v50h-50c0-27.614,22.386-50,50-50m.25-.25h-.25c-27.708,0-50.25,22.542-50.25,50.25v.25h50.5v-50.5h0Z" fill="#0aa7ff"/>
      </g>
      <g>
        <path d="M1608.875,200.125v-50.25h.125c27.639,0,50.125,22.486,50.125,50.125v.125h-50.25Z" fill="#0aa7ff"/>
        <path d="M1609,150c27.614,0,50,22.386,50,50h-50v-50m0-.25h-.25v50.5h50.5v-.25c0-27.708-22.542-50.25-50.25-50.25h0Z" fill="#0aa7ff"/>
      </g>
      <g>
        <path d="M1608.875,250.125v-50.25h50.25v.125c0,27.639-22.486,50.125-50.125,50.125h-.125Z" fill="#0aa7ff"/>
        <path d="M1659,200c0,27.614-22.386,50-50,50v-50h50m.25-.25h-50.5v50.5h.25c27.708,0,50.25-22.542,50.25-50.25v-.25h0Z" fill="#0aa7ff"/>
      </g>
      <g>
        <path d="M1609,250.125c-27.639,0-50.125-22.486-50.125-50.125v-.125h50.25v50.25h-.125Z" fill="#0aa7ff"/>
        <path d="M1609,200v50c-27.614,0-50-22.386-50-50h50m.25-.25h-50.5v.25c0,27.708,22.542,50.25,50.25,50.25h.25v-50.5h0Z" fill="#0aa7ff"/>
      </g>
      <g>
        <path d="M1408.875,400.125v-50.25h.125c27.639,0,50.125,22.486,50.125,50.125v.125h-50.25Z" fill="#0aa7ff"/>
        <path d="M1409,350c27.614,0,50,22.386,50,50h-50v-50m0-.25h-.25v50.5h50.5v-.25c0-27.708-22.542-50.25-50.25-50.25h0Z" fill="#0aa7ff"/>
      </g>
      <g>
        <path d="M1609,350.125c-27.639,0-50.125-22.486-50.125-50.125v-.125h50.25v50.25h-.125Z" fill="#0aa7ff"/>
        <path d="M1609,300v50c-27.614,0-50-22.386-50-50h50m.25-.25h-50.5v.25c0,27.708,22.542,50.25,50.25,50.25h.25v-50.5h0Z" fill="#0aa7ff"/>
      </g>
      <g>
        <path d="M1558.875,400.125v-.125c0-27.639,22.486-50.125,50.125-50.125h.125v50.25h-50.25Z" fill="#0aa7ff"/>
        <path d="M1609,350v50h-50c0-27.614,22.386-50,50-50m.25-.25h-.25c-27.708,0-50.25,22.542-50.25,50.25v.25h50.5v-50.5h0Z" fill="#0aa7ff"/>
      </g>
      <g>
        <path d="M1608.875,400.125v-50.25h.125c27.639,0,50.125,22.486,50.125,50.125v.125h-50.25Z" fill="#0aa7ff"/>
        <path d="M1609,350c27.614,0,50,22.386,50,50h-50v-50m0-.25h-.25v50.5h50.5v-.25c0-27.708-22.542-50.25-50.25-50.25h0Z" fill="#0aa7ff"/>
      </g>
      <g>
        <path d="M1608.875,450.125v-50.25h50.25v.125c0,27.639-22.486,50.125-50.125,50.125h-.125Z" fill="#0aa7ff"/>
        <path d="M1659,400c0,27.614-22.386,50-50,50v-50h50m.25-.25h-50.5v50.5h.25c27.708,0,50.25-22.542,50.25-50.25v-.25h0Z" fill="#0aa7ff"/>
      </g>
      <g>
        <path d="M1609,450.125c-27.639,0-50.125-22.486-50.125-50.125v-.125h50.25v50.25h-.125Z" fill="#0aa7ff"/>
        <path d="M1609,400v50c-27.614,0-50-22.386-50-50h50m.25-.25h-50.5v.25c0,27.708,22.542,50.25,50.25,50.25h.25v-50.5h0Z" fill="#0aa7ff"/>
      </g>
      <g>
        <path d="M1558.875,500.125v-.125c0-27.639,22.486-50.125,50.125-50.125h.125v50.25h-50.25Z" fill="#0aa7ff"/>
        <path d="M1609,450v50h-50c0-27.614,22.386-50,50-50m.25-.25h-.25c-27.708,0-50.25,22.542-50.25,50.25v.25h50.5v-50.5h0Z" fill="#0aa7ff"/>
      </g>
      <g>
        <path d="M1608.875,500.125v-50.25h.125c27.639,0,50.125,22.486,50.125,50.125v.125h-50.25Z" fill="#0aa7ff"/>
        <path d="M1609,450c27.614,0,50,22.386,50,50h-50v-50m0-.25h-.25v50.5h50.5v-.25c0-27.708-22.542-50.25-50.25-50.25h0Z" fill="#0aa7ff"/>
      </g>
      <g>
        <path d="M1608.875,550.125v-50.25h50.25v.125c0,27.639-22.486,50.125-50.125,50.125h-.125Z" fill="#0aa7ff"/>
        <path d="M1659,500c0,27.614-22.386,50-50,50v-50h50m.25-.25h-50.5v50.5h.25c27.708,0,50.25-22.542,50.25-50.25v-.25h0Z" fill="#0aa7ff"/>
      </g>
      <g>
        <path d="M1609,550.125c-27.639,0-50.125-22.486-50.125-50.125v-.125h50.25v50.25h-.125Z" fill="#0aa7ff"/>
        <path d="M1609,500v50c-27.614,0-50-22.386-50-50h50m.25-.25h-50.5v.25c0,27.708,22.542,50.25,50.25,50.25h.25v-50.5h0Z" fill="#0aa7ff"/>
      </g>
      <g>
        <path d="M1558.875,600.125v-.125c0-27.639,22.486-50.125,50.125-50.125h.125v50.25h-50.25Z" fill="#0aa7ff"/>
        <path d="M1609,550v50h-50c0-27.614,22.386-50,50-50m.25-.25h-.25c-27.708,0-50.25,22.542-50.25,50.25v.25h50.5v-50.5h0Z" fill="#0aa7ff"/>
      </g>
      <g>
        <path d="M1608.875,600.125v-50.25h.125c27.639,0,50.125,22.486,50.125,50.125v.125h-50.25Z" fill="#0aa7ff"/>
        <path d="M1609,550c27.614,0,50,22.386,50,50h-50v-50m0-.25h-.25v50.5h50.5v-.25c0-27.708-22.542-50.25-50.25-50.25h0Z" fill="#0aa7ff"/>
      </g>
      <g>
        <path d="M1558.875,700.125v-.125c0-27.639,22.486-50.125,50.125-50.125h.125v50.25h-50.25Z" fill="#0aa7ff"/>
        <path d="M1609,650v50h-50c0-27.614,22.386-50,50-50m.25-.25h-.25c-27.708,0-50.25,22.542-50.25,50.25v.25h50.5v-50.5h0Z" fill="#0aa7ff"/>
      </g>
      <g>
        <path d="M1608.875,700.125v-50.25h.125c27.639,0,50.125,22.486,50.125,50.125v.125h-50.25Z" fill="#0aa7ff"/>
        <path d="M1609,650c27.614,0,50,22.386,50,50h-50v-50m0-.25h-.25v50.5h50.5v-.25c0-27.708-22.542-50.25-50.25-50.25h0Z" fill="#0aa7ff"/>
      </g>
      <g>
        <path d="M1608.875,650.125v-50.25h50.25v.125c0,27.639-22.486,50.125-50.125,50.125h-.125Z" fill="#0aa7ff"/>
        <path d="M1659,600c0,27.614-22.386,50-50,50v-50h50m.25-.25h-50.5v50.5h.25c27.708,0,50.25-22.542,50.25-50.25v-.25h0Z" fill="#0aa7ff"/>
      </g>
      <g>
        <path d="M1609,650.125c-27.639,0-50.125-22.486-50.125-50.125v-.125h50.25v50.25h-.125Z" fill="#0aa7ff"/>
        <path d="M1609,600v50c-27.614,0-50-22.386-50-50h50m.25-.25h-50.5v.25c0,27.708,22.542,50.25,50.25,50.25h.25v-50.5h0Z" fill="#0aa7ff"/>
      </g>
      <g>
        <path d="M1608.875,350.125v-50.25h50.25v.125c0,27.639-22.486,50.125-50.125,50.125h-.125Z" fill="#0aa7ff"/>
        <path d="M1659,300c0,27.614-22.386,50-50,50v-50h50m.25-.25h-50.5v50.5h.25c27.708,0,50.25-22.542,50.25-50.25v-.25h0Z" fill="#0aa7ff"/>
      </g>
    </g>
    <g>
      <g>
        <g>
          <path d="M2320,550.125c-27.639,0-50.125-22.486-50.125-50.125v-.125h50.25v50.25h-.125Z" fill="#fff"/>
          <path d="M2320,500v50c-27.614,0-50-22.386-50-50h50m.25-.25h-50.5v.25c0,27.708,22.542,50.25,50.25,50.25h.25v-50.5h0Z" fill="#fff"/>
        </g>
        <g>
          <path d="M2320,450.125c-27.639,0-50.125-22.486-50.125-50.125v-.125h50.25v50.25h-.125Z" fill="#fff"/>
          <path d="M2320,400v50c-27.614,0-50-22.386-50-50h50m.25-.25h-50.5v.25c0,27.708,22.542,50.25,50.25,50.25h.25v-50.5h0Z" fill="#fff"/>
        </g>
        <g>
          <path d="M2269.875,500.125v-.125c0-27.639,22.486-50.125,50.125-50.125h.125v50.25h-50.25Z" fill="#fff"/>
          <path d="M2320,450v50h-50c0-27.614,22.386-50,50-50m.25-.25h-.25c-27.708,0-50.25,22.542-50.25,50.25v.25h50.5v-50.5h0Z" fill="#fff"/>
        </g>
        <g>
          <path d="M2269.875,700.125v-.125c0-27.639,22.486-50.125,50.125-50.125h.125v50.25h-50.25Z" fill="#fff"/>
          <path d="M2320,650v50h-50c0-27.614,22.386-50,50-50m.25-.25h-.25c-27.708,0-50.25,22.542-50.25,50.25v.25h50.5v-50.5h0Z" fill="#fff"/>
        </g>
        <g>
          <path d="M2320,750.125c-27.639,0-50.125-22.486-50.125-50.125v-.125h50.25v50.25h-.125Z" fill="#fff"/>
          <path d="M2320,700v50c-27.614,0-50-22.386-50-50h50m.25-.25h-50.5v.25c0,27.708,22.542,50.25,50.25,50.25h.25v-50.5h0Z" fill="#fff"/>
        </g>
        <g>
          <path d="M2319.875,550.125v-50.25h50.25v.125c0,27.639-22.486,50.125-50.125,50.125h-.125Z" fill="#fff"/>
          <path d="M2370,500c0,27.614-22.386,50-50,50v-50h50m.25-.25h-50.5v50.5h.25c27.708,0,50.25-22.542,50.25-50.25v-.25h0Z" fill="#fff"/>
        </g>
        <g>
          <path d="M2319.875,500.125v-50.25h.125c27.639,0,50.125,22.486,50.125,50.125v.125h-50.25Z" fill="#fff"/>
          <path d="M2320,450c27.614,0,50,22.386,50,50h-50v-50m0-.25h-.25v50.5h50.5v-.25c0-27.708-22.542-50.25-50.25-50.25h0Z" fill="#fff"/>
        </g>
        <g>
          <path d="M2319.875,450.125v-50.25h50.25v.125c0,27.639-22.486,50.125-50.125,50.125h-.125Z" fill="#fff"/>
          <path d="M2370,400c0,27.614-22.386,50-50,50v-50h50m.25-.25h-50.5v50.5h.25c27.708,0,50.25-22.542,50.25-50.25v-.25h0Z" fill="#fff"/>
        </g>
        <g>
          <path d="M2319.875,700.125v-50.25h.125c27.639,0,50.125,22.486,50.125,50.125v.125h-50.25Z" fill="#fff"/>
          <path d="M2320,650c27.614,0,50,22.386,50,50h-50v-50m0-.25h-.25v50.5h50.5v-.25c0-27.708-22.542-50.25-50.25-50.25h0Z" fill="#fff"/>
        </g>
        <g>
          <path d="M2319.875,750.125v-50.25h50.25v.125c0,27.639-22.486,50.125-50.125,50.125h-.125Z" fill="#fff"/>
          <path d="M2370,700c0,27.614-22.386,50-50,50v-50h50m.25-.25h-50.5v50.5h.25c27.708,0,50.25-22.542,50.25-50.25v-.25h0Z" fill="#fff"/>
        </g>
        <g>
          <path d="M2320,150.125c-27.639,0-50.125-22.486-50.125-50.125v-.125h50.25v50.25h-.125Z" fill="#fff"/>
          <path d="M2320,100v50c-27.614,0-50-22.386-50-50h50m.25-.25h-50.5v.25c0,27.708,22.542,50.25,50.25,50.25h.25v-50.5h0Z" fill="#fff"/>
        </g>
        <g>
          <path d="M2269.875,200.125v-.125c0-27.639,22.486-50.125,50.125-50.125h.125v50.25h-50.25Z" fill="#fff"/>
          <path d="M2320,150v50h-50c0-27.614,22.386-50,50-50m.25-.25h-.25c-27.708,0-50.25,22.542-50.25,50.25v.25h50.5v-50.5h0Z" fill="#fff"/>
        </g>
        <g>
          <path d="M2269.875,100.125v-.125c0-27.639,22.486-50.125,50.125-50.125h.125v50.25h-50.25Z" fill="#fff"/>
          <path d="M2320,50v50h-50c0-27.614,22.386-50,50-50m.25-.25h-.25c-27.708,0-50.25,22.542-50.25,50.25v.25h50.5V49.75h0Z" fill="#fff"/>
        </g>
        <g>
          <path d="M2320,250.125c-27.639,0-50.125-22.486-50.125-50.125v-.125h50.25v50.25h-.125Z" fill="#fff"/>
          <path d="M2320,200v50c-27.614,0-50-22.386-50-50h50m.25-.25h-50.5v.25c0,27.708,22.542,50.25,50.25,50.25h.25v-50.5h0Z" fill="#fff"/>
        </g>
        <g>
          <path d="M2269.875,300.125v-.125c0-27.639,22.486-50.125,50.125-50.125h.125v50.25h-50.25Z" fill="#fff"/>
          <path d="M2320,250v50h-50c0-27.614,22.386-50,50-50m.25-.25h-.25c-27.708,0-50.25,22.542-50.25,50.25v.25h50.5v-50.5h0Z" fill="#fff"/>
        </g>
        <g>
          <path d="M2320,350.125c-27.639,0-50.125-22.486-50.125-50.125v-.125h50.25v50.25h-.125Z" fill="#fff"/>
          <path d="M2320,300v50c-27.614,0-50-22.386-50-50h50m.25-.25h-50.5v.25c0,27.708,22.542,50.25,50.25,50.25h.25v-50.5h0Z" fill="#fff"/>
        </g>
        <g>
          <path d="M2269.875,400.125v-.125c0-27.639,22.486-50.125,50.125-50.125h.125v50.25h-50.25Z" fill="#fff"/>
          <path d="M2320,350v50h-50c0-27.614,22.386-50,50-50m.25-.25h-.25c-27.708,0-50.25,22.542-50.25,50.25v.25h50.5v-50.5h0Z" fill="#fff"/>
        </g>
        <g>
          <path d="M2319.875,200.125v-50.25h.125c27.639,0,50.125,22.486,50.125,50.125v.125h-50.25Z" fill="#fff"/>
          <path d="M2320,150c27.614,0,50,22.386,50,50h-50v-50m0-.25h-.25v50.5h50.5v-.25c0-27.708-22.542-50.25-50.25-50.25h0Z" fill="#fff"/>
        </g>
        <g>
          <path d="M2319.875,150.125v-50.25h50.25v.125c0,27.639-22.486,50.125-50.125,50.125h-.125Z" fill="#fff"/>
          <path d="M2370,100c0,27.614-22.386,50-50,50v-50h50m.25-.25h-50.5v50.5h.25c27.708,0,50.25-22.542,50.25-50.25v-.25h0Z" fill="#fff"/>
        </g>
        <g>
          <path d="M2319.875,100.125V49.875h.125c27.639,0,50.125,22.486,50.125,50.125v.125h-50.25Z" fill="#fff"/>
          <path d="M2320,50c27.614,0,50,22.386,50,50h-50V50m0-.25h-.25v50.5h50.5v-.25c0-27.708-22.542-50.25-50.25-50.25h0Z" fill="#fff"/>
        </g>
        <g>
          <path d="M2319.875,300.125v-50.25h.125c27.639,0,50.125,22.486,50.125,50.125v.125h-50.25Z" fill="#fff"/>
          <path d="M2320,250c27.614,0,50,22.386,50,50h-50v-50m0-.25h-.25v50.5h50.5v-.25c0-27.708-22.542-50.25-50.25-50.25h0Z" fill="#fff"/>
        </g>
        <g>
          <path d="M2319.875,250.125v-50.25h50.25v.125c0,27.639-22.486,50.125-50.125,50.125h-.125Z" fill="#fff"/>
          <path d="M2370,200c0,27.614-22.386,50-50,50v-50h50m.25-.25h-50.5v50.5h.25c27.708,0,50.25-22.542,50.25-50.25v-.25h0Z" fill="#fff"/>
        </g>
        <g>
          <path d="M2319.875,400.125v-50.25h.125c27.639,0,50.125,22.486,50.125,50.125v.125h-50.25Z" fill="#fff"/>
          <path d="M2320,350c27.614,0,50,22.386,50,50h-50v-50m0-.25h-.25v50.5h50.5v-.25c0-27.708-22.542-50.25-50.25-50.25h0Z" fill="#fff"/>
        </g>
        <g>
          <path d="M2319.875,350.125v-50.25h50.25v.125c0,27.639-22.486,50.125-50.125,50.125h-.125Z" fill="#fff"/>
          <path d="M2370,300c0,27.614-22.386,50-50,50v-50h50m.25-.25h-50.5v50.5h.25c27.708,0,50.25-22.542,50.25-50.25v-.25h0Z" fill="#fff"/>
        </g>
        <g>
          <path d="M2269.875,600c0-27.501-22.374-49.875-49.875-49.875v-.25c27.501,0,49.875-22.374,49.875-49.875h.25c0,27.501,22.374,49.875,49.875,49.875v.25c-27.501,0-49.875,22.374-49.875,49.875h-.25Z" fill="#a54aff"/>
          <path d="M2270,500c0,27.614,22.386,50,50,50-27.614,0-50,22.386-50,50,0-27.614-22.386-50-50-50,27.614,0,50-22.386,50-50m.25,0h-.5c0,27.432-22.318,49.75-49.75,49.75v.5c27.432,0,49.75,22.318,49.75,49.75h.5c0-27.432,22.318-49.75,49.75-49.75v-.5c-27.432,0-49.75-22.318-49.75-49.75h0Z" fill="#a54aff"/>
        </g>
        <g>
          <path d="M2269.875,500c0-27.501-22.374-49.875-49.875-49.875v-.25c27.501,0,49.875-22.374,49.875-49.875h.25c0,27.501,22.374,49.875,49.875,49.875v.25c-27.501,0-49.875,22.374-49.875,49.875h-.25Z" fill="#a54aff"/>
          <path d="M2270,400c0,27.614,22.386,50,50,50-27.614,0-50,22.386-50,50,0-27.614-22.386-50-50-50,27.614,0,50-22.386,50-50m.25,0h-.5c0,27.432-22.318,49.75-49.75,49.75v.5c27.432,0,49.75,22.318,49.75,49.75h.5c0-27.432,22.318-49.75,49.75-49.75v-.5c-27.432,0-49.75-22.318-49.75-49.75h0Z" fill="#a54aff"/>
        </g>
        <g>
          <path d="M2269.875,700c0-27.501-22.374-49.875-49.875-49.875v-.25c27.501,0,49.875-22.374,49.875-49.875h.25c0,27.501,22.374,49.875,49.875,49.875v.25c-27.501,0-49.875,22.374-49.875,49.875h-.25Z" fill="#a54aff"/>
          <path d="M2270,600c0,27.614,22.386,50,50,50-27.614,0-50,22.386-50,50,0-27.614-22.386-50-50-50,27.614,0,50-22.386,50-50m.25,0h-.5c0,27.432-22.318,49.75-49.75,49.75v.5c27.432,0,49.75,22.318,49.75,49.75h.5c0-27.432,22.318-49.75,49.75-49.75v-.5c-27.432,0-49.75-22.318-49.75-49.75h0Z" fill="#a54aff"/>
        </g>
        <g>
          <path d="M2269.875,800c0-27.501-22.374-49.875-49.875-49.875v-.25c27.501,0,49.875-22.374,49.875-49.875h.25c0,27.501,22.374,49.875,49.875,49.875v.25c-27.501,0-49.875,22.374-49.875,49.875h-.25Z" fill="#a54aff"/>
          <path d="M2270,700c0,27.614,22.386,50,50,50-27.614,0-50,22.386-50,50,0-27.614-22.386-50-50-50,27.614,0,50-22.386,50-50m.25,0h-.5c0,27.432-22.318,49.75-49.75,49.75v.5c27.432,0,49.75,22.318,49.75,49.75h.5c0-27.432,22.318-49.75,49.75-49.75v-.5c-27.432,0-49.75-22.318-49.75-49.75h0Z" fill="#a54aff"/>
        </g>
        <g>
          <path d="M2369.875,600c0-27.501-22.374-49.875-49.875-49.875v-.25c27.501,0,49.875-22.374,49.875-49.875h.25c0,27.501,22.374,49.875,49.875,49.875v.25c-27.501,0-49.875,22.374-49.875,49.875h-.25Z" fill="#a54aff"/>
          <path d="M2370,500c0,27.614,22.386,50,50,50-27.614,0-50,22.386-50,50,0-27.614-22.386-50-50-50,27.614,0,50-22.386,50-50m.25,0h-.5c0,27.432-22.318,49.75-49.75,49.75v.5c27.432,0,49.75,22.318,49.75,49.75h.5c0-27.432,22.318-49.75,49.75-49.75v-.5c-27.432,0-49.75-22.318-49.75-49.75h0Z" fill="#a54aff"/>
        </g>
        <g>
          <path d="M2369.875,500c0-27.501-22.374-49.875-49.875-49.875v-.25c27.501,0,49.875-22.374,49.875-49.875h.25c0,27.501,22.374,49.875,49.875,49.875v.25c-27.501,0-49.875,22.374-49.875,49.875h-.25Z" fill="#a54aff"/>
          <path d="M2370,400c0,27.614,22.386,50,50,50-27.614,0-50,22.386-50,50,0-27.614-22.386-50-50-50,27.614,0,50-22.386,50-50m.25,0h-.5c0,27.432-22.318,49.75-49.75,49.75v.5c27.432,0,49.75,22.318,49.75,49.75h.5c0-27.432,22.318-49.75,49.75-49.75v-.5c-27.432,0-49.75-22.318-49.75-49.75h0Z" fill="#a54aff"/>
        </g>
        <g>
          <path d="M2369.875,700c0-27.501-22.374-49.875-49.875-49.875v-.25c27.501,0,49.875-22.374,49.875-49.875h.25c0,27.501,22.374,49.875,49.875,49.875v.25c-27.501,0-49.875,22.374-49.875,49.875h-.25Z" fill="#a54aff"/>
          <path d="M2370,600c0,27.614,22.386,50,50,50-27.614,0-50,22.386-50,50,0-27.614-22.386-50-50-50,27.614,0,50-22.386,50-50m.25,0h-.5c0,27.432-22.318,49.75-49.75,49.75v.5c27.432,0,49.75,22.318,49.75,49.75h.5c0-27.432,22.318-49.75,49.75-49.75v-.5c-27.432,0-49.75-22.318-49.75-49.75h0Z" fill="#a54aff"/>
        </g>
        <g>
          <path d="M2369.875,800c0-27.501-22.374-49.875-49.875-49.875v-.25c27.501,0,49.875-22.374,49.875-49.875h.25c0,27.501,22.374,49.875,49.875,49.875v.25c-27.501,0-49.875,22.374-49.875,49.875h-.25Z" fill="#a54aff"/>
          <path d="M2370,700c0,27.614,22.386,50,50,50-27.614,0-50,22.386-50,50,0-27.614-22.386-50-50-50,27.614,0,50-22.386,50-50m.25,0h-.5c0,27.432-22.318,49.75-49.75,49.75v.5c27.432,0,49.75,22.318,49.75,49.75h.5c0-27.432,22.318-49.75,49.75-49.75v-.5c-27.432,0-49.75-22.318-49.75-49.75h0Z" fill="#a54aff"/>
        </g>
        <g>
          <path d="M2269.875,200c0-27.501-22.374-49.875-49.875-49.875v-.25c27.501,0,49.875-22.374,49.875-49.875h.25c0,27.501,22.374,49.875,49.875,49.875v.25c-27.501,0-49.875,22.374-49.875,49.875h-.25Z" fill="#a54aff"/>
          <path d="M2270,100c0,27.614,22.386,50,50,50-27.614,0-50,22.386-50,50,0-27.614-22.386-50-50-50,27.614,0,50-22.386,50-50m.25,0h-.5c0,27.432-22.318,49.75-49.75,49.75v.5c27.432,0,49.75,22.318,49.75,49.75h.5c0-27.432,22.318-49.75,49.75-49.75v-.5c-27.432,0-49.75-22.318-49.75-49.75h0Z" fill="#a54aff"/>
        </g>
        <g>
          <path d="M2269.875,100c0-27.501-22.374-49.875-49.875-49.875v-.25c27.501,0,49.875-22.374,49.875-49.875h.25c0,27.501,22.374,49.875,49.875,49.875v.25c-27.501,0-49.875,22.374-49.875,49.875h-.25Z" fill="#a54aff"/>
          <path d="M2270,0c0,27.614,22.386,50,50,50-27.614,0-50,22.386-50,50,0-27.614-22.386-50-50-50,27.614,0,50-22.386,50-50m.25,0h-.5c0,27.432-22.318,49.75-49.75,49.75v.5c27.432,0,49.75,22.318,49.75,49.75h.5c0-27.432,22.318-49.75,49.75-49.75v-.5c-27.432,0-49.75-22.318-49.75-49.75h0Z" fill="#a54aff"/>
        </g>
        <g>
          <path d="M2269.875,300c0-27.501-22.374-49.875-49.875-49.875v-.25c27.501,0,49.875-22.374,49.875-49.875h.25c0,27.501,22.374,49.875,49.875,49.875v.25c-27.501,0-49.875,22.374-49.875,49.875h-.25Z" fill="#a54aff"/>
          <path d="M2270,200c0,27.614,22.386,50,50,50-27.614,0-50,22.386-50,50,0-27.614-22.386-50-50-50,27.614,0,50-22.386,50-50m.25,0h-.5c0,27.432-22.318,49.75-49.75,49.75v.5c27.432,0,49.75,22.318,49.75,49.75h.5c0-27.432,22.318-49.75,49.75-49.75v-.5c-27.432,0-49.75-22.318-49.75-49.75h0Z" fill="#a54aff"/>
        </g>
        <g>
          <path d="M2269.875,400c0-27.501-22.374-49.875-49.875-49.875v-.25c27.501,0,49.875-22.374,49.875-49.875h.25c0,27.501,22.374,49.875,49.875,49.875v.25c-27.501,0-49.875,22.374-49.875,49.875h-.25Z" fill="#a54aff"/>
          <path d="M2270,300c0,27.614,22.386,50,50,50-27.614,0-50,22.386-50,50,0-27.614-22.386-50-50-50,27.614,0,50-22.386,50-50m.25,0h-.5c0,27.432-22.318,49.75-49.75,49.75v.5c27.432,0,49.75,22.318,49.75,49.75h.5c0-27.432,22.318-49.75,49.75-49.75v-.5c-27.432,0-49.75-22.318-49.75-49.75h0Z" fill="#a54aff"/>
        </g>
        <g>
          <path d="M2369.875,200c0-27.501-22.374-49.875-49.875-49.875v-.25c27.501,0,49.875-22.374,49.875-49.875h.25c0,27.501,22.374,49.875,49.875,49.875v.25c-27.501,0-49.875,22.374-49.875,49.875h-.25Z" fill="#a54aff"/>
          <path d="M2370,100c0,27.614,22.386,50,50,50-27.614,0-50,22.386-50,50,0-27.614-22.386-50-50-50,27.614,0,50-22.386,50-50m.25,0h-.5c0,27.432-22.318,49.75-49.75,49.75v.5c27.432,0,49.75,22.318,49.75,49.75h.5c0-27.432,22.318-49.75,49.75-49.75v-.5c-27.432,0-49.75-22.318-49.75-49.75h0Z" fill="#a54aff"/>
        </g>
        <g>
          <path d="M2369.875,100c0-27.501-22.374-49.875-49.875-49.875v-.25c27.501,0,49.875-22.374,49.875-49.875h.25c0,27.501,22.374,49.875,49.875,49.875v.25c-27.501,0-49.875,22.374-49.875,49.875h-.25Z" fill="#a54aff"/>
          <path d="M2370,0c0,27.614,22.386,50,50,50-27.614,0-50,22.386-50,50,0-27.614-22.386-50-50-50,27.614,0,50-22.386,50-50m.25,0h-.5c0,27.432-22.318,49.75-49.75,49.75v.5c27.432,0,49.75,22.318,49.75,49.75h.5c0-27.432,22.318-49.75,49.75-49.75v-.5c-27.432,0-49.75-22.318-49.75-49.75h0Z" fill="#a54aff"/>
        </g>
        <g>
          <path d="M2369.875,300c0-27.501-22.374-49.875-49.875-49.875v-.25c27.501,0,49.875-22.374,49.875-49.875h.25c0,27.501,22.374,49.875,49.875,49.875v.25c-27.501,0-49.875,22.374-49.875,49.875h-.25Z" fill="#a54aff"/>
          <path d="M2370,200c0,27.614,22.386,50,50,50-27.614,0-50,22.386-50,50,0-27.614-22.386-50-50-50,27.614,0,50-22.386,50-50m.25,0h-.5c0,27.432-22.318,49.75-49.75,49.75v.5c27.432,0,49.75,22.318,49.75,49.75h.5c0-27.432,22.318-49.75,49.75-49.75v-.5c-27.432,0-49.75-22.318-49.75-49.75h0Z" fill="#a54aff"/>
        </g>
        <g>
          <path d="M2369.875,400c0-27.501-22.374-49.875-49.875-49.875v-.25c27.501,0,49.875-22.374,49.875-49.875h.25c0,27.501,22.374,49.875,49.875,49.875v.25c-27.501,0-49.875,22.374-49.875,49.875h-.25Z" fill="#a54aff"/>
          <path d="M2370,300c0,27.614,22.386,50,50,50-27.614,0-50,22.386-50,50,0-27.614-22.386-50-50-50,27.614,0,50-22.386,50-50m.25,0h-.5c0,27.432-22.318,49.75-49.75,49.75v.5c27.432,0,49.75,22.318,49.75,49.75h.5c0-27.432,22.318-49.75,49.75-49.75v-.5c-27.432,0-49.75-22.318-49.75-49.75h0Z" fill="#a54aff"/>
        </g>
      </g>
      <g>
        <g>
          <path d="M579.875,600.125v-.125c0-27.639,22.486-50.125,50.125-50.125h.125v50.25h-50.25Z" fill="#fff"/>
          <path d="M630,550v50h-50c0-27.614,22.386-50,50-50m.25-.25h-.25c-27.708,0-50.25,22.542-50.25,50.25v.25h50.5v-50.5h0Z" fill="#fff"/>
        </g>
        <g>
          <path d="M629.875,550.125v-50.25h50.25v.125c0,27.639-22.486,50.125-50.125,50.125h-.125Z" fill="#fff"/>
          <path d="M680,500c0,27.614-22.386,50-50,50v-50h50m.25-.25h-50.5v50.5h.25c27.708,0,50.25-22.542,50.25-50.25v-.25h0Z" fill="#fff"/>
        </g>
        <g>
          <path d="M579.875,500.125v-.125c0-27.639,22.486-50.125,50.125-50.125h.125v50.25h-50.25Z" fill="#fff"/>
          <path d="M630,450v50h-50c0-27.614,22.386-50,50-50m.25-.25h-.25c-27.708,0-50.25,22.542-50.25,50.25v.25h50.5v-50.5h0Z" fill="#fff"/>
        </g>
        <g>
          <path d="M629.875,450.125v-50.25h50.25v.125c0,27.639-22.486,50.125-50.125,50.125h-.125Z" fill="#fff"/>
          <path d="M680,400c0,27.614-22.386,50-50,50v-50h50m.25-.25h-50.5v50.5h.25c27.708,0,50.25-22.542,50.25-50.25v-.25h0Z" fill="#fff"/>
        </g>
        <g>
          <path d="M729.875,450.125v-50.25h50.25v.125c0,27.639-22.486,50.125-50.125,50.125h-.125Z" fill="#fff"/>
          <path d="M780,400c0,27.614-22.386,50-50,50v-50h50m.25-.25h-50.5v50.5h.25c27.708,0,50.25-22.542,50.25-50.25v-.25h0Z" fill="#fff"/>
        </g>
        <g>
          <path d="M579.875,700.125v-.125c0-27.639,22.486-50.125,50.125-50.125h.125v50.25h-50.25Z" fill="#fff"/>
          <path d="M630,650v50h-50c0-27.614,22.386-50,50-50m.25-.25h-.25c-27.708,0-50.25,22.542-50.25,50.25v.25h50.5v-50.5h0Z" fill="#fff"/>
        </g>
        <g>
          <path d="M629.875,650.125v-50.25h50.25v.125c0,27.639-22.486,50.125-50.125,50.125h-.125Z" fill="#fff"/>
          <path d="M680,600c0,27.614-22.386,50-50,50v-50h50m.25-.25h-50.5v50.5h.25c27.708,0,50.25-22.542,50.25-50.25v-.25h0Z" fill="#fff"/>
        </g>
        <g>
          <path d="M979.875,600.125v-.125c0-27.639,22.486-50.125,50.125-50.125h.125v50.25h-50.25Z" fill="#fff"/>
          <path d="M1030,550v50h-50c0-27.614,22.386-50,50-50m.25-.25h-.25c-27.708,0-50.25,22.542-50.25,50.25v.25h50.5v-50.5h0Z" fill="#fff"/>
        </g>
        <g>
          <path d="M1029.875,550.125v-50.25h50.25v.125c0,27.639-22.486,50.125-50.125,50.125h-.125Z" fill="#fff"/>
          <path d="M1080,500c0,27.614-22.386,50-50,50v-50h50m.25-.25h-50.5v50.5h.25c27.708,0,50.25-22.542,50.25-50.25v-.25h0Z" fill="#fff"/>
        </g>
        <g>
          <path d="M829.875,450.125v-50.25h50.25v.125c0,27.639-22.486,50.125-50.125,50.125h-.125Z" fill="#fff"/>
          <path d="M880,400c0,27.614-22.386,50-50,50v-50h50m.25-.25h-50.5v50.5h.25c27.708,0,50.25-22.542,50.25-50.25v-.25h0Z" fill="#fff"/>
        </g>
        <g>
          <path d="M979.875,500.125v-.125c0-27.639,22.486-50.125,50.125-50.125h.125v50.25h-50.25Z" fill="#fff"/>
          <path d="M1030,450v50h-50c0-27.614,22.386-50,50-50m.25-.25h-.25c-27.708,0-50.25,22.542-50.25,50.25v.25h50.5v-50.5h0Z" fill="#fff"/>
        </g>
        <g>
          <path d="M929.875,450.125v-50.25h50.25v.125c0,27.639-22.486,50.125-50.125,50.125h-.125Z" fill="#fff"/>
          <path d="M980,400c0,27.614-22.386,50-50,50v-50h50m.25-.25h-50.5v50.5h.25c27.708,0,50.25-22.542,50.25-50.25v-.25h0Z" fill="#fff"/>
        </g>
        <g>
          <path d="M1029.875,450.125v-50.25h50.25v.125c0,27.639-22.486,50.125-50.125,50.125h-.125Z" fill="#fff"/>
          <path d="M1080,400c0,27.614-22.386,50-50,50v-50h50m.25-.25h-50.5v50.5h.25c27.708,0,50.25-22.542,50.25-50.25v-.25h0Z" fill="#fff"/>
        </g>
        <g>
          <path d="M979.875,700.125v-.125c0-27.639,22.486-50.125,50.125-50.125h.125v50.25h-50.25Z" fill="#fff"/>
          <path d="M1030,650v50h-50c0-27.614,22.386-50,50-50m.25-.25h-.25c-27.708,0-50.25,22.542-50.25,50.25v.25h50.5v-50.5h0Z" fill="#fff"/>
        </g>
        <g>
          <path d="M1029.875,650.125v-50.25h50.25v.125c0,27.639-22.486,50.125-50.125,50.125h-.125Z" fill="#fff"/>
          <path d="M1080,600c0,27.614-22.386,50-50,50v-50h50m.25-.25h-50.5v50.5h.25c27.708,0,50.25-22.542,50.25-50.25v-.25h0Z" fill="#fff"/>
        </g>
        <g>
          <path d="M1029.875,750.125v-50.25h50.25v.125c0,27.639-22.486,50.125-50.125,50.125h-.125Z" fill="#fff"/>
          <path d="M1080,700c0,27.614-22.386,50-50,50v-50h50m.25-.25h-50.5v50.5h.25c27.708,0,50.25-22.542,50.25-50.25v-.25h0Z" fill="#fff"/>
        </g>
        <g>
          <path d="M679.875,200.125v-.125c0-27.639,22.486-50.125,50.125-50.125h.125v50.25h-50.25Z" fill="#fff"/>
          <path d="M730,150v50h-50c0-27.614,22.386-50,50-50m.25-.25h-.25c-27.708,0-50.25,22.542-50.25,50.25v.25h50.5v-50.5h0Z" fill="#fff"/>
        </g>
        <g>
          <path d="M779.875,100.125v-.125c0-27.639,22.486-50.125,50.125-50.125h.125v50.25h-50.25Z" fill="#fff"/>
          <path d="M830,50v50h-50c0-27.614,22.386-50,50-50m.25-.25h-.25c-27.708,0-50.25,22.542-50.25,50.25v.25h50.5V49.75h0Z" fill="#fff"/>
        </g>
        <g>
          <path d="M579.875,300.125v-.125c0-27.639,22.486-50.125,50.125-50.125h.125v50.25h-50.25Z" fill="#fff"/>
          <path d="M630,250v50h-50c0-27.614,22.386-50,50-50m.25-.25h-.25c-27.708,0-50.25,22.542-50.25,50.25v.25h50.5v-50.5h0Z" fill="#fff"/>
        </g>
        <g>
          <path d="M729.875,250.125v-50.25h50.25v.125c0,27.639-22.486,50.125-50.125,50.125h-.125Z" fill="#fff"/>
          <path d="M780,200c0,27.614-22.386,50-50,50v-50h50m.25-.25h-50.5v50.5h.25c27.708,0,50.25-22.542,50.25-50.25v-.25h0Z" fill="#fff"/>
        </g>
        <g>
          <path d="M579.875,400.125v-.125c0-27.639,22.486-50.125,50.125-50.125h.125v50.25h-50.25Z" fill="#fff"/>
          <path d="M630,350v50h-50c0-27.614,22.386-50,50-50m.25-.25h-.25c-27.708,0-50.25,22.542-50.25,50.25v.25h50.5v-50.5h0Z" fill="#fff"/>
        </g>
        <g>
          <path d="M679.875,400.125v-.125c0-27.639,22.486-50.125,50.125-50.125h.125v50.25h-50.25Z" fill="#fff"/>
          <path d="M730,350v50h-50c0-27.614,22.386-50,50-50m.25-.25h-.25c-27.708,0-50.25,22.542-50.25,50.25v.25h50.5v-50.5h0Z" fill="#fff"/>
        </g>
        <g>
          <path d="M629.875,350.125v-50.25h50.25v.125c0,27.639-22.486,50.125-50.125,50.125h-.125Z" fill="#fff"/>
          <path d="M680,300c0,27.614-22.386,50-50,50v-50h50m.25-.25h-50.5v50.5h.25c27.708,0,50.25-22.542,50.25-50.25v-.25h0Z" fill="#fff"/>
        </g>
        <g>
          <path d="M779.875,400.125v-.125c0-27.639,22.486-50.125,50.125-50.125h.125v50.25h-50.25Z" fill="#fff"/>
          <path d="M830,350v50h-50c0-27.614,22.386-50,50-50m.25-.25h-.25c-27.708,0-50.25,22.542-50.25,50.25v.25h50.5v-50.5h0Z" fill="#fff"/>
        </g>
        <g>
          <path d="M879.875,200.125v-.125c0-27.639,22.486-50.125,50.125-50.125h.125v50.25h-50.25Z" fill="#fff"/>
          <path d="M930,150v50h-50c0-27.614,22.386-50,50-50m.25-.25h-.25c-27.708,0-50.25,22.542-50.25,50.25v.25h50.5v-50.5h0Z" fill="#fff"/>
        </g>
        <g>
          <path d="M829.875,150.125v-50.25h50.25v.125c0,27.639-22.486,50.125-50.125,50.125h-.125Z" fill="#fff"/>
          <path d="M880,100c0,27.614-22.386,50-50,50v-50h50m.25-.25h-50.5v50.5h.25c27.708,0,50.25-22.542,50.25-50.25v-.25h0Z" fill="#fff"/>
        </g>
        <g>
          <path d="M979.875,300.125v-.125c0-27.639,22.486-50.125,50.125-50.125h.125v50.25h-50.25Z" fill="#fff"/>
          <path d="M1030,250v50h-50c0-27.614,22.386-50,50-50m.25-.25h-.25c-27.708,0-50.25,22.542-50.25,50.25v.25h50.5v-50.5h0Z" fill="#fff"/>
        </g>
        <g>
          <path d="M929.875,250.125v-50.25h50.25v.125c0,27.639-22.486,50.125-50.125,50.125h-.125Z" fill="#fff"/>
          <path d="M980,200c0,27.614-22.386,50-50,50v-50h50m.25-.25h-50.5v50.5h.25c27.708,0,50.25-22.542,50.25-50.25v-.25h0Z" fill="#fff"/>
        </g>
        <g>
          <path d="M879.875,400.125v-.125c0-27.639,22.486-50.125,50.125-50.125h.125v50.25h-50.25Z" fill="#fff"/>
          <path d="M930,350v50h-50c0-27.614,22.386-50,50-50m.25-.25h-.25c-27.708,0-50.25,22.542-50.25,50.25v.25h50.5v-50.5h0Z" fill="#fff"/>
        </g>
        <g>
          <path d="M979.875,400.125v-.125c0-27.639,22.486-50.125,50.125-50.125h.125v50.25h-50.25Z" fill="#fff"/>
          <path d="M1030,350v50h-50c0-27.614,22.386-50,50-50m.25-.25h-.25c-27.708,0-50.25,22.542-50.25,50.25v.25h50.5v-50.5h0Z" fill="#fff"/>
        </g>
        <g>
          <path d="M1029.875,350.125v-50.25h50.25v.125c0,27.639-22.486,50.125-50.125,50.125h-.125Z" fill="#fff"/>
          <path d="M1080,300c0,27.614-22.386,50-50,50v-50h50m.25-.25h-50.5v50.5h.25c27.708,0,50.25-22.542,50.25-50.25v-.25h0Z" fill="#fff"/>
        </g>
        <g>
          <path d="M579.875,600c0-27.501-22.374-49.875-49.875-49.875v-.25c27.501,0,49.875-22.374,49.875-49.875h.25c0,27.501,22.374,49.875,49.875,49.875v.25c-27.501,0-49.875,22.374-49.875,49.875h-.25Z" fill="#a54aff"/>
          <path d="M580,500c0,27.614,22.386,50,50,50-27.614,0-50,22.386-50,50,0-27.614-22.386-50-50-50,27.614,0,50-22.386,50-50m.25,0h-.5c0,27.432-22.318,49.75-49.75,49.75v.5c27.432,0,49.75,22.318,49.75,49.75h.5c0-27.432,22.318-49.75,49.75-49.75v-.5c-27.432,0-49.75-22.318-49.75-49.75h0Z" fill="#a54aff"/>
        </g>
        <g>
          <path d="M630,550.125c-27.639,0-50.125-22.486-50.125-50.125v-.125h50.25v50.25h-.125Z" fill="#a54aff"/>
          <path d="M630,500v50c-27.614,0-50-22.386-50-50h50m.25-.25h-50.5v.25c0,27.708,22.542,50.25,50.25,50.25h.25v-50.5h0Z" fill="#a54aff"/>
        </g>
        <g>
          <path d="M679.875,600c0-27.501-22.374-49.875-49.875-49.875v-.25c27.501,0,49.875-22.374,49.875-49.875h.25c0,27.501,22.374,49.875,49.875,49.875v.25c-27.501,0-49.875,22.374-49.875,49.875h-.25Z" fill="#a54aff"/>
          <path d="M680,500c0,27.614,22.386,50,50,50-27.614,0-50,22.386-50,50,0-27.614-22.386-50-50-50,27.614,0,50-22.386,50-50m.25,0h-.5c0,27.432-22.318,49.75-49.75,49.75v.5c27.432,0,49.75,22.318,49.75,49.75h.5c0-27.432,22.318-49.75,49.75-49.75v-.5c-27.432,0-49.75-22.318-49.75-49.75h0Z" fill="#a54aff"/>
        </g>
        <g>
          <path d="M629.875,600.125v-50.25h.125c27.639,0,50.125,22.486,50.125,50.125v.125h-50.25Z" fill="#a54aff"/>
          <path d="M630,550c27.614,0,50,22.386,50,50h-50v-50m0-.25h-.25v50.5h50.5v-.25c0-27.708-22.542-50.25-50.25-50.25h0Z" fill="#a54aff"/>
        </g>
        <g>
          <path d="M579.875,500c0-27.501-22.374-49.875-49.875-49.875v-.25c27.501,0,49.875-22.374,49.875-49.875h.25c0,27.501,22.374,49.875,49.875,49.875v.25c-27.501,0-49.875,22.374-49.875,49.875h-.25Z" fill="#a54aff"/>
          <path d="M580,400c0,27.614,22.386,50,50,50-27.614,0-50,22.386-50,50,0-27.614-22.386-50-50-50,27.614,0,50-22.386,50-50m.25,0h-.5c0,27.432-22.318,49.75-49.75,49.75v.5c27.432,0,49.75,22.318,49.75,49.75h.5c0-27.432,22.318-49.75,49.75-49.75v-.5c-27.432,0-49.75-22.318-49.75-49.75h0Z" fill="#a54aff"/>
        </g>
        <g>
          <path d="M630,450.125c-27.639,0-50.125-22.486-50.125-50.125v-.125h50.25v50.25h-.125Z" fill="#a54aff"/>
          <path d="M630,400v50c-27.614,0-50-22.386-50-50h50m.25-.25h-50.5v.25c0,27.708,22.542,50.25,50.25,50.25h.25v-50.5h0Z" fill="#a54aff"/>
        </g>
        <g>
          <path d="M679.875,500c0-27.501-22.374-49.875-49.875-49.875v-.25c27.501,0,49.875-22.374,49.875-49.875h.25c0,27.501,22.374,49.875,49.875,49.875v.25c-27.501,0-49.875,22.374-49.875,49.875h-.25Z" fill="#a54aff"/>
          <path d="M680,400c0,27.614,22.386,50,50,50-27.614,0-50,22.386-50,50,0-27.614-22.386-50-50-50,27.614,0,50-22.386,50-50m.25,0h-.5c0,27.432-22.318,49.75-49.75,49.75v.5c27.432,0,49.75,22.318,49.75,49.75h.5c0-27.432,22.318-49.75,49.75-49.75v-.5c-27.432,0-49.75-22.318-49.75-49.75h0Z" fill="#a54aff"/>
        </g>
        <g>
          <path d="M730,450.125c-27.639,0-50.125-22.486-50.125-50.125v-.125h50.25v50.25h-.125Z" fill="#a54aff"/>
          <path d="M730,400v50c-27.614,0-50-22.386-50-50h50m.25-.25h-50.5v.25c0,27.708,22.542,50.25,50.25,50.25h.25v-50.5h0Z" fill="#a54aff"/>
        </g>
        <g>
          <path d="M629.875,500.125v-50.25h.125c27.639,0,50.125,22.486,50.125,50.125v.125h-50.25Z" fill="#a54aff"/>
          <path d="M630,450c27.614,0,50,22.386,50,50h-50v-50m0-.25h-.25v50.5h50.5v-.25c0-27.708-22.542-50.25-50.25-50.25h0Z" fill="#a54aff"/>
        </g>
        <g>
          <path d="M779.875,500c0-27.501-22.374-49.875-49.875-49.875v-.25c27.501,0,49.875-22.374,49.875-49.875h.25c0,27.501,22.374,49.875,49.875,49.875v.25c-27.501,0-49.875,22.374-49.875,49.875h-.25Z" fill="#a54aff"/>
          <path d="M780,400c0,27.614,22.386,50,50,50-27.614,0-50,22.386-50,50,0-27.614-22.386-50-50-50,27.614,0,50-22.386,50-50m.25,0h-.5c0,27.432-22.318,49.75-49.75,49.75v.5c27.432,0,49.75,22.318,49.75,49.75h.5c0-27.432,22.318-49.75,49.75-49.75v-.5c-27.432,0-49.75-22.318-49.75-49.75h0Z" fill="#a54aff"/>
        </g>
        <g>
          <path d="M830,450.125c-27.639,0-50.125-22.486-50.125-50.125v-.125h50.25v50.25h-.125Z" fill="#a54aff"/>
          <path d="M830,400v50c-27.614,0-50-22.386-50-50h50m.25-.25h-50.5v.25c0,27.708,22.542,50.25,50.25,50.25h.25v-50.5h0Z" fill="#a54aff"/>
        </g>
        <g>
          <path d="M579.875,700c0-27.501-22.374-49.875-49.875-49.875v-.25c27.501,0,49.875-22.374,49.875-49.875h.25c0,27.501,22.374,49.875,49.875,49.875v.25c-27.501,0-49.875,22.374-49.875,49.875h-.25Z" fill="#a54aff"/>
          <path d="M580,600c0,27.614,22.386,50,50,50-27.614,0-50,22.386-50,50,0-27.614-22.386-50-50-50,27.614,0,50-22.386,50-50m.25,0h-.5c0,27.432-22.318,49.75-49.75,49.75v.5c27.432,0,49.75,22.318,49.75,49.75h.5c0-27.432,22.318-49.75,49.75-49.75v-.5c-27.432,0-49.75-22.318-49.75-49.75h0Z" fill="#a54aff"/>
        </g>
        <g>
          <path d="M630,650.125c-27.639,0-50.125-22.486-50.125-50.125v-.125h50.25v50.25h-.125Z" fill="#a54aff"/>
          <path d="M630,600v50c-27.614,0-50-22.386-50-50h50m.25-.25h-50.5v.25c0,27.708,22.542,50.25,50.25,50.25h.25v-50.5h0Z" fill="#a54aff"/>
        </g>
        <g>
          <path d="M679.875,700c0-27.501-22.374-49.875-49.875-49.875v-.25c27.501,0,49.875-22.374,49.875-49.875h.25c0,27.501,22.374,49.875,49.875,49.875v.25c-27.501,0-49.875,22.374-49.875,49.875h-.25Z" fill="#a54aff"/>
          <path d="M680,600c0,27.614,22.386,50,50,50-27.614,0-50,22.386-50,50,0-27.614-22.386-50-50-50,27.614,0,50-22.386,50-50m.25,0h-.5c0,27.432-22.318,49.75-49.75,49.75v.5c27.432,0,49.75,22.318,49.75,49.75h.5c0-27.432,22.318-49.75,49.75-49.75v-.5c-27.432,0-49.75-22.318-49.75-49.75h0Z" fill="#a54aff"/>
        </g>
        <g>
          <path d="M629.875,700.125v-50.25h.125c27.639,0,50.125,22.486,50.125,50.125v.125h-50.25Z" fill="#a54aff"/>
          <path d="M630,650c27.614,0,50,22.386,50,50h-50v-50m0-.25h-.25v50.5h50.5v-.25c0-27.708-22.542-50.25-50.25-50.25h0Z" fill="#a54aff"/>
        </g>
        <g>
          <path d="M579.875,800c0-27.501-22.374-49.875-49.875-49.875v-.25c27.501,0,49.875-22.374,49.875-49.875h.25c0,27.501,22.374,49.875,49.875,49.875v.25c-27.501,0-49.875,22.374-49.875,49.875h-.25Z" fill="#a54aff"/>
          <path d="M580,700c0,27.614,22.386,50,50,50-27.614,0-50,22.386-50,50,0-27.614-22.386-50-50-50,27.614,0,50-22.386,50-50m.25,0h-.5c0,27.432-22.318,49.75-49.75,49.75v.5c27.432,0,49.75,22.318,49.75,49.75h.5c0-27.432,22.318-49.75,49.75-49.75v-.5c-27.432,0-49.75-22.318-49.75-49.75h0Z" fill="#a54aff"/>
        </g>
        <g>
          <path d="M630,750.125c-27.639,0-50.125-22.486-50.125-50.125v-.125h50.25v50.25h-.125Z" fill="#a54aff"/>
          <path d="M630,700v50c-27.614,0-50-22.386-50-50h50m.25-.25h-50.5v.25c0,27.708,22.542,50.25,50.25,50.25h.25v-50.5h0Z" fill="#a54aff"/>
        </g>
        <g>
          <path d="M629.875,750.125v-50.25h50.25v.125c0,27.639-22.486,50.125-50.125,50.125h-.125Z" fill="#fff"/>
          <path d="M680,700c0,27.614-22.386,50-50,50v-50h50m.25-.25h-50.5v50.5h.25c27.708,0,50.25-22.542,50.25-50.25v-.25h0Z" fill="#fff"/>
        </g>
        <g>
          <path d="M679.875,800c0-27.501-22.374-49.875-49.875-49.875v-.25c27.501,0,49.875-22.374,49.875-49.875h.25c0,27.501,22.374,49.875,49.875,49.875v.25c-27.501,0-49.875,22.374-49.875,49.875h-.25Z" fill="#a54aff"/>
          <path d="M680,700c0,27.614,22.386,50,50,50-27.614,0-50,22.386-50,50,0-27.614-22.386-50-50-50,27.614,0,50-22.386,50-50m.25,0h-.5c0,27.432-22.318,49.75-49.75,49.75v.5c27.432,0,49.75,22.318,49.75,49.75h.5c0-27.432,22.318-49.75,49.75-49.75v-.5c-27.432,0-49.75-22.318-49.75-49.75h0Z" fill="#a54aff"/>
        </g>
        <g>
          <path d="M979.875,600c0-27.501-22.374-49.875-49.875-49.875v-.25c27.501,0,49.875-22.374,49.875-49.875h.25c0,27.501,22.374,49.875,49.875,49.875v.25c-27.501,0-49.875,22.374-49.875,49.875h-.25Z" fill="#a54aff"/>
          <path d="M980,500c0,27.614,22.386,50,50,50-27.614,0-50,22.386-50,50,0-27.614-22.386-50-50-50,27.614,0,50-22.386,50-50m.25,0h-.5c0,27.432-22.318,49.75-49.75,49.75v.5c27.432,0,49.75,22.318,49.75,49.75h.5c0-27.432,22.318-49.75,49.75-49.75v-.5c-27.432,0-49.75-22.318-49.75-49.75h0Z" fill="#a54aff"/>
        </g>
        <g>
          <path d="M1030,550.125c-27.639,0-50.125-22.486-50.125-50.125v-.125h50.25v50.25h-.125Z" fill="#a54aff"/>
          <path d="M1030,500v50c-27.614,0-50-22.386-50-50h50m.25-.25h-50.5v.25c0,27.708,22.542,50.25,50.25,50.25h.25v-50.5h0Z" fill="#a54aff"/>
        </g>
        <g>
          <path d="M1079.875,600c0-27.501-22.374-49.875-49.875-49.875v-.25c27.501,0,49.875-22.374,49.875-49.875h.25c0,27.501,22.374,49.875,49.875,49.875v.25c-27.501,0-49.875,22.374-49.875,49.875h-.25Z" fill="#a54aff"/>
          <path d="M1080,500c0,27.614,22.386,50,50,50-27.614,0-50,22.386-50,50,0-27.614-22.386-50-50-50,27.614,0,50-22.386,50-50m.25,0h-.5c0,27.432-22.318,49.75-49.75,49.75v.5c27.432,0,49.75,22.318,49.75,49.75h.5c0-27.432,22.318-49.75,49.75-49.75v-.5c-27.432,0-49.75-22.318-49.75-49.75h0Z" fill="#a54aff"/>
        </g>
        <g>
          <path d="M1029.875,600.125v-50.25h.125c27.639,0,50.125,22.486,50.125,50.125v.125h-50.25Z" fill="#a54aff"/>
          <path d="M1030,550c27.614,0,50,22.386,50,50h-50v-50m0-.25h-.25v50.5h50.5v-.25c0-27.708-22.542-50.25-50.25-50.25h0Z" fill="#a54aff"/>
        </g>
        <g>
          <path d="M879.875,500c0-27.501-22.374-49.875-49.875-49.875v-.25c27.501,0,49.875-22.374,49.875-49.875h.25c0,27.501,22.374,49.875,49.875,49.875v.25c-27.501,0-49.875,22.374-49.875,49.875h-.25Z" fill="#a54aff"/>
          <path d="M880,400c0,27.614,22.386,50,50,50-27.614,0-50,22.386-50,50,0-27.614-22.386-50-50-50,27.614,0,50-22.386,50-50m.25,0h-.5c0,27.432-22.318,49.75-49.75,49.75v.5c27.432,0,49.75,22.318,49.75,49.75h.5c0-27.432,22.318-49.75,49.75-49.75v-.5c-27.432,0-49.75-22.318-49.75-49.75h0Z" fill="#a54aff"/>
        </g>
        <g>
          <path d="M930,450.125c-27.639,0-50.125-22.486-50.125-50.125v-.125h50.25v50.25h-.125Z" fill="#a54aff"/>
          <path d="M930,400v50c-27.614,0-50-22.386-50-50h50m.25-.25h-50.5v.25c0,27.708,22.542,50.25,50.25,50.25h.25v-50.5h0Z" fill="#a54aff"/>
        </g>
        <g>
          <path d="M979.875,500c0-27.501-22.374-49.875-49.875-49.875v-.25c27.501,0,49.875-22.374,49.875-49.875h.25c0,27.501,22.374,49.875,49.875,49.875v.25c-27.501,0-49.875,22.374-49.875,49.875h-.25Z" fill="#a54aff"/>
          <path d="M980,400c0,27.614,22.386,50,50,50-27.614,0-50,22.386-50,50,0-27.614-22.386-50-50-50,27.614,0,50-22.386,50-50m.25,0h-.5c0,27.432-22.318,49.75-49.75,49.75v.5c27.432,0,49.75,22.318,49.75,49.75h.5c0-27.432,22.318-49.75,49.75-49.75v-.5c-27.432,0-49.75-22.318-49.75-49.75h0Z" fill="#a54aff"/>
        </g>
        <g>
          <path d="M1030,450.125c-27.639,0-50.125-22.486-50.125-50.125v-.125h50.25v50.25h-.125Z" fill="#a54aff"/>
          <path d="M1030,400v50c-27.614,0-50-22.386-50-50h50m.25-.25h-50.5v.25c0,27.708,22.542,50.25,50.25,50.25h.25v-50.5h0Z" fill="#a54aff"/>
        </g>
        <g>
          <path d="M1079.875,500c0-27.501-22.374-49.875-49.875-49.875v-.25c27.501,0,49.875-22.374,49.875-49.875h.25c0,27.501,22.374,49.875,49.875,49.875v.25c-27.501,0-49.875,22.374-49.875,49.875h-.25Z" fill="#a54aff"/>
          <path d="M1080,400c0,27.614,22.386,50,50,50-27.614,0-50,22.386-50,50,0-27.614-22.386-50-50-50,27.614,0,50-22.386,50-50m.25,0h-.5c0,27.432-22.318,49.75-49.75,49.75v.5c27.432,0,49.75,22.318,49.75,49.75h.5c0-27.432,22.318-49.75,49.75-49.75v-.5c-27.432,0-49.75-22.318-49.75-49.75h0Z" fill="#a54aff"/>
        </g>
        <g>
          <path d="M1029.875,500.125v-50.25h.125c27.639,0,50.125,22.486,50.125,50.125v.125h-50.25Z" fill="#a54aff"/>
          <path d="M1030,450c27.614,0,50,22.386,50,50h-50v-50m0-.25h-.25v50.5h50.5v-.25c0-27.708-22.542-50.25-50.25-50.25h0Z" fill="#a54aff"/>
        </g>
        <g>
          <path d="M979.875,700c0-27.501-22.374-49.875-49.875-49.875v-.25c27.501,0,49.875-22.374,49.875-49.875h.25c0,27.501,22.374,49.875,49.875,49.875v.25c-27.501,0-49.875,22.374-49.875,49.875h-.25Z" fill="#a54aff"/>
          <path d="M980,600c0,27.614,22.386,50,50,50-27.614,0-50,22.386-50,50,0-27.614-22.386-50-50-50,27.614,0,50-22.386,50-50m.25,0h-.5c0,27.432-22.318,49.75-49.75,49.75v.5c27.432,0,49.75,22.318,49.75,49.75h.5c0-27.432,22.318-49.75,49.75-49.75v-.5c-27.432,0-49.75-22.318-49.75-49.75h0Z" fill="#a54aff"/>
        </g>
        <g>
          <path d="M1030,650.125c-27.639,0-50.125-22.486-50.125-50.125v-.125h50.25v50.25h-.125Z" fill="#a54aff"/>
          <path d="M1030,600v50c-27.614,0-50-22.386-50-50h50m.25-.25h-50.5v.25c0,27.708,22.542,50.25,50.25,50.25h.25v-50.5h0Z" fill="#a54aff"/>
        </g>
        <g>
          <path d="M1079.875,700c0-27.501-22.374-49.875-49.875-49.875v-.25c27.501,0,49.875-22.374,49.875-49.875h.25c0,27.501,22.374,49.875,49.875,49.875v.25c-27.501,0-49.875,22.374-49.875,49.875h-.25Z" fill="#a54aff"/>
          <path d="M1080,600c0,27.614,22.386,50,50,50-27.614,0-50,22.386-50,50,0-27.614-22.386-50-50-50,27.614,0,50-22.386,50-50m.25,0h-.5c0,27.432-22.318,49.75-49.75,49.75v.5c27.432,0,49.75,22.318,49.75,49.75h.5c0-27.432,22.318-49.75,49.75-49.75v-.5c-27.432,0-49.75-22.318-49.75-49.75h0Z" fill="#a54aff"/>
        </g>
        <g>
          <path d="M1029.875,700.125v-50.25h.125c27.639,0,50.125,22.486,50.125,50.125v.125h-50.25Z" fill="#a54aff"/>
          <path d="M1030,650c27.614,0,50,22.386,50,50h-50v-50m0-.25h-.25v50.5h50.5v-.25c0-27.708-22.542-50.25-50.25-50.25h0Z" fill="#a54aff"/>
        </g>
        <g>
          <path d="M979.875,800c0-27.501-22.374-49.875-49.875-49.875v-.25c27.501,0,49.875-22.374,49.875-49.875h.25c0,27.501,22.374,49.875,49.875,49.875v.25c-27.501,0-49.875,22.374-49.875,49.875h-.25Z" fill="#a54aff"/>
          <path d="M980,700c0,27.614,22.386,50,50,50-27.614,0-50,22.386-50,50,0-27.614-22.386-50-50-50,27.614,0,50-22.386,50-50m.25,0h-.5c0,27.432-22.318,49.75-49.75,49.75v.5c27.432,0,49.75,22.318,49.75,49.75h.5c0-27.432,22.318-49.75,49.75-49.75v-.5c-27.432,0-49.75-22.318-49.75-49.75h0Z" fill="#a54aff"/>
        </g>
        <g>
          <path d="M1030,750.125c-27.639,0-50.125-22.486-50.125-50.125v-.125h50.25v50.25h-.125Z" fill="#a54aff"/>
          <path d="M1030,700v50c-27.614,0-50-22.386-50-50h50m.25-.25h-50.5v.25c0,27.708,22.542,50.25,50.25,50.25h.25v-50.5h0Z" fill="#a54aff"/>
        </g>
        <g>
          <path d="M1079.875,800c0-27.501-22.374-49.875-49.875-49.875v-.25c27.501,0,49.875-22.374,49.875-49.875h.25c0,27.501,22.374,49.875,49.875,49.875v.25c-27.501,0-49.875,22.374-49.875,49.875h-.25Z" fill="#a54aff"/>
          <path d="M1080,700c0,27.614,22.386,50,50,50-27.614,0-50,22.386-50,50,0-27.614-22.386-50-50-50,27.614,0,50-22.386,50-50m.25,0h-.5c0,27.432-22.318,49.75-49.75,49.75v.5c27.432,0,49.75,22.318,49.75,49.75h.5c0-27.432,22.318-49.75,49.75-49.75v-.5c-27.432,0-49.75-22.318-49.75-49.75h0Z" fill="#a54aff"/>
        </g>
        <g>
          <path d="M679.875,200c0-27.501-22.374-49.875-49.875-49.875v-.25c27.501,0,49.875-22.374,49.875-49.875h.25c0,27.501,22.374,49.875,49.875,49.875v.25c-27.501,0-49.875,22.374-49.875,49.875h-.25Z" fill="#a54aff"/>
          <path d="M680,100c0,27.614,22.386,50,50,50-27.614,0-50,22.386-50,50,0-27.614-22.386-50-50-50,27.614,0,50-22.386,50-50m.25,0h-.5c0,27.432-22.318,49.75-49.75,49.75v.5c27.432,0,49.75,22.318,49.75,49.75h.5c0-27.432,22.318-49.75,49.75-49.75v-.5c-27.432,0-49.75-22.318-49.75-49.75h0Z" fill="#a54aff"/>
        </g>
        <g>
          <path d="M779.875,200c0-27.501-22.374-49.875-49.875-49.875v-.25c27.501,0,49.875-22.374,49.875-49.875h.25c0,27.501,22.374,49.875,49.875,49.875v.25c-27.501,0-49.875,22.374-49.875,49.875h-.25Z" fill="#a54aff"/>
          <path d="M780,100c0,27.614,22.386,50,50,50-27.614,0-50,22.386-50,50,0-27.614-22.386-50-50-50,27.614,0,50-22.386,50-50m.25,0h-.5c0,27.432-22.318,49.75-49.75,49.75v.5c27.432,0,49.75,22.318,49.75,49.75h.5c0-27.432,22.318-49.75,49.75-49.75v-.5c-27.432,0-49.75-22.318-49.75-49.75h0Z" fill="#a54aff"/>
        </g>
        <g>
          <path d="M830,150.125c-27.639,0-50.125-22.486-50.125-50.125v-.125h50.25v50.25h-.125Z" fill="#a54aff"/>
          <path d="M830,100v50c-27.614,0-50-22.386-50-50h50m.25-.25h-50.5v.25c0,27.708,22.542,50.25,50.25,50.25h.25v-50.5h0Z" fill="#a54aff"/>
        </g>
        <g>
          <path d="M729.875,200.125v-50.25h.125c27.639,0,50.125,22.486,50.125,50.125v.125h-50.25Z" fill="#a54aff"/>
          <path d="M730,150c27.614,0,50,22.386,50,50h-50v-50m0-.25h-.25v50.5h50.5v-.25c0-27.708-22.542-50.25-50.25-50.25h0Z" fill="#a54aff"/>
        </g>
        <g>
          <path d="M779.875,100c0-27.501-22.374-49.875-49.875-49.875v-.25c27.501,0,49.875-22.374,49.875-49.875h.25c0,27.501,22.374,49.875,49.875,49.875v.25c-27.501,0-49.875,22.374-49.875,49.875h-.25Z" fill="#a54aff"/>
          <path d="M780,0c0,27.614,22.386,50,50,50-27.614,0-50,22.386-50,50,0-27.614-22.386-50-50-50,27.614,0,50-22.386,50-50m.25,0h-.5c0,27.432-22.318,49.75-49.75,49.75v.5c27.432,0,49.75,22.318,49.75,49.75h.5c0-27.432,22.318-49.75,49.75-49.75v-.5c-27.432,0-49.75-22.318-49.75-49.75h0Z" fill="#a54aff"/>
        </g>
        <g>
          <path d="M579.875,300c0-27.501-22.374-49.875-49.875-49.875v-.25c27.501,0,49.875-22.374,49.875-49.875h.25c0,27.501,22.374,49.875,49.875,49.875v.25c-27.501,0-49.875,22.374-49.875,49.875h-.25Z" fill="#a54aff"/>
          <path d="M580,200c0,27.614,22.386,50,50,50-27.614,0-50,22.386-50,50,0-27.614-22.386-50-50-50,27.614,0,50-22.386,50-50m.25,0h-.5c0,27.432-22.318,49.75-49.75,49.75v.5c27.432,0,49.75,22.318,49.75,49.75h.5c0-27.432,22.318-49.75,49.75-49.75v-.5c-27.432,0-49.75-22.318-49.75-49.75h0Z" fill="#a54aff"/>
        </g>
        <g>
          <path d="M679.875,300c0-27.501-22.374-49.875-49.875-49.875v-.25c27.501,0,49.875-22.374,49.875-49.875h.25c0,27.501,22.374,49.875,49.875,49.875v.25c-27.501,0-49.875,22.374-49.875,49.875h-.25Z" fill="#a54aff"/>
          <path d="M680,200c0,27.614,22.386,50,50,50-27.614,0-50,22.386-50,50,0-27.614-22.386-50-50-50,27.614,0,50-22.386,50-50m.25,0h-.5c0,27.432-22.318,49.75-49.75,49.75v.5c27.432,0,49.75,22.318,49.75,49.75h.5c0-27.432,22.318-49.75,49.75-49.75v-.5c-27.432,0-49.75-22.318-49.75-49.75h0Z" fill="#a54aff"/>
        </g>
        <g>
          <path d="M730,250.125c-27.639,0-50.125-22.486-50.125-50.125v-.125h50.25v50.25h-.125Z" fill="#a54aff"/>
          <path d="M730,200v50c-27.614,0-50-22.386-50-50h50m.25-.25h-50.5v.25c0,27.708,22.542,50.25,50.25,50.25h.25v-50.5h0Z" fill="#a54aff"/>
        </g>
        <g>
          <path d="M629.875,300.125v-50.25h.125c27.639,0,50.125,22.486,50.125,50.125v.125h-50.25Z" fill="#a54aff"/>
          <path d="M630,250c27.614,0,50,22.386,50,50h-50v-50m0-.25h-.25v50.5h50.5v-.25c0-27.708-22.542-50.25-50.25-50.25h0Z" fill="#a54aff"/>
        </g>
        <g>
          <path d="M779.875,300c0-27.501-22.374-49.875-49.875-49.875v-.25c27.501,0,49.875-22.374,49.875-49.875h.25c0,27.501,22.374,49.875,49.875,49.875v.25c-27.501,0-49.875,22.374-49.875,49.875h-.25Z" fill="#a54aff"/>
          <path d="M780,200c0,27.614,22.386,50,50,50-27.614,0-50,22.386-50,50,0-27.614-22.386-50-50-50,27.614,0,50-22.386,50-50m.25,0h-.5c0,27.432-22.318,49.75-49.75,49.75v.5c27.432,0,49.75,22.318,49.75,49.75h.5c0-27.432,22.318-49.75,49.75-49.75v-.5c-27.432,0-49.75-22.318-49.75-49.75h0Z" fill="#a54aff"/>
        </g>
        <g>
          <path d="M579.875,400c0-27.501-22.374-49.875-49.875-49.875v-.25c27.501,0,49.875-22.374,49.875-49.875h.25c0,27.501,22.374,49.875,49.875,49.875v.25c-27.501,0-49.875,22.374-49.875,49.875h-.25Z" fill="#a54aff"/>
          <path d="M580,300c0,27.614,22.386,50,50,50-27.614,0-50,22.386-50,50,0-27.614-22.386-50-50-50,27.614,0,50-22.386,50-50m.25,0h-.5c0,27.432-22.318,49.75-49.75,49.75v.5c27.432,0,49.75,22.318,49.75,49.75h.5c0-27.432,22.318-49.75,49.75-49.75v-.5c-27.432,0-49.75-22.318-49.75-49.75h0Z" fill="#a54aff"/>
        </g>
        <g>
          <path d="M630,350.125c-27.639,0-50.125-22.486-50.125-50.125v-.125h50.25v50.25h-.125Z" fill="#a54aff"/>
          <path d="M630,300v50c-27.614,0-50-22.386-50-50h50m.25-.25h-50.5v.25c0,27.708,22.542,50.25,50.25,50.25h.25v-50.5h0Z" fill="#a54aff"/>
        </g>
        <g>
          <path d="M679.875,400c0-27.501-22.374-49.875-49.875-49.875v-.25c27.501,0,49.875-22.374,49.875-49.875h.25c0,27.501,22.374,49.875,49.875,49.875v.25c-27.501,0-49.875,22.374-49.875,49.875h-.25Z" fill="#a54aff"/>
          <path d="M680,300c0,27.614,22.386,50,50,50-27.614,0-50,22.386-50,50,0-27.614-22.386-50-50-50,27.614,0,50-22.386,50-50m.25,0h-.5c0,27.432-22.318,49.75-49.75,49.75v.5c27.432,0,49.75,22.318,49.75,49.75h.5c0-27.432,22.318-49.75,49.75-49.75v-.5c-27.432,0-49.75-22.318-49.75-49.75h0Z" fill="#a54aff"/>
        </g>
        <g>
          <path d="M629.875,400.125v-50.25h.125c27.639,0,50.125,22.486,50.125,50.125v.125h-50.25Z" fill="#a54aff"/>
          <path d="M630,350c27.614,0,50,22.386,50,50h-50v-50m0-.25h-.25v50.5h50.5v-.25c0-27.708-22.542-50.25-50.25-50.25h0Z" fill="#a54aff"/>
        </g>
        <g>
          <path d="M779.875,400c0-27.501-22.374-49.875-49.875-49.875v-.25c27.501,0,49.875-22.374,49.875-49.875h.25c0,27.501,22.374,49.875,49.875,49.875v.25c-27.501,0-49.875,22.374-49.875,49.875h-.25Z" fill="#a54aff"/>
          <path d="M780,300c0,27.614,22.386,50,50,50-27.614,0-50,22.386-50,50,0-27.614-22.386-50-50-50,27.614,0,50-22.386,50-50m.25,0h-.5c0,27.432-22.318,49.75-49.75,49.75v.5c27.432,0,49.75,22.318,49.75,49.75h.5c0-27.432,22.318-49.75,49.75-49.75v-.5c-27.432,0-49.75-22.318-49.75-49.75h0Z" fill="#a54aff"/>
        </g>
        <g>
          <path d="M729.875,400.125v-50.25h.125c27.639,0,50.125,22.486,50.125,50.125v.125h-50.25Z" fill="#a54aff"/>
          <path d="M730,350c27.614,0,50,22.386,50,50h-50v-50m0-.25h-.25v50.5h50.5v-.25c0-27.708-22.542-50.25-50.25-50.25h0Z" fill="#a54aff"/>
        </g>
        <g>
          <path d="M879.875,200c0-27.501-22.374-49.875-49.875-49.875v-.25c27.501,0,49.875-22.374,49.875-49.875h.25c0,27.501,22.374,49.875,49.875,49.875v.25c-27.501,0-49.875,22.374-49.875,49.875h-.25Z" fill="#a54aff"/>
          <path d="M880,100c0,27.614,22.386,50,50,50-27.614,0-50,22.386-50,50,0-27.614-22.386-50-50-50,27.614,0,50-22.386,50-50m.25,0h-.5c0,27.432-22.318,49.75-49.75,49.75v.5c27.432,0,49.75,22.318,49.75,49.75h.5c0-27.432,22.318-49.75,49.75-49.75v-.5c-27.432,0-49.75-22.318-49.75-49.75h0Z" fill="#a54aff"/>
        </g>
        <g>
          <path d="M979.875,200c0-27.501-22.374-49.875-49.875-49.875v-.25c27.501,0,49.875-22.374,49.875-49.875h.25c0,27.501,22.374,49.875,49.875,49.875v.25c-27.501,0-49.875,22.374-49.875,49.875h-.25Z" fill="#a54aff"/>
          <path d="M980,100c0,27.614,22.386,50,50,50-27.614,0-50,22.386-50,50,0-27.614-22.386-50-50-50,27.614,0,50-22.386,50-50m.25,0h-.5c0,27.432-22.318,49.75-49.75,49.75v.5c27.432,0,49.75,22.318,49.75,49.75h.5c0-27.432,22.318-49.75,49.75-49.75v-.5c-27.432,0-49.75-22.318-49.75-49.75h0Z" fill="#a54aff"/>
        </g>
        <g>
          <path d="M929.875,200.125v-50.25h.125c27.639,0,50.125,22.486,50.125,50.125v.125h-50.25Z" fill="#a54aff"/>
          <path d="M930,150c27.614,0,50,22.386,50,50h-50v-50m0-.25h-.25v50.5h50.5v-.25c0-27.708-22.542-50.25-50.25-50.25h0Z" fill="#a54aff"/>
        </g>
        <g>
          <path d="M879.875,100c0-27.501-22.374-49.875-49.875-49.875v-.25c27.501,0,49.875-22.374,49.875-49.875h.25c0,27.501,22.374,49.875,49.875,49.875v.25c-27.501,0-49.875,22.374-49.875,49.875h-.25Z" fill="#a54aff"/>
          <path d="M880,0c0,27.614,22.386,50,50,50-27.614,0-50,22.386-50,50,0-27.614-22.386-50-50-50,27.614,0,50-22.386,50-50m.25,0h-.5c0,27.432-22.318,49.75-49.75,49.75v.5c27.432,0,49.75,22.318,49.75,49.75h.5c0-27.432,22.318-49.75,49.75-49.75v-.5c-27.432,0-49.75-22.318-49.75-49.75h0Z" fill="#a54aff"/>
        </g>
        <g>
          <path d="M829.875,100.125V49.875h.125c27.639,0,50.125,22.486,50.125,50.125v.125h-50.25Z" fill="#a54aff"/>
          <path d="M830,50c27.614,0,50,22.386,50,50h-50V50m0-.25h-.25v50.5h50.5v-.25c0-27.708-22.542-50.25-50.25-50.25h0Z" fill="#a54aff"/>
        </g>
        <g>
          <path d="M879.875,300c0-27.501-22.374-49.875-49.875-49.875v-.25c27.501,0,49.875-22.374,49.875-49.875h.25c0,27.501,22.374,49.875,49.875,49.875v.25c-27.501,0-49.875,22.374-49.875,49.875h-.25Z" fill="#a54aff"/>
          <path d="M880,200c0,27.614,22.386,50,50,50-27.614,0-50,22.386-50,50,0-27.614-22.386-50-50-50,27.614,0,50-22.386,50-50m.25,0h-.5c0,27.432-22.318,49.75-49.75,49.75v.5c27.432,0,49.75,22.318,49.75,49.75h.5c0-27.432,22.318-49.75,49.75-49.75v-.5c-27.432,0-49.75-22.318-49.75-49.75h0Z" fill="#a54aff"/>
        </g>
        <g>
          <path d="M930,250.125c-27.639,0-50.125-22.486-50.125-50.125v-.125h50.25v50.25h-.125Z" fill="#a54aff"/>
          <path d="M930,200v50c-27.614,0-50-22.386-50-50h50m.25-.25h-50.5v.25c0,27.708,22.542,50.25,50.25,50.25h.25v-50.5h0Z" fill="#a54aff"/>
        </g>
        <g>
          <path d="M979.875,300c0-27.501-22.374-49.875-49.875-49.875v-.25c27.501,0,49.875-22.374,49.875-49.875h.25c0,27.501,22.374,49.875,49.875,49.875v.25c-27.501,0-49.875,22.374-49.875,49.875h-.25Z" fill="#a54aff"/>
          <path d="M980,200c0,27.614,22.386,50,50,50-27.614,0-50,22.386-50,50,0-27.614-22.386-50-50-50,27.614,0,50-22.386,50-50m.25,0h-.5c0,27.432-22.318,49.75-49.75,49.75v.5c27.432,0,49.75,22.318,49.75,49.75h.5c0-27.432,22.318-49.75,49.75-49.75v-.5c-27.432,0-49.75-22.318-49.75-49.75h0Z" fill="#a54aff"/>
        </g>
        <g>
          <path d="M1079.875,300c0-27.501-22.374-49.875-49.875-49.875v-.25c27.501,0,49.875-22.374,49.875-49.875h.25c0,27.501,22.374,49.875,49.875,49.875v.25c-27.501,0-49.875,22.374-49.875,49.875h-.25Z" fill="#a54aff"/>
          <path d="M1080,200c0,27.614,22.386,50,50,50-27.614,0-50,22.386-50,50,0-27.614-22.386-50-50-50,27.614,0,50-22.386,50-50m.25,0h-.5c0,27.432-22.318,49.75-49.75,49.75v.5c27.432,0,49.75,22.318,49.75,49.75h.5c0-27.432,22.318-49.75,49.75-49.75v-.5c-27.432,0-49.75-22.318-49.75-49.75h0Z" fill="#a54aff"/>
        </g>
        <g>
          <path d="M1029.875,300.125v-50.25h.125c27.639,0,50.125,22.486,50.125,50.125v.125h-50.25Z" fill="#a54aff"/>
          <path d="M1030,250c27.614,0,50,22.386,50,50h-50v-50m0-.25h-.25v50.5h50.5v-.25c0-27.708-22.542-50.25-50.25-50.25h0Z" fill="#a54aff"/>
        </g>
        <g>
          <path d="M879.875,400c0-27.501-22.374-49.875-49.875-49.875v-.25c27.501,0,49.875-22.374,49.875-49.875h.25c0,27.501,22.374,49.875,49.875,49.875v.25c-27.501,0-49.875,22.374-49.875,49.875h-.25Z" fill="#a54aff"/>
          <path d="M880,300c0,27.614,22.386,50,50,50-27.614,0-50,22.386-50,50,0-27.614-22.386-50-50-50,27.614,0,50-22.386,50-50m.25,0h-.5c0,27.432-22.318,49.75-49.75,49.75v.5c27.432,0,49.75,22.318,49.75,49.75h.5c0-27.432,22.318-49.75,49.75-49.75v-.5c-27.432,0-49.75-22.318-49.75-49.75h0Z" fill="#a54aff"/>
        </g>
        <g>
          <path d="M829.875,400.125v-50.25h.125c27.639,0,50.125,22.486,50.125,50.125v.125h-50.25Z" fill="#a54aff"/>
          <path d="M830,350c27.614,0,50,22.386,50,50h-50v-50m0-.25h-.25v50.5h50.5v-.25c0-27.708-22.542-50.25-50.25-50.25h0Z" fill="#a54aff"/>
        </g>
        <g>
          <path d="M979.875,400c0-27.501-22.374-49.875-49.875-49.875v-.25c27.501,0,49.875-22.374,49.875-49.875h.25c0,27.501,22.374,49.875,49.875,49.875v.25c-27.501,0-49.875,22.374-49.875,49.875h-.25Z" fill="#a54aff"/>
          <path d="M980,300c0,27.614,22.386,50,50,50-27.614,0-50,22.386-50,50,0-27.614-22.386-50-50-50,27.614,0,50-22.386,50-50m.25,0h-.5c0,27.432-22.318,49.75-49.75,49.75v.5c27.432,0,49.75,22.318,49.75,49.75h.5c0-27.432,22.318-49.75,49.75-49.75v-.5c-27.432,0-49.75-22.318-49.75-49.75h0Z" fill="#a54aff"/>
        </g>
        <g>
          <path d="M1030,350.125c-27.639,0-50.125-22.486-50.125-50.125v-.125h50.25v50.25h-.125Z" fill="#a54aff"/>
          <path d="M1030,300v50c-27.614,0-50-22.386-50-50h50m.25-.25h-50.5v.25c0,27.708,22.542,50.25,50.25,50.25h.25v-50.5h0Z" fill="#a54aff"/>
        </g>
        <g>
          <path d="M929.875,400.125v-50.25h.125c27.639,0,50.125,22.486,50.125,50.125v.125h-50.25Z" fill="#a54aff"/>
          <path d="M930,350c27.614,0,50,22.386,50,50h-50v-50m0-.25h-.25v50.5h50.5v-.25c0-27.708-22.542-50.25-50.25-50.25h0Z" fill="#a54aff"/>
        </g>
        <g>
          <path d="M1079.875,400c0-27.501-22.374-49.875-49.875-49.875v-.25c27.501,0,49.875-22.374,49.875-49.875h.25c0,27.501,22.374,49.875,49.875,49.875v.25c-27.501,0-49.875,22.374-49.875,49.875h-.25Z" fill="#a54aff"/>
          <path d="M1080,300c0,27.614,22.386,50,50,50-27.614,0-50,22.386-50,50,0-27.614-22.386-50-50-50,27.614,0,50-22.386,50-50m.25,0h-.5c0,27.432-22.318,49.75-49.75,49.75v.5c27.432,0,49.75,22.318,49.75,49.75h.5c0-27.432,22.318-49.75,49.75-49.75v-.5c-27.432,0-49.75-22.318-49.75-49.75h0Z" fill="#a54aff"/>
        </g>
        <g>
          <path d="M1029.875,400.125v-50.25h.125c27.639,0,50.125,22.486,50.125,50.125v.125h-50.25Z" fill="#a54aff"/>
          <path d="M1030,350c27.614,0,50,22.386,50,50h-50v-50m0-.25h-.25v50.5h50.5v-.25c0-27.708-22.542-50.25-50.25-50.25h0Z" fill="#a54aff"/>
        </g>
      </g>
    </g>
    <rect y="50" width="50" height="50" fill="#ff1345"/>
    <rect y="100" width="50" height="50" fill="#fff"/>
    <rect x="50" y="50" width="50" height="50" fill="#fff"/>
    <rect x="50" y="100" width="50" height="50" fill="#ff1345"/>
    <rect x="100" y="50" width="50" height="50" fill="#ff1345"/>
    <rect x="100" y="100" width="50" height="50" fill="#fff"/>
    <rect x="150" y="50" width="50" height="50" fill="#fff"/>
    <rect x="150" y="100" width="50" height="50" fill="#ff1345"/>
    <rect x="200" y="50" width="50" height="50" fill="#ff1345"/>
    <rect x="200" y="100" width="50" height="50" fill="#fff"/>
    <rect x="250" y="50" width="50" height="50" fill="#fff"/>
    <rect x="250" y="100" width="50" height="50" fill="#ff1345"/>
    <rect x="300" y="50" width="50" height="50" fill="#ff1345"/>
    <rect x="300" y="100" width="50" height="50" fill="#fff"/>
    <rect x="350" y="50" width="50" height="50" fill="#fff"/>
    <rect x="350" y="100" width="50" height="50" fill="#ff1345"/>
    <rect y="150" width="50" height="50" fill="#ff1345"/>
    <rect y="200" width="50" height="50" fill="#fff"/>
    <rect x="50" y="150" width="50" height="50" fill="#fff"/>
    <rect x="50" y="200" width="50" height="50" fill="#ff1345"/>
    <rect y="250" width="50" height="50" fill="#ff1345"/>
    <rect y="300" width="50" height="50" fill="#fff"/>
    <rect x="50" y="250" width="50" height="50" fill="#fff"/>
    <rect x="50" y="300" width="50" height="50" fill="#ff1345"/>
    <rect y="350" width="50" height="50" fill="#ff1345"/>
    <rect y="400" width="50" height="50" fill="#fff"/>
    <rect x="50" y="350" width="50" height="50" fill="#fff"/>
    <rect x="50" y="400" width="50" height="50" fill="#ff1345"/>
    <rect y="450" width="50" height="50" fill="#ff1345"/>
    <rect y="500" width="50" height="50" fill="#fff"/>
    <rect x="50" y="450" width="50" height="50" fill="#fff"/>
    <rect x="50" y="500" width="50" height="50" fill="#ff1345"/>
    <rect y="550" width="50" height="50" fill="#ff1345"/>
    <rect y="600" width="50" height="50" fill="#fff"/>
    <rect x="50" y="550" width="50" height="50" fill="#fff"/>
    <rect x="50" y="600" width="50" height="50" fill="#ff1345"/>
    <rect y="650" width="50" height="50" fill="#ff1345"/>
    <rect y="700" width="50" height="50" fill="#fff"/>
    <rect x="50" y="650" width="50" height="50" fill="#fff"/>
    <rect x="50" y="700" width="50" height="50" fill="#ff1345"/>
    <rect x="100" y="650" width="50" height="50" fill="#ff1345"/>
    <rect x="100" y="700" width="50" height="50" fill="#fff"/>
    <rect x="150" y="650" width="50" height="50" fill="#fff"/>
    <rect x="150" y="700" width="50" height="50" fill="#ff1345"/>
    <rect x="200" y="650" width="50" height="50" fill="#ff1345"/>
    <rect x="200" y="700" width="50" height="50" fill="#fff"/>
    <rect x="250" y="650" width="50" height="50" fill="#fff"/>
    <rect x="250" y="700" width="50" height="50" fill="#ff1345"/>
    <rect x="300" y="650" width="50" height="50" fill="#ff1345"/>
    <rect x="300" y="700" width="50" height="50" fill="#fff"/>
    <rect x="350" y="650" width="50" height="50" fill="#fff"/>
    <rect x="350" y="700" width="50" height="50" fill="#ff1345"/>
    <rect x="400" y="650" width="50" height="50" fill="#ff1345"/>
    <rect x="400" y="700" width="50" height="50" fill="#fff"/>
    <rect x="450" y="650" width="50" height="50" fill="#fff"/>
    <rect x="450" y="700" width="50" height="50" fill="#ff1345"/>
    <rect x="400" y="550" width="50" height="50" fill="#ff1345"/>
    <rect x="400" y="600" width="50" height="50" fill="#fff"/>
    <rect x="450" y="550" width="50" height="50" fill="#fff"/>
    <rect x="450" y="600" width="50" height="50" fill="#ff1345"/>
    <rect x="400" y="450" width="50" height="50" fill="#ff1345"/>
    <rect x="400" y="500" width="50" height="50" fill="#fff"/>
    <rect x="450" y="450" width="50" height="50" fill="#fff"/>
    <rect x="450" y="500" width="50" height="50" fill="#ff1345"/>
    <rect x="300" y="350" width="50" height="50" fill="#ff1345"/>
    <rect x="300" y="400" width="50" height="50" fill="#fff"/>
    <rect x="350" y="350" width="50" height="50" fill="#fff"/>
    <rect x="350" y="400" width="50" height="50" fill="#ff1345"/>
    <rect x="200" y="350" width="50" height="50" fill="#ff1345"/>
    <rect x="200" y="400" width="50" height="50" fill="#fff"/>
    <rect x="250" y="350" width="50" height="50" fill="#fff"/>
    <rect x="250" y="400" width="50" height="50" fill="#ff1345"/>
    <rect x="400" y="250" width="50" height="50" fill="#ff1345"/>
    <rect x="400" y="300" width="50" height="50" fill="#fff"/>
    <rect x="450" y="250" width="50" height="50" fill="#fff"/>
    <rect x="450" y="300" width="50" height="50" fill="#ff1345"/>
    <rect x="400" y="150" width="50" height="50" fill="#ff1345"/>
    <rect x="400" y="200" width="50" height="50" fill="#fff"/>
    <rect x="450" y="150" width="50" height="50" fill="#fff"/>
    <rect x="450" y="200" width="50" height="50" fill="#ff1345"/>
    <rect x="1790" y="50" width="50" height="50" fill="#ff1345"/>
    <rect x="1790" y="100" width="50" height="50" fill="#fff"/>
    <rect x="1840" y="50" width="50" height="50" fill="#fff"/>
    <rect x="1840" y="100" width="50" height="50" fill="#ff1345"/>
    <rect x="1890" y="50" width="50" height="50" fill="#ff1345"/>
    <rect x="1890" y="100" width="50" height="50" fill="#fff"/>
    <rect x="1940" y="50" width="50" height="50" fill="#fff"/>
    <rect x="1940" y="100" width="50" height="50" fill="#ff1345"/>
    <rect x="1990" y="50" width="50" height="50" fill="#ff1345"/>
    <rect x="1990" y="100" width="50" height="50" fill="#fff"/>
    <rect x="2040" y="50" width="50" height="50" fill="#fff"/>
    <rect x="2040" y="100" width="50" height="50" fill="#ff1345"/>
    <rect x="1690" y="150" width="50" height="50" fill="#ff1345"/>
    <rect x="1690" y="200" width="50" height="50" fill="#fff"/>
    <rect x="1740" y="150" width="50" height="50" fill="#fff"/>
    <rect x="1740" y="200" width="50" height="50" fill="#ff1345"/>
    <rect x="1690" y="250" width="50" height="50" fill="#ff1345"/>
    <rect x="1690" y="300" width="50" height="50" fill="#fff"/>
    <rect x="1740" y="250" width="50" height="50" fill="#fff"/>
    <rect x="1740" y="300" width="50" height="50" fill="#ff1345"/>
    <rect x="1690" y="350" width="50" height="50" fill="#ff1345"/>
    <rect x="1690" y="400" width="50" height="50" fill="#fff"/>
    <rect x="1740" y="350" width="50" height="50" fill="#fff"/>
    <rect x="1740" y="400" width="50" height="50" fill="#ff1345"/>
    <rect x="1690" y="450" width="50" height="50" fill="#ff1345"/>
    <rect x="1690" y="500" width="50" height="50" fill="#fff"/>
    <rect x="1740" y="450" width="50" height="50" fill="#fff"/>
    <rect x="1740" y="500" width="50" height="50" fill="#ff1345"/>
    <rect x="1690" y="550" width="50" height="50" fill="#ff1345"/>
    <rect x="1690" y="600" width="50" height="50" fill="#fff"/>
    <rect x="1740" y="550" width="50" height="50" fill="#fff"/>
    <rect x="1740" y="600" width="50" height="50" fill="#ff1345"/>
    <rect x="1790" y="650" width="50" height="50" fill="#ff1345"/>
    <rect x="1790" y="700" width="50" height="50" fill="#fff"/>
    <rect x="1840" y="650" width="50" height="50" fill="#fff"/>
    <rect x="1840" y="700" width="50" height="50" fill="#ff1345"/>
    <rect x="1890" y="650" width="50" height="50" fill="#ff1345"/>
    <rect x="1890" y="700" width="50" height="50" fill="#fff"/>
    <rect x="1940" y="650" width="50" height="50" fill="#fff"/>
    <rect x="1940" y="700" width="50" height="50" fill="#ff1345"/>
    <rect x="1990" y="650" width="50" height="50" fill="#ff1345"/>
    <rect x="1990" y="700" width="50" height="50" fill="#fff"/>
    <rect x="2040" y="650" width="50" height="50" fill="#fff"/>
    <rect x="2040" y="700" width="50" height="50" fill="#ff1345"/>
    <rect x="2090" y="550" width="50" height="50" fill="#ff1345"/>
    <rect x="2090" y="600" width="50" height="50" fill="#fff"/>
    <rect x="2140" y="550" width="50" height="50" fill="#fff"/>
    <rect x="2140" y="600" width="50" height="50" fill="#ff1345"/>
    <rect x="2090" y="450" width="50" height="50" fill="#ff1345"/>
    <rect x="2090" y="500" width="50" height="50" fill="#fff"/>
    <rect x="2140" y="450" width="50" height="50" fill="#fff"/>
    <rect x="2140" y="500" width="50" height="50" fill="#ff1345"/>
    <rect x="1990" y="350" width="50" height="50" fill="#ff1345"/>
    <rect x="1990" y="400" width="50" height="50" fill="#fff"/>
    <rect x="2040" y="350" width="50" height="50" fill="#fff"/>
    <rect x="2040" y="400" width="50" height="50" fill="#ff1345"/>
    <rect x="1890" y="350" width="50" height="50" fill="#ff1345"/>
    <rect x="1890" y="400" width="50" height="50" fill="#fff"/>
    <rect x="1940" y="350" width="50" height="50" fill="#fff"/>
    <rect x="1940" y="400" width="50" height="50" fill="#ff1345"/>
    <rect x="2090" y="150" width="50" height="50" fill="#ff1345"/>
    <rect x="2090" y="200" width="50" height="50" fill="#fff"/>
    <rect x="2140" y="150" width="50" height="50" fill="#fff"/>
    <rect x="2140" y="200" width="50" height="50" fill="#ff1345"/>
  </g>
</svg>