<svg width="2551" height="800" viewBox="0 0 2551 800" fill="none" xmlns="http://www.w3.org/2000/svg">
<g clip-path="url(#clip0_4664_73304)">
<path d="M2550 100C2550 127.614 2527.61 150 2500 150C2527.61 150 2550 172.386 2550 200V100Z" fill="white"/>
<path d="M2450 100C2450 127.614 2472.39 150 2500 150C2472.39 150 2450 172.386 2450 200V100Z" fill="white"/>
<path d="M2550 200C2550 227.614 2527.61 250 2500 250C2527.61 250 2550 272.386 2550 300V200Z" fill="white"/>
<path d="M2450 200C2450 227.614 2472.39 250 2500 250C2472.39 250 2450 272.386 2450 300V200Z" fill="white"/>
<path d="M2550 300C2550 327.614 2527.61 350 2500 350C2527.61 350 2550 372.386 2550 400V300Z" fill="white"/>
<path d="M2450 300C2450 327.614 2472.39 350 2500 350C2472.39 350 2450 372.386 2450 400V300Z" fill="white"/>
<path d="M2500 750.05C2472.4 750.05 2449.95 727.598 2449.95 700L2500 699.95L2500.05 750.05H2500Z" fill="#0AA7FF"/>
<path d="M2500 700V750C2472.39 750 2450 727.614 2450 700H2500ZM2500.1 699.9H2449.9V700C2449.9 727.625 2472.38 750.1 2500 750.1H2500.1V699.9Z" fill="#0AA7FF"/>
<path d="M2499.95 750.05V700L2550 699.95C2550.05 727.597 2527.6 750.05 2500 750.05H2499.95Z" fill="#0AA7FF"/>
<path d="M2550 700C2550 727.614 2527.61 750 2500 750V700H2550ZM2550.1 699.9H2499.9V750.1H2500C2527.63 750.1 2550.1 727.625 2550.1 700V699.9Z" fill="#0AA7FF"/>
<path d="M2450 100.05C2449.95 72.4029 2472.4 49.9509 2500 49.9509L2500.05 100.05H2450Z" fill="#0AA7FF"/>
<path d="M2500 49.9999V99.9999H2450C2450 72.3859 2472.39 49.9999 2500 49.9999ZM2500.1 49.8999H2500C2472.38 49.8999 2449.9 72.3749 2449.9 99.9999V100.1H2500.1V49.8999Z" fill="#0AA7FF"/>
<path d="M2500 100.05L2499.95 50.001H2500.04C2527.65 50.001 2550.05 72.434 2550.05 100.001V100.051L2500 100.05Z" fill="#0AA7FF"/>
<path d="M2500 49.9999C2527.61 49.9999 2550 72.3859 2550 99.9999H2500V49.9999ZM2500 49.8999H2499.9V100.1H2550.1V99.9999C2550.1 72.3749 2527.63 49.8999 2500 49.8999Z" fill="#0AA7FF"/>
<path d="M2450 300.05C2449.95 272.403 2472.4 249.95 2500 249.95L2500.05 300.05H2450Z" fill="#0AA7FF"/>
<path d="M2500 250V300H2450C2450 272.386 2472.39 250 2500 250ZM2500.1 249.9H2500C2472.38 249.9 2449.9 272.375 2449.9 300V300.1H2500.1V249.9Z" fill="#0AA7FF"/>
<path d="M2500 300.05L2499.95 250H2500.04C2527.65 250 2550.05 272.433 2550.05 300V300.05H2500Z" fill="#0AA7FF"/>
<path d="M2500 250C2527.61 250 2550 272.386 2550 300H2500V250ZM2500 249.9H2499.9V300.1H2550.1V300C2550.1 272.375 2527.63 249.9 2500 249.9Z" fill="#0AA7FF"/>
<path d="M2499.95 150.05V100L2550 99.95C2550.05 127.597 2527.6 150.05 2500 150.05H2499.95Z" fill="#0AA7FF"/>
<path d="M2550 99.9999C2550 127.614 2527.61 150 2500 150V99.9999H2550ZM2550.1 99.8999H2499.9V150.1H2500C2527.63 150.1 2550.1 127.625 2550.1 99.9999V99.8999Z" fill="#0AA7FF"/>
<path d="M2500 150.05C2472.4 150.05 2449.95 127.598 2449.95 100L2500 99.95L2500.05 150.05H2500Z" fill="#0AA7FF"/>
<path d="M2500 99.9999V150C2472.39 150 2450 127.614 2450 99.9999H2500ZM2500.1 99.8999H2449.9V99.9999C2449.9 127.625 2472.38 150.1 2500 150.1H2500.1V99.8999Z" fill="#0AA7FF"/>
<path d="M2450 200.05C2449.95 172.403 2472.4 149.95 2500 149.95L2500.05 200.05H2450Z" fill="#0AA7FF"/>
<path d="M2500 150V200H2450C2450 172.386 2472.39 150 2500 150ZM2500.1 149.9H2500C2472.38 149.9 2449.9 172.375 2449.9 200V200.1H2500.1V149.9Z" fill="#0AA7FF"/>
<path d="M2500 200.05L2499.95 150H2500.04C2527.65 150 2550.05 172.433 2550.05 200V200.05H2500Z" fill="#0AA7FF"/>
<path d="M2500 150C2527.61 150 2550 172.386 2550 200H2500V150ZM2500 149.9H2499.9V200.1H2550.1V200C2550.1 172.375 2527.63 149.9 2500 149.9Z" fill="#0AA7FF"/>
<path d="M2499.95 250.05V200L2550 199.95C2550.05 227.597 2527.6 250.05 2500 250.05H2499.95Z" fill="#0AA7FF"/>
<path d="M2550 200C2550 227.614 2527.61 250 2500 250V200H2550ZM2550.1 199.9H2499.9V250.1H2500C2527.63 250.1 2550.1 227.625 2550.1 200V199.9Z" fill="#0AA7FF"/>
<path d="M2500 250.05C2472.4 250.05 2449.95 227.598 2449.95 200L2500 199.95L2500.05 250.05H2500Z" fill="#0AA7FF"/>
<path d="M2500 200V250C2472.39 250 2450 227.614 2450 200H2500ZM2500.1 199.9H2449.9V200C2449.9 227.625 2472.38 250.1 2500 250.1H2500.1V199.9Z" fill="#0AA7FF"/>
<path d="M2500 350.05C2472.4 350.05 2449.95 327.598 2449.95 300L2500 299.95L2500.05 350.05H2500Z" fill="#0AA7FF"/>
<path d="M2500 300V350C2472.39 350 2450 327.614 2450 300H2500ZM2500.1 299.9H2449.9V300C2449.9 327.625 2472.38 350.1 2500 350.1H2500.1V299.9Z" fill="#0AA7FF"/>
<path d="M2450 400.05C2449.95 372.403 2472.4 349.95 2500 349.95L2500.05 400.05H2450Z" fill="#0AA7FF"/>
<path d="M2500 350V400H2450C2450 372.386 2472.39 350 2500 350ZM2500.1 349.9H2500C2472.38 349.9 2449.9 372.375 2449.9 400V400.1H2500.1V349.9Z" fill="#0AA7FF"/>
<path d="M2500 400.05L2499.95 350H2500.04C2527.65 350 2550.05 372.433 2550.05 400V400.05H2500Z" fill="#0AA7FF"/>
<path d="M2500 350C2527.61 350 2550 372.386 2550 400H2500V350ZM2500 349.9H2499.9V400.1H2550.1V400C2550.1 372.375 2527.63 349.9 2500 349.9Z" fill="#0AA7FF"/>
<path d="M2499.95 450.05V400L2550 399.95C2550.05 427.597 2527.6 450.05 2500 450.05H2499.95Z" fill="#0AA7FF"/>
<path d="M2550 400C2550 427.614 2527.61 450 2500 450V400H2550ZM2550.1 399.9H2499.9V450.1H2500C2527.63 450.1 2550.1 427.625 2550.1 400V399.9Z" fill="#0AA7FF"/>
<path d="M2500 450.05C2472.4 450.05 2449.95 427.598 2449.95 400L2500 399.95L2500.05 450.05H2500Z" fill="#0AA7FF"/>
<path d="M2500 400V450C2472.39 450 2450 427.614 2450 400H2500ZM2500.1 399.9H2449.9V400C2449.9 427.625 2472.38 450.1 2500 450.1H2500.1V399.9Z" fill="#0AA7FF"/>
<path d="M2450 500.05C2449.95 472.403 2472.4 449.95 2500 449.95L2500.05 500.05H2450Z" fill="#0AA7FF"/>
<path d="M2500 450V500H2450C2450 472.386 2472.39 450 2500 450ZM2500.1 449.9H2500C2472.38 449.9 2449.9 472.375 2449.9 500V500.1H2500.1V449.9Z" fill="#0AA7FF"/>
<path d="M2500 500.05L2499.95 450H2500.04C2527.65 450 2550.05 472.433 2550.05 500V500.05H2500Z" fill="#0AA7FF"/>
<path d="M2500 450C2527.61 450 2550 472.386 2550 500H2500V450ZM2500 449.9H2499.9V500.1H2550.1V500C2550.1 472.375 2527.63 449.9 2500 449.9Z" fill="#0AA7FF"/>
<path d="M2499.95 550.05V500L2550 499.95C2550.05 527.597 2527.6 550.05 2500 550.05H2499.95Z" fill="#0AA7FF"/>
<path d="M2550 500C2550 527.614 2527.61 550 2500 550V500H2550ZM2550.1 499.9H2499.9V550.1H2500C2527.63 550.1 2550.1 527.625 2550.1 500V499.9Z" fill="#0AA7FF"/>
<path d="M2500 550.05C2472.4 550.05 2449.95 527.598 2449.95 500L2500 499.95L2500.05 550.05H2500Z" fill="#0AA7FF"/>
<path d="M2500 500V550C2472.39 550 2450 527.614 2450 500H2500ZM2500.1 499.9H2449.9V500C2449.9 527.625 2472.38 550.1 2500 550.1H2500.1V499.9Z" fill="#0AA7FF"/>
<path d="M2450 700.05C2449.95 672.403 2472.4 649.95 2500 649.95L2500.05 700.05H2450Z" fill="#0AA7FF"/>
<path d="M2500 650V700H2450C2450 672.386 2472.39 650 2500 650ZM2500.1 649.9H2500C2472.38 649.9 2449.9 672.375 2449.9 700V700.1H2500.1V649.9Z" fill="#0AA7FF"/>
<path d="M2500 700.05L2499.95 650H2500.04C2527.65 650 2550.05 672.433 2550.05 700V700.05H2500Z" fill="#0AA7FF"/>
<path d="M2500 650C2527.61 650 2550 672.386 2550 700H2500V650ZM2500 649.9H2499.9V700.1H2550.1V700C2550.1 672.375 2527.63 649.9 2500 649.9Z" fill="#0AA7FF"/>
<path d="M2499.95 350.05V300L2550 299.95C2550.05 327.597 2527.6 350.05 2500 350.05H2499.95Z" fill="#0AA7FF"/>
<path d="M2550 300C2550 327.614 2527.61 350 2500 350V300H2550ZM2550.1 299.9H2499.9V350.1H2500C2527.63 350.1 2550.1 327.625 2550.1 300V299.9Z" fill="#0AA7FF"/>
<path d="M2320 550.05C2292.4 550.05 2269.95 527.598 2269.95 500L2320 499.95L2320.05 550.05H2320Z" fill="white"/>
<path d="M2320 500V550C2292.39 550 2270 527.614 2270 500H2320ZM2320.1 499.9H2269.9V500C2269.9 527.625 2292.38 550.1 2320 550.1H2320.1V499.9Z" fill="white"/>
<path d="M2320 450.05C2292.4 450.05 2269.95 427.598 2269.95 400L2320 399.95L2320.05 450.05H2320Z" fill="white"/>
<path d="M2320 400V450C2292.39 450 2270 427.614 2270 400H2320ZM2320.1 399.9H2269.9V400C2269.9 427.625 2292.38 450.1 2320 450.1H2320.1V399.9Z" fill="white"/>
<path d="M2270 500.05C2269.95 472.403 2292.4 449.95 2320 449.95L2320.05 500.05H2270Z" fill="white"/>
<path d="M2320 450V500H2270C2270 472.386 2292.39 450 2320 450ZM2320.1 449.9H2320C2292.38 449.9 2269.9 472.375 2269.9 500V500.1H2320.1V449.9Z" fill="white"/>
<path d="M2270 700.05C2269.95 672.403 2292.4 649.95 2320 649.95L2320.05 700.05H2270Z" fill="white"/>
<path d="M2320 650V700H2270C2270 672.386 2292.39 650 2320 650ZM2320.1 649.9H2320C2292.38 649.9 2269.9 672.375 2269.9 700V700.1H2320.1V649.9Z" fill="white"/>
<path d="M2320 750.05C2292.4 750.05 2269.95 727.598 2269.95 700L2320 699.95L2320.05 750.05H2320Z" fill="white"/>
<path d="M2320 700V750C2292.39 750 2270 727.614 2270 700H2320ZM2320.1 699.9H2269.9V700C2269.9 727.625 2292.38 750.1 2320 750.1H2320.1V699.9Z" fill="white"/>
<path d="M2319.95 550.05V500L2370 499.95C2370.05 527.597 2347.6 550.05 2320 550.05H2319.95Z" fill="white"/>
<path d="M2370 500C2370 527.614 2347.61 550 2320 550V500H2370ZM2370.1 499.9H2319.9V550.1H2320C2347.63 550.1 2370.1 527.625 2370.1 500V499.9Z" fill="white"/>
<path d="M2320 500.05L2319.95 450H2320.04C2347.65 450 2370.05 472.433 2370.05 500V500.05H2320Z" fill="white"/>
<path d="M2320 450C2347.61 450 2370 472.386 2370 500H2320V450ZM2320 449.9H2319.9V500.1H2370.1V500C2370.1 472.375 2347.63 449.9 2320 449.9Z" fill="white"/>
<path d="M2319.95 450.05V400L2370 399.95C2370.05 427.597 2347.6 450.05 2320 450.05H2319.95Z" fill="white"/>
<path d="M2370 400C2370 427.614 2347.61 450 2320 450V400H2370ZM2370.1 399.9H2319.9V450.1H2320C2347.63 450.1 2370.1 427.625 2370.1 400V399.9Z" fill="white"/>
<path d="M2320 700.05L2319.95 650H2320.04C2347.65 650 2370.05 672.433 2370.05 700V700.05H2320Z" fill="white"/>
<path d="M2320 650C2347.61 650 2370 672.386 2370 700H2320V650ZM2320 649.9H2319.9V700.1H2370.1V700C2370.1 672.375 2347.63 649.9 2320 649.9Z" fill="white"/>
<path d="M2319.95 750.05V700L2370 699.95C2370.05 727.597 2347.6 750.05 2320 750.05H2319.95Z" fill="white"/>
<path d="M2370 700C2370 727.614 2347.61 750 2320 750V700H2370ZM2370.1 699.9H2319.9V750.1H2320C2347.63 750.1 2370.1 727.625 2370.1 700V699.9Z" fill="white"/>
<path d="M2320 150.05C2292.4 150.05 2269.95 127.598 2269.95 100L2320 99.95L2320.05 150.05H2320Z" fill="white"/>
<path d="M2320 99.9999V150C2292.39 150 2270 127.614 2270 99.9999H2320ZM2320.1 99.8999H2269.9V99.9999C2269.9 127.625 2292.38 150.1 2320 150.1H2320.1V99.8999Z" fill="white"/>
<path d="M2270 200.05C2269.95 172.403 2292.4 149.95 2320 149.95L2320.05 200.05H2270Z" fill="white"/>
<path d="M2320 150V200H2270C2270 172.386 2292.39 150 2320 150ZM2320.1 149.9H2320C2292.38 149.9 2269.9 172.375 2269.9 200V200.1H2320.1V149.9Z" fill="white"/>
<path d="M2270 100.05C2269.95 72.403 2292.4 49.95 2320 49.95L2320.05 100.05H2270Z" fill="white"/>
<path d="M2320 49.9999V99.9999H2270C2270 72.3859 2292.39 49.9999 2320 49.9999ZM2320.1 49.8999H2320C2292.38 49.8999 2269.9 72.3749 2269.9 99.9999V100.1H2320.1V49.8999Z" fill="white"/>
<path d="M2320 250.05C2292.4 250.05 2269.95 227.598 2269.95 200L2320 199.95L2320.05 250.05H2320Z" fill="white"/>
<path d="M2320 200V250C2292.39 250 2270 227.614 2270 200H2320ZM2320.1 199.9H2269.9V200C2269.9 227.625 2292.38 250.1 2320 250.1H2320.1V199.9Z" fill="white"/>
<path d="M2270 300.05C2269.95 272.403 2292.4 249.95 2320 249.95L2320.05 300.05H2270Z" fill="white"/>
<path d="M2320 250V300H2270C2270 272.386 2292.39 250 2320 250ZM2320.1 249.9H2320C2292.38 249.9 2269.9 272.375 2269.9 300V300.1H2320.1V249.9Z" fill="white"/>
<path d="M2320 350.05C2292.4 350.05 2269.95 327.598 2269.95 300L2320 299.95L2320.05 350.05H2320Z" fill="white"/>
<path d="M2320 300V350C2292.39 350 2270 327.614 2270 300H2320ZM2320.1 299.9H2269.9V300C2269.9 327.625 2292.38 350.1 2320 350.1H2320.1V299.9Z" fill="white"/>
<path d="M2270 400.05C2269.95 372.403 2292.4 349.95 2320 349.95L2320.05 400.05H2270Z" fill="white"/>
<path d="M2320 350V400H2270C2270 372.386 2292.39 350 2320 350ZM2320.1 349.9H2320C2292.38 349.9 2269.9 372.375 2269.9 400V400.1H2320.1V349.9Z" fill="white"/>
<path d="M2320 200.05L2319.95 150H2320.04C2347.65 150 2370.05 172.433 2370.05 200V200.05H2320Z" fill="white"/>
<path d="M2320 150C2347.61 150 2370 172.386 2370 200H2320V150ZM2320 149.9H2319.9V200.1H2370.1V200C2370.1 172.375 2347.63 149.9 2320 149.9Z" fill="white"/>
<path d="M2319.95 150.05V100L2370 99.95C2370.05 127.597 2347.6 150.05 2320 150.05H2319.95Z" fill="white"/>
<path d="M2370 99.9999C2370 127.614 2347.61 150 2320 150V99.9999H2370ZM2370.1 99.8999H2319.9V150.1H2320C2347.63 150.1 2370.1 127.625 2370.1 99.9999V99.8999Z" fill="white"/>
<path d="M2320 100.05L2319.95 50H2320.04C2347.65 50 2370.05 72.433 2370.05 100V100.05H2320Z" fill="white"/>
<path d="M2320 49.9999C2347.61 49.9999 2370 72.3859 2370 99.9999H2320V49.9999ZM2320 49.8999H2319.9V100.1H2370.1V99.9999C2370.1 72.3749 2347.63 49.8999 2320 49.8999Z" fill="white"/>
<path d="M2320 300.05L2319.95 250H2320.04C2347.65 250 2370.05 272.433 2370.05 300V300.05H2320Z" fill="white"/>
<path d="M2320 250C2347.61 250 2370 272.386 2370 300H2320V250ZM2320 249.9H2319.9V300.1H2370.1V300C2370.1 272.375 2347.63 249.9 2320 249.9Z" fill="white"/>
<path d="M2319.95 250.05V200L2370 199.95C2370.05 227.597 2347.6 250.05 2320 250.05H2319.95Z" fill="white"/>
<path d="M2370 200C2370 227.614 2347.61 250 2320 250V200H2370ZM2370.1 199.9H2319.9V250.1H2320C2347.63 250.1 2370.1 227.625 2370.1 200V199.9Z" fill="white"/>
<path d="M2320 400.05L2319.95 350H2320.04C2347.65 350 2370.05 372.433 2370.05 400V400.05H2320Z" fill="white"/>
<path d="M2320 350C2347.61 350 2370 372.386 2370 400H2320V350ZM2320 349.9H2319.9V400.1H2370.1V400C2370.1 372.375 2347.63 349.9 2320 349.9Z" fill="white"/>
<path d="M2319.95 350.05V300L2370 299.95C2370.05 327.597 2347.6 350.05 2320 350.05H2319.95Z" fill="white"/>
<path d="M2370 300C2370 327.614 2347.61 350 2320 350V300H2370ZM2370.1 299.9H2319.9V350.1H2320C2347.63 350.1 2370.1 327.625 2370.1 300V299.9Z" fill="white"/>
<path d="M2269.95 600C2269.95 572.457 2247.54 550.05 2220 550.05C2247.54 549.95 2269.95 527.543 2269.95 500C2270.05 527.543 2292.46 549.95 2320 549.95C2292.46 550.05 2270.05 572.457 2270.05 600H2269.95Z" fill="#A54AFF"/>
<path d="M2270 500C2270 527.614 2292.39 550 2320 550C2292.39 550 2270 572.386 2270 600C2270 572.386 2247.61 550 2220 550C2247.61 550 2270 527.614 2270 500ZM2270.1 500H2269.9C2269.9 527.515 2247.51 549.9 2220 549.9V550.1C2247.51 550.1 2269.9 572.485 2269.9 600H2270.1C2270.1 572.485 2292.49 550.1 2320 550.1V549.9C2292.49 549.9 2270.1 527.515 2270.1 500Z" fill="#A54AFF"/>
<path d="M2269.95 500C2269.95 472.457 2247.54 450.05 2220 450.05C2247.54 449.95 2269.95 427.543 2269.95 400C2270.05 427.543 2292.46 449.95 2320 449.95C2292.46 450.05 2270.05 472.457 2270.05 500H2269.95Z" fill="#A54AFF"/>
<path d="M2270 400C2270 427.614 2292.39 450 2320 450C2292.39 450 2270 472.386 2270 500C2270 472.386 2247.61 450 2220 450C2247.61 450 2270 427.614 2270 400ZM2270.1 400H2269.9C2269.9 427.515 2247.51 449.9 2220 449.9V450.1C2247.51 450.1 2269.9 472.485 2269.9 500H2270.1C2270.1 472.485 2292.49 450.1 2320 450.1V449.9C2292.49 449.9 2270.1 427.515 2270.1 400Z" fill="#A54AFF"/>
<path d="M2269.95 700C2269.95 672.457 2247.54 650.05 2220 650.05C2247.54 649.95 2269.95 627.543 2269.95 600C2270.05 627.543 2292.46 649.95 2320 649.95C2292.46 650.05 2270.05 672.457 2270.05 700H2269.95Z" fill="#A54AFF"/>
<path d="M2270 600C2270 627.614 2292.39 650 2320 650C2292.39 650 2270 672.386 2270 700C2270 672.386 2247.61 650 2220 650C2247.61 650 2270 627.614 2270 600ZM2270.1 600H2269.9C2269.9 627.515 2247.51 649.9 2220 649.9V650.1C2247.51 650.1 2269.9 672.485 2269.9 700H2270.1C2270.1 672.485 2292.49 650.1 2320 650.1V649.9C2292.49 649.9 2270.1 627.515 2270.1 600Z" fill="#A54AFF"/>
<path d="M2269.95 800C2269.95 772.457 2247.54 750.05 2220 750.05C2247.54 749.95 2269.95 727.543 2269.95 700C2270.05 727.543 2292.46 749.95 2320 749.95C2292.46 750.05 2270.05 772.457 2270.05 800H2269.95Z" fill="#A54AFF"/>
<path d="M2270 700C2270 727.614 2292.39 750 2320 750C2292.39 750 2270 772.386 2270 800C2270 772.386 2247.61 750 2220 750C2247.61 750 2270 727.614 2270 700ZM2270.1 700H2269.9C2269.9 727.515 2247.51 749.9 2220 749.9V750.1C2247.51 750.1 2269.9 772.485 2269.9 800H2270.1C2270.1 772.485 2292.49 750.1 2320 750.1V749.9C2292.49 749.9 2270.1 727.515 2270.1 700Z" fill="#A54AFF"/>
<path d="M2369.95 600C2369.95 572.457 2347.54 550.05 2320 550.05C2347.54 549.95 2369.95 527.543 2369.95 500C2370.05 527.543 2392.46 549.95 2420 549.95C2392.46 550.05 2370.05 572.457 2370.05 600H2369.95Z" fill="#A54AFF"/>
<path d="M2370 500C2370 527.614 2392.39 550 2420 550C2392.39 550 2370 572.386 2370 600C2370 572.386 2347.61 550 2320 550C2347.61 550 2370 527.614 2370 500ZM2370.1 500H2369.9C2369.9 527.515 2347.51 549.9 2320 549.9V550.1C2347.51 550.1 2369.9 572.485 2369.9 600H2370.1C2370.1 572.485 2392.49 550.1 2420 550.1V549.9C2392.49 549.9 2370.1 527.515 2370.1 500Z" fill="#A54AFF"/>
<path d="M2369.95 500C2369.95 472.457 2347.54 450.05 2320 450.05C2347.54 449.95 2369.95 427.543 2369.95 400C2370.05 427.543 2392.46 449.95 2420 449.95C2392.46 450.05 2370.05 472.457 2370.05 500H2369.95Z" fill="#A54AFF"/>
<path d="M2370 400C2370 427.614 2392.39 450 2420 450C2392.39 450 2370 472.386 2370 500C2370 472.386 2347.61 450 2320 450C2347.61 450 2370 427.614 2370 400ZM2370.1 400H2369.9C2369.9 427.515 2347.51 449.9 2320 449.9V450.1C2347.51 450.1 2369.9 472.485 2369.9 500H2370.1C2370.1 472.485 2392.49 450.1 2420 450.1V449.9C2392.49 449.9 2370.1 427.515 2370.1 400Z" fill="#A54AFF"/>
<path d="M2369.95 700C2369.95 672.457 2347.54 650.05 2320 650.05C2347.54 649.95 2369.95 627.543 2369.95 600C2370.05 627.543 2392.46 649.95 2420 649.95C2392.46 650.05 2370.05 672.457 2370.05 700H2369.95Z" fill="#A54AFF"/>
<path d="M2370 600C2370 627.614 2392.39 650 2420 650C2392.39 650 2370 672.386 2370 700C2370 672.386 2347.61 650 2320 650C2347.61 650 2370 627.614 2370 600ZM2370.1 600H2369.9C2369.9 627.515 2347.51 649.9 2320 649.9V650.1C2347.51 650.1 2369.9 672.485 2369.9 700H2370.1C2370.1 672.485 2392.49 650.1 2420 650.1V649.9C2392.49 649.9 2370.1 627.515 2370.1 600Z" fill="#A54AFF"/>
<path d="M2369.95 800C2369.95 772.457 2347.54 750.05 2320 750.05C2347.54 749.95 2369.95 727.543 2369.95 700C2370.05 727.543 2392.46 749.95 2420 749.95C2392.46 750.05 2370.05 772.457 2370.05 800H2369.95Z" fill="#A54AFF"/>
<path d="M2370 700C2370 727.614 2392.39 750 2420 750C2392.39 750 2370 772.386 2370 800C2370 772.386 2347.61 750 2320 750C2347.61 750 2370 727.614 2370 700ZM2370.1 700H2369.9C2369.9 727.515 2347.51 749.9 2320 749.9V750.1C2347.51 750.1 2369.9 772.485 2369.9 800H2370.1C2370.1 772.485 2392.49 750.1 2420 750.1V749.9C2392.49 749.9 2370.1 727.515 2370.1 700Z" fill="#A54AFF"/>
<path d="M2269.95 200C2269.95 172.458 2247.54 150.05 2220 150.05C2247.54 149.95 2269.95 127.543 2269.95 100C2270.05 127.542 2292.46 149.95 2320 149.95C2292.46 150.05 2270.05 172.457 2270.05 200H2269.95Z" fill="#A54AFF"/>
<path d="M2270 100C2270 127.614 2292.39 150 2320 150C2292.39 150 2270 172.386 2270 200C2270 172.386 2247.61 150 2220 150C2247.61 150 2270 127.614 2270 100ZM2270.1 100H2269.9C2269.9 127.515 2247.51 149.9 2220 149.9V150.1C2247.51 150.1 2269.9 172.485 2269.9 200H2270.1C2270.1 172.485 2292.49 150.1 2320 150.1V149.9C2292.49 149.9 2270.1 127.515 2270.1 100Z" fill="#A54AFF"/>
<path d="M2269.95 100C2269.95 72.458 2247.54 50.05 2220 50.05C2247.54 49.95 2269.95 27.543 2269.95 0C2270.05 27.542 2292.46 49.95 2320 49.95C2292.46 50.05 2270.05 72.457 2270.05 100H2269.95Z" fill="#A54AFF"/>
<path d="M2270 0C2270 27.614 2292.39 50 2320 50C2292.39 50 2270 72.386 2270 100C2270 72.386 2247.61 50 2220 50C2247.61 50 2270 27.614 2270 0ZM2270.1 0H2269.9C2269.9 27.515 2247.51 49.9 2220 49.9V50.1C2247.51 50.1 2269.9 72.485 2269.9 100H2270.1C2270.1 72.485 2292.49 50.1 2320 50.1V49.9C2292.49 49.9 2270.1 27.515 2270.1 0Z" fill="#A54AFF"/>
<path d="M2269.95 300C2269.95 272.458 2247.54 250.05 2220 250.05C2247.54 249.95 2269.95 227.543 2269.95 200C2270.05 227.542 2292.46 249.95 2320 249.95C2292.46 250.05 2270.05 272.457 2270.05 300H2269.95Z" fill="#A54AFF"/>
<path d="M2270 200C2270 227.614 2292.39 250 2320 250C2292.39 250 2270 272.386 2270 300C2270 272.386 2247.61 250 2220 250C2247.61 250 2270 227.614 2270 200ZM2270.1 200H2269.9C2269.9 227.515 2247.51 249.9 2220 249.9V250.1C2247.51 250.1 2269.9 272.485 2269.9 300H2270.1C2270.1 272.485 2292.49 250.1 2320 250.1V249.9C2292.49 249.9 2270.1 227.515 2270.1 200Z" fill="#A54AFF"/>
<path d="M2269.95 400C2269.95 372.458 2247.54 350.05 2220 350.05C2247.54 349.95 2269.95 327.543 2269.95 300C2270.05 327.542 2292.46 349.95 2320 349.95C2292.46 350.05 2270.05 372.457 2270.05 400H2269.95Z" fill="#A54AFF"/>
<path d="M2270 300C2270 327.614 2292.39 350 2320 350C2292.39 350 2270 372.386 2270 400C2270 372.386 2247.61 350 2220 350C2247.61 350 2270 327.614 2270 300ZM2270.1 300H2269.9C2269.9 327.515 2247.51 349.9 2220 349.9V350.1C2247.51 350.1 2269.9 372.485 2269.9 400H2270.1C2270.1 372.485 2292.49 350.1 2320 350.1V349.9C2292.49 349.9 2270.1 327.515 2270.1 300Z" fill="#A54AFF"/>
<path d="M2369.95 200C2369.95 172.458 2347.54 150.05 2320 150.05C2347.54 149.95 2369.95 127.543 2369.95 100C2370.05 127.542 2392.46 149.95 2420 149.95C2392.46 150.05 2370.05 172.457 2370.05 200H2369.95Z" fill="#A54AFF"/>
<path d="M2370 100C2370 127.614 2392.39 150 2420 150C2392.39 150 2370 172.386 2370 200C2370 172.386 2347.61 150 2320 150C2347.61 150 2370 127.614 2370 100ZM2370.1 100H2369.9C2369.9 127.515 2347.51 149.9 2320 149.9V150.1C2347.51 150.1 2369.9 172.485 2369.9 200H2370.1C2370.1 172.485 2392.49 150.1 2420 150.1V149.9C2392.49 149.9 2370.1 127.515 2370.1 100Z" fill="#A54AFF"/>
<path d="M2369.95 100C2369.95 72.458 2347.54 50.05 2320 50.05C2347.54 49.95 2369.95 27.543 2369.95 0C2370.05 27.542 2392.46 49.95 2420 49.95C2392.46 50.05 2370.05 72.457 2370.05 100H2369.95Z" fill="#A54AFF"/>
<path d="M2370 0C2370 27.614 2392.39 50 2420 50C2392.39 50 2370 72.386 2370 100C2370 72.386 2347.61 50 2320 50C2347.61 50 2370 27.614 2370 0ZM2370.1 0H2369.9C2369.9 27.515 2347.51 49.9 2320 49.9V50.1C2347.51 50.1 2369.9 72.485 2369.9 100H2370.1C2370.1 72.485 2392.49 50.1 2420 50.1V49.9C2392.49 49.9 2370.1 27.515 2370.1 0Z" fill="#A54AFF"/>
<path d="M2369.95 300C2369.95 272.458 2347.54 250.05 2320 250.05C2347.54 249.95 2369.95 227.543 2369.95 200C2370.05 227.542 2392.46 249.95 2420 249.95C2392.46 250.05 2370.05 272.457 2370.05 300H2369.95Z" fill="#A54AFF"/>
<path d="M2370 200C2370 227.614 2392.39 250 2420 250C2392.39 250 2370 272.386 2370 300C2370 272.386 2347.61 250 2320 250C2347.61 250 2370 227.614 2370 200ZM2370.1 200H2369.9C2369.9 227.515 2347.51 249.9 2320 249.9V250.1C2347.51 250.1 2369.9 272.485 2369.9 300H2370.1C2370.1 272.485 2392.49 250.1 2420 250.1V249.9C2392.49 249.9 2370.1 227.515 2370.1 200Z" fill="#A54AFF"/>
<path d="M2369.95 400C2369.95 372.458 2347.54 350.05 2320 350.05C2347.54 349.95 2369.95 327.543 2369.95 300C2370.05 327.542 2392.46 349.95 2420 349.95C2392.46 350.05 2370.05 372.457 2370.05 400H2369.95Z" fill="#A54AFF"/>
<path d="M2370 300C2370 327.614 2392.39 350 2420 350C2392.39 350 2370 372.386 2370 400C2370 372.386 2347.61 350 2320 350C2347.61 350 2370 327.614 2370 300ZM2370.1 300H2369.9C2369.9 327.515 2347.51 349.9 2320 349.9V350.1C2347.51 350.1 2369.9 372.485 2369.9 400H2370.1C2370.1 372.485 2392.49 350.1 2420 350.1V349.9C2392.49 349.9 2370.1 327.515 2370.1 300Z" fill="#A54AFF"/>
<path d="M1609 550C1581.39 550 1559 527.614 1559 500C1559 527.614 1536.61 550 1509 550C1536.61 550 1559 572.386 1559 600C1559 572.386 1581.39 550 1609 550Z" fill="white"/>
<path d="M1509 450C1481.39 450 1459 427.614 1459 400C1459 427.614 1436.61 450 1409 450C1436.61 450 1459 472.386 1459 500C1459 472.386 1481.39 450 1509 450Z" fill="white"/>
<path d="M1409 350C1381.39 350 1359 327.614 1359 300C1359 327.614 1336.61 350 1309 350C1336.61 350 1359 372.386 1359 400C1359 372.386 1381.39 350 1409 350Z" fill="white"/>
<path d="M1309 250C1281.39 250 1259 227.614 1259 200C1259 227.614 1236.61 250 1209 250C1236.61 250 1259 272.386 1259 300C1259 272.386 1281.39 250 1309 250Z" fill="white"/>
<path d="M1259 100C1259 127.614 1236.61 150 1209 150C1236.61 150 1259 172.386 1259 200V100Z" fill="white"/>
<path d="M1159 100C1159 127.614 1181.39 150 1209 150C1181.39 150 1159 172.386 1159 200V100Z" fill="white"/>
<path d="M1259 400C1259 427.614 1236.61 450 1209 450C1236.61 450 1259 472.386 1259 500V400Z" fill="white"/>
<path d="M1159 400C1159 427.614 1181.39 450 1209 450C1181.39 450 1159 472.386 1159 500V400Z" fill="white"/>
<path d="M1259 500C1259 527.614 1236.61 550 1209 550C1236.61 550 1259 572.386 1259 600V500Z" fill="white"/>
<path d="M1159 500C1159 527.614 1181.39 550 1209 550C1181.39 550 1159 572.386 1159 600V500Z" fill="white"/>
<path d="M1259 600C1259 627.614 1236.61 650 1209 650C1236.61 650 1259 672.386 1259 700V600Z" fill="white"/>
<path d="M1159 600C1159 627.614 1181.39 650 1209 650C1181.39 650 1159 672.386 1159 700V600Z" fill="white"/>
<path d="M1659 600C1659 627.614 1636.61 650 1609 650C1636.61 650 1659 672.386 1659 700V600Z" fill="white"/>
<path d="M1659 500C1659 527.614 1636.61 550 1609 550C1636.61 550 1659 572.386 1659 600V500Z" fill="white"/>
<path d="M1559 600C1559 627.614 1581.39 650 1609 650C1581.39 650 1559 672.386 1559 700V600Z" fill="white"/>
<path d="M1659 100C1659 127.614 1636.61 150 1609 150C1636.61 150 1659 172.386 1659 200V100Z" fill="white"/>
<path d="M1559 100C1559 127.614 1581.39 150 1609 150C1581.39 150 1559 172.386 1559 200V100Z" fill="white"/>
<path d="M1659 200C1659 227.614 1636.61 250 1609 250C1636.61 250 1659 272.386 1659 300V200Z" fill="white"/>
<path d="M1559 200C1559 227.614 1581.39 250 1609 250C1581.39 250 1559 272.386 1559 300V200Z" fill="white"/>
<path d="M1659 300C1659 327.614 1636.61 350 1609 350C1636.61 350 1659 372.386 1659 400V300Z" fill="white"/>
<path d="M1559 300C1559 327.614 1581.39 350 1609 350C1581.39 350 1559 372.386 1559 400V300Z" fill="white"/>
<path d="M1159 200C1159 227.614 1181.39 250 1209 250C1181.39 250 1159 272.386 1159 300V200Z" fill="white"/>
<path d="M1209 450.05C1181.4 450.05 1158.95 427.598 1158.95 400L1209 399.95L1209.05 450.05H1209Z" fill="#0AA7FF"/>
<path d="M1209 400V450C1181.39 450 1159 427.614 1159 400H1209ZM1209.1 399.9H1158.9V400C1158.9 427.625 1181.38 450.1 1209 450.1H1209.1V399.9Z" fill="#0AA7FF"/>
<path d="M1159 500.05C1158.95 472.403 1181.4 449.95 1209 449.95L1209.05 500.05H1159Z" fill="#0AA7FF"/>
<path d="M1209 450V500H1159C1159 472.386 1181.39 450 1209 450ZM1209.1 449.9H1209C1181.38 449.9 1158.9 472.375 1158.9 500V500.1H1209.1V449.9Z" fill="#0AA7FF"/>
<path d="M1209 500.05L1208.95 450H1209.04C1236.65 450 1259.05 472.433 1259.05 500V500.05H1209Z" fill="#0AA7FF"/>
<path d="M1209 450C1236.61 450 1259 472.386 1259 500H1209V450ZM1209 449.9H1208.9V500.1H1259.1V500C1259.1 472.375 1236.63 449.9 1209 449.9Z" fill="#0AA7FF"/>
<path d="M1208.95 550.05V500L1259 499.95C1259.05 527.597 1236.6 550.05 1209 550.05H1208.95Z" fill="#0AA7FF"/>
<path d="M1259 500C1259 527.614 1236.61 550 1209 550V500H1259ZM1259.1 499.9H1208.9V550.1H1209C1236.63 550.1 1259.1 527.625 1259.1 500V499.9Z" fill="#0AA7FF"/>
<path d="M1209 550.05C1181.4 550.05 1158.95 527.598 1158.95 500L1209 499.95L1209.05 550.05H1209Z" fill="#0AA7FF"/>
<path d="M1209 500V550C1181.39 550 1159 527.614 1159 500H1209ZM1209.1 499.9H1158.9V500C1158.9 527.625 1181.38 550.1 1209 550.1H1209.1V499.9Z" fill="#0AA7FF"/>
<path d="M1159 600.05C1158.95 572.403 1181.4 549.95 1209 549.95L1209.05 600.05H1159Z" fill="#0AA7FF"/>
<path d="M1209 550V600H1159C1159 572.386 1181.39 550 1209 550ZM1209.1 549.9H1209C1181.38 549.9 1158.9 572.375 1158.9 600V600.1H1209.1V549.9Z" fill="#0AA7FF"/>
<path d="M1209 600.05L1208.95 550H1209.04C1236.65 550 1259.05 572.433 1259.05 600V600.05H1209Z" fill="#0AA7FF"/>
<path d="M1209 550C1236.61 550 1259 572.386 1259 600H1209V550ZM1209 549.9H1208.9V600.1H1259.1V600C1259.1 572.375 1236.63 549.9 1209 549.9Z" fill="#0AA7FF"/>
<path d="M1159 700.05C1158.95 672.403 1181.4 649.95 1209 649.95L1209.05 700.05H1159Z" fill="#0AA7FF"/>
<path d="M1209 650V700H1159C1159 672.386 1181.39 650 1209 650ZM1209.1 649.9H1209C1181.38 649.9 1158.9 672.375 1158.9 700V700.1H1209.1V649.9Z" fill="#0AA7FF"/>
<path d="M1209 700.05L1208.95 650H1209.04C1236.65 650 1259.05 672.433 1259.05 700V700.05H1209Z" fill="#0AA7FF"/>
<path d="M1209 650C1236.61 650 1259 672.386 1259 700H1209V650ZM1209 649.9H1208.9V700.1H1259.1V700C1259.1 672.375 1236.63 649.9 1209 649.9Z" fill="#0AA7FF"/>
<path d="M1208.95 650.05V600L1259 599.95C1259.05 627.597 1236.6 650.05 1209 650.05H1208.95Z" fill="#0AA7FF"/>
<path d="M1259 600C1259 627.614 1236.61 650 1209 650V600H1259ZM1259.1 599.9H1208.9V650.1H1209C1236.63 650.1 1259.1 627.625 1259.1 600V599.9Z" fill="#0AA7FF"/>
<path d="M1209 650.05C1181.4 650.05 1158.95 627.598 1158.95 600L1209 599.95L1209.05 650.05H1209Z" fill="#0AA7FF"/>
<path d="M1209 600V650C1181.39 650 1159 627.614 1159 600H1209ZM1209.1 599.9H1158.9V600C1158.9 627.625 1181.38 650.1 1209 650.1H1209.1V599.9Z" fill="#0AA7FF"/>
<path d="M1208.95 450.05V400L1259 399.95C1259.05 427.597 1236.6 450.05 1209 450.05H1208.95Z" fill="#0AA7FF"/>
<path d="M1259 400C1259 427.614 1236.61 450 1209 450V400H1259ZM1259.1 399.9H1208.9V450.1H1209C1236.63 450.1 1259.1 427.625 1259.1 400V399.9Z" fill="#0AA7FF"/>
<path d="M1409 450.05C1381.4 450.05 1358.95 427.598 1358.95 400L1409 399.95L1409.05 450.05H1409Z" fill="#0AA7FF"/>
<path d="M1409 400V450C1381.39 450 1359 427.614 1359 400H1409ZM1409.1 399.9H1358.9V400C1358.9 427.625 1381.38 450.1 1409 450.1H1409.1V399.9Z" fill="#0AA7FF"/>
<path d="M1209 750.05C1181.4 750.05 1158.95 727.598 1158.95 700L1209 699.95L1209.05 750.05H1209Z" fill="#0AA7FF"/>
<path d="M1209 700V750C1181.39 750 1159 727.614 1159 700H1209ZM1209.1 699.9H1158.9V700C1158.9 727.625 1181.38 750.1 1209 750.1H1209.1V699.9Z" fill="#0AA7FF"/>
<path d="M1208.95 750.05V700L1259 699.95C1259.05 727.597 1236.6 750.05 1209 750.05H1208.95Z" fill="#0AA7FF"/>
<path d="M1259 700C1259 727.614 1236.61 750 1209 750V700H1259ZM1259.1 699.9H1208.9V750.1H1209C1236.63 750.1 1259.1 727.625 1259.1 700V699.9Z" fill="#0AA7FF"/>
<path d="M1509 550.05C1481.4 550.05 1458.95 527.598 1458.95 500L1509 499.95L1509.05 550.05H1509Z" fill="#0AA7FF"/>
<path d="M1509 500V550C1481.39 550 1459 527.614 1459 500H1509ZM1509.1 499.9H1458.9V500C1458.9 527.625 1481.38 550.1 1509 550.1H1509.1V499.9Z" fill="#0AA7FF"/>
<path d="M1508.95 550.05V500L1559 499.95C1559.05 527.597 1536.6 550.05 1509 550.05H1508.95Z" fill="#0AA7FF"/>
<path d="M1559 500C1559 527.614 1536.61 550 1509 550V500H1559ZM1559.1 499.9H1508.9V550.1H1509C1536.63 550.1 1559.1 527.625 1559.1 500V499.9Z" fill="#0AA7FF"/>
<path d="M1459 500.05C1458.95 472.403 1481.4 449.95 1509 449.95L1509.05 500.05H1459Z" fill="#0AA7FF"/>
<path d="M1509 450V500H1459C1459 472.386 1481.39 450 1509 450ZM1509.1 449.9H1509C1481.38 449.9 1458.9 472.375 1458.9 500V500.1H1509.1V449.9Z" fill="#0AA7FF"/>
<path d="M1408.95 450.05V400L1459 399.95C1459.05 427.597 1436.6 450.05 1409 450.05H1408.95Z" fill="#0AA7FF"/>
<path d="M1459 400C1459 427.614 1436.61 450 1409 450V400H1459ZM1459.1 399.9H1408.9V450.1H1409C1436.63 450.1 1459.1 427.625 1459.1 400V399.9Z" fill="#0AA7FF"/>
<path d="M1509 500.05L1508.95 450H1509.04C1536.65 450 1559.05 472.433 1559.05 500V500.05H1509Z" fill="#0AA7FF"/>
<path d="M1509 450C1536.61 450 1559 472.386 1559 500H1509V450ZM1509 449.9H1508.9V500.1H1559.1V500C1559.1 472.375 1536.63 449.9 1509 449.9Z" fill="#0AA7FF"/>
<path d="M1609 750.05C1581.4 750.05 1558.95 727.598 1558.95 700L1609 699.95L1609.05 750.05H1609Z" fill="#0AA7FF"/>
<path d="M1609 700V750C1581.39 750 1559 727.614 1559 700H1609ZM1609.1 699.9H1558.9V700C1558.9 727.625 1581.38 750.1 1609 750.1H1609.1V699.9Z" fill="#0AA7FF"/>
<path d="M1608.95 750.05V700L1659 699.95C1659.05 727.597 1636.6 750.05 1609 750.05H1608.95Z" fill="#0AA7FF"/>
<path d="M1659 700C1659 727.614 1636.61 750 1609 750V700H1659ZM1659.1 699.9H1608.9V750.1H1609C1636.63 750.1 1659.1 727.625 1659.1 700V699.9Z" fill="#0AA7FF"/>
<path d="M1159 100.05C1158.95 72.4029 1181.4 49.9509 1209 49.9509L1209.05 100.05H1159Z" fill="#0AA7FF"/>
<path d="M1209 49.9999V99.9999H1159C1159 72.3859 1181.39 49.9999 1209 49.9999ZM1209.1 49.8999H1209C1181.38 49.8999 1158.9 72.3749 1158.9 99.9999V100.1H1209.1V49.8999Z" fill="#0AA7FF"/>
<path d="M1209 100.05L1208.95 50.001H1209.04C1236.65 50.001 1259.05 72.434 1259.05 100.001V100.051L1209 100.05Z" fill="#0AA7FF"/>
<path d="M1209 49.9999C1236.61 49.9999 1259 72.3859 1259 99.9999H1209V49.9999ZM1209 49.8999H1208.9V100.1H1259.1V99.9999C1259.1 72.3749 1236.63 49.8999 1209 49.8999Z" fill="#0AA7FF"/>
<path d="M1208.95 150.05V100L1259 99.95C1259.05 127.597 1236.6 150.05 1209 150.05H1208.95Z" fill="#0AA7FF"/>
<path d="M1259 99.9999C1259 127.614 1236.61 150 1209 150V99.9999H1259ZM1259.1 99.8999H1208.9V150.1H1209C1236.63 150.1 1259.1 127.625 1259.1 99.9999V99.8999Z" fill="#0AA7FF"/>
<path d="M1209 150.05C1181.4 150.05 1158.95 127.598 1158.95 100L1209 99.95L1209.05 150.05H1209Z" fill="#0AA7FF"/>
<path d="M1209 99.9999V150C1181.39 150 1159 127.614 1159 99.9999H1209ZM1209.1 99.8999H1158.9V99.9999C1158.9 127.625 1181.38 150.1 1209 150.1H1209.1V99.8999Z" fill="#0AA7FF"/>
<path d="M1159 200.05C1158.95 172.403 1181.4 149.95 1209 149.95L1209.05 200.05H1159Z" fill="#0AA7FF"/>
<path d="M1209 150V200H1159C1159 172.386 1181.39 150 1209 150ZM1209.1 149.9H1209C1181.38 149.9 1158.9 172.375 1158.9 200V200.1H1209.1V149.9Z" fill="#0AA7FF"/>
<path d="M1209 200.05L1208.95 150H1209.04C1236.65 150 1259.05 172.433 1259.05 200V200.05H1209Z" fill="#0AA7FF"/>
<path d="M1209 150C1236.61 150 1259 172.386 1259 200H1209V150ZM1209 149.9H1208.9V200.1H1259.1V200C1259.1 172.375 1236.63 149.9 1209 149.9Z" fill="#0AA7FF"/>
<path d="M1208.95 249.928V199.878L1259 199.828C1259.05 227.475 1236.6 249.928 1209 249.928H1208.95Z" fill="#0AA7FF"/>
<path d="M1259 199.879C1259 227.493 1236.61 249.879 1209 249.879V199.879H1259ZM1259.1 199.779H1208.9V249.979H1209C1236.63 249.979 1259.1 227.504 1259.1 199.879V199.779Z" fill="#0AA7FF"/>
<path d="M1209 250.05C1181.4 250.05 1158.95 227.598 1158.95 200L1209 199.95L1209.05 250.05H1209Z" fill="#0AA7FF"/>
<path d="M1209 200V250C1181.39 250 1159 227.614 1159 200H1209ZM1209.1 199.9H1158.9V200C1158.9 227.625 1181.38 250.1 1209 250.1H1209.1V199.9Z" fill="#0AA7FF"/>
<path d="M1159 300.05C1158.95 272.403 1181.4 249.95 1209 249.95L1209.05 300.05H1159Z" fill="#0AA7FF"/>
<path d="M1209 250V300H1159C1159 272.386 1181.39 250 1209 250ZM1209.1 249.9H1209C1181.38 249.9 1158.9 272.375 1158.9 300V300.1H1209.1V249.9Z" fill="#0AA7FF"/>
<path d="M1259 300.05C1258.95 272.403 1281.4 249.95 1309 249.95L1309.05 300.05H1259Z" fill="#0AA7FF"/>
<path d="M1309 250V300H1259C1259 272.386 1281.39 250 1309 250ZM1309.1 249.9H1309C1281.38 249.9 1258.9 272.375 1258.9 300V300.1H1309.1V249.9Z" fill="#0AA7FF"/>
<path d="M1209 300.05L1208.95 250H1209.04C1236.65 250 1259.05 272.433 1259.05 300V300.05H1209Z" fill="#0AA7FF"/>
<path d="M1209 250C1236.61 250 1259 272.386 1259 300H1209V250ZM1209 249.9H1208.9V300.1H1259.1V300C1259.1 272.375 1236.63 249.9 1209 249.9Z" fill="#0AA7FF"/>
<path d="M1208.95 350.05V300L1259 299.95C1259.05 327.597 1236.6 350.05 1209 350.05H1208.95Z" fill="#0AA7FF"/>
<path d="M1259 300C1259 327.614 1236.61 350 1209 350V300H1259ZM1259.1 299.9H1208.9V350.1H1209C1236.63 350.1 1259.1 327.625 1259.1 300V299.9Z" fill="#0AA7FF"/>
<path d="M1308.95 350.05V300L1359 299.95C1359.05 327.597 1336.6 350.05 1309 350.05H1308.95Z" fill="#0AA7FF"/>
<path d="M1359 300C1359 327.614 1336.61 350 1309 350V300H1359ZM1359.1 299.9H1308.9V350.1H1309C1336.63 350.1 1359.1 327.625 1359.1 300V299.9Z" fill="#0AA7FF"/>
<path d="M1209 350.05C1181.4 350.05 1158.95 327.598 1158.95 300L1209 299.95L1209.05 350.05H1209Z" fill="#0AA7FF"/>
<path d="M1209 300V350C1181.39 350 1159 327.614 1159 300H1209ZM1209.1 299.9H1158.9V300C1158.9 327.625 1181.38 350.1 1209 350.1H1209.1V299.9Z" fill="#0AA7FF"/>
<path d="M1159 400.05C1158.95 372.403 1181.4 349.95 1209 349.95L1209.05 400.05H1159Z" fill="#0AA7FF"/>
<path d="M1209 350V400H1159C1159 372.386 1181.39 350 1209 350ZM1209.1 349.9H1209C1181.38 349.9 1158.9 372.375 1158.9 400V400.1H1209.1V349.9Z" fill="#0AA7FF"/>
<path d="M1209 400.05L1208.95 350H1209.04C1236.65 350 1259.05 372.433 1259.05 400V400.05H1209Z" fill="#0AA7FF"/>
<path d="M1209 350C1236.61 350 1259 372.386 1259 400H1209V350ZM1209 349.9H1208.9V400.1H1259.1V400C1259.1 372.375 1236.63 349.9 1209 349.9Z" fill="#0AA7FF"/>
<path d="M1309 300.05L1308.95 250H1309.04C1336.65 250 1359.05 272.433 1359.05 300V300.05H1309Z" fill="#0AA7FF"/>
<path d="M1309 250C1336.61 250 1359 272.386 1359 300H1309V250ZM1309 249.9H1308.9V300.1H1359.1V300C1359.1 272.375 1336.63 249.9 1309 249.9Z" fill="#0AA7FF"/>
<path d="M1309 350.05C1281.4 350.05 1258.95 327.598 1258.95 300L1309 299.95L1309.05 350.05H1309Z" fill="#0AA7FF"/>
<path d="M1309 300V350C1281.39 350 1259 327.614 1259 300H1309ZM1309.1 299.9H1258.9V300C1258.9 327.625 1281.38 350.1 1309 350.1H1309.1V299.9Z" fill="#0AA7FF"/>
<path d="M1359 400.05C1358.95 372.403 1381.4 349.95 1409 349.95L1409.05 400.05H1359Z" fill="#0AA7FF"/>
<path d="M1409 350V400H1359C1359 372.386 1381.39 350 1409 350ZM1409.1 349.9H1409C1381.38 349.9 1358.9 372.375 1358.9 400V400.1H1409.1V349.9Z" fill="#0AA7FF"/>
<path d="M1559 100.05C1558.95 72.4029 1581.4 49.9509 1609 49.9509L1609.05 100.05H1559Z" fill="#0AA7FF"/>
<path d="M1609 49.9999V99.9999H1559C1559 72.3859 1581.39 49.9999 1609 49.9999ZM1609.1 49.8999H1609C1581.38 49.8999 1558.9 72.3749 1558.9 99.9999V100.1H1609.1V49.8999Z" fill="#0AA7FF"/>
<path d="M1609 100.05L1608.95 50.001H1609.04C1636.65 50.001 1659.05 72.434 1659.05 100.001V100.051L1609 100.05Z" fill="#0AA7FF"/>
<path d="M1609 49.9999C1636.61 49.9999 1659 72.3859 1659 99.9999H1609V49.9999ZM1609 49.8999H1608.9V100.1H1659.1V99.9999C1659.1 72.3749 1636.63 49.8999 1609 49.8999Z" fill="#0AA7FF"/>
<path d="M1559 300.05C1558.95 272.403 1581.4 249.95 1609 249.95L1609.05 300.05H1559Z" fill="#0AA7FF"/>
<path d="M1609 250V300H1559C1559 272.386 1581.39 250 1609 250ZM1609.1 249.9H1609C1581.38 249.9 1558.9 272.375 1558.9 300V300.1H1609.1V249.9Z" fill="#0AA7FF"/>
<path d="M1609 300.05L1608.95 250H1609.04C1636.65 250 1659.05 272.433 1659.05 300V300.05H1609Z" fill="#0AA7FF"/>
<path d="M1609 250C1636.61 250 1659 272.386 1659 300H1609V250ZM1609 249.9H1608.9V300.1H1659.1V300C1659.1 272.375 1636.63 249.9 1609 249.9Z" fill="#0AA7FF"/>
<path d="M1608.95 150.05V100L1659 99.95C1659.05 127.597 1636.6 150.05 1609 150.05H1608.95Z" fill="#0AA7FF"/>
<path d="M1659 99.9999C1659 127.614 1636.61 150 1609 150V99.9999H1659ZM1659.1 99.8999H1608.9V150.1H1609C1636.63 150.1 1659.1 127.625 1659.1 99.9999V99.8999Z" fill="#0AA7FF"/>
<path d="M1609 150.05C1581.4 150.05 1558.95 127.598 1558.95 100L1609 99.95L1609.05 150.05H1609Z" fill="#0AA7FF"/>
<path d="M1609 99.9999V150C1581.39 150 1559 127.614 1559 99.9999H1609ZM1609.1 99.8999H1558.9V99.9999C1558.9 127.625 1581.38 150.1 1609 150.1H1609.1V99.8999Z" fill="#0AA7FF"/>
<path d="M1559 200.05C1558.95 172.403 1581.4 149.95 1609 149.95L1609.05 200.05H1559Z" fill="#0AA7FF"/>
<path d="M1609 150V200H1559C1559 172.386 1581.39 150 1609 150ZM1609.1 149.9H1609C1581.38 149.9 1558.9 172.375 1558.9 200V200.1H1609.1V149.9Z" fill="#0AA7FF"/>
<path d="M1609 200.05L1608.95 150H1609.04C1636.65 150 1659.05 172.433 1659.05 200V200.05H1609Z" fill="#0AA7FF"/>
<path d="M1609 150C1636.61 150 1659 172.386 1659 200H1609V150ZM1609 149.9H1608.9V200.1H1659.1V200C1659.1 172.375 1636.63 149.9 1609 149.9Z" fill="#0AA7FF"/>
<path d="M1608.95 250.05V200L1659 199.95C1659.05 227.597 1636.6 250.05 1609 250.05H1608.95Z" fill="#0AA7FF"/>
<path d="M1659 200C1659 227.614 1636.61 250 1609 250V200H1659ZM1659.1 199.9H1608.9V250.1H1609C1636.63 250.1 1659.1 227.625 1659.1 200V199.9Z" fill="#0AA7FF"/>
<path d="M1609 250.05C1581.4 250.05 1558.95 227.598 1558.95 200L1609 199.95L1609.05 250.05H1609Z" fill="#0AA7FF"/>
<path d="M1609 200V250C1581.39 250 1559 227.614 1559 200H1609ZM1609.1 199.9H1558.9V200C1558.9 227.625 1581.38 250.1 1609 250.1H1609.1V199.9Z" fill="#0AA7FF"/>
<path d="M1409 400.05L1408.95 350H1409.04C1436.65 350 1459.05 372.433 1459.05 400V400.05H1409Z" fill="#0AA7FF"/>
<path d="M1409 350C1436.61 350 1459 372.386 1459 400H1409V350ZM1409 349.9H1408.9V400.1H1459.1V400C1459.1 372.375 1436.63 349.9 1409 349.9Z" fill="#0AA7FF"/>
<path d="M1609 350.05C1581.4 350.05 1558.95 327.598 1558.95 300L1609 299.95L1609.05 350.05H1609Z" fill="#0AA7FF"/>
<path d="M1609 300V350C1581.39 350 1559 327.614 1559 300H1609ZM1609.1 299.9H1558.9V300C1558.9 327.625 1581.38 350.1 1609 350.1H1609.1V299.9Z" fill="#0AA7FF"/>
<path d="M1559 400.05C1558.95 372.403 1581.4 349.95 1609 349.95L1609.05 400.05H1559Z" fill="#0AA7FF"/>
<path d="M1609 350V400H1559C1559 372.386 1581.39 350 1609 350ZM1609.1 349.9H1609C1581.38 349.9 1558.9 372.375 1558.9 400V400.1H1609.1V349.9Z" fill="#0AA7FF"/>
<path d="M1609 400.05L1608.95 350H1609.04C1636.65 350 1659.05 372.433 1659.05 400V400.05H1609Z" fill="#0AA7FF"/>
<path d="M1609 350C1636.61 350 1659 372.386 1659 400H1609V350ZM1609 349.9H1608.9V400.1H1659.1V400C1659.1 372.375 1636.63 349.9 1609 349.9Z" fill="#0AA7FF"/>
<path d="M1608.95 450.05V400L1659 399.95C1659.05 427.597 1636.6 450.05 1609 450.05H1608.95Z" fill="#0AA7FF"/>
<path d="M1659 400C1659 427.614 1636.61 450 1609 450V400H1659ZM1659.1 399.9H1608.9V450.1H1609C1636.63 450.1 1659.1 427.625 1659.1 400V399.9Z" fill="#0AA7FF"/>
<path d="M1609 450.05C1581.4 450.05 1558.95 427.598 1558.95 400L1609 399.95L1609.05 450.05H1609Z" fill="#0AA7FF"/>
<path d="M1609 400V450C1581.39 450 1559 427.614 1559 400H1609ZM1609.1 399.9H1558.9V400C1558.9 427.625 1581.38 450.1 1609 450.1H1609.1V399.9Z" fill="#0AA7FF"/>
<path d="M1559 500.05C1558.95 472.403 1581.4 449.95 1609 449.95L1609.05 500.05H1559Z" fill="#0AA7FF"/>
<path d="M1609 450V500H1559C1559 472.386 1581.39 450 1609 450ZM1609.1 449.9H1609C1581.38 449.9 1558.9 472.375 1558.9 500V500.1H1609.1V449.9Z" fill="#0AA7FF"/>
<path d="M1609 500.05L1608.95 450H1609.04C1636.65 450 1659.05 472.433 1659.05 500V500.05H1609Z" fill="#0AA7FF"/>
<path d="M1609 450C1636.61 450 1659 472.386 1659 500H1609V450ZM1609 449.9H1608.9V500.1H1659.1V500C1659.1 472.375 1636.63 449.9 1609 449.9Z" fill="#0AA7FF"/>
<path d="M1608.95 550.05V500L1659 499.95C1659.05 527.597 1636.6 550.05 1609 550.05H1608.95Z" fill="#0AA7FF"/>
<path d="M1659 500C1659 527.614 1636.61 550 1609 550V500H1659ZM1659.1 499.9H1608.9V550.1H1609C1636.63 550.1 1659.1 527.625 1659.1 500V499.9Z" fill="#0AA7FF"/>
<path d="M1609 550.05C1581.4 550.05 1558.95 527.598 1558.95 500L1609 499.95L1609.05 550.05H1609Z" fill="#0AA7FF"/>
<path d="M1609 500V550C1581.39 550 1559 527.614 1559 500H1609ZM1609.1 499.9H1558.9V500C1558.9 527.625 1581.38 550.1 1609 550.1H1609.1V499.9Z" fill="#0AA7FF"/>
<path d="M1559 600.05C1558.95 572.403 1581.4 549.95 1609 549.95L1609.05 600.05H1559Z" fill="#0AA7FF"/>
<path d="M1609 550V600H1559C1559 572.386 1581.39 550 1609 550ZM1609.1 549.9H1609C1581.38 549.9 1558.9 572.375 1558.9 600V600.1H1609.1V549.9Z" fill="#0AA7FF"/>
<path d="M1609 600.05L1608.95 550H1609.04C1636.65 550 1659.05 572.433 1659.05 600V600.05H1609Z" fill="#0AA7FF"/>
<path d="M1609 550C1636.61 550 1659 572.386 1659 600H1609V550ZM1609 549.9H1608.9V600.1H1659.1V600C1659.1 572.375 1636.63 549.9 1609 549.9Z" fill="#0AA7FF"/>
<path d="M1559 700.05C1558.95 672.403 1581.4 649.95 1609 649.95L1609.05 700.05H1559Z" fill="#0AA7FF"/>
<path d="M1609 650V700H1559C1559 672.386 1581.39 650 1609 650ZM1609.1 649.9H1609C1581.38 649.9 1558.9 672.375 1558.9 700V700.1H1609.1V649.9Z" fill="#0AA7FF"/>
<path d="M1609 700.05L1608.95 650H1609.04C1636.65 650 1659.05 672.433 1659.05 700V700.05H1609Z" fill="#0AA7FF"/>
<path d="M1609 650C1636.61 650 1659 672.386 1659 700H1609V650ZM1609 649.9H1608.9V700.1H1659.1V700C1659.1 672.375 1636.63 649.9 1609 649.9Z" fill="#0AA7FF"/>
<path d="M1608.95 650.05V600L1659 599.95C1659.05 627.597 1636.6 650.05 1609 650.05H1608.95Z" fill="#0AA7FF"/>
<path d="M1659 600C1659 627.614 1636.61 650 1609 650V600H1659ZM1659.1 599.9H1608.9V650.1H1609C1636.63 650.1 1659.1 627.625 1659.1 600V599.9Z" fill="#0AA7FF"/>
<path d="M1609 650.05C1581.4 650.05 1558.95 627.598 1558.95 600L1609 599.95L1609.05 650.05H1609Z" fill="#0AA7FF"/>
<path d="M1609 600V650C1581.39 650 1559 627.614 1559 600H1609ZM1609.1 599.9H1558.9V600C1558.9 627.625 1581.38 650.1 1609 650.1H1609.1V599.9Z" fill="#0AA7FF"/>
<path d="M1608.95 350.05V300L1659 299.95C1659.05 327.597 1636.6 350.05 1609 350.05H1608.95Z" fill="#0AA7FF"/>
<path d="M1659 300C1659 327.614 1636.61 350 1609 350V300H1659ZM1659.1 299.9H1608.9V350.1H1609C1636.63 350.1 1659.1 327.625 1659.1 300V299.9Z" fill="#0AA7FF"/>
<path d="M630 550C602.386 550 580 572.386 580 600H630V550Z" fill="white"/>
<path d="M680 500H630V550C657.614 550 680 527.614 680 500Z" fill="white"/>
<path d="M630 450C602.386 450 580 472.386 580 500H630V450Z" fill="white"/>
<path d="M680 400H630V450C657.614 450 680 427.614 680 400Z" fill="white"/>
<path d="M780 400H730V450C757.614 450 780 427.614 780 400Z" fill="white"/>
<path d="M630 650C602.386 650 580 672.386 580 700H630V650Z" fill="white"/>
<path d="M680 600H630V650C657.614 650 680 627.614 680 600Z" fill="white"/>
<path d="M1030 550C1002.39 550 980 572.386 980 600H1030V550Z" fill="white"/>
<path d="M1080 500H1030V550C1057.61 550 1080 527.614 1080 500Z" fill="white"/>
<path d="M880 400H830V450C857.614 450 880 427.614 880 400Z" fill="white"/>
<path d="M1030 450C1002.39 450 980 472.386 980 500H1030V450Z" fill="white"/>
<path d="M980 400H930V450C957.614 450 980 427.614 980 400Z" fill="white"/>
<path d="M1080 400H1030V450C1057.61 450 1080 427.614 1080 400Z" fill="white"/>
<path d="M1030 650C1002.39 650 980 672.386 980 700H1030V650Z" fill="white"/>
<path d="M1080 600H1030V650C1057.61 650 1080 627.614 1080 600Z" fill="white"/>
<path d="M1080 700H1030V750C1057.61 750 1080 727.614 1080 700Z" fill="white"/>
<path d="M730 150C702.386 150 680 172.386 680 200H730V150Z" fill="white"/>
<path d="M830 50C802.386 50 780 72.386 780 100H830V50Z" fill="white"/>
<path d="M630 250C602.386 250 580 272.386 580 300H630V250Z" fill="white"/>
<path d="M780 200H730V250C757.614 250 780 227.614 780 200Z" fill="white"/>
<path d="M630 350C602.386 350 580 372.386 580 400H630V350Z" fill="white"/>
<path d="M730 350C702.386 350 680 372.386 680 400H730V350Z" fill="white"/>
<path d="M680 300H630V350C657.614 350 680 327.614 680 300Z" fill="white"/>
<path d="M830 350C802.386 350 780 372.386 780 400H830V350Z" fill="white"/>
<path d="M930 150C902.386 150 880 172.386 880 200H930V150Z" fill="white"/>
<path d="M880 100H830V150C857.614 150 880 127.614 880 100Z" fill="white"/>
<path d="M1030 250C1002.39 250 980 272.386 980 300H1030V250Z" fill="white"/>
<path d="M980 200H930V250C957.614 250 980 227.614 980 200Z" fill="white"/>
<path d="M930 350C902.386 350 880 372.386 880 400H930V350Z" fill="white"/>
<path d="M1030 350C1002.39 350 980 372.386 980 400H1030V350Z" fill="white"/>
<path d="M1080 300H1030V350C1057.61 350 1080 327.614 1080 300Z" fill="white"/>
<path d="M579.95 600C579.95 572.457 557.543 550.05 530 550.05C557.543 549.95 579.95 527.543 579.95 500C580.05 527.543 602.457 549.95 630 549.95C602.457 550.05 580.05 572.457 580.05 600H579.95Z" fill="#A54AFF"/>
<path d="M580 500C580 527.614 602.386 550 630 550C602.386 550 580 572.386 580 600C580 572.386 557.614 550 530 550C557.614 550 580 527.614 580 500ZM580.1 500H579.9C579.9 527.515 557.515 549.9 530 549.9V550.1C557.515 550.1 579.9 572.485 579.9 600H580.1C580.1 572.485 602.485 550.1 630 550.1V549.9C602.485 549.9 580.1 527.515 580.1 500Z" fill="#A54AFF"/>
<path d="M630 550.05C602.402 550.05 579.95 527.598 579.95 500L630 499.95L630.05 550.05H630Z" fill="#A54AFF"/>
<path d="M630 500V550C602.386 550 580 527.614 580 500H630ZM630.1 499.9H579.9V500C579.9 527.625 602.375 550.1 630 550.1H630.1V499.9Z" fill="#A54AFF"/>
<path d="M679.95 600C679.95 572.457 657.543 550.05 630 550.05C657.543 549.95 679.95 527.543 679.95 500C680.05 527.543 702.457 549.95 730 549.95C702.457 550.05 680.05 572.457 680.05 600H679.95Z" fill="#A54AFF"/>
<path d="M680 500C680 527.614 702.386 550 730 550C702.386 550 680 572.386 680 600C680 572.386 657.614 550 630 550C657.614 550 680 527.614 680 500ZM680.1 500H679.9C679.9 527.515 657.515 549.9 630 549.9V550.1C657.515 550.1 679.9 572.485 679.9 600H680.1C680.1 572.485 702.485 550.1 730 550.1V549.9C702.485 549.9 680.1 527.515 680.1 500Z" fill="#A54AFF"/>
<path d="M630 600.05L629.95 550H630.042C657.648 550 680.05 572.433 680.05 600V600.05H630Z" fill="#A54AFF"/>
<path d="M630 550C657.614 550 680 572.386 680 600H630V550ZM630 549.9H629.9V600.1H680.1V600C680.1 572.375 657.625 549.9 630 549.9Z" fill="#A54AFF"/>
<path d="M579.95 500C579.95 472.457 557.543 450.05 530 450.05C557.543 449.95 579.95 427.543 579.95 400C580.05 427.543 602.457 449.95 630 449.95C602.457 450.05 580.05 472.457 580.05 500H579.95Z" fill="#A54AFF"/>
<path d="M580 400C580 427.614 602.386 450 630 450C602.386 450 580 472.386 580 500C580 472.386 557.614 450 530 450C557.614 450 580 427.614 580 400ZM580.1 400H579.9C579.9 427.515 557.515 449.9 530 449.9V450.1C557.515 450.1 579.9 472.485 579.9 500H580.1C580.1 472.485 602.485 450.1 630 450.1V449.9C602.485 449.9 580.1 427.515 580.1 400Z" fill="#A54AFF"/>
<path d="M630 450.05C602.402 450.05 579.95 427.598 579.95 400L630 399.95L630.05 450.05H630Z" fill="#A54AFF"/>
<path d="M630 400V450C602.386 450 580 427.614 580 400H630ZM630.1 399.9H579.9V400C579.9 427.625 602.375 450.1 630 450.1H630.1V399.9Z" fill="#A54AFF"/>
<path d="M679.95 500C679.95 472.457 657.543 450.05 630 450.05C657.543 449.95 679.95 427.543 679.95 400C680.05 427.543 702.457 449.95 730 449.95C702.457 450.05 680.05 472.457 680.05 500H679.95Z" fill="#A54AFF"/>
<path d="M680 400C680 427.614 702.386 450 730 450C702.386 450 680 472.386 680 500C680 472.386 657.614 450 630 450C657.614 450 680 427.614 680 400ZM680.1 400H679.9C679.9 427.515 657.515 449.9 630 449.9V450.1C657.515 450.1 679.9 472.485 679.9 500H680.1C680.1 472.485 702.485 450.1 730 450.1V449.9C702.485 449.9 680.1 427.515 680.1 400Z" fill="#A54AFF"/>
<path d="M730 450.05C702.402 450.05 679.95 427.598 679.95 400L730 399.95L730.05 450.05H730Z" fill="#A54AFF"/>
<path d="M730 400V450C702.386 450 680 427.614 680 400H730ZM730.1 399.9H679.9V400C679.9 427.625 702.375 450.1 730 450.1H730.1V399.9Z" fill="#A54AFF"/>
<path d="M630 500.05L629.95 450H630.042C657.648 450 680.05 472.433 680.05 500V500.05H630Z" fill="#A54AFF"/>
<path d="M630 450C657.614 450 680 472.386 680 500H630V450ZM630 449.9H629.9V500.1H680.1V500C680.1 472.375 657.625 449.9 630 449.9Z" fill="#A54AFF"/>
<path d="M779.95 500C779.95 472.457 757.543 450.05 730 450.05C757.543 449.95 779.95 427.543 779.95 400C780.05 427.543 802.457 449.95 830 449.95C802.457 450.05 780.05 472.457 780.05 500H779.95Z" fill="#A54AFF"/>
<path d="M780 400C780 427.614 802.386 450 830 450C802.386 450 780 472.386 780 500C780 472.386 757.614 450 730 450C757.614 450 780 427.614 780 400ZM780.1 400H779.9C779.9 427.515 757.515 449.9 730 449.9V450.1C757.515 450.1 779.9 472.485 779.9 500H780.1C780.1 472.485 802.485 450.1 830 450.1V449.9C802.485 449.9 780.1 427.515 780.1 400Z" fill="#A54AFF"/>
<path d="M830 450.05C802.402 450.05 779.95 427.598 779.95 400L830 399.95L830.05 450.05H830Z" fill="#A54AFF"/>
<path d="M830 400V450C802.386 450 780 427.614 780 400H830ZM830.1 399.9H779.9V400C779.9 427.625 802.375 450.1 830 450.1H830.1V399.9Z" fill="#A54AFF"/>
<path d="M579.95 700C579.95 672.457 557.543 650.05 530 650.05C557.543 649.95 579.95 627.543 579.95 600C580.05 627.543 602.457 649.95 630 649.95C602.457 650.05 580.05 672.457 580.05 700H579.95Z" fill="#A54AFF"/>
<path d="M580 600C580 627.614 602.386 650 630 650C602.386 650 580 672.386 580 700C580 672.386 557.614 650 530 650C557.614 650 580 627.614 580 600ZM580.1 600H579.9C579.9 627.515 557.515 649.9 530 649.9V650.1C557.515 650.1 579.9 672.485 579.9 700H580.1C580.1 672.485 602.485 650.1 630 650.1V649.9C602.485 649.9 580.1 627.515 580.1 600Z" fill="#A54AFF"/>
<path d="M630 650.05C602.402 650.05 579.95 627.598 579.95 600L630 599.95L630.05 650.05H630Z" fill="#A54AFF"/>
<path d="M630 600V650C602.386 650 580 627.614 580 600H630ZM630.1 599.9H579.9V600C579.9 627.625 602.375 650.1 630 650.1H630.1V599.9Z" fill="#A54AFF"/>
<path d="M679.95 700C679.95 672.457 657.543 650.05 630 650.05C657.543 649.95 679.95 627.543 679.95 600C680.05 627.543 702.457 649.95 730 649.95C702.457 650.05 680.05 672.457 680.05 700H679.95Z" fill="#A54AFF"/>
<path d="M680 600C680 627.614 702.386 650 730 650C702.386 650 680 672.386 680 700C680 672.386 657.614 650 630 650C657.614 650 680 627.614 680 600ZM680.1 600H679.9C679.9 627.515 657.515 649.9 630 649.9V650.1C657.515 650.1 679.9 672.485 679.9 700H680.1C680.1 672.485 702.485 650.1 730 650.1V649.9C702.485 649.9 680.1 627.515 680.1 600Z" fill="#A54AFF"/>
<path d="M630 700.05L629.95 650H630.042C657.648 650 680.05 672.433 680.05 700V700.05H630Z" fill="#A54AFF"/>
<path d="M630 650C657.614 650 680 672.386 680 700H630V650ZM630 649.9H629.9V700.1H680.1V700C680.1 672.375 657.625 649.9 630 649.9Z" fill="#A54AFF"/>
<path d="M579.95 800C579.95 772.457 557.543 750.05 530 750.05C557.543 749.95 579.95 727.543 579.95 700C580.05 727.543 602.457 749.95 630 749.95C602.457 750.05 580.05 772.457 580.05 800H579.95Z" fill="#A54AFF"/>
<path d="M580 700C580 727.614 602.386 750 630 750C602.386 750 580 772.386 580 800C580 772.386 557.614 750 530 750C557.614 750 580 727.614 580 700ZM580.1 700H579.9C579.9 727.515 557.515 749.9 530 749.9V750.1C557.515 750.1 579.9 772.485 579.9 800H580.1C580.1 772.485 602.485 750.1 630 750.1V749.9C602.485 749.9 580.1 727.515 580.1 700Z" fill="#A54AFF"/>
<path d="M630 750.05C602.402 750.05 579.95 727.598 579.95 700L630 699.95L630.05 750.05H630Z" fill="#A54AFF"/>
<path d="M630 700V750C602.386 750 580 727.614 580 700H630ZM630.1 699.9H579.9V700C579.9 727.625 602.375 750.1 630 750.1H630.1V699.9Z" fill="#A54AFF"/>
<path d="M680 700H630V750C657.614 750 680 727.614 680 700Z" fill="white"/>
<path d="M679.95 800C679.95 772.457 657.543 750.05 630 750.05C657.543 749.95 679.95 727.543 679.95 700C680.05 727.543 702.457 749.95 730 749.95C702.457 750.05 680.05 772.457 680.05 800H679.95Z" fill="#A54AFF"/>
<path d="M680 700C680 727.614 702.386 750 730 750C702.386 750 680 772.386 680 800C680 772.386 657.614 750 630 750C657.614 750 680 727.614 680 700ZM680.1 700H679.9C679.9 727.515 657.515 749.9 630 749.9V750.1C657.515 750.1 679.9 772.485 679.9 800H680.1C680.1 772.485 702.485 750.1 730 750.1V749.9C702.485 749.9 680.1 727.515 680.1 700Z" fill="#A54AFF"/>
<path d="M979.95 600C979.95 572.457 957.543 550.05 930 550.05C957.543 549.95 979.95 527.543 979.95 500C980.05 527.543 1002.46 549.95 1030 549.95C1002.46 550.05 980.05 572.457 980.05 600H979.95Z" fill="#A54AFF"/>
<path d="M980 500C980 527.614 1002.39 550 1030 550C1002.39 550 980 572.386 980 600C980 572.386 957.614 550 930 550C957.614 550 980 527.614 980 500ZM980.1 500H979.9C979.9 527.515 957.515 549.9 930 549.9V550.1C957.515 550.1 979.9 572.485 979.9 600H980.1C980.1 572.485 1002.49 550.1 1030 550.1V549.9C1002.49 549.9 980.1 527.515 980.1 500Z" fill="#A54AFF"/>
<path d="M1030 550.05C1002.4 550.05 979.951 527.598 979.951 500L1030 499.95L1030.05 550.05H1030Z" fill="#A54AFF"/>
<path d="M1030 500V550C1002.39 550 980 527.614 980 500H1030ZM1030.1 499.9H979.9V500C979.9 527.625 1002.38 550.1 1030 550.1H1030.1V499.9Z" fill="#A54AFF"/>
<path d="M1079.95 600C1079.95 572.457 1057.54 550.05 1030 550.05C1057.54 549.95 1079.95 527.543 1079.95 500C1080.05 527.543 1102.46 549.95 1130 549.95C1102.46 550.05 1080.05 572.457 1080.05 600H1079.95Z" fill="#A54AFF"/>
<path d="M1080 500C1080 527.614 1102.39 550 1130 550C1102.39 550 1080 572.386 1080 600C1080 572.386 1057.61 550 1030 550C1057.61 550 1080 527.614 1080 500ZM1080.1 500H1079.9C1079.9 527.515 1057.51 549.9 1030 549.9V550.1C1057.51 550.1 1079.9 572.485 1079.9 600H1080.1C1080.1 572.485 1102.49 550.1 1130 550.1V549.9C1102.49 549.9 1080.1 527.515 1080.1 500Z" fill="#A54AFF"/>
<path d="M1030 600.05L1029.95 550H1030.04C1057.65 550 1080.05 572.433 1080.05 600V600.05H1030Z" fill="#A54AFF"/>
<path d="M1030 550C1057.61 550 1080 572.386 1080 600H1030V550ZM1030 549.9H1029.9V600.1H1080.1V600C1080.1 572.375 1057.63 549.9 1030 549.9Z" fill="#A54AFF"/>
<path d="M879.95 500C879.95 472.457 857.543 450.05 830 450.05C857.543 449.95 879.95 427.543 879.95 400C880.05 427.543 902.457 449.95 930 449.95C902.457 450.05 880.05 472.457 880.05 500H879.95Z" fill="#A54AFF"/>
<path d="M880 400C880 427.614 902.386 450 930 450C902.386 450 880 472.386 880 500C880 472.386 857.614 450 830 450C857.614 450 880 427.614 880 400ZM880.1 400H879.9C879.9 427.515 857.515 449.9 830 449.9V450.1C857.515 450.1 879.9 472.485 879.9 500H880.1C880.1 472.485 902.485 450.1 930 450.1V449.9C902.485 449.9 880.1 427.515 880.1 400Z" fill="#A54AFF"/>
<path d="M930.001 450.05C902.403 450.05 879.951 427.598 879.951 400L930.001 399.95L930.051 450.05H930.001Z" fill="#A54AFF"/>
<path d="M930 400V450C902.386 450 880 427.614 880 400H930ZM930.1 399.9H879.9V400C879.9 427.625 902.375 450.1 930 450.1H930.1V399.9Z" fill="#A54AFF"/>
<path d="M979.95 500C979.95 472.457 957.543 450.05 930 450.05C957.543 449.95 979.95 427.543 979.95 400C980.05 427.543 1002.46 449.95 1030 449.95C1002.46 450.05 980.05 472.457 980.05 500H979.95Z" fill="#A54AFF"/>
<path d="M980 400C980 427.614 1002.39 450 1030 450C1002.39 450 980 472.386 980 500C980 472.386 957.614 450 930 450C957.614 450 980 427.614 980 400ZM980.1 400H979.9C979.9 427.515 957.515 449.9 930 449.9V450.1C957.515 450.1 979.9 472.485 979.9 500H980.1C980.1 472.485 1002.49 450.1 1030 450.1V449.9C1002.49 449.9 980.1 427.515 980.1 400Z" fill="#A54AFF"/>
<path d="M1030 450.05C1002.4 450.05 979.951 427.598 979.951 400L1030 399.95L1030.05 450.05H1030Z" fill="#A54AFF"/>
<path d="M1030 400V450C1002.39 450 980 427.614 980 400H1030ZM1030.1 399.9H979.9V400C979.9 427.625 1002.38 450.1 1030 450.1H1030.1V399.9Z" fill="#A54AFF"/>
<path d="M1079.95 500C1079.95 472.457 1057.54 450.05 1030 450.05C1057.54 449.95 1079.95 427.543 1079.95 400C1080.05 427.543 1102.46 449.95 1130 449.95C1102.46 450.05 1080.05 472.457 1080.05 500H1079.95Z" fill="#A54AFF"/>
<path d="M1080 400C1080 427.614 1102.39 450 1130 450C1102.39 450 1080 472.386 1080 500C1080 472.386 1057.61 450 1030 450C1057.61 450 1080 427.614 1080 400ZM1080.1 400H1079.9C1079.9 427.515 1057.51 449.9 1030 449.9V450.1C1057.51 450.1 1079.9 472.485 1079.9 500H1080.1C1080.1 472.485 1102.49 450.1 1130 450.1V449.9C1102.49 449.9 1080.1 427.515 1080.1 400Z" fill="#A54AFF"/>
<path d="M1030 500.05L1029.95 450H1030.04C1057.65 450 1080.05 472.433 1080.05 500V500.05H1030Z" fill="#A54AFF"/>
<path d="M1030 450C1057.61 450 1080 472.386 1080 500H1030V450ZM1030 449.9H1029.9V500.1H1080.1V500C1080.1 472.375 1057.63 449.9 1030 449.9Z" fill="#A54AFF"/>
<path d="M979.95 700C979.95 672.457 957.543 650.05 930 650.05C957.543 649.95 979.95 627.543 979.95 600C980.05 627.543 1002.46 649.95 1030 649.95C1002.46 650.05 980.05 672.457 980.05 700H979.95Z" fill="#A54AFF"/>
<path d="M980 600C980 627.614 1002.39 650 1030 650C1002.39 650 980 672.386 980 700C980 672.386 957.614 650 930 650C957.614 650 980 627.614 980 600ZM980.1 600H979.9C979.9 627.515 957.515 649.9 930 649.9V650.1C957.515 650.1 979.9 672.485 979.9 700H980.1C980.1 672.485 1002.49 650.1 1030 650.1V649.9C1002.49 649.9 980.1 627.515 980.1 600Z" fill="#A54AFF"/>
<path d="M1030 650.05C1002.4 650.05 979.951 627.598 979.951 600L1030 599.95L1030.05 650.05H1030Z" fill="#A54AFF"/>
<path d="M1030 600V650C1002.39 650 980 627.614 980 600H1030ZM1030.1 599.9H979.9V600C979.9 627.625 1002.38 650.1 1030 650.1H1030.1V599.9Z" fill="#A54AFF"/>
<path d="M1079.95 700C1079.95 672.457 1057.54 650.05 1030 650.05C1057.54 649.95 1079.95 627.543 1079.95 600C1080.05 627.543 1102.46 649.95 1130 649.95C1102.46 650.05 1080.05 672.457 1080.05 700H1079.95Z" fill="#A54AFF"/>
<path d="M1080 600C1080 627.614 1102.39 650 1130 650C1102.39 650 1080 672.386 1080 700C1080 672.386 1057.61 650 1030 650C1057.61 650 1080 627.614 1080 600ZM1080.1 600H1079.9C1079.9 627.515 1057.51 649.9 1030 649.9V650.1C1057.51 650.1 1079.9 672.485 1079.9 700H1080.1C1080.1 672.485 1102.49 650.1 1130 650.1V649.9C1102.49 649.9 1080.1 627.515 1080.1 600Z" fill="#A54AFF"/>
<path d="M1030 700.05L1029.95 650H1030.04C1057.65 650 1080.05 672.433 1080.05 700V700.05H1030Z" fill="#A54AFF"/>
<path d="M1030 650C1057.61 650 1080 672.386 1080 700H1030V650ZM1030 649.9H1029.9V700.1H1080.1V700C1080.1 672.375 1057.63 649.9 1030 649.9Z" fill="#A54AFF"/>
<path d="M979.95 800C979.95 772.457 957.543 750.05 930 750.05C957.543 749.95 979.95 727.543 979.95 700C980.05 727.543 1002.46 749.95 1030 749.95C1002.46 750.05 980.05 772.457 980.05 800H979.95Z" fill="#A54AFF"/>
<path d="M980 700C980 727.614 1002.39 750 1030 750C1002.39 750 980 772.386 980 800C980 772.386 957.614 750 930 750C957.614 750 980 727.614 980 700ZM980.1 700H979.9C979.9 727.515 957.515 749.9 930 749.9V750.1C957.515 750.1 979.9 772.485 979.9 800H980.1C980.1 772.485 1002.49 750.1 1030 750.1V749.9C1002.49 749.9 980.1 727.515 980.1 700Z" fill="#A54AFF"/>
<path d="M1030 750.05C1002.4 750.05 979.951 727.598 979.951 700L1030 699.95L1030.05 750.05H1030Z" fill="#A54AFF"/>
<path d="M1030 700V750C1002.39 750 980 727.614 980 700H1030ZM1030.1 699.9H979.9V700C979.9 727.625 1002.38 750.1 1030 750.1H1030.1V699.9Z" fill="#A54AFF"/>
<path d="M1079.95 800C1079.95 772.457 1057.54 750.05 1030 750.05C1057.54 749.95 1079.95 727.543 1079.95 700C1080.05 727.543 1102.46 749.95 1130 749.95C1102.46 750.05 1080.05 772.457 1080.05 800H1079.95Z" fill="#A54AFF"/>
<path d="M1080 700C1080 727.614 1102.39 750 1130 750C1102.39 750 1080 772.386 1080 800C1080 772.386 1057.61 750 1030 750C1057.61 750 1080 727.614 1080 700ZM1080.1 700H1079.9C1079.9 727.515 1057.51 749.9 1030 749.9V750.1C1057.51 750.1 1079.9 772.485 1079.9 800H1080.1C1080.1 772.485 1102.49 750.1 1130 750.1V749.9C1102.49 749.9 1080.1 727.515 1080.1 700Z" fill="#A54AFF"/>
<path d="M679.95 200C679.95 172.458 657.543 150.05 630 150.05C657.543 149.95 679.95 127.543 679.95 100C680.05 127.542 702.457 149.95 730 149.95C702.457 150.05 680.05 172.457 680.05 200H679.95Z" fill="#A54AFF"/>
<path d="M680 100C680 127.614 702.386 150 730 150C702.386 150 680 172.386 680 200C680 172.386 657.614 150 630 150C657.614 150 680 127.614 680 100ZM680.1 100H679.9C679.9 127.515 657.515 149.9 630 149.9V150.1C657.515 150.1 679.9 172.485 679.9 200H680.1C680.1 172.485 702.485 150.1 730 150.1V149.9C702.485 149.9 680.1 127.515 680.1 100Z" fill="#A54AFF"/>
<path d="M779.95 200C779.95 172.458 757.543 150.05 730 150.05C757.543 149.95 779.95 127.543 779.95 100C780.05 127.542 802.457 149.95 830 149.95C802.457 150.05 780.05 172.457 780.05 200H779.95Z" fill="#A54AFF"/>
<path d="M780 100C780 127.614 802.386 150 830 150C802.386 150 780 172.386 780 200C780 172.386 757.614 150 730 150C757.614 150 780 127.614 780 100ZM780.1 100H779.9C779.9 127.515 757.515 149.9 730 149.9V150.1C757.515 150.1 779.9 172.485 779.9 200H780.1C780.1 172.485 802.485 150.1 830 150.1V149.9C802.485 149.9 780.1 127.515 780.1 100Z" fill="#A54AFF"/>
<path d="M830 150.05C802.402 150.05 779.95 127.598 779.95 100L830 99.95L830.05 150.05H830Z" fill="#A54AFF"/>
<path d="M830 99.9999V150C802.386 150 780 127.614 780 99.9999H830ZM830.1 99.8999H779.9V99.9999C779.9 127.625 802.375 150.1 830 150.1H830.1V99.8999Z" fill="#A54AFF"/>
<path d="M730 200.05L729.95 150H730.042C757.648 150 780.05 172.433 780.05 200V200.05H730Z" fill="#A54AFF"/>
<path d="M730 150C757.614 150 780 172.386 780 200H730V150ZM730 149.9H729.9V200.1H780.1V200C780.1 172.375 757.625 149.9 730 149.9Z" fill="#A54AFF"/>
<path d="M779.95 100C779.95 72.458 757.543 50.05 730 50.05C757.543 49.95 779.95 27.543 779.95 0C780.05 27.542 802.457 49.95 830 49.95C802.457 50.05 780.05 72.457 780.05 100H779.95Z" fill="#A54AFF"/>
<path d="M780 0C780 27.614 802.386 50 830 50C802.386 50 780 72.386 780 100C780 72.386 757.614 50 730 50C757.614 50 780 27.614 780 0ZM780.1 0H779.9C779.9 27.515 757.515 49.9 730 49.9V50.1C757.515 50.1 779.9 72.485 779.9 100H780.1C780.1 72.485 802.485 50.1 830 50.1V49.9C802.485 49.9 780.1 27.515 780.1 0Z" fill="#A54AFF"/>
<path d="M579.95 300C579.95 272.458 557.543 250.05 530 250.05C557.543 249.95 579.95 227.543 579.95 200C580.05 227.542 602.457 249.95 630 249.95C602.457 250.05 580.05 272.457 580.05 300H579.95Z" fill="#A54AFF"/>
<path d="M580 200C580 227.614 602.386 250 630 250C602.386 250 580 272.386 580 300C580 272.386 557.614 250 530 250C557.614 250 580 227.614 580 200ZM580.1 200H579.9C579.9 227.515 557.515 249.9 530 249.9V250.1C557.515 250.1 579.9 272.485 579.9 300H580.1C580.1 272.485 602.485 250.1 630 250.1V249.9C602.485 249.9 580.1 227.515 580.1 200Z" fill="#A54AFF"/>
<path d="M679.95 300C679.95 272.458 657.543 250.05 630 250.05C657.543 249.95 679.95 227.543 679.95 200C680.05 227.542 702.457 249.95 730 249.95C702.457 250.05 680.05 272.457 680.05 300H679.95Z" fill="#A54AFF"/>
<path d="M680 200C680 227.614 702.386 250 730 250C702.386 250 680 272.386 680 300C680 272.386 657.614 250 630 250C657.614 250 680 227.614 680 200ZM680.1 200H679.9C679.9 227.515 657.515 249.9 630 249.9V250.1C657.515 250.1 679.9 272.485 679.9 300H680.1C680.1 272.485 702.485 250.1 730 250.1V249.9C702.485 249.9 680.1 227.515 680.1 200Z" fill="#A54AFF"/>
<path d="M730 250.05C702.402 250.05 679.95 227.598 679.95 200L730 199.95L730.05 250.05H730Z" fill="#A54AFF"/>
<path d="M730 200V250C702.386 250 680 227.614 680 200H730ZM730.1 199.9H679.9V200C679.9 227.625 702.375 250.1 730 250.1H730.1V199.9Z" fill="#A54AFF"/>
<path d="M630 300.05L629.95 250H630.042C657.648 250 680.05 272.433 680.05 300V300.05H630Z" fill="#A54AFF"/>
<path d="M630 250C657.614 250 680 272.386 680 300H630V250ZM630 249.9H629.9V300.1H680.1V300C680.1 272.375 657.625 249.9 630 249.9Z" fill="#A54AFF"/>
<path d="M779.95 300C779.95 272.458 757.543 250.05 730 250.05C757.543 249.95 779.95 227.543 779.95 200C780.05 227.542 802.457 249.95 830 249.95C802.457 250.05 780.05 272.457 780.05 300H779.95Z" fill="#A54AFF"/>
<path d="M780 200C780 227.614 802.386 250 830 250C802.386 250 780 272.386 780 300C780 272.386 757.614 250 730 250C757.614 250 780 227.614 780 200ZM780.1 200H779.9C779.9 227.515 757.515 249.9 730 249.9V250.1C757.515 250.1 779.9 272.485 779.9 300H780.1C780.1 272.485 802.485 250.1 830 250.1V249.9C802.485 249.9 780.1 227.515 780.1 200Z" fill="#A54AFF"/>
<path d="M579.95 400C579.95 372.458 557.543 350.05 530 350.05C557.543 349.95 579.95 327.543 579.95 300C580.05 327.542 602.457 349.95 630 349.95C602.457 350.05 580.05 372.457 580.05 400H579.95Z" fill="#A54AFF"/>
<path d="M580 300C580 327.614 602.386 350 630 350C602.386 350 580 372.386 580 400C580 372.386 557.614 350 530 350C557.614 350 580 327.614 580 300ZM580.1 300H579.9C579.9 327.515 557.515 349.9 530 349.9V350.1C557.515 350.1 579.9 372.485 579.9 400H580.1C580.1 372.485 602.485 350.1 630 350.1V349.9C602.485 349.9 580.1 327.515 580.1 300Z" fill="#A54AFF"/>
<path d="M630 350.05C602.402 350.05 579.95 327.598 579.95 300L630 299.95L630.05 350.05H630Z" fill="#A54AFF"/>
<path d="M630 300V350C602.386 350 580 327.614 580 300H630ZM630.1 299.9H579.9V300C579.9 327.625 602.375 350.1 630 350.1H630.1V299.9Z" fill="#A54AFF"/>
<path d="M679.95 400C679.95 372.458 657.543 350.05 630 350.05C657.543 349.95 679.95 327.543 679.95 300C680.05 327.542 702.457 349.95 730 349.95C702.457 350.05 680.05 372.457 680.05 400H679.95Z" fill="#A54AFF"/>
<path d="M680 300C680 327.614 702.386 350 730 350C702.386 350 680 372.386 680 400C680 372.386 657.614 350 630 350C657.614 350 680 327.614 680 300ZM680.1 300H679.9C679.9 327.515 657.515 349.9 630 349.9V350.1C657.515 350.1 679.9 372.485 679.9 400H680.1C680.1 372.485 702.485 350.1 730 350.1V349.9C702.485 349.9 680.1 327.515 680.1 300Z" fill="#A54AFF"/>
<path d="M630 400.05L629.95 350H630.042C657.648 350 680.05 372.433 680.05 400V400.05H630Z" fill="#A54AFF"/>
<path d="M630 350C657.614 350 680 372.386 680 400H630V350ZM630 349.9H629.9V400.1H680.1V400C680.1 372.375 657.625 349.9 630 349.9Z" fill="#A54AFF"/>
<path d="M779.95 400C779.95 372.458 757.543 350.05 730 350.05C757.543 349.95 779.95 327.543 779.95 300C780.05 327.542 802.457 349.95 830 349.95C802.457 350.05 780.05 372.457 780.05 400H779.95Z" fill="#A54AFF"/>
<path d="M780 300C780 327.614 802.386 350 830 350C802.386 350 780 372.386 780 400C780 372.386 757.614 350 730 350C757.614 350 780 327.614 780 300ZM780.1 300H779.9C779.9 327.515 757.515 349.9 730 349.9V350.1C757.515 350.1 779.9 372.485 779.9 400H780.1C780.1 372.485 802.485 350.1 830 350.1V349.9C802.485 349.9 780.1 327.515 780.1 300Z" fill="#A54AFF"/>
<path d="M730 400.05L729.95 350H730.042C757.648 350 780.05 372.433 780.05 400V400.05H730Z" fill="#A54AFF"/>
<path d="M730 350C757.614 350 780 372.386 780 400H730V350ZM730 349.9H729.9V400.1H780.1V400C780.1 372.375 757.625 349.9 730 349.9Z" fill="#A54AFF"/>
<path d="M879.95 200C879.95 172.458 857.543 150.05 830 150.05C857.543 149.95 879.95 127.543 879.95 100C880.05 127.542 902.457 149.95 930 149.95C902.457 150.05 880.05 172.457 880.05 200H879.95Z" fill="#A54AFF"/>
<path d="M880 100C880 127.614 902.386 150 930 150C902.386 150 880 172.386 880 200C880 172.386 857.614 150 830 150C857.614 150 880 127.614 880 100ZM880.1 100H879.9C879.9 127.515 857.515 149.9 830 149.9V150.1C857.515 150.1 879.9 172.485 879.9 200H880.1C880.1 172.485 902.485 150.1 930 150.1V149.9C902.485 149.9 880.1 127.515 880.1 100Z" fill="#A54AFF"/>
<path d="M979.95 200C979.95 172.458 957.543 150.05 930 150.05C957.543 149.95 979.95 127.543 979.95 100C980.05 127.542 1002.46 149.95 1030 149.95C1002.46 150.05 980.05 172.457 980.05 200H979.95Z" fill="#A54AFF"/>
<path d="M980 100C980 127.614 1002.39 150 1030 150C1002.39 150 980 172.386 980 200C980 172.386 957.614 150 930 150C957.614 150 980 127.614 980 100ZM980.1 100H979.9C979.9 127.515 957.515 149.9 930 149.9V150.1C957.515 150.1 979.9 172.485 979.9 200H980.1C980.1 172.485 1002.49 150.1 1030 150.1V149.9C1002.49 149.9 980.1 127.515 980.1 100Z" fill="#A54AFF"/>
<path d="M930.001 200.05L929.951 150H930.043C957.649 150 980.051 172.433 980.051 200V200.05H930.001Z" fill="#A54AFF"/>
<path d="M930 150C957.614 150 980 172.386 980 200H930V150ZM930 149.9H929.9V200.1H980.1V200C980.1 172.375 957.625 149.9 930 149.9Z" fill="#A54AFF"/>
<path d="M879.95 100C879.95 72.458 857.543 50.05 830 50.05C857.543 49.95 879.95 27.543 879.95 0C880.05 27.542 902.457 49.95 930 49.95C902.457 50.05 880.05 72.457 880.05 100H879.95Z" fill="#A54AFF"/>
<path d="M880 0C880 27.614 902.386 50 930 50C902.386 50 880 72.386 880 100C880 72.386 857.614 50 830 50C857.614 50 880 27.614 880 0ZM880.1 0H879.9C879.9 27.515 857.515 49.9 830 49.9V50.1C857.515 50.1 879.9 72.485 879.9 100H880.1C880.1 72.485 902.485 50.1 930 50.1V49.9C902.485 49.9 880.1 27.515 880.1 0Z" fill="#A54AFF"/>
<path d="M830 100.05L829.95 50H830.042C857.648 50 880.05 72.433 880.05 100V100.05H830Z" fill="#A54AFF"/>
<path d="M830 49.9999C857.614 49.9999 880 72.3859 880 99.9999H830V49.9999ZM830 49.8999H829.9V100.1H880.1V99.9999C880.1 72.3749 857.625 49.8999 830 49.8999Z" fill="#A54AFF"/>
<path d="M879.95 300C879.95 272.458 857.543 250.05 830 250.05C857.543 249.95 879.95 227.543 879.95 200C880.05 227.542 902.457 249.95 930 249.95C902.457 250.05 880.05 272.457 880.05 300H879.95Z" fill="#A54AFF"/>
<path d="M880 200C880 227.614 902.386 250 930 250C902.386 250 880 272.386 880 300C880 272.386 857.614 250 830 250C857.614 250 880 227.614 880 200ZM880.1 200H879.9C879.9 227.515 857.515 249.9 830 249.9V250.1C857.515 250.1 879.9 272.485 879.9 300H880.1C880.1 272.485 902.485 250.1 930 250.1V249.9C902.485 249.9 880.1 227.515 880.1 200Z" fill="#A54AFF"/>
<path d="M930.001 250.05C902.403 250.05 879.951 227.598 879.951 200L930.001 199.95L930.051 250.05H930.001Z" fill="#A54AFF"/>
<path d="M930 200V250C902.386 250 880 227.614 880 200H930ZM930.1 199.9H879.9V200C879.9 227.625 902.375 250.1 930 250.1H930.1V199.9Z" fill="#A54AFF"/>
<path d="M979.95 300C979.95 272.458 957.543 250.05 930 250.05C957.543 249.95 979.95 227.543 979.95 200C980.05 227.542 1002.46 249.95 1030 249.95C1002.46 250.05 980.05 272.457 980.05 300H979.95Z" fill="#A54AFF"/>
<path d="M980 200C980 227.614 1002.39 250 1030 250C1002.39 250 980 272.386 980 300C980 272.386 957.614 250 930 250C957.614 250 980 227.614 980 200ZM980.1 200H979.9C979.9 227.515 957.515 249.9 930 249.9V250.1C957.515 250.1 979.9 272.485 979.9 300H980.1C980.1 272.485 1002.49 250.1 1030 250.1V249.9C1002.49 249.9 980.1 227.515 980.1 200Z" fill="#A54AFF"/>
<path d="M1079.95 300C1079.95 272.458 1057.54 250.05 1030 250.05C1057.54 249.95 1079.95 227.543 1079.95 200C1080.05 227.542 1102.46 249.95 1130 249.95C1102.46 250.05 1080.05 272.457 1080.05 300H1079.95Z" fill="#A54AFF"/>
<path d="M1080 200C1080 227.614 1102.39 250 1130 250C1102.39 250 1080 272.386 1080 300C1080 272.386 1057.61 250 1030 250C1057.61 250 1080 227.614 1080 200ZM1080.1 200H1079.9C1079.9 227.515 1057.51 249.9 1030 249.9V250.1C1057.51 250.1 1079.9 272.485 1079.9 300H1080.1C1080.1 272.485 1102.49 250.1 1130 250.1V249.9C1102.49 249.9 1080.1 227.515 1080.1 200Z" fill="#A54AFF"/>
<path d="M1030 300.05L1029.95 250H1030.04C1057.65 250 1080.05 272.433 1080.05 300V300.05H1030Z" fill="#A54AFF"/>
<path d="M1030 250C1057.61 250 1080 272.386 1080 300H1030V250ZM1030 249.9H1029.9V300.1H1080.1V300C1080.1 272.375 1057.63 249.9 1030 249.9Z" fill="#A54AFF"/>
<path d="M879.95 400C879.95 372.458 857.543 350.05 830 350.05C857.543 349.95 879.95 327.543 879.95 300C880.05 327.542 902.457 349.95 930 349.95C902.457 350.05 880.05 372.457 880.05 400H879.95Z" fill="#A54AFF"/>
<path d="M880 300C880 327.614 902.386 350 930 350C902.386 350 880 372.386 880 400C880 372.386 857.614 350 830 350C857.614 350 880 327.614 880 300ZM880.1 300H879.9C879.9 327.515 857.515 349.9 830 349.9V350.1C857.515 350.1 879.9 372.485 879.9 400H880.1C880.1 372.485 902.485 350.1 930 350.1V349.9C902.485 349.9 880.1 327.515 880.1 300Z" fill="#A54AFF"/>
<path d="M830 400.05L829.95 350H830.042C857.648 350 880.05 372.433 880.05 400V400.05H830Z" fill="#A54AFF"/>
<path d="M830 350C857.614 350 880 372.386 880 400H830V350ZM830 349.9H829.9V400.1H880.1V400C880.1 372.375 857.625 349.9 830 349.9Z" fill="#A54AFF"/>
<path d="M979.95 400C979.95 372.458 957.543 350.05 930 350.05C957.543 349.95 979.95 327.543 979.95 300C980.05 327.542 1002.46 349.95 1030 349.95C1002.46 350.05 980.05 372.457 980.05 400H979.95Z" fill="#A54AFF"/>
<path d="M980 300C980 327.614 1002.39 350 1030 350C1002.39 350 980 372.386 980 400C980 372.386 957.614 350 930 350C957.614 350 980 327.614 980 300ZM980.1 300H979.9C979.9 327.515 957.515 349.9 930 349.9V350.1C957.515 350.1 979.9 372.485 979.9 400H980.1C980.1 372.485 1002.49 350.1 1030 350.1V349.9C1002.49 349.9 980.1 327.515 980.1 300Z" fill="#A54AFF"/>
<path d="M1030 350.05C1002.4 350.05 979.951 327.598 979.951 300L1030 299.95L1030.05 350.05H1030Z" fill="#A54AFF"/>
<path d="M1030 300V350C1002.39 350 980 327.614 980 300H1030ZM1030.1 299.9H979.9V300C979.9 327.625 1002.38 350.1 1030 350.1H1030.1V299.9Z" fill="#A54AFF"/>
<path d="M930.001 400.05L929.951 350H930.043C957.649 350 980.051 372.433 980.051 400V400.05H930.001Z" fill="#A54AFF"/>
<path d="M930 350C957.614 350 980 372.386 980 400H930V350ZM930 349.9H929.9V400.1H980.1V400C980.1 372.375 957.625 349.9 930 349.9Z" fill="#A54AFF"/>
<path d="M1079.95 400C1079.95 372.458 1057.54 350.05 1030 350.05C1057.54 349.95 1079.95 327.543 1079.95 300C1080.05 327.542 1102.46 349.95 1130 349.95C1102.46 350.05 1080.05 372.457 1080.05 400H1079.95Z" fill="#A54AFF"/>
<path d="M1080 300C1080 327.614 1102.39 350 1130 350C1102.39 350 1080 372.386 1080 400C1080 372.386 1057.61 350 1030 350C1057.61 350 1080 327.614 1080 300ZM1080.1 300H1079.9C1079.9 327.515 1057.51 349.9 1030 349.9V350.1C1057.51 350.1 1079.9 372.485 1079.9 400H1080.1C1080.1 372.485 1102.49 350.1 1130 350.1V349.9C1102.49 349.9 1080.1 327.515 1080.1 300Z" fill="#A54AFF"/>
<path d="M1030 400.05L1029.95 350H1030.04C1057.65 350 1080.05 372.433 1080.05 400V400.05H1030Z" fill="#A54AFF"/>
<path d="M1030 350C1057.61 350 1080 372.386 1080 400H1030V350ZM1030 349.9H1029.9V400.1H1080.1V400C1080.1 372.375 1057.63 349.9 1030 349.9Z" fill="#A54AFF"/>
<path d="M50 50H0V100H50V50Z" fill="#FF1345"/>
<path d="M50 100H0V150H50V100Z" fill="white"/>
<path d="M100 50H50V100H100V50Z" fill="white"/>
<path d="M100 100H50V150H100V100Z" fill="#FF1345"/>
<path d="M150 50H100V100H150V50Z" fill="#FF1345"/>
<path d="M150 100H100V150H150V100Z" fill="white"/>
<path d="M200 50H150V100H200V50Z" fill="white"/>
<path d="M200 100H150V150H200V100Z" fill="#FF1345"/>
<path d="M250 50H200V100H250V50Z" fill="#FF1345"/>
<path d="M250 100H200V150H250V100Z" fill="white"/>
<path d="M300 50H250V100H300V50Z" fill="white"/>
<path d="M300 100H250V150H300V100Z" fill="#FF1345"/>
<path d="M350 50H300V100H350V50Z" fill="#FF1345"/>
<path d="M350 100H300V150H350V100Z" fill="white"/>
<path d="M400 50H350V100H400V50Z" fill="white"/>
<path d="M400 100H350V150H400V100Z" fill="#FF1345"/>
<path d="M50 150H0V200H50V150Z" fill="#FF1345"/>
<path d="M50 200H0V250H50V200Z" fill="white"/>
<path d="M100 150H50V200H100V150Z" fill="white"/>
<path d="M100 200H50V250H100V200Z" fill="#FF1345"/>
<path d="M50 250H0V300H50V250Z" fill="#FF1345"/>
<path d="M50 300H0V350H50V300Z" fill="white"/>
<path d="M100 250H50V300H100V250Z" fill="white"/>
<path d="M100 300H50V350H100V300Z" fill="#FF1345"/>
<path d="M50 350H0V400H50V350Z" fill="#FF1345"/>
<path d="M50 400H0V450H50V400Z" fill="white"/>
<path d="M100 350H50V400H100V350Z" fill="white"/>
<path d="M100 400H50V450H100V400Z" fill="#FF1345"/>
<path d="M50 450H0V500H50V450Z" fill="#FF1345"/>
<path d="M50 500H0V550H50V500Z" fill="white"/>
<path d="M100 450H50V500H100V450Z" fill="white"/>
<path d="M100 500H50V550H100V500Z" fill="#FF1345"/>
<path d="M50 550H0V600H50V550Z" fill="#FF1345"/>
<path d="M50 600H0V650H50V600Z" fill="white"/>
<path d="M100 550H50V600H100V550Z" fill="white"/>
<path d="M100 600H50V650H100V600Z" fill="#FF1345"/>
<path d="M50 650H0V700H50V650Z" fill="#FF1345"/>
<path d="M50 700H0V750H50V700Z" fill="white"/>
<path d="M100 650H50V700H100V650Z" fill="white"/>
<path d="M100 700H50V750H100V700Z" fill="#FF1345"/>
<path d="M150 650H100V700H150V650Z" fill="#FF1345"/>
<path d="M150 700H100V750H150V700Z" fill="white"/>
<path d="M200 650H150V700H200V650Z" fill="white"/>
<path d="M200 700H150V750H200V700Z" fill="#FF1345"/>
<path d="M250 650H200V700H250V650Z" fill="#FF1345"/>
<path d="M250 700H200V750H250V700Z" fill="white"/>
<path d="M300 650H250V700H300V650Z" fill="white"/>
<path d="M300 700H250V750H300V700Z" fill="#FF1345"/>
<path d="M350 650H300V700H350V650Z" fill="#FF1345"/>
<path d="M350 700H300V750H350V700Z" fill="white"/>
<path d="M400 650H350V700H400V650Z" fill="white"/>
<path d="M400 700H350V750H400V700Z" fill="#FF1345"/>
<path d="M450 650H400V700H450V650Z" fill="#FF1345"/>
<path d="M450 700H400V750H450V700Z" fill="white"/>
<path d="M500 650H450V700H500V650Z" fill="white"/>
<path d="M500 700H450V750H500V700Z" fill="#FF1345"/>
<path d="M450 550H400V600H450V550Z" fill="#FF1345"/>
<path d="M450 600H400V650H450V600Z" fill="white"/>
<path d="M500 550H450V600H500V550Z" fill="white"/>
<path d="M500 600H450V650H500V600Z" fill="#FF1345"/>
<path d="M450 450H400V500H450V450Z" fill="#FF1345"/>
<path d="M450 500H400V550H450V500Z" fill="white"/>
<path d="M500 450H450V500H500V450Z" fill="white"/>
<path d="M500 500H450V550H500V500Z" fill="#FF1345"/>
<path d="M350 350H300V400H350V350Z" fill="#FF1345"/>
<path d="M350 400H300V450H350V400Z" fill="white"/>
<path d="M400 350H350V400H400V350Z" fill="white"/>
<path d="M400 400H350V450H400V400Z" fill="#FF1345"/>
<path d="M250 350H200V400H250V350Z" fill="#FF1345"/>
<path d="M250 400H200V450H250V400Z" fill="white"/>
<path d="M300 350H250V400H300V350Z" fill="white"/>
<path d="M300 400H250V450H300V400Z" fill="#FF1345"/>
<path d="M450 250H400V300H450V250Z" fill="#FF1345"/>
<path d="M450 300H400V350H450V300Z" fill="white"/>
<path d="M500 250H450V300H500V250Z" fill="white"/>
<path d="M500 300H450V350H500V300Z" fill="#FF1345"/>
<path d="M450 150H400V200H450V150Z" fill="#FF1345"/>
<path d="M450 200H400V250H450V200Z" fill="white"/>
<path d="M500 150H450V200H500V150Z" fill="white"/>
<path d="M500 200H450V250H500V200Z" fill="#FF1345"/>
<path d="M1840 50H1790V100H1840V50Z" fill="#FF1345"/>
<path d="M1840 100H1790V150H1840V100Z" fill="white"/>
<path d="M1890 50H1840V100H1890V50Z" fill="white"/>
<path d="M1890 100H1840V150H1890V100Z" fill="#FF1345"/>
<path d="M1940 50H1890V100H1940V50Z" fill="#FF1345"/>
<path d="M1940 100H1890V150H1940V100Z" fill="white"/>
<path d="M1990 50H1940V100H1990V50Z" fill="white"/>
<path d="M1990 100H1940V150H1990V100Z" fill="#FF1345"/>
<path d="M2040 50H1990V100H2040V50Z" fill="#FF1345"/>
<path d="M2040 100H1990V150H2040V100Z" fill="white"/>
<path d="M2090 50H2040V100H2090V50Z" fill="white"/>
<path d="M2090 100H2040V150H2090V100Z" fill="#FF1345"/>
<path d="M1740 150H1690V200H1740V150Z" fill="#FF1345"/>
<path d="M1740 200H1690V250H1740V200Z" fill="white"/>
<path d="M1790 150H1740V200H1790V150Z" fill="white"/>
<path d="M1790 200H1740V250H1790V200Z" fill="#FF1345"/>
<path d="M1740 250H1690V300H1740V250Z" fill="#FF1345"/>
<path d="M1740 300H1690V350H1740V300Z" fill="white"/>
<path d="M1790 250H1740V300H1790V250Z" fill="white"/>
<path d="M1790 300H1740V350H1790V300Z" fill="#FF1345"/>
<path d="M1740 350H1690V400H1740V350Z" fill="#FF1345"/>
<path d="M1740 400H1690V450H1740V400Z" fill="white"/>
<path d="M1790 350H1740V400H1790V350Z" fill="white"/>
<path d="M1790 400H1740V450H1790V400Z" fill="#FF1345"/>
<path d="M1740 450H1690V500H1740V450Z" fill="#FF1345"/>
<path d="M1740 500H1690V550H1740V500Z" fill="white"/>
<path d="M1790 450H1740V500H1790V450Z" fill="white"/>
<path d="M1790 500H1740V550H1790V500Z" fill="#FF1345"/>
<path d="M1740 550H1690V600H1740V550Z" fill="#FF1345"/>
<path d="M1740 600H1690V650H1740V600Z" fill="white"/>
<path d="M1790 550H1740V600H1790V550Z" fill="white"/>
<path d="M1790 600H1740V650H1790V600Z" fill="#FF1345"/>
<path d="M1840 650H1790V700H1840V650Z" fill="#FF1345"/>
<path d="M1840 700H1790V750H1840V700Z" fill="white"/>
<path d="M1890 650H1840V700H1890V650Z" fill="white"/>
<path d="M1890 700H1840V750H1890V700Z" fill="#FF1345"/>
<path d="M1940 650H1890V700H1940V650Z" fill="#FF1345"/>
<path d="M1940 700H1890V750H1940V700Z" fill="white"/>
<path d="M1990 650H1940V700H1990V650Z" fill="white"/>
<path d="M1990 700H1940V750H1990V700Z" fill="#FF1345"/>
<path d="M2040 650H1990V700H2040V650Z" fill="#FF1345"/>
<path d="M2040 700H1990V750H2040V700Z" fill="white"/>
<path d="M2090 650H2040V700H2090V650Z" fill="white"/>
<path d="M2090 700H2040V750H2090V700Z" fill="#FF1345"/>
<path d="M2140 550H2090V600H2140V550Z" fill="#FF1345"/>
<path d="M2140 600H2090V650H2140V600Z" fill="white"/>
<path d="M2190 550H2140V600H2190V550Z" fill="white"/>
<path d="M2190 600H2140V650H2190V600Z" fill="#FF1345"/>
<path d="M2140 450H2090V500H2140V450Z" fill="#FF1345"/>
<path d="M2140 500H2090V550H2140V500Z" fill="white"/>
<path d="M2190 450H2140V500H2190V450Z" fill="white"/>
<path d="M2190 500H2140V550H2190V500Z" fill="#FF1345"/>
<path d="M2040 350H1990V400H2040V350Z" fill="#FF1345"/>
<path d="M2040 400H1990V450H2040V400Z" fill="white"/>
<path d="M2090 350H2040V400H2090V350Z" fill="white"/>
<path d="M2090 400H2040V450H2090V400Z" fill="#FF1345"/>
<path d="M1940 350H1890V400H1940V350Z" fill="#FF1345"/>
<path d="M1940 400H1890V450H1940V400Z" fill="white"/>
<path d="M1990 350H1940V400H1990V350Z" fill="white"/>
<path d="M1990 400H1940V450H1990V400Z" fill="#FF1345"/>
<path d="M2140 150H2090V200H2140V150Z" fill="#FF1345"/>
<path d="M2140 200H2090V250H2140V200Z" fill="white"/>
<path d="M2190 150H2140V200H2190V150Z" fill="white"/>
<path d="M2190 200H2140V250H2190V200Z" fill="#FF1345"/>
</g>
<defs>
<clipPath id="clip0_4664_73304">
<rect width="2550.1" height="800" fill="white"/>
</clipPath>
</defs>
</svg>
