<svg width="600" height="800" viewBox="0 0 600 800" fill="none" xmlns="http://www.w3.org/2000/svg">
<path d="M100 550C72.386 550 50 572.386 50 600H100V550Z" fill="white"/>
<path d="M150 500H100V550C127.614 550 150 527.614 150 500Z" fill="white"/>
<path d="M100 450C72.386 450 50 472.386 50 500H100V450Z" fill="white"/>
<path d="M150 400H100V450C127.614 450 150 427.614 150 400Z" fill="white"/>
<path d="M250 400H200V450C227.614 450 250 427.614 250 400Z" fill="white"/>
<path d="M100 650C72.386 650 50 672.386 50 700H100V650Z" fill="white"/>
<path d="M150 600H100V650C127.614 650 150 627.614 150 600Z" fill="white"/>
<path d="M500 550C472.386 550 450 572.386 450 600H500V550Z" fill="white"/>
<path d="M550 500H500V550C527.614 550 550 527.614 550 500Z" fill="white"/>
<path d="M350 400H300V450C327.614 450 350 427.614 350 400Z" fill="white"/>
<path d="M500 450C472.386 450 450 472.386 450 500H500V450Z" fill="white"/>
<path d="M450 400H400V450C427.614 450 450 427.614 450 400Z" fill="white"/>
<path d="M550 400H500V450C527.614 450 550 427.614 550 400Z" fill="white"/>
<path d="M500 650C472.386 650 450 672.386 450 700H500V650Z" fill="white"/>
<path d="M550 600H500V650C527.614 650 550 627.614 550 600Z" fill="white"/>
<path d="M550 700H500V750C527.614 750 550 727.614 550 700Z" fill="white"/>
<path d="M200 150C172.386 150 150 172.386 150 200H200V150Z" fill="white"/>
<path d="M300 50C272.386 50 250 72.386 250 100H300V50Z" fill="white"/>
<path d="M100 250C72.386 250 50 272.386 50 300H100V250Z" fill="white"/>
<path d="M250 200H200V250C227.614 250 250 227.614 250 200Z" fill="white"/>
<path d="M100 350C72.386 350 50 372.386 50 400H100V350Z" fill="white"/>
<path d="M200 350C172.386 350 150 372.386 150 400H200V350Z" fill="white"/>
<path d="M150 300H100V350C127.614 350 150 327.614 150 300Z" fill="white"/>
<path d="M300 350C272.386 350 250 372.386 250 400H300V350Z" fill="white"/>
<path d="M400 150C372.386 150 350 172.386 350 200H400V150Z" fill="white"/>
<path d="M350 100H300V150C327.614 150 350 127.614 350 100Z" fill="white"/>
<path d="M500 250C472.386 250 450 272.386 450 300H500V250Z" fill="white"/>
<path d="M450 200H400V250C427.614 250 450 227.614 450 200Z" fill="white"/>
<path d="M400 350C372.386 350 350 372.386 350 400H400V350Z" fill="white"/>
<path d="M500 350C472.386 350 450 372.386 450 400H500V350Z" fill="white"/>
<path d="M550 300H500V350C527.614 350 550 327.614 550 300Z" fill="white"/>
<path d="M100 549.9C72.4412 549.9 50.1 527.559 50.1 500H50H49.9C49.9 527.559 27.5588 549.9 0 549.9V550V550.1C27.5588 550.1 49.9 572.441 49.9 600H50H50.1C50.1 572.441 72.4412 550.1 100 550.1V550V549.9Z" fill="#A54AFF" stroke="#A54AFF" stroke-width="0.2" stroke-miterlimit="10"/>
<path d="M100 550.1H100.1V550V500V499.9H100H50H49.9V500C49.9 527.669 72.3308 550.1 100 550.1Z" fill="#A54AFF" stroke="#A54AFF" stroke-width="0.2" stroke-miterlimit="10"/>
<path d="M200 549.9C172.441 549.9 150.1 527.559 150.1 500H150H149.9C149.9 527.559 127.559 549.9 100 549.9V550V550.1C127.559 550.1 149.9 572.441 149.9 600H150H150.1C150.1 572.441 172.441 550.1 200 550.1V550V549.9Z" fill="#A54AFF" stroke="#A54AFF" stroke-width="0.2" stroke-miterlimit="10"/>
<path d="M100 549.9H99.9V550V600V600.1H100H150H150.1V600C150.1 572.331 127.669 549.9 100 549.9Z" fill="#A54AFF" stroke="#A54AFF" stroke-width="0.2" stroke-miterlimit="10"/>
<path d="M100 449.9C72.4412 449.9 50.1 427.559 50.1 400H50H49.9C49.9 427.559 27.5588 449.9 0 449.9V450V450.1C27.5588 450.1 49.9 472.441 49.9 500H50H50.1C50.1 472.441 72.4412 450.1 100 450.1V450V449.9Z" fill="#A54AFF" stroke="#A54AFF" stroke-width="0.2" stroke-miterlimit="10"/>
<path d="M100 450.1H100.1V450V400V399.9H100H50H49.9V400C49.9 427.669 72.3308 450.1 100 450.1Z" fill="#A54AFF" stroke="#A54AFF" stroke-width="0.2" stroke-miterlimit="10"/>
<path d="M200 449.9C172.441 449.9 150.1 427.559 150.1 400H150H149.9C149.9 427.559 127.559 449.9 100 449.9V450V450.1C127.559 450.1 149.9 472.441 149.9 500H150H150.1C150.1 472.441 172.441 450.1 200 450.1V450V449.9Z" fill="#A54AFF" stroke="#A54AFF" stroke-width="0.2" stroke-miterlimit="10"/>
<path d="M200 450.1H200.1V450V400V399.9H200H150H149.9V400C149.9 427.669 172.331 450.1 200 450.1Z" fill="#A54AFF" stroke="#A54AFF" stroke-width="0.2" stroke-miterlimit="10"/>
<path d="M100 449.9H99.9V450V500V500.1H100H150H150.1V500C150.1 472.331 127.669 449.9 100 449.9Z" fill="#A54AFF" stroke="#A54AFF" stroke-width="0.2" stroke-miterlimit="10"/>
<path d="M300 449.9C272.441 449.9 250.1 427.559 250.1 400H250H249.9C249.9 427.559 227.559 449.9 200 449.9V450V450.1C227.559 450.1 249.9 472.441 249.9 500H250H250.1C250.1 472.441 272.441 450.1 300 450.1V450V449.9Z" fill="#A54AFF" stroke="#A54AFF" stroke-width="0.2" stroke-miterlimit="10"/>
<path d="M300 450.1H300.1V450V400V399.9H300H250H249.9V400C249.9 427.669 272.331 450.1 300 450.1Z" fill="#A54AFF" stroke="#A54AFF" stroke-width="0.2" stroke-miterlimit="10"/>
<path d="M100 649.9C72.4412 649.9 50.1 627.559 50.1 600H50H49.9C49.9 627.559 27.5588 649.9 0 649.9V650V650.1C27.5588 650.1 49.9 672.441 49.9 700H50H50.1C50.1 672.441 72.4412 650.1 100 650.1V650V649.9Z" fill="#A54AFF" stroke="#A54AFF" stroke-width="0.2" stroke-miterlimit="10"/>
<path d="M100 650.1H100.1V650V600V599.9H100H50H49.9V600C49.9 627.669 72.3308 650.1 100 650.1Z" fill="#A54AFF" stroke="#A54AFF" stroke-width="0.2" stroke-miterlimit="10"/>
<path d="M200 649.9C172.441 649.9 150.1 627.559 150.1 600H150H149.9C149.9 627.559 127.559 649.9 100 649.9V650V650.1C127.559 650.1 149.9 672.441 149.9 700H150H150.1C150.1 672.441 172.441 650.1 200 650.1V650V649.9Z" fill="#A54AFF" stroke="#A54AFF" stroke-width="0.2" stroke-miterlimit="10"/>
<path d="M100 649.9H99.9V650V700V700.1H100H150H150.1V700C150.1 672.331 127.669 649.9 100 649.9Z" fill="#A54AFF" stroke="#A54AFF" stroke-width="0.2" stroke-miterlimit="10"/>
<path d="M100 749.9C72.4412 749.9 50.1 727.559 50.1 700H50H49.9C49.9 727.559 27.5588 749.9 0 749.9V750V750.1C27.5588 750.1 49.9 772.441 49.9 800H50H50.1C50.1 772.441 72.4412 750.1 100 750.1V750V749.9Z" fill="#A54AFF" stroke="#A54AFF" stroke-width="0.2" stroke-miterlimit="10"/>
<path d="M100 750.1H100.1V750V700V699.9H100H50H49.9V700C49.9 727.669 72.3308 750.1 100 750.1Z" fill="#A54AFF" stroke="#A54AFF" stroke-width="0.2" stroke-miterlimit="10"/>
<path d="M150 700H100V750C127.614 750 150 727.614 150 700Z" fill="white"/>
<path d="M149.9 700C149.9 727.559 127.559 749.9 100 749.9V750V750.1C127.559 750.1 149.9 772.441 149.9 800H150H150.1C150.1 772.441 172.441 750.1 200 750.1V750V749.9C172.441 749.9 150.1 727.559 150.1 700H150H149.9Z" fill="#A54AFF" stroke="#A54AFF" stroke-width="0.2" stroke-miterlimit="10"/>
<path d="M500 549.9C472.441 549.9 450.1 527.559 450.1 500H450H449.9C449.9 527.559 427.559 549.9 400 549.9V550V550.1C427.559 550.1 449.9 572.441 449.9 600H450H450.1C450.1 572.441 472.441 550.1 500 550.1V550V549.9Z" fill="#A54AFF" stroke="#A54AFF" stroke-width="0.2" stroke-miterlimit="10"/>
<path d="M500 550.1H500.1V550V500V499.9H500H450H449.9V500C449.9 527.669 472.331 550.1 500 550.1Z" fill="#A54AFF" stroke="#A54AFF" stroke-width="0.2" stroke-miterlimit="10"/>
<path d="M600 549.9C572.441 549.9 550.1 527.559 550.1 500H550H549.9C549.9 527.559 527.559 549.9 500 549.9V550V550.1C527.559 550.1 549.9 572.441 549.9 600H550H550.1C550.1 572.441 572.441 550.1 600 550.1V550V549.9Z" fill="#A54AFF" stroke="#A54AFF" stroke-width="0.2" stroke-miterlimit="10"/>
<path d="M500 549.9H499.9V550V600V600.1H500H550H550.1V600C550.1 572.331 527.669 549.9 500 549.9Z" fill="#A54AFF" stroke="#A54AFF" stroke-width="0.2" stroke-miterlimit="10"/>
<path d="M400 449.9C372.441 449.9 350.1 427.559 350.1 400H350H349.9C349.9 427.559 327.559 449.9 300 449.9V450V450.1C327.559 450.1 349.9 472.441 349.9 500H350H350.1C350.1 472.441 372.441 450.1 400 450.1V450V449.9Z" fill="#A54AFF" stroke="#A54AFF" stroke-width="0.2" stroke-miterlimit="10"/>
<path d="M400 450.1H400.1V450V400V399.9H400H350H349.9V400C349.9 427.669 372.331 450.1 400 450.1Z" fill="#A54AFF" stroke="#A54AFF" stroke-width="0.2" stroke-miterlimit="10"/>
<path d="M500 449.9C472.441 449.9 450.1 427.559 450.1 400H450H449.9C449.9 427.559 427.559 449.9 400 449.9V450V450.1C427.559 450.1 449.9 472.441 449.9 500H450H450.1C450.1 472.441 472.441 450.1 500 450.1V450V449.9Z" fill="#A54AFF" stroke="#A54AFF" stroke-width="0.2" stroke-miterlimit="10"/>
<path d="M500 450.1H500.1V450V400V399.9H500H450H449.9V400C449.9 427.669 472.331 450.1 500 450.1Z" fill="#A54AFF" stroke="#A54AFF" stroke-width="0.2" stroke-miterlimit="10"/>
<path d="M600 449.9C572.441 449.9 550.1 427.559 550.1 400H550H549.9C549.9 427.559 527.559 449.9 500 449.9V450V450.1C527.559 450.1 549.9 472.441 549.9 500H550H550.1C550.1 472.441 572.441 450.1 600 450.1V450V449.9Z" fill="#A54AFF" stroke="#A54AFF" stroke-width="0.2" stroke-miterlimit="10"/>
<path d="M500 449.9H499.9V450V500V500.1H500H550H550.1V500C550.1 472.331 527.669 449.9 500 449.9Z" fill="#A54AFF" stroke="#A54AFF" stroke-width="0.2" stroke-miterlimit="10"/>
<path d="M500 649.9C472.441 649.9 450.1 627.559 450.1 600H450H449.9C449.9 627.559 427.559 649.9 400 649.9V650V650.1C427.559 650.1 449.9 672.441 449.9 700H450H450.1C450.1 672.441 472.441 650.1 500 650.1V650V649.9Z" fill="#A54AFF" stroke="#A54AFF" stroke-width="0.2" stroke-miterlimit="10"/>
<path d="M500 650.1H500.1V650V600V599.9H500H450H449.9V600C449.9 627.669 472.331 650.1 500 650.1Z" fill="#A54AFF" stroke="#A54AFF" stroke-width="0.2" stroke-miterlimit="10"/>
<path d="M600 649.9C572.441 649.9 550.1 627.559 550.1 600H550H549.9C549.9 627.559 527.559 649.9 500 649.9V650V650.1C527.559 650.1 549.9 672.441 549.9 700H550H550.1C550.1 672.441 572.441 650.1 600 650.1V650V649.9Z" fill="#A54AFF" stroke="#A54AFF" stroke-width="0.2" stroke-miterlimit="10"/>
<path d="M500 649.9H499.9V650V700V700.1H500H550H550.1V700C550.1 672.331 527.669 649.9 500 649.9Z" fill="#A54AFF" stroke="#A54AFF" stroke-width="0.2" stroke-miterlimit="10"/>
<path d="M500 749.9C472.441 749.9 450.1 727.559 450.1 700H450H449.9C449.9 727.559 427.559 749.9 400 749.9V750V750.1C427.559 750.1 449.9 772.441 449.9 800H450H450.1C450.1 772.441 472.441 750.1 500 750.1V750V749.9Z" fill="#A54AFF" stroke="#A54AFF" stroke-width="0.2" stroke-miterlimit="10"/>
<path d="M500 750.1H500.1V750V700V699.9H500H450H449.9V700C449.9 727.669 472.331 750.1 500 750.1Z" fill="#A54AFF" stroke="#A54AFF" stroke-width="0.2" stroke-miterlimit="10"/>
<path d="M600 749.9C572.441 749.9 550.1 727.559 550.1 700H550H549.9C549.9 727.559 527.559 749.9 500 749.9V750V750.1C527.559 750.1 549.9 772.441 549.9 800H550H550.1C550.1 772.441 572.441 750.1 600 750.1V750V749.9Z" fill="#A54AFF" stroke="#A54AFF" stroke-width="0.2" stroke-miterlimit="10"/>
<path d="M200 149.9C172.441 149.9 150.1 127.559 150.1 100H150H149.9C149.9 127.559 127.559 149.9 100 149.9V150V150.1C127.559 150.1 149.9 172.441 149.9 200H150H150.1C150.1 172.441 172.441 150.1 200 150.1V150V149.9Z" fill="#A54AFF" stroke="#A54AFF" stroke-width="0.2" stroke-miterlimit="10"/>
<path d="M300 149.9C272.441 149.9 250.1 127.559 250.1 100H250H249.9C249.9 127.559 227.559 149.9 200 149.9V150V150.1C227.559 150.1 249.9 172.441 249.9 200H250H250.1C250.1 172.441 272.441 150.1 300 150.1V150V149.9Z" fill="#A54AFF" stroke="#A54AFF" stroke-width="0.2" stroke-miterlimit="10"/>
<path d="M300 150.1H300.1V150V100V99.9H300H250H249.9V100C249.9 127.669 272.331 150.1 300 150.1Z" fill="#A54AFF" stroke="#A54AFF" stroke-width="0.2" stroke-miterlimit="10"/>
<path d="M200 149.9H199.9V150V200V200.1H200H250H250.1V200C250.1 172.331 227.669 149.9 200 149.9Z" fill="#A54AFF" stroke="#A54AFF" stroke-width="0.2" stroke-miterlimit="10"/>
<path d="M300 49.9C272.441 49.9 250.1 27.5588 250.1 0H250H249.9C249.9 27.5588 227.559 49.9 200 49.9V50V50.1C227.559 50.1 249.9 72.4412 249.9 100H250H250.1C250.1 72.4412 272.441 50.1 300 50.1V50V49.9Z" fill="#A54AFF" stroke="#A54AFF" stroke-width="0.2" stroke-miterlimit="10"/>
<path d="M100 249.9C72.4412 249.9 50.1 227.559 50.1 200H50H49.9C49.9 227.559 27.5588 249.9 0 249.9V250V250.1C27.5588 250.1 49.9 272.441 49.9 300H50H50.1C50.1 272.441 72.4412 250.1 100 250.1V250V249.9Z" fill="#A54AFF" stroke="#A54AFF" stroke-width="0.2" stroke-miterlimit="10"/>
<path d="M200 249.9C172.441 249.9 150.1 227.559 150.1 200H150H149.9C149.9 227.559 127.559 249.9 100 249.9V250V250.1C127.559 250.1 149.9 272.441 149.9 300H150H150.1C150.1 272.441 172.441 250.1 200 250.1V250V249.9Z" fill="#A54AFF" stroke="#A54AFF" stroke-width="0.2" stroke-miterlimit="10"/>
<path d="M200 250.1H200.1V250V200V199.9H200H150H149.9V200C149.9 227.669 172.331 250.1 200 250.1Z" fill="#A54AFF" stroke="#A54AFF" stroke-width="0.2" stroke-miterlimit="10"/>
<path d="M100 249.9H99.9V250V300V300.1H100H150H150.1V300C150.1 272.331 127.669 249.9 100 249.9Z" fill="#A54AFF" stroke="#A54AFF" stroke-width="0.2" stroke-miterlimit="10"/>
<path d="M300 249.9C272.441 249.9 250.1 227.559 250.1 200H250H249.9C249.9 227.559 227.559 249.9 200 249.9V250V250.1C227.559 250.1 249.9 272.441 249.9 300H250H250.1C250.1 272.441 272.441 250.1 300 250.1V250V249.9Z" fill="#A54AFF" stroke="#A54AFF" stroke-width="0.2" stroke-miterlimit="10"/>
<path d="M100 349.9C72.4412 349.9 50.1 327.559 50.1 300H50H49.9C49.9 327.559 27.5588 349.9 0 349.9V350V350.1C27.5588 350.1 49.9 372.441 49.9 400H50H50.1C50.1 372.441 72.4412 350.1 100 350.1V350V349.9Z" fill="#A54AFF" stroke="#A54AFF" stroke-width="0.2" stroke-miterlimit="10"/>
<path d="M100 350.1H100.1V350V300V299.9H100H50H49.9V300C49.9 327.669 72.3308 350.1 100 350.1Z" fill="#A54AFF" stroke="#A54AFF" stroke-width="0.2" stroke-miterlimit="10"/>
<path d="M200 349.9C172.441 349.9 150.1 327.559 150.1 300H150H149.9C149.9 327.559 127.559 349.9 100 349.9V350V350.1C127.559 350.1 149.9 372.441 149.9 400H150H150.1C150.1 372.441 172.441 350.1 200 350.1V350V349.9Z" fill="#A54AFF" stroke="#A54AFF" stroke-width="0.2" stroke-miterlimit="10"/>
<path d="M100 349.9H99.9V350V400V400.1H100H150H150.1V400C150.1 372.331 127.669 349.9 100 349.9Z" fill="#A54AFF" stroke="#A54AFF" stroke-width="0.2" stroke-miterlimit="10"/>
<path d="M300 349.9C272.441 349.9 250.1 327.559 250.1 300H250H249.9C249.9 327.559 227.559 349.9 200 349.9V350V350.1C227.559 350.1 249.9 372.441 249.9 400H250H250.1C250.1 372.441 272.441 350.1 300 350.1V350V349.9Z" fill="#A54AFF" stroke="#A54AFF" stroke-width="0.2" stroke-miterlimit="10"/>
<path d="M200 349.9H199.9V350V400V400.1H200H250H250.1V400C250.1 372.331 227.669 349.9 200 349.9Z" fill="#A54AFF" stroke="#A54AFF" stroke-width="0.2" stroke-miterlimit="10"/>
<path d="M400 149.9C372.441 149.9 350.1 127.559 350.1 100H350H349.9C349.9 127.559 327.559 149.9 300 149.9V150V150.1C327.559 150.1 349.9 172.441 349.9 200H350H350.1C350.1 172.441 372.441 150.1 400 150.1V150V149.9Z" fill="#A54AFF" stroke="#A54AFF" stroke-width="0.2" stroke-miterlimit="10"/>
<path d="M500 149.9C472.441 149.9 450.1 127.559 450.1 100H450H449.9C449.9 127.559 427.559 149.9 400 149.9V150V150.1C427.559 150.1 449.9 172.441 449.9 200H450H450.1C450.1 172.441 472.441 150.1 500 150.1V150V149.9Z" fill="#A54AFF" stroke="#A54AFF" stroke-width="0.2" stroke-miterlimit="10"/>
<path d="M400 149.9H399.9V150V200V200.1H400H450H450.1V200C450.1 172.331 427.669 149.9 400 149.9Z" fill="#A54AFF" stroke="#A54AFF" stroke-width="0.2" stroke-miterlimit="10"/>
<path d="M400 49.9C372.441 49.9 350.1 27.5588 350.1 0H350H349.9C349.9 27.5588 327.559 49.9 300 49.9V50V50.1C327.559 50.1 349.9 72.4412 349.9 100H350H350.1C350.1 72.4412 372.441 50.1 400 50.1V50V49.9Z" fill="#A54AFF" stroke="#A54AFF" stroke-width="0.2" stroke-miterlimit="10"/>
<path d="M300 49.9H299.9V50V100V100.1H300H350H350.1V100C350.1 72.3308 327.669 49.9 300 49.9Z" fill="#A54AFF" stroke="#A54AFF" stroke-width="0.2" stroke-miterlimit="10"/>
<path d="M400 249.9C372.441 249.9 350.1 227.559 350.1 200H350H349.9C349.9 227.559 327.559 249.9 300 249.9V250V250.1C327.559 250.1 349.9 272.441 349.9 300H350H350.1C350.1 272.441 372.441 250.1 400 250.1V250V249.9Z" fill="#A54AFF" stroke="#A54AFF" stroke-width="0.2" stroke-miterlimit="10"/>
<path d="M400 250.1H400.1V250V200V199.9H400H350H349.9V200C349.9 227.669 372.331 250.1 400 250.1Z" fill="#A54AFF" stroke="#A54AFF" stroke-width="0.2" stroke-miterlimit="10"/>
<path d="M500 249.9C472.441 249.9 450.1 227.559 450.1 200H450H449.9C449.9 227.559 427.559 249.9 400 249.9V250V250.1C427.559 250.1 449.9 272.441 449.9 300H450H450.1C450.1 272.441 472.441 250.1 500 250.1V250V249.9Z" fill="#A54AFF" stroke="#A54AFF" stroke-width="0.2" stroke-miterlimit="10"/>
<path d="M600 249.9C572.441 249.9 550.1 227.559 550.1 200H550H549.9C549.9 227.559 527.559 249.9 500 249.9V250V250.1C527.559 250.1 549.9 272.441 549.9 300H550H550.1C550.1 272.441 572.441 250.1 600 250.1V250V249.9Z" fill="#A54AFF" stroke="#A54AFF" stroke-width="0.2" stroke-miterlimit="10"/>
<path d="M500 249.9H499.9V250V300V300.1H500H550H550.1V300C550.1 272.331 527.669 249.9 500 249.9Z" fill="#A54AFF" stroke="#A54AFF" stroke-width="0.2" stroke-miterlimit="10"/>
<path d="M400 349.9C372.441 349.9 350.1 327.559 350.1 300H350H349.9C349.9 327.559 327.559 349.9 300 349.9V350V350.1C327.559 350.1 349.9 372.441 349.9 400H350H350.1C350.1 372.441 372.441 350.1 400 350.1V350V349.9Z" fill="#A54AFF" stroke="#A54AFF" stroke-width="0.2" stroke-miterlimit="10"/>
<path d="M300 349.9H299.9V350V400V400.1H300H350H350.1V400C350.1 372.331 327.669 349.9 300 349.9Z" fill="#A54AFF" stroke="#A54AFF" stroke-width="0.2" stroke-miterlimit="10"/>
<path d="M500 349.9C472.441 349.9 450.1 327.559 450.1 300H450H449.9C449.9 327.559 427.559 349.9 400 349.9V350V350.1C427.559 350.1 449.9 372.441 449.9 400H450H450.1C450.1 372.441 472.441 350.1 500 350.1V350V349.9Z" fill="#A54AFF" stroke="#A54AFF" stroke-width="0.2" stroke-miterlimit="10"/>
<path d="M500 350.1H500.1V350V300V299.9H500H450H449.9V300C449.9 327.669 472.331 350.1 500 350.1Z" fill="#A54AFF" stroke="#A54AFF" stroke-width="0.2" stroke-miterlimit="10"/>
<path d="M400 349.9H399.9V350V400V400.1H400H450H450.1V400C450.1 372.331 427.669 349.9 400 349.9Z" fill="#A54AFF" stroke="#A54AFF" stroke-width="0.2" stroke-miterlimit="10"/>
<path d="M600 349.9C572.441 349.9 550.1 327.559 550.1 300H550H549.9C549.9 327.559 527.559 349.9 500 349.9V350V350.1C527.559 350.1 549.9 372.441 549.9 400H550H550.1C550.1 372.441 572.441 350.1 600 350.1V350V349.9Z" fill="#A54AFF" stroke="#A54AFF" stroke-width="0.2" stroke-miterlimit="10"/>
<path d="M500 349.9H499.9V350V400V400.1H500H550H550.1V400C550.1 372.331 527.669 349.9 500 349.9Z" fill="#A54AFF" stroke="#A54AFF" stroke-width="0.2" stroke-miterlimit="10"/>
</svg>
