<svg width="1920" height="1080" viewBox="0 0 1920 1080" fill="none" xmlns="http://www.w3.org/2000/svg">
<path opacity="0.2" d="M458.348 430.924C439.066 430.924 423.355 447.35 423.355 466.632C423.355 486.628 439.066 502.339 458.348 502.339C439.066 502.339 423.355 518.765 423.355 538.047C423.355 518.765 406.929 502.339 387.647 502.339C367.651 502.339 351.94 518.765 351.94 538.047C351.94 558.043 367.651 573.755 387.647 573.755C406.929 573.755 423.355 558.043 423.355 538.047C423.355 558.043 439.066 573.755 458.348 573.755C439.066 573.755 423.355 590.18 423.355 609.462C423.355 629.458 439.066 645.17 458.348 645.17C439.066 645.17 423.355 661.595 423.355 680.877C423.355 700.874 439.066 716.585 458.348 716.585C439.066 716.585 423.355 733.01 423.355 752.292C423.355 733.01 406.929 716.585 387.647 716.585C367.651 716.585 351.94 733.01 351.94 752.292C351.94 772.289 367.651 788 387.647 788C367.651 788 351.94 804.425 351.94 823.708C351.94 804.425 335.514 788 316.232 788C296.236 788 280.525 804.425 280.525 823.708C280.525 804.425 264.099 788 244.817 788C224.821 788 209.11 804.425 209.11 823.708C209.11 804.425 192.684 788 173.402 788C153.406 788 137.694 804.425 137.694 823.708C137.694 804.425 121.269 788 101.987 788C81.9906 788 66.2793 804.425 66.2793 823.708C66.2793 804.425 49.8538 788 30.5717 788C49.8538 788 66.2793 772.289 66.2793 752.292C66.2793 733.01 49.8538 716.585 30.5717 716.585C49.8538 716.585 66.2793 700.874 66.2793 680.877C66.2793 661.595 49.8538 645.17 30.5717 645.17C49.8538 645.17 66.2793 629.458 66.2793 609.462C66.2793 590.18 49.8538 573.755 30.5717 573.755C49.8538 573.755 66.2793 558.043 66.2793 538.047C66.2793 518.765 49.8538 502.339 30.5717 502.339C49.8538 502.339 66.2793 486.628 66.2793 466.632C66.2793 447.35 49.8538 430.924 30.5717 430.924C49.8538 430.924 66.2793 415.213 66.2793 395.931C66.2793 375.935 49.8538 360.223 30.5717 360.223C49.8538 360.223 66.2793 343.798 66.2793 324.516C66.2793 304.519 49.8538 288.808 30.5717 288.808C49.8538 288.808 66.2793 272.383 66.2793 253.101C66.2793 272.383 81.9906 288.808 101.987 288.808C121.269 288.808 137.694 272.383 137.694 253.101C137.694 272.383 153.406 288.808 173.402 288.808C192.684 288.808 209.11 272.383 209.11 253.101C209.11 272.383 224.821 288.808 244.817 288.808C264.099 288.808 280.525 272.383 280.525 253.101C280.525 272.383 296.236 288.808 316.232 288.808C335.514 288.808 351.94 272.383 351.94 253.101C351.94 272.383 367.651 288.808 387.647 288.808C367.651 288.808 351.94 304.519 351.94 324.516C351.94 343.798 367.651 360.223 387.647 360.223C406.929 360.223 423.355 343.798 423.355 324.516C423.355 343.798 439.066 360.223 458.348 360.223C439.066 360.223 423.355 375.935 423.355 395.931C423.355 415.213 439.066 430.924 458.348 430.924ZM316.232 502.339C335.514 502.339 351.94 486.628 351.94 466.632C351.94 447.35 335.514 430.924 316.232 430.924C335.514 430.924 351.94 415.213 351.94 395.217C351.94 375.935 335.514 360.223 316.232 360.223C296.236 360.223 280.525 375.935 280.525 395.217C280.525 375.935 264.099 360.223 244.817 360.223C224.821 360.223 209.11 375.935 209.11 395.217C209.11 375.935 192.684 360.223 173.402 360.223C153.406 360.223 137.694 375.935 137.694 395.217C137.694 415.213 153.406 430.924 173.402 430.924C153.406 430.924 137.694 447.35 137.694 466.632C137.694 486.628 153.406 502.339 173.402 502.339C153.406 502.339 137.694 518.765 137.694 538.047C137.694 558.043 153.406 573.755 173.402 573.755C153.406 573.755 137.694 590.18 137.694 609.462C137.694 629.458 153.406 645.17 173.402 645.17C153.406 645.17 137.694 661.595 137.694 680.877C137.694 700.874 153.406 716.585 173.402 716.585C192.684 716.585 209.11 700.874 209.11 680.877C209.11 700.874 224.821 716.585 244.817 716.585C264.099 716.585 280.525 700.874 280.525 680.877C280.525 700.874 296.236 716.585 316.232 716.585C335.514 716.585 351.94 700.874 351.94 680.877C351.94 661.595 335.514 645.17 316.232 645.17C335.514 645.17 351.94 629.458 351.94 609.462C351.94 590.18 335.514 573.755 316.232 573.755C296.236 573.755 280.525 590.18 280.525 609.462C280.525 590.18 264.099 573.755 244.817 573.755C224.821 573.755 209.11 590.18 209.11 609.462C209.11 590.18 192.684 573.755 173.402 573.755C192.684 573.755 209.11 558.043 209.11 538.047C209.11 518.765 192.684 502.339 173.402 502.339C192.684 502.339 209.11 486.628 209.11 466.632C209.11 486.628 224.821 502.339 244.817 502.339C264.099 502.339 280.525 486.628 280.525 466.632C280.525 486.628 296.236 502.339 316.232 502.339ZM885.182 502.339C865.186 502.339 849.475 518.765 849.475 538.047C849.475 558.043 865.186 573.755 885.182 573.755C865.186 573.755 849.475 590.18 849.475 609.462C849.475 629.458 865.186 645.17 885.182 645.17C865.186 645.17 849.475 661.595 849.475 680.877C849.475 700.874 865.186 716.585 885.182 716.585C865.186 716.585 849.475 733.01 849.475 752.292C849.475 772.289 865.186 788 885.182 788C865.186 788 849.475 804.425 849.475 823.708C849.475 804.425 833.049 788 813.767 788C793.771 788 778.059 804.425 778.059 823.708C778.059 804.425 761.634 788 742.352 788C761.634 788 778.059 772.289 778.059 752.292C778.059 733.01 761.634 716.585 742.352 716.585C761.634 716.585 778.059 700.874 778.059 680.877C778.059 661.595 761.634 645.17 742.352 645.17C761.634 645.17 778.059 629.458 778.059 609.462C778.059 590.18 761.634 573.755 742.352 573.755C722.356 573.755 706.644 590.18 706.644 609.462C706.644 590.18 690.219 573.755 670.937 573.755C650.941 573.755 635.229 590.18 635.229 609.462C635.229 590.18 618.804 573.755 599.522 573.755C579.525 573.755 563.814 590.18 563.814 609.462C563.814 629.458 579.525 645.17 599.522 645.17C579.525 645.17 563.814 661.595 563.814 680.877C563.814 700.874 579.525 716.585 599.522 716.585C579.525 716.585 563.814 733.01 563.814 752.292C563.814 772.289 579.525 788 599.522 788C579.525 788 563.814 804.425 563.814 823.708C563.814 804.425 547.389 788 528.106 788C508.11 788 492.399 804.425 492.399 823.708C492.399 804.425 475.973 788 456.691 788C475.973 788 492.399 772.289 492.399 752.292C492.399 733.01 475.973 716.585 456.691 716.585C475.973 716.585 492.399 700.874 492.399 680.877C492.399 661.595 475.973 645.17 456.691 645.17C475.973 645.17 492.399 629.458 492.399 609.462C492.399 590.18 475.973 573.755 456.691 573.755C475.973 573.755 492.399 558.043 492.399 538.047C492.399 518.765 475.973 502.339 456.691 502.339C475.973 502.339 492.399 486.628 492.399 466.632C492.399 447.35 475.973 430.924 456.691 430.924C475.973 430.924 492.399 415.213 492.399 395.217C492.399 415.213 508.11 430.924 528.106 430.924C547.389 430.924 563.814 415.213 563.814 395.217C563.814 375.935 547.389 359.509 528.106 359.509C547.389 359.509 563.814 343.798 563.814 323.802C563.814 343.798 579.525 359.509 599.522 359.509C618.804 359.509 635.229 343.798 635.229 323.802C635.229 304.519 618.804 288.094 599.522 288.094C618.804 288.094 635.229 272.383 635.229 252.386C635.229 272.383 650.941 288.094 670.937 288.094C690.219 288.094 706.644 272.383 706.644 252.386C706.644 272.383 722.356 288.094 742.352 288.094C722.356 288.094 706.644 304.519 706.644 323.802C706.644 343.798 722.356 359.509 742.352 359.509C761.634 359.509 778.059 343.798 778.059 323.802C778.059 343.798 793.771 359.509 813.767 359.509C793.771 359.509 778.059 375.935 778.059 395.217C778.059 415.213 793.771 430.924 813.767 430.924C833.049 430.924 849.475 415.213 849.475 395.217C849.475 415.213 865.186 430.924 885.182 430.924C865.186 430.924 849.475 447.35 849.475 466.632C849.475 486.628 865.186 502.339 885.182 502.339ZM599.522 430.924C579.525 430.924 563.814 447.35 563.814 466.632C563.814 486.628 579.525 502.339 599.522 502.339C618.804 502.339 635.229 486.628 635.229 466.632C635.229 486.628 650.941 502.339 670.937 502.339C690.219 502.339 706.644 486.628 706.644 466.632C706.644 486.628 722.356 502.339 742.352 502.339C761.634 502.339 778.059 486.628 778.059 466.632C778.059 447.35 761.634 430.924 742.352 430.924C722.356 430.924 706.644 447.35 706.644 466.632C706.644 447.35 690.219 430.924 670.937 430.924C690.219 430.924 706.644 415.213 706.644 395.217C706.644 375.935 690.219 359.509 670.937 359.509C650.941 359.509 635.229 375.935 635.229 395.217C635.229 415.213 650.941 430.924 670.937 430.924C650.941 430.924 635.229 447.35 635.229 466.632C635.229 447.35 618.804 430.924 599.522 430.924ZM1311.3 359.509C1291.31 359.509 1275.59 375.935 1275.59 395.217C1275.59 415.213 1291.31 430.924 1311.3 430.924C1291.31 430.924 1275.59 447.35 1275.59 466.632C1275.59 486.628 1291.31 502.339 1311.3 502.339C1291.31 502.339 1275.59 518.765 1275.59 538.047C1275.59 558.043 1291.31 573.755 1311.3 573.755C1291.31 573.755 1275.59 590.18 1275.59 609.462C1275.59 629.458 1291.31 645.17 1311.3 645.17C1291.31 645.17 1275.59 661.595 1275.59 680.877C1275.59 700.874 1291.31 716.585 1311.3 716.585C1291.31 716.585 1275.59 733.01 1275.59 752.292C1275.59 772.289 1291.31 788 1311.3 788C1291.31 788 1275.59 804.425 1275.59 823.708C1275.59 804.425 1259.17 788 1239.89 788C1219.89 788 1204.18 804.425 1204.18 823.708C1204.18 804.425 1187.75 788 1168.47 788C1187.75 788 1204.18 772.289 1204.18 752.292C1204.18 733.01 1187.75 716.585 1168.47 716.585C1187.75 716.585 1204.18 700.874 1204.18 680.877C1204.18 661.595 1187.75 645.17 1168.47 645.17C1148.48 645.17 1132.76 661.595 1132.76 680.877C1132.76 661.595 1116.34 645.17 1097.06 645.17C1116.34 645.17 1132.76 629.458 1132.76 609.462C1132.76 590.18 1116.34 573.755 1097.06 573.755C1077.06 573.755 1061.35 590.18 1061.35 609.462C1061.35 590.18 1044.92 573.755 1025.64 573.755C1044.92 573.755 1061.35 558.043 1061.35 538.047C1061.35 518.765 1044.92 502.339 1025.64 502.339C1005.64 502.339 989.934 518.765 989.934 538.047C989.934 558.043 1005.64 573.755 1025.64 573.755C1005.64 573.755 989.934 590.18 989.934 609.462C989.934 629.458 1005.64 645.17 1025.64 645.17C1005.64 645.17 989.934 661.595 989.934 680.877C989.934 700.874 1005.64 716.585 1025.64 716.585C1005.64 716.585 989.934 733.01 989.934 752.292C989.934 772.289 1005.64 788 1025.64 788C1005.64 788 989.934 804.425 989.934 823.708C989.934 804.425 973.508 788 954.226 788C934.23 788 918.519 804.425 918.519 823.708C918.519 804.425 902.093 788 882.811 788C902.093 788 918.519 772.289 918.519 752.292C918.519 733.01 902.093 716.585 882.811 716.585C902.093 716.585 918.519 700.874 918.519 680.877C918.519 661.595 902.093 645.17 882.811 645.17C902.093 645.17 918.519 629.458 918.519 609.462C918.519 590.18 902.093 573.755 882.811 573.755C902.093 573.755 918.519 558.043 918.519 538.047C918.519 518.765 902.093 502.339 882.811 502.339C902.093 502.339 918.519 486.628 918.519 466.632C918.519 447.35 902.093 430.924 882.811 430.924C902.093 430.924 918.519 415.213 918.519 395.217C918.519 375.935 902.093 359.509 882.811 359.509C902.093 359.509 918.519 343.798 918.519 323.802C918.519 304.519 902.093 288.094 882.811 288.094C902.093 288.094 918.519 272.383 918.519 252.386C918.519 272.383 934.23 288.094 954.226 288.094C973.508 288.094 989.934 272.383 989.934 252.386C989.934 272.383 1005.64 288.094 1025.64 288.094C1005.64 288.094 989.934 304.519 989.934 323.802C989.934 343.798 1005.64 359.509 1025.64 359.509C1005.64 359.509 989.934 375.935 989.934 395.217C989.934 415.213 1005.64 430.924 1025.64 430.924C1044.92 430.924 1061.35 415.213 1061.35 395.217C1061.35 415.213 1077.06 430.924 1097.06 430.924C1077.06 430.924 1061.35 447.35 1061.35 466.632C1061.35 486.628 1077.06 502.339 1097.06 502.339C1116.34 502.339 1132.76 486.628 1132.76 466.632C1132.76 486.628 1148.48 502.339 1168.47 502.339C1148.48 502.339 1132.76 518.765 1132.76 538.047C1132.76 558.043 1148.48 573.755 1168.47 573.755C1187.75 573.755 1204.18 558.043 1204.18 538.047C1204.18 518.765 1187.75 502.339 1168.47 502.339C1187.75 502.339 1204.18 486.628 1204.18 466.632C1204.18 447.35 1187.75 430.924 1168.47 430.924C1187.75 430.924 1204.18 415.213 1204.18 395.217C1204.18 375.935 1187.75 359.509 1168.47 359.509C1187.75 359.509 1204.18 343.798 1204.18 323.802C1204.18 304.519 1187.75 288.094 1168.47 288.094C1187.75 288.094 1204.18 272.383 1204.18 252.386C1204.18 272.383 1219.89 288.094 1239.89 288.094C1259.17 288.094 1275.59 272.383 1275.59 252.386C1275.59 272.383 1291.31 288.094 1311.3 288.094C1291.31 288.094 1275.59 304.519 1275.59 323.802C1275.59 343.798 1291.31 359.509 1311.3 359.509ZM1666.01 430.924C1646.01 430.924 1630.3 447.35 1630.3 466.632C1630.3 447.35 1613.87 430.924 1594.59 430.924C1613.87 430.924 1630.3 415.213 1630.3 395.217C1630.3 375.935 1613.87 359.509 1594.59 359.509C1574.59 359.509 1558.88 375.935 1558.88 395.217C1558.88 375.935 1542.46 359.509 1523.18 359.509C1503.18 359.509 1487.47 375.935 1487.47 395.217C1487.47 375.935 1471.04 359.509 1451.76 359.509C1431.76 359.509 1416.05 375.935 1416.05 395.217C1416.05 415.213 1431.76 430.924 1451.76 430.924C1431.76 430.924 1416.05 447.35 1416.05 466.632C1416.05 486.628 1431.76 502.339 1451.76 502.339C1431.76 502.339 1416.05 518.765 1416.05 538.047C1416.05 558.043 1431.76 573.755 1451.76 573.755C1431.76 573.755 1416.05 590.18 1416.05 609.462C1416.05 629.458 1431.76 645.17 1451.76 645.17C1431.76 645.17 1416.05 661.595 1416.05 680.877C1416.05 700.874 1431.76 716.585 1451.76 716.585C1471.04 716.585 1487.47 700.874 1487.47 680.877C1487.47 700.874 1503.18 716.585 1523.18 716.585C1542.46 716.585 1558.88 700.874 1558.88 680.877C1558.88 700.874 1574.59 716.585 1594.59 716.585C1613.87 716.585 1630.3 700.874 1630.3 680.877C1630.3 661.595 1613.87 645.17 1594.59 645.17C1613.87 645.17 1630.3 629.458 1630.3 609.462C1630.3 590.18 1613.87 573.755 1594.59 573.755C1574.59 573.755 1558.88 590.18 1558.88 609.462C1558.88 590.18 1542.46 573.755 1523.18 573.755C1503.18 573.755 1487.47 590.18 1487.47 609.462C1487.47 590.18 1471.04 573.755 1451.76 573.755C1471.04 573.755 1487.47 558.043 1487.47 538.047C1487.47 518.765 1471.04 502.339 1451.76 502.339C1471.04 502.339 1487.47 486.628 1487.47 466.632C1487.47 486.628 1503.18 502.339 1523.18 502.339C1542.46 502.339 1558.88 486.628 1558.88 466.632C1558.88 486.628 1574.59 502.339 1594.59 502.339C1613.87 502.339 1630.3 486.628 1630.3 466.632C1630.3 486.628 1646.01 502.339 1666.01 502.339C1646.01 502.339 1630.3 518.765 1630.3 538.047C1630.3 558.043 1646.01 573.755 1666.01 573.755C1685.29 573.755 1701.71 558.043 1701.71 538.047C1701.71 558.043 1717.43 573.755 1737.42 573.755C1717.43 573.755 1701.71 590.18 1701.71 609.462C1701.71 629.458 1717.43 645.17 1737.42 645.17C1717.43 645.17 1701.71 661.595 1701.71 680.877C1701.71 700.874 1717.43 716.585 1737.42 716.585C1717.43 716.585 1701.71 733.01 1701.71 752.292C1701.71 733.01 1685.29 716.585 1666.01 716.585C1646.01 716.585 1630.3 733.01 1630.3 752.292C1630.3 772.289 1646.01 788 1666.01 788C1646.01 788 1630.3 804.425 1630.3 823.708C1630.3 804.425 1613.87 788 1594.59 788C1574.59 788 1558.88 804.425 1558.88 823.708C1558.88 804.425 1542.46 788 1523.18 788C1503.18 788 1487.47 804.425 1487.47 823.708C1487.47 804.425 1471.04 788 1451.76 788C1431.76 788 1416.05 804.425 1416.05 823.708C1416.05 804.425 1399.63 788 1380.35 788C1399.63 788 1416.05 772.289 1416.05 752.292C1416.05 733.01 1399.63 716.585 1380.35 716.585C1360.35 716.585 1344.64 733.01 1344.64 752.292C1344.64 733.01 1328.21 716.585 1308.93 716.585C1328.21 716.585 1344.64 700.874 1344.64 680.877C1344.64 661.595 1328.21 645.17 1308.93 645.17C1328.21 645.17 1344.64 629.458 1344.64 609.462C1344.64 590.18 1328.21 573.755 1308.93 573.755C1328.21 573.755 1344.64 558.043 1344.64 538.047C1344.64 518.765 1328.21 502.339 1308.93 502.339C1328.21 502.339 1344.64 486.628 1344.64 466.632C1344.64 447.35 1328.21 430.924 1308.93 430.924C1328.21 430.924 1344.64 415.213 1344.64 395.217C1344.64 375.935 1328.21 359.509 1308.93 359.509C1328.21 359.509 1344.64 343.798 1344.64 323.802C1344.64 343.798 1360.35 359.509 1380.35 359.509C1399.63 359.509 1416.05 343.798 1416.05 323.802C1416.05 304.519 1399.63 288.094 1380.35 288.094C1399.63 288.094 1416.05 272.383 1416.05 252.386C1416.05 272.383 1431.76 288.094 1451.76 288.094C1471.04 288.094 1487.47 272.383 1487.47 252.386C1487.47 272.383 1503.18 288.094 1523.18 288.094C1542.46 288.094 1558.88 272.383 1558.88 252.386C1558.88 272.383 1574.59 288.094 1594.59 288.094C1613.87 288.094 1630.3 272.383 1630.3 252.386C1630.3 272.383 1646.01 288.094 1666.01 288.094C1646.01 288.094 1630.3 304.519 1630.3 323.802C1630.3 343.798 1646.01 359.509 1666.01 359.509C1685.29 359.509 1701.71 343.798 1701.71 323.802C1701.71 343.798 1717.43 359.509 1737.42 359.509C1717.43 359.509 1701.71 375.935 1701.71 395.217C1701.71 415.213 1717.43 430.924 1737.42 430.924C1717.43 430.924 1701.71 447.35 1701.71 466.632C1701.71 447.35 1685.29 430.924 1666.01 430.924ZM1735.05 716.585C1754.33 716.585 1770.76 700.874 1770.76 680.877C1770.76 700.874 1786.47 716.585 1806.47 716.585V788C1786.47 788 1770.76 804.425 1770.76 823.708C1770.76 804.425 1754.33 788 1735.05 788C1754.33 788 1770.76 772.289 1770.76 752.292C1770.76 733.01 1754.33 716.585 1735.05 716.585ZM1806.47 716.585C1825.75 716.585 1842.17 700.874 1842.17 680.877C1842.17 700.874 1857.88 716.585 1877.88 716.585C1857.88 716.585 1842.17 733.01 1842.17 752.292C1842.17 772.289 1857.88 788 1877.88 788C1857.88 788 1842.17 804.425 1842.17 823.708C1842.17 804.425 1825.75 788 1806.47 788V716.585ZM1877.88 359.509C1857.88 359.509 1842.17 375.935 1842.17 395.217C1842.17 415.213 1857.88 430.924 1877.88 430.924C1857.88 430.924 1842.17 447.35 1842.17 466.632C1842.17 486.628 1857.88 502.339 1877.88 502.339C1857.88 502.339 1842.17 518.765 1842.17 538.047C1842.17 558.043 1857.88 573.755 1877.88 573.755C1857.88 573.755 1842.17 590.18 1842.17 609.462C1842.17 629.458 1857.88 645.17 1877.88 645.17C1857.88 645.17 1842.17 661.595 1842.17 680.877C1842.17 661.595 1825.75 645.17 1806.47 645.17C1786.47 645.17 1770.76 661.595 1770.76 680.877C1770.76 661.595 1754.33 645.17 1735.05 645.17C1754.33 645.17 1770.76 629.458 1770.76 609.462C1770.76 590.18 1754.33 573.755 1735.05 573.755C1754.33 573.755 1770.76 558.043 1770.76 538.047C1770.76 518.765 1754.33 502.339 1735.05 502.339C1754.33 502.339 1770.76 486.628 1770.76 466.632C1770.76 447.35 1754.33 430.924 1735.05 430.924C1754.33 430.924 1770.76 415.213 1770.76 395.217C1770.76 375.935 1754.33 359.509 1735.05 359.509C1754.33 359.509 1770.76 343.798 1770.76 323.802C1770.76 304.519 1754.33 288.094 1735.05 288.094C1754.33 288.094 1770.76 272.383 1770.76 252.386C1770.76 272.383 1786.47 288.094 1806.47 288.094C1825.75 288.094 1842.17 272.383 1842.17 252.386C1842.17 272.383 1857.88 288.094 1877.88 288.094C1857.88 288.094 1842.17 304.519 1842.17 323.802C1842.17 343.798 1857.88 359.509 1877.88 359.509Z" fill="#A54AFF"/>
</svg>
