<svg width="1936" height="1936" viewBox="0 0 1936 1936" fill="none" xmlns="http://www.w3.org/2000/svg">
<path opacity="0.15" d="M0.000926971 1451.33C267.182 1451.33 483.779 1667.93 483.779 1935.11C483.779 1667.93 700.376 1451.33 967.557 1451.33C700.376 1451.33 483.779 1234.74 483.779 967.556C483.779 1234.74 267.182 1451.33 0.000926971 1451.33Z" fill="#A54AFF"/>
<path opacity="0.15" d="M0.000926971 483.777C267.182 483.777 483.779 700.374 483.779 967.555C483.779 700.374 700.376 483.777 967.557 483.777C700.376 483.777 483.779 267.18 483.779 -0.00102615C483.779 267.18 267.182 483.777 0.000926971 483.777Z" fill="#A54AFF"/>
<path opacity="0.15" d="M967.546 1451.33C1234.73 1451.33 1451.32 1667.93 1451.32 1935.11C1451.32 1667.93 1667.92 1451.33 1935.1 1451.33C1667.92 1451.33 1451.32 1234.74 1451.32 967.556C1451.32 1234.74 1234.73 1451.33 967.546 1451.33Z" fill="#A54AFF"/>
<path opacity="0.15" d="M967.546 483.777C1234.73 483.777 1451.32 700.374 1451.32 967.555C1451.32 700.374 1667.92 483.777 1935.1 483.777C1667.92 483.777 1451.32 267.18 1451.32 -0.00102615C1451.32 267.18 1234.73 483.777 967.546 483.777Z" fill="#A54AFF"/>
<path opacity="0.15" d="M483.772 967.554C750.953 967.554 967.55 1184.15 967.55 1451.33C967.55 1184.15 1184.15 967.554 1451.33 967.554C1184.15 967.554 967.55 750.957 967.55 483.776C967.55 750.957 750.953 967.554 483.772 967.554Z" fill="#A54AFF"/>
</svg>
