<svg width="704" height="210" viewBox="0 0 704 210" fill="none" xmlns="http://www.w3.org/2000/svg">
<path d="M131.317 170.064H105.217V117.864H131.317V170.064ZM0.816602 170.064H105.217V196.164H0.816602V170.064ZM105.217 13.725V39.8251H26.9166V170.064H0.816602V13.725H105.217ZM105.217 39.8251H131.317V91.7641H105.217V39.8251ZM53.0166 117.864V91.7641H105.217V117.864H53.0166ZM300.343 91.7641C293.035 91.7641 287.293 97.7671 287.293 104.814C287.293 112.122 293.035 117.864 300.343 117.864C293.035 117.864 287.293 123.867 287.293 130.914C287.293 138.222 293.035 143.964 300.343 143.964C293.035 143.964 287.293 149.967 287.293 157.014C287.293 164.322 293.035 170.064 300.343 170.064C293.035 170.064 287.293 176.067 287.293 183.114C287.293 190.422 293.035 196.164 300.343 196.164C293.035 196.164 287.293 202.167 287.293 209.214C287.293 202.167 281.29 196.164 274.243 196.164C266.935 196.164 261.193 202.167 261.193 209.214C261.193 202.167 255.19 196.164 248.143 196.164C255.19 196.164 261.193 190.422 261.193 183.114C261.193 176.067 255.19 170.064 248.143 170.064C255.19 170.064 261.193 164.322 261.193 157.014C261.193 149.967 255.19 143.964 248.143 143.964C255.19 143.964 261.193 138.222 261.193 130.914C261.193 123.867 255.19 117.864 248.143 117.864C240.835 117.864 235.093 123.867 235.093 130.914C235.093 123.867 229.09 117.864 222.043 117.864C214.735 117.864 208.993 123.867 208.993 130.914C208.993 123.867 202.99 117.864 195.943 117.864C188.635 117.864 182.893 123.867 182.893 130.914C182.893 138.222 188.635 143.964 195.943 143.964C188.635 143.964 182.893 149.967 182.893 157.014C182.893 164.322 188.635 170.064 195.943 170.064C188.635 170.064 182.893 176.067 182.893 183.114C182.893 190.422 188.635 196.164 195.943 196.164C188.635 196.164 182.893 202.167 182.893 209.214C182.893 202.167 176.89 196.164 169.843 196.164C162.535 196.164 156.793 202.167 156.793 209.214C156.793 202.167 150.79 196.164 143.743 196.164C150.79 196.164 156.793 190.422 156.793 183.114C156.793 176.067 150.79 170.064 143.743 170.064C150.79 170.064 156.793 164.322 156.793 157.014C156.793 149.967 150.79 143.964 143.743 143.964C150.79 143.964 156.793 138.222 156.793 130.914C156.793 123.867 150.79 117.864 143.743 117.864C150.79 117.864 156.793 112.122 156.793 104.814C156.793 97.7671 150.79 91.7641 143.743 91.7641C150.79 91.7641 156.793 86.0221 156.793 78.7141C156.793 71.6671 150.79 65.6641 143.743 65.6641C150.79 65.6641 156.793 59.9221 156.793 52.6141C156.793 59.9221 162.535 65.6641 169.843 65.6641C176.89 65.6641 182.893 59.9221 182.893 52.6141C182.893 45.5671 176.89 39.5641 169.843 39.5641C176.89 39.5641 182.893 33.8221 182.893 26.5141C182.893 33.8221 188.635 39.5641 195.943 39.5641C202.99 39.5641 208.993 33.8221 208.993 26.5141C208.993 19.4671 202.99 13.4641 195.943 13.4641C202.99 13.4641 208.993 7.72205 208.993 0.414047C208.993 7.72205 214.735 13.4641 222.043 13.4641C229.09 13.4641 235.093 7.72205 235.093 0.414047C235.093 7.72205 240.835 13.4641 248.143 13.4641C240.835 13.4641 235.093 19.4671 235.093 26.5141C235.093 33.8221 240.835 39.5641 248.143 39.5641C255.19 39.5641 261.193 33.8221 261.193 26.5141C261.193 33.8221 266.935 39.5641 274.243 39.5641C266.935 39.5641 261.193 45.5671 261.193 52.6141C261.193 59.9221 266.935 65.6641 274.243 65.6641C281.29 65.6641 287.293 59.9221 287.293 52.6141C287.293 59.9221 293.035 65.6641 300.343 65.6641C293.035 65.6641 287.293 71.6671 287.293 78.7141C287.293 86.0221 293.035 91.7641 300.343 91.7641ZM195.943 65.6641C188.635 65.6641 182.893 71.6671 182.893 78.7141C182.893 86.0221 188.635 91.7641 195.943 91.7641C202.99 91.7641 208.993 86.0221 208.993 78.7141C208.993 86.0221 214.735 91.7641 222.043 91.7641C229.09 91.7641 235.093 86.0221 235.093 78.7141C235.093 86.0221 240.835 91.7641 248.143 91.7641C255.19 91.7641 261.193 86.0221 261.193 78.7141C261.193 71.6671 255.19 65.6641 248.143 65.6641C240.835 65.6641 235.093 71.6671 235.093 78.7141C235.093 71.6671 229.09 65.6641 222.043 65.6641C229.09 65.6641 235.093 59.9221 235.093 52.6141C235.093 45.5671 229.09 39.5641 222.043 39.5641C214.735 39.5641 208.993 45.5671 208.993 52.6141C208.993 59.9221 214.735 65.6641 222.043 65.6641C214.735 65.6641 208.993 71.6671 208.993 78.7141C208.993 71.6671 202.99 65.6641 195.943 65.6641ZM313.048 130.914C313.048 123.867 318.79 117.864 326.098 117.864C333.145 117.864 339.148 123.867 339.148 130.914V183.114C339.148 190.422 333.145 196.164 326.098 196.164C318.79 196.164 313.048 190.422 313.048 183.114V130.914ZM443.548 78.7141C443.548 86.0221 437.545 91.7641 430.498 91.7641C423.19 91.7641 417.448 86.0221 417.448 78.7141V26.5141C417.448 19.4671 423.19 13.725 430.498 13.725C437.545 13.725 443.287 19.4671 443.287 26.5141H443.548V26.775V52.6141C443.548 52.6141 443.548 52.6141 443.548 52.8751V78.7141ZM443.548 104.814V183.114C443.548 190.422 437.545 196.164 430.498 196.164C423.19 196.164 417.448 190.422 417.448 183.114V157.275C417.448 157.275 417.448 157.275 417.448 157.014C417.448 149.967 411.445 143.964 404.398 143.964C397.09 143.964 391.348 138.222 391.348 130.914C391.348 123.867 385.345 117.864 378.298 117.864C370.99 117.864 365.248 112.122 365.248 104.814C365.248 97.7671 359.245 91.7641 352.198 91.7641C344.89 91.7641 339.148 86.0221 339.148 78.7141V104.814C339.148 112.122 333.145 117.864 326.098 117.864C318.79 117.864 313.048 112.122 313.048 104.814V26.5141C313.048 19.4671 318.79 13.725 326.098 13.725C333.145 13.725 339.148 19.4671 339.148 26.5141V52.6141C339.148 59.9221 344.89 65.6641 352.198 65.6641C359.245 65.6641 365.248 71.6671 365.248 78.7141C365.248 86.0221 370.99 91.7641 378.298 91.7641C385.345 91.7641 391.348 97.7671 391.348 104.814C391.348 112.122 397.09 117.864 404.398 117.864C411.445 117.864 417.448 123.867 417.448 130.914V105.075C417.448 105.075 417.448 105.075 417.448 104.814C417.448 97.7671 423.19 91.7641 430.498 91.7641C437.545 91.7641 443.548 97.7671 443.548 104.814ZM495.646 39.8251V170.064H469.546V39.8251H495.646ZM573.946 65.6641V39.8251H495.646V13.725H573.946V39.8251H600.046V65.6641H573.946ZM573.946 117.864H521.746V91.7641H573.946V117.864ZM573.946 196.164H495.646V170.064H573.946V196.164ZM600.046 170.064H573.946V117.864H600.046V170.064ZM612.472 143.964C619.519 143.964 625.522 138.222 625.522 130.914C625.522 138.222 631.264 143.964 638.572 143.964C631.264 143.964 625.522 149.967 625.522 157.014C625.522 149.967 619.519 143.964 612.472 143.964ZM612.472 117.864C619.519 117.864 625.522 112.122 625.522 104.814C625.522 112.122 631.264 117.864 638.572 117.864C631.264 117.864 625.522 123.867 625.522 130.914C625.522 123.867 619.519 117.864 612.472 117.864ZM625.522 183.114C625.522 190.422 631.264 196.164 638.572 196.164C631.264 196.164 625.522 202.167 625.522 209.214C625.522 202.167 619.519 196.164 612.472 196.164C619.519 196.164 625.522 190.422 625.522 183.114ZM638.572 143.964C645.619 143.964 651.622 138.222 651.622 130.914C651.622 138.222 657.364 143.964 664.672 143.964C657.364 143.964 651.622 149.967 651.622 157.014C651.622 149.967 645.619 143.964 638.572 143.964ZM638.572 117.864C645.619 117.864 651.622 112.122 651.622 104.814C651.622 112.122 657.364 117.864 664.672 117.864C657.364 117.864 651.622 123.867 651.622 130.914C651.622 123.867 645.619 117.864 638.572 117.864ZM651.622 183.114C651.622 190.422 657.364 196.164 664.672 196.164C657.364 196.164 651.622 202.167 651.622 209.214C651.622 202.167 645.619 196.164 638.572 196.164C645.619 196.164 651.622 190.422 651.622 183.114ZM612.472 39.5641C619.519 39.5641 625.522 33.8221 625.522 26.5141C625.522 33.8221 631.264 39.5641 638.572 39.5641C631.264 39.5641 625.522 45.5671 625.522 52.6141C625.522 45.5671 619.519 39.5641 612.472 39.5641ZM638.572 13.4641C631.264 13.4641 625.522 19.4671 625.522 26.5141C625.522 19.4671 619.519 13.4641 612.472 13.4641C619.519 13.4641 625.522 7.72205 625.522 0.414047C625.522 7.72205 631.264 13.4641 638.572 13.4641ZM612.472 65.6641C619.519 65.6641 625.522 59.9221 625.522 52.6141C625.522 59.9221 631.264 65.6641 638.572 65.6641C631.264 65.6641 625.522 71.6671 625.522 78.7141C625.522 71.6671 619.519 65.6641 612.472 65.6641ZM612.472 91.7641C619.519 91.7641 625.522 86.0221 625.522 78.7141C625.522 86.0221 631.264 91.7641 638.572 91.7641C631.264 91.7641 625.522 97.7671 625.522 104.814C625.522 97.7671 619.519 91.7641 612.472 91.7641ZM664.672 39.5641C657.364 39.5641 651.622 45.5671 651.622 52.6141C651.622 45.5671 645.619 39.5641 638.572 39.5641C645.619 39.5641 651.622 33.8221 651.622 26.5141C651.622 33.8221 657.364 39.5641 664.672 39.5641ZM664.672 13.4641C657.364 13.4641 651.622 19.4671 651.622 26.5141C651.622 19.4671 645.619 13.4641 638.572 13.4641C645.619 13.4641 651.622 7.72205 651.622 0.414047C651.622 7.72205 657.364 13.4641 664.672 13.4641ZM638.572 65.6641C645.619 65.6641 651.622 59.9221 651.622 52.6141C651.622 59.9221 657.364 65.6641 664.672 65.6641C657.364 65.6641 651.622 71.6671 651.622 78.7141C651.622 71.6671 645.619 65.6641 638.572 65.6641ZM638.572 91.7641C645.619 91.7641 651.622 86.0221 651.622 78.7141C651.622 86.0221 657.364 91.7641 664.672 91.7641C657.364 91.7641 651.622 97.7671 651.622 104.814C651.622 97.7671 645.619 91.7641 638.572 91.7641ZM690.326 196.164C683.018 196.164 677.276 190.422 677.276 183.114C677.276 176.067 683.018 170.064 690.326 170.064C697.373 170.064 703.376 176.067 703.376 183.114C703.376 190.422 697.373 196.164 690.326 196.164ZM703.376 52.6141V52.8751V78.7141C703.376 86.0221 697.373 91.7641 690.326 91.7641C683.018 91.7641 677.276 86.0221 677.276 78.7141V26.775C677.276 19.4671 683.018 13.725 690.326 13.725C697.373 13.725 703.376 19.4671 703.376 26.775V52.6141ZM677.276 104.814C677.276 97.7671 683.018 92.0251 690.326 92.0251C697.373 92.0251 703.376 97.7671 703.376 105.075V130.914C703.376 138.222 697.373 143.964 690.326 143.964C683.018 143.964 677.276 138.222 677.276 130.914V104.814Z" fill="black"/>
</svg>
