<svg width="705" height="219" viewBox="0 0 705 219" fill="none" xmlns="http://www.w3.org/2000/svg">
<path d="M173.518 149.892C165.993 149.892 159.892 143.791 159.892 136.266C159.892 143.791 153.791 149.892 146.266 149.892C153.791 149.892 159.892 155.993 159.892 163.518C159.892 155.993 165.993 149.892 173.518 149.892Z" fill="black"/>
<path d="M173.517 149.892V136.266H159.891C159.891 143.791 165.991 149.892 173.517 149.892Z" fill="black"/>
<path d="M173.517 149.883C165.991 149.883 159.891 155.984 159.891 163.509H173.517V149.883Z" fill="black"/>
<path d="M200.776 149.892C193.25 149.892 187.15 143.791 187.15 136.266C187.15 143.791 181.049 149.892 173.523 149.892C181.049 149.892 187.15 155.993 187.15 163.518C187.15 155.993 193.25 149.892 200.776 149.892Z" fill="black"/>
<path d="M173.523 149.883V163.509H187.15C187.15 155.984 181.049 149.883 173.523 149.883Z" fill="black"/>
<path d="M187.15 136.266H173.523V149.892C181.049 149.892 187.15 143.791 187.15 136.266Z" fill="black"/>
<path d="M173.518 122.642C165.993 122.642 159.892 116.541 159.892 109.016C159.892 116.541 153.791 122.642 146.266 122.642C153.791 122.642 159.892 128.743 159.892 136.268C159.892 128.743 165.993 122.642 173.518 122.642Z" fill="black"/>
<path d="M173.517 122.642V109.016H159.891C159.891 116.541 165.991 122.642 173.517 122.642Z" fill="black"/>
<path d="M173.517 122.641C165.991 122.641 159.891 128.741 159.891 136.267H173.517V122.641Z" fill="black"/>
<path d="M200.776 122.642C193.25 122.642 187.15 116.541 187.15 109.016C187.15 116.541 181.049 122.642 173.523 122.642C181.049 122.642 187.15 128.743 187.15 136.268C187.15 128.743 193.25 122.642 200.776 122.642Z" fill="black"/>
<path d="M200.767 122.642V109.016H187.141C187.141 116.541 193.241 122.642 200.767 122.642Z" fill="black"/>
<path d="M173.523 122.641V136.267H187.15C187.15 128.741 181.049 122.641 173.523 122.641Z" fill="black"/>
<path d="M187.15 109.016H173.523V122.642C181.049 122.642 187.15 116.541 187.15 109.016Z" fill="black"/>
<path d="M228.026 122.642C220.5 122.642 214.4 116.541 214.4 109.016C214.4 116.541 208.299 122.642 200.773 122.642C208.299 122.642 214.4 128.743 214.4 136.268C214.4 128.743 220.5 122.642 228.026 122.642Z" fill="black"/>
<path d="M228.025 122.642V109.016H214.398C214.398 116.541 220.499 122.642 228.025 122.642Z" fill="black"/>
<path d="M214.4 109.016H200.773V122.642C208.299 122.642 214.4 116.541 214.4 109.016Z" fill="black"/>
<path d="M173.518 177.142C165.993 177.142 159.892 171.041 159.892 163.516C159.892 171.041 153.791 177.142 146.266 177.142C153.791 177.142 159.892 183.243 159.892 190.768C159.892 183.243 165.993 177.142 173.518 177.142Z" fill="black"/>
<path d="M173.517 177.142V163.516H159.891C159.891 171.041 165.991 177.142 173.517 177.142Z" fill="black"/>
<path d="M173.517 177.148C165.991 177.148 159.891 183.249 159.891 190.775H173.517V177.148Z" fill="black"/>
<path d="M200.776 177.142C193.25 177.142 187.15 171.041 187.15 163.516C187.15 171.041 181.049 177.142 173.523 177.142C181.049 177.142 187.15 183.243 187.15 190.768C187.15 183.243 193.25 177.142 200.776 177.142Z" fill="black"/>
<path d="M173.523 177.148V190.775H187.15C187.15 183.249 181.049 177.148 173.523 177.148Z" fill="black"/>
<path d="M187.15 163.516H173.523V177.142C181.049 177.142 187.15 171.041 187.15 163.516Z" fill="black"/>
<path d="M173.518 204.392C165.993 204.392 159.892 198.291 159.892 190.766C159.892 198.291 153.791 204.392 146.266 204.392C153.791 204.392 159.892 210.493 159.892 218.018C159.892 210.493 165.993 204.392 173.518 204.392Z" fill="black"/>
<path d="M173.517 204.392V190.766H159.891C159.891 198.291 165.991 204.392 173.517 204.392Z" fill="black"/>
<path d="M200.776 204.392C193.25 204.392 187.15 198.291 187.15 190.766C187.15 198.291 181.049 204.392 173.523 204.392C181.049 204.392 187.15 210.493 187.15 218.018C187.15 210.493 193.25 204.392 200.776 204.392Z" fill="black"/>
<path d="M187.15 190.766H173.523V204.392C181.049 204.392 187.15 198.291 187.15 190.766Z" fill="black"/>
<path d="M282.526 149.892C275 149.892 268.9 143.791 268.9 136.266C268.9 143.791 262.799 149.892 255.273 149.892C262.799 149.892 268.9 155.993 268.9 163.518C268.9 155.993 275 149.892 282.526 149.892Z" fill="black"/>
<path d="M282.525 149.892V136.266H268.898C268.898 143.791 274.999 149.892 282.525 149.892Z" fill="black"/>
<path d="M282.525 149.883C274.999 149.883 268.898 155.984 268.898 163.509H282.525V149.883Z" fill="black"/>
<path d="M309.776 149.892C302.25 149.892 296.15 143.791 296.15 136.266C296.15 143.791 290.049 149.892 282.523 149.892C290.049 149.892 296.15 155.993 296.15 163.518C296.15 155.993 302.25 149.892 309.776 149.892Z" fill="black"/>
<path d="M282.523 149.883V163.509H296.15C296.15 155.984 290.049 149.883 282.523 149.883Z" fill="black"/>
<path d="M296.15 136.266H282.523V149.892C290.049 149.892 296.15 143.791 296.15 136.266Z" fill="black"/>
<path d="M255.268 122.642C247.743 122.642 241.642 116.541 241.642 109.016C241.642 116.541 235.541 122.642 228.016 122.642C235.541 122.642 241.642 128.743 241.642 136.268C241.642 128.743 247.743 122.642 255.268 122.642Z" fill="black"/>
<path d="M255.275 122.642V109.016H241.648C241.648 116.541 247.749 122.642 255.275 122.642Z" fill="black"/>
<path d="M241.642 109.016H228.016V122.642C235.541 122.642 241.642 116.541 241.642 109.016Z" fill="black"/>
<path d="M282.526 122.642C275 122.642 268.9 116.541 268.9 109.016C268.9 116.541 262.799 122.642 255.273 122.642C262.799 122.642 268.9 128.743 268.9 136.268C268.9 128.743 275 122.642 282.526 122.642Z" fill="black"/>
<path d="M282.525 122.642V109.016H268.898C268.898 116.541 274.999 122.642 282.525 122.642Z" fill="black"/>
<path d="M282.525 122.641C274.999 122.641 268.898 128.741 268.898 136.267H282.525V122.641Z" fill="black"/>
<path d="M268.9 109.016H255.273V122.642C262.799 122.642 268.9 116.541 268.9 109.016Z" fill="black"/>
<path d="M309.776 122.642C302.25 122.642 296.15 116.541 296.15 109.016C296.15 116.541 290.049 122.642 282.523 122.642C290.049 122.642 296.15 128.743 296.15 136.268C296.15 128.743 302.25 122.642 309.776 122.642Z" fill="black"/>
<path d="M282.523 122.641V136.267H296.15C296.15 128.741 290.049 122.641 282.523 122.641Z" fill="black"/>
<path d="M296.15 109.016H282.523V122.642C290.049 122.642 296.15 116.541 296.15 109.016Z" fill="black"/>
<path d="M282.526 177.142C275 177.142 268.9 171.041 268.9 163.516C268.9 171.041 262.799 177.142 255.273 177.142C262.799 177.142 268.9 183.243 268.9 190.768C268.9 183.243 275 177.142 282.526 177.142Z" fill="black"/>
<path d="M282.525 177.142V163.516H268.898C268.898 171.041 274.999 177.142 282.525 177.142Z" fill="black"/>
<path d="M282.525 177.148C274.999 177.148 268.898 183.249 268.898 190.775H282.525V177.148Z" fill="black"/>
<path d="M309.776 177.142C302.25 177.142 296.15 171.041 296.15 163.516C296.15 171.041 290.049 177.142 282.523 177.142C290.049 177.142 296.15 183.243 296.15 190.768C296.15 183.243 302.25 177.142 309.776 177.142Z" fill="black"/>
<path d="M282.523 177.148V190.775H296.15C296.15 183.249 290.049 177.148 282.523 177.148Z" fill="black"/>
<path d="M296.15 163.516H282.523V177.142C290.049 177.142 296.15 171.041 296.15 163.516Z" fill="black"/>
<path d="M282.526 204.392C275 204.392 268.9 198.291 268.9 190.766C268.9 198.291 262.799 204.392 255.273 204.392C262.799 204.392 268.9 210.493 268.9 218.018C268.9 210.493 275 204.392 282.526 204.392Z" fill="black"/>
<path d="M282.525 204.392V190.766H268.898C268.898 198.291 274.999 204.392 282.525 204.392Z" fill="black"/>
<path d="M309.776 204.392C302.25 204.392 296.15 198.291 296.15 190.766C296.15 198.291 290.049 204.392 282.523 204.392C290.049 204.392 296.15 210.493 296.15 218.018C296.15 210.493 302.25 204.392 309.776 204.392Z" fill="black"/>
<path d="M296.15 190.766H282.523V204.392C290.049 204.392 296.15 198.291 296.15 190.766Z" fill="black"/>
<path d="M200.776 40.884C193.25 40.884 187.15 34.7833 187.15 27.2578C187.15 34.7833 181.049 40.884 173.523 40.884C181.049 40.884 187.15 46.9847 187.15 54.5102C187.15 46.9847 193.25 40.884 200.776 40.884Z" fill="black"/>
<path d="M200.767 40.875C193.241 40.875 187.141 46.9757 187.141 54.5012H200.767V40.875Z" fill="black"/>
<path d="M228.026 40.884C220.5 40.884 214.4 34.7833 214.4 27.2578C214.4 34.7833 208.299 40.884 200.773 40.884C208.299 40.884 214.4 46.9847 214.4 54.5102C214.4 46.9847 220.5 40.884 228.026 40.884Z" fill="black"/>
<path d="M228.025 40.884V27.2578H214.398C214.398 34.7833 220.499 40.884 228.025 40.884Z" fill="black"/>
<path d="M200.773 40.875V54.5012H214.4C214.4 46.9757 208.299 40.875 200.773 40.875Z" fill="black"/>
<path d="M228.026 13.6262C220.5 13.6262 214.4 7.52547 214.4 0C214.4 7.52547 208.299 13.6262 200.773 13.6262C208.299 13.6262 214.4 19.7269 214.4 27.2524C214.4 19.7269 220.5 13.6262 228.026 13.6262Z" fill="black"/>
<path d="M228.025 13.6328C220.499 13.6328 214.398 19.7335 214.398 27.259H228.025V13.6328Z" fill="black"/>
<path d="M173.518 68.134C165.993 68.134 159.892 62.0333 159.892 54.5078C159.892 62.0333 153.791 68.134 146.266 68.134C153.791 68.134 159.892 74.2347 159.892 81.7602C159.892 74.2347 165.993 68.134 173.518 68.134Z" fill="black"/>
<path d="M173.517 68.1406C165.991 68.1406 159.891 74.2413 159.891 81.7668H173.517V68.1406Z" fill="black"/>
<path d="M200.776 68.134C193.25 68.134 187.15 62.0333 187.15 54.5078C187.15 62.0333 181.049 68.134 173.523 68.134C181.049 68.134 187.15 74.2347 187.15 81.7602C187.15 74.2347 193.25 68.134 200.776 68.134Z" fill="black"/>
<path d="M200.767 68.134V54.5078H187.141C187.141 62.0333 193.241 68.134 200.767 68.134Z" fill="black"/>
<path d="M173.523 68.1406V81.7668H187.15C187.15 74.2413 181.049 68.1406 173.523 68.1406Z" fill="black"/>
<path d="M228.026 68.134C220.5 68.134 214.4 62.0333 214.4 54.5078C214.4 62.0333 208.299 68.134 200.773 68.134C208.299 68.134 214.4 74.2347 214.4 81.7602C214.4 74.2347 220.5 68.134 228.026 68.134Z" fill="black"/>
<path d="M214.4 54.5078H200.773V68.134C208.299 68.134 214.4 62.0333 214.4 54.5078Z" fill="black"/>
<path d="M173.518 95.3918C165.993 95.3918 159.892 89.2911 159.892 81.7656C159.892 89.2911 153.791 95.3918 146.266 95.3918C153.791 95.3918 159.892 101.493 159.892 109.018C159.892 101.493 165.993 95.3918 173.518 95.3918Z" fill="black"/>
<path d="M173.517 95.3918V81.7656H159.891C159.891 89.2911 165.991 95.3918 173.517 95.3918Z" fill="black"/>
<path d="M173.517 95.3828C165.991 95.3828 159.891 101.484 159.891 109.009H173.517V95.3828Z" fill="black"/>
<path d="M200.776 95.3918C193.25 95.3918 187.15 89.2911 187.15 81.7656C187.15 89.2911 181.049 95.3918 173.523 95.3918C181.049 95.3918 187.15 101.493 187.15 109.018C187.15 101.493 193.25 95.3918 200.776 95.3918Z" fill="black"/>
<path d="M200.767 95.3828C193.241 95.3828 187.141 101.484 187.141 109.009H200.767V95.3828Z" fill="black"/>
<path d="M173.523 95.3828V109.009H187.15C187.15 101.484 181.049 95.3828 173.523 95.3828Z" fill="black"/>
<path d="M187.15 81.7656H173.523V95.3918C181.049 95.3918 187.15 89.2911 187.15 81.7656Z" fill="black"/>
<path d="M228.026 95.3918C220.5 95.3918 214.4 89.2911 214.4 81.7656C214.4 89.2911 208.299 95.3918 200.773 95.3918C208.299 95.3918 214.4 101.493 214.4 109.018C214.4 101.493 220.5 95.3918 228.026 95.3918Z" fill="black"/>
<path d="M228.025 95.3828C220.499 95.3828 214.398 101.484 214.398 109.009H228.025V95.3828Z" fill="black"/>
<path d="M200.773 95.3828V109.009H214.4C214.4 101.484 208.299 95.3828 200.773 95.3828Z" fill="black"/>
<path d="M255.268 40.884C247.743 40.884 241.642 34.7833 241.642 27.2578C241.642 34.7833 235.541 40.884 228.016 40.884C235.541 40.884 241.642 46.9847 241.642 54.5102C241.642 46.9847 247.743 40.884 255.268 40.884Z" fill="black"/>
<path d="M255.275 40.875C247.749 40.875 241.648 46.9757 241.648 54.5012H255.275V40.875Z" fill="black"/>
<path d="M241.642 27.2578H228.016V40.884C235.541 40.884 241.642 34.7833 241.642 27.2578Z" fill="black"/>
<path d="M282.526 40.884C275 40.884 268.9 34.7833 268.9 27.2578C268.9 34.7833 262.799 40.884 255.273 40.884C262.799 40.884 268.9 46.9847 268.9 54.5102C268.9 46.9847 275 40.884 282.526 40.884Z" fill="black"/>
<path d="M255.273 40.875V54.5012H268.9C268.9 46.9757 262.799 40.875 255.273 40.875Z" fill="black"/>
<path d="M255.268 13.6262C247.743 13.6262 241.642 7.52547 241.642 0C241.642 7.52547 235.541 13.6262 228.016 13.6262C235.541 13.6262 241.642 19.7269 241.642 27.2524C241.642 19.7269 247.743 13.6262 255.268 13.6262Z" fill="black"/>
<path d="M228.016 13.6328V27.259H241.642C241.642 19.7335 235.541 13.6328 228.016 13.6328Z" fill="black"/>
<path d="M255.268 68.134C247.743 68.134 241.642 62.0333 241.642 54.5078C241.642 62.0333 235.541 68.134 228.016 68.134C235.541 68.134 241.642 74.2347 241.642 81.7602C241.642 74.2347 247.743 68.134 255.268 68.134Z" fill="black"/>
<path d="M255.275 68.134V54.5078H241.648C241.648 62.0333 247.749 68.134 255.275 68.134Z" fill="black"/>
<path d="M282.526 68.134C275 68.134 268.9 62.0333 268.9 54.5078C268.9 62.0333 262.799 68.134 255.273 68.134C262.799 68.134 268.9 74.2347 268.9 81.7602C268.9 74.2347 275 68.134 282.526 68.134Z" fill="black"/>
<path d="M282.525 68.1406C274.999 68.1406 268.898 74.2413 268.898 81.7668H282.525V68.1406Z" fill="black"/>
<path d="M268.9 54.5078H255.273V68.134C262.799 68.134 268.9 62.0333 268.9 54.5078Z" fill="black"/>
<path d="M309.776 68.134C302.25 68.134 296.15 62.0333 296.15 54.5078C296.15 62.0333 290.049 68.134 282.523 68.134C290.049 68.134 296.15 74.2347 296.15 81.7602C296.15 74.2347 302.25 68.134 309.776 68.134Z" fill="black"/>
<path d="M282.523 68.1406V81.7668H296.15C296.15 74.2413 290.049 68.1406 282.523 68.1406Z" fill="black"/>
<path d="M255.268 95.3918C247.743 95.3918 241.642 89.2911 241.642 81.7656C241.642 89.2911 235.541 95.3918 228.016 95.3918C235.541 95.3918 241.642 101.493 241.642 109.018C241.642 101.493 247.743 95.3918 255.268 95.3918Z" fill="black"/>
<path d="M255.275 95.3828C247.749 95.3828 241.648 101.484 241.648 109.009H255.275V95.3828Z" fill="black"/>
<path d="M228.016 95.3828V109.009H241.642C241.642 101.484 235.541 95.3828 228.016 95.3828Z" fill="black"/>
<path d="M282.526 95.3918C275 95.3918 268.9 89.2911 268.9 81.7656C268.9 89.2911 262.799 95.3918 255.273 95.3918C262.799 95.3918 268.9 101.493 268.9 109.018C268.9 101.493 275 95.3918 282.526 95.3918Z" fill="black"/>
<path d="M282.525 95.3918V81.7656H268.898C268.898 89.2911 274.999 95.3918 282.525 95.3918Z" fill="black"/>
<path d="M282.525 95.3828C274.999 95.3828 268.898 101.484 268.898 109.009H282.525V95.3828Z" fill="black"/>
<path d="M255.273 95.3828V109.009H268.9C268.9 101.484 262.799 95.3828 255.273 95.3828Z" fill="black"/>
<path d="M309.776 95.3918C302.25 95.3918 296.15 89.2911 296.15 81.7656C296.15 89.2911 290.049 95.3918 282.523 95.3918C290.049 95.3918 296.15 101.493 296.15 109.018C296.15 101.493 302.25 95.3918 309.776 95.3918Z" fill="black"/>
<path d="M282.523 95.3828V109.009H296.15C296.15 101.484 290.049 95.3828 282.523 95.3828Z" fill="black"/>
<path d="M296.15 81.7656H282.523V95.3918C290.049 95.3918 296.15 89.2911 296.15 81.7656Z" fill="black"/>
<path d="M122.642 149.844H109.016V163.47H122.642V149.844Z" fill="black"/>
<path d="M109.016 122.594V122.594V136.22H122.642V136.219V122.594H109.016Z" fill="black"/>
<path d="M136.267 149.845V136.22V136.219V136.219H122.641V149.845H136.267Z" fill="black"/>
<path d="M136.268 177.088V163.462V163.461V163.461H122.642V177.087H109.016V177.088H136.268Z" fill="black"/>
<path d="M13.625 149.845H27.2512V136.22V136.219V136.219H13.625V149.845Z" fill="black"/>
<path d="M13.625 177.087H27.2512V163.462V163.462V163.461H13.625V177.087Z" fill="black"/>
<path d="M95.3918 190.719V177.094H95.3891H81.7656V190.719H95.3918Z" fill="black"/>
<path d="M81.759 190.727V190.727H68.1328V190.727V204.353V204.354H81.759V204.353V190.727Z" fill="black"/>
<path d="M95.3828 190.727V204.353V204.354H109.009V190.728V190.727V190.727H95.3828V190.727Z" fill="black"/>
<path d="M54.5012 190.727V190.727H40.875V190.727V204.353V204.354H54.5012V204.353V190.727Z" fill="black"/>
<path d="M27.2512 190.727H13.625V204.352V204.353H27.2512V204.352V190.727Z" fill="black"/>
<path d="M27.2578 190.719H40.884V177.094H40.8813H27.2578V177.095V190.719Z" fill="black"/>
<path d="M68.134 190.719V177.094H68.1313H54.5078V190.719H68.134Z" fill="black"/>
<path d="M0 81.7121H13.6262V68.0862V68.0859H0V81.7121Z" fill="black"/>
<path d="M13.6262 40.8359H0V54.4621H13.6262V40.8359Z" fill="black"/>
<path d="M13.625 122.587H27.2512V108.962V108.961V108.961H13.625V122.587Z" fill="black"/>
<path d="M0 108.97H13.6262V95.344V95.3438H0V108.97Z" fill="black"/>
<path d="M40.884 27.2043V13.5781H40.8834H27.2578V27.2043H40.884Z" fill="black"/>
<path d="M27.2512 27.2109H13.625V40.8371H27.2512V27.2109Z" fill="black"/>
<path d="M95.3918 27.2043V13.5781H95.3913H81.7656V27.2043H95.3918Z" fill="black"/>
<path d="M13.6262 190.719V177.094H0V177.095V181.183V190.72H13.6262V190.719Z" fill="black"/>
<path d="M68.134 27.2043V13.5781H68.1334H54.5078V27.2043H68.134Z" fill="black"/>
<path d="M13.6262 122.594H0V136.22H13.6262V122.594Z" fill="black"/>
<path d="M0 163.47H13.6262V149.844V149.844H0V163.47Z" fill="black"/>
<path d="M13.6262 13.5781H0V27.2043H13.6262V13.5781Z" fill="black"/>
<path d="M81.759 27.2109H68.1328V40.8371H81.759V27.2109Z" fill="black"/>
<path d="M54.5012 27.2109H40.875V40.8371H54.5012V27.2109Z" fill="black"/>
<path d="M109.009 27.2109H95.3828V40.8371H109.009V27.2115V27.2109Z" fill="black"/>
<path d="M13.625 68.079H27.2512V54.4537V54.4531H13.625V68.079Z" fill="black"/>
<path d="M13.625 95.3447H27.2512V81.7196V81.719V81.7188H13.625V95.3447Z" fill="black"/>
<path d="M95.3918 95.3438H81.7656V108.969V108.97H95.3918V108.969V95.3438Z" fill="black"/>
<path d="M81.759 108.961H68.1328V122.587V122.587H81.759V122.587V108.961Z" fill="black"/>
<path d="M109.009 108.961H95.3828V122.587V122.587H109.009V122.587V108.961Z" fill="black"/>
<path d="M54.5078 95.3438V108.969V108.969H68.134V95.3438H54.5078Z" fill="black"/>
<path d="M122.642 40.8359H109.016V54.4621H122.642V40.8359Z" fill="black"/>
<path d="M122.642 95.3449H109.016V95.3452H136.268V81.7196V81.719V81.7188H122.642V95.3449Z" fill="black"/>
<path d="M109.016 81.7121H122.642V68.0862V68.0859H109.016V81.7121Z" fill="black"/>
<path d="M122.641 68.079H136.267V54.4537V54.4531H122.641V68.079Z" fill="black"/>
<path d="M13.6262 190.727H0V204.352H13.6262V190.727Z" fill="black"/>
<path d="M13.625 190.719H27.2512V177.095V177.094H13.625V190.719Z" fill="black"/>
<path d="M13.6262 163.461H0V177.087H13.6262V163.461Z" fill="black"/>
<path d="M13.625 163.47H27.2512V149.844H13.625V149.844V163.47Z" fill="black"/>
<path d="M0 136.219V149.845H13.6262V149.845V136.219H0Z" fill="black"/>
<path d="M13.625 136.22H27.2512V136.22V122.594H13.625V136.22Z" fill="black"/>
<path d="M13.6262 108.961H0V122.587H13.6262V108.961Z" fill="black"/>
<path d="M13.625 108.97V108.97H27.2512V108.97V95.3438H13.625V95.344V108.97Z" fill="black"/>
<path d="M0 81.7188V95.3449H13.6262V95.3447V81.7188H0Z" fill="black"/>
<path d="M13.625 81.7121H27.2512V81.7116V68.0859H13.625V68.0862V81.7121Z" fill="black"/>
<path d="M0 54.4531V68.0793H13.6262V68.079V54.4531H0Z" fill="black"/>
<path d="M13.625 54.4621H27.2512V54.4616V40.8359H13.625V54.4621Z" fill="black"/>
<path d="M122.642 81.7188H109.016V95.3449H122.642V81.7188Z" fill="black"/>
<path d="M122.641 81.7121H136.267V81.7116V68.0859H122.641V68.0862V81.7121Z" fill="black"/>
<path d="M109.016 54.4531V68.0793H122.642V68.079V54.4531H109.016Z" fill="black"/>
<path d="M122.641 40.8359V54.4621H136.267V54.4616V40.8359H122.641Z" fill="black"/>
<path d="M122.642 163.461H109.016V177.087H122.642V163.461Z" fill="black"/>
<path d="M122.641 163.47H136.267V163.47V149.844H122.641V163.47Z" fill="black"/>
<path d="M122.642 136.219H109.016V149.845H122.642V136.219Z" fill="black"/>
<path d="M122.641 136.219H136.267V136.219V122.594H122.641V136.219Z" fill="black"/>
<path d="M13.6262 27.2109H0V40.8371H13.6262V27.2109Z" fill="black"/>
<path d="M27.2512 13.5781H13.625V27.2043H27.2512V13.5781Z" fill="black"/>
<path d="M40.884 27.2109H27.2578V40.8371H40.884V27.2109Z" fill="black"/>
<path d="M54.5012 27.2043V13.5781H40.8755H40.875V27.2043H54.5012Z" fill="black"/>
<path d="M68.134 27.2109H54.5078V40.8371H68.134V27.2109Z" fill="black"/>
<path d="M81.759 27.2043V13.5781H68.1334H68.1328V27.2043H81.759Z" fill="black"/>
<path d="M95.3918 27.2109H81.7656V40.8371H95.3918V27.2109Z" fill="black"/>
<path d="M109.009 27.2043V27.2038V13.5781H95.3834H95.3828V27.2043H109.009Z" fill="black"/>
<path d="M68.134 108.961V108.961H54.5078V108.961V108.962V122.587H68.134V108.961Z" fill="black"/>
<path d="M81.759 95.3438H68.1328V108.969V108.97H81.759V108.969V95.3438Z" fill="black"/>
<path d="M81.7656 122.587H95.3918V108.961V108.961H81.7656V108.961V122.587Z" fill="black"/>
<path d="M95.3828 95.3438V108.969V108.97H109.009V95.344V95.3438H95.3828Z" fill="black"/>
<path d="M40.884 190.727H27.2578V204.352H40.884V190.727Z" fill="black"/>
<path d="M54.5012 190.719V177.094H40.8777H40.875V190.719H54.5012Z" fill="black"/>
<path d="M68.134 190.727H54.5078V204.352H68.134V190.727Z" fill="black"/>
<path d="M81.759 190.719V177.094H68.1355H68.1328V190.719H81.759Z" fill="black"/>
<path d="M95.3918 190.727H81.7656V204.352H95.3918V190.727Z" fill="black"/>
<path d="M109.009 190.719V177.094V177.094H95.3855H95.3828V190.719H109.009Z" fill="black"/>
<path d="M415.156 149.844C422.681 149.844 428.782 155.944 428.782 163.47V136.219C428.782 143.744 422.681 149.844 415.156 149.844V149.844Z" fill="black"/>
<path d="M415.159 122.587C407.633 122.587 401.532 116.486 401.532 108.961C401.532 116.486 395.432 122.587 387.906 122.587C395.432 122.587 401.532 128.688 401.532 136.213C401.532 128.688 407.633 122.587 415.159 122.587Z" fill="black"/>
<path d="M360.657 68.0793C353.132 68.0793 347.031 61.9786 347.031 54.4531V81.7055C347.031 74.18 353.132 68.0793 360.657 68.0793Z" fill="black"/>
<path d="M387.901 95.3371C380.375 95.3371 374.275 89.2364 374.275 81.7109C374.275 89.2364 368.174 95.3371 360.648 95.3371C368.174 95.3371 374.275 101.438 374.275 108.963C374.275 101.438 380.375 95.3371 387.901 95.3371Z" fill="black"/>
<path d="M333.4 68.0793C325.874 68.0793 319.773 61.9786 319.773 54.4531V81.7055C319.773 74.18 325.874 68.0793 333.4 68.0793Z" fill="black"/>
<path d="M333.398 40.8293C340.924 40.8293 347.025 46.93 347.025 54.4555V27.2031C347.025 34.7286 340.924 40.8293 333.398 40.8293Z" fill="black"/>
<path d="M333.4 40.8293C325.874 40.8293 319.773 34.7286 319.773 27.2031V54.4555C319.773 46.93 325.874 40.8293 333.4 40.8293Z" fill="black"/>
<path d="M333.4 95.3371C325.874 95.3371 319.773 89.2364 319.773 81.7109V108.963C319.773 101.438 325.874 95.3371 333.4 95.3371Z" fill="black"/>
<path d="M333.398 95.3371C340.924 95.3371 347.025 101.438 347.025 108.963V81.7109C347.025 89.2364 340.924 95.3371 333.398 95.3371Z" fill="black"/>
<path d="M333.398 68.0793C340.924 68.0793 347.025 74.18 347.025 81.7055V54.4531C347.025 61.9786 340.924 68.0793 333.398 68.0793Z" fill="black"/>
<path d="M442.414 122.587C449.94 122.587 456.04 128.688 456.04 136.213V108.961C456.04 116.486 449.94 122.587 442.414 122.587Z" fill="black"/>
<path d="M442.415 122.587C434.89 122.587 428.789 116.486 428.789 108.961V136.213V136.213C428.789 128.688 434.89 122.587 442.415 122.587Z" fill="black"/>
<path d="M442.414 149.845C449.94 149.845 456.04 155.946 456.04 163.471V136.219C456.04 143.744 449.94 149.845 442.414 149.845Z" fill="black"/>
<path d="M442.414 177.087C449.94 177.087 456.04 183.188 456.04 190.713V163.461C456.04 170.986 449.94 177.087 442.414 177.087Z" fill="black"/>
<path d="M442.415 177.088C434.89 177.088 428.789 170.987 428.789 163.461V163.461V190.714C428.789 183.188 434.89 177.088 442.415 177.088Z" fill="black"/>
<path d="M442.415 149.845C434.89 149.845 428.789 143.744 428.789 136.219V136.219V163.47V163.471C428.789 155.945 434.89 149.845 442.415 149.845V149.845Z" fill="black"/>
<path d="M333.4 177.087C325.874 177.087 319.773 170.986 319.773 163.461V190.713C319.773 183.188 325.874 177.087 333.4 177.087Z" fill="black"/>
<path d="M333.398 149.845C340.924 149.845 347.025 155.946 347.025 163.471V136.219C347.025 143.744 340.924 149.845 333.398 149.845Z" fill="black"/>
<path d="M333.4 149.845C325.874 149.845 319.773 143.744 319.773 136.219V163.471C319.773 155.946 325.874 149.845 333.4 149.845Z" fill="black"/>
<path d="M333.398 177.087C340.924 177.087 347.025 183.188 347.025 190.713V163.461C347.025 170.986 340.924 177.087 333.398 177.087Z" fill="black"/>
<path d="M442.414 40.8293C449.94 40.8293 456.04 46.93 456.04 54.4555V27.2031C456.04 34.7286 449.94 40.8293 442.414 40.8293Z" fill="black"/>
<path d="M442.414 40.8293C434.889 40.8293 428.788 46.93 428.788 54.4555V27.2031C428.788 34.7286 434.889 40.8293 442.414 40.8293Z" fill="black"/>
<path d="M442.414 68.0793C449.94 68.0793 456.04 74.18 456.04 81.7055V54.4531C456.04 61.9786 449.94 68.0793 442.414 68.0793Z" fill="black"/>
<path d="M442.414 68.0793C434.889 68.0793 428.788 74.18 428.788 81.7055V54.4531C428.788 61.9786 434.889 68.0793 442.414 68.0793Z" fill="black"/>
<path d="M333.4 149.845V136.219H319.773C319.773 143.744 325.874 149.845 333.4 149.845Z" fill="black"/>
<path d="M333.4 149.836C325.874 149.836 319.773 155.937 319.773 163.462H333.4V149.836Z" fill="black"/>
<path d="M333.398 149.836V163.462H347.025C347.025 155.937 340.924 149.836 333.398 149.836Z" fill="black"/>
<path d="M333.398 149.845C340.924 149.845 347.025 143.744 347.025 136.219H333.398V149.845Z" fill="black"/>
<path d="M319.773 108.961C319.773 116.486 325.874 122.587 333.4 122.587V108.961H319.773Z" fill="black"/>
<path d="M319.773 136.22H333.4V122.594C325.874 122.594 319.773 128.694 319.773 136.22Z" fill="black"/>
<path d="M347.025 136.22C347.025 128.694 340.924 122.594 333.398 122.594V136.22H347.025Z" fill="black"/>
<path d="M333.398 122.587C340.924 122.587 347.025 116.486 347.025 108.961H333.398V122.587Z" fill="black"/>
<path d="M374.281 108.961C374.281 116.486 380.382 122.587 387.907 122.587V108.961H374.281Z" fill="black"/>
<path d="M333.4 177.087V163.461H319.773C319.773 170.986 325.874 177.087 333.4 177.087Z" fill="black"/>
<path d="M333.4 177.094C325.874 177.094 319.773 183.194 319.773 190.72H333.4V177.094Z" fill="black"/>
<path d="M333.398 177.094V190.72H347.025C347.025 183.194 340.924 177.094 333.398 177.094Z" fill="black"/>
<path d="M333.398 177.087C340.924 177.087 347.025 170.986 347.025 163.461H333.398V177.087Z" fill="black"/>
<path d="M319.773 190.727C319.773 198.252 325.874 204.353 333.4 204.353V190.727H319.773Z" fill="black"/>
<path d="M333.398 204.353C340.924 204.353 347.025 198.252 347.025 190.727H333.398V204.353Z" fill="black"/>
<path d="M401.539 136.219C401.539 143.744 407.64 149.845 415.165 149.845V136.219H401.539Z" fill="black"/>
<path d="M442.415 149.845V136.219H428.789C428.789 143.744 434.89 149.845 442.415 149.845Z" fill="black"/>
<path d="M428.789 163.462H442.415V149.836C434.89 149.836 428.789 155.937 428.789 163.462Z" fill="black"/>
<path d="M428.782 136.219V136.219H415.156V149.845C422.681 149.845 428.782 143.745 428.782 136.219Z" fill="black"/>
<path d="M442.414 149.836V163.462H456.04C456.04 155.937 449.94 149.836 442.414 149.836Z" fill="black"/>
<path d="M442.414 149.845C449.94 149.845 456.04 143.744 456.04 136.219H442.414V149.845Z" fill="black"/>
<path d="M415.165 122.594C407.64 122.594 401.539 128.694 401.539 136.22H415.165V122.594Z" fill="black"/>
<path d="M401.532 108.961H387.906V122.587C395.432 122.587 401.532 116.486 401.532 108.961Z" fill="black"/>
<path d="M442.415 122.587V108.961H428.789C428.789 116.486 434.89 122.587 442.415 122.587Z" fill="black"/>
<path d="M428.789 136.22H442.415V122.594C434.89 122.594 428.789 128.694 428.789 136.22Z" fill="black"/>
<path d="M428.782 136.22V136.219C428.782 128.694 422.681 122.594 415.156 122.594V136.22H428.782Z" fill="black"/>
<path d="M442.414 122.594V136.22H456.04C456.04 128.694 449.94 122.594 442.414 122.594Z" fill="black"/>
<path d="M442.414 122.587C449.94 122.587 456.04 116.486 456.04 108.961H442.414V122.587Z" fill="black"/>
<path d="M442.415 177.087V163.461H428.789C428.789 170.986 434.89 177.087 442.415 177.087Z" fill="black"/>
<path d="M442.415 177.094C434.89 177.094 428.789 183.194 428.789 190.72H442.415V177.094Z" fill="black"/>
<path d="M442.414 177.094V190.72H456.04C456.04 183.194 449.94 177.094 442.414 177.094Z" fill="black"/>
<path d="M442.414 177.087C449.94 177.087 456.04 170.986 456.04 163.461H442.414V177.087Z" fill="black"/>
<path d="M428.789 190.727C428.789 198.252 434.89 204.353 442.415 204.353V190.727H428.789Z" fill="black"/>
<path d="M442.414 204.353C449.94 204.353 456.04 198.252 456.04 190.727H442.414V204.353Z" fill="black"/>
<path d="M333.4 40.8293V27.2031H319.773C319.773 34.7286 325.874 40.8293 333.4 40.8293Z" fill="black"/>
<path d="M333.4 40.8359C325.874 40.8359 319.773 46.9367 319.773 54.4621H333.4V40.8359Z" fill="black"/>
<path d="M333.398 40.8359V54.4621H347.025C347.025 46.9367 340.924 40.8359 333.398 40.8359Z" fill="black"/>
<path d="M333.398 40.8293C340.924 40.8293 347.025 34.7286 347.025 27.2031H333.398V40.8293Z" fill="black"/>
<path d="M333.4 13.5781C325.874 13.5781 319.773 19.6788 319.773 27.2043H333.4V13.5781Z" fill="black"/>
<path d="M347.025 27.2043C347.025 19.6788 340.924 13.5781 333.398 13.5781V27.2043H347.025Z" fill="black"/>
<path d="M333.4 68.0793V54.4531H319.773C319.773 61.9786 325.874 68.0793 333.4 68.0793Z" fill="black"/>
<path d="M333.4 68.0859C325.874 68.0859 319.773 74.1867 319.773 81.7121H333.4V68.0859Z" fill="black"/>
<path d="M360.657 68.0859C353.132 68.0859 347.031 74.1867 347.031 81.7121H360.657V68.0859Z" fill="black"/>
<path d="M333.398 68.0859V81.7121H347.025C347.025 74.1867 340.924 68.0859 333.398 68.0859Z" fill="black"/>
<path d="M333.398 68.0793C340.924 68.0793 347.025 61.9786 347.025 54.4531H333.398V68.0793Z" fill="black"/>
<path d="M374.275 81.7121C374.275 74.1867 368.174 68.0859 360.648 68.0859V81.7121H374.275Z" fill="black"/>
<path d="M333.4 95.3371V81.7109H319.773C319.773 89.2364 325.874 95.3371 333.4 95.3371Z" fill="black"/>
<path d="M333.4 95.3438C325.874 95.3438 319.773 101.444 319.773 108.97H333.4V95.3438Z" fill="black"/>
<path d="M347.031 81.7109C347.031 89.2364 353.132 95.3371 360.657 95.3371V81.7109H347.031Z" fill="black"/>
<path d="M333.398 95.3438V108.97H347.025C347.025 101.444 340.924 95.3438 333.398 95.3438Z" fill="black"/>
<path d="M333.398 95.3371C340.924 95.3371 347.025 89.2364 347.025 81.7109H333.398V95.3371Z" fill="black"/>
<path d="M387.907 95.3438C380.382 95.3438 374.281 101.444 374.281 108.97H387.907V95.3438Z" fill="black"/>
<path d="M374.275 81.7109H360.648V95.3371C368.174 95.3371 374.275 89.2364 374.275 81.7109Z" fill="black"/>
<path d="M442.415 40.8293V27.2031H428.789C428.789 34.7286 434.89 40.8293 442.415 40.8293Z" fill="black"/>
<path d="M428.789 54.4621H442.415V40.8359C434.89 40.8359 428.789 46.9367 428.789 54.4621Z" fill="black"/>
<path d="M442.414 40.8359V54.4621H456.04C456.04 46.9367 449.94 40.8359 442.414 40.8359Z" fill="black"/>
<path d="M442.414 40.8293C449.94 40.8293 456.04 34.7286 456.04 27.2031H442.414V40.8293Z" fill="black"/>
<path d="M442.414 13.5781C434.9 13.5781 428.807 19.6609 428.789 27.1711H442.414V13.5781Z" fill="black"/>
<path d="M442.415 27.2048V27.1719H428.79C428.79 27.183 428.789 27.1939 428.789 27.2048H442.415Z" fill="black"/>
<path d="M456.039 27.1711C456.021 19.6609 449.929 13.5781 442.414 13.5781V27.1711H456.039Z" fill="black"/>
<path d="M442.414 27.1719V27.2049H456.04C456.04 27.1937 456.039 27.1828 456.039 27.1719H442.414Z" fill="black"/>
<path d="M442.415 68.0793V54.4531H428.789C428.789 61.9786 434.89 68.0793 442.415 68.0793Z" fill="black"/>
<path d="M442.415 68.0859C434.89 68.0859 428.789 74.1867 428.789 81.7121H442.415V68.0859Z" fill="black"/>
<path d="M442.414 68.0859V81.7121H456.04C456.04 74.1867 449.94 68.0859 442.414 68.0859Z" fill="black"/>
<path d="M442.414 68.0793C449.94 68.0793 456.04 61.9786 456.04 54.4531H442.414V68.0793Z" fill="black"/>
<path d="M401.532 108.97C401.532 101.444 395.432 95.3438 387.906 95.3438V108.97H401.532Z" fill="black"/>
<path d="M428.789 81.7109C428.789 89.2364 434.89 95.3371 442.415 95.3371V81.7109H428.789Z" fill="black"/>
<path d="M428.789 108.97H442.415V95.3438C434.89 95.3438 428.789 101.444 428.789 108.97Z" fill="black"/>
<path d="M456.04 108.97C456.04 101.444 449.94 95.3438 442.414 95.3438V108.97H456.04Z" fill="black"/>
<path d="M442.414 95.3371C449.94 95.3371 456.04 89.2364 456.04 81.7109H442.414V95.3371Z" fill="black"/>
<path d="M534.173 13.5781H520.547V27.2043H534.173V13.5781Z" fill="black"/>
<path d="M561.431 13.5781H547.805V27.2043H561.431V13.5781Z" fill="black"/>
<path d="M588.68 54.4537V68.0793V68.0799H602.306V54.4556V54.4537V54.4531H588.68V54.4537Z" fill="black"/>
<path d="M588.681 40.8365V40.8359H575.055V54.4616H588.681V40.8365Z" fill="black"/>
<path d="M506.923 13.5781H493.297V27.2043H506.923V13.5781Z" fill="black"/>
<path d="M520.54 27.2109H506.914V40.8371H520.54V27.2109Z" fill="black"/>
<path d="M575.048 27.2109H561.422V40.8371H575.048V27.2109Z" fill="black"/>
<path d="M547.798 27.2109H534.172V40.8371H547.798V27.2109Z" fill="black"/>
<path d="M479.665 68.0859H466.039V81.7116H479.665V68.0859Z" fill="black"/>
<path d="M479.665 95.3438H466.039V108.97H479.665V95.3438Z" fill="black"/>
<path d="M493.298 108.961H479.672V122.587H493.298V108.961Z" fill="black"/>
<path d="M493.298 163.461H479.672V177.087H493.298V163.461Z" fill="black"/>
<path d="M479.672 95.3444V95.3447H493.298V81.7188H479.672V95.3444Z" fill="black"/>
<path d="M479.665 40.8359H466.039V54.4616H479.665V40.8359Z" fill="black"/>
<path d="M479.672 149.845V149.845H493.298V136.219H479.672V149.845Z" fill="black"/>
<path d="M479.665 122.594H466.039V136.22H479.665V122.594Z" fill="black"/>
<path d="M479.672 54.4537V68.0793H493.298V54.4531H479.672V54.4537Z" fill="black"/>
<path d="M479.665 149.844H466.039V163.47H479.665V149.844Z" fill="black"/>
<path d="M588.681 149.844H575.055V163.47H588.681V149.844Z" fill="black"/>
<path d="M588.681 122.594H575.055V136.22H588.681V122.594Z" fill="black"/>
<path d="M602.306 163.461H588.68V177.087H602.306V163.461Z" fill="black"/>
<path d="M602.306 136.219H588.68V149.845H602.306V136.219Z" fill="black"/>
<path d="M561.431 108.97V95.344V95.3438H547.805V108.97H561.431Z" fill="black"/>
<path d="M575.048 108.961H561.422V108.961V122.587V122.587H575.048V108.961V108.961Z" fill="black"/>
<path d="M547.798 108.961V108.961H534.172V108.961V122.587V122.587H547.798V122.587V108.961Z" fill="black"/>
<path d="M534.173 95.3438H520.547V108.97H534.173V95.3438Z" fill="black"/>
<path d="M506.923 177.094H493.297V190.72H506.923V177.094Z" fill="black"/>
<path d="M547.798 190.727H534.172V204.353H547.798V190.727Z" fill="black"/>
<path d="M575.048 190.727H561.422V204.353H575.048V190.727Z" fill="black"/>
<path d="M520.54 190.727H506.914V204.353H520.54V190.727Z" fill="black"/>
<path d="M534.173 177.094H520.547V190.72H534.173V177.094Z" fill="black"/>
<path d="M561.431 177.094H547.805V190.72H561.431V177.094Z" fill="black"/>
<path d="M479.665 163.461H466.039V177.087H479.665V163.461Z" fill="black"/>
<path d="M493.298 149.844H479.672V163.47H493.298V149.844Z" fill="black"/>
<path d="M479.665 136.219H466.039V149.845H479.665V136.219Z" fill="black"/>
<path d="M493.298 122.594H479.672V136.22H493.298V122.594Z" fill="black"/>
<path d="M479.665 108.961H466.039V122.587H479.665V108.961Z" fill="black"/>
<path d="M493.298 95.3438H479.672V108.97H493.298V95.3438Z" fill="black"/>
<path d="M479.665 81.7188H466.039V95.3444H479.665V81.7188Z" fill="black"/>
<path d="M493.298 68.0859H479.672V81.7116H493.298V68.0859Z" fill="black"/>
<path d="M479.665 54.4531H466.039V68.0788H479.665V54.4531Z" fill="black"/>
<path d="M493.298 40.8359H479.672V54.4616H493.298V40.8359Z" fill="black"/>
<path d="M493.297 27.2109V40.8366V40.8371H506.923V27.2109H493.297Z" fill="black"/>
<path d="M520.54 13.5781H506.914V27.2043H520.54V13.5781Z" fill="black"/>
<path d="M534.173 27.2109H520.547V40.8371H534.173V27.2109Z" fill="black"/>
<path d="M547.798 13.5781H534.172V27.2043H547.798V13.5781Z" fill="black"/>
<path d="M534.173 108.961H520.547V122.587H534.173V108.961Z" fill="black"/>
<path d="M547.798 95.3438H534.172V108.97H547.798V95.3438Z" fill="black"/>
<path d="M561.431 108.961H547.805V122.587H561.431V108.961Z" fill="black"/>
<path d="M575.048 95.3438H561.422V108.969H575.048V95.3438Z" fill="black"/>
<path d="M561.431 27.2109H547.805V40.8371H561.431V27.2109Z" fill="black"/>
<path d="M575.048 13.5781H561.422V27.2043H575.048V13.5781Z" fill="black"/>
<path d="M506.923 190.727H493.297V204.353H506.923V190.727Z" fill="black"/>
<path d="M520.54 177.094H506.914V190.72H520.54V177.094Z" fill="black"/>
<path d="M534.173 190.727H520.547V204.353H534.173V190.727Z" fill="black"/>
<path d="M547.798 177.094H534.172V190.72H547.798V177.094Z" fill="black"/>
<path d="M561.431 190.727H547.805V204.353H561.431V190.727Z" fill="black"/>
<path d="M575.048 177.094H561.422V190.72H575.048V177.094Z" fill="black"/>
<path d="M588.681 54.4531H575.055V68.0788H588.681V54.4531Z" fill="black"/>
<path d="M588.68 54.461H602.306V54.4602V54.4597V40.8359H588.68V54.461Z" fill="black"/>
<path d="M588.681 136.219H575.055V149.845H588.681V136.219Z" fill="black"/>
<path d="M602.306 122.594H588.68V136.22H602.306V122.594Z" fill="black"/>
<path d="M588.681 163.461H575.055V177.087H588.681V163.461Z" fill="black"/>
<path d="M602.306 149.844H588.68V163.47H602.306V149.844Z" fill="black"/>
<path d="M639.559 147.272C632.505 147.272 626.787 141.554 626.787 134.5C626.787 141.554 621.069 147.272 614.016 147.272C621.069 147.272 626.787 152.99 626.787 160.043C626.787 152.99 632.505 147.272 639.559 147.272Z" fill="black"/>
<path d="M639.559 121.733C632.505 121.733 626.787 116.014 626.787 108.961C626.787 116.014 621.069 121.733 614.016 121.733C621.069 121.733 626.787 127.451 626.787 134.504C626.787 127.451 632.505 121.733 639.559 121.733Z" fill="black"/>
<path d="M639.559 198.365C632.505 198.365 626.787 192.647 626.787 185.594C626.787 192.647 621.069 198.365 614.016 198.365C621.069 198.365 626.787 204.084 626.787 211.137C626.787 204.084 632.505 198.365 639.559 198.365Z" fill="black"/>
<path d="M665.106 147.272C658.052 147.272 652.334 141.554 652.334 134.5C652.334 141.554 646.616 147.272 639.562 147.272C646.616 147.272 652.334 152.99 652.334 160.043C652.334 152.99 658.052 147.272 665.106 147.272Z" fill="black"/>
<path d="M665.106 121.733C658.052 121.733 652.334 116.014 652.334 108.961C652.334 116.014 646.616 121.733 639.562 121.733C646.616 121.733 652.334 127.451 652.334 134.504C652.334 127.451 658.052 121.733 665.106 121.733Z" fill="black"/>
<path d="M665.106 198.365C658.052 198.365 652.334 192.647 652.334 185.594C652.334 192.647 646.616 198.365 639.562 198.365C646.616 198.365 652.334 204.084 652.334 211.137C652.334 204.084 658.052 198.365 665.106 198.365Z" fill="black"/>
<path d="M639.559 45.1076C632.505 45.1076 626.787 39.3895 626.787 32.3359C626.787 39.3895 621.069 45.1076 614.016 45.1076C621.069 45.1076 626.787 50.8258 626.787 57.8793C626.787 50.8258 632.505 45.1076 639.559 45.1076Z" fill="black"/>
<path d="M639.559 19.5607C632.505 19.5607 626.787 13.8426 626.787 6.78906C626.787 13.8426 621.069 19.5607 614.016 19.5607C621.069 19.5607 626.787 25.2789 626.787 32.3324C626.787 25.2789 632.505 19.5607 639.559 19.5607Z" fill="black"/>
<path d="M639.559 70.6467C632.505 70.6467 626.787 64.9285 626.787 57.875C626.787 64.9285 621.069 70.6467 614.016 70.6467C621.069 70.6467 626.787 76.3648 626.787 83.4184C626.787 76.3648 632.505 70.6467 639.559 70.6467Z" fill="black"/>
<path d="M639.559 96.2014C632.505 96.2014 626.787 90.4832 626.787 83.4297C626.787 90.4832 621.069 96.2014 614.016 96.2014C621.069 96.2014 626.787 101.92 626.787 108.973C626.787 101.92 632.505 96.2014 639.559 96.2014Z" fill="black"/>
<path d="M665.106 45.1076C658.052 45.1076 652.334 39.3895 652.334 32.3359C652.334 39.3895 646.616 45.1076 639.562 45.1076C646.616 45.1076 652.334 50.8258 652.334 57.8793C652.334 50.8258 658.052 45.1076 665.106 45.1076Z" fill="black"/>
<path d="M665.106 19.5607C658.052 19.5607 652.334 13.8426 652.334 6.78906C652.334 13.8426 646.616 19.5607 639.562 19.5607C646.616 19.5607 652.334 25.2789 652.334 32.3324C652.334 25.2789 658.052 19.5607 665.106 19.5607Z" fill="black"/>
<path d="M665.106 70.6467C658.052 70.6467 652.334 64.9285 652.334 57.875C652.334 64.9285 646.616 70.6467 639.562 70.6467C646.616 70.6467 652.334 76.3648 652.334 83.4184C652.334 76.3648 658.052 70.6467 665.106 70.6467Z" fill="black"/>
<path d="M665.106 96.2014C658.052 96.2014 652.334 90.4832 652.334 83.4297C652.334 90.4832 646.616 96.2014 639.562 96.2014C646.616 96.2014 652.334 101.92 652.334 108.973C652.334 101.92 658.052 96.2014 665.106 96.2014Z" fill="black"/>
<path d="M690.438 122.587C697.963 122.587 704.064 128.688 704.064 136.213V108.961C704.064 116.486 697.963 122.587 690.438 122.587Z" fill="black"/>
<path d="M690.439 122.587C682.913 122.587 676.812 116.486 676.812 108.961V136.213C676.812 128.688 682.913 122.587 690.439 122.587Z" fill="black"/>
<path d="M690.439 68.0793C682.913 68.0793 676.812 61.9786 676.812 54.4531V81.7055C676.812 74.18 682.913 68.0793 690.439 68.0793Z" fill="black"/>
<path d="M690.439 40.8293C682.913 40.8293 676.812 34.7286 676.812 27.2031V54.4555C676.812 46.93 682.913 40.8293 690.439 40.8293Z" fill="black"/>
<path d="M690.438 40.8293C697.963 40.8293 704.064 46.93 704.064 54.4555V27.2031C704.064 34.7286 697.963 40.8293 690.438 40.8293Z" fill="black"/>
<path d="M690.438 68.0793C697.963 68.0793 704.064 74.18 704.064 81.7055V54.4531C704.064 61.9786 697.963 68.0793 690.438 68.0793Z" fill="black"/>
<path d="M676.812 136.219C676.812 143.744 682.913 149.845 690.439 149.845V136.219H676.812Z" fill="black"/>
<path d="M690.439 122.587V108.961H676.812C676.812 116.486 682.913 122.587 690.439 122.587Z" fill="black"/>
<path d="M690.439 122.594C682.913 122.594 676.812 128.694 676.812 136.22H690.439V122.594Z" fill="black"/>
<path d="M690.439 177.094C682.913 177.094 676.812 183.194 676.812 190.72H690.439V177.094Z" fill="black"/>
<path d="M676.812 190.727C676.812 198.252 682.913 204.353 690.439 204.353V190.727H676.812Z" fill="black"/>
<path d="M690.438 149.845C697.963 149.845 704.064 143.744 704.064 136.219H690.438V149.845Z" fill="black"/>
<path d="M690.438 122.594V136.22H704.064C704.064 128.694 697.963 122.594 690.438 122.594Z" fill="black"/>
<path d="M690.438 122.587C697.963 122.587 704.064 116.486 704.064 108.961H690.438V122.587Z" fill="black"/>
<path d="M690.438 177.094V190.72H704.064C704.064 183.194 697.963 177.094 690.438 177.094Z" fill="black"/>
<path d="M690.438 204.353C697.963 204.353 704.064 198.252 704.064 190.727H690.438V204.353Z" fill="black"/>
<path d="M690.439 40.8293V27.2031H676.812C676.812 34.7286 682.913 40.8293 690.439 40.8293Z" fill="black"/>
<path d="M690.439 40.8359C682.913 40.8359 676.812 46.9367 676.812 54.4621H690.439V40.8359Z" fill="black"/>
<path d="M690.439 13.5781C682.913 13.5781 676.812 19.6788 676.812 27.2043H690.439V13.5781Z" fill="black"/>
<path d="M690.439 68.0793V54.4531H676.812C676.812 61.9786 682.913 68.0793 690.439 68.0793Z" fill="black"/>
<path d="M690.439 68.0859C682.913 68.0859 676.812 74.1867 676.812 81.7121H690.439V68.0859Z" fill="black"/>
<path d="M676.812 81.7109C676.812 89.2364 682.913 95.3371 690.439 95.3371V81.7109H676.812Z" fill="black"/>
<path d="M676.812 108.97H690.439V95.3438C682.913 95.3438 676.812 101.444 676.812 108.97Z" fill="black"/>
<path d="M690.438 40.8359V54.4621H704.064C704.064 46.9367 697.963 40.8359 690.438 40.8359Z" fill="black"/>
<path d="M690.438 40.8293C697.963 40.8293 704.064 34.7286 704.064 27.2031H690.438V40.8293Z" fill="black"/>
<path d="M704.064 27.2043C704.064 19.6788 697.963 13.5781 690.438 13.5781V27.2043H704.064Z" fill="black"/>
<path d="M690.438 68.0859V81.7121H704.064C704.064 74.1867 697.963 68.0859 690.438 68.0859Z" fill="black"/>
<path d="M690.438 68.0793C697.963 68.0793 704.064 61.9786 704.064 54.4531H690.438V68.0793Z" fill="black"/>
<path d="M704.064 108.97C704.064 101.444 697.963 95.3438 690.438 95.3438V108.97H704.064Z" fill="black"/>
<path d="M690.438 95.3371C697.963 95.3371 704.064 89.2364 704.064 81.7109H690.438V95.3371Z" fill="black"/>
</svg>
