<svg width="1920" height="1080" viewBox="0 0 1920 1080" fill="none" xmlns="http://www.w3.org/2000/svg">
<g clip-path="url(#clip0_4956_49657)">
<rect y="-10.4497" width="1920" height="1080" fill="white"/>
<path opacity="0.1" d="M1082.35 360.042L1290.57 360.042L1290.57 151.82C1175.57 151.82 1082.35 245.045 1082.35 360.042Z" fill="#464646"/>
<path opacity="0.1" d="M1290.57 151.825C1290.57 36.8277 1197.34 -56.3975 1082.35 -56.3975V151.825L1290.57 151.825Z" fill="#464646"/>
<path opacity="0.1" d="M1498.8 360.042V151.82L1290.58 151.82C1290.58 266.817 1383.8 360.042 1498.8 360.042Z" fill="#464646"/>
<path opacity="0.1" d="M1498.8 -56.3975L1290.58 -56.3975V151.825C1405.57 151.825 1498.8 58.5995 1498.8 -56.3975Z" fill="#464646"/>
<path opacity="0.1" d="M1752.64 311.642L1865.64 424.65L1978.65 311.642L1865.64 198.634L1752.64 311.642Z" fill="#464646"/>
<path opacity="0.1" d="M1592.82 151.822L1705.83 264.831L1818.84 151.822L1705.83 38.8141L1592.82 151.822Z" fill="#464646"/>
<path opacity="0.1" d="M1912.45 151.822L2025.46 264.831L2138.47 151.822L2025.46 38.8141L1912.45 151.822Z" fill="#464646"/>
<path opacity="0.1" d="M1752.64 -7.99183L1865.64 105.016L1978.65 -7.99183L1865.64 -121L1752.64 -7.99183Z" fill="#464646"/>
<g opacity="0.1">
<path d="M457.555 302.494C533.677 302.494 595.387 364.204 595.387 440.326C595.387 364.204 657.097 302.494 733.219 302.494C657.097 302.494 595.387 240.783 595.387 164.662C595.387 240.783 533.677 302.494 457.555 302.494Z" fill="#464646"/>
<path d="M457.555 26.8321C533.677 26.8321 595.387 88.5422 595.387 164.664C595.387 88.5422 657.097 26.8321 733.219 26.8321C657.097 26.8321 595.387 -34.8781 595.387 -111C595.387 -34.8781 533.677 26.8321 457.555 26.8321Z" fill="#464646"/>
<path d="M733.216 302.494C809.338 302.494 871.048 364.204 871.048 440.326C871.048 364.204 932.758 302.494 1008.88 302.494C932.758 302.494 871.048 240.783 871.048 164.662C871.048 240.783 809.338 302.494 733.216 302.494Z" fill="#464646"/>
<path d="M733.216 26.8321C809.338 26.8321 871.048 88.5422 871.048 164.664C871.048 88.5422 932.758 26.8321 1008.88 26.8321C932.758 26.8321 871.048 -34.8781 871.048 -111C871.048 -34.8781 809.338 26.8321 733.216 26.8321Z" fill="#464646"/>
<path d="M595.383 164.661C671.505 164.661 733.215 226.371 733.215 302.493C733.215 226.371 794.925 164.661 871.047 164.661C794.925 164.661 733.215 102.951 733.215 26.8287C733.215 102.951 671.505 164.661 595.383 164.661Z" fill="#464646"/>
</g>
</g>
<defs>
<clipPath id="clip0_4956_49657">
<rect width="1920" height="1080" fill="white"/>
</clipPath>
</defs>
</svg>
