<svg width="536" height="110" viewBox="0 0 536 110" fill="none" xmlns="http://www.w3.org/2000/svg">
<path d="M26.344 25.2C22.76 25.2 19.944 28.144 19.944 31.6C19.944 35.184 22.76 38 26.344 38C22.76 38 19.944 40.944 19.944 44.4C19.944 47.984 22.76 50.8 26.344 50.8C29.8 50.8 32.744 47.984 32.744 44.4C32.744 47.984 35.56 50.8 39.144 50.8C42.6 50.8 45.544 47.984 45.544 44.4C45.544 47.984 48.36 50.8 51.944 50.8C55.4 50.8 58.344 47.984 58.344 44.4C58.344 47.984 61.16 50.8 64.744 50.8C68.2 50.8 71.144 47.984 71.144 44.4C71.144 47.984 73.96 50.8 77.544 50.8C73.96 50.8 71.144 53.744 71.144 57.2C71.144 60.784 73.96 63.6 77.544 63.6C73.96 63.6 71.144 66.544 71.144 70C71.144 66.544 68.2 63.6 64.744 63.6C61.16 63.6 58.344 66.544 58.344 70C58.344 66.544 55.4 63.6 51.944 63.6C48.36 63.6 45.544 66.544 45.544 70C45.544 66.544 42.6 63.6 39.144 63.6C35.56 63.6 32.744 66.544 32.744 70C32.744 66.544 29.8 63.6 26.344 63.6C22.76 63.6 19.944 66.544 19.944 70C19.944 73.584 22.76 76.4 26.344 76.4C22.76 76.4 19.944 79.344 19.944 82.8C19.944 86.384 22.76 89.2 26.344 89.2C29.8 89.2 32.744 86.384 32.744 82.8C32.744 86.384 35.56 89.2 39.144 89.2C42.6 89.2 45.544 86.384 45.544 82.8C45.544 86.384 48.36 89.2 51.944 89.2C55.4 89.2 58.344 86.384 58.344 82.8C58.344 86.384 61.16 89.2 64.744 89.2C68.2 89.2 71.144 86.384 71.144 82.8C71.144 86.384 73.96 89.2 77.544 89.2C73.96 89.2 71.144 92.144 71.144 95.6C71.144 99.184 73.96 102 77.544 102C73.96 102 71.144 104.944 71.144 108.4C71.144 104.944 68.2 102 64.744 102C61.16 102 58.344 104.944 58.344 108.4C58.344 104.944 55.4 102 51.944 102C48.36 102 45.544 104.944 45.544 108.4C45.544 104.944 42.6 102 39.144 102C35.56 102 32.744 104.944 32.744 108.4C32.744 104.944 29.8 102 26.344 102C22.76 102 19.944 104.944 19.944 108.4C19.944 104.944 17 102 13.544 102C17 102 19.944 99.184 19.944 95.6C19.944 92.144 17 89.2 13.544 89.2C9.96 89.2 7.144 92.144 7.144 95.6C7.144 92.144 4.2 89.2 0.744 89.2C4.2 89.2 7.144 86.384 7.144 82.8C7.144 79.344 4.2 76.4 0.744 76.4C4.2 76.4 7.144 73.584 7.144 70C7.144 66.544 4.2 63.6 0.744 63.6C4.2 63.6 7.144 60.784 7.144 57.2C7.144 53.744 4.2 50.8 0.744 50.8C4.2 50.8 7.144 47.984 7.144 44.4C7.144 40.944 4.2 38 0.744 38C4.2 38 7.144 35.184 7.144 31.6C7.144 28.144 4.2 25.2 0.744 25.2C4.2 25.2 7.144 22.384 7.144 18.8C7.144 22.384 9.96 25.2 13.544 25.2C17 25.2 19.944 22.384 19.944 18.8C19.944 15.344 17 12.4 13.544 12.4C17 12.4 19.944 9.58399 19.944 5.99999C19.944 9.58399 22.76 12.4 26.344 12.4C29.8 12.4 32.744 9.58399 32.744 5.99999C32.744 9.58399 35.56 12.4 39.144 12.4C42.6 12.4 45.544 9.58399 45.544 5.99999C45.544 9.58399 48.36 12.4 51.944 12.4C55.4 12.4 58.344 9.58399 58.344 5.99999C58.344 9.58399 61.16 12.4 64.744 12.4C68.2 12.4 71.144 9.58399 71.144 5.99999C71.144 9.58399 73.96 12.4 77.544 12.4C73.96 12.4 71.144 15.344 71.144 18.8C71.144 22.384 73.96 25.2 77.544 25.2C73.96 25.2 71.144 28.144 71.144 31.6C71.144 28.144 68.2 25.2 64.744 25.2C61.16 25.2 58.344 28.144 58.344 31.6C58.344 28.144 55.4 25.2 51.944 25.2C48.36 25.2 45.544 28.144 45.544 31.6C45.544 28.144 42.6 25.2 39.144 25.2C35.56 25.2 32.744 28.144 32.744 31.6C32.744 28.144 29.8 25.2 26.344 25.2ZM153.919 25.2C150.335 25.2 147.519 28.144 147.519 31.6C147.519 35.184 150.335 38 153.919 38C150.335 38 147.519 40.944 147.519 44.4C147.519 40.944 144.575 38 141.119 38C137.535 38 134.719 40.944 134.719 44.4C134.719 47.984 137.535 50.8 141.119 50.8C137.535 50.8 134.719 53.744 134.719 57.2C134.719 53.744 131.775 50.8 128.319 50.8C124.735 50.8 121.919 53.744 121.919 57.2C121.919 60.784 124.735 63.6 128.319 63.6C131.775 63.6 134.719 60.784 134.719 57.2C134.719 60.784 137.535 63.6 141.119 63.6C137.535 63.6 134.719 66.544 134.719 70C134.719 73.584 137.535 76.4 141.119 76.4C144.575 76.4 147.519 73.584 147.519 70C147.519 73.584 150.335 76.4 153.919 76.4C150.335 76.4 147.519 79.344 147.519 82.8C147.519 86.384 150.335 89.2 153.919 89.2C150.335 89.2 147.519 92.144 147.519 95.6C147.519 99.184 150.335 102 153.919 102C150.335 102 147.519 104.944 147.519 108.4C147.519 104.944 144.575 102 141.119 102C137.535 102 134.719 104.944 134.719 108.4C134.719 104.944 131.775 102 128.319 102C131.775 102 134.719 99.184 134.719 95.6C134.719 92.144 131.775 89.2 128.319 89.2C131.775 89.2 134.719 86.384 134.719 82.8C134.719 79.344 131.775 76.4 128.319 76.4C124.735 76.4 121.919 79.344 121.919 82.8C121.919 79.344 118.975 76.4 115.519 76.4C118.975 76.4 121.919 73.584 121.919 70C121.919 66.544 118.975 63.6 115.519 63.6C111.935 63.6 109.119 66.544 109.119 70C109.119 73.584 111.935 76.4 115.519 76.4C111.935 76.4 109.119 79.344 109.119 82.8C109.119 79.344 106.175 76.4 102.719 76.4C99.135 76.4 96.319 79.344 96.319 82.8C96.319 86.384 99.135 89.2 102.719 89.2C99.135 89.2 96.319 92.144 96.319 95.6C96.319 99.184 99.135 102 102.719 102C99.135 102 96.319 104.944 96.319 108.4C96.319 104.944 93.375 102 89.919 102C86.335 102 83.519 104.944 83.519 108.4C83.519 104.944 80.575 102 77.119 102C80.575 102 83.519 99.184 83.519 95.6C83.519 92.144 80.575 89.2 77.119 89.2C80.575 89.2 83.519 86.384 83.519 82.8C83.519 79.344 80.575 76.4 77.119 76.4C80.575 76.4 83.519 73.584 83.519 70C83.519 73.584 86.335 76.4 89.919 76.4C93.375 76.4 96.319 73.584 96.319 70C96.319 66.544 93.375 63.6 89.919 63.6C93.375 63.6 96.319 60.784 96.319 57.2C96.319 60.784 99.135 63.6 102.719 63.6C106.175 63.6 109.119 60.784 109.119 57.2C109.119 53.744 106.175 50.8 102.719 50.8C99.135 50.8 96.319 53.744 96.319 57.2C96.319 53.744 93.375 50.8 89.919 50.8C93.375 50.8 96.319 47.984 96.319 44.4C96.319 40.944 93.375 38 89.919 38C86.335 38 83.519 40.944 83.519 44.4C83.519 40.944 80.575 38 77.119 38C80.575 38 83.519 35.184 83.519 31.6C83.519 28.144 80.575 25.2 77.119 25.2C80.575 25.2 83.519 22.384 83.519 18.8C83.519 15.344 80.575 12.4 77.119 12.4C80.575 12.4 83.519 9.58399 83.519 5.99999C83.519 9.58399 86.335 12.4 89.919 12.4C93.375 12.4 96.319 9.58399 96.319 5.99999C96.319 9.58399 99.135 12.4 102.719 12.4C99.135 12.4 96.319 15.344 96.319 18.8C96.319 22.384 99.135 25.2 102.719 25.2C99.135 25.2 96.319 28.144 96.319 31.6C96.319 35.184 99.135 38 102.719 38C106.175 38 109.119 35.184 109.119 31.6C109.119 35.184 111.935 38 115.519 38C111.935 38 109.119 40.944 109.119 44.4C109.119 47.984 111.935 50.8 115.519 50.8C118.975 50.8 121.919 47.984 121.919 44.4C121.919 40.944 118.975 38 115.519 38C118.975 38 121.919 35.184 121.919 31.6C121.919 35.184 124.735 38 128.319 38C131.775 38 134.719 35.184 134.719 31.6C134.719 28.144 131.775 25.2 128.319 25.2C131.775 25.2 134.719 22.384 134.719 18.8C134.719 15.344 131.775 12.4 128.319 12.4C131.775 12.4 134.719 9.58399 134.719 5.99999C134.719 9.58399 137.535 12.4 141.119 12.4C144.575 12.4 147.519 9.58399 147.519 5.99999C147.519 9.58399 150.335 12.4 153.919 12.4C150.335 12.4 147.519 15.344 147.519 18.8C147.519 22.384 150.335 25.2 153.919 25.2ZM230.294 38C226.71 38 223.894 40.944 223.894 44.4C223.894 47.984 226.71 50.8 230.294 50.8C226.71 50.8 223.894 53.744 223.894 57.2C223.894 53.744 220.95 50.8 217.494 50.8C213.91 50.8 211.094 53.744 211.094 57.2C211.094 60.784 213.91 63.6 217.494 63.6C213.91 63.6 211.094 66.544 211.094 70C211.094 66.544 208.15 63.6 204.694 63.6C201.11 63.6 198.294 66.544 198.294 70C198.294 66.544 195.35 63.6 191.894 63.6C188.31 63.6 185.494 66.544 185.494 70C185.494 66.544 182.55 63.6 179.094 63.6C175.51 63.6 172.694 66.544 172.694 70C172.694 73.584 175.51 76.4 179.094 76.4C175.51 76.4 172.694 79.344 172.694 82.8C172.694 86.384 175.51 89.2 179.094 89.2C175.51 89.2 172.694 92.144 172.694 95.6C172.694 99.184 175.51 102 179.094 102C175.51 102 172.694 104.944 172.694 108.4C172.694 104.944 169.75 102 166.294 102C162.71 102 159.894 104.944 159.894 108.4C159.894 104.944 156.95 102 153.494 102C156.95 102 159.894 99.184 159.894 95.6C159.894 92.144 156.95 89.2 153.494 89.2C156.95 89.2 159.894 86.384 159.894 82.8C159.894 79.344 156.95 76.4 153.494 76.4C156.95 76.4 159.894 73.584 159.894 70C159.894 66.544 156.95 63.6 153.494 63.6C156.95 63.6 159.894 60.784 159.894 57.2C159.894 53.744 156.95 50.8 153.494 50.8C156.95 50.8 159.894 47.984 159.894 44.4C159.894 40.944 156.95 38 153.494 38C156.95 38 159.894 35.184 159.894 31.6C159.894 28.144 156.95 25.2 153.494 25.2C156.95 25.2 159.894 22.384 159.894 18.8C159.894 22.384 162.71 25.2 166.294 25.2C169.75 25.2 172.694 22.384 172.694 18.8C172.694 15.344 169.75 12.4 166.294 12.4C169.75 12.4 172.694 9.58399 172.694 5.99999C172.694 9.58399 175.51 12.4 179.094 12.4C182.55 12.4 185.494 9.58399 185.494 5.99999C185.494 9.58399 188.31 12.4 191.894 12.4C195.35 12.4 198.294 9.58399 198.294 5.99999C198.294 9.58399 201.11 12.4 204.694 12.4C208.15 12.4 211.094 9.58399 211.094 5.99999C211.094 9.58399 213.91 12.4 217.494 12.4C213.91 12.4 211.094 15.344 211.094 18.8C211.094 22.384 213.91 25.2 217.494 25.2C220.95 25.2 223.894 22.384 223.894 18.8C223.894 22.384 226.71 25.2 230.294 25.2C226.71 25.2 223.894 28.144 223.894 31.6C223.894 35.184 226.71 38 230.294 38ZM204.694 50.8C208.15 50.8 211.094 47.984 211.094 44.4C211.094 40.944 208.15 38 204.694 38C208.15 38 211.094 35.184 211.094 31.6C211.094 28.144 208.15 25.2 204.694 25.2C201.11 25.2 198.294 28.144 198.294 31.6C198.294 28.144 195.35 25.2 191.894 25.2C188.31 25.2 185.494 28.144 185.494 31.6C185.494 28.144 182.55 25.2 179.094 25.2C175.51 25.2 172.694 28.144 172.694 31.6C172.694 35.184 175.51 38 179.094 38C175.51 38 172.694 40.944 172.694 44.4C172.694 47.984 175.51 50.8 179.094 50.8C182.55 50.8 185.494 47.984 185.494 44.4C185.494 47.984 188.31 50.8 191.894 50.8C195.35 50.8 198.294 47.984 198.294 44.4C198.294 47.984 201.11 50.8 204.694 50.8ZM261.869 82.8C261.869 86.384 264.685 89.2 268.269 89.2V102C264.685 102 261.869 104.944 261.869 108.4C261.869 104.944 258.925 102 255.469 102C251.885 102 249.069 104.944 249.069 108.4C249.069 104.944 246.125 102 242.669 102C246.125 102 249.069 99.184 249.069 95.6C249.069 92.144 246.125 89.2 242.669 89.2C239.085 89.2 236.269 92.144 236.269 95.6C236.269 92.144 233.325 89.2 229.869 89.2C233.325 89.2 236.269 86.384 236.269 82.8C236.269 79.344 233.325 76.4 229.869 76.4C233.325 76.4 236.269 73.584 236.269 70C236.269 66.544 233.325 63.6 229.869 63.6C233.325 63.6 236.269 60.784 236.269 57.2C236.269 53.744 233.325 50.8 229.869 50.8C233.325 50.8 236.269 47.984 236.269 44.4C236.269 40.944 233.325 38 229.869 38C233.325 38 236.269 35.184 236.269 31.6C236.269 28.144 233.325 25.2 229.869 25.2C233.325 25.2 236.269 22.384 236.269 18.8C236.269 15.344 233.325 12.4 229.869 12.4C233.325 12.4 236.269 9.58399 236.269 5.99999C236.269 9.58399 239.085 12.4 242.669 12.4C246.125 12.4 249.069 9.58399 249.069 5.99999C249.069 9.58399 251.885 12.4 255.469 12.4C251.885 12.4 249.069 15.344 249.069 18.8C249.069 22.384 251.885 25.2 255.469 25.2C251.885 25.2 249.069 28.144 249.069 31.6C249.069 35.184 251.885 38 255.469 38C251.885 38 249.069 40.944 249.069 44.4C249.069 47.984 251.885 50.8 255.469 50.8C251.885 50.8 249.069 53.744 249.069 57.2C249.069 60.784 251.885 63.6 255.469 63.6C251.885 63.6 249.069 66.544 249.069 70C249.069 73.584 251.885 76.4 255.469 76.4C251.885 76.4 249.069 79.344 249.069 82.8C249.069 86.384 251.885 89.2 255.469 89.2C258.925 89.2 261.869 86.384 261.869 82.8ZM300.269 95.6C300.269 99.184 303.085 102 306.669 102C303.085 102 300.269 104.944 300.269 108.4C300.269 104.944 297.325 102 293.869 102C290.285 102 287.469 104.944 287.469 108.4C287.469 104.944 284.525 102 281.069 102C277.485 102 274.669 104.944 274.669 108.4C274.669 104.944 271.725 102 268.269 102V89.2C271.725 89.2 274.669 86.384 274.669 82.8C274.669 86.384 277.485 89.2 281.069 89.2C284.525 89.2 287.469 86.384 287.469 82.8C287.469 86.384 290.285 89.2 293.869 89.2C297.325 89.2 300.269 86.384 300.269 82.8C300.269 86.384 303.085 89.2 306.669 89.2C303.085 89.2 300.269 92.144 300.269 95.6ZM383.044 38C379.46 38 376.644 40.944 376.644 44.4C376.644 47.984 379.46 50.8 383.044 50.8C379.46 50.8 376.644 53.744 376.644 57.2C376.644 60.784 379.46 63.6 383.044 63.6C379.46 63.6 376.644 66.544 376.644 70C376.644 73.584 379.46 76.4 383.044 76.4C379.46 76.4 376.644 79.344 376.644 82.8C376.644 86.384 379.46 89.2 383.044 89.2C379.46 89.2 376.644 92.144 376.644 95.6C376.644 92.144 373.7 89.2 370.244 89.2C366.66 89.2 363.844 92.144 363.844 95.6C363.844 99.184 366.66 102 370.244 102C366.66 102 363.844 104.944 363.844 108.4C363.844 104.944 360.9 102 357.444 102C353.86 102 351.044 104.944 351.044 108.4C351.044 104.944 348.1 102 344.644 102C341.06 102 338.244 104.944 338.244 108.4C338.244 104.944 335.3 102 331.844 102C328.26 102 325.444 104.944 325.444 108.4C325.444 104.944 322.5 102 319.044 102C322.5 102 325.444 99.184 325.444 95.6C325.444 92.144 322.5 89.2 319.044 89.2C315.46 89.2 312.644 92.144 312.644 95.6C312.644 92.144 309.7 89.2 306.244 89.2C309.7 89.2 312.644 86.384 312.644 82.8C312.644 79.344 309.7 76.4 306.244 76.4C309.7 76.4 312.644 73.584 312.644 70C312.644 66.544 309.7 63.6 306.244 63.6C309.7 63.6 312.644 60.784 312.644 57.2C312.644 53.744 309.7 50.8 306.244 50.8C309.7 50.8 312.644 47.984 312.644 44.4C312.644 40.944 309.7 38 306.244 38C309.7 38 312.644 35.184 312.644 31.6C312.644 28.144 309.7 25.2 306.244 25.2C309.7 25.2 312.644 22.384 312.644 18.8C312.644 22.384 315.46 25.2 319.044 25.2C322.5 25.2 325.444 22.384 325.444 18.8C325.444 15.344 322.5 12.4 319.044 12.4C322.5 12.4 325.444 9.58399 325.444 5.99999C325.444 9.58399 328.26 12.4 331.844 12.4C335.3 12.4 338.244 9.58399 338.244 5.99999C338.244 9.58399 341.06 12.4 344.644 12.4C348.1 12.4 351.044 9.58399 351.044 5.99999C351.044 9.58399 353.86 12.4 357.444 12.4C360.9 12.4 363.844 9.58399 363.844 5.99999C363.844 9.58399 366.66 12.4 370.244 12.4C366.66 12.4 363.844 15.344 363.844 18.8C363.844 22.384 366.66 25.2 370.244 25.2C373.7 25.2 376.644 22.384 376.644 18.8C376.644 22.384 379.46 25.2 383.044 25.2C379.46 25.2 376.644 28.144 376.644 31.6C376.644 35.184 379.46 38 383.044 38ZM363.844 44.4C363.844 40.944 360.9 38 357.444 38C360.9 38 363.844 35.184 363.844 31.6C363.844 28.144 360.9 25.2 357.444 25.2C353.86 25.2 351.044 28.144 351.044 31.6C351.044 28.144 348.1 25.2 344.644 25.2C341.06 25.2 338.244 28.144 338.244 31.6C338.244 28.144 335.3 25.2 331.844 25.2C328.26 25.2 325.444 28.144 325.444 31.6C325.444 35.184 328.26 38 331.844 38C328.26 38 325.444 40.944 325.444 44.4C325.444 47.984 328.26 50.8 331.844 50.8C328.26 50.8 325.444 53.744 325.444 57.2C325.444 60.784 328.26 63.6 331.844 63.6C328.26 63.6 325.444 66.544 325.444 70C325.444 73.584 328.26 76.4 331.844 76.4C328.26 76.4 325.444 79.344 325.444 82.8C325.444 86.384 328.26 89.2 331.844 89.2C335.3 89.2 338.244 86.384 338.244 82.8C338.244 86.384 341.06 89.2 344.644 89.2C348.1 89.2 351.044 86.384 351.044 82.8C351.044 86.384 353.86 89.2 357.444 89.2C360.9 89.2 363.844 86.384 363.844 82.8C363.844 79.344 360.9 76.4 357.444 76.4C360.9 76.4 363.844 73.584 363.844 70C363.844 66.544 360.9 63.6 357.444 63.6C360.9 63.6 363.844 60.784 363.844 57.2C363.844 53.744 360.9 50.8 357.444 50.8C360.9 50.8 363.844 47.984 363.844 44.4ZM459.419 38C455.835 38 453.019 40.944 453.019 44.4C453.019 47.984 455.835 50.8 459.419 50.8C455.835 50.8 453.019 53.744 453.019 57.2C453.019 60.784 455.835 63.6 459.419 63.6C455.835 63.6 453.019 66.544 453.019 70C453.019 73.584 455.835 76.4 459.419 76.4C455.835 76.4 453.019 79.344 453.019 82.8C453.019 86.384 455.835 89.2 459.419 89.2C455.835 89.2 453.019 92.144 453.019 95.6C453.019 92.144 450.075 89.2 446.619 89.2C443.035 89.2 440.219 92.144 440.219 95.6C440.219 99.184 443.035 102 446.619 102C443.035 102 440.219 104.944 440.219 108.4C440.219 104.944 437.275 102 433.819 102C430.235 102 427.419 104.944 427.419 108.4C427.419 104.944 424.475 102 421.019 102C417.435 102 414.619 104.944 414.619 108.4C414.619 104.944 411.675 102 408.219 102C404.635 102 401.819 104.944 401.819 108.4C401.819 104.944 398.875 102 395.419 102C391.835 102 389.019 104.944 389.019 108.4C389.019 104.944 386.075 102 382.619 102C386.075 102 389.019 99.184 389.019 95.6C389.019 92.144 386.075 89.2 382.619 89.2C386.075 89.2 389.019 86.384 389.019 82.8C389.019 79.344 386.075 76.4 382.619 76.4C386.075 76.4 389.019 73.584 389.019 70C389.019 66.544 386.075 63.6 382.619 63.6C386.075 63.6 389.019 60.784 389.019 57.2C389.019 53.744 386.075 50.8 382.619 50.8C386.075 50.8 389.019 47.984 389.019 44.4C389.019 40.944 386.075 38 382.619 38C386.075 38 389.019 35.184 389.019 31.6C389.019 28.144 386.075 25.2 382.619 25.2C386.075 25.2 389.019 22.384 389.019 18.8C389.019 15.344 386.075 12.4 382.619 12.4C386.075 12.4 389.019 9.58399 389.019 5.99999C389.019 9.58399 391.835 12.4 395.419 12.4C398.875 12.4 401.819 9.58399 401.819 5.99999C401.819 9.58399 404.635 12.4 408.219 12.4C411.675 12.4 414.619 9.58399 414.619 5.99999C414.619 9.58399 417.435 12.4 421.019 12.4C424.475 12.4 427.419 9.58399 427.419 5.99999C427.419 9.58399 430.235 12.4 433.819 12.4C437.275 12.4 440.219 9.58399 440.219 5.99999C440.219 9.58399 443.035 12.4 446.619 12.4C443.035 12.4 440.219 15.344 440.219 18.8C440.219 22.384 443.035 25.2 446.619 25.2C450.075 25.2 453.019 22.384 453.019 18.8C453.019 22.384 455.835 25.2 459.419 25.2C455.835 25.2 453.019 28.144 453.019 31.6C453.019 35.184 455.835 38 459.419 38ZM440.219 44.4C440.219 40.944 437.275 38 433.819 38C437.275 38 440.219 35.184 440.219 31.6C440.219 28.144 437.275 25.2 433.819 25.2C430.235 25.2 427.419 28.144 427.419 31.6C427.419 28.144 424.475 25.2 421.019 25.2C417.435 25.2 414.619 28.144 414.619 31.6C414.619 28.144 411.675 25.2 408.219 25.2C404.635 25.2 401.819 28.144 401.819 31.6C401.819 35.184 404.635 38 408.219 38C404.635 38 401.819 40.944 401.819 44.4C401.819 47.984 404.635 50.8 408.219 50.8C404.635 50.8 401.819 53.744 401.819 57.2C401.819 60.784 404.635 63.6 408.219 63.6C404.635 63.6 401.819 66.544 401.819 70C401.819 73.584 404.635 76.4 408.219 76.4C404.635 76.4 401.819 79.344 401.819 82.8C401.819 86.384 404.635 89.2 408.219 89.2C411.675 89.2 414.619 86.384 414.619 82.8C414.619 86.384 417.435 89.2 421.019 89.2C424.475 89.2 427.419 86.384 427.419 82.8C427.419 86.384 430.235 89.2 433.819 89.2C437.275 89.2 440.219 86.384 440.219 82.8C440.219 79.344 437.275 76.4 433.819 76.4C437.275 76.4 440.219 73.584 440.219 70C440.219 66.544 437.275 63.6 433.819 63.6C437.275 63.6 440.219 60.784 440.219 57.2C440.219 53.744 437.275 50.8 433.819 50.8C437.275 50.8 440.219 47.984 440.219 44.4ZM484.594 25.2C481.01 25.2 478.194 28.144 478.194 31.6C478.194 35.184 481.01 38 484.594 38C481.01 38 478.194 40.944 478.194 44.4C478.194 47.984 481.01 50.8 484.594 50.8C488.05 50.8 490.994 47.984 490.994 44.4C490.994 47.984 493.81 50.8 497.394 50.8C500.85 50.8 503.794 47.984 503.794 44.4C503.794 47.984 506.61 50.8 510.194 50.8C513.65 50.8 516.594 47.984 516.594 44.4C516.594 47.984 519.41 50.8 522.994 50.8C526.45 50.8 529.394 47.984 529.394 44.4C529.394 47.984 532.21 50.8 535.794 50.8C532.21 50.8 529.394 53.744 529.394 57.2C529.394 60.784 532.21 63.6 535.794 63.6C532.21 63.6 529.394 66.544 529.394 70C529.394 66.544 526.45 63.6 522.994 63.6C519.41 63.6 516.594 66.544 516.594 70C516.594 66.544 513.65 63.6 510.194 63.6C506.61 63.6 503.794 66.544 503.794 70C503.794 66.544 500.85 63.6 497.394 63.6C493.81 63.6 490.994 66.544 490.994 70C490.994 66.544 488.05 63.6 484.594 63.6C481.01 63.6 478.194 66.544 478.194 70C478.194 73.584 481.01 76.4 484.594 76.4C481.01 76.4 478.194 79.344 478.194 82.8C478.194 86.384 481.01 89.2 484.594 89.2C488.05 89.2 490.994 86.384 490.994 82.8C490.994 86.384 493.81 89.2 497.394 89.2C500.85 89.2 503.794 86.384 503.794 82.8C503.794 86.384 506.61 89.2 510.194 89.2C513.65 89.2 516.594 86.384 516.594 82.8C516.594 86.384 519.41 89.2 522.994 89.2C526.45 89.2 529.394 86.384 529.394 82.8C529.394 86.384 532.21 89.2 535.794 89.2C532.21 89.2 529.394 92.144 529.394 95.6C529.394 99.184 532.21 102 535.794 102C532.21 102 529.394 104.944 529.394 108.4C529.394 104.944 526.45 102 522.994 102C519.41 102 516.594 104.944 516.594 108.4C516.594 104.944 513.65 102 510.194 102C506.61 102 503.794 104.944 503.794 108.4C503.794 104.944 500.85 102 497.394 102C493.81 102 490.994 104.944 490.994 108.4C490.994 104.944 488.05 102 484.594 102C481.01 102 478.194 104.944 478.194 108.4C478.194 104.944 475.25 102 471.794 102C475.25 102 478.194 99.184 478.194 95.6C478.194 92.144 475.25 89.2 471.794 89.2C468.21 89.2 465.394 92.144 465.394 95.6C465.394 92.144 462.45 89.2 458.994 89.2C462.45 89.2 465.394 86.384 465.394 82.8C465.394 79.344 462.45 76.4 458.994 76.4C462.45 76.4 465.394 73.584 465.394 70C465.394 66.544 462.45 63.6 458.994 63.6C462.45 63.6 465.394 60.784 465.394 57.2C465.394 53.744 462.45 50.8 458.994 50.8C462.45 50.8 465.394 47.984 465.394 44.4C465.394 40.944 462.45 38 458.994 38C462.45 38 465.394 35.184 465.394 31.6C465.394 28.144 462.45 25.2 458.994 25.2C462.45 25.2 465.394 22.384 465.394 18.8C465.394 22.384 468.21 25.2 471.794 25.2C475.25 25.2 478.194 22.384 478.194 18.8C478.194 15.344 475.25 12.4 471.794 12.4C475.25 12.4 478.194 9.58399 478.194 5.99999C478.194 9.58399 481.01 12.4 484.594 12.4C488.05 12.4 490.994 9.58399 490.994 5.99999C490.994 9.58399 493.81 12.4 497.394 12.4C500.85 12.4 503.794 9.58399 503.794 5.99999C503.794 9.58399 506.61 12.4 510.194 12.4C513.65 12.4 516.594 9.58399 516.594 5.99999C516.594 9.58399 519.41 12.4 522.994 12.4C526.45 12.4 529.394 9.58399 529.394 5.99999C529.394 9.58399 532.21 12.4 535.794 12.4C532.21 12.4 529.394 15.344 529.394 18.8C529.394 22.384 532.21 25.2 535.794 25.2C532.21 25.2 529.394 28.144 529.394 31.6C529.394 28.144 526.45 25.2 522.994 25.2C519.41 25.2 516.594 28.144 516.594 31.6C516.594 28.144 513.65 25.2 510.194 25.2C506.61 25.2 503.794 28.144 503.794 31.6C503.794 28.144 500.85 25.2 497.394 25.2C493.81 25.2 490.994 28.144 490.994 31.6C490.994 28.144 488.05 25.2 484.594 25.2Z" fill="#A54AFF"/>
<path d="M13.544 77.4C9.96 77.4 7.144 80.344 7.144 83.8C7.144 80.344 4.2 77.4 0.744 77.4C4.2 77.4 7.144 74.584 7.144 71C7.144 74.584 9.96 77.4 13.544 77.4ZM13.544 77.4C17 77.4 19.944 74.584 19.944 71C19.944 74.584 22.76 77.4 26.344 77.4C22.76 77.4 19.944 80.344 19.944 83.8C19.944 80.344 17 77.4 13.544 77.4ZM13.544 64.6C9.96 64.6 7.144 67.544 7.144 71C7.144 67.544 4.2 64.6 0.744 64.6C4.2 64.6 7.144 61.784 7.144 58.2C7.144 61.784 9.96 64.6 13.544 64.6ZM19.944 58.2C19.944 61.784 22.76 64.6 26.344 64.6C22.76 64.6 19.944 67.544 19.944 71C19.944 67.544 17 64.6 13.544 64.6C17 64.6 19.944 61.784 19.944 58.2ZM32.744 58.2C32.744 61.784 35.56 64.6 39.144 64.6C35.56 64.6 32.744 67.544 32.744 71C32.744 67.544 29.8 64.6 26.344 64.6C29.8 64.6 32.744 61.784 32.744 58.2ZM7.144 83.8C7.144 87.384 9.96 90.2 13.544 90.2C9.96 90.2 7.144 93.144 7.144 96.6C7.144 93.144 4.2 90.2 0.744 90.2C4.2 90.2 7.144 87.384 7.144 83.8ZM13.544 90.2C17 90.2 19.944 87.384 19.944 83.8C19.944 87.384 22.76 90.2 26.344 90.2C22.76 90.2 19.944 93.144 19.944 96.6C19.944 93.144 17 90.2 13.544 90.2ZM32.744 96.6C32.744 93.144 29.8 90.2 26.344 90.2C29.8 90.2 32.744 87.384 32.744 83.8C32.744 87.384 35.56 90.2 39.144 90.2C35.56 90.2 32.744 93.144 32.744 96.6ZM19.944 96.6C19.944 100.184 22.76 103 26.344 103C22.76 103 19.944 105.944 19.944 109.4C19.944 105.944 17 103 13.544 103C17 103 19.944 100.184 19.944 96.6ZM32.744 96.6C32.744 100.184 35.56 103 39.144 103C35.56 103 32.744 105.944 32.744 109.4C32.744 105.944 29.8 103 26.344 103C29.8 103 32.744 100.184 32.744 96.6ZM45.544 58.2C45.544 61.784 48.36 64.6 51.944 64.6C48.36 64.6 45.544 67.544 45.544 71C45.544 67.544 42.6 64.6 39.144 64.6C42.6 64.6 45.544 61.784 45.544 58.2ZM58.344 58.2C58.344 61.784 61.16 64.6 64.744 64.6C61.16 64.6 58.344 67.544 58.344 71C58.344 67.544 55.4 64.6 51.944 64.6C55.4 64.6 58.344 61.784 58.344 58.2ZM45.544 96.6C45.544 93.144 42.6 90.2 39.144 90.2C42.6 90.2 45.544 87.384 45.544 83.8C45.544 87.384 48.36 90.2 51.944 90.2C48.36 90.2 45.544 93.144 45.544 96.6ZM58.344 96.6C58.344 93.144 55.4 90.2 51.944 90.2C55.4 90.2 58.344 87.384 58.344 83.8C58.344 87.384 61.16 90.2 64.744 90.2C61.16 90.2 58.344 93.144 58.344 96.6ZM71.144 96.6C71.144 93.144 68.2 90.2 64.744 90.2C68.2 90.2 71.144 87.384 71.144 83.8C71.144 87.384 73.96 90.2 77.544 90.2C73.96 90.2 71.144 93.144 71.144 96.6ZM45.544 96.6C45.544 100.184 48.36 103 51.944 103C48.36 103 45.544 105.944 45.544 109.4C45.544 105.944 42.6 103 39.144 103C42.6 103 45.544 100.184 45.544 96.6ZM58.344 96.6C58.344 100.184 61.16 103 64.744 103C61.16 103 58.344 105.944 58.344 109.4C58.344 105.944 55.4 103 51.944 103C55.4 103 58.344 100.184 58.344 96.6ZM64.744 103C68.2 103 71.144 100.184 71.144 96.6C71.144 100.184 73.96 103 77.544 103C73.96 103 71.144 105.944 71.144 109.4C71.144 105.944 68.2 103 64.744 103ZM13.544 26.2C9.96 26.2 7.144 29.144 7.144 32.6C7.144 29.144 4.2 26.2 0.744 26.2C4.2 26.2 7.144 23.384 7.144 19.8C7.144 23.384 9.96 26.2 13.544 26.2ZM26.344 26.2C22.76 26.2 19.944 29.144 19.944 32.6C19.944 29.144 17 26.2 13.544 26.2C17 26.2 19.944 23.384 19.944 19.8C19.944 23.384 22.76 26.2 26.344 26.2ZM32.744 19.8C32.744 23.384 35.56 26.2 39.144 26.2C35.56 26.2 32.744 29.144 32.744 32.6C32.744 29.144 29.8 26.2 26.344 26.2C29.8 26.2 32.744 23.384 32.744 19.8ZM26.344 13.4C22.76 13.4 19.944 16.344 19.944 19.8C19.944 16.344 17 13.4 13.544 13.4C17 13.4 19.944 10.584 19.944 6.99999C19.944 10.584 22.76 13.4 26.344 13.4ZM32.744 19.8C32.744 16.344 29.8 13.4 26.344 13.4C29.8 13.4 32.744 10.584 32.744 6.99999C32.744 10.584 35.56 13.4 39.144 13.4C35.56 13.4 32.744 16.344 32.744 19.8ZM13.544 39C9.96 39 7.144 41.944 7.144 45.4C7.144 41.944 4.2 39 0.744 39C4.2 39 7.144 36.184 7.144 32.6C7.144 36.184 9.96 39 13.544 39ZM13.544 39C17 39 19.944 36.184 19.944 32.6C19.944 36.184 22.76 39 26.344 39C22.76 39 19.944 41.944 19.944 45.4C19.944 41.944 17 39 13.544 39ZM13.544 51.8C9.96 51.8 7.144 54.744 7.144 58.2C7.144 54.744 4.2 51.8 0.744 51.8C4.2 51.8 7.144 48.984 7.144 45.4C7.144 48.984 9.96 51.8 13.544 51.8ZM13.544 51.8C17 51.8 19.944 48.984 19.944 45.4C19.944 48.984 22.76 51.8 26.344 51.8C22.76 51.8 19.944 54.744 19.944 58.2C19.944 54.744 17 51.8 13.544 51.8ZM32.744 58.2C32.744 54.744 29.8 51.8 26.344 51.8C29.8 51.8 32.744 48.984 32.744 45.4C32.744 48.984 35.56 51.8 39.144 51.8C35.56 51.8 32.744 54.744 32.744 58.2ZM45.544 19.8C45.544 23.384 48.36 26.2 51.944 26.2C48.36 26.2 45.544 29.144 45.544 32.6C45.544 29.144 42.6 26.2 39.144 26.2C42.6 26.2 45.544 23.384 45.544 19.8ZM58.344 19.8C58.344 23.384 61.16 26.2 64.744 26.2C61.16 26.2 58.344 29.144 58.344 32.6C58.344 29.144 55.4 26.2 51.944 26.2C55.4 26.2 58.344 23.384 58.344 19.8ZM64.744 26.2C68.2 26.2 71.144 23.384 71.144 19.8C71.144 23.384 73.96 26.2 77.544 26.2C73.96 26.2 71.144 29.144 71.144 32.6C71.144 29.144 68.2 26.2 64.744 26.2ZM45.544 19.8C45.544 16.344 42.6 13.4 39.144 13.4C42.6 13.4 45.544 10.584 45.544 6.99999C45.544 10.584 48.36 13.4 51.944 13.4C48.36 13.4 45.544 16.344 45.544 19.8ZM58.344 19.8C58.344 16.344 55.4 13.4 51.944 13.4C55.4 13.4 58.344 10.584 58.344 6.99999C58.344 10.584 61.16 13.4 64.744 13.4C61.16 13.4 58.344 16.344 58.344 19.8ZM71.144 19.8C71.144 16.344 68.2 13.4 64.744 13.4C68.2 13.4 71.144 10.584 71.144 6.99999C71.144 10.584 73.96 13.4 77.544 13.4C73.96 13.4 71.144 16.344 71.144 19.8ZM45.544 58.2C45.544 54.744 42.6 51.8 39.144 51.8C42.6 51.8 45.544 48.984 45.544 45.4C45.544 48.984 48.36 51.8 51.944 51.8C48.36 51.8 45.544 54.744 45.544 58.2ZM58.344 58.2C58.344 54.744 55.4 51.8 51.944 51.8C55.4 51.8 58.344 48.984 58.344 45.4C58.344 48.984 61.16 51.8 64.744 51.8C61.16 51.8 58.344 54.744 58.344 58.2ZM64.744 64.6C68.2 64.6 71.144 61.784 71.144 58.2C71.144 61.784 73.96 64.6 77.544 64.6C73.96 64.6 71.144 67.544 71.144 71C71.144 67.544 68.2 64.6 64.744 64.6ZM71.144 58.2C71.144 54.744 68.2 51.8 64.744 51.8C68.2 51.8 71.144 48.984 71.144 45.4C71.144 48.984 73.96 51.8 77.544 51.8C73.96 51.8 71.144 54.744 71.144 58.2ZM89.922 77.4C86.338 77.4 83.522 80.344 83.522 83.8C83.522 80.344 80.578 77.4 77.122 77.4C80.578 77.4 83.522 74.584 83.522 71C83.522 74.584 86.338 77.4 89.922 77.4ZM96.322 71C96.322 74.584 99.138 77.4 102.722 77.4C99.138 77.4 96.322 80.344 96.322 83.8C96.322 80.344 93.378 77.4 89.922 77.4C93.378 77.4 96.322 74.584 96.322 71ZM109.122 71C109.122 74.584 111.938 77.4 115.522 77.4C111.938 77.4 109.122 80.344 109.122 83.8C109.122 80.344 106.178 77.4 102.722 77.4C106.178 77.4 109.122 74.584 109.122 71ZM102.722 64.6C99.138 64.6 96.322 67.544 96.322 71C96.322 67.544 93.378 64.6 89.922 64.6C93.378 64.6 96.322 61.784 96.322 58.2C96.322 61.784 99.138 64.6 102.722 64.6ZM109.122 58.2C109.122 61.784 111.938 64.6 115.522 64.6C111.938 64.6 109.122 67.544 109.122 71C109.122 67.544 106.178 64.6 102.722 64.6C106.178 64.6 109.122 61.784 109.122 58.2ZM89.922 90.2C86.338 90.2 83.522 93.144 83.522 96.6C83.522 93.144 80.578 90.2 77.122 90.2C80.578 90.2 83.522 87.384 83.522 83.8C83.522 87.384 86.338 90.2 89.922 90.2ZM89.922 90.2C93.378 90.2 96.322 87.384 96.322 83.8C96.322 87.384 99.138 90.2 102.722 90.2C99.138 90.2 96.322 93.144 96.322 96.6C96.322 93.144 93.378 90.2 89.922 90.2ZM83.522 96.6C83.522 100.184 86.338 103 89.922 103C86.338 103 83.522 105.944 83.522 109.4C83.522 105.944 80.578 103 77.122 103C80.578 103 83.522 100.184 83.522 96.6ZM89.922 103C93.378 103 96.322 100.184 96.322 96.6C96.322 100.184 99.138 103 102.722 103C99.138 103 96.322 105.944 96.322 109.4C96.322 105.944 93.378 103 89.922 103ZM121.922 71C121.922 74.584 124.738 77.4 128.322 77.4C124.738 77.4 121.922 80.344 121.922 83.8C121.922 80.344 118.978 77.4 115.522 77.4C118.978 77.4 121.922 74.584 121.922 71ZM128.322 77.4C131.778 77.4 134.722 74.584 134.722 71C134.722 74.584 137.538 77.4 141.122 77.4C137.538 77.4 134.722 80.344 134.722 83.8C134.722 80.344 131.778 77.4 128.322 77.4ZM147.522 83.8C147.522 80.344 144.578 77.4 141.122 77.4C144.578 77.4 147.522 74.584 147.522 71C147.522 74.584 150.338 77.4 153.922 77.4C150.338 77.4 147.522 80.344 147.522 83.8ZM115.522 64.6C118.978 64.6 121.922 61.784 121.922 58.2C121.922 61.784 124.738 64.6 128.322 64.6C124.738 64.6 121.922 67.544 121.922 71C121.922 67.544 118.978 64.6 115.522 64.6ZM128.322 64.6C131.778 64.6 134.722 61.784 134.722 58.2C134.722 61.784 137.538 64.6 141.122 64.6C137.538 64.6 134.722 67.544 134.722 71C134.722 67.544 131.778 64.6 128.322 64.6ZM141.122 90.2C137.538 90.2 134.722 93.144 134.722 96.6C134.722 93.144 131.778 90.2 128.322 90.2C131.778 90.2 134.722 87.384 134.722 83.8C134.722 87.384 137.538 90.2 141.122 90.2ZM141.122 90.2C144.578 90.2 147.522 87.384 147.522 83.8C147.522 87.384 150.338 90.2 153.922 90.2C150.338 90.2 147.522 93.144 147.522 96.6C147.522 93.144 144.578 90.2 141.122 90.2ZM134.722 96.6C134.722 100.184 137.538 103 141.122 103C137.538 103 134.722 105.944 134.722 109.4C134.722 105.944 131.778 103 128.322 103C131.778 103 134.722 100.184 134.722 96.6ZM141.122 103C144.578 103 147.522 100.184 147.522 96.6C147.522 100.184 150.338 103 153.922 103C150.338 103 147.522 105.944 147.522 109.4C147.522 105.944 144.578 103 141.122 103ZM89.922 26.2C86.338 26.2 83.522 29.144 83.522 32.6C83.522 29.144 80.578 26.2 77.122 26.2C80.578 26.2 83.522 23.384 83.522 19.8C83.522 23.384 86.338 26.2 89.922 26.2ZM89.922 26.2C93.378 26.2 96.322 23.384 96.322 19.8C96.322 23.384 99.138 26.2 102.722 26.2C99.138 26.2 96.322 29.144 96.322 32.6C96.322 29.144 93.378 26.2 89.922 26.2ZM89.922 13.4C86.338 13.4 83.522 16.344 83.522 19.8C83.522 16.344 80.578 13.4 77.122 13.4C80.578 13.4 83.522 10.584 83.522 6.99999C83.522 10.584 86.338 13.4 89.922 13.4ZM96.322 19.8C96.322 16.344 93.378 13.4 89.922 13.4C93.378 13.4 96.322 10.584 96.322 6.99999C96.322 10.584 99.138 13.4 102.722 13.4C99.138 13.4 96.322 16.344 96.322 19.8ZM83.522 32.6C83.522 36.184 86.338 39 89.922 39C86.338 39 83.522 41.944 83.522 45.4C83.522 41.944 80.578 39 77.122 39C80.578 39 83.522 36.184 83.522 32.6ZM102.722 39C99.138 39 96.322 41.944 96.322 45.4C96.322 41.944 93.378 39 89.922 39C93.378 39 96.322 36.184 96.322 32.6C96.322 36.184 99.138 39 102.722 39ZM109.122 45.4C109.122 41.944 106.178 39 102.722 39C106.178 39 109.122 36.184 109.122 32.6C109.122 36.184 111.938 39 115.522 39C111.938 39 109.122 41.944 109.122 45.4ZM102.722 51.8C99.138 51.8 96.322 54.744 96.322 58.2C96.322 54.744 93.378 51.8 89.922 51.8C93.378 51.8 96.322 48.984 96.322 45.4C96.322 48.984 99.138 51.8 102.722 51.8ZM115.522 51.8C111.938 51.8 109.122 54.744 109.122 58.2C109.122 54.744 106.178 51.8 102.722 51.8C106.178 51.8 109.122 48.984 109.122 45.4C109.122 48.984 111.938 51.8 115.522 51.8ZM141.122 26.2C137.538 26.2 134.722 29.144 134.722 32.6C134.722 29.144 131.778 26.2 128.322 26.2C131.778 26.2 134.722 23.384 134.722 19.8C134.722 23.384 137.538 26.2 141.122 26.2ZM153.922 26.2C150.338 26.2 147.522 29.144 147.522 32.6C147.522 29.144 144.578 26.2 141.122 26.2C144.578 26.2 147.522 23.384 147.522 19.8C147.522 23.384 150.338 26.2 153.922 26.2ZM141.122 13.4C137.538 13.4 134.722 16.344 134.722 19.8C134.722 16.344 131.778 13.4 128.322 13.4C131.778 13.4 134.722 10.584 134.722 6.99999C134.722 10.584 137.538 13.4 141.122 13.4ZM147.522 19.8C147.522 16.344 144.578 13.4 141.122 13.4C144.578 13.4 147.522 10.584 147.522 6.99999C147.522 10.584 150.338 13.4 153.922 13.4C150.338 13.4 147.522 16.344 147.522 19.8ZM121.922 45.4C121.922 41.944 118.978 39 115.522 39C118.978 39 121.922 36.184 121.922 32.6C121.922 36.184 124.738 39 128.322 39C124.738 39 121.922 41.944 121.922 45.4ZM134.722 32.6C134.722 36.184 137.538 39 141.122 39C137.538 39 134.722 41.944 134.722 45.4C134.722 41.944 131.778 39 128.322 39C131.778 39 134.722 36.184 134.722 32.6ZM141.122 39C144.578 39 147.522 36.184 147.522 32.6C147.522 36.184 150.338 39 153.922 39C150.338 39 147.522 41.944 147.522 45.4C147.522 41.944 144.578 39 141.122 39ZM115.522 51.8C118.978 51.8 121.922 48.984 121.922 45.4C121.922 48.984 124.738 51.8 128.322 51.8C124.738 51.8 121.922 54.744 121.922 58.2C121.922 54.744 118.978 51.8 115.522 51.8ZM128.322 51.8C131.778 51.8 134.722 48.984 134.722 45.4C134.722 48.984 137.538 51.8 141.122 51.8C137.538 51.8 134.722 54.744 134.722 58.2C134.722 54.744 131.778 51.8 128.322 51.8ZM166.3 77.4C162.716 77.4 159.9 80.344 159.9 83.8C159.9 80.344 156.956 77.4 153.5 77.4C156.956 77.4 159.9 74.584 159.9 71C159.9 74.584 162.716 77.4 166.3 77.4ZM166.3 77.4C169.756 77.4 172.7 74.584 172.7 71C172.7 74.584 175.516 77.4 179.1 77.4C175.516 77.4 172.7 80.344 172.7 83.8C172.7 80.344 169.756 77.4 166.3 77.4ZM172.7 58.2C172.7 61.784 175.516 64.6 179.1 64.6C175.516 64.6 172.7 67.544 172.7 71C172.7 67.544 169.756 64.6 166.3 64.6C169.756 64.6 172.7 61.784 172.7 58.2ZM166.3 64.6C162.716 64.6 159.9 67.544 159.9 71C159.9 67.544 156.956 64.6 153.5 64.6C156.956 64.6 159.9 61.784 159.9 58.2C159.9 61.784 162.716 64.6 166.3 64.6ZM185.5 58.2C185.5 61.784 188.316 64.6 191.9 64.6C188.316 64.6 185.5 67.544 185.5 71C185.5 67.544 182.556 64.6 179.1 64.6C182.556 64.6 185.5 61.784 185.5 58.2ZM166.3 90.2C162.716 90.2 159.9 93.144 159.9 96.6C159.9 93.144 156.956 90.2 153.5 90.2C156.956 90.2 159.9 87.384 159.9 83.8C159.9 87.384 162.716 90.2 166.3 90.2ZM166.3 90.2C169.756 90.2 172.7 87.384 172.7 83.8C172.7 87.384 175.516 90.2 179.1 90.2C175.516 90.2 172.7 93.144 172.7 96.6C172.7 93.144 169.756 90.2 166.3 90.2ZM159.9 96.6C159.9 100.184 162.716 103 166.3 103C162.716 103 159.9 105.944 159.9 109.4C159.9 105.944 156.956 103 153.5 103C156.956 103 159.9 100.184 159.9 96.6ZM166.3 103C169.756 103 172.7 100.184 172.7 96.6C172.7 100.184 175.516 103 179.1 103C175.516 103 172.7 105.944 172.7 109.4C172.7 105.944 169.756 103 166.3 103ZM198.3 58.2C198.3 61.784 201.116 64.6 204.7 64.6C201.116 64.6 198.3 67.544 198.3 71C198.3 67.544 195.356 64.6 191.9 64.6C195.356 64.6 198.3 61.784 198.3 58.2ZM204.7 64.6C208.156 64.6 211.1 61.784 211.1 58.2C211.1 61.784 213.916 64.6 217.5 64.6C213.916 64.6 211.1 67.544 211.1 71C211.1 67.544 208.156 64.6 204.7 64.6ZM166.3 26.2C162.716 26.2 159.9 29.144 159.9 32.6C159.9 29.144 156.956 26.2 153.5 26.2C156.956 26.2 159.9 23.384 159.9 19.8C159.9 23.384 162.716 26.2 166.3 26.2ZM172.7 32.6C172.7 29.144 169.756 26.2 166.3 26.2C169.756 26.2 172.7 23.384 172.7 19.8C172.7 23.384 175.516 26.2 179.1 26.2C175.516 26.2 172.7 29.144 172.7 32.6ZM185.5 32.6C185.5 29.144 182.556 26.2 179.1 26.2C182.556 26.2 185.5 23.384 185.5 19.8C185.5 23.384 188.316 26.2 191.9 26.2C188.316 26.2 185.5 29.144 185.5 32.6ZM179.1 13.4C175.516 13.4 172.7 16.344 172.7 19.8C172.7 16.344 169.756 13.4 166.3 13.4C169.756 13.4 172.7 10.584 172.7 6.99999C172.7 10.584 175.516 13.4 179.1 13.4ZM185.5 19.8C185.5 16.344 182.556 13.4 179.1 13.4C182.556 13.4 185.5 10.584 185.5 6.99999C185.5 10.584 188.316 13.4 191.9 13.4C188.316 13.4 185.5 16.344 185.5 19.8ZM166.3 39C162.716 39 159.9 41.944 159.9 45.4C159.9 41.944 156.956 39 153.5 39C156.956 39 159.9 36.184 159.9 32.6C159.9 36.184 162.716 39 166.3 39ZM179.1 39C175.516 39 172.7 41.944 172.7 45.4C172.7 41.944 169.756 39 166.3 39C169.756 39 172.7 36.184 172.7 32.6C172.7 36.184 175.516 39 179.1 39ZM166.3 51.8C162.716 51.8 159.9 54.744 159.9 58.2C159.9 54.744 156.956 51.8 153.5 51.8C156.956 51.8 159.9 48.984 159.9 45.4C159.9 48.984 162.716 51.8 166.3 51.8ZM172.7 45.4C172.7 48.984 175.516 51.8 179.1 51.8C175.516 51.8 172.7 54.744 172.7 58.2C172.7 54.744 169.756 51.8 166.3 51.8C169.756 51.8 172.7 48.984 172.7 45.4ZM185.5 45.4C185.5 48.984 188.316 51.8 191.9 51.8C188.316 51.8 185.5 54.744 185.5 58.2C185.5 54.744 182.556 51.8 179.1 51.8C182.556 51.8 185.5 48.984 185.5 45.4ZM198.3 32.6C198.3 29.144 195.356 26.2 191.9 26.2C195.356 26.2 198.3 23.384 198.3 19.8C198.3 23.384 201.116 26.2 204.7 26.2C201.116 26.2 198.3 29.144 198.3 32.6ZM204.7 26.2C208.156 26.2 211.1 23.384 211.1 19.8C211.1 23.384 213.916 26.2 217.5 26.2C213.916 26.2 211.1 29.144 211.1 32.6C211.1 29.144 208.156 26.2 204.7 26.2ZM223.9 32.6C223.9 29.144 220.956 26.2 217.5 26.2C220.956 26.2 223.9 23.384 223.9 19.8C223.9 23.384 226.716 26.2 230.3 26.2C226.716 26.2 223.9 29.144 223.9 32.6ZM198.3 19.8C198.3 16.344 195.356 13.4 191.9 13.4C195.356 13.4 198.3 10.584 198.3 6.99999C198.3 10.584 201.116 13.4 204.7 13.4C201.116 13.4 198.3 16.344 198.3 19.8ZM211.1 19.8C211.1 16.344 208.156 13.4 204.7 13.4C208.156 13.4 211.1 10.584 211.1 6.99999C211.1 10.584 213.916 13.4 217.5 13.4C213.916 13.4 211.1 16.344 211.1 19.8ZM211.1 32.6C211.1 36.184 213.916 39 217.5 39C213.916 39 211.1 41.944 211.1 45.4C211.1 41.944 208.156 39 204.7 39C208.156 39 211.1 36.184 211.1 32.6ZM211.1 45.4C211.1 48.984 213.916 51.8 217.5 51.8C213.916 51.8 211.1 54.744 211.1 58.2C211.1 54.744 208.156 51.8 204.7 51.8C208.156 51.8 211.1 48.984 211.1 45.4ZM230.3 39C226.716 39 223.9 41.944 223.9 45.4C223.9 41.944 220.956 39 217.5 39C220.956 39 223.9 36.184 223.9 32.6C223.9 36.184 226.716 39 230.3 39ZM198.3 45.4C198.3 48.984 201.116 51.8 204.7 51.8C201.116 51.8 198.3 54.744 198.3 58.2C198.3 54.744 195.356 51.8 191.9 51.8C195.356 51.8 198.3 48.984 198.3 45.4ZM217.5 51.8C220.956 51.8 223.9 48.984 223.9 45.4C223.9 48.984 226.716 51.8 230.3 51.8C226.716 51.8 223.9 54.744 223.9 58.2C223.9 54.744 220.956 51.8 217.5 51.8ZM242.678 77.4C239.094 77.4 236.278 80.344 236.278 83.8C236.278 80.344 233.334 77.4 229.878 77.4C233.334 77.4 236.278 74.584 236.278 71C236.278 74.584 239.094 77.4 242.678 77.4ZM242.678 77.4C246.134 77.4 249.078 74.584 249.078 71C249.078 74.584 251.894 77.4 255.478 77.4C251.894 77.4 249.078 80.344 249.078 83.8C249.078 80.344 246.134 77.4 242.678 77.4ZM242.678 64.6C239.094 64.6 236.278 67.544 236.278 71C236.278 67.544 233.334 64.6 229.878 64.6C233.334 64.6 236.278 61.784 236.278 58.2C236.278 61.784 239.094 64.6 242.678 64.6ZM242.678 64.6C246.134 64.6 249.078 61.784 249.078 58.2C249.078 61.784 251.894 64.6 255.478 64.6C251.894 64.6 249.078 67.544 249.078 71C249.078 67.544 246.134 64.6 242.678 64.6ZM236.278 83.8C236.278 87.384 239.094 90.2 242.678 90.2C239.094 90.2 236.278 93.144 236.278 96.6C236.278 93.144 233.334 90.2 229.878 90.2C233.334 90.2 236.278 87.384 236.278 83.8ZM255.478 90.2C251.894 90.2 249.078 93.144 249.078 96.6C249.078 93.144 246.134 90.2 242.678 90.2C246.134 90.2 249.078 87.384 249.078 83.8C249.078 87.384 251.894 90.2 255.478 90.2ZM268.278 90.2C264.694 90.2 261.878 93.144 261.878 96.6C261.878 93.144 258.934 90.2 255.478 90.2C258.934 90.2 261.878 87.384 261.878 83.8C261.878 87.384 264.694 90.2 268.278 90.2ZM249.078 96.6C249.078 100.184 251.894 103 255.478 103C251.894 103 249.078 105.944 249.078 109.4C249.078 105.944 246.134 103 242.678 103C246.134 103 249.078 100.184 249.078 96.6ZM255.478 103C258.934 103 261.878 100.184 261.878 96.6C261.878 100.184 264.694 103 268.278 103C264.694 103 261.878 105.944 261.878 109.4C261.878 105.944 258.934 103 255.478 103ZM281.078 90.2C277.494 90.2 274.678 93.144 274.678 96.6C274.678 93.144 271.734 90.2 268.278 90.2C271.734 90.2 274.678 87.384 274.678 83.8C274.678 87.384 277.494 90.2 281.078 90.2ZM287.478 96.6C287.478 93.144 284.534 90.2 281.078 90.2C284.534 90.2 287.478 87.384 287.478 83.8C287.478 87.384 290.294 90.2 293.878 90.2C290.294 90.2 287.478 93.144 287.478 96.6ZM300.278 96.6C300.278 93.144 297.334 90.2 293.878 90.2C297.334 90.2 300.278 87.384 300.278 83.8C300.278 87.384 303.094 90.2 306.678 90.2C303.094 90.2 300.278 93.144 300.278 96.6ZM274.678 96.6C274.678 100.184 277.494 103 281.078 103C277.494 103 274.678 105.944 274.678 109.4C274.678 105.944 271.734 103 268.278 103C271.734 103 274.678 100.184 274.678 96.6ZM287.478 96.6C287.478 100.184 290.294 103 293.878 103C290.294 103 287.478 105.944 287.478 109.4C287.478 105.944 284.534 103 281.078 103C284.534 103 287.478 100.184 287.478 96.6ZM300.278 96.6C300.278 100.184 303.094 103 306.678 103C303.094 103 300.278 105.944 300.278 109.4C300.278 105.944 297.334 103 293.878 103C297.334 103 300.278 100.184 300.278 96.6ZM242.678 26.2C239.094 26.2 236.278 29.144 236.278 32.6C236.278 29.144 233.334 26.2 229.878 26.2C233.334 26.2 236.278 23.384 236.278 19.8C236.278 23.384 239.094 26.2 242.678 26.2ZM242.678 26.2C246.134 26.2 249.078 23.384 249.078 19.8C249.078 23.384 251.894 26.2 255.478 26.2C251.894 26.2 249.078 29.144 249.078 32.6C249.078 29.144 246.134 26.2 242.678 26.2ZM242.678 13.4C239.094 13.4 236.278 16.344 236.278 19.8C236.278 16.344 233.334 13.4 229.878 13.4C233.334 13.4 236.278 10.584 236.278 6.99999C236.278 10.584 239.094 13.4 242.678 13.4ZM249.078 19.8C249.078 16.344 246.134 13.4 242.678 13.4C246.134 13.4 249.078 10.584 249.078 6.99999C249.078 10.584 251.894 13.4 255.478 13.4C251.894 13.4 249.078 16.344 249.078 19.8ZM242.678 39C239.094 39 236.278 41.944 236.278 45.4C236.278 41.944 233.334 39 229.878 39C233.334 39 236.278 36.184 236.278 32.6C236.278 36.184 239.094 39 242.678 39ZM242.678 39C246.134 39 249.078 36.184 249.078 32.6C249.078 36.184 251.894 39 255.478 39C251.894 39 249.078 41.944 249.078 45.4C249.078 41.944 246.134 39 242.678 39ZM242.678 51.8C239.094 51.8 236.278 54.744 236.278 58.2C236.278 54.744 233.334 51.8 229.878 51.8C233.334 51.8 236.278 48.984 236.278 45.4C236.278 48.984 239.094 51.8 242.678 51.8ZM242.678 51.8C246.134 51.8 249.078 48.984 249.078 45.4C249.078 48.984 251.894 51.8 255.478 51.8C251.894 51.8 249.078 54.744 249.078 58.2C249.078 54.744 246.134 51.8 242.678 51.8ZM319.056 77.4C315.472 77.4 312.656 80.344 312.656 83.8C312.656 80.344 309.712 77.4 306.256 77.4C309.712 77.4 312.656 74.584 312.656 71C312.656 74.584 315.472 77.4 319.056 77.4ZM331.856 77.4C328.272 77.4 325.456 80.344 325.456 83.8C325.456 80.344 322.512 77.4 319.056 77.4C322.512 77.4 325.456 74.584 325.456 71C325.456 74.584 328.272 77.4 331.856 77.4ZM319.056 64.6C315.472 64.6 312.656 67.544 312.656 71C312.656 67.544 309.712 64.6 306.256 64.6C309.712 64.6 312.656 61.784 312.656 58.2C312.656 61.784 315.472 64.6 319.056 64.6ZM331.856 64.6C328.272 64.6 325.456 67.544 325.456 71C325.456 67.544 322.512 64.6 319.056 64.6C322.512 64.6 325.456 61.784 325.456 58.2C325.456 61.784 328.272 64.6 331.856 64.6ZM312.656 83.8C312.656 87.384 315.472 90.2 319.056 90.2C315.472 90.2 312.656 93.144 312.656 96.6C312.656 93.144 309.712 90.2 306.256 90.2C309.712 90.2 312.656 87.384 312.656 83.8ZM331.856 90.2C328.272 90.2 325.456 93.144 325.456 96.6C325.456 93.144 322.512 90.2 319.056 90.2C322.512 90.2 325.456 87.384 325.456 83.8C325.456 87.384 328.272 90.2 331.856 90.2ZM338.256 83.8C338.256 87.384 341.072 90.2 344.656 90.2C341.072 90.2 338.256 93.144 338.256 96.6C338.256 93.144 335.312 90.2 331.856 90.2C335.312 90.2 338.256 87.384 338.256 83.8ZM325.456 96.6C325.456 100.184 328.272 103 331.856 103C328.272 103 325.456 105.944 325.456 109.4C325.456 105.944 322.512 103 319.056 103C322.512 103 325.456 100.184 325.456 96.6ZM338.256 96.6C338.256 100.184 341.072 103 344.656 103C341.072 103 338.256 105.944 338.256 109.4C338.256 105.944 335.312 103 331.856 103C335.312 103 338.256 100.184 338.256 96.6ZM357.456 77.4C360.912 77.4 363.856 74.584 363.856 71C363.856 74.584 366.672 77.4 370.256 77.4C366.672 77.4 363.856 80.344 363.856 83.8C363.856 80.344 360.912 77.4 357.456 77.4ZM370.256 77.4C373.712 77.4 376.656 74.584 376.656 71C376.656 74.584 379.472 77.4 383.056 77.4C379.472 77.4 376.656 80.344 376.656 83.8C376.656 80.344 373.712 77.4 370.256 77.4ZM357.456 64.6C360.912 64.6 363.856 61.784 363.856 58.2C363.856 61.784 366.672 64.6 370.256 64.6C366.672 64.6 363.856 67.544 363.856 71C363.856 67.544 360.912 64.6 357.456 64.6ZM370.256 64.6C373.712 64.6 376.656 61.784 376.656 58.2C376.656 61.784 379.472 64.6 383.056 64.6C379.472 64.6 376.656 67.544 376.656 71C376.656 67.544 373.712 64.6 370.256 64.6ZM351.056 83.8C351.056 87.384 353.872 90.2 357.456 90.2C353.872 90.2 351.056 93.144 351.056 96.6C351.056 93.144 348.112 90.2 344.656 90.2C348.112 90.2 351.056 87.384 351.056 83.8ZM363.856 83.8C363.856 87.384 366.672 90.2 370.256 90.2C366.672 90.2 363.856 93.144 363.856 96.6C363.856 93.144 360.912 90.2 357.456 90.2C360.912 90.2 363.856 87.384 363.856 83.8ZM370.256 90.2C373.712 90.2 376.656 87.384 376.656 83.8C376.656 87.384 379.472 90.2 383.056 90.2C379.472 90.2 376.656 93.144 376.656 96.6C376.656 93.144 373.712 90.2 370.256 90.2ZM351.056 96.6C351.056 100.184 353.872 103 357.456 103C353.872 103 351.056 105.944 351.056 109.4C351.056 105.944 348.112 103 344.656 103C348.112 103 351.056 100.184 351.056 96.6ZM357.456 103C360.912 103 363.856 100.184 363.856 96.6C363.856 100.184 366.672 103 370.256 103C366.672 103 363.856 105.944 363.856 109.4C363.856 105.944 360.912 103 357.456 103ZM319.056 26.2C315.472 26.2 312.656 29.144 312.656 32.6C312.656 29.144 309.712 26.2 306.256 26.2C309.712 26.2 312.656 23.384 312.656 19.8C312.656 23.384 315.472 26.2 319.056 26.2ZM325.456 32.6C325.456 29.144 322.512 26.2 319.056 26.2C322.512 26.2 325.456 23.384 325.456 19.8C325.456 23.384 328.272 26.2 331.856 26.2C328.272 26.2 325.456 29.144 325.456 32.6ZM338.256 32.6C338.256 29.144 335.312 26.2 331.856 26.2C335.312 26.2 338.256 23.384 338.256 19.8C338.256 23.384 341.072 26.2 344.656 26.2C341.072 26.2 338.256 29.144 338.256 32.6ZM331.856 13.4C328.272 13.4 325.456 16.344 325.456 19.8C325.456 16.344 322.512 13.4 319.056 13.4C322.512 13.4 325.456 10.584 325.456 6.99999C325.456 10.584 328.272 13.4 331.856 13.4ZM338.256 19.8C338.256 16.344 335.312 13.4 331.856 13.4C335.312 13.4 338.256 10.584 338.256 6.99999C338.256 10.584 341.072 13.4 344.656 13.4C341.072 13.4 338.256 16.344 338.256 19.8ZM319.056 39C315.472 39 312.656 41.944 312.656 45.4C312.656 41.944 309.712 39 306.256 39C309.712 39 312.656 36.184 312.656 32.6C312.656 36.184 315.472 39 319.056 39ZM331.856 39C328.272 39 325.456 41.944 325.456 45.4C325.456 41.944 322.512 39 319.056 39C322.512 39 325.456 36.184 325.456 32.6C325.456 36.184 328.272 39 331.856 39ZM319.056 51.8C315.472 51.8 312.656 54.744 312.656 58.2C312.656 54.744 309.712 51.8 306.256 51.8C309.712 51.8 312.656 48.984 312.656 45.4C312.656 48.984 315.472 51.8 319.056 51.8ZM331.856 51.8C328.272 51.8 325.456 54.744 325.456 58.2C325.456 54.744 322.512 51.8 319.056 51.8C322.512 51.8 325.456 48.984 325.456 45.4C325.456 48.984 328.272 51.8 331.856 51.8ZM351.056 32.6C351.056 29.144 348.112 26.2 344.656 26.2C348.112 26.2 351.056 23.384 351.056 19.8C351.056 23.384 353.872 26.2 357.456 26.2C353.872 26.2 351.056 29.144 351.056 32.6ZM357.456 26.2C360.912 26.2 363.856 23.384 363.856 19.8C363.856 23.384 366.672 26.2 370.256 26.2C366.672 26.2 363.856 29.144 363.856 32.6C363.856 29.144 360.912 26.2 357.456 26.2ZM376.656 32.6C376.656 29.144 373.712 26.2 370.256 26.2C373.712 26.2 376.656 23.384 376.656 19.8C376.656 23.384 379.472 26.2 383.056 26.2C379.472 26.2 376.656 29.144 376.656 32.6ZM351.056 19.8C351.056 16.344 348.112 13.4 344.656 13.4C348.112 13.4 351.056 10.584 351.056 6.99999C351.056 10.584 353.872 13.4 357.456 13.4C353.872 13.4 351.056 16.344 351.056 19.8ZM363.856 19.8C363.856 16.344 360.912 13.4 357.456 13.4C360.912 13.4 363.856 10.584 363.856 6.99999C363.856 10.584 366.672 13.4 370.256 13.4C366.672 13.4 363.856 16.344 363.856 19.8ZM363.856 32.6C363.856 36.184 366.672 39 370.256 39C366.672 39 363.856 41.944 363.856 45.4C363.856 41.944 360.912 39 357.456 39C360.912 39 363.856 36.184 363.856 32.6ZM383.056 39C379.472 39 376.656 41.944 376.656 45.4C376.656 41.944 373.712 39 370.256 39C373.712 39 376.656 36.184 376.656 32.6C376.656 36.184 379.472 39 383.056 39ZM357.456 51.8C360.912 51.8 363.856 48.984 363.856 45.4C363.856 48.984 366.672 51.8 370.256 51.8C366.672 51.8 363.856 54.744 363.856 58.2C363.856 54.744 360.912 51.8 357.456 51.8ZM370.256 51.8C373.712 51.8 376.656 48.984 376.656 45.4C376.656 48.984 379.472 51.8 383.056 51.8C379.472 51.8 376.656 54.744 376.656 58.2C376.656 54.744 373.712 51.8 370.256 51.8ZM395.434 77.4C391.85 77.4 389.034 80.344 389.034 83.8C389.034 80.344 386.09 77.4 382.634 77.4C386.09 77.4 389.034 74.584 389.034 71C389.034 74.584 391.85 77.4 395.434 77.4ZM408.234 77.4C404.65 77.4 401.834 80.344 401.834 83.8C401.834 80.344 398.89 77.4 395.434 77.4C398.89 77.4 401.834 74.584 401.834 71C401.834 74.584 404.65 77.4 408.234 77.4ZM395.434 64.6C391.85 64.6 389.034 67.544 389.034 71C389.034 67.544 386.09 64.6 382.634 64.6C386.09 64.6 389.034 61.784 389.034 58.2C389.034 61.784 391.85 64.6 395.434 64.6ZM408.234 64.6C404.65 64.6 401.834 67.544 401.834 71C401.834 67.544 398.89 64.6 395.434 64.6C398.89 64.6 401.834 61.784 401.834 58.2C401.834 61.784 404.65 64.6 408.234 64.6ZM395.434 90.2C391.85 90.2 389.034 93.144 389.034 96.6C389.034 93.144 386.09 90.2 382.634 90.2C386.09 90.2 389.034 87.384 389.034 83.8C389.034 87.384 391.85 90.2 395.434 90.2ZM401.834 83.8C401.834 87.384 404.65 90.2 408.234 90.2C404.65 90.2 401.834 93.144 401.834 96.6C401.834 93.144 398.89 90.2 395.434 90.2C398.89 90.2 401.834 87.384 401.834 83.8ZM414.634 83.8C414.634 87.384 417.45 90.2 421.034 90.2C417.45 90.2 414.634 93.144 414.634 96.6C414.634 93.144 411.69 90.2 408.234 90.2C411.69 90.2 414.634 87.384 414.634 83.8ZM389.034 96.6C389.034 100.184 391.85 103 395.434 103C391.85 103 389.034 105.944 389.034 109.4C389.034 105.944 386.09 103 382.634 103C386.09 103 389.034 100.184 389.034 96.6ZM401.834 96.6C401.834 100.184 404.65 103 408.234 103C404.65 103 401.834 105.944 401.834 109.4C401.834 105.944 398.89 103 395.434 103C398.89 103 401.834 100.184 401.834 96.6ZM414.634 96.6C414.634 100.184 417.45 103 421.034 103C417.45 103 414.634 105.944 414.634 109.4C414.634 105.944 411.69 103 408.234 103C411.69 103 414.634 100.184 414.634 96.6ZM433.834 77.4C437.29 77.4 440.234 74.584 440.234 71C440.234 74.584 443.05 77.4 446.634 77.4C443.05 77.4 440.234 80.344 440.234 83.8C440.234 80.344 437.29 77.4 433.834 77.4ZM446.634 77.4C450.09 77.4 453.034 74.584 453.034 71C453.034 74.584 455.85 77.4 459.434 77.4C455.85 77.4 453.034 80.344 453.034 83.8C453.034 80.344 450.09 77.4 446.634 77.4ZM433.834 64.6C437.29 64.6 440.234 61.784 440.234 58.2C440.234 61.784 443.05 64.6 446.634 64.6C443.05 64.6 440.234 67.544 440.234 71C440.234 67.544 437.29 64.6 433.834 64.6ZM446.634 64.6C450.09 64.6 453.034 61.784 453.034 58.2C453.034 61.784 455.85 64.6 459.434 64.6C455.85 64.6 453.034 67.544 453.034 71C453.034 67.544 450.09 64.6 446.634 64.6ZM427.434 83.8C427.434 87.384 430.25 90.2 433.834 90.2C430.25 90.2 427.434 93.144 427.434 96.6C427.434 93.144 424.49 90.2 421.034 90.2C424.49 90.2 427.434 87.384 427.434 83.8ZM440.234 83.8C440.234 87.384 443.05 90.2 446.634 90.2C443.05 90.2 440.234 93.144 440.234 96.6C440.234 93.144 437.29 90.2 433.834 90.2C437.29 90.2 440.234 87.384 440.234 83.8ZM446.634 90.2C450.09 90.2 453.034 87.384 453.034 83.8C453.034 87.384 455.85 90.2 459.434 90.2C455.85 90.2 453.034 93.144 453.034 96.6C453.034 93.144 450.09 90.2 446.634 90.2ZM427.434 96.6C427.434 100.184 430.25 103 433.834 103C430.25 103 427.434 105.944 427.434 109.4C427.434 105.944 424.49 103 421.034 103C424.49 103 427.434 100.184 427.434 96.6ZM433.834 103C437.29 103 440.234 100.184 440.234 96.6C440.234 100.184 443.05 103 446.634 103C443.05 103 440.234 105.944 440.234 109.4C440.234 105.944 437.29 103 433.834 103ZM395.434 26.2C391.85 26.2 389.034 29.144 389.034 32.6C389.034 29.144 386.09 26.2 382.634 26.2C386.09 26.2 389.034 23.384 389.034 19.8C389.034 23.384 391.85 26.2 395.434 26.2ZM408.234 26.2C404.65 26.2 401.834 29.144 401.834 32.6C401.834 29.144 398.89 26.2 395.434 26.2C398.89 26.2 401.834 23.384 401.834 19.8C401.834 23.384 404.65 26.2 408.234 26.2ZM414.634 32.6C414.634 29.144 411.69 26.2 408.234 26.2C411.69 26.2 414.634 23.384 414.634 19.8C414.634 23.384 417.45 26.2 421.034 26.2C417.45 26.2 414.634 29.144 414.634 32.6ZM395.434 13.4C391.85 13.4 389.034 16.344 389.034 19.8C389.034 16.344 386.09 13.4 382.634 13.4C386.09 13.4 389.034 10.584 389.034 6.99999C389.034 10.584 391.85 13.4 395.434 13.4ZM401.834 19.8C401.834 16.344 398.89 13.4 395.434 13.4C398.89 13.4 401.834 10.584 401.834 6.99999C401.834 10.584 404.65 13.4 408.234 13.4C404.65 13.4 401.834 16.344 401.834 19.8ZM414.634 19.8C414.634 16.344 411.69 13.4 408.234 13.4C411.69 13.4 414.634 10.584 414.634 6.99999C414.634 10.584 417.45 13.4 421.034 13.4C417.45 13.4 414.634 16.344 414.634 19.8ZM395.434 39C391.85 39 389.034 41.944 389.034 45.4C389.034 41.944 386.09 39 382.634 39C386.09 39 389.034 36.184 389.034 32.6C389.034 36.184 391.85 39 395.434 39ZM408.234 39C404.65 39 401.834 41.944 401.834 45.4C401.834 41.944 398.89 39 395.434 39C398.89 39 401.834 36.184 401.834 32.6C401.834 36.184 404.65 39 408.234 39ZM395.434 51.8C391.85 51.8 389.034 54.744 389.034 58.2C389.034 54.744 386.09 51.8 382.634 51.8C386.09 51.8 389.034 48.984 389.034 45.4C389.034 48.984 391.85 51.8 395.434 51.8ZM408.234 51.8C404.65 51.8 401.834 54.744 401.834 58.2C401.834 54.744 398.89 51.8 395.434 51.8C398.89 51.8 401.834 48.984 401.834 45.4C401.834 48.984 404.65 51.8 408.234 51.8ZM427.434 32.6C427.434 29.144 424.49 26.2 421.034 26.2C424.49 26.2 427.434 23.384 427.434 19.8C427.434 23.384 430.25 26.2 433.834 26.2C430.25 26.2 427.434 29.144 427.434 32.6ZM433.834 26.2C437.29 26.2 440.234 23.384 440.234 19.8C440.234 23.384 443.05 26.2 446.634 26.2C443.05 26.2 440.234 29.144 440.234 32.6C440.234 29.144 437.29 26.2 433.834 26.2ZM453.034 32.6C453.034 29.144 450.09 26.2 446.634 26.2C450.09 26.2 453.034 23.384 453.034 19.8C453.034 23.384 455.85 26.2 459.434 26.2C455.85 26.2 453.034 29.144 453.034 32.6ZM427.434 19.8C427.434 16.344 424.49 13.4 421.034 13.4C424.49 13.4 427.434 10.584 427.434 6.99999C427.434 10.584 430.25 13.4 433.834 13.4C430.25 13.4 427.434 16.344 427.434 19.8ZM440.234 19.8C440.234 16.344 437.29 13.4 433.834 13.4C437.29 13.4 440.234 10.584 440.234 6.99999C440.234 10.584 443.05 13.4 446.634 13.4C443.05 13.4 440.234 16.344 440.234 19.8ZM440.234 32.6C440.234 36.184 443.05 39 446.634 39C443.05 39 440.234 41.944 440.234 45.4C440.234 41.944 437.29 39 433.834 39C437.29 39 440.234 36.184 440.234 32.6ZM459.434 39C455.85 39 453.034 41.944 453.034 45.4C453.034 41.944 450.09 39 446.634 39C450.09 39 453.034 36.184 453.034 32.6C453.034 36.184 455.85 39 459.434 39ZM433.834 51.8C437.29 51.8 440.234 48.984 440.234 45.4C440.234 48.984 443.05 51.8 446.634 51.8C443.05 51.8 440.234 54.744 440.234 58.2C440.234 54.744 437.29 51.8 433.834 51.8ZM446.634 51.8C450.09 51.8 453.034 48.984 453.034 45.4C453.034 48.984 455.85 51.8 459.434 51.8C455.85 51.8 453.034 54.744 453.034 58.2C453.034 54.744 450.09 51.8 446.634 51.8ZM471.812 77.4C468.228 77.4 465.412 80.344 465.412 83.8C465.412 80.344 462.468 77.4 459.012 77.4C462.468 77.4 465.412 74.584 465.412 71C465.412 74.584 468.228 77.4 471.812 77.4ZM471.812 77.4C475.268 77.4 478.212 74.584 478.212 71C478.212 74.584 481.028 77.4 484.612 77.4C481.028 77.4 478.212 80.344 478.212 83.8C478.212 80.344 475.268 77.4 471.812 77.4ZM471.812 64.6C468.228 64.6 465.412 67.544 465.412 71C465.412 67.544 462.468 64.6 459.012 64.6C462.468 64.6 465.412 61.784 465.412 58.2C465.412 61.784 468.228 64.6 471.812 64.6ZM478.212 58.2C478.212 61.784 481.028 64.6 484.612 64.6C481.028 64.6 478.212 67.544 478.212 71C478.212 67.544 475.268 64.6 471.812 64.6C475.268 64.6 478.212 61.784 478.212 58.2ZM491.012 58.2C491.012 61.784 493.828 64.6 497.412 64.6C493.828 64.6 491.012 67.544 491.012 71C491.012 67.544 488.068 64.6 484.612 64.6C488.068 64.6 491.012 61.784 491.012 58.2ZM465.412 83.8C465.412 87.384 468.228 90.2 471.812 90.2C468.228 90.2 465.412 93.144 465.412 96.6C465.412 93.144 462.468 90.2 459.012 90.2C462.468 90.2 465.412 87.384 465.412 83.8ZM471.812 90.2C475.268 90.2 478.212 87.384 478.212 83.8C478.212 87.384 481.028 90.2 484.612 90.2C481.028 90.2 478.212 93.144 478.212 96.6C478.212 93.144 475.268 90.2 471.812 90.2ZM491.012 96.6C491.012 93.144 488.068 90.2 484.612 90.2C488.068 90.2 491.012 87.384 491.012 83.8C491.012 87.384 493.828 90.2 497.412 90.2C493.828 90.2 491.012 93.144 491.012 96.6ZM478.212 96.6C478.212 100.184 481.028 103 484.612 103C481.028 103 478.212 105.944 478.212 109.4C478.212 105.944 475.268 103 471.812 103C475.268 103 478.212 100.184 478.212 96.6ZM491.012 96.6C491.012 100.184 493.828 103 497.412 103C493.828 103 491.012 105.944 491.012 109.4C491.012 105.944 488.068 103 484.612 103C488.068 103 491.012 100.184 491.012 96.6ZM503.812 58.2C503.812 61.784 506.628 64.6 510.212 64.6C506.628 64.6 503.812 67.544 503.812 71C503.812 67.544 500.868 64.6 497.412 64.6C500.868 64.6 503.812 61.784 503.812 58.2ZM516.612 58.2C516.612 61.784 519.428 64.6 523.012 64.6C519.428 64.6 516.612 67.544 516.612 71C516.612 67.544 513.668 64.6 510.212 64.6C513.668 64.6 516.612 61.784 516.612 58.2ZM503.812 96.6C503.812 93.144 500.868 90.2 497.412 90.2C500.868 90.2 503.812 87.384 503.812 83.8C503.812 87.384 506.628 90.2 510.212 90.2C506.628 90.2 503.812 93.144 503.812 96.6ZM516.612 96.6C516.612 93.144 513.668 90.2 510.212 90.2C513.668 90.2 516.612 87.384 516.612 83.8C516.612 87.384 519.428 90.2 523.012 90.2C519.428 90.2 516.612 93.144 516.612 96.6ZM529.412 96.6C529.412 93.144 526.468 90.2 523.012 90.2C526.468 90.2 529.412 87.384 529.412 83.8C529.412 87.384 532.228 90.2 535.812 90.2C532.228 90.2 529.412 93.144 529.412 96.6ZM503.812 96.6C503.812 100.184 506.628 103 510.212 103C506.628 103 503.812 105.944 503.812 109.4C503.812 105.944 500.868 103 497.412 103C500.868 103 503.812 100.184 503.812 96.6ZM516.612 96.6C516.612 100.184 519.428 103 523.012 103C519.428 103 516.612 105.944 516.612 109.4C516.612 105.944 513.668 103 510.212 103C513.668 103 516.612 100.184 516.612 96.6ZM523.012 103C526.468 103 529.412 100.184 529.412 96.6C529.412 100.184 532.228 103 535.812 103C532.228 103 529.412 105.944 529.412 109.4C529.412 105.944 526.468 103 523.012 103ZM471.812 26.2C468.228 26.2 465.412 29.144 465.412 32.6C465.412 29.144 462.468 26.2 459.012 26.2C462.468 26.2 465.412 23.384 465.412 19.8C465.412 23.384 468.228 26.2 471.812 26.2ZM484.612 26.2C481.028 26.2 478.212 29.144 478.212 32.6C478.212 29.144 475.268 26.2 471.812 26.2C475.268 26.2 478.212 23.384 478.212 19.8C478.212 23.384 481.028 26.2 484.612 26.2ZM491.012 19.8C491.012 23.384 493.828 26.2 497.412 26.2C493.828 26.2 491.012 29.144 491.012 32.6C491.012 29.144 488.068 26.2 484.612 26.2C488.068 26.2 491.012 23.384 491.012 19.8ZM484.612 13.4C481.028 13.4 478.212 16.344 478.212 19.8C478.212 16.344 475.268 13.4 471.812 13.4C475.268 13.4 478.212 10.584 478.212 6.99999C478.212 10.584 481.028 13.4 484.612 13.4ZM491.012 19.8C491.012 16.344 488.068 13.4 484.612 13.4C488.068 13.4 491.012 10.584 491.012 6.99999C491.012 10.584 493.828 13.4 497.412 13.4C493.828 13.4 491.012 16.344 491.012 19.8ZM471.812 39C468.228 39 465.412 41.944 465.412 45.4C465.412 41.944 462.468 39 459.012 39C462.468 39 465.412 36.184 465.412 32.6C465.412 36.184 468.228 39 471.812 39ZM471.812 39C475.268 39 478.212 36.184 478.212 32.6C478.212 36.184 481.028 39 484.612 39C481.028 39 478.212 41.944 478.212 45.4C478.212 41.944 475.268 39 471.812 39ZM471.812 51.8C468.228 51.8 465.412 54.744 465.412 58.2C465.412 54.744 462.468 51.8 459.012 51.8C462.468 51.8 465.412 48.984 465.412 45.4C465.412 48.984 468.228 51.8 471.812 51.8ZM471.812 51.8C475.268 51.8 478.212 48.984 478.212 45.4C478.212 48.984 481.028 51.8 484.612 51.8C481.028 51.8 478.212 54.744 478.212 58.2C478.212 54.744 475.268 51.8 471.812 51.8ZM491.012 58.2C491.012 54.744 488.068 51.8 484.612 51.8C488.068 51.8 491.012 48.984 491.012 45.4C491.012 48.984 493.828 51.8 497.412 51.8C493.828 51.8 491.012 54.744 491.012 58.2ZM503.812 19.8C503.812 23.384 506.628 26.2 510.212 26.2C506.628 26.2 503.812 29.144 503.812 32.6C503.812 29.144 500.868 26.2 497.412 26.2C500.868 26.2 503.812 23.384 503.812 19.8ZM516.612 19.8C516.612 23.384 519.428 26.2 523.012 26.2C519.428 26.2 516.612 29.144 516.612 32.6C516.612 29.144 513.668 26.2 510.212 26.2C513.668 26.2 516.612 23.384 516.612 19.8ZM523.012 26.2C526.468 26.2 529.412 23.384 529.412 19.8C529.412 23.384 532.228 26.2 535.812 26.2C532.228 26.2 529.412 29.144 529.412 32.6C529.412 29.144 526.468 26.2 523.012 26.2ZM503.812 19.8C503.812 16.344 500.868 13.4 497.412 13.4C500.868 13.4 503.812 10.584 503.812 6.99999C503.812 10.584 506.628 13.4 510.212 13.4C506.628 13.4 503.812 16.344 503.812 19.8ZM516.612 19.8C516.612 16.344 513.668 13.4 510.212 13.4C513.668 13.4 516.612 10.584 516.612 6.99999C516.612 10.584 519.428 13.4 523.012 13.4C519.428 13.4 516.612 16.344 516.612 19.8ZM529.412 19.8C529.412 16.344 526.468 13.4 523.012 13.4C526.468 13.4 529.412 10.584 529.412 6.99999C529.412 10.584 532.228 13.4 535.812 13.4C532.228 13.4 529.412 16.344 529.412 19.8ZM503.812 58.2C503.812 54.744 500.868 51.8 497.412 51.8C500.868 51.8 503.812 48.984 503.812 45.4C503.812 48.984 506.628 51.8 510.212 51.8C506.628 51.8 503.812 54.744 503.812 58.2ZM516.612 58.2C516.612 54.744 513.668 51.8 510.212 51.8C513.668 51.8 516.612 48.984 516.612 45.4C516.612 48.984 519.428 51.8 523.012 51.8C519.428 51.8 516.612 54.744 516.612 58.2ZM523.012 64.6C526.468 64.6 529.412 61.784 529.412 58.2C529.412 61.784 532.228 64.6 535.812 64.6C532.228 64.6 529.412 67.544 529.412 71C529.412 67.544 526.468 64.6 523.012 64.6ZM529.412 58.2C529.412 54.744 526.468 51.8 523.012 51.8C526.468 51.8 529.412 48.984 529.412 45.4C529.412 48.984 532.228 51.8 535.812 51.8C532.228 51.8 529.412 54.744 529.412 58.2Z" fill="white"/>
</svg>
