<svg width="442" height="77" viewBox="0 0 442 77" fill="none" xmlns="http://www.w3.org/2000/svg">
<path d="M0.698438 4.89599H48.6984V14.496H29.4984V72H19.8984V14.496H0.698438V4.89599ZM110.869 24C108.181 24 106.069 26.208 106.069 28.8C106.069 31.488 108.181 33.6 110.869 33.6C108.181 33.6 106.069 35.808 106.069 38.4C106.069 35.808 103.861 33.6 101.269 33.6C98.5809 33.6 96.4689 35.808 96.4689 38.4C96.4689 41.088 98.5809 43.2 101.269 43.2C98.5809 43.2 96.4689 45.408 96.4689 48C96.4689 45.408 94.2609 43.2 91.6689 43.2C88.9809 43.2 86.8689 45.408 86.8689 48C86.8689 50.688 88.9809 52.8 91.6689 52.8C94.2609 52.8 96.4689 50.688 96.4689 48C96.4689 50.688 98.5809 52.8 101.269 52.8C98.5809 52.8 96.4689 55.008 96.4689 57.6C96.4689 60.288 98.5809 62.4 101.269 62.4C103.861 62.4 106.069 60.288 106.069 57.6C106.069 60.288 108.181 62.4 110.869 62.4C108.181 62.4 106.069 64.608 106.069 67.2C106.069 69.888 108.181 72 110.869 72C108.181 72 106.069 74.208 106.069 76.8C106.069 74.208 103.861 72 101.269 72C98.5809 72 96.4689 74.208 96.4689 76.8C96.4689 74.208 94.2609 72 91.6689 72C94.2609 72 96.4689 69.888 96.4689 67.2C96.4689 64.608 94.2609 62.4 91.6689 62.4C88.9809 62.4 86.8689 64.608 86.8689 67.2C86.8689 64.608 84.6609 62.4 82.0689 62.4C84.6609 62.4 86.8689 60.288 86.8689 57.6C86.8689 55.008 84.6609 52.8 82.0689 52.8C79.3809 52.8 77.2689 55.008 77.2689 57.6C77.2689 55.008 75.0609 52.8 72.4689 52.8C75.0609 52.8 77.2689 50.688 77.2689 48C77.2689 45.408 75.0609 43.2 72.4689 43.2C75.0609 43.2 77.2689 41.088 77.2689 38.4C77.2689 35.808 75.0609 33.6 72.4689 33.6C75.0609 33.6 77.2689 31.488 77.2689 28.8C77.2689 31.488 79.3809 33.6 82.0689 33.6C84.6609 33.6 86.8689 31.488 86.8689 28.8C86.8689 31.488 88.9809 33.6 91.6689 33.6C94.2609 33.6 96.4689 31.488 96.4689 28.8C96.4689 26.208 94.2609 24 91.6689 24C94.2609 24 96.4689 21.888 96.4689 19.2C96.4689 16.608 94.2609 14.4 91.6689 14.4C88.9809 14.4 86.8689 16.608 86.8689 19.2C86.8689 16.608 84.6609 14.4 82.0689 14.4C79.3809 14.4 77.2689 16.608 77.2689 19.2C77.2689 16.608 75.0609 14.4 72.4689 14.4C69.7809 14.4 67.6689 16.608 67.6689 19.2C67.6689 21.888 69.7809 24 72.4689 24C69.7809 24 67.6689 26.208 67.6689 28.8C67.6689 31.488 69.7809 33.6 72.4689 33.6C69.7809 33.6 67.6689 35.808 67.6689 38.4C67.6689 41.088 69.7809 43.2 72.4689 43.2C69.7809 43.2 67.6689 45.408 67.6689 48C67.6689 50.688 69.7809 52.8 72.4689 52.8C69.7809 52.8 67.6689 55.008 67.6689 57.6C67.6689 60.288 69.7809 62.4 72.4689 62.4C69.7809 62.4 67.6689 64.608 67.6689 67.2C67.6689 69.888 69.7809 72 72.4689 72C69.7809 72 67.6689 74.208 67.6689 76.8C67.6689 74.208 65.4609 72 62.8689 72C60.1809 72 58.0689 74.208 58.0689 76.8C58.0689 74.208 55.8609 72 53.2689 72C55.8609 72 58.0689 69.888 58.0689 67.2C58.0689 64.608 55.8609 62.4 53.2689 62.4C55.8609 62.4 58.0689 60.288 58.0689 57.6C58.0689 55.008 55.8609 52.8 53.2689 52.8C55.8609 52.8 58.0689 50.688 58.0689 48C58.0689 45.408 55.8609 43.2 53.2689 43.2C55.8609 43.2 58.0689 41.088 58.0689 38.4C58.0689 35.808 55.8609 33.6 53.2689 33.6C55.8609 33.6 58.0689 31.488 58.0689 28.8C58.0689 26.208 55.8609 24 53.2689 24C55.8609 24 58.0689 21.888 58.0689 19.2C58.0689 16.608 55.8609 14.4 53.2689 14.4C55.8609 14.4 58.0689 12.288 58.0689 9.6C58.0689 12.288 60.1809 14.4 62.8689 14.4C65.4609 14.4 67.6689 12.288 67.6689 9.6C67.6689 7.008 65.4609 4.8 62.8689 4.8C65.4609 4.8 67.6689 2.68799 67.6689 -5.72205e-06C67.6689 2.68799 69.7809 4.8 72.4689 4.8C75.0609 4.8 77.2689 2.68799 77.2689 -5.72205e-06C77.2689 2.68799 79.3809 4.8 82.0689 4.8C84.6609 4.8 86.8689 2.68799 86.8689 -5.72205e-06C86.8689 2.68799 88.9809 4.8 91.6689 4.8C94.2609 4.8 96.4689 2.68799 96.4689 -5.72205e-06C96.4689 2.68799 98.5809 4.8 101.269 4.8C98.5809 4.8 96.4689 7.008 96.4689 9.6C96.4689 12.288 98.5809 14.4 101.269 14.4C103.861 14.4 106.069 12.288 106.069 9.6C106.069 12.288 108.181 14.4 110.869 14.4C108.181 14.4 106.069 16.608 106.069 19.2C106.069 21.888 108.181 24 110.869 24ZM125.142 4.89599V24H115.542V4.89599H125.142ZM153.942 4.89599H163.542V24H153.942V4.89599ZM134.742 33.6H125.142V24H134.742V33.6ZM134.742 72V33.6H144.342V72H134.742ZM144.342 33.6V24H153.942V33.6H144.342ZM206.686 43.2C203.998 43.2 201.886 41.088 201.886 38.4C201.886 35.808 203.998 33.6 206.686 33.6C209.278 33.6 211.486 35.808 211.486 38.4C211.486 41.088 209.278 43.2 206.686 43.2ZM211.486 28.8C211.486 31.488 209.278 33.6 206.686 33.6C203.998 33.6 201.886 31.488 201.886 28.8V9.696C201.886 7.008 203.998 4.89599 206.686 4.89599C209.278 4.89599 211.486 7.008 211.486 9.696V28.8ZM245.086 14.496C247.678 14.496 249.886 16.608 249.886 19.2V28.8C249.886 31.488 247.678 33.6 245.086 33.6C242.398 33.6 240.286 35.808 240.286 38.4C240.286 41.088 242.398 43.2 245.086 43.2C247.678 43.2 249.886 45.408 249.886 48V57.6C249.886 60.288 247.678 62.4 245.086 62.4C242.398 62.4 240.286 64.608 240.286 67.2C240.286 69.888 238.078 72 235.486 72H216.286C213.598 72 211.486 69.888 211.486 67.2C211.486 64.608 213.598 62.4 216.286 62.4H225.79C225.79 62.4 225.79 62.4 225.886 62.4H235.39C235.39 62.4 235.39 62.4 235.486 62.4C238.078 62.4 240.286 60.288 240.286 57.6V48C240.286 45.408 238.078 43.2 235.486 43.2H225.886C223.198 43.2 221.086 41.088 221.086 38.4C221.086 35.808 223.198 33.6 225.886 33.6H235.486C238.078 33.6 240.286 31.488 240.286 28.8V19.2C240.286 16.608 238.078 14.496 235.486 14.496H216.286C213.598 14.496 211.486 12.288 211.486 9.696C211.486 7.008 213.598 4.89599 216.286 4.89599H235.486C238.078 4.89599 240.286 7.008 240.286 9.696C240.286 12.288 242.398 14.496 245.086 14.496ZM211.486 48V67.2C211.486 69.888 209.278 72 206.686 72C203.998 72 201.886 69.888 201.886 67.2V48C201.886 45.408 203.998 43.2 206.686 43.2C209.278 43.2 211.486 45.408 211.486 48ZM312.056 33.6C309.368 33.6 307.256 35.808 307.256 38.4C307.256 41.088 309.368 43.2 312.056 43.2C309.368 43.2 307.256 45.408 307.256 48C307.256 50.688 309.368 52.8 312.056 52.8C309.368 52.8 307.256 55.008 307.256 57.6C307.256 60.288 309.368 62.4 312.056 62.4C309.368 62.4 307.256 64.608 307.256 67.2C307.256 69.888 309.368 72 312.056 72C309.368 72 307.256 74.208 307.256 76.8C307.256 74.208 305.048 72 302.456 72C299.768 72 297.656 74.208 297.656 76.8C297.656 74.208 295.448 72 292.856 72C295.448 72 297.656 69.888 297.656 67.2C297.656 64.608 295.448 62.4 292.856 62.4C295.448 62.4 297.656 60.288 297.656 57.6C297.656 55.008 295.448 52.8 292.856 52.8C295.448 52.8 297.656 50.688 297.656 48C297.656 45.408 295.448 43.2 292.856 43.2C290.168 43.2 288.056 45.408 288.056 48C288.056 45.408 285.848 43.2 283.256 43.2C280.568 43.2 278.456 45.408 278.456 48C278.456 45.408 276.248 43.2 273.656 43.2C270.968 43.2 268.856 45.408 268.856 48C268.856 50.688 270.968 52.8 273.656 52.8C270.968 52.8 268.856 55.008 268.856 57.6C268.856 60.288 270.968 62.4 273.656 62.4C270.968 62.4 268.856 64.608 268.856 67.2C268.856 69.888 270.968 72 273.656 72C270.968 72 268.856 74.208 268.856 76.8C268.856 74.208 266.648 72 264.056 72C261.368 72 259.256 74.208 259.256 76.8C259.256 74.208 257.048 72 254.456 72C257.048 72 259.256 69.888 259.256 67.2C259.256 64.608 257.048 62.4 254.456 62.4C257.048 62.4 259.256 60.288 259.256 57.6C259.256 55.008 257.048 52.8 254.456 52.8C257.048 52.8 259.256 50.688 259.256 48C259.256 45.408 257.048 43.2 254.456 43.2C257.048 43.2 259.256 41.088 259.256 38.4C259.256 35.808 257.048 33.6 254.456 33.6C257.048 33.6 259.256 31.488 259.256 28.8C259.256 26.208 257.048 24 254.456 24C257.048 24 259.256 21.888 259.256 19.2C259.256 21.888 261.368 24 264.056 24C266.648 24 268.856 21.888 268.856 19.2C268.856 16.608 266.648 14.4 264.056 14.4C266.648 14.4 268.856 12.288 268.856 9.6C268.856 12.288 270.968 14.4 273.656 14.4C276.248 14.4 278.456 12.288 278.456 9.6C278.456 7.008 276.248 4.8 273.656 4.8C276.248 4.8 278.456 2.68799 278.456 -5.72205e-06C278.456 2.68799 280.568 4.8 283.256 4.8C285.848 4.8 288.056 2.68799 288.056 -5.72205e-06C288.056 2.68799 290.168 4.8 292.856 4.8C290.168 4.8 288.056 7.008 288.056 9.6C288.056 12.288 290.168 14.4 292.856 14.4C295.448 14.4 297.656 12.288 297.656 9.6C297.656 12.288 299.768 14.4 302.456 14.4C299.768 14.4 297.656 16.608 297.656 19.2C297.656 21.888 299.768 24 302.456 24C305.048 24 307.256 21.888 307.256 19.2C307.256 21.888 309.368 24 312.056 24C309.368 24 307.256 26.208 307.256 28.8C307.256 31.488 309.368 33.6 312.056 33.6ZM273.656 24C270.968 24 268.856 26.208 268.856 28.8C268.856 31.488 270.968 33.6 273.656 33.6C276.248 33.6 278.456 31.488 278.456 28.8C278.456 31.488 280.568 33.6 283.256 33.6C285.848 33.6 288.056 31.488 288.056 28.8C288.056 31.488 290.168 33.6 292.856 33.6C295.448 33.6 297.656 31.488 297.656 28.8C297.656 26.208 295.448 24 292.856 24C290.168 24 288.056 26.208 288.056 28.8C288.056 26.208 285.848 24 283.256 24C285.848 24 288.056 21.888 288.056 19.2C288.056 16.608 285.848 14.4 283.256 14.4C280.568 14.4 278.456 16.608 278.456 19.2C278.456 21.888 280.568 24 283.256 24C280.568 24 278.456 26.208 278.456 28.8C278.456 26.208 276.248 24 273.656 24ZM326.33 4.89599V24.096H335.93V33.696H326.33V72H316.73V4.89599H326.33ZM355.13 4.89599H364.73V72H355.13V52.896H345.53V43.296H335.93V33.696H345.53V43.296H355.13V4.89599ZM383.892 14.496V62.4H374.292V14.496H383.892ZM412.692 24V14.496H383.892V4.89599H412.692V14.496H422.292V24H412.692ZM412.692 43.2H393.492V33.6H412.692V43.2ZM412.692 72H383.892V62.4H412.692V72ZM422.292 62.4H412.692V43.2H422.292V62.4ZM436.655 14.496H431.855V9.696H436.655V14.496ZM441.455 9.696H436.655V4.89599H441.455V9.696ZM436.655 24H431.855V19.2H436.655V24ZM441.455 19.2H436.655V14.496H441.455V19.2ZM436.655 33.6H431.855V28.8H436.655V33.6ZM441.455 28.8H436.655V24H441.455V28.8ZM436.655 43.2H431.855V38.4H436.655V43.2ZM441.455 38.4H436.655V33.6H441.455V38.4ZM436.655 52.8H431.855V48H436.655V52.8ZM441.455 48H436.655V43.2H441.455V48ZM436.655 72H431.855V67.2H436.655V72ZM441.455 67.2H436.655V62.4H441.455V67.2Z" fill="white"/>
</svg>
