<svg width="594" height="77" viewBox="0 0 594 77" fill="none" xmlns="http://www.w3.org/2000/svg">
<path d="M10.4 14.496V62.4H0.8V14.496H10.4ZM39.2 24V14.496H10.4V4.89599H39.2V14.496H48.8V24H39.2ZM39.2 43.2H20V33.6H39.2V43.2ZM39.2 72H10.4V62.4H39.2V72ZM48.8 62.4H39.2V43.2H48.8V62.4ZM63.1625 62.4C60.4745 62.4 58.3625 60.288 58.3625 57.6C58.3625 55.008 60.4745 52.8 63.1625 52.8C65.7545 52.8 67.9625 55.008 67.9625 57.6C67.9625 60.288 65.7545 62.4 63.1625 62.4ZM63.1625 52.8C60.4745 52.8 58.3625 50.688 58.3625 48C58.3625 45.408 60.4745 43.2 63.1625 43.2C65.7545 43.2 67.9625 45.408 67.9625 48C67.9625 50.688 65.7545 52.8 63.1625 52.8ZM77.5625 48C77.5625 45.408 79.6745 43.2 82.3625 43.2V52.8C79.6745 52.8 77.5625 50.688 77.5625 48ZM63.1625 72C60.4745 72 58.3625 69.888 58.3625 67.2C58.3625 64.608 60.4745 62.4 63.1625 62.4C65.7545 62.4 67.9625 64.608 67.9625 67.2C67.9625 69.888 65.7545 72 63.1625 72ZM91.9625 62.4C89.2745 62.4 87.1625 60.288 87.1625 57.6C87.1625 55.008 89.2745 52.8 91.9625 52.8C94.5545 52.8 96.7625 55.008 96.7625 57.6C96.7625 60.288 94.5545 62.4 91.9625 62.4ZM91.9625 43.2C89.2745 43.2 87.1625 41.088 87.1625 38.4C87.1625 35.808 89.2745 33.6 91.9625 33.6C94.5545 33.6 96.7625 35.808 96.7625 38.4C96.7625 41.088 94.5545 43.2 91.9625 43.2ZM82.3625 43.2C84.9545 43.2 87.1625 45.408 87.1625 48C87.1625 50.688 84.9545 52.8 82.3625 52.8V43.2ZM87.1625 38.4C87.1625 41.088 84.9545 43.2 82.3625 43.2V33.6C84.9545 33.6 87.1625 35.808 87.1625 38.4ZM101.562 72C98.8745 72 96.7625 69.888 96.7625 67.2C96.7625 64.608 98.8745 62.4 101.562 62.4C104.155 62.4 106.363 64.608 106.363 67.2C106.363 69.888 104.155 72 101.562 72ZM63.1625 24C60.4745 24 58.3625 21.888 58.3625 19.2C58.3625 16.608 60.4745 14.4 63.1625 14.4C65.7545 14.4 67.9625 16.608 67.9625 19.2C67.9625 21.888 65.7545 24 63.1625 24ZM63.1625 14.4C60.4745 14.4 58.3625 12.288 58.3625 9.696C58.3625 7.008 60.4745 4.89599 63.1625 4.89599C65.7545 4.89599 67.9625 7.008 67.9625 9.696C67.9625 12.288 65.7545 14.4 63.1625 14.4ZM77.5625 9.696C77.5625 7.008 79.6745 4.89599 82.3625 4.89599V14.496C79.6745 14.496 77.5625 12.288 77.5625 9.696ZM72.7625 14.496C70.0745 14.496 67.9625 12.288 67.9625 9.696C67.9625 7.008 70.0745 4.89599 72.7625 4.89599C75.3545 4.89599 77.5625 7.008 77.5625 9.696C77.5625 12.288 75.3545 14.496 72.7625 14.496ZM63.1625 33.6C60.4745 33.6 58.3625 31.488 58.3625 28.8C58.3625 26.208 60.4745 24 63.1625 24C65.7545 24 67.9625 26.208 67.9625 28.8C67.9625 31.488 65.7545 33.6 63.1625 33.6ZM63.1625 43.2C60.4745 43.2 58.3625 41.088 58.3625 38.4C58.3625 35.808 60.4745 33.6 63.1625 33.6C65.7545 33.6 67.9625 35.808 67.9625 38.4C67.9625 41.088 65.7545 43.2 63.1625 43.2ZM77.5625 38.4C77.5625 35.808 79.6745 33.6 82.3625 33.6V43.2C79.6745 43.2 77.5625 41.088 77.5625 38.4ZM91.9625 14.496C89.2745 14.496 87.1625 12.288 87.1625 9.696C87.1625 7.008 89.2745 4.89599 91.9625 4.89599C94.5545 4.89599 96.7625 7.008 96.7625 9.696C96.7625 12.288 94.5545 14.496 91.9625 14.496ZM87.1625 9.696C87.1625 12.288 84.9545 14.496 82.3625 14.496V4.89599C84.9545 4.89599 87.1625 7.008 87.1625 9.696ZM101.562 33.6C98.8745 33.6 96.7625 31.488 96.7625 28.8C96.7625 26.208 98.8745 24 101.562 24C104.155 24 106.363 26.208 106.363 28.8C106.363 31.488 104.155 33.6 101.562 33.6ZM101.562 24C98.8745 24 96.7625 21.888 96.7625 19.2C96.7625 16.608 98.8745 14.496 101.562 14.496C104.155 14.496 106.363 16.608 106.363 19.2C106.363 21.888 104.155 24 101.562 24ZM120.725 14.496H115.925V9.696H120.725V14.496ZM125.525 9.696H120.725V4.89599H125.525V9.696ZM120.725 72H115.925V67.2H120.725V72ZM125.525 67.2H120.725V62.4H125.525V67.2ZM130.325 72H125.525V67.2H130.325V72ZM135.125 67.2H130.325V62.4H135.125V67.2ZM139.925 72H135.125V67.2H139.925V72ZM144.725 67.2H139.925V62.4H144.725V67.2ZM149.525 72H144.725V67.2H149.525V72ZM154.325 67.2H149.525V62.4H154.325V67.2ZM159.125 67.2V62.4H163.925V67.2H159.125V72H154.325V67.2H159.125ZM130.325 14.496H125.525V9.696H130.325V14.496ZM135.125 9.696H130.325V4.89599H135.125V9.696ZM139.925 14.496H135.125V9.696H139.925V14.496ZM144.725 9.696H139.925V4.89599H144.725V9.696ZM139.925 24H135.125V19.2H139.925V24ZM144.725 19.2H139.925V14.496H144.725V19.2ZM139.925 33.6H135.125V28.8H139.925V33.6ZM144.725 28.8H139.925V24H144.725V28.8ZM139.925 38.4V43.2H135.125V38.4H139.925V33.6H144.725V38.4H139.925ZM139.925 52.8H135.125V48H139.925V52.8ZM144.725 48H139.925V43.2H144.725V48ZM139.925 62.4H135.125V57.6H139.925V62.4ZM144.725 57.6H139.925V52.8H144.725V57.6ZM149.525 14.496H144.725V9.696H149.525V14.496ZM154.325 9.696H149.525V4.89599H154.325V9.696ZM159.125 4.89599H163.925V9.696H159.125V14.496H154.325V9.696H159.125V4.89599ZM178.288 43.2C175.6 43.2 173.488 41.088 173.488 38.4C173.488 35.808 175.6 33.6 178.288 33.6C180.88 33.6 183.088 35.808 183.088 38.4C183.088 41.088 180.88 43.2 178.288 43.2ZM187.888 72C185.2 72 183.088 69.888 183.088 67.2C183.088 64.608 185.2 62.4 187.888 62.4C190.48 62.4 192.688 64.608 192.688 67.2C192.688 69.888 190.48 72 187.888 72ZM211.888 48C211.888 45.408 214 43.2 216.688 43.2C219.28 43.2 221.488 45.408 221.488 48V57.6C221.488 60.288 219.28 62.4 216.688 62.4C214 62.4 211.888 64.608 211.888 67.2C211.888 69.888 209.68 72 207.088 72H197.488C194.8 72 192.688 69.888 192.688 67.2C192.688 64.608 194.8 62.4 197.488 62.4H207.088C209.68 62.4 211.888 60.288 211.888 57.6V48ZM187.888 14.496C185.2 14.496 183.088 12.288 183.088 9.696C183.088 7.008 185.2 4.89599 187.888 4.89599H197.488C200.08 4.89599 202.288 7.008 202.288 9.696C202.288 12.288 200.08 14.496 197.488 14.496H187.888ZM183.088 28.8C183.088 31.488 180.88 33.6 178.288 33.6C175.6 33.6 173.488 31.488 173.488 28.8V9.696C173.488 7.008 175.6 4.89599 178.288 4.89599C180.88 4.89599 183.088 7.008 183.088 9.696V28.8ZM221.488 19.2V19.296H221.392H221.488V38.4C221.488 41.088 219.28 43.2 216.688 43.2C214 43.2 211.888 41.088 211.888 38.4V19.296C211.888 19.296 211.888 19.296 211.888 19.2C211.888 16.608 209.68 14.496 207.088 14.496C204.4 14.496 202.288 12.288 202.288 9.696C202.288 7.008 204.4 4.89599 207.088 4.89599C209.68 4.89599 211.888 7.008 211.888 9.696C211.888 12.288 214 14.496 216.688 14.496C219.28 14.496 221.488 16.608 221.488 19.2ZM182.992 48.096H183.088V67.296H182.992C182.992 69.984 180.88 72 178.288 72C175.6 72 173.488 69.984 173.488 67.296V48.096C173.488 48.096 173.488 48.096 173.488 48C173.488 45.408 175.6 43.296 178.288 43.296C180.88 43.296 183.088 45.408 183.088 48.096H182.992ZM263.431 52.8V62.4H292.231V72H263.431V62.4H253.831V52.8H263.431ZM263.431 43.2V33.6H253.831V14.496H263.431V4.89599H292.231V14.496H301.831V19.2C301.831 19.296 301.831 24 301.831 24H292.231V14.496H263.431V33.6H292.231V38.4C292.231 38.496 292.231 43.2 292.231 43.2H287.431C287.335 43.2 277.831 43.2 277.831 43.2C277.735 43.2 268.231 43.2 268.231 43.2C268.135 43.2 263.431 43.2 263.431 43.2ZM301.831 62.4H292.231V43.2H301.831V62.4ZM316.194 14.496H311.394V9.696H316.194V14.496ZM320.994 9.696H316.194V4.89599H320.994V9.696ZM354.594 14.496H349.794V9.696H354.594V14.496ZM359.394 9.696H354.594V4.89599H359.394V9.696ZM316.194 24H311.394V19.2H316.194V24ZM320.994 19.2H316.194V14.496H320.994V19.2ZM325.794 28.896V24.096H330.594V28.896H325.794V33.696H320.994V28.896H325.794ZM330.594 43.296V38.496H335.394V43.2H340.194V48H335.394V43.296H330.594ZM340.194 38.496H335.394V33.696H340.194V38.496ZM344.994 33.6H340.194V28.8H344.994V33.6ZM330.594 52.8V48H335.394V52.8H340.194V57.6H335.394V52.8H330.594ZM330.594 62.4V57.6H335.394V62.4H340.194V67.2H335.394V62.4H330.594ZM335.394 72H330.594V67.2H335.394V72ZM349.794 24V19.296H354.594V24H349.794V28.8H344.994V24H349.794ZM359.394 19.296H354.594V14.496H359.394V19.296ZM383.356 62.4C385.948 62.4 388.156 64.608 388.156 67.2C388.156 69.888 385.948 72 383.356 72C380.668 72 378.556 69.888 378.556 67.2C378.556 64.608 376.348 62.4 373.756 62.4C371.068 62.4 368.956 60.288 368.956 57.6C368.956 55.008 371.068 52.8 373.756 52.8C376.348 52.8 378.556 55.008 378.556 57.6C378.556 60.288 380.668 62.4 383.356 62.4ZM407.356 57.6C407.356 55.008 409.468 52.8 412.156 52.8C414.748 52.8 416.956 55.008 416.956 57.6C416.956 60.288 414.748 62.4 412.156 62.4C409.468 62.4 407.356 64.608 407.356 67.2C407.356 69.888 405.148 72 402.556 72C399.868 72 397.756 69.888 397.756 67.2C397.756 64.608 399.868 62.4 402.556 62.4C405.148 62.4 407.356 60.288 407.356 57.6ZM416.956 48C416.956 50.688 414.748 52.8 412.156 52.8C409.468 52.8 407.356 50.688 407.356 48C407.356 45.408 405.148 43.2 402.556 43.2C399.868 43.2 397.756 41.088 397.756 38.4C397.756 35.808 399.868 33.6 402.556 33.6C405.148 33.6 407.356 35.808 407.356 38.4C407.356 41.088 409.468 43.2 412.156 43.2C414.748 43.2 416.956 45.408 416.956 48ZM392.956 72C390.268 72 388.156 69.888 388.156 67.2C388.156 64.608 390.268 62.4 392.956 62.4C395.548 62.4 397.756 64.608 397.756 67.2C397.756 69.888 395.548 72 392.956 72ZM392.956 14.496C390.268 14.496 388.156 12.288 388.156 9.696C388.156 7.008 390.268 4.89599 392.956 4.89599C395.548 4.89599 397.756 7.008 397.756 9.696C397.756 12.288 395.548 14.496 392.956 14.496ZM378.556 19.2C378.556 21.888 376.348 24 373.756 24C371.068 24 368.956 21.888 368.956 19.2C368.956 16.608 371.068 14.4 373.756 14.4C376.348 14.4 378.556 12.288 378.556 9.696C378.556 7.008 380.668 4.89599 383.356 4.89599C385.948 4.89599 388.156 7.008 388.156 9.696C388.156 12.288 385.948 14.4 383.356 14.4C380.668 14.4 378.556 16.608 378.556 19.2ZM383.356 33.6C385.948 33.6 388.156 35.808 388.156 38.4C388.156 41.088 385.948 43.2 383.356 43.2C380.668 43.2 378.556 41.088 378.556 38.4C378.556 35.808 376.348 33.6 373.756 33.6C371.068 33.6 368.956 31.488 368.956 28.8C368.956 26.208 371.068 24 373.756 24C376.348 24 378.556 26.208 378.556 28.8C378.556 31.488 380.668 33.6 383.356 33.6ZM402.556 14.4C399.868 14.4 397.756 12.288 397.756 9.696C397.756 7.008 399.868 4.89599 402.556 4.89599C405.148 4.89599 407.356 7.008 407.356 9.696C407.356 12.288 409.468 14.4 412.156 14.4C414.748 14.4 416.956 16.608 416.956 19.2C416.956 21.888 414.748 24 412.156 24C409.468 24 407.356 21.888 407.356 19.2C407.356 16.608 405.148 14.4 402.556 14.4ZM392.956 43.2C390.268 43.2 388.156 41.088 388.156 38.4C388.156 35.808 390.268 33.6 392.956 33.6C395.548 33.6 397.756 35.808 397.756 38.4C397.756 41.088 395.548 43.2 392.956 43.2ZM440.727 52.8C443.319 52.8 445.527 50.688 445.527 48C445.527 50.688 447.639 52.8 450.327 52.8C447.639 52.8 445.527 55.008 445.527 57.6C445.527 55.008 443.319 52.8 440.727 52.8ZM440.727 43.2C443.319 43.2 445.527 41.088 445.527 38.4C445.527 41.088 447.639 43.2 450.327 43.2C447.639 43.2 445.527 45.408 445.527 48C445.527 45.408 443.319 43.2 440.727 43.2ZM440.727 62.4C443.319 62.4 445.527 60.288 445.527 57.6C445.527 60.288 447.639 62.4 450.327 62.4C447.639 62.4 445.527 64.608 445.527 67.2C445.527 64.608 443.319 62.4 440.727 62.4ZM440.727 72C443.319 72 445.527 69.888 445.527 67.2C445.527 69.888 447.639 72 450.327 72C447.639 72 445.527 74.208 445.527 76.8C445.527 74.208 443.319 72 440.727 72ZM450.327 52.8C452.919 52.8 455.127 50.688 455.127 48C455.127 50.688 457.239 52.8 459.927 52.8C457.239 52.8 455.127 55.008 455.127 57.6C455.127 55.008 452.919 52.8 450.327 52.8ZM450.327 43.2C452.919 43.2 455.127 41.088 455.127 38.4C455.127 41.088 457.239 43.2 459.927 43.2C457.239 43.2 455.127 45.408 455.127 48C455.127 45.408 452.919 43.2 450.327 43.2ZM450.327 62.4C452.919 62.4 455.127 60.288 455.127 57.6C455.127 60.288 457.239 62.4 459.927 62.4C457.239 62.4 455.127 64.608 455.127 67.2C455.127 64.608 452.919 62.4 450.327 62.4ZM450.327 72C452.919 72 455.127 69.888 455.127 67.2C455.127 69.888 457.239 72 459.927 72C457.239 72 455.127 74.208 455.127 76.8C455.127 74.208 452.919 72 450.327 72ZM426.327 9.6C426.327 12.288 428.439 14.4 431.127 14.4C428.439 14.4 426.327 16.608 426.327 19.2C426.327 16.608 424.119 14.4 421.527 14.4C424.119 14.4 426.327 12.288 426.327 9.6ZM435.927 9.6C435.927 12.288 438.039 14.4 440.727 14.4C438.039 14.4 435.927 16.608 435.927 19.2C435.927 16.608 433.719 14.4 431.127 14.4C433.719 14.4 435.927 12.288 435.927 9.6ZM440.727 14.4C443.319 14.4 445.527 12.288 445.527 9.6C445.527 12.288 447.639 14.4 450.327 14.4C447.639 14.4 445.527 16.608 445.527 19.2C445.527 16.608 443.319 14.4 440.727 14.4ZM431.127 4.8C428.439 4.8 426.327 7.008 426.327 9.6C426.327 7.008 424.119 4.8 421.527 4.8C424.119 4.8 426.327 2.68799 426.327 -5.72205e-06C426.327 2.68799 428.439 4.8 431.127 4.8ZM435.927 9.6C435.927 7.008 433.719 4.8 431.127 4.8C433.719 4.8 435.927 2.68799 435.927 -5.72205e-06C435.927 2.68799 438.039 4.8 440.727 4.8C438.039 4.8 435.927 7.008 435.927 9.6ZM450.327 4.8C447.639 4.8 445.527 7.008 445.527 9.6C445.527 7.008 443.319 4.8 440.727 4.8C443.319 4.8 445.527 2.68799 445.527 -5.72205e-06C445.527 2.68799 447.639 4.8 450.327 4.8ZM440.727 24C443.319 24 445.527 21.888 445.527 19.2C445.527 21.888 447.639 24 450.327 24C447.639 24 445.527 26.208 445.527 28.8C445.527 26.208 443.319 24 440.727 24ZM440.727 33.6C443.319 33.6 445.527 31.488 445.527 28.8C445.527 31.488 447.639 33.6 450.327 33.6C447.639 33.6 445.527 35.808 445.527 38.4C445.527 35.808 443.319 33.6 440.727 33.6ZM455.127 9.6C455.127 12.288 457.239 14.4 459.927 14.4C457.239 14.4 455.127 16.608 455.127 19.2C455.127 16.608 452.919 14.4 450.327 14.4C452.919 14.4 455.127 12.288 455.127 9.6ZM464.727 9.6C464.727 12.288 466.839 14.4 469.527 14.4C466.839 14.4 464.727 16.608 464.727 19.2C464.727 16.608 462.519 14.4 459.927 14.4C462.519 14.4 464.727 12.288 464.727 9.6ZM474.327 9.6C474.327 12.288 476.439 14.4 479.127 14.4C476.439 14.4 474.327 16.608 474.327 19.2C474.327 16.608 472.119 14.4 469.527 14.4C472.119 14.4 474.327 12.288 474.327 9.6ZM459.927 4.8C457.239 4.8 455.127 7.008 455.127 9.6C455.127 7.008 452.919 4.8 450.327 4.8C452.919 4.8 455.127 2.68799 455.127 -5.72205e-06C455.127 2.68799 457.239 4.8 459.927 4.8ZM464.727 9.6C464.727 7.008 462.519 4.8 459.927 4.8C462.519 4.8 464.727 2.68799 464.727 -5.72205e-06C464.727 2.68799 466.839 4.8 469.527 4.8C466.839 4.8 464.727 7.008 464.727 9.6ZM474.327 9.6C474.327 7.008 472.119 4.8 469.527 4.8C472.119 4.8 474.327 2.68799 474.327 -5.72205e-06C474.327 2.68799 476.439 4.8 479.127 4.8C476.439 4.8 474.327 7.008 474.327 9.6ZM450.327 24C452.919 24 455.127 21.888 455.127 19.2C455.127 21.888 457.239 24 459.927 24C457.239 24 455.127 26.208 455.127 28.8C455.127 26.208 452.919 24 450.327 24ZM450.327 33.6C452.919 33.6 455.127 31.488 455.127 28.8C455.127 31.488 457.239 33.6 459.927 33.6C457.239 33.6 455.127 35.808 455.127 38.4C455.127 35.808 452.919 33.6 450.327 33.6ZM488.506 62.4C485.818 62.4 483.706 60.288 483.706 57.6C483.706 55.008 485.818 52.8 488.506 52.8C491.098 52.8 493.306 55.008 493.306 57.6C493.306 60.288 491.098 62.4 488.506 62.4ZM488.506 52.8C485.818 52.8 483.706 50.688 483.706 48C483.706 45.408 485.818 43.2 488.506 43.2C491.098 43.2 493.306 45.408 493.306 48C493.306 50.688 491.098 52.8 488.506 52.8ZM498.106 43.2C495.418 43.2 493.306 41.088 493.306 38.4C493.306 35.808 495.418 33.6 498.106 33.6C500.698 33.6 502.906 35.808 502.906 38.4C502.906 41.088 500.698 43.2 498.106 43.2ZM488.506 43.2C485.818 43.2 483.706 41.088 483.706 38.4C483.706 35.808 485.818 33.6 488.506 33.6C491.098 33.6 493.306 35.808 493.306 38.4C493.306 41.088 491.098 43.2 488.506 43.2ZM507.706 43.2C505.018 43.2 502.906 41.088 502.906 38.4C502.906 35.808 505.018 33.6 507.706 33.6C510.298 33.6 512.506 35.808 512.506 38.4C512.506 41.088 510.298 43.2 507.706 43.2ZM488.506 72C485.818 72 483.706 69.888 483.706 67.2C483.706 64.608 485.818 62.4 488.506 62.4C491.098 62.4 493.306 64.608 493.306 67.2C493.306 69.888 491.098 72 488.506 72ZM498.106 72C495.418 72 493.306 69.888 493.306 67.2C493.306 64.608 495.418 62.4 498.106 62.4C500.698 62.4 502.906 64.608 502.906 67.2C502.906 69.888 500.698 72 498.106 72ZM507.706 72C505.018 72 502.906 69.888 502.906 67.2C502.906 64.608 505.018 62.4 507.706 62.4C510.298 62.4 512.506 64.608 512.506 67.2C512.506 69.888 510.298 72 507.706 72ZM517.306 43.2C514.618 43.2 512.506 41.088 512.506 38.4C512.506 35.808 514.618 33.6 517.306 33.6C519.898 33.6 522.106 35.808 522.106 38.4C522.106 41.088 519.898 43.2 517.306 43.2ZM526.906 43.2C524.218 43.2 522.106 41.088 522.106 38.4C522.106 35.808 524.218 33.6 526.906 33.6C529.498 33.6 531.706 35.808 531.706 38.4C531.706 41.088 529.498 43.2 526.906 43.2ZM517.306 72C514.618 72 512.506 69.888 512.506 67.2C512.506 64.608 514.618 62.4 517.306 62.4C519.898 62.4 522.106 64.608 522.106 67.2C522.106 69.888 519.898 72 517.306 72ZM526.906 72C524.218 72 522.106 69.888 522.106 67.2C522.106 64.608 524.218 62.4 526.906 62.4C529.498 62.4 531.706 64.608 531.706 67.2C531.706 69.888 529.498 72 526.906 72ZM498.106 14.496C495.418 14.496 493.306 12.288 493.306 9.696C493.306 7.008 495.418 4.89599 498.106 4.89599C500.698 4.89599 502.906 7.008 502.906 9.696C502.906 12.288 500.698 14.496 498.106 14.496ZM488.506 14.496C485.818 14.496 483.706 12.288 483.706 9.696C483.706 7.008 485.818 4.89599 488.506 4.89599C491.098 4.89599 493.306 7.008 493.306 9.696C493.306 12.288 491.098 14.496 488.506 14.496ZM507.706 14.496C505.018 14.496 502.906 12.288 502.906 9.696C502.906 7.008 505.018 4.89599 507.706 4.89599C510.298 4.89599 512.506 7.008 512.506 9.696C512.506 12.288 510.298 14.496 507.706 14.496ZM488.506 24C485.818 24 483.706 21.888 483.706 19.2C483.706 16.608 485.818 14.4 488.506 14.4C491.098 14.4 493.306 16.608 493.306 19.2C493.306 21.888 491.098 24 488.506 24ZM488.506 33.6C485.818 33.6 483.706 31.488 483.706 28.8C483.706 26.208 485.818 24 488.506 24C491.098 24 493.306 26.208 493.306 28.8C493.306 31.488 491.098 33.6 488.506 33.6ZM517.306 14.496C514.618 14.496 512.506 12.288 512.506 9.696C512.506 7.008 514.618 4.89599 517.306 4.89599C519.898 4.89599 522.106 7.008 522.106 9.696C522.106 12.288 519.898 14.496 517.306 14.496ZM526.906 14.496C524.218 14.496 522.106 12.288 522.106 9.696C522.106 7.008 524.218 4.89599 526.906 4.89599C529.498 4.89599 531.706 7.008 531.706 9.696C531.706 12.288 529.498 14.496 526.906 14.496ZM593.877 24C591.189 24 589.077 26.208 589.077 28.8C589.077 31.488 591.189 33.6 593.877 33.6C591.189 33.6 589.077 35.808 589.077 38.4C589.077 41.088 591.189 43.2 593.877 43.2C591.189 43.2 589.077 45.408 589.077 48C589.077 50.688 591.189 52.8 593.877 52.8C591.189 52.8 589.077 55.008 589.077 57.6C589.077 60.288 591.189 62.4 593.877 62.4C591.189 62.4 589.077 64.608 589.077 67.2C589.077 69.888 591.189 72 593.877 72C591.189 72 589.077 74.208 589.077 76.8C589.077 74.208 586.869 72 584.277 72C581.589 72 579.477 74.208 579.477 76.8C579.477 74.208 577.269 72 574.677 72C577.269 72 579.477 69.888 579.477 67.2C579.477 64.608 577.269 62.4 574.677 62.4C577.269 62.4 579.477 60.288 579.477 57.6C579.477 55.008 577.269 52.8 574.677 52.8C577.269 52.8 579.477 50.688 579.477 48C579.477 45.408 577.269 43.2 574.677 43.2C577.269 43.2 579.477 41.088 579.477 38.4C579.477 35.808 577.269 33.6 574.677 33.6C577.269 33.6 579.477 31.488 579.477 28.8C579.477 26.208 577.269 24 574.677 24C577.269 24 579.477 21.888 579.477 19.2C579.477 16.608 577.269 14.4 574.677 14.4C571.989 14.4 569.877 16.608 569.877 19.2C569.877 21.888 571.989 24 574.677 24C571.989 24 569.877 26.208 569.877 28.8C569.877 31.488 571.989 33.6 574.677 33.6C571.989 33.6 569.877 35.808 569.877 38.4C569.877 41.088 571.989 43.2 574.677 43.2C571.989 43.2 569.877 45.408 569.877 48C569.877 50.688 571.989 52.8 574.677 52.8C571.989 52.8 569.877 55.008 569.877 57.6C569.877 60.288 571.989 62.4 574.677 62.4C571.989 62.4 569.877 64.608 569.877 67.2C569.877 69.888 571.989 72 574.677 72C571.989 72 569.877 74.208 569.877 76.8C569.877 74.208 567.669 72 565.077 72C562.389 72 560.277 74.208 560.277 76.8C560.277 74.208 558.069 72 555.477 72C558.069 72 560.277 69.888 560.277 67.2C560.277 64.608 558.069 62.4 555.477 62.4C558.069 62.4 560.277 60.288 560.277 57.6C560.277 55.008 558.069 52.8 555.477 52.8C558.069 52.8 560.277 50.688 560.277 48C560.277 45.408 558.069 43.2 555.477 43.2C558.069 43.2 560.277 41.088 560.277 38.4C560.277 35.808 558.069 33.6 555.477 33.6C558.069 33.6 560.277 31.488 560.277 28.8C560.277 26.208 558.069 24 555.477 24C558.069 24 560.277 21.888 560.277 19.2C560.277 16.608 558.069 14.4 555.477 14.4C552.789 14.4 550.677 16.608 550.677 19.2C550.677 21.888 552.789 24 555.477 24C552.789 24 550.677 26.208 550.677 28.8C550.677 31.488 552.789 33.6 555.477 33.6C552.789 33.6 550.677 35.808 550.677 38.4C550.677 41.088 552.789 43.2 555.477 43.2C552.789 43.2 550.677 45.408 550.677 48C550.677 50.688 552.789 52.8 555.477 52.8C552.789 52.8 550.677 55.008 550.677 57.6C550.677 60.288 552.789 62.4 555.477 62.4C552.789 62.4 550.677 64.608 550.677 67.2C550.677 69.888 552.789 72 555.477 72C552.789 72 550.677 74.208 550.677 76.8C550.677 74.208 548.469 72 545.877 72C543.189 72 541.077 74.208 541.077 76.8C541.077 74.208 538.869 72 536.277 72C538.869 72 541.077 69.888 541.077 67.2C541.077 64.608 538.869 62.4 536.277 62.4C538.869 62.4 541.077 60.288 541.077 57.6C541.077 55.008 538.869 52.8 536.277 52.8C538.869 52.8 541.077 50.688 541.077 48C541.077 45.408 538.869 43.2 536.277 43.2C538.869 43.2 541.077 41.088 541.077 38.4C541.077 35.808 538.869 33.6 536.277 33.6C538.869 33.6 541.077 31.488 541.077 28.8C541.077 26.208 538.869 24 536.277 24C538.869 24 541.077 21.888 541.077 19.2C541.077 16.608 538.869 14.4 536.277 14.4C538.869 14.4 541.077 12.288 541.077 9.6C541.077 12.288 543.189 14.4 545.877 14.4C548.469 14.4 550.677 12.288 550.677 9.6C550.677 7.008 548.469 4.8 545.877 4.8C548.469 4.8 550.677 2.68799 550.677 -5.72205e-06C550.677 2.68799 552.789 4.8 555.477 4.8C558.069 4.8 560.277 2.68799 560.277 -5.72205e-06C560.277 2.68799 562.389 4.8 565.077 4.8C562.389 4.8 560.277 7.008 560.277 9.6C560.277 12.288 562.389 14.4 565.077 14.4C567.669 14.4 569.877 12.288 569.877 9.6C569.877 7.008 567.669 4.8 565.077 4.8C567.669 4.8 569.877 2.68799 569.877 -5.72205e-06C569.877 2.68799 571.989 4.8 574.677 4.8C577.269 4.8 579.477 2.68799 579.477 -5.72205e-06C579.477 2.68799 581.589 4.8 584.277 4.8C581.589 4.8 579.477 7.008 579.477 9.6C579.477 12.288 581.589 14.4 584.277 14.4C586.869 14.4 589.077 12.288 589.077 9.6C589.077 12.288 591.189 14.4 593.877 14.4C591.189 14.4 589.077 16.608 589.077 19.2C589.077 21.888 591.189 24 593.877 24Z" fill="white"/>
</svg>
