<svg width="1347" height="416" viewBox="0 0 1347 416" fill="none" xmlns="http://www.w3.org/2000/svg">
<path d="M312.44 130C298.4 130 286.96 141.96 286.96 156C286.96 170.56 298.4 182 312.44 182C298.4 182 286.96 193.96 286.96 208C286.96 193.96 275 182 260.96 182C246.4 182 234.96 193.96 234.96 208C234.96 222.56 246.4 234 260.96 234C275 234 286.96 222.56 286.96 208C286.96 222.56 298.4 234 312.44 234C298.4 234 286.96 245.96 286.96 260C286.96 274.56 298.4 286 312.44 286C298.4 286 286.96 297.96 286.96 312C286.96 326.56 298.4 338 312.44 338C298.4 338 286.96 349.96 286.96 364C286.96 349.96 275 338 260.96 338C246.4 338 234.96 349.96 234.96 364C234.96 378.56 246.4 390 260.96 390C246.4 390 234.96 401.96 234.96 416C234.96 401.96 223 390 208.96 390C194.4 390 182.96 401.96 182.96 416C182.96 401.96 171 390 156.96 390C142.4 390 130.96 401.96 130.96 416C130.96 401.96 119 390 104.96 390C90.4 390 78.96 401.96 78.96 416C78.96 401.96 67 390 52.96 390C38.4 390 26.96 401.96 26.96 416C26.96 401.96 15 390 0.96 390C15 390 26.96 378.56 26.96 364C26.96 349.96 15 338 0.96 338C15 338 26.96 326.56 26.96 312C26.96 297.96 15 286 0.96 286C15 286 26.96 274.56 26.96 260C26.96 245.96 15 234 0.96 234C15 234 26.96 222.56 26.96 208C26.96 193.96 15 182 0.96 182C15 182 26.96 170.56 26.96 156C26.96 141.96 15 130 0.96 130C15 130 26.96 118.56 26.96 104.52C26.96 89.96 15 78.52 0.96 78.52C15 78.52 26.96 66.56 26.96 52.52C26.96 37.96 15 26.52 0.96 26.52C15 26.52 26.96 14.56 26.96 0.519993C26.96 14.56 38.4 26.52 52.96 26.52C67 26.52 78.96 14.56 78.96 0.519993C78.96 14.56 90.4 26.52 104.96 26.52C119 26.52 130.96 14.56 130.96 0.519993C130.96 14.56 142.4 26.52 156.96 26.52C171 26.52 182.96 14.56 182.96 0.519993C182.96 14.56 194.4 26.52 208.96 26.52C223 26.52 234.96 14.56 234.96 0.519993C234.96 14.56 246.4 26.52 260.96 26.52C246.4 26.52 234.96 37.96 234.96 52.52C234.96 66.56 246.4 78.52 260.96 78.52C275 78.52 286.96 66.56 286.96 52.52C286.96 66.56 298.4 78.52 312.44 78.52C298.4 78.52 286.96 89.96 286.96 104.52C286.96 118.56 298.4 130 312.44 130ZM208.96 182C223 182 234.96 170.56 234.96 156C234.96 141.96 223 130 208.96 130C223 130 234.96 118.56 234.96 104C234.96 89.96 223 78.52 208.96 78.52C194.4 78.52 182.96 89.96 182.96 104C182.96 89.96 171 78.52 156.96 78.52C142.4 78.52 130.96 89.96 130.96 104C130.96 89.96 119 78.52 104.96 78.52C90.4 78.52 78.96 89.96 78.96 104C78.96 118.56 90.4 130 104.96 130C90.4 130 78.96 141.96 78.96 156C78.96 170.56 90.4 182 104.96 182C90.4 182 78.96 193.96 78.96 208C78.96 222.56 90.4 234 104.96 234C90.4 234 78.96 245.96 78.96 260C78.96 274.56 90.4 286 104.96 286C90.4 286 78.96 297.96 78.96 312C78.96 326.56 90.4 338 104.96 338C119 338 130.96 326.56 130.96 312C130.96 326.56 142.4 338 156.96 338C171 338 182.96 326.56 182.96 312C182.96 326.56 194.4 338 208.96 338C223 338 234.96 326.56 234.96 312C234.96 297.96 223 286 208.96 286C223 286 234.96 274.56 234.96 260C234.96 245.96 223 234 208.96 234C194.4 234 182.96 245.96 182.96 260C182.96 245.96 171 234 156.96 234C142.4 234 130.96 245.96 130.96 260C130.96 245.96 119 234 104.96 234C119 234 130.96 222.56 130.96 208C130.96 193.96 119 182 104.96 182C119 182 130.96 170.56 130.96 156C130.96 170.56 142.4 182 156.96 182C171 182 182.96 170.56 182.96 156C182.96 170.56 194.4 182 208.96 182ZM623.233 182C608.673 182 597.233 193.96 597.233 208C597.233 222.56 608.673 234 623.233 234C608.673 234 597.233 245.96 597.233 260C597.233 274.56 608.673 286 623.233 286C608.673 286 597.233 297.96 597.233 312C597.233 326.56 608.673 338 623.233 338C608.673 338 597.233 349.96 597.233 364C597.233 378.56 608.673 390 623.233 390C608.673 390 597.233 401.96 597.233 416C597.233 401.96 585.273 390 571.233 390C556.673 390 545.233 401.96 545.233 416C545.233 401.96 533.273 390 519.233 390C533.273 390 545.233 378.56 545.233 364C545.233 349.96 533.273 338 519.233 338C533.273 338 545.233 326.56 545.233 312C545.233 297.96 533.273 286 519.233 286C533.273 286 545.233 274.56 545.233 260C545.233 245.96 533.273 234 519.233 234C504.673 234 493.233 245.96 493.233 260C493.233 245.96 481.273 234 467.233 234C452.673 234 441.233 245.96 441.233 260C441.233 245.96 429.273 234 415.233 234C400.673 234 389.233 245.96 389.233 260C389.233 274.56 400.673 286 415.233 286C400.673 286 389.233 297.96 389.233 312C389.233 326.56 400.673 338 415.233 338C400.673 338 389.233 349.96 389.233 364C389.233 378.56 400.673 390 415.233 390C400.673 390 389.233 401.96 389.233 416C389.233 401.96 377.273 390 363.233 390C348.673 390 337.233 401.96 337.233 416C337.233 401.96 325.273 390 311.233 390C325.273 390 337.233 378.56 337.233 364C337.233 349.96 325.273 338 311.233 338C325.273 338 337.233 326.56 337.233 312C337.233 297.96 325.273 286 311.233 286C325.273 286 337.233 274.56 337.233 260C337.233 245.96 325.273 234 311.233 234C325.273 234 337.233 222.56 337.233 208C337.233 193.96 325.273 182 311.233 182C325.273 182 337.233 170.56 337.233 156C337.233 141.96 325.273 130 311.233 130C325.273 130 337.233 118.56 337.233 104C337.233 118.56 348.673 130 363.233 130C377.273 130 389.233 118.56 389.233 104C389.233 89.96 377.273 78 363.233 78C377.273 78 389.233 66.56 389.233 52C389.233 66.56 400.673 78 415.233 78C429.273 78 441.233 66.56 441.233 52C441.233 37.96 429.273 26 415.233 26C429.273 26 441.233 14.56 441.233 -3.09944e-05C441.233 14.56 452.673 26 467.233 26C481.273 26 493.233 14.56 493.233 -3.09944e-05C493.233 14.56 504.673 26 519.233 26C504.673 26 493.233 37.96 493.233 52C493.233 66.56 504.673 78 519.233 78C533.273 78 545.233 66.56 545.233 52C545.233 66.56 556.673 78 571.233 78C556.673 78 545.233 89.96 545.233 104C545.233 118.56 556.673 130 571.233 130C585.273 130 597.233 118.56 597.233 104C597.233 118.56 608.673 130 623.233 130C608.673 130 597.233 141.96 597.233 156C597.233 170.56 608.673 182 623.233 182ZM415.233 130C400.673 130 389.233 141.96 389.233 156C389.233 170.56 400.673 182 415.233 182C429.273 182 441.233 170.56 441.233 156C441.233 170.56 452.673 182 467.233 182C481.273 182 493.233 170.56 493.233 156C493.233 170.56 504.673 182 519.233 182C533.273 182 545.233 170.56 545.233 156C545.233 141.96 533.273 130 519.233 130C504.673 130 493.233 141.96 493.233 156C493.233 141.96 481.273 130 467.233 130C481.273 130 493.233 118.56 493.233 104C493.233 89.96 481.273 78 467.233 78C452.673 78 441.233 89.96 441.233 104C441.233 118.56 452.673 130 467.233 130C452.673 130 441.233 141.96 441.233 156C441.233 141.96 429.273 130 415.233 130ZM933.507 78C918.947 78 907.507 89.96 907.507 104C907.507 118.56 918.947 130 933.507 130C918.947 130 907.507 141.96 907.507 156C907.507 170.56 918.947 182 933.507 182C918.947 182 907.507 193.96 907.507 208C907.507 222.56 918.947 234 933.507 234C918.947 234 907.507 245.96 907.507 260C907.507 274.56 918.947 286 933.507 286C918.947 286 907.507 297.96 907.507 312C907.507 326.56 918.947 338 933.507 338C918.947 338 907.507 349.96 907.507 364C907.507 378.56 918.947 390 933.507 390C918.947 390 907.507 401.96 907.507 416C907.507 401.96 895.547 390 881.507 390C866.947 390 855.507 401.96 855.507 416C855.507 401.96 843.547 390 829.507 390C843.547 390 855.507 378.56 855.507 364C855.507 349.96 843.547 338 829.507 338C843.547 338 855.507 326.56 855.507 312C855.507 297.96 843.547 286 829.507 286C814.947 286 803.507 297.96 803.507 312C803.507 297.96 791.547 286 777.507 286C791.547 286 803.507 274.56 803.507 260C803.507 245.96 791.547 234 777.507 234C762.947 234 751.507 245.96 751.507 260C751.507 245.96 739.547 234 725.507 234C739.547 234 751.507 222.56 751.507 208C751.507 193.96 739.547 182 725.507 182C710.947 182 699.507 193.96 699.507 208C699.507 222.56 710.947 234 725.507 234C710.947 234 699.507 245.96 699.507 260C699.507 274.56 710.947 286 725.507 286C710.947 286 699.507 297.96 699.507 312C699.507 326.56 710.947 338 725.507 338C710.947 338 699.507 349.96 699.507 364C699.507 378.56 710.947 390 725.507 390C710.947 390 699.507 401.96 699.507 416C699.507 401.96 687.547 390 673.507 390C658.947 390 647.507 401.96 647.507 416C647.507 401.96 635.547 390 621.507 390C635.547 390 647.507 378.56 647.507 364C647.507 349.96 635.547 338 621.507 338C635.547 338 647.507 326.56 647.507 312C647.507 297.96 635.547 286 621.507 286C635.547 286 647.507 274.56 647.507 260C647.507 245.96 635.547 234 621.507 234C635.547 234 647.507 222.56 647.507 208C647.507 193.96 635.547 182 621.507 182C635.547 182 647.507 170.56 647.507 156C647.507 141.96 635.547 130 621.507 130C635.547 130 647.507 118.56 647.507 104C647.507 89.96 635.547 78 621.507 78C635.547 78 647.507 66.56 647.507 52C647.507 37.96 635.547 26 621.507 26C635.547 26 647.507 14.56 647.507 -3.09944e-05C647.507 14.56 658.947 26 673.507 26C687.547 26 699.507 14.56 699.507 -3.09944e-05C699.507 14.56 710.947 26 725.507 26C710.947 26 699.507 37.96 699.507 52C699.507 66.56 710.947 78 725.507 78C710.947 78 699.507 89.96 699.507 104C699.507 118.56 710.947 130 725.507 130C739.547 130 751.507 118.56 751.507 104C751.507 118.56 762.947 130 777.507 130C762.947 130 751.507 141.96 751.507 156C751.507 170.56 762.947 182 777.507 182C791.547 182 803.507 170.56 803.507 156C803.507 170.56 814.947 182 829.507 182C814.947 182 803.507 193.96 803.507 208C803.507 222.56 814.947 234 829.507 234C843.547 234 855.507 222.56 855.507 208C855.507 193.96 843.547 182 829.507 182C843.547 182 855.507 170.56 855.507 156C855.507 141.96 843.547 130 829.507 130C843.547 130 855.507 118.56 855.507 104C855.507 89.96 843.547 78 829.507 78C843.547 78 855.507 66.56 855.507 52C855.507 37.96 843.547 26 829.507 26C843.547 26 855.507 14.56 855.507 -3.09944e-05C855.507 14.56 866.947 26 881.507 26C895.547 26 907.507 14.56 907.507 -3.09944e-05C907.507 14.56 918.947 26 933.507 26C918.947 26 907.507 37.96 907.507 52C907.507 66.56 918.947 78 933.507 78ZM1191.78 130C1177.22 130 1165.78 141.96 1165.78 156C1165.78 141.96 1153.82 130 1139.78 130C1153.82 130 1165.78 118.56 1165.78 104C1165.78 89.96 1153.82 78 1139.78 78C1125.22 78 1113.78 89.96 1113.78 104C1113.78 89.96 1101.82 78 1087.78 78C1073.22 78 1061.78 89.96 1061.78 104C1061.78 89.96 1049.82 78 1035.78 78C1021.22 78 1009.78 89.96 1009.78 104C1009.78 118.56 1021.22 130 1035.78 130C1021.22 130 1009.78 141.96 1009.78 156C1009.78 170.56 1021.22 182 1035.78 182C1021.22 182 1009.78 193.96 1009.78 208C1009.78 222.56 1021.22 234 1035.78 234C1021.22 234 1009.78 245.96 1009.78 260C1009.78 274.56 1021.22 286 1035.78 286C1021.22 286 1009.78 297.96 1009.78 312C1009.78 326.56 1021.22 338 1035.78 338C1049.82 338 1061.78 326.56 1061.78 312C1061.78 326.56 1073.22 338 1087.78 338C1101.82 338 1113.78 326.56 1113.78 312C1113.78 326.56 1125.22 338 1139.78 338C1153.82 338 1165.78 326.56 1165.78 312C1165.78 297.96 1153.82 286 1139.78 286C1153.82 286 1165.78 274.56 1165.78 260C1165.78 245.96 1153.82 234 1139.78 234C1125.22 234 1113.78 245.96 1113.78 260C1113.78 245.96 1101.82 234 1087.78 234C1073.22 234 1061.78 245.96 1061.78 260C1061.78 245.96 1049.82 234 1035.78 234C1049.82 234 1061.78 222.56 1061.78 208C1061.78 193.96 1049.82 182 1035.78 182C1049.82 182 1061.78 170.56 1061.78 156C1061.78 170.56 1073.22 182 1087.78 182C1101.82 182 1113.78 170.56 1113.78 156C1113.78 170.56 1125.22 182 1139.78 182C1153.82 182 1165.78 170.56 1165.78 156C1165.78 170.56 1177.22 182 1191.78 182C1177.22 182 1165.78 193.96 1165.78 208C1165.78 222.56 1177.22 234 1191.78 234C1205.82 234 1217.78 222.56 1217.78 208C1217.78 222.56 1229.22 234 1243.78 234C1229.22 234 1217.78 245.96 1217.78 260C1217.78 274.56 1229.22 286 1243.78 286C1229.22 286 1217.78 297.96 1217.78 312C1217.78 326.56 1229.22 338 1243.78 338C1229.22 338 1217.78 349.96 1217.78 364C1217.78 349.96 1205.82 338 1191.78 338C1177.22 338 1165.78 349.96 1165.78 364C1165.78 378.56 1177.22 390 1191.78 390C1177.22 390 1165.78 401.96 1165.78 416C1165.78 401.96 1153.82 390 1139.78 390C1125.22 390 1113.78 401.96 1113.78 416C1113.78 401.96 1101.82 390 1087.78 390C1073.22 390 1061.78 401.96 1061.78 416C1061.78 401.96 1049.82 390 1035.78 390C1021.22 390 1009.78 401.96 1009.78 416C1009.78 401.96 997.82 390 983.78 390C997.82 390 1009.78 378.56 1009.78 364C1009.78 349.96 997.82 338 983.78 338C969.22 338 957.78 349.96 957.78 364C957.78 349.96 945.82 338 931.78 338C945.82 338 957.78 326.56 957.78 312C957.78 297.96 945.82 286 931.78 286C945.82 286 957.78 274.56 957.78 260C957.78 245.96 945.82 234 931.78 234C945.82 234 957.78 222.56 957.78 208C957.78 193.96 945.82 182 931.78 182C945.82 182 957.78 170.56 957.78 156C957.78 141.96 945.82 130 931.78 130C945.82 130 957.78 118.56 957.78 104C957.78 89.96 945.82 78 931.78 78C945.82 78 957.78 66.56 957.78 52C957.78 66.56 969.22 78 983.78 78C997.82 78 1009.78 66.56 1009.78 52C1009.78 37.96 997.82 26 983.78 26C997.82 26 1009.78 14.56 1009.78 -3.09944e-05C1009.78 14.56 1021.22 26 1035.78 26C1049.82 26 1061.78 14.56 1061.78 -3.09944e-05C1061.78 14.56 1073.22 26 1087.78 26C1101.82 26 1113.78 14.56 1113.78 -3.09944e-05C1113.78 14.56 1125.22 26 1139.78 26C1153.82 26 1165.78 14.56 1165.78 -3.09944e-05C1165.78 14.56 1177.22 26 1191.78 26C1177.22 26 1165.78 37.96 1165.78 52C1165.78 66.56 1177.22 78 1191.78 78C1205.82 78 1217.78 66.56 1217.78 52C1217.78 66.56 1229.22 78 1243.78 78C1229.22 78 1217.78 89.96 1217.78 104C1217.78 118.56 1229.22 130 1243.78 130C1229.22 130 1217.78 141.96 1217.78 156C1217.78 141.96 1205.82 130 1191.78 130ZM1242.05 338C1256.09 338 1268.05 326.56 1268.05 312C1268.05 326.56 1279.49 338 1294.05 338V390C1279.49 390 1268.05 401.96 1268.05 416C1268.05 401.96 1256.09 390 1242.05 390C1256.09 390 1268.05 378.56 1268.05 364C1268.05 349.96 1256.09 338 1242.05 338ZM1294.05 338C1308.09 338 1320.05 326.56 1320.05 312C1320.05 326.56 1331.49 338 1346.05 338C1331.49 338 1320.05 349.96 1320.05 364C1320.05 378.56 1331.49 390 1346.05 390C1331.49 390 1320.05 401.96 1320.05 416C1320.05 401.96 1308.09 390 1294.05 390V338ZM1346.05 78C1331.49 78 1320.05 89.96 1320.05 104C1320.05 118.56 1331.49 130 1346.05 130C1331.49 130 1320.05 141.96 1320.05 156C1320.05 170.56 1331.49 182 1346.05 182C1331.49 182 1320.05 193.96 1320.05 208C1320.05 222.56 1331.49 234 1346.05 234C1331.49 234 1320.05 245.96 1320.05 260C1320.05 274.56 1331.49 286 1346.05 286C1331.49 286 1320.05 297.96 1320.05 312C1320.05 297.96 1308.09 286 1294.05 286C1279.49 286 1268.05 297.96 1268.05 312C1268.05 297.96 1256.09 286 1242.05 286C1256.09 286 1268.05 274.56 1268.05 260C1268.05 245.96 1256.09 234 1242.05 234C1256.09 234 1268.05 222.56 1268.05 208C1268.05 193.96 1256.09 182 1242.05 182C1256.09 182 1268.05 170.56 1268.05 156C1268.05 141.96 1256.09 130 1242.05 130C1256.09 130 1268.05 118.56 1268.05 104C1268.05 89.96 1256.09 78 1242.05 78C1256.09 78 1268.05 66.56 1268.05 52C1268.05 37.96 1256.09 26 1242.05 26C1256.09 26 1268.05 14.56 1268.05 -3.09944e-05C1268.05 14.56 1279.49 26 1294.05 26C1308.09 26 1320.05 14.56 1320.05 -3.09944e-05C1320.05 14.56 1331.49 26 1346.05 26C1331.49 26 1320.05 37.96 1320.05 52C1320.05 66.56 1331.49 78 1346.05 78Z" fill="white"/>
</svg>
