<svg width="1720" height="540" viewBox="0 0 1720 540" fill="none" xmlns="http://www.w3.org/2000/svg">
<path d="M424.998 371.034C406.374 371.034 391.277 355.936 391.277 337.312C391.277 355.936 376.179 371.034 357.555 371.034C376.179 371.034 391.277 386.132 391.277 404.756C391.277 386.132 406.374 371.034 424.998 371.034Z" fill="#A54AFF"/>
<path d="M424.987 371.034V337.312H391.266C391.266 355.936 406.364 371.034 424.987 371.034Z" fill="white"/>
<path d="M424.987 371.031C406.364 371.031 391.266 386.129 391.266 404.753H424.987V371.031Z" fill="#A54AFF"/>
<path d="M492.444 371.034C473.82 371.034 458.722 355.936 458.722 337.312C458.722 355.936 443.624 371.034 425 371.034C443.624 371.034 458.722 386.132 458.722 404.756C458.722 386.132 473.82 371.034 492.444 371.034Z" fill="#A54AFF"/>
<path d="M425 371.031V404.753H458.722C458.722 386.129 443.624 371.031 425 371.031Z" fill="white"/>
<path d="M458.722 337.312H425V371.034C443.624 371.034 458.722 355.936 458.722 337.312Z" fill="#A54AFF"/>
<path d="M424.998 303.589C406.374 303.589 391.277 288.491 391.277 269.867C391.277 288.491 376.179 303.589 357.555 303.589C376.179 303.589 391.277 318.687 391.277 337.311C391.277 318.687 406.374 303.589 424.998 303.589Z" fill="#A54AFF"/>
<path d="M424.987 303.589V269.867H391.266C391.266 288.491 406.364 303.589 424.987 303.589Z" fill="white"/>
<path d="M424.987 303.586C406.364 303.586 391.266 318.684 391.266 337.308H424.987V303.586Z" fill="#A54AFF"/>
<path d="M492.444 303.589C473.82 303.589 458.722 288.491 458.722 269.867C458.722 288.491 443.624 303.589 425 303.589C443.624 303.589 458.722 318.687 458.722 337.311C458.722 318.687 473.82 303.589 492.444 303.589Z" fill="#A54AFF"/>
<path d="M492.433 303.589V269.867H458.711C458.711 288.491 473.809 303.589 492.433 303.589Z" fill="white"/>
<path d="M425 303.586V337.308H458.722C458.722 318.684 443.624 303.586 425 303.586Z" fill="white"/>
<path d="M458.722 269.867H425V303.589C443.624 303.589 458.722 288.491 458.722 269.867Z" fill="#A54AFF"/>
<path d="M559.889 303.589C541.265 303.589 526.167 288.491 526.167 269.867C526.167 288.491 511.069 303.589 492.445 303.589C511.069 303.589 526.167 318.687 526.167 337.311C526.167 318.687 541.265 303.589 559.889 303.589Z" fill="#A54AFF"/>
<path d="M559.878 303.589V269.867H526.156C526.156 288.491 541.254 303.589 559.878 303.589Z" fill="white"/>
<path d="M526.167 269.867H492.445V303.589C511.069 303.589 526.167 288.491 526.167 269.867Z" fill="#A54AFF"/>
<path d="M424.998 438.48C406.374 438.48 391.277 423.382 391.277 404.758C391.277 423.382 376.179 438.48 357.555 438.48C376.179 438.48 391.277 453.578 391.277 472.202C391.277 453.578 406.374 438.48 424.998 438.48Z" fill="#A54AFF"/>
<path d="M424.987 438.48V404.758H391.266C391.266 423.382 406.364 438.48 424.987 438.48Z" fill="white"/>
<path d="M424.987 438.477C406.364 438.477 391.266 453.575 391.266 472.198H424.987V438.477Z" fill="#A54AFF"/>
<path d="M492.444 438.48C473.82 438.48 458.722 423.382 458.722 404.758C458.722 423.382 443.624 438.48 425 438.48C443.624 438.48 458.722 453.578 458.722 472.202C458.722 453.578 473.82 438.48 492.444 438.48Z" fill="#A54AFF"/>
<path d="M425 438.477V472.198H458.722C458.722 453.575 443.624 438.477 425 438.477Z" fill="white"/>
<path d="M458.722 404.758H425V438.48C443.624 438.48 458.722 423.382 458.722 404.758Z" fill="#A54AFF"/>
<path d="M424.998 505.925C406.374 505.925 391.277 490.827 391.277 472.203C391.277 490.827 376.179 505.925 357.555 505.925C376.179 505.925 391.277 521.023 391.277 539.647C391.277 521.023 406.374 505.925 424.998 505.925Z" fill="#A54AFF"/>
<path d="M424.987 505.925V472.203H391.266C391.266 490.827 406.364 505.925 424.987 505.925Z" fill="white"/>
<path d="M492.444 505.925C473.82 505.925 458.722 490.827 458.722 472.203C458.722 490.827 443.624 505.925 425 505.925C443.624 505.925 458.722 521.023 458.722 539.647C458.722 521.023 473.82 505.925 492.444 505.925Z" fill="#A54AFF"/>
<path d="M458.722 472.203H425V505.925C443.624 505.925 458.722 490.827 458.722 472.203Z" fill="#A54AFF"/>
<path d="M694.764 371.034C676.14 371.034 661.042 355.936 661.042 337.312C661.042 355.936 645.944 371.034 627.32 371.034C645.944 371.034 661.042 386.132 661.042 404.756C661.042 386.132 676.14 371.034 694.764 371.034Z" fill="#A54AFF"/>
<path d="M694.769 371.034V337.312H661.047C661.047 355.936 676.145 371.034 694.769 371.034Z" fill="white"/>
<path d="M694.769 371.031C676.145 371.031 661.047 386.129 661.047 404.753H694.769V371.031Z" fill="#A54AFF"/>
<path d="M762.209 371.034C743.585 371.034 728.487 355.936 728.487 337.312C728.487 355.936 713.39 371.034 694.766 371.034C713.39 371.034 728.487 386.132 728.487 404.756C728.487 386.132 743.585 371.034 762.209 371.034Z" fill="#A54AFF"/>
<path d="M694.766 371.031V404.753H728.487C728.487 386.129 713.39 371.031 694.766 371.031Z" fill="white"/>
<path d="M728.487 337.312H694.766V371.034C713.39 371.034 728.487 355.936 728.487 337.312Z" fill="#A54AFF"/>
<path d="M627.319 303.589C608.695 303.589 593.597 288.491 593.597 269.867C593.597 288.491 578.499 303.589 559.875 303.589C578.499 303.589 593.597 318.687 593.597 337.311C593.597 318.687 608.695 303.589 627.319 303.589Z" fill="#A54AFF"/>
<path d="M627.323 303.589V269.867H593.602C593.602 288.491 608.7 303.589 627.323 303.589Z" fill="white"/>
<path d="M593.597 269.867H559.875V303.589C578.499 303.589 593.597 288.491 593.597 269.867Z" fill="#A54AFF"/>
<path d="M694.764 303.589C676.14 303.589 661.042 288.491 661.042 269.867C661.042 288.491 645.944 303.589 627.32 303.589C645.944 303.589 661.042 318.687 661.042 337.311C661.042 318.687 676.14 303.589 694.764 303.589Z" fill="#A54AFF"/>
<path d="M694.769 303.589V269.867H661.047C661.047 288.491 676.145 303.589 694.769 303.589Z" fill="white"/>
<path d="M694.769 303.586C676.145 303.586 661.047 318.684 661.047 337.308H694.769V303.586Z" fill="#A54AFF"/>
<path d="M661.042 269.867H627.32V303.589C645.944 303.589 661.042 288.491 661.042 269.867Z" fill="#A54AFF"/>
<path d="M762.209 303.589C743.585 303.589 728.487 288.491 728.487 269.867C728.487 288.491 713.39 303.589 694.766 303.589C713.39 303.589 728.487 318.687 728.487 337.311C728.487 318.687 743.585 303.589 762.209 303.589Z" fill="#A54AFF"/>
<path d="M694.766 303.586V337.308H728.487C728.487 318.684 713.39 303.586 694.766 303.586Z" fill="white"/>
<path d="M728.487 269.867H694.766V303.589C713.39 303.589 728.487 288.491 728.487 269.867Z" fill="#A54AFF"/>
<path d="M694.764 438.48C676.14 438.48 661.042 423.382 661.042 404.758C661.042 423.382 645.944 438.48 627.32 438.48C645.944 438.48 661.042 453.578 661.042 472.202C661.042 453.578 676.14 438.48 694.764 438.48Z" fill="#A54AFF"/>
<path d="M694.769 438.48V404.758H661.047C661.047 423.382 676.145 438.48 694.769 438.48Z" fill="white"/>
<path d="M694.769 438.477C676.145 438.477 661.047 453.575 661.047 472.198H694.769V438.477Z" fill="#A54AFF"/>
<path d="M762.209 438.48C743.585 438.48 728.487 423.382 728.487 404.758C728.487 423.382 713.39 438.48 694.766 438.48C713.39 438.48 728.487 453.578 728.487 472.202C728.487 453.578 743.585 438.48 762.209 438.48Z" fill="#A54AFF"/>
<path d="M694.766 438.477V472.198H728.487C728.487 453.575 713.39 438.477 694.766 438.477Z" fill="white"/>
<path d="M728.487 404.758H694.766V438.48C713.39 438.48 728.487 423.382 728.487 404.758Z" fill="#A54AFF"/>
<path d="M694.764 505.925C676.14 505.925 661.042 490.827 661.042 472.203C661.042 490.827 645.944 505.925 627.32 505.925C645.944 505.925 661.042 521.023 661.042 539.647C661.042 521.023 676.14 505.925 694.764 505.925Z" fill="#A54AFF"/>
<path d="M694.769 505.925V472.203H661.047C661.047 490.827 676.145 505.925 694.769 505.925Z" fill="white"/>
<path d="M762.209 505.925C743.585 505.925 728.487 490.827 728.487 472.203C728.487 490.827 713.39 505.925 694.766 505.925C713.39 505.925 728.487 521.023 728.487 539.647C728.487 521.023 743.585 505.925 762.209 505.925Z" fill="#A54AFF"/>
<path d="M728.487 472.203H694.766V505.925C713.39 505.925 728.487 490.827 728.487 472.203Z" fill="#A54AFF"/>
<path d="M492.444 101.253C473.82 101.253 458.722 86.1552 458.722 67.5312C458.722 86.1552 443.624 101.253 425 101.253C443.624 101.253 458.722 116.351 458.722 134.975C458.722 116.351 473.82 101.253 492.444 101.253Z" fill="#A54AFF"/>
<path d="M492.433 101.258C473.809 101.258 458.711 116.356 458.711 134.98H492.433V101.258Z" fill="#A54AFF"/>
<path d="M559.889 101.253C541.265 101.253 526.167 86.1552 526.167 67.5312C526.167 86.1552 511.069 101.253 492.445 101.253C511.069 101.253 526.167 116.351 526.167 134.975C526.167 116.351 541.265 101.253 559.889 101.253Z" fill="#A54AFF"/>
<path d="M559.878 101.253V67.5312H526.156C526.156 86.1552 541.254 101.253 559.878 101.253Z" fill="white"/>
<path d="M492.445 101.258V134.98H526.167C526.167 116.356 511.069 101.258 492.445 101.258Z" fill="white"/>
<path d="M559.889 33.8078C541.265 33.8078 526.167 18.7098 526.167 0.0859375C526.167 18.7098 511.069 33.8078 492.445 33.8078C511.069 33.8078 526.167 48.9057 526.167 67.5296C526.167 48.9057 541.265 33.8078 559.889 33.8078Z" fill="#A54AFF"/>
<path d="M559.878 33.8125C541.254 33.8125 526.156 48.9104 526.156 67.5344H559.878V33.8125Z" fill="#A54AFF"/>
<path d="M424.998 168.698C406.374 168.698 391.277 153.6 391.277 134.977C391.277 153.6 376.179 168.698 357.555 168.698C376.179 168.698 391.277 183.796 391.277 202.42C391.277 183.796 406.374 168.698 424.998 168.698Z" fill="#A54AFF"/>
<path d="M424.987 168.703C406.364 168.703 391.266 183.801 391.266 202.425H424.987V168.703Z" fill="#A54AFF"/>
<path d="M492.444 168.698C473.82 168.698 458.722 153.6 458.722 134.977C458.722 153.6 443.624 168.698 425 168.698C443.624 168.698 458.722 183.796 458.722 202.42C458.722 183.796 473.82 168.698 492.444 168.698Z" fill="#A54AFF"/>
<path d="M492.433 168.698V134.977H458.711C458.711 153.6 473.809 168.698 492.433 168.698Z" fill="white"/>
<path d="M425 168.703V202.425H458.722C458.722 183.801 443.624 168.703 425 168.703Z" fill="white"/>
<path d="M559.889 168.698C541.265 168.698 526.167 153.6 526.167 134.977C526.167 153.6 511.069 168.698 492.445 168.698C511.069 168.698 526.167 183.796 526.167 202.42C526.167 183.796 541.265 168.698 559.889 168.698Z" fill="#A54AFF"/>
<path d="M526.167 134.977H492.445V168.698C511.069 168.698 526.167 153.6 526.167 134.977Z" fill="#A54AFF"/>
<path d="M424.998 236.144C406.374 236.144 391.277 221.046 391.277 202.422C391.277 221.046 376.179 236.144 357.555 236.144C376.179 236.144 391.277 251.242 391.277 269.866C391.277 251.242 406.374 236.144 424.998 236.144Z" fill="#A54AFF"/>
<path d="M424.987 236.144V202.422H391.266C391.266 221.046 406.364 236.144 424.987 236.144Z" fill="white"/>
<path d="M424.987 236.141C406.364 236.141 391.266 251.239 391.266 269.862H424.987V236.141Z" fill="#A54AFF"/>
<path d="M492.444 236.144C473.82 236.144 458.722 221.046 458.722 202.422C458.722 221.046 443.624 236.144 425 236.144C443.624 236.144 458.722 251.242 458.722 269.866C458.722 251.242 473.82 236.144 492.444 236.144Z" fill="#A54AFF"/>
<path d="M492.433 236.141C473.809 236.141 458.711 251.239 458.711 269.862H492.433V236.141Z" fill="#A54AFF"/>
<path d="M425 236.141V269.862H458.722C458.722 251.239 443.624 236.141 425 236.141Z" fill="white"/>
<path d="M458.722 202.422H425V236.144C443.624 236.144 458.722 221.046 458.722 202.422Z" fill="#A54AFF"/>
<path d="M559.889 236.144C541.265 236.144 526.167 221.046 526.167 202.422C526.167 221.046 511.069 236.144 492.445 236.144C511.069 236.144 526.167 251.242 526.167 269.866C526.167 251.242 541.265 236.144 559.889 236.144Z" fill="#A54AFF"/>
<path d="M559.878 236.141C541.254 236.141 526.156 251.239 526.156 269.862H559.878V236.141Z" fill="#A54AFF"/>
<path d="M492.445 236.141V269.862H526.167C526.167 251.239 511.069 236.141 492.445 236.141Z" fill="white"/>
<path d="M627.319 101.253C608.695 101.253 593.597 86.1552 593.597 67.5312C593.597 86.1552 578.499 101.253 559.875 101.253C578.499 101.253 593.597 116.351 593.597 134.975C593.597 116.351 608.695 101.253 627.319 101.253Z" fill="#A54AFF"/>
<path d="M627.323 101.258C608.7 101.258 593.602 116.356 593.602 134.98H627.323V101.258Z" fill="#A54AFF"/>
<path d="M593.597 67.5312H559.875V101.253C578.499 101.253 593.597 86.1552 593.597 67.5312Z" fill="#A54AFF"/>
<path d="M694.764 101.253C676.14 101.253 661.042 86.1552 661.042 67.5312C661.042 86.1552 645.944 101.253 627.32 101.253C645.944 101.253 661.042 116.351 661.042 134.975C661.042 116.351 676.14 101.253 694.764 101.253Z" fill="#A54AFF"/>
<path d="M627.32 101.258V134.98H661.042C661.042 116.356 645.944 101.258 627.32 101.258Z" fill="white"/>
<path d="M627.319 33.8078C608.695 33.8078 593.597 18.7098 593.597 0.0859375C593.597 18.7098 578.499 33.8078 559.875 33.8078C578.499 33.8078 593.597 48.9057 593.597 67.5296C593.597 48.9057 608.695 33.8078 627.319 33.8078Z" fill="#A54AFF"/>
<path d="M559.875 33.8125V67.5344H593.597C593.597 48.9104 578.499 33.8125 559.875 33.8125Z" fill="white"/>
<path d="M627.319 168.698C608.695 168.698 593.597 153.6 593.597 134.977C593.597 153.6 578.499 168.698 559.875 168.698C578.499 168.698 593.597 183.796 593.597 202.42C593.597 183.796 608.695 168.698 627.319 168.698Z" fill="#A54AFF"/>
<path d="M627.323 168.698V134.977H593.602C593.602 153.6 608.7 168.698 627.323 168.698Z" fill="white"/>
<path d="M694.764 168.698C676.14 168.698 661.042 153.6 661.042 134.977C661.042 153.6 645.944 168.698 627.32 168.698C645.944 168.698 661.042 183.796 661.042 202.42C661.042 183.796 676.14 168.698 694.764 168.698Z" fill="#A54AFF"/>
<path d="M694.769 168.703C676.145 168.703 661.047 183.801 661.047 202.425H694.769V168.703Z" fill="#A54AFF"/>
<path d="M661.042 134.977H627.32V168.698C645.944 168.698 661.042 153.6 661.042 134.977Z" fill="#A54AFF"/>
<path d="M762.209 168.698C743.585 168.698 728.487 153.6 728.487 134.977C728.487 153.6 713.39 168.698 694.766 168.698C713.39 168.698 728.487 183.796 728.487 202.42C728.487 183.796 743.585 168.698 762.209 168.698Z" fill="#A54AFF"/>
<path d="M694.766 168.703V202.425H728.487C728.487 183.801 713.39 168.703 694.766 168.703Z" fill="white"/>
<path d="M627.319 236.144C608.695 236.144 593.597 221.046 593.597 202.422C593.597 221.046 578.499 236.144 559.875 236.144C578.499 236.144 593.597 251.242 593.597 269.866C593.597 251.242 608.695 236.144 627.319 236.144Z" fill="#A54AFF"/>
<path d="M627.323 236.141C608.7 236.141 593.602 251.239 593.602 269.862H627.323V236.141Z" fill="#A54AFF"/>
<path d="M559.875 236.141V269.862H593.597C593.597 251.239 578.499 236.141 559.875 236.141Z" fill="white"/>
<path d="M694.764 236.144C676.14 236.144 661.042 221.046 661.042 202.422C661.042 221.046 645.944 236.144 627.32 236.144C645.944 236.144 661.042 251.242 661.042 269.866C661.042 251.242 676.14 236.144 694.764 236.144Z" fill="#A54AFF"/>
<path d="M694.769 236.144V202.422H661.047C661.047 221.046 676.145 236.144 694.769 236.144Z" fill="white"/>
<path d="M694.769 236.141C676.145 236.141 661.047 251.239 661.047 269.862H694.769V236.141Z" fill="#A54AFF"/>
<path d="M627.32 236.141V269.862H661.042C661.042 251.239 645.944 236.141 627.32 236.141Z" fill="white"/>
<path d="M762.209 236.144C743.585 236.144 728.487 221.046 728.487 202.422C728.487 221.046 713.39 236.144 694.766 236.144C713.39 236.144 728.487 251.242 728.487 269.866C728.487 251.242 743.585 236.144 762.209 236.144Z" fill="#A54AFF"/>
<path d="M694.766 236.141V269.862H728.487C728.487 251.239 713.39 236.141 694.766 236.141Z" fill="white"/>
<path d="M728.487 202.422H694.766V236.144C713.39 236.144 728.487 221.046 728.487 202.422Z" fill="#A54AFF"/>
<g clip-path="url(#clip0_4166_46376)">
<path d="M303.503 370.938H269.781V404.659H303.503V370.938Z" fill="white"/>
<path d="M269.781 303.492V303.493V337.213H303.503V337.213V303.492H269.781Z" fill="white"/>
<path d="M337.222 370.933V337.214V337.212V337.211H303.5V370.933H337.222Z" fill="white"/>
<path d="M337.225 438.379V404.659V404.658V404.656H303.503V438.378H269.781V438.379H337.225Z" fill="white"/>
<path d="M33.7188 370.932H67.4406V337.214V337.212V337.211H33.7188V370.932Z" fill="white"/>
<path d="M33.7188 438.378H67.4406V404.66V404.658V404.656H33.7188V438.378Z" fill="white"/>
<path d="M236.058 472.103V438.383H236.051H202.336V472.103H236.058Z" fill="white"/>
<path d="M202.331 472.104V472.102H168.609V472.104V505.823V505.825H202.331V505.823V472.104Z" fill="white"/>
<path d="M236.055 472.104V505.823V505.825H269.777V472.105V472.104V472.102H236.055V472.104Z" fill="white"/>
<path d="M134.886 472.104V472.102H101.164V472.104V505.823V505.825H134.886V505.823V472.104Z" fill="white"/>
<path d="M67.4406 472.102H33.7188V505.821V505.823H67.4406V505.821V472.102Z" fill="white"/>
<path d="M67.4453 472.103H101.167V438.383H101.16H67.4453V438.385V472.103Z" fill="white"/>
<path d="M168.612 472.103V438.383H168.606H134.891V472.103H168.612Z" fill="white"/>
<path d="M0 202.323H33.7219V168.602V168.602H0V202.323Z" fill="white"/>
<path d="M33.7219 101.156H0V134.878H33.7219V101.156Z" fill="white"/>
<path d="M33.7188 303.487H67.4406V269.768V269.767V269.766H33.7188V303.487Z" fill="white"/>
<path d="M0 269.768H33.7219V236.048V236.047H0V269.768Z" fill="white"/>
<path d="M101.167 67.4406V33.7188H101.166H67.4453V67.4406H101.167Z" fill="white"/>
<path d="M67.4406 67.4453H33.7188V101.167H67.4406V67.4453Z" fill="white"/>
<path d="M236.058 67.4406V33.7188H236.056H202.336V67.4406H236.058Z" fill="white"/>
<path d="M33.7219 472.103V438.383H0V438.385V448.502V472.105H33.7219V472.103Z" fill="white"/>
<path d="M168.612 67.4406V33.7188H168.611H134.891V67.4406H168.612Z" fill="white"/>
<path d="M33.7219 303.492H0V337.214H33.7219V303.492Z" fill="white"/>
<path d="M0 404.659H33.7219V370.938V370.938H0V404.659Z" fill="white"/>
<path d="M33.7219 33.7188H0V67.4406H33.7219V33.7188Z" fill="white"/>
<path d="M202.331 67.4453H168.609V101.167H202.331V67.4453Z" fill="white"/>
<path d="M134.886 67.4453H101.164V101.167H134.886V67.4453Z" fill="white"/>
<path d="M269.777 67.4453H236.055V101.167H269.777V67.4467V67.4453Z" fill="white"/>
<path d="M33.7188 168.612H67.4406V134.892V134.891H33.7188V168.612Z" fill="white"/>
<path d="M33.7188 236.057H67.4406V202.338V202.337V202.336H33.7188V236.057Z" fill="white"/>
<path d="M236.058 236.047H202.336V269.767V269.768H236.058V269.767V236.047Z" fill="white"/>
<path d="M202.331 269.766H168.609V303.486V303.487H202.331V303.486V269.766Z" fill="white"/>
<path d="M269.777 269.766H236.055V303.486V303.487H269.777V303.486V269.766Z" fill="white"/>
<path d="M134.891 236.047V269.767V269.767H168.612V236.047H134.891Z" fill="white"/>
<path d="M303.503 101.156H269.781V134.878H303.503V101.156Z" fill="white"/>
<path d="M303.503 236.058H269.781V236.058H337.225V202.338V202.337V202.336H303.503V236.058Z" fill="white"/>
<path d="M269.781 202.323H303.503V168.602V168.602H269.781V202.323Z" fill="white"/>
<path d="M303.5 168.612H337.222V134.892V134.891H303.5V168.612Z" fill="white"/>
<path d="M33.7219 472.102H0V505.821H33.7219V472.102Z" fill="#FF1345"/>
<path d="M33.7188 472.103H67.4406V438.385V438.383H33.7188V472.103Z" fill="#FF1345"/>
<path d="M33.7219 404.656H0V438.378H33.7219V404.656Z" fill="#FF1345"/>
<path d="M33.7188 404.659H67.4406V370.938H33.7188V370.938V404.659Z" fill="#FF1345"/>
<path d="M0 337.211V370.933H33.7219V370.932V337.211H0Z" fill="#FF1345"/>
<path d="M33.7188 337.214H67.4406V337.213V303.492H33.7188V337.214Z" fill="#FF1345"/>
<path d="M33.7219 269.766H0V303.487H33.7219V269.766Z" fill="#FF1345"/>
<path d="M33.7188 269.768V269.769H67.4406V269.768V236.047H33.7188V236.048V269.768Z" fill="#FF1345"/>
<path d="M0 202.336V236.058H33.7219V236.057V202.336H0Z" fill="#FF1345"/>
<path d="M33.7188 202.323H67.4406V202.322V168.602H33.7188V168.602V202.323Z" fill="#FF1345"/>
<path d="M0 134.891V168.612H33.7219V168.612V134.891H0Z" fill="#FF1345"/>
<path d="M33.7188 134.878H67.4406V134.877V101.156H33.7188V134.878Z" fill="#FF1345"/>
<path d="M303.503 202.336H269.781V236.058H303.503V202.336Z" fill="#FF1345"/>
<path d="M303.5 202.323H337.222V202.322V168.602H303.5V168.602V202.323Z" fill="#FF1345"/>
<path d="M269.781 134.891V168.612H303.503V168.612V134.891H269.781Z" fill="#FF1345"/>
<path d="M303.5 101.156V134.878H337.222V134.877V101.156H303.5Z" fill="#FF1345"/>
<path d="M303.503 404.656H269.781V438.378H303.503V404.656Z" fill="#FF1345"/>
<path d="M303.5 404.659H337.222V404.659V370.938H303.5V404.659Z" fill="#FF1345"/>
<path d="M303.503 337.211H269.781V370.933H303.503V337.211Z" fill="#FF1345"/>
<path d="M303.5 337.213H337.222V337.212V303.492H303.5V337.213Z" fill="#FF1345"/>
<path d="M33.7219 67.4453H0V101.167H33.7219V67.4453Z" fill="#FF1345"/>
<path d="M67.4406 33.7188H33.7188V67.4406H67.4406V33.7188Z" fill="#FF1345"/>
<path d="M101.167 67.4453H67.4453V101.167H101.167V67.4453Z" fill="#FF1345"/>
<path d="M134.886 67.4406V33.7188H101.165H101.164V67.4406H134.886Z" fill="#FF1345"/>
<path d="M168.612 67.4453H134.891V101.167H168.612V67.4453Z" fill="#FF1345"/>
<path d="M202.331 67.4406V33.7188H168.611H168.609V67.4406H202.331Z" fill="#FF1345"/>
<path d="M236.058 67.4453H202.336V101.167H236.058V67.4453Z" fill="#FF1345"/>
<path d="M269.777 67.4406V67.4393V33.7188H236.056H236.055V67.4406H269.777Z" fill="#FF1345"/>
<path d="M168.612 269.766V269.766H134.891V269.767V269.768V303.487H168.612V269.766Z" fill="#FF1345"/>
<path d="M202.331 236.047H168.609V269.767V269.768H202.331V269.767V236.047Z" fill="#FF1345"/>
<path d="M202.336 303.487H236.058V269.766V269.766H202.336V269.766V303.487Z" fill="#FF1345"/>
<path d="M236.055 236.047V269.767L269.777 269.768V236.048L236.055 236.047Z" fill="#FF1345"/>
<path d="M101.167 472.102H67.4453V505.821H101.167V472.102Z" fill="#FF1345"/>
<path d="M134.886 472.103V438.383H101.171H101.164V472.103H134.886Z" fill="#FF1345"/>
<path d="M168.612 472.102H134.891V505.821H168.612V472.102Z" fill="#FF1345"/>
<path d="M202.331 472.103V438.383H168.616H168.609V472.103H202.331Z" fill="#FF1345"/>
<path d="M236.058 472.102H202.336V505.821H236.058V472.102Z" fill="#FF1345"/>
<path d="M269.777 472.103V438.384V438.383H236.061H236.055V472.103H269.777Z" fill="#FF1345"/>
</g>
<path d="M1018.59 370.946C1037.21 370.946 1052.31 386.043 1052.31 404.667V337.227C1052.31 355.85 1037.21 370.947 1018.59 370.947V370.946Z" fill="white"/>
<path d="M1018.58 303.503C999.96 303.503 984.862 288.405 984.862 269.781C984.862 288.405 969.765 303.503 951.141 303.503C969.765 303.503 984.862 318.601 984.862 337.225C984.862 318.601 999.96 303.503 1018.58 303.503Z" fill="white"/>
<path d="M883.698 168.612C865.075 168.612 849.977 153.515 849.977 134.891V202.334C849.977 183.71 865.075 168.612 883.698 168.612Z" fill="white"/>
<path d="M951.139 236.058C932.515 236.058 917.417 220.96 917.417 202.336C917.417 220.96 902.319 236.058 883.695 236.058C902.319 236.058 917.417 251.156 917.417 269.78C917.417 251.156 932.515 236.058 951.139 236.058Z" fill="white"/>
<path d="M816.253 168.612C797.629 168.612 782.531 153.515 782.531 134.891V202.334C782.531 183.71 797.629 168.612 816.253 168.612Z" fill="white"/>
<path d="M816.25 101.167C834.874 101.167 849.972 116.265 849.972 134.889V67.4453C849.972 86.0692 834.874 101.167 816.25 101.167Z" fill="white"/>
<path d="M816.253 101.167C797.629 101.167 782.531 86.0692 782.531 67.4453V134.889C782.531 116.265 797.629 101.167 816.253 101.167Z" fill="white"/>
<path d="M816.253 236.058C797.629 236.058 782.531 220.96 782.531 202.336V269.78C782.531 251.156 797.629 236.058 816.253 236.058Z" fill="white"/>
<path d="M816.25 236.058C834.874 236.058 849.972 251.156 849.972 269.78V202.336C849.972 220.96 834.874 236.058 816.25 236.058Z" fill="white"/>
<path d="M816.25 168.612C834.874 168.612 849.972 183.71 849.972 202.334V134.891C849.972 153.515 834.874 168.612 816.25 168.612Z" fill="white"/>
<path d="M1086.03 303.503C1104.66 303.503 1119.75 318.601 1119.75 337.225V269.781C1119.75 288.405 1104.66 303.503 1086.03 303.503Z" fill="white"/>
<path d="M1086.03 303.503C1067.41 303.503 1052.31 288.405 1052.31 269.781V337.224V337.225C1052.31 318.601 1067.41 303.503 1086.03 303.503Z" fill="white"/>
<path d="M1086.03 370.948C1104.66 370.948 1119.75 386.046 1119.75 404.67V337.227C1119.75 355.85 1104.66 370.948 1086.03 370.948Z" fill="white"/>
<path d="M1086.03 438.394C1104.66 438.394 1119.75 453.492 1119.75 472.116V404.672C1119.75 423.296 1104.66 438.394 1086.03 438.394Z" fill="white"/>
<path d="M1086.03 438.395C1067.41 438.395 1052.31 423.297 1052.31 404.673V404.672V472.117C1052.31 453.493 1067.41 438.395 1086.03 438.395Z" fill="white"/>
<path d="M1086.03 370.948C1067.41 370.948 1052.31 355.85 1052.31 337.227V337.228V404.668V404.67C1052.31 386.046 1067.41 370.948 1086.03 370.948V370.948Z" fill="white"/>
<path d="M816.253 438.394C797.629 438.394 782.531 423.296 782.531 404.672V472.116C782.531 453.492 797.629 438.394 816.253 438.394Z" fill="white"/>
<path d="M816.25 370.948C834.874 370.948 849.972 386.046 849.972 404.67V337.227C849.972 355.85 834.874 370.948 816.25 370.948Z" fill="white"/>
<path d="M816.253 370.948C797.629 370.948 782.531 355.85 782.531 337.227V404.67C782.531 386.046 797.629 370.948 816.253 370.948Z" fill="white"/>
<path d="M816.25 438.394C834.874 438.394 849.972 453.492 849.972 472.116V404.672C849.972 423.296 834.874 438.394 816.25 438.394Z" fill="white"/>
<path d="M1086.03 101.167C1104.66 101.167 1119.75 116.265 1119.75 134.889V67.4453C1119.75 86.0692 1104.66 101.167 1086.03 101.167Z" fill="white"/>
<path d="M1086.03 168.612C1104.66 168.612 1119.75 183.71 1119.75 202.334V134.891C1119.75 153.515 1104.66 168.612 1086.03 168.612Z" fill="white"/>
<path d="M816.253 370.948V337.227H782.531C782.531 355.85 797.629 370.948 816.253 370.948Z" fill="#0AA7FF"/>
<path d="M816.253 370.938C797.629 370.938 782.531 386.035 782.531 404.659H816.253V370.938Z" fill="#0AA7FF"/>
<path d="M816.25 370.938V404.659H849.972C849.972 386.035 834.874 370.938 816.25 370.938Z" fill="#0AA7FF"/>
<path d="M816.25 370.948C834.874 370.948 849.972 355.85 849.972 337.227H816.25V370.948Z" fill="#0AA7FF"/>
<path d="M782.531 269.781C782.531 288.405 797.629 303.503 816.253 303.503V269.781H782.531Z" fill="#0AA7FF"/>
<path d="M782.531 337.23H816.253V303.508C797.629 303.508 782.531 318.606 782.531 337.23Z" fill="#0AA7FF"/>
<path d="M849.972 337.23C849.972 318.606 834.874 303.508 816.25 303.508V337.23H849.972Z" fill="#0AA7FF"/>
<path d="M816.25 303.503C834.874 303.503 849.972 288.405 849.972 269.781H816.25V303.503Z" fill="#0AA7FF"/>
<path d="M917.422 269.781C917.422 288.405 932.52 303.503 951.144 303.503V269.781H917.422Z" fill="#0AA7FF"/>
<path d="M816.253 438.394V404.672H782.531C782.531 423.296 797.629 438.394 816.253 438.394Z" fill="#0AA7FF"/>
<path d="M816.253 438.383C797.629 438.383 782.531 453.481 782.531 472.105H816.253V438.383Z" fill="#0AA7FF"/>
<path d="M816.25 438.383V472.105H849.972C849.972 453.481 834.874 438.383 816.25 438.383Z" fill="#0AA7FF"/>
<path d="M816.25 438.394C834.874 438.394 849.972 423.296 849.972 404.672H816.25V438.394Z" fill="#0AA7FF"/>
<path d="M782.531 472.117C782.531 490.741 797.629 505.839 816.253 505.839V472.117H782.531Z" fill="#0AA7FF"/>
<path d="M816.25 505.839C834.874 505.839 849.972 490.741 849.972 472.117H816.25V505.839Z" fill="#0AA7FF"/>
<path d="M984.867 337.227C984.867 355.85 999.965 370.948 1018.59 370.948V337.227H984.867Z" fill="#0AA7FF"/>
<path d="M1086.03 370.948V337.227H1052.31C1052.31 355.85 1067.41 370.948 1086.03 370.948Z" fill="#0AA7FF"/>
<path d="M1052.31 404.659H1086.03V370.938C1067.41 370.938 1052.31 386.035 1052.31 404.659Z" fill="#0AA7FF"/>
<path d="M1052.31 337.228V337.227H1018.59V370.948C1037.21 370.948 1052.31 355.852 1052.31 337.228Z" fill="#0AA7FF"/>
<path d="M1086.03 370.938V404.659H1119.75C1119.75 386.035 1104.66 370.938 1086.03 370.938Z" fill="#0AA7FF"/>
<path d="M1086.03 370.948C1104.66 370.948 1119.75 355.85 1119.75 337.227H1086.03V370.948Z" fill="#0AA7FF"/>
<path d="M1018.59 303.508C999.965 303.508 984.867 318.606 984.867 337.23H1018.59V303.508Z" fill="#0AA7FF"/>
<path d="M984.862 269.781H951.141V303.503C969.765 303.503 984.862 288.405 984.862 269.781Z" fill="#0AA7FF"/>
<path d="M1086.03 303.503V269.781H1052.31C1052.31 288.405 1067.41 303.503 1086.03 303.503Z" fill="#0AA7FF"/>
<path d="M1052.31 337.23H1086.03V303.508C1067.41 303.508 1052.31 318.606 1052.31 337.23Z" fill="#0AA7FF"/>
<path d="M1052.31 337.23V337.228C1052.31 318.605 1037.21 303.508 1018.59 303.508V337.23H1052.31Z" fill="#0AA7FF"/>
<path d="M1086.03 303.508V337.23H1119.75C1119.75 318.606 1104.66 303.508 1086.03 303.508Z" fill="#0AA7FF"/>
<path d="M1086.03 303.503C1104.66 303.503 1119.75 288.405 1119.75 269.781H1086.03V303.503Z" fill="#0AA7FF"/>
<path d="M1086.03 438.394V404.672H1052.31C1052.31 423.296 1067.41 438.394 1086.03 438.394Z" fill="#0AA7FF"/>
<path d="M1086.03 438.383C1067.41 438.383 1052.31 453.481 1052.31 472.105H1086.03V438.383Z" fill="#0AA7FF"/>
<path d="M1086.03 438.383V472.105H1119.75C1119.75 453.481 1104.66 438.383 1086.03 438.383Z" fill="#0AA7FF"/>
<path d="M1086.03 438.394C1104.66 438.394 1119.75 423.296 1119.75 404.672H1086.03V438.394Z" fill="#0AA7FF"/>
<path d="M1052.31 472.117C1052.31 490.741 1067.41 505.839 1086.03 505.839V472.117H1052.31Z" fill="#0AA7FF"/>
<path d="M1086.03 505.839C1104.66 505.839 1119.75 490.741 1119.75 472.117H1086.03V505.839Z" fill="#0AA7FF"/>
<path d="M816.253 101.167V67.4453H782.531C782.531 86.0692 797.629 101.167 816.253 101.167Z" fill="#0AA7FF"/>
<path d="M816.253 101.172C797.629 101.172 782.531 116.27 782.531 134.894H816.253V101.172Z" fill="#0AA7FF"/>
<path d="M816.25 101.172V134.894H849.972C849.972 116.27 834.874 101.172 816.25 101.172Z" fill="#0AA7FF"/>
<path d="M816.25 101.167C834.874 101.167 849.972 86.0692 849.972 67.4453H816.25V101.167Z" fill="#0AA7FF"/>
<path d="M816.253 33.7266C797.629 33.7266 782.531 48.8245 782.531 67.4484H816.253V33.7266Z" fill="#0AA7FF"/>
<path d="M849.972 67.4484C849.972 48.8245 834.874 33.7266 816.25 33.7266V67.4484H849.972Z" fill="#0AA7FF"/>
<path d="M816.253 168.612V134.891H782.531C782.531 153.515 797.629 168.612 816.253 168.612Z" fill="#0AA7FF"/>
<path d="M816.253 168.617C797.629 168.617 782.531 183.715 782.531 202.339H816.253V168.617Z" fill="#0AA7FF"/>
<path d="M883.698 168.617C865.075 168.617 849.977 183.715 849.977 202.339H883.698V168.617Z" fill="#0AA7FF"/>
<path d="M816.25 168.617V202.339H849.972C849.972 183.715 834.874 168.617 816.25 168.617Z" fill="#0AA7FF"/>
<path d="M816.25 168.612C834.874 168.612 849.972 153.515 849.972 134.891H816.25V168.612Z" fill="#0AA7FF"/>
<path d="M917.417 202.339C917.417 183.715 902.319 168.617 883.695 168.617V202.339H917.417Z" fill="#0AA7FF"/>
<path d="M816.253 236.058V202.336H782.531C782.531 220.96 797.629 236.058 816.253 236.058Z" fill="#0AA7FF"/>
<path d="M816.253 236.062C797.629 236.062 782.531 251.16 782.531 269.784H816.253V236.062Z" fill="#0AA7FF"/>
<path d="M849.977 202.336C849.977 220.96 865.075 236.058 883.698 236.058V202.336H849.977Z" fill="#0AA7FF"/>
<path d="M816.25 236.062V269.784H849.972C849.972 251.16 834.874 236.062 816.25 236.062Z" fill="#0AA7FF"/>
<path d="M816.25 236.058C834.874 236.058 849.972 220.96 849.972 202.336H816.25V236.058Z" fill="#0AA7FF"/>
<path d="M951.144 236.062C932.52 236.062 917.422 251.16 917.422 269.784H951.144V236.062Z" fill="#0AA7FF"/>
<path d="M917.417 202.336H883.695V236.058C902.319 236.058 917.417 220.96 917.417 202.336Z" fill="#0AA7FF"/>
<path d="M1086.03 101.167V67.4453H1052.31C1052.31 86.0692 1067.41 101.167 1086.03 101.167Z" fill="#0AA7FF"/>
<path d="M1052.31 134.894H1086.03V101.172C1067.41 101.172 1052.31 116.27 1052.31 134.894Z" fill="#0AA7FF"/>
<path d="M1086.03 101.172V134.894H1119.75C1119.75 116.27 1104.66 101.172 1086.03 101.172Z" fill="#0AA7FF"/>
<path d="M1086.03 101.167C1104.66 101.167 1119.75 86.0692 1119.75 67.4453H1086.03V101.167Z" fill="#0AA7FF"/>
<path d="M1086.03 33.7266C1067.44 33.7266 1052.36 48.78 1052.31 67.3661H1086.03V33.7266Z" fill="#0AA7FF"/>
<path d="M1086.03 67.4488V67.3672H1052.31C1052.31 67.3948 1052.31 67.4218 1052.31 67.4488H1086.03Z" fill="#0AA7FF"/>
<path d="M1119.75 67.3661C1119.71 48.78 1104.63 33.7266 1086.03 33.7266V67.3661H1119.75Z" fill="#0AA7FF"/>
<path d="M1086.03 67.3672V67.4488H1119.75C1119.75 67.4211 1119.75 67.3942 1119.75 67.3672H1086.03Z" fill="#0AA7FF"/>
<path d="M1086.03 168.612V134.891H1052.31C1052.31 153.515 1067.41 168.612 1086.03 168.612Z" fill="#0AA7FF"/>
<path d="M1086.03 168.617C1067.41 168.617 1052.31 183.715 1052.31 202.339H1086.03V168.617Z" fill="#0AA7FF"/>
<path d="M1086.03 168.617V202.339H1119.75C1119.75 183.715 1104.66 168.617 1086.03 168.617Z" fill="#0AA7FF"/>
<path d="M1086.03 168.612C1104.66 168.612 1119.75 153.515 1119.75 134.891H1086.03V168.612Z" fill="#0AA7FF"/>
<path d="M984.862 269.784C984.862 251.16 969.765 236.062 951.141 236.062V269.784H984.862Z" fill="#0AA7FF"/>
<path d="M1052.31 202.336C1052.31 220.96 1067.41 236.058 1086.03 236.058V202.336H1052.31Z" fill="#0AA7FF"/>
<path d="M1052.31 269.784H1086.03V236.062C1067.41 236.062 1052.31 251.16 1052.31 269.784Z" fill="#0AA7FF"/>
<path d="M1119.75 269.784C1119.75 251.16 1104.66 236.062 1086.03 236.062V269.784H1119.75Z" fill="#0AA7FF"/>
<path d="M1086.03 236.058C1104.66 236.058 1119.75 220.96 1119.75 202.336H1086.03V236.058Z" fill="#0AA7FF"/>
<g clip-path="url(#clip1_4166_46376)">
<path d="M1308.59 33.7188H1274.87V67.4406H1308.59V33.7188Z" fill="white"/>
<path d="M1376.03 33.7188H1342.31V67.4406H1376.03V33.7188Z" fill="white"/>
<path d="M1443.48 134.892V168.612V168.614H1477.2V134.897V134.892V134.891H1443.48V134.892Z" fill="white"/>
<path d="M1443.48 101.158V101.156H1409.76V134.877H1443.48V101.158Z" fill="white"/>
<path d="M1241.14 33.7188H1207.42V67.4406H1241.14V33.7188Z" fill="white"/>
<path d="M1274.88 67.4453H1241.16V101.167H1274.88V67.4453Z" fill="white"/>
<path d="M1409.75 67.4453H1376.03V101.167H1409.75V67.4453Z" fill="white"/>
<path d="M1342.31 67.4453H1308.59V101.167H1342.31V67.4453Z" fill="white"/>
<path d="M1173.71 168.602H1139.98V202.322H1173.71V168.602Z" fill="white"/>
<path d="M1173.71 236.047H1139.98V269.768H1173.71V236.047Z" fill="white"/>
<path d="M1207.43 269.766H1173.71V303.487H1207.43V269.766Z" fill="white"/>
<path d="M1207.43 404.656H1173.71V438.378H1207.43V404.656Z" fill="white"/>
<path d="M1173.71 236.056V236.057H1207.43V202.336H1173.71V236.056Z" fill="white"/>
<path d="M1173.71 101.156H1139.98V134.877H1173.71V101.156Z" fill="white"/>
<path d="M1173.71 370.932V370.933H1207.43V337.211H1173.71V370.932Z" fill="white"/>
<path d="M1173.71 303.492H1139.98V337.213H1173.71V303.492Z" fill="white"/>
<path d="M1173.71 134.892V168.612H1207.43V134.891H1173.71V134.892Z" fill="white"/>
<path d="M1173.71 370.938H1139.98V404.659H1173.71V370.938Z" fill="white"/>
<path d="M1443.48 370.938H1409.76V404.659H1443.48V370.938Z" fill="white"/>
<path d="M1443.48 303.492H1409.76V337.214H1443.48V303.492Z" fill="white"/>
<path d="M1477.2 404.656H1443.48V438.378H1477.2V404.656Z" fill="white"/>
<path d="M1477.2 337.211H1443.48V370.933H1477.2V337.211Z" fill="white"/>
<path d="M1376.03 269.768V236.048V236.047H1342.31V269.768H1376.03Z" fill="white"/>
<path d="M1409.75 269.766H1376.03V269.766V303.487V303.488H1409.75V269.766V269.766Z" fill="white"/>
<path d="M1342.31 269.766V269.766H1308.59V269.766V303.487V303.488H1342.31V303.487V269.766Z" fill="white"/>
<path d="M1308.59 236.047H1274.87V269.768H1308.59V236.047Z" fill="white"/>
<path d="M1241.14 438.383H1207.42V472.105H1241.14V438.383Z" fill="white"/>
<path d="M1342.31 472.102H1308.59V505.823H1342.31V472.102Z" fill="white"/>
<path d="M1409.75 472.102H1376.03V505.823H1409.75V472.102Z" fill="white"/>
<path d="M1274.88 472.102H1241.16V505.823H1274.88V472.102Z" fill="white"/>
<path d="M1308.59 438.383H1274.87V472.105H1308.59V438.383Z" fill="white"/>
<path d="M1376.03 438.383H1342.31V472.105H1376.03V438.383Z" fill="white"/>
<path d="M1173.71 404.656H1139.98V438.378H1173.71V404.656Z" fill="#FF1345"/>
<path d="M1207.43 370.938H1173.71V404.659H1207.43V370.938Z" fill="#FF1345"/>
<path d="M1173.71 337.211H1139.98V370.932H1173.71V337.211Z" fill="#FF1345"/>
<path d="M1207.43 303.492H1173.71V337.213H1207.43V303.492Z" fill="#FF1345"/>
<path d="M1173.71 269.766H1139.98V303.487H1173.71V269.766Z" fill="#FF1345"/>
<path d="M1207.43 236.047H1173.71V269.768H1207.43V236.047Z" fill="#FF1345"/>
<path d="M1173.71 202.336H1139.98V236.056H1173.71V202.336Z" fill="#FF1345"/>
<path d="M1207.43 168.602H1173.71V202.322H1207.43V168.602Z" fill="#FF1345"/>
<path d="M1173.71 134.891H1139.98V168.611H1173.71V134.891Z" fill="#FF1345"/>
<path d="M1207.43 101.156H1173.71V134.877H1207.43V101.156Z" fill="#FF1345"/>
<path d="M1207.42 67.4453V101.166V101.167H1241.14V67.4453H1207.42Z" fill="#FF1345"/>
<path d="M1274.88 33.7188H1241.16V67.4406H1274.88V33.7188Z" fill="#FF1345"/>
<path d="M1308.59 67.4453H1274.87V101.167H1308.59V67.4453Z" fill="#FF1345"/>
<path d="M1342.31 33.7188H1308.59V67.4406H1342.31V33.7188Z" fill="#FF1345"/>
<path d="M1308.59 269.766H1274.87V303.487H1308.59V269.766Z" fill="#FF1345"/>
<path d="M1342.31 236.047H1308.59V269.768H1342.31V236.047Z" fill="#FF1345"/>
<path d="M1376.03 269.766H1342.31V303.487H1376.03V269.766Z" fill="#FF1345"/>
<path d="M1409.75 236.047H1376.03V269.767H1409.75V236.047Z" fill="#FF1345"/>
<path d="M1376.03 67.4453H1342.31V101.167H1376.03V67.4453Z" fill="#FF1345"/>
<path d="M1409.75 33.7188H1376.03V67.4406H1409.75V33.7188Z" fill="#FF1345"/>
<path d="M1241.14 472.102H1207.42V505.823H1241.14V472.102Z" fill="#FF1345"/>
<path d="M1274.88 438.383H1241.16V472.105H1274.88V438.383Z" fill="#FF1345"/>
<path d="M1308.59 472.102H1274.87V505.823H1308.59V472.102Z" fill="#FF1345"/>
<path d="M1342.31 438.383H1308.59V472.105H1342.31V438.383Z" fill="#FF1345"/>
<path d="M1376.03 472.102H1342.31V505.823H1376.03V472.102Z" fill="#FF1345"/>
<path d="M1409.75 438.383H1376.03V472.105H1409.75V438.383Z" fill="#FF1345"/>
<path d="M1443.48 134.891H1409.76V168.611H1443.48V134.891Z" fill="#FF1345"/>
<path d="M1443.48 134.875H1477.2V134.873V134.872V101.156H1443.48V134.875Z" fill="#FF1345"/>
<path d="M1443.48 337.211H1409.76V370.933H1443.48V337.211Z" fill="#FF1345"/>
<path d="M1477.2 303.492H1443.48V337.214H1477.2V303.492Z" fill="#FF1345"/>
<path d="M1443.48 404.656H1409.76V438.378H1443.48V404.656Z" fill="#FF1345"/>
<path d="M1477.2 370.938H1443.48V404.659H1477.2V370.938Z" fill="#FF1345"/>
</g>
<g clip-path="url(#clip2_4166_46376)">
<path d="M1564.87 370.933C1546.25 370.933 1531.15 355.835 1531.15 337.211C1531.15 355.835 1516.05 370.933 1497.43 370.933C1516.05 370.933 1531.15 386.031 1531.15 404.655C1531.15 386.031 1546.25 370.933 1564.87 370.933Z" fill="#A54AFF"/>
<path d="M1564.87 303.487C1546.25 303.487 1531.15 288.39 1531.15 269.766C1531.15 288.39 1516.05 303.487 1497.43 303.487C1516.05 303.487 1531.15 318.585 1531.15 337.209C1531.15 318.585 1546.25 303.487 1564.87 303.487Z" fill="#A54AFF"/>
<path d="M1564.87 505.823C1546.25 505.823 1531.15 490.725 1531.15 472.102C1531.15 490.725 1516.05 505.823 1497.43 505.823C1516.05 505.823 1531.15 520.921 1531.15 539.545C1531.15 520.921 1546.25 505.823 1564.87 505.823Z" fill="#A54AFF"/>
<path d="M1632.32 370.933C1613.69 370.933 1598.6 355.835 1598.6 337.211C1598.6 355.835 1583.5 370.933 1564.88 370.933C1583.5 370.933 1598.6 386.031 1598.6 404.655C1598.6 386.031 1613.69 370.933 1632.32 370.933Z" fill="#A54AFF"/>
<path d="M1632.32 303.487C1613.69 303.487 1598.6 288.39 1598.6 269.766C1598.6 288.39 1583.5 303.487 1564.88 303.487C1583.5 303.487 1598.6 318.585 1598.6 337.209C1598.6 318.585 1613.69 303.487 1632.32 303.487Z" fill="#A54AFF"/>
<path d="M1632.32 505.823C1613.69 505.823 1598.6 490.725 1598.6 472.102C1598.6 490.725 1583.5 505.823 1564.88 505.823C1583.5 505.823 1598.6 520.921 1598.6 539.545C1598.6 520.921 1613.69 505.823 1632.32 505.823Z" fill="#A54AFF"/>
<path d="M1564.87 101.167C1546.25 101.167 1531.15 86.0692 1531.15 67.4453C1531.15 86.0692 1516.05 101.167 1497.43 101.167C1516.05 101.167 1531.15 116.265 1531.15 134.889C1531.15 116.265 1546.25 101.167 1564.87 101.167Z" fill="#A54AFF"/>
<path d="M1564.87 33.7219C1546.25 33.7219 1531.15 18.6239 1531.15 0C1531.15 18.6239 1516.05 33.7219 1497.43 33.7219C1516.05 33.7219 1531.15 48.8198 1531.15 67.4437C1531.15 48.8198 1546.25 33.7219 1564.87 33.7219Z" fill="#A54AFF"/>
<path d="M1564.87 168.612C1546.25 168.612 1531.15 153.515 1531.15 134.891C1531.15 153.515 1516.05 168.612 1497.43 168.612C1516.05 168.612 1531.15 183.71 1531.15 202.334C1531.15 183.71 1546.25 168.612 1564.87 168.612Z" fill="#A54AFF"/>
<path d="M1564.87 236.058C1546.25 236.058 1531.15 220.96 1531.15 202.336C1531.15 220.96 1516.05 236.058 1497.43 236.058C1516.05 236.058 1531.15 251.156 1531.15 269.78C1531.15 251.156 1546.25 236.058 1564.87 236.058Z" fill="#A54AFF"/>
<path d="M1632.32 101.167C1613.69 101.167 1598.6 86.0692 1598.6 67.4453C1598.6 86.0692 1583.5 101.167 1564.88 101.167C1583.5 101.167 1598.6 116.265 1598.6 134.889C1598.6 116.265 1613.69 101.167 1632.32 101.167Z" fill="#A54AFF"/>
<path d="M1632.32 33.7219C1613.69 33.7219 1598.6 18.6239 1598.6 0C1598.6 18.6239 1583.5 33.7219 1564.88 33.7219C1583.5 33.7219 1598.6 48.8198 1598.6 67.4437C1598.6 48.8198 1613.69 33.7219 1632.32 33.7219Z" fill="#A54AFF"/>
<path d="M1632.32 168.612C1613.69 168.612 1598.6 153.515 1598.6 134.891C1598.6 153.515 1583.5 168.612 1564.88 168.612C1583.5 168.612 1598.6 183.71 1598.6 202.334C1598.6 183.71 1613.69 168.612 1632.32 168.612Z" fill="#A54AFF"/>
<path d="M1632.32 236.058C1613.69 236.058 1598.6 220.96 1598.6 202.336C1598.6 220.96 1583.5 236.058 1564.88 236.058C1583.5 236.058 1598.6 251.156 1598.6 269.78C1598.6 251.156 1613.69 236.058 1632.32 236.058Z" fill="#A54AFF"/>
</g>
<path d="M1686.27 303.503C1704.9 303.503 1720 318.601 1720 337.225V269.781C1720 288.405 1704.9 303.503 1686.27 303.503Z" fill="white"/>
<path d="M1686.28 303.503C1667.65 303.503 1652.55 288.405 1652.55 269.781V337.225C1652.55 318.601 1667.65 303.503 1686.28 303.503Z" fill="white"/>
<path d="M1686.28 168.612C1667.65 168.612 1652.55 153.515 1652.55 134.891V202.334C1652.55 183.71 1667.65 168.612 1686.28 168.612Z" fill="white"/>
<path d="M1686.28 101.167C1667.65 101.167 1652.55 86.0692 1652.55 67.4453V134.889C1652.55 116.265 1667.65 101.167 1686.28 101.167Z" fill="white"/>
<path d="M1686.27 101.167C1704.9 101.167 1720 116.265 1720 134.889V67.4453C1720 86.0692 1704.9 101.167 1686.27 101.167Z" fill="white"/>
<path d="M1686.27 168.612C1704.9 168.612 1720 183.71 1720 202.334V134.891C1720 153.515 1704.9 168.612 1686.27 168.612Z" fill="white"/>
<path d="M1652.55 337.227C1652.55 355.85 1667.65 370.948 1686.28 370.948V337.227H1652.55Z" fill="#0AA7FF"/>
<path d="M1686.28 303.503V269.781H1652.55C1652.55 288.405 1667.65 303.503 1686.28 303.503Z" fill="#0AA7FF"/>
<path d="M1686.28 303.508C1667.65 303.508 1652.55 318.606 1652.55 337.23H1686.28V303.508Z" fill="#0AA7FF"/>
<path d="M1686.28 438.383C1667.65 438.383 1652.55 453.481 1652.55 472.105H1686.28V438.383Z" fill="#0AA7FF"/>
<path d="M1652.55 472.117C1652.55 490.741 1667.65 505.839 1686.28 505.839V472.117H1652.55Z" fill="#0AA7FF"/>
<path d="M1686.27 370.948C1704.9 370.948 1720 355.85 1720 337.227H1686.27V370.948Z" fill="#0AA7FF"/>
<path d="M1686.27 303.508V337.23H1720C1720 318.606 1704.9 303.508 1686.27 303.508Z" fill="#0AA7FF"/>
<path d="M1686.27 303.503C1704.9 303.503 1720 288.405 1720 269.781H1686.27V303.503Z" fill="#0AA7FF"/>
<path d="M1686.27 438.383V472.105H1720C1720 453.481 1704.9 438.383 1686.27 438.383Z" fill="#0AA7FF"/>
<path d="M1686.27 505.839C1704.9 505.839 1720 490.741 1720 472.117H1686.27V505.839Z" fill="#0AA7FF"/>
<path d="M1686.28 101.167V67.4453H1652.55C1652.55 86.0692 1667.65 101.167 1686.28 101.167Z" fill="#0AA7FF"/>
<path d="M1686.28 101.172C1667.65 101.172 1652.55 116.27 1652.55 134.894H1686.28V101.172Z" fill="#0AA7FF"/>
<path d="M1686.28 33.7266C1667.65 33.7266 1652.55 48.8245 1652.55 67.4484H1686.28V33.7266Z" fill="#0AA7FF"/>
<path d="M1686.28 168.612V134.891H1652.55C1652.55 153.515 1667.65 168.612 1686.28 168.612Z" fill="#0AA7FF"/>
<path d="M1686.28 168.617C1667.65 168.617 1652.55 183.715 1652.55 202.339H1686.28V168.617Z" fill="#0AA7FF"/>
<path d="M1652.55 202.336C1652.55 220.96 1667.65 236.058 1686.28 236.058V202.336H1652.55Z" fill="#0AA7FF"/>
<path d="M1652.55 269.784H1686.28V236.062C1667.65 236.062 1652.55 251.16 1652.55 269.784Z" fill="#0AA7FF"/>
<path d="M1686.27 101.172V134.894H1720C1720 116.27 1704.9 101.172 1686.27 101.172Z" fill="#0AA7FF"/>
<path d="M1686.27 101.167C1704.9 101.167 1720 86.0692 1720 67.4453H1686.27V101.167Z" fill="#0AA7FF"/>
<path d="M1720 67.4484C1720 48.8245 1704.9 33.7266 1686.27 33.7266V67.4484H1720Z" fill="#0AA7FF"/>
<path d="M1686.27 168.617V202.339H1720C1720 183.715 1704.9 168.617 1686.27 168.617Z" fill="#0AA7FF"/>
<path d="M1686.27 168.612C1704.9 168.612 1720 153.515 1720 134.891H1686.27V168.612Z" fill="#0AA7FF"/>
<path d="M1720 269.784C1720 251.16 1704.9 236.062 1686.27 236.062V269.784H1720Z" fill="#0AA7FF"/>
<path d="M1686.27 236.058C1704.9 236.058 1720 220.96 1720 202.336H1686.27V236.058Z" fill="#0AA7FF"/>
<defs>
<clipPath id="clip0_4166_46376">
<rect width="337.219" height="472.106" fill="white" transform="translate(0 33.7188)"/>
</clipPath>
<clipPath id="clip1_4166_46376">
<rect width="337.219" height="472.106" fill="white" transform="translate(1139.98 33.7188)"/>
</clipPath>
<clipPath id="clip2_4166_46376">
<rect width="134.887" height="539.55" fill="white" transform="translate(1497.43)"/>
</clipPath>
</defs>
</svg>
