<svg width="538" height="91" viewBox="0 0 538 91" fill="none" xmlns="http://www.w3.org/2000/svg">
<path d="M70.272 20.496V31.632C70.272 31.888 70.4 32.144 70.4 32.4C70.4 32.784 70.272 33.04 70.272 33.296V38.8H57.472V44.432C57.472 44.688 57.6 44.944 57.6 45.2C57.6 45.584 57.472 45.84 57.472 46.096V51.6H51.2C51.072 51.6 38.4 51.6 38.4 51.6C38.272 51.6 25.6 51.6 25.6 51.6C25.472 51.6 19.2 51.6 19.2 51.6V38.8H57.472V13.2H19.2V0.527992H25.472C25.472 0.527992 25.472 0.527992 25.6 0.527992H38.272C38.272 0.527992 38.272 0.527992 38.4 0.527992H51.072C51.072 0.527992 51.072 0.527992 51.2 0.527992H57.472V6.032C57.472 6.28799 57.6 6.544 57.6 6.92799C57.6 7.184 57.472 7.43999 57.472 7.696V13.328H70.272V18.832C70.272 19.088 70.4 19.344 70.4 19.6C70.4 19.984 70.272 20.24 70.272 20.496ZM19.2 0.527992V90H6.4V0.527992H19.2ZM134.35 13.328H147.15V90H134.35V51.6H95.95V90H83.15V13.328H95.95V0.527992H115.022C115.022 0.527992 115.022 0.527992 115.15 0.527992H134.35V13.328ZM134.35 38.8V13.328H95.95V38.8H134.35ZM172.7 64.4V77.2H211.1V90H172.7V77.2H159.9V64.4H172.7ZM172.7 51.6V38.8H159.9V13.328H172.7V0.527992H211.1V13.328H223.9V19.6C223.9 19.728 223.9 26 223.9 26H211.1V13.328H172.7V38.8H211.1V45.2C211.1 45.328 211.1 51.6 211.1 51.6H204.7C204.572 51.6 191.9 51.6 191.9 51.6C191.772 51.6 179.1 51.6 179.1 51.6C178.972 51.6 172.7 51.6 172.7 51.6ZM223.9 77.2H211.1V51.6H223.9V77.2ZM249.45 64.4V77.2H287.85V90H249.45V77.2H236.65V64.4H249.45ZM249.45 51.6V38.8H236.65V13.328H249.45V0.527992H287.85V13.328H300.65V19.6C300.65 19.728 300.65 26 300.65 26H287.85V13.328H249.45V38.8H287.85V45.2C287.85 45.328 287.85 51.6 287.85 51.6H281.45C281.322 51.6 268.65 51.6 268.65 51.6C268.522 51.6 255.85 51.6 255.85 51.6C255.722 51.6 249.45 51.6 249.45 51.6ZM300.65 77.2H287.85V51.6H300.65V77.2ZM377.4 77.2V83.6C377.4 83.728 377.4 83.728 377.4 83.728V90H313.4V77.2H339V13.328H313.4V0.527992H377.272V6.8C377.272 6.8 377.4 6.8 377.4 6.92799H377.272V13.328H351.8V77.2H377.4ZM402.95 58.128V70.8C402.95 70.928 402.95 70.928 402.95 70.928V77.2H390.15V13.2H402.95V19.6C402.95 19.728 402.95 19.728 402.95 19.728V32.4C402.95 32.528 402.95 32.528 402.95 32.528V45.2C402.95 45.328 402.95 45.328 402.95 45.328V58C402.95 58.128 402.95 58.128 402.95 58.128ZM454.15 13.328V77.2H441.35V90H402.95V77.2H441.35V13.328H402.95V0.527992H441.35V13.328H454.15ZM479.7 0.527992V26.128H492.5V38.928H479.7V90H466.9V0.527992H479.7ZM518.1 0.527992H530.9V90H518.1V64.528H505.3V51.728H492.5V38.928H505.3V51.728H518.1V0.527992Z" fill="#FF1345"/>
<path d="M12.8 90H6.4V83.6H12.8V90ZM6.4 77.2V70.8H12.8V77.2H19.2V83.6H12.8V77.2H6.4ZM6.4 64.4V58H12.8V64.4H19.2V70.8H12.8V64.4H6.4ZM19.2 38.8V45.2H12.8V38.8H6.4V32.4H12.8V38.8H19.2ZM19.2 26V32.4H12.8V26.128H6.4V19.728H12.8V26H19.2ZM19.2 13.328V19.728H12.8V13.328H6.4V6.92799H12.8V0.527992H19.2V6.92799H25.6V0.527992H32V6.92799H38.4V0.527992H44.8V6.92799H51.2V0.527992H57.6V6.92799H51.2V13.328H44.8V6.92799H38.4V13.328H32V6.92799H25.6V13.328H19.2ZM12.8 6.92799V13.328H19.2V6.92799H12.8ZM19.2 51.6V45.2H25.6V51.6H19.2V58H12.8V51.6H6.4V45.2H12.8V51.6H19.2ZM32 45.2H25.6V38.8H32V45.2ZM38.4 38.8H44.8V45.2H38.4V51.6H32V45.2H38.4V38.8ZM51.2 51.6H44.8V45.2H51.2V51.6ZM70.272 19.728H63.872V26H70.272V32.4H63.872V38.8H57.6V45.2H51.2V38.8H57.472V32.4H63.872V26.128H57.472V19.728H63.872V13.328H70.272V19.728ZM140.75 90H134.35V83.6H140.75V90ZM147.15 83.6H140.75V77.2H147.15V83.6ZM140.75 77.2H134.35V70.8H140.75V77.2ZM147.15 70.8H140.75V64.4H147.15V70.8ZM140.75 64.4H134.35V58H140.75V64.4ZM147.15 58H140.75V51.6H147.15V58ZM89.55 45.2V51.6H95.95V58H89.55V64.4H95.95V70.8H89.55V77.2H95.95V83.6H89.55V90H83.15V83.6H89.55V77.2H83.15V70.8H89.55V64.4H83.15V58H89.55V51.6H83.15V45.2H89.55V38.8H83.15V32.4H89.55V26H83.15V19.728H89.55V13.328H95.95V19.728H89.55V26H95.95V32.4H89.55V38.8H95.95V45.2H89.55ZM102.35 51.6H95.95V45.2H102.35V51.6ZM108.75 45.2H102.35V38.8H108.75V45.2ZM115.15 51.6H108.75V45.2H115.15V51.6ZM121.55 45.2H115.15V38.8H121.55V45.2ZM127.95 38.8H134.35V45.2H127.95V51.6H121.55V45.2H127.95V38.8ZM140.75 51.6H134.35V45.2H140.75V51.6ZM147.15 45.2H140.75V38.8H147.15V45.2ZM140.75 38.8H134.35V32.4H140.75V38.8ZM147.15 32.4H140.75V26H147.15V32.4ZM140.75 26H134.35V19.728H140.75V26ZM147.15 19.728H140.75V13.328H147.15V19.728ZM121.55 13.328V6.92799H115.15V0.527992H121.55V6.92799H127.95V13.328H121.55ZM134.35 6.92799H127.95V0.527992H134.35V6.92799ZM108.75 13.328V6.92799H102.35V0.527992H108.75V6.92799H115.15V13.328H108.75ZM102.35 13.328H95.95V6.92799H102.35V13.328ZM179.1 13.2H172.7V6.8H179.1V13.2ZM185.5 6.8H179.1V0.399994H185.5V6.8ZM179.1 51.6H172.7V45.2H179.1V51.6ZM185.5 45.2H179.1V38.8H185.5V45.2ZM179.1 90.128H172.7V83.728H179.1V90.128ZM185.5 83.728H179.1V77.328H185.5V83.728ZM166.3 77.2H159.9V70.8H166.3V77.2ZM172.7 70.8H166.3V64.4H172.7V70.8ZM166.3 38.8H159.9V32.4H166.3V38.8ZM159.9 26V19.6H166.3V26H172.7V32.4H166.3V26H159.9ZM172.7 19.6H166.3V13.328H172.7V19.6ZM191.9 13.2H185.5V6.8H191.9V13.2ZM198.3 6.8H191.9V0.399994H198.3V6.8ZM191.9 51.6H185.5V45.2H191.9V51.6ZM198.3 45.2H191.9V38.8H198.3V45.2ZM191.9 90.128H185.5V83.728H191.9V90.128ZM198.3 83.728H191.9V77.328H198.3V83.728ZM204.7 13.2H198.3V6.8H204.7V13.2ZM211.1 6.8H204.7V0.399994H211.1V6.8ZM204.7 51.6H198.3V45.2H204.7V51.6ZM211.1 45.2H204.7V38.8H211.1V45.2ZM217.372 26H210.972V19.6H217.372V26ZM223.772 19.6H217.372V13.2H223.772V19.6ZM217.372 64.4H210.972V58H217.372V64.4ZM223.772 58H217.372V51.6H223.772V58ZM217.372 77.2H210.972V70.8H217.372V77.2ZM223.772 70.8H217.372V64.4H223.772V70.8ZM204.7 90.128H198.3V83.728H204.7V90.128ZM211.1 83.728H204.7V77.328H211.1V83.728ZM255.85 13.2H249.45V6.8H255.85V13.2ZM262.25 6.8H255.85V0.399994H262.25V6.8ZM255.85 51.6H249.45V45.2H255.85V51.6ZM262.25 45.2H255.85V38.8H262.25V45.2ZM255.85 90.128H249.45V83.728H255.85V90.128ZM262.25 83.728H255.85V77.328H262.25V83.728ZM243.05 77.2H236.65V70.8H243.05V77.2ZM249.45 70.8H243.05V64.4H249.45V70.8ZM243.05 38.8H236.65V32.4H243.05V38.8ZM236.65 26V19.6H243.05V26H249.45V32.4H243.05V26H236.65ZM249.45 19.6H243.05V13.328H249.45V19.6ZM268.65 13.2H262.25V6.8H268.65V13.2ZM275.05 6.8H268.65V0.399994H275.05V6.8ZM268.65 51.6H262.25V45.2H268.65V51.6ZM275.05 45.2H268.65V38.8H275.05V45.2ZM268.65 90.128H262.25V83.728H268.65V90.128ZM275.05 83.728H268.65V77.328H275.05V83.728ZM281.45 13.2H275.05V6.8H281.45V13.2ZM287.85 6.8H281.45V0.399994H287.85V6.8ZM281.45 51.6H275.05V45.2H281.45V51.6ZM287.85 45.2H281.45V38.8H287.85V45.2ZM294.122 26H287.722V19.6H294.122V26ZM300.522 19.6H294.122V13.2H300.522V19.6ZM294.122 64.4H287.722V58H294.122V64.4ZM300.522 58H294.122V51.6H300.522V58ZM294.122 77.2H287.722V70.8H294.122V77.2ZM300.522 70.8H294.122V64.4H300.522V70.8ZM281.45 90.128H275.05V83.728H281.45V90.128ZM287.85 83.728H281.45V77.328H287.85V83.728ZM319.8 13.328H313.4V6.92799H319.8V13.328ZM326.2 6.92799H319.8V0.527992H326.2V6.92799ZM319.8 90H313.4V83.6H319.8V90ZM326.2 83.6H319.8V77.2H326.2V83.6ZM332.6 90H326.2V83.6H332.6V90ZM339 83.6H332.6V77.2H339V83.6ZM345.4 90H339V83.6H345.4V90ZM351.8 83.6H345.4V77.2H351.8V83.6ZM358.2 90H351.8V83.6H358.2V90ZM364.6 83.6H358.2V77.2H364.6V83.6ZM371 83.6V77.2H377.4V83.6H371V90H364.6V83.6H371ZM332.6 13.328H326.2V6.92799H332.6V13.328ZM339 6.92799H332.6V0.527992H339V6.92799ZM345.4 13.328H339V6.92799H345.4V13.328ZM351.8 6.92799H345.4V0.527992H351.8V6.92799ZM345.4 26H339V19.6H345.4V26ZM351.8 19.6H345.4V13.328H351.8V19.6ZM345.4 38.8H339V32.4H345.4V38.8ZM351.8 32.4H345.4V26H351.8V32.4ZM345.4 45.2V51.6H339V45.2H345.4V38.8H351.8V45.2H345.4ZM345.4 64.4H339V58H345.4V64.4ZM351.8 58H345.4V51.6H351.8V58ZM345.4 77.2H339V70.8H345.4V77.2ZM351.8 70.8H345.4V64.4H351.8V70.8ZM358.2 13.328H351.8V6.92799H358.2V13.328ZM364.6 6.92799H358.2V0.527992H364.6V6.92799ZM371 0.527992H377.4V6.92799H371V13.328H364.6V6.92799H371V0.527992ZM396.55 19.728V13.328H402.95V19.728H396.55V26.128H402.95V32.528H396.55V38.928H402.95V45.328H396.55V51.728H402.95V58.128H396.55V64.4H402.95V70.8H396.55V77.2H390.15V70.8H396.55V64.528H390.15V58.128H396.55V51.728H390.15V45.328H396.55V38.928H390.15V32.528H396.55V26.128H390.15V19.728H396.55ZM434.822 6.92799V0.527992H441.222V6.92799H434.822V13.328H428.422V6.92799H422.15V13.328H415.75V6.92799H409.35V13.328H402.95V6.92799H409.35V0.527992H415.75V6.92799H422.15V0.527992H428.55V6.92799H434.822ZM434.822 83.728V77.328H441.222V83.728H434.822V90.128H428.422V83.728H422.15V90.128H415.75V83.728H409.35V90.128H402.95V83.728H409.35V77.328H415.75V83.728H422.15V77.328H428.55V83.728H434.822ZM441.35 19.728H447.75V26.128H454.15V32.528H447.75V26.128H441.35V19.728ZM454.15 19.728H447.75V13.328H454.15V19.728ZM441.35 38.928V32.528H447.75V38.928H454.15V45.328H447.75V38.928H441.35ZM441.35 51.728V45.328H447.75V51.728H454.15V58.128H447.75V51.728H441.35ZM441.35 64.528V58.128H447.75V64.4H454.15V70.8H447.75V64.528H441.35ZM447.75 77.2H441.35V70.8H447.75V77.2ZM473.3 83.728V77.328H479.7V83.728H473.3V90.128H466.9V83.728H473.3ZM473.3 70.928V64.528H479.7V70.928H473.3V77.328H466.9V70.928H473.3ZM473.3 58.128V51.728H479.7V58.128H473.3V64.528H466.9V58.128H473.3ZM473.3 45.328V38.928H479.7V45.328H473.3V51.728H466.9V45.328H473.3ZM479.7 26.128V32.528H485.972V38.928H479.572V32.528H473.3V38.928H466.9V32.528H473.3V26.128H479.7ZM473.3 26.128H466.9V19.728H473.3V26.128ZM479.7 19.728H473.3V13.328H479.7V19.728ZM492.372 32.528H485.972V26.128H492.372V32.528ZM498.772 51.6H492.372V45.2H498.772V51.6ZM505.172 45.2H498.772V38.8H505.172V45.2ZM530.772 6.92799H524.372V13.328H530.772V19.728H524.372V26H530.772V32.4H524.372V38.8H530.772V45.2H524.372V51.6H530.772V58H524.372V64.4H530.772V70.8H524.372V77.2H530.772V83.6H524.372V90H517.972V83.6H524.372V77.2H517.972V70.8H524.372V64.4H517.972V58H511.572V64.4H505.172V58H511.572V51.6H517.972V58H524.372V51.6H517.972V45.2H524.372V38.8H517.972V32.4H524.372V26.128H517.972V19.728H524.372V13.328H517.972V6.92799H524.372V0.527992H530.772V6.92799ZM473.3 13.328H466.9V6.92799H473.3V13.328ZM479.7 6.92799H473.3V0.527992H479.7V6.92799Z" fill="white"/>
</svg>
