<svg width="384" height="91" viewBox="0 0 384 91" fill="none" xmlns="http://www.w3.org/2000/svg">
<path d="M64.125 51.6C67.581 51.6 70.525 54.544 70.525 58V70.8C70.525 74.384 67.581 77.2 64.125 77.2C60.541 77.2 57.725 80.144 57.725 83.6C57.725 87.184 54.781 90 51.325 90H25.725C22.141 90 19.325 87.184 19.325 83.6C19.325 80.144 16.381 77.2 12.925 77.2C9.341 77.2 6.525 74.384 6.525 70.8C6.525 67.344 9.341 64.4 12.925 64.4C16.381 64.4 19.325 67.344 19.325 70.8C19.325 74.384 22.141 77.2 25.725 77.2H51.325C54.781 77.2 57.725 74.384 57.725 70.8V58C57.725 54.544 54.781 51.6 51.325 51.6H25.725C22.141 51.6 19.325 48.784 19.325 45.2C19.325 41.744 16.381 38.8 12.925 38.8C9.341 38.8 6.525 35.984 6.525 32.4V19.6C6.525 16.144 9.341 13.2 12.925 13.2C16.381 13.2 19.325 10.384 19.325 6.8C19.325 3.34399 22.141 0.399994 25.725 0.399994H51.325C54.781 0.399994 57.725 3.34399 57.725 6.8C57.725 10.384 60.541 13.2 64.125 13.2C67.581 13.2 70.525 16.144 70.525 19.6C70.525 23.184 67.581 26 64.125 26C60.541 26 57.725 23.184 57.725 19.6C57.725 16.144 54.781 13.2 51.325 13.2H25.725C22.141 13.2 19.325 16.144 19.325 19.6V32.4C19.325 35.984 22.141 38.8 25.725 38.8H51.325C54.781 38.8 57.725 41.744 57.725 45.2C57.725 48.784 60.541 51.6 64.125 51.6ZM108.875 58.128C108.875 54.544 111.691 51.728 115.275 51.728C118.731 51.728 121.675 54.544 121.675 58.128V83.6C121.675 87.184 118.731 90 115.275 90C111.691 90 108.875 87.184 108.875 83.6V58.128ZM115.275 0.399994C118.731 0.399994 121.675 3.34399 121.675 6.8C121.675 10.384 118.731 13.2 115.275 13.2C118.731 13.2 121.675 16.144 121.675 19.6V45.2C121.675 48.784 118.731 51.6 115.275 51.6C111.691 51.6 108.875 48.784 108.875 45.328V19.6C108.875 16.144 105.931 13.2 102.475 13.2C102.347 13.2 102.347 13.2 102.347 13.2H89.675C86.091 13.2 83.275 10.384 83.275 6.8C83.275 3.34399 86.091 0.399994 89.675 0.399994H115.275ZM140.875 0.399994C144.331 0.399994 147.275 3.34399 147.275 6.8C147.275 10.384 144.331 13.2 140.875 13.2C140.747 13.2 140.747 13.2 140.747 13.2H128.075C124.491 13.2 121.675 10.384 121.675 6.8C121.675 3.34399 124.491 0.399994 128.075 0.399994H140.875ZM160.025 70.8C160.025 67.344 162.841 64.4 166.425 64.4C169.881 64.4 172.825 67.344 172.825 70.8V83.6C172.825 87.184 169.881 90 166.425 90C162.841 90 160.025 87.184 160.025 83.6V70.8ZM211.225 58C211.225 54.544 214.041 51.6 217.625 51.6C221.081 51.6 224.025 54.544 224.025 58V83.6C224.025 87.184 221.081 90 217.625 90C214.041 90 211.225 87.184 211.225 83.6V58ZM217.625 26C221.081 26 224.025 28.944 224.025 32.4V45.2C224.025 48.784 221.081 51.6 217.625 51.6C214.041 51.6 211.225 48.784 211.225 45.2C211.225 48.784 208.281 51.6 204.825 51.6H179.225C175.641 51.6 172.825 48.784 172.825 45.2C172.825 41.744 175.641 38.8 179.225 38.8H204.825C208.281 38.8 211.097 41.744 211.225 45.2V32.4C211.225 28.944 208.281 26 204.825 26C201.241 26 198.425 23.184 198.425 19.6C198.425 16.144 195.481 13.328 192.025 13.328C188.441 13.328 185.625 16.144 185.625 19.6C185.625 23.184 182.681 26 179.225 26C175.641 26 172.825 28.944 172.825 32.4V58C172.825 61.584 169.881 64.4 166.425 64.4C162.841 64.4 160.025 61.584 160.025 58V32.4C160.025 28.944 162.841 26 166.425 26C169.881 26 172.825 23.184 172.825 19.6C172.825 16.144 175.641 13.328 179.225 13.328C182.681 13.328 185.625 10.384 185.625 6.92799C185.625 3.34399 188.441 0.527992 192.025 0.527992C195.481 0.527992 198.425 3.34399 198.425 6.92799C198.425 10.384 201.241 13.328 204.825 13.328C208.281 13.328 211.225 16.144 211.225 19.6C211.225 23.184 214.041 26 217.625 26ZM236.775 58.128C236.775 54.544 239.591 51.728 243.175 51.728C246.631 51.728 249.575 54.544 249.575 58.128V83.6C249.575 87.184 246.631 90 243.175 90C239.591 90 236.775 87.184 236.775 83.6V58.128ZM262.375 58.128C262.375 54.544 265.191 51.728 268.775 51.728C272.231 51.728 275.175 54.544 275.175 58.128C275.175 61.584 277.991 64.528 281.575 64.528C285.031 64.528 287.975 67.344 287.975 70.928C287.975 74.384 290.791 77.328 294.375 77.328C297.831 77.328 300.775 80.144 300.775 83.728C300.775 87.184 297.831 90.128 294.375 90.128C290.791 90.128 287.975 87.184 287.975 83.728C287.975 80.144 285.031 77.328 281.575 77.328C277.991 77.328 275.175 74.384 275.175 70.928C275.175 67.344 272.231 64.528 268.775 64.528C265.191 64.528 262.375 61.584 262.375 58.128ZM300.775 19.6V32.4C300.775 35.984 297.831 38.8 294.375 38.8C290.791 38.8 287.975 41.744 287.975 45.2C287.975 48.784 285.031 51.6 281.575 51.6H268.775C265.191 51.6 262.375 48.784 262.375 45.2C262.375 41.744 265.191 38.8 268.775 38.8H281.575C285.031 38.8 287.975 35.984 287.975 32.4C287.975 32.4 287.975 32.4 287.975 32.272V19.856C287.975 19.728 287.975 19.728 287.975 19.6C287.975 16.144 285.031 13.2 281.575 13.2H255.975C252.391 13.2 249.575 16.144 249.575 19.6V45.2C249.575 48.784 246.631 51.6 243.175 51.6C239.591 51.6 236.775 48.784 236.775 45.2V19.6C236.775 16.144 239.591 13.2 243.175 13.2C246.631 13.2 249.575 10.384 249.575 6.8C249.575 3.34399 252.391 0.399994 255.975 0.399994H281.575C285.031 0.399994 287.975 3.34399 287.975 6.8C287.975 10.384 290.791 13.2 294.375 13.2C297.831 13.2 300.775 16.144 300.775 19.6ZM339.125 58.128C339.125 54.544 341.941 51.728 345.525 51.728C348.981 51.728 351.925 54.544 351.925 58.128V83.6C351.925 87.184 348.981 90 345.525 90C341.941 90 339.125 87.184 339.125 83.6V58.128ZM345.525 0.399994C348.981 0.399994 351.925 3.34399 351.925 6.8C351.925 10.384 348.981 13.2 345.525 13.2C348.981 13.2 351.925 16.144 351.925 19.6V45.2C351.925 48.784 348.981 51.6 345.525 51.6C341.941 51.6 339.125 48.784 339.125 45.328V19.6C339.125 16.144 336.181 13.2 332.725 13.2C332.597 13.2 332.597 13.2 332.597 13.2H319.925C316.341 13.2 313.525 10.384 313.525 6.8C313.525 3.34399 316.341 0.399994 319.925 0.399994H345.525ZM371.125 0.399994C374.581 0.399994 377.525 3.34399 377.525 6.8C377.525 10.384 374.581 13.2 371.125 13.2C370.997 13.2 370.997 13.2 370.997 13.2H358.325C354.741 13.2 351.925 10.384 351.925 6.8C351.925 3.34399 354.741 0.399994 358.325 0.399994H371.125Z" fill="white"/>
<path d="M12.925 77.2C9.341 77.2 6.525 74.384 6.525 70.8C6.525 67.344 9.341 64.4 12.925 64.4C16.381 64.4 19.325 67.344 19.325 70.8C19.325 74.384 16.381 77.2 12.925 77.2ZM32.125 83.6C32.125 80.144 34.941 77.2 38.525 77.2V90C34.941 90 32.125 87.184 32.125 83.6ZM26.749 90C23.165 90.512 19.965 88.208 19.325 84.752C18.813 81.168 21.117 77.968 24.701 77.328C28.157 76.816 31.357 79.12 31.997 82.704C32.509 86.16 30.205 89.488 26.749 90ZM64.125 77.2C60.541 77.2 57.725 74.384 57.725 70.8C57.725 67.344 60.541 64.4 64.125 64.4C67.581 64.4 70.525 67.344 70.525 70.8C70.525 74.384 67.581 77.2 64.125 77.2ZM64.125 64.4C60.541 64.4 57.725 61.584 57.725 58C57.725 54.544 60.541 51.6 64.125 51.6C67.581 51.6 70.525 54.544 70.525 58C70.525 61.584 67.581 64.4 64.125 64.4ZM51.325 51.6C47.741 51.6 44.925 48.784 44.925 45.2C44.925 41.744 47.741 38.8 51.325 38.8C54.781 38.8 57.725 41.744 57.725 45.2C57.725 48.784 54.781 51.6 51.325 51.6ZM44.925 45.2C44.925 48.784 41.981 51.6 38.525 51.6V38.8C41.981 38.8 44.925 41.744 44.925 45.2ZM38.525 77.2C41.981 77.2 44.925 80.144 44.925 83.6C44.925 87.184 41.981 90 38.525 90V77.2ZM51.325 90C47.741 90 44.925 87.184 44.925 83.6C44.925 80.144 47.741 77.2 51.325 77.2C54.781 77.2 57.725 80.144 57.725 83.6C57.725 87.184 54.781 90 51.325 90ZM32.125 6.92799C32.125 3.34399 34.941 0.527992 38.525 0.527992V13.328C34.941 13.328 32.125 10.384 32.125 6.92799ZM26.749 13.2C23.165 13.712 19.965 11.408 19.325 7.952C18.813 4.368 21.117 1.168 24.701 0.527992C28.157 0.0159988 31.357 2.31999 31.997 5.904C32.509 9.35999 30.205 12.688 26.749 13.2ZM12.925 38.8C9.341 38.8 6.525 35.984 6.525 32.4C6.525 28.944 9.341 26 12.925 26C16.381 26 19.325 28.944 19.325 32.4C19.325 35.984 16.381 38.8 12.925 38.8ZM12.925 26C9.341 26 6.525 23.184 6.525 19.6C6.525 16.144 9.341 13.328 12.925 13.328C16.381 13.328 19.325 16.144 19.325 19.6C19.325 23.184 16.381 26 12.925 26ZM32.125 45.2C32.125 41.744 34.941 38.8 38.525 38.8V51.6C34.941 51.6 32.125 48.784 32.125 45.2ZM26.749 51.6C23.165 52.112 19.965 49.808 19.325 46.352C18.813 42.768 21.117 39.568 24.701 38.928C28.157 38.416 31.357 40.72 31.997 44.304C32.509 47.76 30.205 51.088 26.749 51.6ZM51.325 13.328C47.741 13.328 44.925 10.384 44.925 6.92799C44.925 3.34399 47.741 0.527992 51.325 0.527992C54.781 0.527992 57.725 3.34399 57.725 6.92799C57.725 10.384 54.781 13.328 51.325 13.328ZM44.925 6.92799C44.925 10.384 41.981 13.328 38.525 13.328V0.527992C41.981 0.527992 44.925 3.34399 44.925 6.92799ZM64.125 26C60.541 26 57.725 23.184 57.725 19.6C57.725 16.144 60.541 13.328 64.125 13.328C67.581 13.328 70.525 16.144 70.525 19.6C70.525 23.184 67.581 26 64.125 26ZM108.875 70.8C108.875 67.344 111.691 64.4 115.275 64.4V77.2C111.691 77.2 108.875 74.384 108.875 70.8ZM108.875 58C108.875 54.544 111.691 51.6 115.275 51.6V64.4C111.691 64.4 108.875 61.584 108.875 58ZM108.875 83.6C108.875 80.144 111.691 77.2 115.275 77.2V90C111.691 90 108.875 87.184 108.875 83.6ZM115.275 64.4V51.6C118.731 51.6 121.675 54.544 121.675 58C121.675 61.584 118.731 64.4 115.275 64.4ZM115.275 51.6V38.8C118.731 38.8 121.675 41.744 121.675 45.2C121.675 48.784 118.731 51.6 115.275 51.6ZM115.275 77.2V64.4C118.731 64.4 121.675 67.344 121.675 70.8C121.675 74.384 118.731 77.2 115.275 77.2ZM115.275 90V77.2C118.731 77.2 121.675 80.144 121.675 83.6C121.675 87.184 118.731 90 115.275 90ZM108.875 19.6V19.728C108.875 16.144 111.691 13.328 115.275 13.328V26C111.691 26 108.875 23.184 108.875 19.6ZM89.675 13.328C86.091 13.328 83.275 10.384 83.275 6.92799C83.275 3.34399 86.091 0.527992 89.675 0.527992C93.131 0.527992 96.075 3.34399 96.075 6.92799C96.075 10.384 93.131 13.328 89.675 13.328ZM108.875 6.92799C108.875 3.34399 111.691 0.527992 115.275 0.527992V13.328C111.691 13.328 108.875 10.384 108.875 6.92799ZM102.475 13.328C98.891 13.328 96.075 10.384 96.075 6.92799C96.075 3.34399 98.891 0.527992 102.475 0.527992C105.931 0.527992 108.875 3.34399 108.875 6.92799C108.875 10.384 105.931 13.328 102.475 13.328ZM108.875 32.4C108.875 28.944 111.691 26.128 115.275 26.128V38.8C111.691 38.8 108.875 35.984 108.875 32.4ZM108.875 45.2C108.875 41.744 111.691 38.8 115.275 38.8V51.6C111.691 51.6 108.875 48.784 108.875 45.2ZM115.275 0.527992C118.731 0.527992 121.675 3.34399 121.675 6.92799C121.675 10.384 118.731 13.328 115.275 13.328V0.527992ZM128.075 13.328C124.491 13.328 121.675 10.384 121.675 6.92799C121.675 3.34399 124.491 0.527992 128.075 0.527992C131.531 0.527992 134.475 3.34399 134.475 6.92799C134.475 10.384 131.531 13.328 128.075 13.328ZM140.875 13.328C137.291 13.328 134.475 10.384 134.475 6.92799C134.475 3.34399 137.291 0.527992 140.875 0.527992C144.331 0.527992 147.275 3.34399 147.275 6.92799C147.275 10.384 144.331 13.328 140.875 13.328ZM115.275 26.128V13.328C118.731 13.328 121.675 16.144 121.675 19.728C121.675 23.184 118.731 26.128 115.275 26.128ZM115.275 38.8V26C118.731 26 121.675 28.944 121.675 32.4C121.675 35.984 118.731 38.8 115.275 38.8ZM166.425 77.2C162.841 77.2 160.025 74.384 160.025 70.8C160.025 67.344 162.841 64.4 166.425 64.4C169.881 64.4 172.825 67.344 172.825 70.8C172.825 74.384 169.881 77.2 166.425 77.2ZM166.425 64.4C162.841 64.4 160.025 61.584 160.025 58C160.025 54.544 162.841 51.6 166.425 51.6C169.881 51.6 172.825 54.544 172.825 58C172.825 61.584 169.881 64.4 166.425 64.4ZM166.425 90C162.841 90 160.025 87.184 160.025 83.6C160.025 80.144 162.841 77.2 166.425 77.2C169.881 77.2 172.825 80.144 172.825 83.6C172.825 87.184 169.881 90 166.425 90ZM217.625 77.2C214.041 77.2 211.225 74.384 211.225 70.8C211.225 67.344 214.041 64.4 217.625 64.4C221.081 64.4 224.025 67.344 224.025 70.8C224.025 74.384 221.081 77.2 217.625 77.2ZM217.625 64.4C214.041 64.4 211.225 61.584 211.225 58C211.225 54.544 214.041 51.6 217.625 51.6C221.081 51.6 224.025 54.544 224.025 58C224.025 61.584 221.081 64.4 217.625 64.4ZM217.625 51.6C214.041 51.6 211.225 48.784 211.225 45.2C211.225 41.744 214.041 38.8 217.625 38.8C221.081 38.8 224.025 41.744 224.025 45.2C224.025 48.784 221.081 51.6 217.625 51.6ZM217.625 90C214.041 90 211.225 87.184 211.225 83.6C211.225 80.144 214.041 77.2 217.625 77.2C221.081 77.2 224.025 80.144 224.025 83.6C224.025 87.184 221.081 90 217.625 90ZM192.025 13.328C188.441 13.328 185.625 10.384 185.625 6.92799C185.625 3.34399 188.441 0.527992 192.025 0.527992C195.481 0.527992 198.425 3.34399 198.425 6.92799C198.425 10.384 195.481 13.328 192.025 13.328ZM179.225 26C175.641 26 172.825 23.184 172.825 19.6C172.825 16.144 175.641 13.2 179.225 13.2C182.681 13.2 185.625 16.144 185.625 19.6C185.625 23.184 182.681 26 179.225 26ZM166.425 51.6C162.841 51.6 160.025 48.784 160.025 45.2C160.025 41.744 162.841 38.8 166.425 38.8C169.881 38.8 172.825 41.744 172.825 45.2C172.825 48.784 169.881 51.6 166.425 51.6ZM166.425 38.8C162.841 38.8 160.025 35.984 160.025 32.4C160.025 28.944 162.841 26 166.425 26C169.881 26 172.825 28.944 172.825 32.4C172.825 35.984 169.881 38.8 166.425 38.8ZM179.225 51.6C175.641 51.6 172.825 48.784 172.825 45.2C172.825 41.744 175.641 38.8 179.225 38.8C182.681 38.8 185.625 41.744 185.625 45.2C185.625 48.784 182.681 51.6 179.225 51.6ZM204.825 26C201.241 26 198.425 23.184 198.425 19.6C198.425 16.144 201.241 13.2 204.825 13.2C208.281 13.2 211.225 16.144 211.225 19.6C211.225 23.184 208.281 26 204.825 26ZM192.025 51.6C188.441 51.6 185.625 48.784 185.625 45.2C185.625 41.744 188.441 38.8 192.025 38.8C195.481 38.8 198.425 41.744 198.425 45.2C198.425 48.784 195.481 51.6 192.025 51.6ZM204.825 51.6C201.241 51.6 198.425 48.784 198.425 45.2C198.425 41.744 201.241 38.8 204.825 38.8C208.281 38.8 211.225 41.744 211.225 45.2C211.225 48.784 208.281 51.6 204.825 51.6ZM217.625 38.8C214.041 38.8 211.225 35.984 211.225 32.4C211.225 28.944 214.041 26 217.625 26C221.081 26 224.025 28.944 224.025 32.4C224.025 35.984 221.081 38.8 217.625 38.8ZM243.175 77.2C239.591 77.2 236.775 74.384 236.775 70.8C236.775 67.344 239.591 64.4 243.175 64.4C246.631 64.4 249.575 67.344 249.575 70.8C249.575 74.384 246.631 77.2 243.175 77.2ZM243.175 64.4C239.591 64.4 236.775 61.584 236.775 58C236.775 54.544 239.591 51.6 243.175 51.6C246.631 51.6 249.575 54.544 249.575 58C249.575 61.584 246.631 64.4 243.175 64.4ZM262.375 58C262.375 54.544 265.191 51.6 268.775 51.6V64.4C265.191 64.4 262.375 61.584 262.375 58ZM243.175 90C239.591 90 236.775 87.184 236.775 83.6C236.775 80.144 239.591 77.2 243.175 77.2C246.631 77.2 249.575 80.144 249.575 83.6C249.575 87.184 246.631 90 243.175 90ZM281.575 77.2C277.991 77.2 275.175 74.384 275.175 70.8C275.175 67.344 277.991 64.4 281.575 64.4C285.031 64.4 287.975 67.344 287.975 70.8C287.975 74.384 285.031 77.2 281.575 77.2ZM281.575 51.6C277.991 51.6 275.175 48.784 275.175 45.2C275.175 41.744 277.991 38.8 281.575 38.8C285.031 38.8 287.975 41.744 287.975 45.2C287.975 48.784 285.031 51.6 281.575 51.6ZM268.775 51.6C272.231 51.6 275.175 54.544 275.175 58C275.175 61.584 272.231 64.4 268.775 64.4V51.6ZM275.175 45.2C275.175 48.784 272.231 51.6 268.775 51.6V38.8C272.231 38.8 275.175 41.744 275.175 45.2ZM294.375 90C290.791 90 287.975 87.184 287.975 83.6C287.975 80.144 290.791 77.2 294.375 77.2C297.831 77.2 300.775 80.144 300.775 83.6C300.775 87.184 297.831 90 294.375 90ZM243.175 26C239.591 26 236.775 23.184 236.775 19.6C236.775 16.144 239.591 13.2 243.175 13.2C246.631 13.2 249.575 16.144 249.575 19.6C249.575 23.184 246.631 26 243.175 26ZM243.175 13.2C239.591 13.2 236.775 10.384 236.775 6.92799C236.775 3.34399 239.591 0.527992 243.175 0.527992C246.631 0.527992 249.575 3.34399 249.575 6.92799C249.575 10.384 246.631 13.2 243.175 13.2ZM262.375 6.92799C262.375 3.34399 265.191 0.527992 268.775 0.527992V13.328C265.191 13.328 262.375 10.384 262.375 6.92799ZM255.975 13.328C252.391 13.328 249.575 10.384 249.575 6.92799C249.575 3.34399 252.391 0.527992 255.975 0.527992C259.431 0.527992 262.375 3.34399 262.375 6.92799C262.375 10.384 259.431 13.328 255.975 13.328ZM243.175 38.8C239.591 38.8 236.775 35.984 236.775 32.4C236.775 28.944 239.591 26 243.175 26C246.631 26 249.575 28.944 249.575 32.4C249.575 35.984 246.631 38.8 243.175 38.8ZM243.175 51.6C239.591 51.6 236.775 48.784 236.775 45.2C236.775 41.744 239.591 38.8 243.175 38.8C246.631 38.8 249.575 41.744 249.575 45.2C249.575 48.784 246.631 51.6 243.175 51.6ZM262.375 45.2C262.375 41.744 265.191 38.8 268.775 38.8V51.6C265.191 51.6 262.375 48.784 262.375 45.2ZM281.575 13.328C277.991 13.328 275.175 10.384 275.175 6.92799C275.175 3.34399 277.991 0.527992 281.575 0.527992C285.031 0.527992 287.975 3.34399 287.975 6.92799C287.975 10.384 285.031 13.328 281.575 13.328ZM275.175 6.92799C275.175 10.384 272.231 13.328 268.775 13.328V0.527992C272.231 0.527992 275.175 3.34399 275.175 6.92799ZM294.375 38.8C290.791 38.8 287.975 35.984 287.975 32.4C287.975 28.944 290.791 26 294.375 26C297.831 26 300.775 28.944 300.775 32.4C300.775 35.984 297.831 38.8 294.375 38.8ZM294.375 26C290.791 26 287.975 23.184 287.975 19.6C287.975 16.144 290.791 13.328 294.375 13.328C297.831 13.328 300.775 16.144 300.775 19.6C300.775 23.184 297.831 26 294.375 26ZM339.125 70.8C339.125 67.344 341.941 64.4 345.525 64.4V77.2C341.941 77.2 339.125 74.384 339.125 70.8ZM339.125 58C339.125 54.544 341.941 51.6 345.525 51.6V64.4C341.941 64.4 339.125 61.584 339.125 58ZM339.125 83.6C339.125 80.144 341.941 77.2 345.525 77.2V90C341.941 90 339.125 87.184 339.125 83.6ZM345.525 64.4V51.6C348.981 51.6 351.925 54.544 351.925 58C351.925 61.584 348.981 64.4 345.525 64.4ZM345.525 51.6V38.8C348.981 38.8 351.925 41.744 351.925 45.2C351.925 48.784 348.981 51.6 345.525 51.6ZM345.525 77.2V64.4C348.981 64.4 351.925 67.344 351.925 70.8C351.925 74.384 348.981 77.2 345.525 77.2ZM345.525 90V77.2C348.981 77.2 351.925 80.144 351.925 83.6C351.925 87.184 348.981 90 345.525 90ZM339.125 19.6V19.728C339.125 16.144 341.941 13.328 345.525 13.328V26C341.941 26 339.125 23.184 339.125 19.6ZM319.925 13.328C316.341 13.328 313.525 10.384 313.525 6.92799C313.525 3.34399 316.341 0.527992 319.925 0.527992C323.381 0.527992 326.325 3.34399 326.325 6.92799C326.325 10.384 323.381 13.328 319.925 13.328ZM339.125 6.92799C339.125 3.34399 341.941 0.527992 345.525 0.527992V13.328C341.941 13.328 339.125 10.384 339.125 6.92799ZM332.725 13.328C329.141 13.328 326.325 10.384 326.325 6.92799C326.325 3.34399 329.141 0.527992 332.725 0.527992C336.181 0.527992 339.125 3.34399 339.125 6.92799C339.125 10.384 336.181 13.328 332.725 13.328ZM339.125 32.4C339.125 28.944 341.941 26.128 345.525 26.128V38.8C341.941 38.8 339.125 35.984 339.125 32.4ZM339.125 45.2C339.125 41.744 341.941 38.8 345.525 38.8V51.6C341.941 51.6 339.125 48.784 339.125 45.2ZM345.525 0.527992C348.981 0.527992 351.925 3.34399 351.925 6.92799C351.925 10.384 348.981 13.328 345.525 13.328V0.527992ZM358.325 13.328C354.741 13.328 351.925 10.384 351.925 6.92799C351.925 3.34399 354.741 0.527992 358.325 0.527992C361.781 0.527992 364.725 3.34399 364.725 6.92799C364.725 10.384 361.781 13.328 358.325 13.328ZM371.125 13.328C367.541 13.328 364.725 10.384 364.725 6.92799C364.725 3.34399 367.541 0.527992 371.125 0.527992C374.581 0.527992 377.525 3.34399 377.525 6.92799C377.525 10.384 374.581 13.328 371.125 13.328ZM345.525 26.128V13.328C348.981 13.328 351.925 16.144 351.925 19.728C351.925 23.184 348.981 26.128 345.525 26.128ZM345.525 38.8V26C348.981 26 351.925 28.944 351.925 32.4C351.925 35.984 348.981 38.8 345.525 38.8Z" fill="#0AA7FF"/>
</svg>
