<svg width="210" height="211" viewBox="0 0 210 211" fill="none" xmlns="http://www.w3.org/2000/svg">
<path d="M-0.00279999 210.315H104.945L104.945 105.367C46.9846 105.367 -0.00279999 152.355 -0.00279999 210.315Z" fill="#0AA7FF"/>
<path d="M104.945 105.37C104.945 47.4092 57.9579 0.421875 -0.00279999 0.421875L-0.00279999 105.37L104.945 105.37Z" fill="#0AA7FF"/>
<path d="M209.898 210.315V105.367L104.95 105.367C104.95 163.328 151.938 210.315 209.898 210.315Z" fill="#0AA7FF"/>
<path d="M209.898 0.421875L104.95 0.421875L104.95 105.37C162.911 105.37 209.898 58.3826 209.898 0.421875Z" fill="#0AA7FF"/>
<path d="M157.497 54.9844L54.0312 54.9844L54.0313 158.45H157.497V54.9844Z" fill="white"/>
<path d="M-0.00279999 210.315H104.945L104.945 105.367C46.9846 105.367 -0.00279999 152.355 -0.00279999 210.315Z" fill="#0AA7FF"/>
<path d="M104.945 105.37C104.945 47.4092 57.9579 0.421875 -0.00279999 0.421875L-0.00279999 105.37L104.945 105.37Z" fill="#0AA7FF"/>
<path d="M209.898 210.315V105.367L104.95 105.367C104.95 163.328 151.938 210.315 209.898 210.315Z" fill="#0AA7FF"/>
<path d="M209.898 0.421875L104.95 0.421875L104.95 105.37C162.911 105.37 209.898 58.3826 209.898 0.421875Z" fill="#0AA7FF"/>
<path d="M157.497 54.9844L54.0312 54.9844L54.0313 158.45H157.497V54.9844Z" fill="white"/>
</svg>
