<svg width="271" height="271" viewBox="0 0 271 271" fill="none" xmlns="http://www.w3.org/2000/svg">
<path d="M67.5366 135.497C67.5366 172.796 37.2991 203.034 0 203.034C37.2991 203.034 67.5366 233.271 67.5366 270.57C67.5366 233.271 97.774 203.034 135.073 203.034C97.774 203.034 67.5366 172.796 67.5366 135.497Z" fill="#A54AFF"/>
<path d="M67.5366 0.419067C67.5366 37.7182 37.2991 67.9556 0 67.9556C37.2991 67.9556 67.5366 98.1931 67.5366 135.492C67.5366 98.1931 97.774 67.9556 135.073 67.9556C97.774 67.9556 67.5366 37.7182 67.5366 0.419067Z" fill="#A54AFF"/>
<circle cx="134.399" cy="134.821" r="68.2119" fill="white"/>
<path d="M202.607 135.497C202.607 172.796 172.369 203.034 135.07 203.034C172.369 203.034 202.607 233.271 202.607 270.57C202.607 233.271 232.844 203.034 270.143 203.034C232.844 203.034 202.607 172.796 202.607 135.497Z" fill="#A54AFF"/>
<path d="M202.607 0.419067C202.607 37.7182 172.369 67.9556 135.07 67.9556C172.369 67.9556 202.607 98.1931 202.607 135.492C202.607 98.1931 232.844 67.9556 270.143 67.9556C232.844 67.9556 202.607 37.7182 202.607 0.419067Z" fill="#A54AFF"/>
<path d="M67.5366 135.497C67.5366 172.796 37.2991 203.034 0 203.034C37.2991 203.034 67.5366 233.271 67.5366 270.57C67.5366 233.271 97.774 203.034 135.073 203.034C97.774 203.034 67.5366 172.796 67.5366 135.497Z" fill="#A54AFF"/>
<path d="M67.5366 0.419067C67.5366 37.7182 37.2991 67.9556 0 67.9556C37.2991 67.9556 67.5366 98.1931 67.5366 135.492C67.5366 98.1931 97.774 67.9556 135.073 67.9556C97.774 67.9556 67.5366 37.7182 67.5366 0.419067Z" fill="#A54AFF"/>
<circle cx="134.399" cy="134.821" r="68.2119" fill="white"/>
<path d="M202.607 135.497C202.607 172.796 172.369 203.034 135.07 203.034C172.369 203.034 202.607 233.271 202.607 270.57C202.607 233.271 232.844 203.034 270.143 203.034C232.844 203.034 202.607 172.796 202.607 135.497Z" fill="#A54AFF"/>
<path d="M202.607 0.419067C202.607 37.7182 172.369 67.9556 135.07 67.9556C172.369 67.9556 202.607 98.1931 202.607 135.492C202.607 98.1931 232.844 67.9556 270.143 67.9556C232.844 67.9556 202.607 37.7182 202.607 0.419067Z" fill="#A54AFF"/>
</svg>
