<svg width="724" height="77" viewBox="0 0 724 77" fill="none" xmlns="http://www.w3.org/2000/svg">
<path d="M48.8 62.4H39.2V43.2H48.8V62.4ZM0.8 62.4H39.2V72H0.8V62.4ZM39.2 4.89599V14.496H10.4V62.4H0.8V4.89599H39.2ZM39.2 14.496H48.8V33.6H39.2V14.496ZM20 43.2V33.6H39.2V43.2H20ZM110.971 33.6C108.283 33.6 106.171 35.808 106.171 38.4C106.171 41.088 108.283 43.2 110.971 43.2C108.283 43.2 106.171 45.408 106.171 48C106.171 50.688 108.283 52.8 110.971 52.8C108.283 52.8 106.171 55.008 106.171 57.6C106.171 60.288 108.283 62.4 110.971 62.4C108.283 62.4 106.171 64.608 106.171 67.2C106.171 69.888 108.283 72 110.971 72C108.283 72 106.171 74.208 106.171 76.8C106.171 74.208 103.963 72 101.371 72C98.6825 72 96.5705 74.208 96.5705 76.8C96.5705 74.208 94.3625 72 91.7705 72C94.3625 72 96.5705 69.888 96.5705 67.2C96.5705 64.608 94.3625 62.4 91.7705 62.4C94.3625 62.4 96.5705 60.288 96.5705 57.6C96.5705 55.008 94.3625 52.8 91.7705 52.8C94.3625 52.8 96.5705 50.688 96.5705 48C96.5705 45.408 94.3625 43.2 91.7705 43.2C89.0825 43.2 86.9705 45.408 86.9705 48C86.9705 45.408 84.7625 43.2 82.1705 43.2C79.4825 43.2 77.3705 45.408 77.3705 48C77.3705 45.408 75.1625 43.2 72.5705 43.2C69.8825 43.2 67.7705 45.408 67.7705 48C67.7705 50.688 69.8825 52.8 72.5705 52.8C69.8825 52.8 67.7705 55.008 67.7705 57.6C67.7705 60.288 69.8825 62.4 72.5705 62.4C69.8825 62.4 67.7705 64.608 67.7705 67.2C67.7705 69.888 69.8825 72 72.5705 72C69.8825 72 67.7705 74.208 67.7705 76.8C67.7705 74.208 65.5625 72 62.9705 72C60.2825 72 58.1705 74.208 58.1705 76.8C58.1705 74.208 55.9625 72 53.3705 72C55.9625 72 58.1705 69.888 58.1705 67.2C58.1705 64.608 55.9625 62.4 53.3705 62.4C55.9625 62.4 58.1705 60.288 58.1705 57.6C58.1705 55.008 55.9625 52.8 53.3705 52.8C55.9625 52.8 58.1705 50.688 58.1705 48C58.1705 45.408 55.9625 43.2 53.3705 43.2C55.9625 43.2 58.1705 41.088 58.1705 38.4C58.1705 35.808 55.9625 33.6 53.3705 33.6C55.9625 33.6 58.1705 31.488 58.1705 28.8C58.1705 26.208 55.9625 24 53.3705 24C55.9625 24 58.1705 21.888 58.1705 19.2C58.1705 21.888 60.2825 24 62.9705 24C65.5625 24 67.7705 21.888 67.7705 19.2C67.7705 16.608 65.5625 14.4 62.9705 14.4C65.5625 14.4 67.7705 12.288 67.7705 9.6C67.7705 12.288 69.8825 14.4 72.5705 14.4C75.1625 14.4 77.3705 12.288 77.3705 9.6C77.3705 7.008 75.1625 4.8 72.5705 4.8C75.1625 4.8 77.3705 2.68799 77.3705 -5.72205e-06C77.3705 2.68799 79.4825 4.8 82.1705 4.8C84.7625 4.8 86.9705 2.68799 86.9705 -5.72205e-06C86.9705 2.68799 89.0825 4.8 91.7705 4.8C89.0825 4.8 86.9705 7.008 86.9705 9.6C86.9705 12.288 89.0825 14.4 91.7705 14.4C94.3625 14.4 96.5705 12.288 96.5705 9.6C96.5705 12.288 98.6825 14.4 101.371 14.4C98.6825 14.4 96.5705 16.608 96.5705 19.2C96.5705 21.888 98.6825 24 101.371 24C103.963 24 106.171 21.888 106.171 19.2C106.171 21.888 108.283 24 110.971 24C108.283 24 106.171 26.208 106.171 28.8C106.171 31.488 108.283 33.6 110.971 33.6ZM72.5705 24C69.8825 24 67.7705 26.208 67.7705 28.8C67.7705 31.488 69.8825 33.6 72.5705 33.6C75.1625 33.6 77.3705 31.488 77.3705 28.8C77.3705 31.488 79.4825 33.6 82.1705 33.6C84.7625 33.6 86.9705 31.488 86.9705 28.8C86.9705 31.488 89.0825 33.6 91.7705 33.6C94.3625 33.6 96.5705 31.488 96.5705 28.8C96.5705 26.208 94.3625 24 91.7705 24C89.0825 24 86.9705 26.208 86.9705 28.8C86.9705 26.208 84.7625 24 82.1705 24C84.7625 24 86.9705 21.888 86.9705 19.2C86.9705 16.608 84.7625 14.4 82.1705 14.4C79.4825 14.4 77.3705 16.608 77.3705 19.2C77.3705 21.888 79.4825 24 82.1705 24C79.4825 24 77.3705 26.208 77.3705 28.8C77.3705 26.208 75.1625 24 72.5705 24ZM115.644 48C115.644 45.408 117.756 43.2 120.444 43.2C123.036 43.2 125.244 45.408 125.244 48V67.2C125.244 69.888 123.036 72 120.444 72C117.756 72 115.644 69.888 115.644 67.2V48ZM163.644 28.8C163.644 31.488 161.436 33.6 158.844 33.6C156.156 33.6 154.044 31.488 154.044 28.8V9.6C154.044 7.008 156.156 4.89599 158.844 4.89599C161.436 4.89599 163.548 7.008 163.548 9.6H163.644V9.696V19.2C163.644 19.2 163.644 19.2 163.644 19.296V28.8ZM163.644 38.4V67.2C163.644 69.888 161.436 72 158.844 72C156.156 72 154.044 69.888 154.044 67.2V57.696C154.044 57.696 154.044 57.696 154.044 57.6C154.044 55.008 151.836 52.8 149.244 52.8C146.556 52.8 144.444 50.688 144.444 48C144.444 45.408 142.236 43.2 139.644 43.2C136.956 43.2 134.844 41.088 134.844 38.4C134.844 35.808 132.636 33.6 130.044 33.6C127.356 33.6 125.244 31.488 125.244 28.8V38.4C125.244 41.088 123.036 43.2 120.444 43.2C117.756 43.2 115.644 41.088 115.644 38.4V9.6C115.644 7.008 117.756 4.89599 120.444 4.89599C123.036 4.89599 125.244 7.008 125.244 9.6V19.2C125.244 21.888 127.356 24 130.044 24C132.636 24 134.844 26.208 134.844 28.8C134.844 31.488 136.956 33.6 139.644 33.6C142.236 33.6 144.444 35.808 144.444 38.4C144.444 41.088 146.556 43.2 149.244 43.2C151.836 43.2 154.044 45.408 154.044 48V38.496C154.044 38.496 154.044 38.496 154.044 38.4C154.044 35.808 156.156 33.6 158.844 33.6C161.436 33.6 163.644 35.808 163.644 38.4ZM182.806 14.496V62.4H173.206V14.496H182.806ZM211.606 24V14.496H182.806V4.89599H211.606V14.496H221.206V24H211.606ZM211.606 43.2H192.406V33.6H211.606V43.2ZM211.606 72H182.806V62.4H211.606V72ZM221.206 62.4H211.606V43.2H221.206V62.4ZM235.569 14.496H230.769V9.696H235.569V14.496ZM240.369 9.696H235.569V4.89599H240.369V9.696ZM235.569 24H230.769V19.2H235.569V24ZM240.369 19.2H235.569V14.496H240.369V19.2ZM235.569 33.6H230.769V28.8H235.569V33.6ZM240.369 28.8H235.569V24H240.369V28.8ZM235.569 43.2H230.769V38.4H235.569V43.2ZM240.369 38.4H235.569V33.6H240.369V38.4ZM235.569 52.8H230.769V48H235.569V52.8ZM240.369 48H235.569V43.2H240.369V48ZM235.569 72H230.769V67.2H235.569V72ZM240.369 67.2H235.569V62.4H240.369V67.2ZM296.769 62.4C294.081 62.4 291.969 60.288 291.969 57.6C291.969 55.008 294.081 52.8 296.769 52.8C299.361 52.8 301.569 55.008 301.569 57.6C301.569 60.288 299.361 62.4 296.769 62.4ZM296.769 52.8C294.081 52.8 291.969 50.688 291.969 48C291.969 45.408 294.081 43.2 296.769 43.2C299.361 43.2 301.569 45.408 301.569 48C301.569 50.688 299.361 52.8 296.769 52.8ZM296.769 72C294.081 72 291.969 69.888 291.969 67.2C291.969 64.608 294.081 62.4 296.769 62.4C299.361 62.4 301.569 64.608 301.569 67.2C301.569 69.888 299.361 72 296.769 72ZM296.769 24C294.081 24 291.969 21.888 291.969 19.2C291.969 16.608 294.081 14.4 296.769 14.4C299.361 14.4 301.569 16.608 301.569 19.2C301.569 21.888 299.361 24 296.769 24ZM277.569 14.496C274.881 14.496 272.769 12.288 272.769 9.696C272.769 7.008 274.881 4.89599 277.569 4.89599C280.161 4.89599 282.369 7.008 282.369 9.696C282.369 12.288 280.161 14.496 277.569 14.496ZM287.169 14.496C284.481 14.496 282.369 12.288 282.369 9.696C282.369 7.008 284.481 4.89599 287.169 4.89599C289.761 4.89599 291.969 7.008 291.969 9.696C291.969 12.288 289.761 14.496 287.169 14.496ZM296.769 33.6C294.081 33.6 291.969 31.488 291.969 28.8C291.969 26.208 294.081 24 296.769 24C299.361 24 301.569 26.208 301.569 28.8C301.569 31.488 299.361 33.6 296.769 33.6ZM296.769 43.2C294.081 43.2 291.969 41.088 291.969 38.4C291.969 35.808 294.081 33.6 296.769 33.6C299.361 33.6 301.569 35.808 301.569 38.4C301.569 41.088 299.361 43.2 296.769 43.2ZM296.769 14.496C294.081 14.496 291.969 12.288 291.969 9.696C291.969 7.008 294.081 4.89599 296.769 4.89599C299.361 4.89599 301.569 7.008 301.569 9.696C301.569 12.288 299.361 14.496 296.769 14.496ZM306.369 14.496C303.681 14.496 301.569 12.288 301.569 9.696C301.569 7.008 303.681 4.89599 306.369 4.89599C308.961 4.89599 311.169 7.008 311.169 9.696C311.169 12.288 308.961 14.496 306.369 14.496ZM315.969 14.496C313.281 14.496 311.169 12.288 311.169 9.696C311.169 7.008 313.281 4.89599 315.969 4.89599C318.561 4.89599 320.769 7.008 320.769 9.696C320.769 12.288 318.561 14.496 315.969 14.496ZM335.131 14.496H330.331V9.696H335.131V14.496ZM339.931 9.696H335.131V4.89599H339.931V9.696ZM373.531 14.496H368.731V9.696H373.531V14.496ZM378.331 9.696H373.531V4.89599H378.331V9.696ZM335.131 24H330.331V19.2H335.131V24ZM339.931 19.2H335.131V14.496H339.931V19.2ZM344.731 28.896V24.096H349.531V28.896H344.731V33.696H339.931V28.896H344.731ZM349.531 43.296V38.496H354.331V43.2H359.131V48H354.331V43.296H349.531ZM359.131 38.496H354.331V33.696H359.131V38.496ZM363.931 33.6H359.131V28.8H363.931V33.6ZM349.531 52.8V48H354.331V52.8H359.131V57.6H354.331V52.8H349.531ZM349.531 62.4V57.6H354.331V62.4H359.131V67.2H354.331V62.4H349.531ZM354.331 72H349.531V67.2H354.331V72ZM368.731 24V19.296H373.531V24H368.731V28.8H363.931V24H368.731ZM378.331 19.296H373.531V14.496H378.331V19.296ZM392.694 62.4C390.006 62.4 387.894 60.288 387.894 57.6C387.894 55.008 390.006 52.8 392.694 52.8C395.286 52.8 397.494 55.008 397.494 57.6C397.494 60.288 395.286 62.4 392.694 62.4ZM392.694 52.8C390.006 52.8 387.894 50.688 387.894 48C387.894 45.408 390.006 43.2 392.694 43.2C395.286 43.2 397.494 45.408 397.494 48C397.494 50.688 395.286 52.8 392.694 52.8ZM392.694 72C390.006 72 387.894 69.888 387.894 67.2C387.894 64.608 390.006 62.4 392.694 62.4C395.286 62.4 397.494 64.608 397.494 67.2C397.494 69.888 395.286 72 392.694 72ZM402.294 14.496C399.606 14.496 397.494 12.288 397.494 9.696C397.494 7.008 399.606 4.89599 402.294 4.89599C404.886 4.89599 407.094 7.008 407.094 9.696C407.094 12.288 404.886 14.496 402.294 14.496ZM392.694 14.496C390.006 14.496 387.894 12.288 387.894 9.696C387.894 7.008 390.006 4.89599 392.694 4.89599C395.286 4.89599 397.494 7.008 397.494 9.696C397.494 12.288 395.286 14.496 392.694 14.496ZM412.662 14.4C409.974 14.784 407.574 13.056 407.094 10.464C406.71 7.776 408.438 5.376 411.126 4.89599C413.718 4.512 416.118 6.23999 416.598 8.928C416.982 11.52 415.254 14.016 412.662 14.4ZM392.694 24C390.006 24 387.894 21.888 387.894 19.2C387.894 16.608 390.006 14.4 392.694 14.4C395.286 14.4 397.494 16.608 397.494 19.2C397.494 21.888 395.286 24 392.694 24ZM392.694 43.2C390.006 43.2 387.894 41.088 387.894 38.4C387.894 35.808 390.006 33.6 392.694 33.6C395.286 33.6 397.494 35.808 397.494 38.4C397.494 41.088 395.286 43.2 392.694 43.2ZM392.694 33.6C390.006 33.6 387.894 31.488 387.894 28.8C387.894 26.208 390.006 24 392.694 24C395.286 24 397.494 26.208 397.494 28.8C397.494 31.488 395.286 33.6 392.694 33.6ZM402.294 43.2C399.606 43.2 397.494 41.088 397.494 38.4C397.494 35.808 399.606 33.6 402.294 33.6C404.886 33.6 407.094 35.808 407.094 38.4C407.094 41.088 404.886 43.2 402.294 43.2ZM421.494 14.496C418.806 14.496 416.694 12.288 416.694 9.696C416.694 7.008 418.806 4.89599 421.494 4.89599C424.086 4.89599 426.294 7.008 426.294 9.696C426.294 12.288 428.406 14.496 431.094 14.496C433.686 14.496 435.894 16.608 435.894 19.2C435.894 21.888 433.686 24 431.094 24C428.406 24 426.294 21.888 426.294 19.2C426.294 16.608 424.086 14.496 421.494 14.496ZM431.094 24C433.686 24 435.894 26.208 435.894 28.8C435.894 31.488 433.686 33.6 431.094 33.6C428.406 33.6 426.294 35.808 426.294 38.4C426.294 41.088 424.086 43.2 421.494 43.2C418.806 43.2 416.694 41.088 416.694 38.4C416.694 35.808 418.806 33.6 421.494 33.6C424.086 33.6 426.294 31.488 426.294 28.8C426.294 26.208 428.406 24 431.094 24ZM416.31 40.32C415.254 42.72 412.47 43.872 409.974 42.912C407.574 41.856 406.422 39.072 407.382 36.576C408.438 34.176 411.222 33.024 413.718 33.984C416.118 35.04 417.27 37.824 416.31 40.32ZM450.064 52.8C447.376 52.8 445.264 55.008 445.264 57.6C445.264 55.008 443.056 52.8 440.464 52.8C443.056 52.8 445.264 50.688 445.264 48C445.264 50.688 447.376 52.8 450.064 52.8ZM450.064 52.8C452.656 52.8 454.864 50.688 454.864 48C454.864 50.688 456.976 52.8 459.664 52.8C456.976 52.8 454.864 55.008 454.864 57.6C454.864 55.008 452.656 52.8 450.064 52.8ZM450.064 43.2C447.376 43.2 445.264 45.408 445.264 48C445.264 45.408 443.056 43.2 440.464 43.2C443.056 43.2 445.264 41.088 445.264 38.4C445.264 41.088 447.376 43.2 450.064 43.2ZM454.864 38.4C454.864 41.088 456.976 43.2 459.664 43.2C456.976 43.2 454.864 45.408 454.864 48C454.864 45.408 452.656 43.2 450.064 43.2C452.656 43.2 454.864 41.088 454.864 38.4ZM464.464 38.4C464.464 41.088 466.576 43.2 469.264 43.2C466.576 43.2 464.464 45.408 464.464 48C464.464 45.408 462.256 43.2 459.664 43.2C462.256 43.2 464.464 41.088 464.464 38.4ZM445.264 57.6C445.264 60.288 447.376 62.4 450.064 62.4C447.376 62.4 445.264 64.608 445.264 67.2C445.264 64.608 443.056 62.4 440.464 62.4C443.056 62.4 445.264 60.288 445.264 57.6ZM450.064 62.4C452.656 62.4 454.864 60.288 454.864 57.6C454.864 60.288 456.976 62.4 459.664 62.4C456.976 62.4 454.864 64.608 454.864 67.2C454.864 64.608 452.656 62.4 450.064 62.4ZM464.464 67.2C464.464 64.608 462.256 62.4 459.664 62.4C462.256 62.4 464.464 60.288 464.464 57.6C464.464 60.288 466.576 62.4 469.264 62.4C466.576 62.4 464.464 64.608 464.464 67.2ZM454.864 67.2C454.864 69.888 456.976 72 459.664 72C456.976 72 454.864 74.208 454.864 76.8C454.864 74.208 452.656 72 450.064 72C452.656 72 454.864 69.888 454.864 67.2ZM464.464 67.2C464.464 69.888 466.576 72 469.264 72C466.576 72 464.464 74.208 464.464 76.8C464.464 74.208 462.256 72 459.664 72C462.256 72 464.464 69.888 464.464 67.2ZM474.064 38.4C474.064 41.088 476.176 43.2 478.864 43.2C476.176 43.2 474.064 45.408 474.064 48C474.064 45.408 471.856 43.2 469.264 43.2C471.856 43.2 474.064 41.088 474.064 38.4ZM483.664 38.4C483.664 41.088 485.776 43.2 488.464 43.2C485.776 43.2 483.664 45.408 483.664 48C483.664 45.408 481.456 43.2 478.864 43.2C481.456 43.2 483.664 41.088 483.664 38.4ZM474.064 67.2C474.064 64.608 471.856 62.4 469.264 62.4C471.856 62.4 474.064 60.288 474.064 57.6C474.064 60.288 476.176 62.4 478.864 62.4C476.176 62.4 474.064 64.608 474.064 67.2ZM483.664 67.2C483.664 64.608 481.456 62.4 478.864 62.4C481.456 62.4 483.664 60.288 483.664 57.6C483.664 60.288 485.776 62.4 488.464 62.4C485.776 62.4 483.664 64.608 483.664 67.2ZM493.264 67.2C493.264 64.608 491.056 62.4 488.464 62.4C491.056 62.4 493.264 60.288 493.264 57.6C493.264 60.288 495.376 62.4 498.064 62.4C495.376 62.4 493.264 64.608 493.264 67.2ZM474.064 67.2C474.064 69.888 476.176 72 478.864 72C476.176 72 474.064 74.208 474.064 76.8C474.064 74.208 471.856 72 469.264 72C471.856 72 474.064 69.888 474.064 67.2ZM483.664 67.2C483.664 69.888 485.776 72 488.464 72C485.776 72 483.664 74.208 483.664 76.8C483.664 74.208 481.456 72 478.864 72C481.456 72 483.664 69.888 483.664 67.2ZM488.464 72C491.056 72 493.264 69.888 493.264 67.2C493.264 69.888 495.376 72 498.064 72C495.376 72 493.264 74.208 493.264 76.8C493.264 74.208 491.056 72 488.464 72ZM450.064 14.4C447.376 14.4 445.264 16.608 445.264 19.2C445.264 16.608 443.056 14.4 440.464 14.4C443.056 14.4 445.264 12.288 445.264 9.6C445.264 12.288 447.376 14.4 450.064 14.4ZM459.664 14.4C456.976 14.4 454.864 16.608 454.864 19.2C454.864 16.608 452.656 14.4 450.064 14.4C452.656 14.4 454.864 12.288 454.864 9.6C454.864 12.288 456.976 14.4 459.664 14.4ZM464.464 9.6C464.464 12.288 466.576 14.4 469.264 14.4C466.576 14.4 464.464 16.608 464.464 19.2C464.464 16.608 462.256 14.4 459.664 14.4C462.256 14.4 464.464 12.288 464.464 9.6ZM459.664 4.8C456.976 4.8 454.864 7.008 454.864 9.6C454.864 7.008 452.656 4.8 450.064 4.8C452.656 4.8 454.864 2.68799 454.864 -5.72205e-06C454.864 2.68799 456.976 4.8 459.664 4.8ZM464.464 9.6C464.464 7.008 462.256 4.8 459.664 4.8C462.256 4.8 464.464 2.68799 464.464 -5.72205e-06C464.464 2.68799 466.576 4.8 469.264 4.8C466.576 4.8 464.464 7.008 464.464 9.6ZM450.064 24C447.376 24 445.264 26.208 445.264 28.8C445.264 26.208 443.056 24 440.464 24C443.056 24 445.264 21.888 445.264 19.2C445.264 21.888 447.376 24 450.064 24ZM450.064 24C452.656 24 454.864 21.888 454.864 19.2C454.864 21.888 456.976 24 459.664 24C456.976 24 454.864 26.208 454.864 28.8C454.864 26.208 452.656 24 450.064 24ZM450.064 33.6C447.376 33.6 445.264 35.808 445.264 38.4C445.264 35.808 443.056 33.6 440.464 33.6C443.056 33.6 445.264 31.488 445.264 28.8C445.264 31.488 447.376 33.6 450.064 33.6ZM450.064 33.6C452.656 33.6 454.864 31.488 454.864 28.8C454.864 31.488 456.976 33.6 459.664 33.6C456.976 33.6 454.864 35.808 454.864 38.4C454.864 35.808 452.656 33.6 450.064 33.6ZM464.464 38.4C464.464 35.808 462.256 33.6 459.664 33.6C462.256 33.6 464.464 31.488 464.464 28.8C464.464 31.488 466.576 33.6 469.264 33.6C466.576 33.6 464.464 35.808 464.464 38.4ZM474.064 9.6C474.064 12.288 476.176 14.4 478.864 14.4C476.176 14.4 474.064 16.608 474.064 19.2C474.064 16.608 471.856 14.4 469.264 14.4C471.856 14.4 474.064 12.288 474.064 9.6ZM483.664 9.6C483.664 12.288 485.776 14.4 488.464 14.4C485.776 14.4 483.664 16.608 483.664 19.2C483.664 16.608 481.456 14.4 478.864 14.4C481.456 14.4 483.664 12.288 483.664 9.6ZM488.464 14.4C491.056 14.4 493.264 12.288 493.264 9.6C493.264 12.288 495.376 14.4 498.064 14.4C495.376 14.4 493.264 16.608 493.264 19.2C493.264 16.608 491.056 14.4 488.464 14.4ZM474.064 9.6C474.064 7.008 471.856 4.8 469.264 4.8C471.856 4.8 474.064 2.68799 474.064 -5.72205e-06C474.064 2.68799 476.176 4.8 478.864 4.8C476.176 4.8 474.064 7.008 474.064 9.6ZM483.664 9.6C483.664 7.008 481.456 4.8 478.864 4.8C481.456 4.8 483.664 2.68799 483.664 -5.72205e-06C483.664 2.68799 485.776 4.8 488.464 4.8C485.776 4.8 483.664 7.008 483.664 9.6ZM493.264 9.6C493.264 7.008 491.056 4.8 488.464 4.8C491.056 4.8 493.264 2.68799 493.264 -5.72205e-06C493.264 2.68799 495.376 4.8 498.064 4.8C495.376 4.8 493.264 7.008 493.264 9.6ZM474.064 38.4C474.064 35.808 471.856 33.6 469.264 33.6C471.856 33.6 474.064 31.488 474.064 28.8C474.064 31.488 476.176 33.6 478.864 33.6C476.176 33.6 474.064 35.808 474.064 38.4ZM483.664 38.4C483.664 35.808 481.456 33.6 478.864 33.6C481.456 33.6 483.664 31.488 483.664 28.8C483.664 31.488 485.776 33.6 488.464 33.6C485.776 33.6 483.664 35.808 483.664 38.4ZM488.464 43.2C491.056 43.2 493.264 41.088 493.264 38.4C493.264 41.088 495.376 43.2 498.064 43.2C495.376 43.2 493.264 45.408 493.264 48C493.264 45.408 491.056 43.2 488.464 43.2ZM493.264 38.4C493.264 35.808 491.056 33.6 488.464 33.6C491.056 33.6 493.264 31.488 493.264 28.8C493.264 31.488 495.376 33.6 498.064 33.6C495.376 33.6 493.264 35.808 493.264 38.4ZM502.644 48.096C502.644 45.408 504.756 43.296 507.444 43.296C510.036 43.296 512.244 45.408 512.244 48.096V67.2C512.244 69.888 510.036 72 507.444 72C504.756 72 502.644 69.888 502.644 67.2V48.096ZM517.044 14.4C514.356 14.4 512.244 12.288 512.244 9.6C512.244 7.008 514.356 4.8 517.044 4.8C519.636 4.8 521.844 7.008 521.844 9.6C521.844 12.288 519.636 14.4 517.044 14.4ZM526.644 14.4C523.956 14.4 521.844 12.288 521.844 9.6C521.844 7.008 523.956 4.8 526.644 4.8H545.844C548.436 4.8 550.644 7.008 550.644 9.6C550.644 12.288 548.436 14.4 545.844 14.4H526.644ZM507.444 43.2C504.756 43.2 502.644 41.088 502.644 38.4C502.644 35.808 504.756 33.6 507.444 33.6C510.036 33.6 512.244 35.808 512.244 38.4C512.244 41.088 510.036 43.2 507.444 43.2ZM512.244 28.8C512.244 31.488 510.036 33.6 507.444 33.6C504.756 33.6 502.644 31.488 502.644 28.8V9.6C502.644 7.008 504.756 4.8 507.444 4.8C510.036 4.8 512.244 7.008 512.244 9.6V28.8ZM536.244 33.6C538.836 33.6 541.044 35.808 541.044 38.4C541.044 41.088 538.836 43.2 536.244 43.2H517.044C514.356 43.2 512.244 41.088 512.244 38.4C512.244 35.808 514.356 33.6 517.044 33.6H536.244ZM545.844 43.2C543.156 43.2 541.044 41.088 541.044 38.4C541.044 35.808 543.156 33.6 545.844 33.6C548.436 33.6 550.644 35.808 550.644 38.4C550.644 41.088 548.436 43.2 545.844 43.2ZM598.606 14.496H608.206V72H598.606V43.2H569.806V72H560.206V14.496H569.806V4.89599H584.11C584.11 4.89599 584.11 4.89599 584.206 4.89599H598.606V14.496ZM598.606 33.6V14.496H569.806V33.6H598.606ZM622.569 62.4H617.769V57.6H622.569V62.4ZM617.769 52.8V48H622.569V52.8H627.369V57.6H622.569V52.8H617.769ZM617.769 43.2V38.4H622.569V43.2H627.369V48H622.569V43.2H617.769ZM617.769 33.6V28.8H622.569V33.6H627.369V38.4H622.569V33.6H617.769ZM617.769 24V19.2H622.569V24H627.369V28.8H622.569V24H617.769ZM627.369 14.496V9.696H632.169V14.496H627.369V19.2H622.569V14.496H627.369ZM636.969 9.696H632.169V4.89599H636.969V9.696ZM641.769 14.496H636.969V9.696H641.769V14.496ZM646.569 9.696H641.769V4.89599H646.569V9.696ZM651.369 14.496H646.569V9.696H651.369V14.496ZM656.169 9.696H651.369V4.89599H656.169V9.696ZM632.169 72.096H627.369V67.296H632.169V72.096ZM636.969 67.296H632.169V62.496H636.969V67.296ZM641.769 72.096H636.969V67.296H641.769V72.096ZM646.569 67.296H641.769V62.496H646.569V67.296ZM651.369 72.096H646.569V67.296H651.369V72.096ZM656.169 67.296H651.369V62.496H656.169V67.296ZM660.969 24H656.169V19.2H660.969V24ZM665.769 19.2H660.969V14.4H665.769V19.2ZM660.969 62.4H656.169V57.6H660.969V62.4ZM665.769 57.6H660.969V52.8H665.769V57.6ZM680.131 62.4C677.443 62.4 675.331 60.288 675.331 57.6C675.331 55.008 677.443 52.8 680.131 52.8C682.723 52.8 684.931 55.008 684.931 57.6C684.931 60.288 682.723 62.4 680.131 62.4ZM680.131 52.8C677.443 52.8 675.331 50.688 675.331 48C675.331 45.408 677.443 43.2 680.131 43.2C682.723 43.2 684.931 45.408 684.931 48C684.931 50.688 682.723 52.8 680.131 52.8ZM689.731 43.2C687.043 43.2 684.931 41.088 684.931 38.4C684.931 35.808 687.043 33.6 689.731 33.6C692.323 33.6 694.531 35.808 694.531 38.4C694.531 41.088 692.323 43.2 689.731 43.2ZM680.131 43.2C677.443 43.2 675.331 41.088 675.331 38.4C675.331 35.808 677.443 33.6 680.131 33.6C682.723 33.6 684.931 35.808 684.931 38.4C684.931 41.088 682.723 43.2 680.131 43.2ZM699.331 43.2C696.643 43.2 694.531 41.088 694.531 38.4C694.531 35.808 696.643 33.6 699.331 33.6C701.923 33.6 704.131 35.808 704.131 38.4C704.131 41.088 701.923 43.2 699.331 43.2ZM680.131 72C677.443 72 675.331 69.888 675.331 67.2C675.331 64.608 677.443 62.4 680.131 62.4C682.723 62.4 684.931 64.608 684.931 67.2C684.931 69.888 682.723 72 680.131 72ZM689.731 72C687.043 72 684.931 69.888 684.931 67.2C684.931 64.608 687.043 62.4 689.731 62.4C692.323 62.4 694.531 64.608 694.531 67.2C694.531 69.888 692.323 72 689.731 72ZM699.331 72C696.643 72 694.531 69.888 694.531 67.2C694.531 64.608 696.643 62.4 699.331 62.4C701.923 62.4 704.131 64.608 704.131 67.2C704.131 69.888 701.923 72 699.331 72ZM708.931 43.2C706.243 43.2 704.131 41.088 704.131 38.4C704.131 35.808 706.243 33.6 708.931 33.6C711.523 33.6 713.731 35.808 713.731 38.4C713.731 41.088 711.523 43.2 708.931 43.2ZM718.531 43.2C715.843 43.2 713.731 41.088 713.731 38.4C713.731 35.808 715.843 33.6 718.531 33.6C721.123 33.6 723.331 35.808 723.331 38.4C723.331 41.088 721.123 43.2 718.531 43.2ZM708.931 72C706.243 72 704.131 69.888 704.131 67.2C704.131 64.608 706.243 62.4 708.931 62.4C711.523 62.4 713.731 64.608 713.731 67.2C713.731 69.888 711.523 72 708.931 72ZM718.531 72C715.843 72 713.731 69.888 713.731 67.2C713.731 64.608 715.843 62.4 718.531 62.4C721.123 62.4 723.331 64.608 723.331 67.2C723.331 69.888 721.123 72 718.531 72ZM689.731 14.496C687.043 14.496 684.931 12.288 684.931 9.696C684.931 7.008 687.043 4.89599 689.731 4.89599C692.323 4.89599 694.531 7.008 694.531 9.696C694.531 12.288 692.323 14.496 689.731 14.496ZM680.131 14.496C677.443 14.496 675.331 12.288 675.331 9.696C675.331 7.008 677.443 4.89599 680.131 4.89599C682.723 4.89599 684.931 7.008 684.931 9.696C684.931 12.288 682.723 14.496 680.131 14.496ZM699.331 14.496C696.643 14.496 694.531 12.288 694.531 9.696C694.531 7.008 696.643 4.89599 699.331 4.89599C701.923 4.89599 704.131 7.008 704.131 9.696C704.131 12.288 701.923 14.496 699.331 14.496ZM680.131 24C677.443 24 675.331 21.888 675.331 19.2C675.331 16.608 677.443 14.4 680.131 14.4C682.723 14.4 684.931 16.608 684.931 19.2C684.931 21.888 682.723 24 680.131 24ZM680.131 33.6C677.443 33.6 675.331 31.488 675.331 28.8C675.331 26.208 677.443 24 680.131 24C682.723 24 684.931 26.208 684.931 28.8C684.931 31.488 682.723 33.6 680.131 33.6ZM708.931 14.496C706.243 14.496 704.131 12.288 704.131 9.696C704.131 7.008 706.243 4.89599 708.931 4.89599C711.523 4.89599 713.731 7.008 713.731 9.696C713.731 12.288 711.523 14.496 708.931 14.496ZM718.531 14.496C715.843 14.496 713.731 12.288 713.731 9.696C713.731 7.008 715.843 4.89599 718.531 4.89599C721.123 4.89599 723.331 7.008 723.331 9.696C723.331 12.288 721.123 14.496 718.531 14.496Z" fill="white"/>
</svg>
