<svg width="551" height="737" viewBox="0 0 551 737" fill="none" xmlns="http://www.w3.org/2000/svg">
<g clip-path="url(#clip0_4226_14270)">
<path d="M91.8309 506.202C66.4728 506.202 45.9155 485.607 45.9155 460.203C45.9155 485.607 25.3581 506.202 0 506.202C25.3581 506.202 45.9155 526.797 45.9155 552.201C45.9155 526.797 66.4728 506.202 91.8309 506.202Z" fill="#0AA7FF" stroke="white" stroke-miterlimit="10"/>
<path d="M91.8321 506.202V460.203H45.9141C45.9141 485.607 66.4714 506.202 91.8295 506.202H91.8321Z" fill="#0AA7FF" stroke="white" stroke-miterlimit="10"/>
<path d="M91.8295 506.188C66.4714 506.188 45.9141 526.782 45.9141 552.187H91.8295V506.188Z" fill="#0AA7FF" stroke="white" stroke-miterlimit="10"/>
<path d="M0 506.188V552.187H45.9155C45.9155 526.782 25.3581 506.188 0 506.188Z" fill="#0AA7FF" stroke="white" stroke-miterlimit="10"/>
<path d="M45.9155 460.203H0V506.202C25.3581 506.202 45.9155 485.607 45.9155 460.203Z" fill="#0AA7FF" stroke="white" stroke-miterlimit="10"/>
<path d="M183.675 506.202C158.317 506.202 137.759 485.607 137.759 460.203C137.759 485.607 117.202 506.202 91.8438 506.202C117.202 506.202 137.759 526.797 137.759 552.201C137.759 526.797 158.317 506.202 183.675 506.202Z" fill="#0AA7FF" stroke="white" stroke-miterlimit="10"/>
<path d="M183.665 506.202V460.203H137.75C137.75 485.607 158.307 506.202 183.665 506.202Z" fill="#0AA7FF" stroke="white" stroke-miterlimit="10"/>
<path d="M183.665 506.188C158.307 506.188 137.75 526.782 137.75 552.187H183.665V506.188Z" fill="#0AA7FF" stroke="white" stroke-miterlimit="10"/>
<path d="M91.8438 506.188V552.187H137.759C137.759 526.782 117.202 506.188 91.8438 506.188Z" fill="#0AA7FF" stroke="white" stroke-miterlimit="10"/>
<path d="M137.759 460.203H91.8438V506.202C117.202 506.202 137.759 485.607 137.759 460.203Z" fill="#0AA7FF" stroke="white" stroke-miterlimit="10"/>
<path d="M275.495 506.202C250.137 506.202 229.58 485.607 229.58 460.203C229.58 485.607 209.022 506.202 183.664 506.202C209.022 506.202 229.58 526.797 229.58 552.201C229.58 526.797 250.137 506.202 275.495 506.202Z" fill="#0AA7FF" stroke="white" stroke-miterlimit="10"/>
<path d="M275.501 506.202V460.203H229.586C229.586 485.607 250.143 506.202 275.501 506.202Z" fill="#0AA7FF" stroke="white" stroke-miterlimit="10"/>
<path d="M275.501 506.188C250.143 506.188 229.586 526.782 229.586 552.187H275.501V506.188Z" fill="#0AA7FF" stroke="white" stroke-miterlimit="10"/>
<path d="M183.664 506.188V552.187H229.58C229.58 526.782 209.022 506.188 183.664 506.188Z" fill="#0AA7FF" stroke="white" stroke-miterlimit="10"/>
<path d="M229.58 460.203H183.664V506.202C209.022 506.202 229.58 485.607 229.58 460.203Z" fill="#0AA7FF" stroke="white" stroke-miterlimit="10"/>
<path d="M91.8309 414.194C66.4728 414.194 45.9155 393.6 45.9155 368.195C45.9155 393.6 25.3581 414.194 0 414.194C25.3581 414.194 45.9155 434.789 45.9155 460.194C45.9155 434.789 66.4728 414.194 91.8309 414.194Z" fill="#0AA7FF" stroke="white" stroke-miterlimit="10"/>
<path d="M91.8321 414.194V368.195H45.9141C45.9141 393.6 66.4714 414.194 91.8295 414.194H91.8321Z" fill="#0AA7FF" stroke="white" stroke-miterlimit="10"/>
<path d="M91.8295 414.195C66.4714 414.195 45.9141 434.79 45.9141 460.194H91.8295V414.195Z" fill="#0AA7FF" stroke="white" stroke-miterlimit="10"/>
<path d="M0 414.195V460.194H45.9155C45.9155 434.79 25.3581 414.195 0 414.195Z" fill="#0AA7FF" stroke="white" stroke-miterlimit="10"/>
<path d="M45.9155 368.195H0V414.194C25.3581 414.194 45.9155 393.6 45.9155 368.195Z" fill="#0AA7FF" stroke="white" stroke-miterlimit="10"/>
<path d="M183.675 414.194C158.317 414.194 137.759 393.6 137.759 368.195C137.759 393.6 117.202 414.194 91.8438 414.194C117.202 414.194 137.759 434.789 137.759 460.194C137.759 434.789 158.317 414.194 183.675 414.194Z" fill="#0AA7FF" stroke="white" stroke-miterlimit="10"/>
<path d="M183.665 414.194V368.195H137.75C137.75 393.6 158.307 414.194 183.665 414.194Z" fill="#0AA7FF" stroke="white" stroke-miterlimit="10"/>
<path d="M183.665 414.195C158.307 414.195 137.75 434.79 137.75 460.194H183.665V414.195Z" fill="#0AA7FF" stroke="white" stroke-miterlimit="10"/>
<path d="M91.8438 414.195V460.194H137.759C137.759 434.79 117.202 414.195 91.8438 414.195Z" fill="#0AA7FF" stroke="white" stroke-miterlimit="10"/>
<path d="M137.759 368.195H91.8438V414.194C117.202 414.194 137.759 393.6 137.759 368.195Z" fill="#0AA7FF" stroke="white" stroke-miterlimit="10"/>
<path d="M275.495 414.194C250.137 414.194 229.58 393.6 229.58 368.195C229.58 393.6 209.022 414.194 183.664 414.194C209.022 414.194 229.58 434.789 229.58 460.194C229.58 434.789 250.137 414.194 275.495 414.194Z" fill="#0AA7FF" stroke="white" stroke-miterlimit="10"/>
<path d="M275.501 414.194V368.195H229.586C229.586 393.6 250.143 414.194 275.501 414.194Z" fill="#0AA7FF" stroke="white" stroke-miterlimit="10"/>
<path d="M275.501 414.195C250.143 414.195 229.586 434.79 229.586 460.194H275.501V414.195Z" fill="#0AA7FF" stroke="white" stroke-miterlimit="10"/>
<path d="M183.664 414.195V460.194H229.58C229.58 434.79 209.022 414.195 183.664 414.195Z" fill="#0AA7FF" stroke="white" stroke-miterlimit="10"/>
<path d="M229.58 368.195H183.664V414.194C209.022 414.194 229.58 393.6 229.58 368.195Z" fill="#0AA7FF" stroke="white" stroke-miterlimit="10"/>
<path d="M91.8309 598.194C66.4728 598.194 45.9155 577.6 45.9155 552.195C45.9155 577.6 25.3581 598.194 0 598.194C25.3581 598.194 45.9155 618.789 45.9155 644.194C45.9155 618.789 66.4728 598.194 91.8309 598.194Z" fill="#0AA7FF" stroke="white" stroke-miterlimit="10"/>
<path d="M91.8321 598.194V552.195H45.9141C45.9141 577.6 66.4714 598.194 91.8295 598.194H91.8321Z" fill="#0AA7FF" stroke="white" stroke-miterlimit="10"/>
<path d="M91.8295 598.195C66.4714 598.195 45.9141 618.79 45.9141 644.194H91.8295V598.195Z" fill="#0AA7FF" stroke="white" stroke-miterlimit="10"/>
<path d="M0 598.195V644.194H45.9155C45.9155 618.79 25.3581 598.195 0 598.195Z" fill="#0AA7FF" stroke="white" stroke-miterlimit="10"/>
<path d="M45.9155 552.195H0V598.194C25.3581 598.194 45.9155 577.6 45.9155 552.195Z" fill="#0AA7FF" stroke="white" stroke-miterlimit="10"/>
<path d="M183.675 598.194C158.317 598.194 137.759 577.6 137.759 552.195C137.759 577.6 117.202 598.194 91.8438 598.194C117.202 598.194 137.759 618.789 137.759 644.194C137.759 618.789 158.317 598.194 183.675 598.194Z" fill="#0AA7FF" stroke="white" stroke-miterlimit="10"/>
<path d="M183.665 598.194V552.195H137.75C137.75 577.6 158.307 598.194 183.665 598.194Z" fill="#0AA7FF" stroke="white" stroke-miterlimit="10"/>
<path d="M183.665 598.195C158.307 598.195 137.75 618.79 137.75 644.194H183.665V598.195Z" fill="#0AA7FF" stroke="white" stroke-miterlimit="10"/>
<path d="M91.8438 598.195V644.194H137.759C137.759 618.79 117.202 598.195 91.8438 598.195Z" fill="#0AA7FF" stroke="white" stroke-miterlimit="10"/>
<path d="M137.759 552.195H91.8438V598.194C117.202 598.194 137.759 577.6 137.759 552.195Z" fill="#0AA7FF" stroke="white" stroke-miterlimit="10"/>
<path d="M275.495 598.194C250.137 598.194 229.58 577.6 229.58 552.195C229.58 577.6 209.022 598.194 183.664 598.194C209.022 598.194 229.58 618.789 229.58 644.194C229.58 618.789 250.137 598.194 275.495 598.194Z" fill="#0AA7FF" stroke="white" stroke-miterlimit="10"/>
<path d="M275.501 598.194V552.195H229.586C229.586 577.6 250.143 598.194 275.501 598.194Z" fill="#0AA7FF" stroke="white" stroke-miterlimit="10"/>
<path d="M275.501 598.195C250.143 598.195 229.586 618.79 229.586 644.194H275.501V598.195Z" fill="#0AA7FF" stroke="white" stroke-miterlimit="10"/>
<path d="M183.664 598.195V644.194H229.58C229.58 618.79 209.022 598.195 183.664 598.195Z" fill="#0AA7FF" stroke="white" stroke-miterlimit="10"/>
<path d="M229.58 552.195H183.664V598.194C209.022 598.194 229.58 577.6 229.58 552.195Z" fill="#0AA7FF" stroke="white" stroke-miterlimit="10"/>
<path d="M91.8309 690.194C66.4728 690.194 45.9155 669.6 45.9155 644.195C45.9155 669.6 25.3581 690.194 0 690.194C25.3581 690.194 45.9155 710.789 45.9155 736.194C45.9155 710.789 66.4728 690.194 91.8309 690.194Z" fill="#0AA7FF" stroke="white" stroke-miterlimit="10"/>
<path d="M91.8321 690.194V644.195H45.9141C45.9141 669.6 66.4714 690.194 91.8295 690.194H91.8321Z" fill="#0AA7FF" stroke="white" stroke-miterlimit="10"/>
<path d="M91.8295 690.195C66.4714 690.195 45.9141 710.79 45.9141 736.194H91.8295V690.195Z" fill="#0AA7FF" stroke="white" stroke-miterlimit="10"/>
<path d="M0 690.195V736.194H45.9155C45.9155 710.79 25.3581 690.195 0 690.195Z" fill="#0AA7FF" stroke="white" stroke-miterlimit="10"/>
<path d="M45.9155 644.195H0V690.194C25.3581 690.194 45.9155 669.6 45.9155 644.195Z" fill="#0AA7FF" stroke="white" stroke-miterlimit="10"/>
<path d="M183.675 690.194C158.317 690.194 137.759 669.6 137.759 644.195C137.759 669.6 117.202 690.194 91.8438 690.194C117.202 690.194 137.759 710.789 137.759 736.194C137.759 710.789 158.317 690.194 183.675 690.194Z" fill="#0AA7FF" stroke="white" stroke-miterlimit="10"/>
<path d="M183.665 690.194V644.195H137.75C137.75 669.6 158.307 690.194 183.665 690.194Z" fill="#0AA7FF" stroke="white" stroke-miterlimit="10"/>
<path d="M183.665 690.195C158.307 690.195 137.75 710.79 137.75 736.194H183.665V690.195Z" fill="#0AA7FF" stroke="white" stroke-miterlimit="10"/>
<path d="M91.8438 690.195V736.194H137.759C137.759 710.79 117.202 690.195 91.8438 690.195Z" fill="#0AA7FF" stroke="white" stroke-miterlimit="10"/>
<path d="M137.759 644.195H91.8438V690.194C117.202 690.194 137.759 669.6 137.759 644.195Z" fill="#0AA7FF" stroke="white" stroke-miterlimit="10"/>
<path d="M275.495 690.194C250.137 690.194 229.58 669.6 229.58 644.195C229.58 669.6 209.022 690.194 183.664 690.194C209.022 690.194 229.58 710.789 229.58 736.194C229.58 710.789 250.137 690.194 275.495 690.194Z" fill="#0AA7FF" stroke="white" stroke-miterlimit="10"/>
<path d="M275.501 690.194V644.195H229.586C229.586 669.6 250.143 690.194 275.501 690.194Z" fill="#0AA7FF" stroke="white" stroke-miterlimit="10"/>
<path d="M275.501 690.195C250.143 690.195 229.586 710.79 229.586 736.194H275.501V690.195Z" fill="#0AA7FF" stroke="white" stroke-miterlimit="10"/>
<path d="M183.664 690.195V736.194H229.58C229.58 710.79 209.022 690.195 183.664 690.195Z" fill="#0AA7FF" stroke="white" stroke-miterlimit="10"/>
<path d="M229.58 644.195H183.664V690.194C209.022 690.194 229.58 669.6 229.58 644.195Z" fill="#0AA7FF" stroke="white" stroke-miterlimit="10"/>
<path d="M367.339 506.202C341.981 506.202 321.423 485.607 321.423 460.203C321.423 485.607 300.866 506.202 275.508 506.202C300.866 506.202 321.423 526.797 321.423 552.201C321.423 526.797 341.981 506.202 367.339 506.202Z" fill="#0AA7FF" stroke="white" stroke-miterlimit="10"/>
<path d="M367.33 506.202V460.203H321.414C321.414 485.607 341.971 506.202 367.33 506.202Z" fill="#0AA7FF" stroke="white" stroke-miterlimit="10"/>
<path d="M367.33 506.188C341.971 506.188 321.414 526.782 321.414 552.187H367.33V506.188Z" fill="#0AA7FF" stroke="white" stroke-miterlimit="10"/>
<path d="M275.5 506.188V552.187H321.415C321.415 526.782 300.858 506.188 275.5 506.188Z" fill="#0AA7FF" stroke="white" stroke-miterlimit="10"/>
<path d="M321.423 460.203H275.508V506.202C300.866 506.202 321.423 485.607 321.423 460.203Z" fill="#0AA7FF" stroke="white" stroke-miterlimit="10"/>
<path d="M459.159 506.202C433.801 506.202 413.244 485.607 413.244 460.203C413.244 485.607 392.686 506.202 367.328 506.202C392.686 506.202 413.244 526.797 413.244 552.201C413.244 526.797 433.801 506.202 459.159 506.202Z" fill="#0AA7FF" stroke="white" stroke-miterlimit="10"/>
<path d="M459.165 506.202V460.203H413.25C413.25 485.607 433.807 506.202 459.165 506.202Z" fill="#0AA7FF" stroke="white" stroke-miterlimit="10"/>
<path d="M459.165 506.188C433.807 506.188 413.25 526.782 413.25 552.187H459.165V506.188Z" fill="#0AA7FF" stroke="white" stroke-miterlimit="10"/>
<path d="M367.328 506.188V552.187H413.244C413.244 526.782 392.686 506.188 367.328 506.188Z" fill="#0AA7FF" stroke="white" stroke-miterlimit="10"/>
<path d="M413.244 460.203H367.328V506.202C392.686 506.202 413.244 485.607 413.244 460.203Z" fill="#0AA7FF" stroke="white" stroke-miterlimit="10"/>
<path d="M551.003 506.202C525.645 506.202 505.087 485.607 505.087 460.203C505.087 485.607 484.53 506.202 459.172 506.202C484.53 506.202 505.087 526.797 505.087 552.201C505.087 526.797 525.645 506.202 551.003 506.202Z" fill="#0AA7FF" stroke="white" stroke-miterlimit="10"/>
<path d="M550.994 506.202V460.203H505.078C505.078 485.607 525.636 506.202 550.994 506.202Z" fill="#0AA7FF" stroke="white" stroke-miterlimit="10"/>
<path d="M550.994 506.188C525.636 506.188 505.078 526.782 505.078 552.187H550.994V506.188Z" fill="#0AA7FF" stroke="white" stroke-miterlimit="10"/>
<path d="M459.172 506.188V552.187H505.087C505.087 526.782 484.53 506.188 459.172 506.188Z" fill="#0AA7FF" stroke="white" stroke-miterlimit="10"/>
<path d="M505.087 460.203H459.172V506.202C484.53 506.202 505.087 485.607 505.087 460.203Z" fill="#0AA7FF" stroke="white" stroke-miterlimit="10"/>
<path d="M367.339 414.194C341.981 414.194 321.423 393.6 321.423 368.195C321.423 393.6 300.866 414.194 275.508 414.194C300.866 414.194 321.423 434.789 321.423 460.194C321.423 434.789 341.981 414.194 367.339 414.194Z" fill="#0AA7FF" stroke="white" stroke-miterlimit="10"/>
<path d="M367.33 414.194V368.195H321.414C321.414 393.6 341.971 414.194 367.33 414.194Z" fill="#0AA7FF" stroke="white" stroke-miterlimit="10"/>
<path d="M367.33 414.195C341.971 414.195 321.414 434.79 321.414 460.194H367.33V414.195Z" fill="#0AA7FF" stroke="white" stroke-miterlimit="10"/>
<path d="M275.5 414.195V460.194H321.415C321.415 434.79 300.858 414.195 275.5 414.195Z" fill="#0AA7FF" stroke="white" stroke-miterlimit="10"/>
<path d="M321.423 368.195H275.508V414.194C300.866 414.194 321.423 393.6 321.423 368.195Z" fill="#0AA7FF" stroke="white" stroke-miterlimit="10"/>
<path d="M459.159 414.194C433.801 414.194 413.244 393.6 413.244 368.195C413.244 393.6 392.686 414.194 367.328 414.194C392.686 414.194 413.244 434.789 413.244 460.194C413.244 434.789 433.801 414.194 459.159 414.194Z" fill="#0AA7FF" stroke="white" stroke-miterlimit="10"/>
<path d="M459.165 414.194V368.195H413.25C413.25 393.6 433.807 414.194 459.165 414.194Z" fill="#0AA7FF" stroke="white" stroke-miterlimit="10"/>
<path d="M459.165 414.195C433.807 414.195 413.25 434.79 413.25 460.194H459.165V414.195Z" fill="#0AA7FF" stroke="white" stroke-miterlimit="10"/>
<path d="M367.328 414.195V460.194H413.244C413.244 434.79 392.686 414.195 367.328 414.195Z" fill="#0AA7FF" stroke="white" stroke-miterlimit="10"/>
<path d="M413.244 368.195H367.328V414.194C392.686 414.194 413.244 393.6 413.244 368.195Z" fill="#0AA7FF" stroke="white" stroke-miterlimit="10"/>
<path d="M551.003 414.194C525.645 414.194 505.087 393.6 505.087 368.195C505.087 393.6 484.53 414.194 459.172 414.194C484.53 414.194 505.087 434.789 505.087 460.194C505.087 434.789 525.645 414.194 551.003 414.194Z" fill="#0AA7FF" stroke="white" stroke-miterlimit="10"/>
<path d="M550.994 414.194V368.195H505.078C505.078 393.6 525.636 414.194 550.994 414.194Z" fill="#0AA7FF" stroke="white" stroke-miterlimit="10"/>
<path d="M550.994 414.195C525.636 414.195 505.078 434.79 505.078 460.194H550.994V414.195Z" fill="#0AA7FF" stroke="white" stroke-miterlimit="10"/>
<path d="M459.172 414.195V460.194H505.087C505.087 434.79 484.53 414.195 459.172 414.195Z" fill="#0AA7FF" stroke="white" stroke-miterlimit="10"/>
<path d="M505.087 368.195H459.172V414.194C484.53 414.194 505.087 393.6 505.087 368.195Z" fill="#0AA7FF" stroke="white" stroke-miterlimit="10"/>
<path d="M367.339 598.194C341.981 598.194 321.423 577.6 321.423 552.195C321.423 577.6 300.866 598.194 275.508 598.194C300.866 598.194 321.423 618.789 321.423 644.194C321.423 618.789 341.981 598.194 367.339 598.194Z" fill="#0AA7FF" stroke="white" stroke-miterlimit="10"/>
<path d="M367.33 598.194V552.195H321.414C321.414 577.6 341.971 598.194 367.33 598.194Z" fill="#0AA7FF" stroke="white" stroke-miterlimit="10"/>
<path d="M367.33 598.195C341.971 598.195 321.414 618.79 321.414 644.194H367.33V598.195Z" fill="#0AA7FF" stroke="white" stroke-miterlimit="10"/>
<path d="M275.5 598.195V644.194H321.415C321.415 618.79 300.858 598.195 275.5 598.195Z" fill="#0AA7FF" stroke="white" stroke-miterlimit="10"/>
<path d="M321.423 552.195H275.508V598.194C300.866 598.194 321.423 577.6 321.423 552.195Z" fill="#0AA7FF" stroke="white" stroke-miterlimit="10"/>
<path d="M459.159 598.194C433.801 598.194 413.244 577.6 413.244 552.195C413.244 577.6 392.686 598.194 367.328 598.194C392.686 598.194 413.244 618.789 413.244 644.194C413.244 618.789 433.801 598.194 459.159 598.194Z" fill="#0AA7FF" stroke="white" stroke-miterlimit="10"/>
<path d="M459.165 598.194V552.195H413.25C413.25 577.6 433.807 598.194 459.165 598.194Z" fill="#0AA7FF" stroke="white" stroke-miterlimit="10"/>
<path d="M459.165 598.195C433.807 598.195 413.25 618.79 413.25 644.194H459.165V598.195Z" fill="#0AA7FF" stroke="white" stroke-miterlimit="10"/>
<path d="M367.328 598.195V644.194H413.244C413.244 618.79 392.686 598.195 367.328 598.195Z" fill="#0AA7FF" stroke="white" stroke-miterlimit="10"/>
<path d="M413.244 552.195H367.328V598.194C392.686 598.194 413.244 577.6 413.244 552.195Z" fill="#0AA7FF" stroke="white" stroke-miterlimit="10"/>
<path d="M551.003 598.194C525.645 598.194 505.087 577.6 505.087 552.195C505.087 577.6 484.53 598.194 459.172 598.194C484.53 598.194 505.087 618.789 505.087 644.194C505.087 618.789 525.645 598.194 551.003 598.194Z" fill="#0AA7FF" stroke="white" stroke-miterlimit="10"/>
<path d="M550.994 598.194V552.195H505.078C505.078 577.6 525.636 598.194 550.994 598.194Z" fill="#0AA7FF" stroke="white" stroke-miterlimit="10"/>
<path d="M550.994 598.195C525.636 598.195 505.078 618.79 505.078 644.194H550.994V598.195Z" fill="#0AA7FF" stroke="white" stroke-miterlimit="10"/>
<path d="M459.172 598.195V644.194H505.087C505.087 618.79 484.53 598.195 459.172 598.195Z" fill="#0AA7FF" stroke="white" stroke-miterlimit="10"/>
<path d="M505.087 552.195H459.172V598.194C484.53 598.194 505.087 577.6 505.087 552.195Z" fill="#0AA7FF" stroke="white" stroke-miterlimit="10"/>
<path d="M367.339 690.194C341.981 690.194 321.423 669.6 321.423 644.195C321.423 669.6 300.866 690.194 275.508 690.194C300.866 690.194 321.423 710.789 321.423 736.194C321.423 710.789 341.981 690.194 367.339 690.194Z" fill="#0AA7FF" stroke="white" stroke-miterlimit="10"/>
<path d="M367.33 690.194V644.195H321.414C321.414 669.6 341.971 690.194 367.33 690.194Z" fill="#0AA7FF" stroke="white" stroke-miterlimit="10"/>
<path d="M367.33 690.195C341.971 690.195 321.414 710.79 321.414 736.194H367.33V690.195Z" fill="#0AA7FF" stroke="white" stroke-miterlimit="10"/>
<path d="M275.5 690.195V736.194H321.415C321.415 710.79 300.858 690.195 275.5 690.195Z" fill="#0AA7FF" stroke="white" stroke-miterlimit="10"/>
<path d="M321.423 644.195H275.508V690.194C300.866 690.194 321.423 669.6 321.423 644.195Z" fill="#0AA7FF" stroke="white" stroke-miterlimit="10"/>
<path d="M459.159 690.194C433.801 690.194 413.244 669.6 413.244 644.195C413.244 669.6 392.686 690.194 367.328 690.194C392.686 690.194 413.244 710.789 413.244 736.194C413.244 710.789 433.801 690.194 459.159 690.194Z" fill="#0AA7FF" stroke="white" stroke-miterlimit="10"/>
<path d="M459.165 690.194V644.195H413.25C413.25 669.6 433.807 690.194 459.165 690.194Z" fill="#0AA7FF" stroke="white" stroke-miterlimit="10"/>
<path d="M459.165 690.195C433.807 690.195 413.25 710.79 413.25 736.194H459.165V690.195Z" fill="#0AA7FF" stroke="white" stroke-miterlimit="10"/>
<path d="M367.328 690.195V736.194H413.244C413.244 710.79 392.686 690.195 367.328 690.195Z" fill="#0AA7FF" stroke="white" stroke-miterlimit="10"/>
<path d="M413.244 644.195H367.328V690.194C392.686 690.194 413.244 669.6 413.244 644.195Z" fill="#0AA7FF" stroke="white" stroke-miterlimit="10"/>
<path d="M551.003 690.194C525.645 690.194 505.087 669.6 505.087 644.195C505.087 669.6 484.53 690.194 459.172 690.194C484.53 690.194 505.087 710.789 505.087 736.194C505.087 710.789 525.645 690.194 551.003 690.194Z" fill="#0AA7FF" stroke="white" stroke-miterlimit="10"/>
<path d="M550.994 690.194V644.195H505.078C505.078 669.6 525.636 690.194 550.994 690.194Z" fill="#0AA7FF" stroke="white" stroke-miterlimit="10"/>
<path d="M550.994 690.195C525.636 690.195 505.078 710.79 505.078 736.194H550.994V690.195Z" fill="#0AA7FF" stroke="white" stroke-miterlimit="10"/>
<path d="M459.172 690.195V736.194H505.087C505.087 710.79 484.53 690.195 459.172 690.195Z" fill="#0AA7FF" stroke="white" stroke-miterlimit="10"/>
<path d="M505.087 644.195H459.172V690.194C484.53 690.194 505.087 669.6 505.087 644.195Z" fill="#0AA7FF" stroke="white" stroke-miterlimit="10"/>
<path d="M91.8309 138.202C66.4728 138.202 45.9155 117.607 45.9155 92.2031C45.9155 117.607 25.3581 138.202 0 138.202C25.3581 138.202 45.9155 158.797 45.9155 184.201C45.9155 158.797 66.4728 138.202 91.8309 138.202Z" fill="#0AA7FF" stroke="white" stroke-miterlimit="10"/>
<path d="M91.8321 138.202V92.2031H45.9141C45.9141 117.607 66.4714 138.202 91.8295 138.202H91.8321Z" fill="#0AA7FF" stroke="white" stroke-miterlimit="10"/>
<path d="M91.8295 138.195C66.4714 138.195 45.9141 158.79 45.9141 184.194H91.8295V138.195Z" fill="#0AA7FF" stroke="white" stroke-miterlimit="10"/>
<path d="M0 138.195V184.194H45.9155C45.9155 158.79 25.3581 138.195 0 138.195Z" fill="#0AA7FF" stroke="white" stroke-miterlimit="10"/>
<path d="M45.9155 92.2031H0V138.202C25.3581 138.202 45.9155 117.607 45.9155 92.2031Z" fill="#0AA7FF" stroke="white" stroke-miterlimit="10"/>
<path d="M183.675 138.202C158.317 138.202 137.759 117.607 137.759 92.2031C137.759 117.607 117.202 138.202 91.8438 138.202C117.202 138.202 137.759 158.797 137.759 184.201C137.759 158.797 158.317 138.202 183.675 138.202Z" fill="#0AA7FF" stroke="white" stroke-miterlimit="10"/>
<path d="M183.665 138.202V92.2031H137.75C137.75 117.607 158.307 138.202 183.665 138.202Z" fill="#0AA7FF" stroke="white" stroke-miterlimit="10"/>
<path d="M183.665 138.195C158.307 138.195 137.75 158.79 137.75 184.194H183.665V138.195Z" fill="#0AA7FF" stroke="white" stroke-miterlimit="10"/>
<path d="M91.8438 138.195V184.194H137.759C137.759 158.79 117.202 138.195 91.8438 138.195Z" fill="#0AA7FF" stroke="white" stroke-miterlimit="10"/>
<path d="M137.759 92.2031H91.8438V138.202C117.202 138.202 137.759 117.607 137.759 92.2031Z" fill="#0AA7FF" stroke="white" stroke-miterlimit="10"/>
<path d="M275.495 138.202C250.137 138.202 229.58 117.607 229.58 92.2031C229.58 117.607 209.022 138.202 183.664 138.202C209.022 138.202 229.58 158.797 229.58 184.201C229.58 158.797 250.137 138.202 275.495 138.202Z" fill="#0AA7FF" stroke="white" stroke-miterlimit="10"/>
<path d="M275.501 138.202V92.2031H229.586C229.586 117.607 250.143 138.202 275.501 138.202Z" fill="#0AA7FF" stroke="white" stroke-miterlimit="10"/>
<path d="M275.501 138.195C250.143 138.195 229.586 158.79 229.586 184.194H275.501V138.195Z" fill="#0AA7FF" stroke="white" stroke-miterlimit="10"/>
<path d="M183.664 138.195V184.194H229.58C229.58 158.79 209.022 138.195 183.664 138.195Z" fill="#0AA7FF" stroke="white" stroke-miterlimit="10"/>
<path d="M229.58 92.2031H183.664V138.202C209.022 138.202 229.58 117.607 229.58 92.2031Z" fill="#0AA7FF" stroke="white" stroke-miterlimit="10"/>
<path d="M91.8335 46.1944C66.4754 46.1944 45.918 25.5996 45.918 0.195312C45.9155 25.5996 25.3581 46.1944 0 46.1944C25.3581 46.1944 45.9155 66.7893 45.9155 92.1936C45.9155 66.7893 66.4728 46.1944 91.8309 46.1944H91.8335Z" fill="#0AA7FF" stroke="white" stroke-miterlimit="10"/>
<path d="M91.8321 46.1944V0.195312H45.9141C45.9141 25.5996 66.4714 46.1944 91.8295 46.1944H91.8321Z" fill="#0AA7FF" stroke="white" stroke-miterlimit="10"/>
<path d="M91.8295 46.1953C66.4714 46.1953 45.9141 66.7901 45.9141 92.1944H91.8295V46.1953Z" fill="white" stroke="white" stroke-miterlimit="10"/>
<path d="M0 46.1953V92.1944H45.9155C45.9155 66.7901 25.3581 46.1953 0 46.1953Z" fill="#0AA7FF" stroke="white" stroke-miterlimit="10"/>
<path d="M45.9155 0.195312H0V46.1944C25.3581 46.1944 45.9155 25.5996 45.9155 0.195312Z" fill="#0AA7FF" stroke="white" stroke-miterlimit="10"/>
<path d="M183.675 46.1944C158.317 46.1944 137.759 25.5996 137.759 0.195312C137.759 25.5996 117.202 46.1944 91.8438 46.1944C117.202 46.1944 137.759 66.7893 137.759 92.1936C137.759 66.7893 158.317 46.1944 183.675 46.1944Z" fill="#0AA7FF" stroke="white" stroke-miterlimit="10"/>
<path d="M183.665 46.1944V0.195312H137.75C137.75 25.5996 158.307 46.1944 183.665 46.1944Z" fill="#0AA7FF" stroke="white" stroke-miterlimit="10"/>
<path d="M183.665 46.1953C158.307 46.1953 137.75 66.7901 137.75 92.1944H183.665V46.1953Z" fill="white" stroke="white" stroke-miterlimit="10"/>
<path d="M91.8438 46.1953V92.1944H137.759C137.759 66.7901 117.202 46.1953 91.8438 46.1953Z" fill="white" stroke="white" stroke-miterlimit="10"/>
<path d="M137.759 0.195312H91.8438V46.1944C117.202 46.1944 137.759 25.5996 137.759 0.195312Z" fill="#0AA7FF" stroke="white" stroke-miterlimit="10"/>
<path d="M275.495 46.1944C250.137 46.1944 229.58 25.5996 229.58 0.195312C229.58 25.5996 209.022 46.1944 183.664 46.1944C209.022 46.1944 229.58 66.7893 229.58 92.1936C229.58 66.7893 250.137 46.1944 275.495 46.1944Z" fill="#0AA7FF" stroke="white" stroke-miterlimit="10"/>
<path d="M275.501 46.1944V0.195312H229.586C229.586 25.5996 250.143 46.1944 275.501 46.1944Z" fill="#0AA7FF" stroke="white" stroke-miterlimit="10"/>
<path d="M275.501 46.1953C250.143 46.1953 229.586 66.7901 229.586 92.1944H275.501V46.1953Z" fill="white" stroke="white" stroke-miterlimit="10"/>
<path d="M183.664 46.1953V92.1944H229.58C229.58 66.7901 209.022 46.1953 183.664 46.1953Z" fill="white" stroke="white" stroke-miterlimit="10"/>
<path d="M229.58 0.195312H183.664V46.1944C209.022 46.1944 229.58 25.5996 229.58 0.195312Z" fill="#0AA7FF" stroke="white" stroke-miterlimit="10"/>
<path d="M91.8309 230.194C66.4728 230.194 45.9155 209.6 45.9155 184.195C45.9155 209.6 25.3581 230.194 0 230.194C25.3581 230.194 45.9155 250.789 45.9155 276.194C45.9155 250.789 66.4728 230.194 91.8309 230.194Z" fill="#0AA7FF" stroke="white" stroke-miterlimit="10"/>
<path d="M91.8321 230.194V184.195H45.9141C45.9141 209.6 66.4714 230.194 91.8295 230.194H91.8321Z" fill="#0AA7FF" stroke="white" stroke-miterlimit="10"/>
<path d="M91.8295 230.195C66.4714 230.195 45.9141 250.79 45.9141 276.194H91.8295V230.195Z" fill="#0AA7FF" stroke="white" stroke-miterlimit="10"/>
<path d="M0 230.195V276.194H45.9155C45.9155 250.79 25.3581 230.195 0 230.195Z" fill="#0AA7FF" stroke="white" stroke-miterlimit="10"/>
<path d="M45.9155 184.195H0V230.194C25.3581 230.194 45.9155 209.6 45.9155 184.195Z" fill="#0AA7FF" stroke="white" stroke-miterlimit="10"/>
<path d="M183.675 230.194C158.317 230.194 137.759 209.6 137.759 184.195C137.759 209.6 117.202 230.194 91.8438 230.194C117.202 230.194 137.759 250.789 137.759 276.194C137.759 250.789 158.317 230.194 183.675 230.194Z" fill="#0AA7FF" stroke="white" stroke-miterlimit="10"/>
<path d="M183.665 230.194V184.195H137.75C137.75 209.6 158.307 230.194 183.665 230.194Z" fill="#0AA7FF" stroke="white" stroke-miterlimit="10"/>
<path d="M183.665 230.195C158.307 230.195 137.75 250.79 137.75 276.194H183.665V230.195Z" fill="#0AA7FF" stroke="white" stroke-miterlimit="10"/>
<path d="M91.8438 230.195V276.194H137.759C137.759 250.79 117.202 230.195 91.8438 230.195Z" fill="#0AA7FF" stroke="white" stroke-miterlimit="10"/>
<path d="M137.759 184.195H91.8438V230.194C117.202 230.194 137.759 209.6 137.759 184.195Z" fill="#0AA7FF" stroke="white" stroke-miterlimit="10"/>
<path d="M275.495 230.194C250.137 230.194 229.58 209.6 229.58 184.195C229.58 209.6 209.022 230.194 183.664 230.194C209.022 230.194 229.58 250.789 229.58 276.194C229.58 250.789 250.137 230.194 275.495 230.194Z" fill="#0AA7FF" stroke="white" stroke-miterlimit="10"/>
<path d="M275.501 230.194V184.195H229.586C229.586 209.6 250.143 230.194 275.501 230.194Z" fill="#0AA7FF" stroke="white" stroke-miterlimit="10"/>
<path d="M275.501 230.195C250.143 230.195 229.586 250.79 229.586 276.194H275.501V230.195Z" fill="#0AA7FF" stroke="white" stroke-miterlimit="10"/>
<path d="M183.664 230.195V276.194H229.58C229.58 250.79 209.022 230.195 183.664 230.195Z" fill="#0AA7FF" stroke="white" stroke-miterlimit="10"/>
<path d="M229.58 184.195H183.664V230.194C209.022 230.194 229.58 209.6 229.58 184.195Z" fill="#0AA7FF" stroke="white" stroke-miterlimit="10"/>
<path d="M91.8309 322.202C66.4728 322.202 45.9155 301.607 45.9155 276.203C45.9155 301.607 25.3581 322.202 0 322.202C25.3581 322.202 45.9155 342.797 45.9155 368.201C45.9155 342.797 66.4728 322.202 91.8309 322.202Z" fill="#0AA7FF" stroke="white" stroke-miterlimit="10"/>
<path d="M91.8321 322.202V276.203H45.9141C45.9141 301.607 66.4714 322.202 91.8295 322.202H91.8321Z" fill="#0AA7FF" stroke="white" stroke-miterlimit="10"/>
<path d="M91.8295 322.195C66.4714 322.195 45.9141 342.79 45.9141 368.194H91.8295V322.195Z" fill="#0AA7FF" stroke="white" stroke-miterlimit="10"/>
<path d="M0 322.195V368.194H45.9155C45.9155 342.79 25.3581 322.195 0 322.195Z" fill="#0AA7FF" stroke="white" stroke-miterlimit="10"/>
<path d="M45.9155 276.195H0V322.194C25.3581 322.194 45.9155 301.6 45.9155 276.195Z" fill="#0AA7FF" stroke="white" stroke-miterlimit="10"/>
<path d="M183.675 322.202C158.317 322.202 137.759 301.607 137.759 276.203C137.759 301.607 117.202 322.202 91.8438 322.202C117.202 322.202 137.759 342.797 137.759 368.201C137.759 342.797 158.317 322.202 183.675 322.202Z" fill="#0AA7FF" stroke="white" stroke-miterlimit="10"/>
<path d="M183.665 322.202V276.203H137.75C137.75 301.607 158.307 322.202 183.665 322.202Z" fill="#0AA7FF" stroke="white" stroke-miterlimit="10"/>
<path d="M183.665 322.195C158.307 322.195 137.75 342.79 137.75 368.194H183.665V322.195Z" fill="#0AA7FF" stroke="white" stroke-miterlimit="10"/>
<path d="M91.8438 322.195V368.194H137.759C137.759 342.79 117.202 322.195 91.8438 322.195Z" fill="#0AA7FF" stroke="white" stroke-miterlimit="10"/>
<path d="M137.759 276.195H91.8438V322.194C117.202 322.194 137.759 301.6 137.759 276.195Z" fill="#0AA7FF" stroke="white" stroke-miterlimit="10"/>
<path d="M275.495 322.202C250.137 322.202 229.58 301.607 229.58 276.203C229.58 301.607 209.022 322.202 183.664 322.202C209.022 322.202 229.58 342.797 229.58 368.201C229.58 342.797 250.137 322.202 275.495 322.202Z" fill="#0AA7FF" stroke="white" stroke-miterlimit="10"/>
<path d="M275.501 322.202V276.203H229.586C229.586 301.607 250.143 322.202 275.501 322.202Z" fill="#0AA7FF" stroke="white" stroke-miterlimit="10"/>
<path d="M275.501 322.195C250.143 322.195 229.586 342.79 229.586 368.194H275.501V322.195Z" fill="#0AA7FF" stroke="white" stroke-miterlimit="10"/>
<path d="M183.664 322.195V368.194H229.58C229.58 342.79 209.022 322.195 183.664 322.195Z" fill="#0AA7FF" stroke="white" stroke-miterlimit="10"/>
<path d="M229.58 276.195H183.664V322.194C209.022 322.194 229.58 301.6 229.58 276.195Z" fill="#0AA7FF" stroke="white" stroke-miterlimit="10"/>
<path d="M367.339 138.202C341.981 138.202 321.423 117.607 321.423 92.2031C321.423 117.607 300.866 138.202 275.508 138.202C300.866 138.202 321.423 158.797 321.423 184.201C321.423 158.797 341.981 138.202 367.339 138.202Z" fill="#0AA7FF" stroke="white" stroke-miterlimit="10"/>
<path d="M367.33 138.202V92.2031H321.414C321.414 117.607 341.971 138.202 367.33 138.202Z" fill="#0AA7FF" stroke="white" stroke-miterlimit="10"/>
<path d="M367.33 138.195C341.971 138.195 321.414 158.79 321.414 184.194H367.33V138.195Z" fill="#0AA7FF" stroke="white" stroke-miterlimit="10"/>
<path d="M275.5 138.195V184.194H321.415C321.415 158.79 300.858 138.195 275.5 138.195Z" fill="#0AA7FF" stroke="white" stroke-miterlimit="10"/>
<path d="M321.423 92.2031H275.508V138.202C300.866 138.202 321.423 117.607 321.423 92.2031Z" fill="#0AA7FF" stroke="white" stroke-miterlimit="10"/>
<path d="M459.159 138.202C433.801 138.202 413.244 117.607 413.244 92.2031C413.244 117.607 392.686 138.202 367.328 138.202C392.686 138.202 413.244 158.797 413.244 184.201C413.244 158.797 433.801 138.202 459.159 138.202Z" fill="#0AA7FF" stroke="white" stroke-miterlimit="10"/>
<path d="M459.165 138.202V92.2031H413.25C413.25 117.607 433.807 138.202 459.165 138.202Z" fill="#0AA7FF" stroke="white" stroke-miterlimit="10"/>
<path d="M459.165 138.195C433.807 138.195 413.25 158.79 413.25 184.194H459.165V138.195Z" fill="#0AA7FF" stroke="white" stroke-miterlimit="10"/>
<path d="M367.328 138.195V184.194H413.244C413.244 158.79 392.686 138.195 367.328 138.195Z" fill="#0AA7FF" stroke="white" stroke-miterlimit="10"/>
<path d="M413.244 92.2031H367.328V138.202C392.686 138.202 413.244 117.607 413.244 92.2031Z" fill="#0AA7FF" stroke="white" stroke-miterlimit="10"/>
<path d="M551.003 138.202C525.645 138.202 505.087 117.607 505.087 92.2031C505.087 117.607 484.53 138.202 459.172 138.202C484.53 138.202 505.087 158.797 505.087 184.201C505.087 158.797 525.645 138.202 551.003 138.202Z" fill="#0AA7FF" stroke="white" stroke-miterlimit="10"/>
<path d="M550.994 138.202V92.2031H505.078C505.078 117.607 525.636 138.202 550.994 138.202Z" fill="#0AA7FF" stroke="white" stroke-miterlimit="10"/>
<path d="M550.994 138.195C525.636 138.195 505.078 158.79 505.078 184.194H550.994V138.195Z" fill="#0AA7FF" stroke="white" stroke-miterlimit="10"/>
<path d="M459.172 138.195V184.194H505.087C505.087 158.79 484.53 138.195 459.172 138.195Z" fill="#0AA7FF" stroke="white" stroke-miterlimit="10"/>
<path d="M505.087 92.2031H459.172V138.202C484.53 138.202 505.087 117.607 505.087 92.2031Z" fill="#0AA7FF" stroke="white" stroke-miterlimit="10"/>
<path d="M367.339 46.1944C341.981 46.1944 321.423 25.5996 321.423 0.195312C321.423 25.5996 300.866 46.1944 275.508 46.1944C300.866 46.1944 321.423 66.7893 321.423 92.1936C321.423 66.7893 341.981 46.1944 367.339 46.1944Z" fill="#0AA7FF" stroke="white" stroke-miterlimit="10"/>
<path d="M367.33 46.1944V0.195312H321.414C321.414 25.5996 341.971 46.1944 367.33 46.1944Z" fill="#0AA7FF" stroke="white" stroke-miterlimit="10"/>
<path d="M367.33 46.1953C341.971 46.1953 321.414 66.7901 321.414 92.1944H367.33V46.1953Z" fill="white" stroke="white" stroke-miterlimit="10"/>
<path d="M275.5 46.1953V92.1944H321.415C321.415 66.7901 300.858 46.1953 275.5 46.1953Z" fill="white" stroke="white" stroke-miterlimit="10"/>
<path d="M321.423 0.195312H275.508V46.1944C300.866 46.1944 321.423 25.5996 321.423 0.195312Z" fill="#0AA7FF" stroke="white" stroke-miterlimit="10"/>
<path d="M459.159 46.1944C433.801 46.1944 413.244 25.5996 413.244 0.195312C413.244 25.5996 392.686 46.1944 367.328 46.1944C392.686 46.1944 413.244 66.7893 413.244 92.1936C413.244 66.7893 433.801 46.1944 459.159 46.1944Z" fill="#0AA7FF" stroke="white" stroke-miterlimit="10"/>
<path d="M459.165 46.1944V0.195312H413.25C413.25 25.5996 433.807 46.1944 459.165 46.1944Z" fill="#0AA7FF" stroke="white" stroke-miterlimit="10"/>
<path d="M459.165 46.1953C433.807 46.1953 413.25 66.7901 413.25 92.1944H459.165V46.1953Z" fill="#0AA7FF" stroke="white" stroke-miterlimit="10"/>
<path d="M367.328 46.1953V92.1944H413.244C413.244 66.7901 392.686 46.1953 367.328 46.1953Z" fill="white" stroke="white" stroke-miterlimit="10"/>
<path d="M413.244 0.195312H367.328V46.1944C392.686 46.1944 413.244 25.5996 413.244 0.195312Z" fill="#0AA7FF" stroke="white" stroke-miterlimit="10"/>
<path d="M551.003 46.1944C525.645 46.1944 505.087 25.5996 505.087 0.195312C505.087 25.5996 484.53 46.1944 459.172 46.1944C484.53 46.1944 505.087 66.7893 505.087 92.1936C505.087 66.7893 525.645 46.1944 551.003 46.1944Z" fill="#0AA7FF" stroke="white" stroke-miterlimit="10"/>
<path d="M550.994 46.1944V0.195312H505.078C505.078 25.5996 525.636 46.1944 550.994 46.1944Z" fill="#0AA7FF" stroke="white" stroke-miterlimit="10"/>
<path d="M550.994 46.1953C525.636 46.1953 505.078 66.7901 505.078 92.1944H550.994V46.1953Z" fill="#0AA7FF" stroke="white" stroke-miterlimit="10"/>
<path d="M459.172 46.1953V92.1944H505.087C505.087 66.7901 484.53 46.1953 459.172 46.1953Z" fill="#0AA7FF" stroke="white" stroke-miterlimit="10"/>
<path d="M505.087 0.195312H459.172V46.1944C484.53 46.1944 505.087 25.5996 505.087 0.195312Z" fill="#0AA7FF" stroke="white" stroke-miterlimit="10"/>
<path d="M367.339 230.194C341.981 230.194 321.423 209.6 321.423 184.195C321.423 209.6 300.866 230.194 275.508 230.194C300.866 230.194 321.423 250.789 321.423 276.194C321.423 250.789 341.981 230.194 367.339 230.194Z" fill="#0AA7FF" stroke="white" stroke-miterlimit="10"/>
<path d="M367.33 230.194V184.195H321.414C321.414 209.6 341.971 230.194 367.33 230.194Z" fill="#0AA7FF" stroke="white" stroke-miterlimit="10"/>
<path d="M367.33 230.195C341.971 230.195 321.414 250.79 321.414 276.194H367.33V230.195Z" fill="#0AA7FF" stroke="white" stroke-miterlimit="10"/>
<path d="M275.5 230.195V276.194H321.415C321.415 250.79 300.858 230.195 275.5 230.195Z" fill="#0AA7FF" stroke="white" stroke-miterlimit="10"/>
<path d="M321.423 184.195H275.508V230.194C300.866 230.194 321.423 209.6 321.423 184.195Z" fill="#0AA7FF" stroke="white" stroke-miterlimit="10"/>
<path d="M459.159 230.194C433.801 230.194 413.244 209.6 413.244 184.195C413.244 209.6 392.686 230.194 367.328 230.194C392.686 230.194 413.244 250.789 413.244 276.194C413.244 250.789 433.801 230.194 459.159 230.194Z" fill="#0AA7FF" stroke="white" stroke-miterlimit="10"/>
<path d="M459.165 230.194V184.195H413.25C413.25 209.6 433.807 230.194 459.165 230.194Z" fill="#0AA7FF" stroke="white" stroke-miterlimit="10"/>
<path d="M459.165 230.195C433.807 230.195 413.25 250.79 413.25 276.194H459.165V230.195Z" fill="#0AA7FF" stroke="white" stroke-miterlimit="10"/>
<path d="M367.328 230.195V276.194H413.244C413.244 250.79 392.686 230.195 367.328 230.195Z" fill="#0AA7FF" stroke="white" stroke-miterlimit="10"/>
<path d="M413.244 184.195H367.328V230.194C392.686 230.194 413.244 209.6 413.244 184.195Z" fill="#0AA7FF" stroke="white" stroke-miterlimit="10"/>
<path d="M551.003 230.194C525.645 230.194 505.087 209.6 505.087 184.195C505.087 209.6 484.53 230.194 459.172 230.194C484.53 230.194 505.087 250.789 505.087 276.194C505.087 250.789 525.645 230.194 551.003 230.194Z" fill="#0AA7FF" stroke="white" stroke-miterlimit="10"/>
<path d="M550.994 230.194V184.195H505.078C505.078 209.6 525.636 230.194 550.994 230.194Z" fill="#0AA7FF" stroke="white" stroke-miterlimit="10"/>
<path d="M550.994 230.195C525.636 230.195 505.078 250.79 505.078 276.194H550.994V230.195Z" fill="#0AA7FF" stroke="white" stroke-miterlimit="10"/>
<path d="M459.172 230.195V276.194H505.087C505.087 250.79 484.53 230.195 459.172 230.195Z" fill="#0AA7FF" stroke="white" stroke-miterlimit="10"/>
<path d="M505.087 184.195H459.172V230.194C484.53 230.194 505.087 209.6 505.087 184.195Z" fill="#0AA7FF" stroke="white" stroke-miterlimit="10"/>
<path d="M367.339 322.202C341.981 322.202 321.423 301.607 321.423 276.203C321.423 301.607 300.866 322.202 275.508 322.202C300.866 322.202 321.423 342.797 321.423 368.201C321.423 342.797 341.981 322.202 367.339 322.202Z" fill="#0AA7FF" stroke="white" stroke-miterlimit="10"/>
<path d="M367.33 322.202V276.203H321.414C321.414 301.607 341.971 322.202 367.33 322.202Z" fill="#0AA7FF" stroke="white" stroke-miterlimit="10"/>
<path d="M367.33 322.195C341.971 322.195 321.414 342.79 321.414 368.194H367.33V322.195Z" fill="#0AA7FF" stroke="white" stroke-miterlimit="10"/>
<path d="M275.5 322.195V368.194H321.415C321.415 342.79 300.858 322.195 275.5 322.195Z" fill="#0AA7FF" stroke="white" stroke-miterlimit="10"/>
<path d="M321.423 276.195H275.508V322.194C300.866 322.194 321.423 301.6 321.423 276.195Z" fill="#0AA7FF" stroke="white" stroke-miterlimit="10"/>
<path d="M459.159 322.202C433.801 322.202 413.244 301.607 413.244 276.203C413.244 301.607 392.686 322.202 367.328 322.202C392.686 322.202 413.244 342.797 413.244 368.201C413.244 342.797 433.801 322.202 459.159 322.202Z" fill="#0AA7FF" stroke="white" stroke-miterlimit="10"/>
<path d="M459.165 322.202V276.203H413.25C413.25 301.607 433.807 322.202 459.165 322.202Z" fill="#0AA7FF" stroke="white" stroke-miterlimit="10"/>
<path d="M459.165 322.195C433.807 322.195 413.25 342.79 413.25 368.194H459.165V322.195Z" fill="#0AA7FF" stroke="white" stroke-miterlimit="10"/>
<path d="M367.328 322.195V368.194H413.244C413.244 342.79 392.686 322.195 367.328 322.195Z" fill="#0AA7FF" stroke="white" stroke-miterlimit="10"/>
<path d="M413.244 276.195H367.328V322.194C392.686 322.194 413.244 301.6 413.244 276.195Z" fill="#0AA7FF" stroke="white" stroke-miterlimit="10"/>
<path d="M551.003 322.202C525.645 322.202 505.087 301.607 505.087 276.203C505.087 301.607 484.53 322.202 459.172 322.202C484.53 322.202 505.087 342.797 505.087 368.201C505.087 342.797 525.645 322.202 551.003 322.202Z" fill="#0AA7FF" stroke="white" stroke-miterlimit="10"/>
<path d="M550.994 322.202V276.203H505.078C505.078 301.607 525.636 322.202 550.994 322.202Z" fill="#0AA7FF" stroke="white" stroke-miterlimit="10"/>
<path d="M550.994 322.195C525.636 322.195 505.078 342.79 505.078 368.194H550.994V322.195Z" fill="#0AA7FF" stroke="white" stroke-miterlimit="10"/>
<path d="M459.172 322.195V368.194H505.087C505.087 342.79 484.53 322.195 459.172 322.195Z" fill="#0AA7FF" stroke="white" stroke-miterlimit="10"/>
<path d="M505.087 276.195H459.172V322.194C484.53 322.194 505.087 301.6 505.087 276.195Z" fill="#0AA7FF" stroke="white" stroke-miterlimit="10"/>
<path d="M91.8309 506.202C66.4728 506.202 45.9155 485.607 45.9155 460.203C45.9155 485.607 25.3581 506.202 0 506.202C25.3581 506.202 45.9155 526.797 45.9155 552.201C45.9155 526.797 66.4728 506.202 91.8309 506.202Z" fill="#0AA7FF" stroke="white" stroke-miterlimit="10"/>
<path d="M91.8321 506.202V460.203H45.9141C45.9141 485.607 66.4714 506.202 91.8295 506.202H91.8321Z" fill="white" stroke="white" stroke-miterlimit="10"/>
<path d="M91.8295 506.188C66.4714 506.188 45.9141 526.782 45.9141 552.187H91.8295V506.188Z" fill="white" stroke="white" stroke-miterlimit="10"/>
<path d="M0 506.188V552.187H45.9155C45.9155 526.782 25.3581 506.188 0 506.188Z" fill="#0AA7FF" stroke="white" stroke-miterlimit="10"/>
<path d="M45.9155 460.203H0V506.202C25.3581 506.202 45.9155 485.607 45.9155 460.203Z" fill="#0AA7FF" stroke="white" stroke-miterlimit="10"/>
<path d="M183.675 506.202C158.317 506.202 137.759 485.607 137.759 460.203C137.759 485.607 117.202 506.202 91.8438 506.202C117.202 506.202 137.759 526.797 137.759 552.201C137.759 526.797 158.317 506.202 183.675 506.202Z" fill="#0AA7FF" stroke="white" stroke-miterlimit="10"/>
<path d="M183.665 506.202V460.203H137.75C137.75 485.607 158.307 506.202 183.665 506.202Z" fill="#0AA7FF" stroke="white" stroke-miterlimit="10"/>
<path d="M183.665 506.188C158.307 506.188 137.75 526.782 137.75 552.187H183.665V506.188Z" fill="#0AA7FF" stroke="white" stroke-miterlimit="10"/>
<path d="M91.8438 506.188V552.187H137.759C137.759 526.782 117.202 506.188 91.8438 506.188Z" fill="white" stroke="white" stroke-miterlimit="10"/>
<path d="M137.759 460.203H91.8438V506.202C117.202 506.202 137.759 485.607 137.759 460.203Z" fill="white" stroke="white" stroke-miterlimit="10"/>
<path d="M275.495 506.202C250.137 506.202 229.58 485.607 229.58 460.203C229.58 485.607 209.022 506.202 183.664 506.202C209.022 506.202 229.58 526.797 229.58 552.201C229.58 526.797 250.137 506.202 275.495 506.202Z" fill="#0AA7FF" stroke="white" stroke-miterlimit="10"/>
<path d="M275.501 506.202V460.203H229.586C229.586 485.607 250.143 506.202 275.501 506.202Z" fill="#0AA7FF" stroke="white" stroke-miterlimit="10"/>
<path d="M275.501 506.188C250.143 506.188 229.586 526.782 229.586 552.187H275.501V506.188Z" fill="#0AA7FF" stroke="white" stroke-miterlimit="10"/>
<path d="M183.664 506.188V552.187H229.58C229.58 526.782 209.022 506.188 183.664 506.188Z" fill="#0AA7FF" stroke="white" stroke-miterlimit="10"/>
<path d="M229.58 460.203H183.664V506.202C209.022 506.202 229.58 485.607 229.58 460.203Z" fill="#0AA7FF" stroke="white" stroke-miterlimit="10"/>
<path d="M91.8309 414.194C66.4728 414.194 45.9155 393.6 45.9155 368.195C45.9155 393.6 25.3581 414.194 0 414.194C25.3581 414.194 45.9155 434.789 45.9155 460.194C45.9155 434.789 66.4728 414.194 91.8309 414.194Z" fill="#0AA7FF" stroke="white" stroke-miterlimit="10"/>
<path d="M91.8321 414.194V368.195H45.9141C45.9141 393.6 66.4714 414.194 91.8295 414.194H91.8321Z" fill="white" stroke="white" stroke-miterlimit="10"/>
<path d="M91.8295 414.195C66.4714 414.195 45.9141 434.79 45.9141 460.194H91.8295V414.195Z" fill="white" stroke="white" stroke-miterlimit="10"/>
<path d="M0 414.195V460.194H45.9155C45.9155 434.79 25.3581 414.195 0 414.195Z" fill="#0AA7FF" stroke="white" stroke-miterlimit="10"/>
<path d="M45.9155 368.195H0V414.194C25.3581 414.194 45.9155 393.6 45.9155 368.195Z" fill="#0AA7FF" stroke="white" stroke-miterlimit="10"/>
<path d="M183.665 414.195C158.307 414.195 137.75 434.79 137.75 460.194H183.665V414.195Z" fill="#0AA7FF" stroke="white" stroke-miterlimit="10"/>
<path d="M91.8438 414.195V460.194H137.759C137.759 434.79 117.202 414.195 91.8438 414.195Z" fill="white" stroke="white" stroke-miterlimit="10"/>
<path d="M137.759 368.195H91.8438V414.194C117.202 414.194 137.759 393.6 137.759 368.195Z" fill="white" stroke="white" stroke-miterlimit="10"/>
<path d="M275.495 414.194C250.137 414.194 229.58 393.6 229.58 368.195C229.58 393.6 209.022 414.194 183.664 414.194C209.022 414.194 229.58 434.789 229.58 460.194C229.58 434.789 250.137 414.194 275.495 414.194Z" fill="#0AA7FF" stroke="white" stroke-miterlimit="10"/>
<path d="M275.501 414.194V368.195H229.586C229.586 393.6 250.143 414.194 275.501 414.194Z" fill="white" stroke="white" stroke-miterlimit="10"/>
<path d="M275.501 414.195C250.143 414.195 229.586 434.79 229.586 460.194H275.501V414.195Z" fill="#0AA7FF" stroke="white" stroke-miterlimit="10"/>
<path d="M183.664 414.195V460.194H229.58C229.58 434.79 209.022 414.195 183.664 414.195Z" fill="#0AA7FF" stroke="white" stroke-miterlimit="10"/>
<path d="M91.8309 598.194C66.4728 598.194 45.9155 577.6 45.9155 552.195C45.9155 577.6 25.3581 598.194 0 598.194C25.3581 598.194 45.9155 618.789 45.9155 644.194C45.9155 618.789 66.4728 598.194 91.8309 598.194Z" fill="#0AA7FF" stroke="white" stroke-miterlimit="10"/>
<path d="M91.8321 598.194V552.195H45.9141C45.9141 577.6 66.4714 598.194 91.8295 598.194H91.8321Z" fill="white" stroke="white" stroke-miterlimit="10"/>
<path d="M91.8295 598.195C66.4714 598.195 45.9141 618.79 45.9141 644.194H91.8295V598.195Z" fill="white" stroke="white" stroke-miterlimit="10"/>
<path d="M0 598.195V644.194H45.9155C45.9155 618.79 25.3581 598.195 0 598.195Z" fill="#0AA7FF" stroke="white" stroke-miterlimit="10"/>
<path d="M45.9155 552.195H0V598.194C25.3581 598.194 45.9155 577.6 45.9155 552.195Z" fill="#0AA7FF" stroke="white" stroke-miterlimit="10"/>
<path d="M183.665 598.194V552.195H137.75C137.75 577.6 158.307 598.194 183.665 598.194Z" fill="#0AA7FF" stroke="white" stroke-miterlimit="10"/>
<path d="M183.665 598.195C158.307 598.195 137.75 618.79 137.75 644.194H183.665V598.195Z" fill="white" stroke="white" stroke-miterlimit="10"/>
<path d="M91.8438 598.195V644.194H137.759C137.759 618.79 117.202 598.195 91.8438 598.195Z" fill="white" stroke="white" stroke-miterlimit="10"/>
<path d="M137.759 552.195H91.8438V598.194C117.202 598.194 137.759 577.6 137.759 552.195Z" fill="white" stroke="white" stroke-miterlimit="10"/>
<path d="M275.495 598.194C250.137 598.194 229.58 577.6 229.58 552.195C229.58 577.6 209.022 598.194 183.664 598.194C209.022 598.194 229.58 618.789 229.58 644.194C229.58 618.789 250.137 598.194 275.495 598.194Z" fill="#0AA7FF" stroke="white" stroke-miterlimit="10"/>
<path d="M275.501 598.194V552.195H229.586C229.586 577.6 250.143 598.194 275.501 598.194Z" fill="#0AA7FF" stroke="white" stroke-miterlimit="10"/>
<path d="M275.501 598.195C250.143 598.195 229.586 618.79 229.586 644.194H275.501V598.195Z" fill="white" stroke="white" stroke-miterlimit="10"/>
<path d="M183.664 598.195V644.194H229.58C229.58 618.79 209.022 598.195 183.664 598.195Z" fill="white" stroke="white" stroke-miterlimit="10"/>
<path d="M229.58 552.195H183.664V598.194C209.022 598.194 229.58 577.6 229.58 552.195Z" fill="#0AA7FF" stroke="white" stroke-miterlimit="10"/>
<path d="M91.8309 690.194C66.4728 690.194 45.9155 669.6 45.9155 644.195C45.9155 669.6 25.3581 690.194 0 690.194C25.3581 690.194 45.9155 710.789 45.9155 736.194C45.9155 710.789 66.4728 690.194 91.8309 690.194Z" fill="#0AA7FF" stroke="white" stroke-miterlimit="10"/>
<path d="M91.8321 690.194V644.195H45.9141C45.9141 669.6 66.4714 690.194 91.8295 690.194H91.8321Z" fill="white" stroke="white" stroke-miterlimit="10"/>
<path d="M91.8295 690.195C66.4714 690.195 45.9141 710.79 45.9141 736.194H91.8295V690.195Z" fill="#0AA7FF" stroke="white" stroke-miterlimit="10"/>
<path d="M0 690.195V736.194H45.9155C45.9155 710.79 25.3581 690.195 0 690.195Z" fill="#0AA7FF" stroke="white" stroke-miterlimit="10"/>
<path d="M45.9155 644.195H0V690.194C25.3581 690.194 45.9155 669.6 45.9155 644.195Z" fill="#0AA7FF" stroke="white" stroke-miterlimit="10"/>
<path d="M183.675 690.194C158.317 690.194 137.759 669.6 137.759 644.195C137.759 669.6 117.202 690.194 91.8438 690.194C117.202 690.194 137.759 710.789 137.759 736.194C137.759 710.789 158.317 690.194 183.675 690.194Z" fill="#0AA7FF" stroke="white" stroke-miterlimit="10"/>
<path d="M183.665 690.194V644.195H137.75C137.75 669.6 158.307 690.194 183.665 690.194Z" fill="white" stroke="white" stroke-miterlimit="10"/>
<path d="M183.665 690.195C158.307 690.195 137.75 710.79 137.75 736.194H183.665V690.195Z" fill="#0AA7FF" stroke="white" stroke-miterlimit="10"/>
<path d="M91.8438 690.195V736.194H137.759C137.759 710.79 117.202 690.195 91.8438 690.195Z" fill="#0AA7FF" stroke="white" stroke-miterlimit="10"/>
<path d="M137.759 644.195H91.8438V690.194C117.202 690.194 137.759 669.6 137.759 644.195Z" fill="white" stroke="white" stroke-miterlimit="10"/>
<path d="M275.495 690.194C250.137 690.194 229.58 669.6 229.58 644.195C229.58 669.6 209.022 690.194 183.664 690.194C209.022 690.194 229.58 710.789 229.58 736.194C229.58 710.789 250.137 690.194 275.495 690.194Z" fill="#0AA7FF" stroke="white" stroke-miterlimit="10"/>
<path d="M275.501 690.194V644.195H229.586C229.586 669.6 250.143 690.194 275.501 690.194Z" fill="white" stroke="white" stroke-miterlimit="10"/>
<path d="M275.501 690.195C250.143 690.195 229.586 710.79 229.586 736.194H275.501V690.195Z" fill="#0AA7FF" stroke="white" stroke-miterlimit="10"/>
<path d="M183.664 690.195V736.194H229.58C229.58 710.79 209.022 690.195 183.664 690.195Z" fill="#0AA7FF" stroke="white" stroke-miterlimit="10"/>
<path d="M229.58 644.195H183.664V690.194C209.022 690.194 229.58 669.6 229.58 644.195Z" fill="white" stroke="white" stroke-miterlimit="10"/>
<path d="M367.339 506.202C341.981 506.202 321.423 485.607 321.423 460.203C321.423 485.607 300.866 506.202 275.508 506.202C300.866 506.202 321.423 526.797 321.423 552.201C321.423 526.797 341.981 506.202 367.339 506.202Z" fill="#0AA7FF" stroke="white" stroke-miterlimit="10"/>
<path d="M367.33 506.202V460.203H321.414C321.414 485.607 341.971 506.202 367.33 506.202Z" fill="#0AA7FF" stroke="white" stroke-miterlimit="10"/>
<path d="M367.33 506.188C341.971 506.188 321.414 526.782 321.414 552.187H367.33V506.188Z" fill="#0AA7FF" stroke="white" stroke-miterlimit="10"/>
<path d="M275.5 506.188V552.187H321.415C321.415 526.782 300.858 506.188 275.5 506.188Z" fill="#0AA7FF" stroke="white" stroke-miterlimit="10"/>
<path d="M321.423 460.203H275.508V506.202C300.866 506.202 321.423 485.607 321.423 460.203Z" fill="#0AA7FF" stroke="white" stroke-miterlimit="10"/>
<path d="M459.159 506.202C433.801 506.202 413.244 485.607 413.244 460.203C413.244 485.607 392.686 506.202 367.328 506.202C392.686 506.202 413.244 526.797 413.244 552.201C413.244 526.797 433.801 506.202 459.159 506.202Z" fill="#0AA7FF" stroke="white" stroke-miterlimit="10"/>
<path d="M459.165 506.202V460.203H413.25C413.25 485.607 433.807 506.202 459.165 506.202Z" fill="white" stroke="white" stroke-miterlimit="10"/>
<path d="M459.165 506.188C433.807 506.188 413.25 526.782 413.25 552.187H459.165V506.188Z" fill="white" stroke="white" stroke-miterlimit="10"/>
<path d="M367.328 506.188V552.187H413.244C413.244 526.782 392.686 506.188 367.328 506.188Z" fill="#0AA7FF" stroke="white" stroke-miterlimit="10"/>
<path d="M413.244 460.203H367.328V506.202C392.686 506.202 413.244 485.607 413.244 460.203Z" fill="#0AA7FF" stroke="white" stroke-miterlimit="10"/>
<path d="M551.003 506.202C525.645 506.202 505.087 485.607 505.087 460.203C505.087 485.607 484.53 506.202 459.172 506.202C484.53 506.202 505.087 526.797 505.087 552.201C505.087 526.797 525.645 506.202 551.003 506.202Z" fill="#0AA7FF" stroke="white" stroke-miterlimit="10"/>
<path d="M550.994 506.202V460.203H505.078C505.078 485.607 525.636 506.202 550.994 506.202Z" fill="#0AA7FF" stroke="white" stroke-miterlimit="10"/>
<path d="M550.994 506.188C525.636 506.188 505.078 526.782 505.078 552.187H550.994V506.188Z" fill="#0AA7FF" stroke="white" stroke-miterlimit="10"/>
<path d="M459.172 506.188V552.187H505.087C505.087 526.782 484.53 506.188 459.172 506.188Z" fill="white" stroke="white" stroke-miterlimit="10"/>
<path d="M505.087 460.203H459.172V506.202C484.53 506.202 505.087 485.607 505.087 460.203Z" fill="white" stroke="white" stroke-miterlimit="10"/>
<path d="M367.339 414.194C341.981 414.194 321.423 393.6 321.423 368.195C321.423 393.6 300.866 414.194 275.508 414.194C300.866 414.194 321.423 434.789 321.423 460.194C321.423 434.789 341.981 414.194 367.339 414.194Z" fill="#0AA7FF" stroke="white" stroke-miterlimit="10"/>
<path d="M367.33 414.194V368.195H321.414C321.414 393.6 341.971 414.194 367.33 414.194Z" fill="white" stroke="white" stroke-miterlimit="10"/>
<path d="M367.33 414.195C341.971 414.195 321.414 434.79 321.414 460.194H367.33V414.195Z" fill="#0AA7FF" stroke="white" stroke-miterlimit="10"/>
<path d="M275.5 414.195V460.194H321.415C321.415 434.79 300.858 414.195 275.5 414.195Z" fill="#0AA7FF" stroke="white" stroke-miterlimit="10"/>
<path d="M321.423 368.195H275.508V414.194C300.866 414.194 321.423 393.6 321.423 368.195Z" fill="white" stroke="white" stroke-miterlimit="10"/>
<path d="M459.159 414.194C433.801 414.194 413.244 393.6 413.244 368.195C413.244 393.6 392.686 414.194 367.328 414.194C392.686 414.194 413.244 434.789 413.244 460.194C413.244 434.789 433.801 414.194 459.159 414.194Z" fill="white" stroke="white" stroke-miterlimit="10"/>
<path d="M459.165 414.194V368.195H413.25C413.25 393.6 433.807 414.194 459.165 414.194Z" fill="#0AA7FF" stroke="white" stroke-miterlimit="10"/>
<path d="M459.165 414.195C433.807 414.195 413.25 434.79 413.25 460.194H459.165V414.195Z" fill="white" stroke="white" stroke-miterlimit="10"/>
<path d="M367.328 414.195V460.194H413.244C413.244 434.79 392.686 414.195 367.328 414.195Z" fill="#0AA7FF" stroke="white" stroke-miterlimit="10"/>
<path d="M413.244 368.195H367.328V414.194C392.686 414.194 413.244 393.6 413.244 368.195Z" fill="white" stroke="white" stroke-miterlimit="10"/>
<path d="M551.003 414.194C525.645 414.194 505.087 393.6 505.087 368.195C505.087 393.6 484.53 414.194 459.172 414.194C484.53 414.194 505.087 434.789 505.087 460.194C505.087 434.789 525.645 414.194 551.003 414.194Z" fill="#0AA7FF" stroke="white" stroke-miterlimit="10"/>
<path d="M550.994 414.194V368.195H505.078C505.078 393.6 525.636 414.194 550.994 414.194Z" fill="#0AA7FF" stroke="white" stroke-miterlimit="10"/>
<path d="M550.994 414.195C525.636 414.195 505.078 434.79 505.078 460.194H550.994V414.195Z" fill="#0AA7FF" stroke="white" stroke-miterlimit="10"/>
<path d="M459.172 414.195V460.194H505.087C505.087 434.79 484.53 414.195 459.172 414.195Z" fill="white" stroke="white" stroke-miterlimit="10"/>
<path d="M505.087 368.195H459.172V414.194C484.53 414.194 505.087 393.6 505.087 368.195Z" fill="#0AA7FF" stroke="white" stroke-miterlimit="10"/>
<path d="M367.339 598.194C341.981 598.194 321.423 577.6 321.423 552.195C321.423 577.6 300.866 598.194 275.508 598.194C300.866 598.194 321.423 618.789 321.423 644.194C321.423 618.789 341.981 598.194 367.339 598.194Z" fill="#0AA7FF" stroke="white" stroke-miterlimit="10"/>
<path d="M367.33 598.194V552.195H321.414C321.414 577.6 341.971 598.194 367.33 598.194Z" fill="#0AA7FF" stroke="white" stroke-miterlimit="10"/>
<path d="M367.33 598.195C341.971 598.195 321.414 618.79 321.414 644.194H367.33V598.195Z" fill="white" stroke="white" stroke-miterlimit="10"/>
<path d="M275.5 598.195V644.194H321.415C321.415 618.79 300.858 598.195 275.5 598.195Z" fill="white" stroke="white" stroke-miterlimit="10"/>
<path d="M321.423 552.195H275.508V598.194C300.866 598.194 321.423 577.6 321.423 552.195Z" fill="#0AA7FF" stroke="white" stroke-miterlimit="10"/>
<path d="M459.159 598.194C433.801 598.194 413.244 577.6 413.244 552.195C413.244 577.6 392.686 598.194 367.328 598.194C392.686 598.194 413.244 618.789 413.244 644.194C413.244 618.789 433.801 598.194 459.159 598.194Z" fill="white" stroke="white" stroke-miterlimit="10"/>
<path d="M459.165 598.194V552.195H413.25C413.25 577.6 433.807 598.194 459.165 598.194Z" fill="white" stroke="white" stroke-miterlimit="10"/>
<path d="M459.165 598.195C433.807 598.195 413.25 618.79 413.25 644.194H459.165V598.195Z" fill="#0AA7FF" stroke="white" stroke-miterlimit="10"/>
<path d="M367.328 598.195V644.194H413.244C413.244 618.79 392.686 598.195 367.328 598.195Z" fill="white" stroke="white" stroke-miterlimit="10"/>
<path d="M413.244 552.195H367.328V598.194C392.686 598.194 413.244 577.6 413.244 552.195Z" fill="#0AA7FF" stroke="white" stroke-miterlimit="10"/>
<path d="M551.003 598.194C525.645 598.194 505.087 577.6 505.087 552.195C505.087 577.6 484.53 598.194 459.172 598.194C484.53 598.194 505.087 618.789 505.087 644.194C505.087 618.789 525.645 598.194 551.003 598.194Z" fill="#0AA7FF" stroke="white" stroke-miterlimit="10"/>
<path d="M550.994 598.194V552.195H505.078C505.078 577.6 525.636 598.194 550.994 598.194Z" fill="#0AA7FF" stroke="white" stroke-miterlimit="10"/>
<path d="M550.994 598.195C525.636 598.195 505.078 618.79 505.078 644.194H550.994V598.195Z" fill="#0AA7FF" stroke="white" stroke-miterlimit="10"/>
<path d="M459.172 598.195V644.194H505.087C505.087 618.79 484.53 598.195 459.172 598.195Z" fill="#0AA7FF" stroke="white" stroke-miterlimit="10"/>
<path d="M505.087 552.195H459.172V598.194C484.53 598.194 505.087 577.6 505.087 552.195Z" fill="white" stroke="white" stroke-miterlimit="10"/>
<path d="M367.339 690.194C341.981 690.194 321.423 669.6 321.423 644.195C321.423 669.6 300.866 690.194 275.508 690.194C300.866 690.194 321.423 710.789 321.423 736.194C321.423 710.789 341.981 690.194 367.339 690.194Z" fill="#0AA7FF" stroke="white" stroke-miterlimit="10"/>
<path d="M367.33 690.194V644.195H321.414C321.414 669.6 341.971 690.194 367.33 690.194Z" fill="white" stroke="white" stroke-miterlimit="10"/>
<path d="M367.33 690.195C341.971 690.195 321.414 710.79 321.414 736.194H367.33V690.195Z" fill="#0AA7FF" stroke="white" stroke-miterlimit="10"/>
<path d="M275.5 690.195V736.194H321.415C321.415 710.79 300.858 690.195 275.5 690.195Z" fill="#0AA7FF" stroke="white" stroke-miterlimit="10"/>
<path d="M321.423 644.195H275.508V690.194C300.866 690.194 321.423 669.6 321.423 644.195Z" fill="white" stroke="white" stroke-miterlimit="10"/>
<path d="M459.165 690.194V644.195H413.25C413.25 669.6 433.807 690.194 459.165 690.194Z" fill="#0AA7FF" stroke="white" stroke-miterlimit="10"/>
<path d="M459.165 690.195C433.807 690.195 413.25 710.79 413.25 736.194H459.165V690.195Z" fill="#0AA7FF" stroke="white" stroke-miterlimit="10"/>
<path d="M367.328 690.195V736.194H413.244C413.244 710.79 392.686 690.195 367.328 690.195Z" fill="#0AA7FF" stroke="white" stroke-miterlimit="10"/>
<path d="M413.244 644.195H367.328V690.194C392.686 690.194 413.244 669.6 413.244 644.195Z" fill="white" stroke="white" stroke-miterlimit="10"/>
<path d="M551.003 690.194C525.645 690.194 505.087 669.6 505.087 644.195C505.087 669.6 484.53 690.194 459.172 690.194C484.53 690.194 505.087 710.789 505.087 736.194C505.087 710.789 525.645 690.194 551.003 690.194Z" fill="#0AA7FF" stroke="white" stroke-miterlimit="10"/>
<path d="M550.994 690.194V644.195H505.078C505.078 669.6 525.636 690.194 550.994 690.194Z" fill="#0AA7FF" stroke="white" stroke-miterlimit="10"/>
<path d="M550.994 690.195C525.636 690.195 505.078 710.79 505.078 736.194H550.994V690.195Z" fill="#0AA7FF" stroke="white" stroke-miterlimit="10"/>
<path d="M459.172 690.195V736.194H505.087C505.087 710.79 484.53 690.195 459.172 690.195Z" fill="#0AA7FF" stroke="white" stroke-miterlimit="10"/>
<path d="M505.087 644.195H459.172V690.194C484.53 690.194 505.087 669.6 505.087 644.195Z" fill="#0AA7FF" stroke="white" stroke-miterlimit="10"/>
<path d="M91.8309 138.202C66.4728 138.202 45.9155 117.607 45.9155 92.2031C45.9155 117.607 25.3581 138.202 0 138.202C25.3581 138.202 45.9155 158.797 45.9155 184.201C45.9155 158.797 66.4728 138.202 91.8309 138.202Z" fill="#0AA7FF" stroke="white" stroke-miterlimit="10"/>
<path d="M91.8321 138.202V92.2031H45.9141C45.9141 117.607 66.4714 138.202 91.8295 138.202H91.8321Z" fill="white" stroke="white" stroke-miterlimit="10"/>
<path d="M91.8295 138.195C66.4714 138.195 45.9141 158.79 45.9141 184.194H91.8295V138.195Z" fill="white" stroke="white" stroke-miterlimit="10"/>
<path d="M0 138.195V184.194H45.9155C45.9155 158.79 25.3581 138.195 0 138.195Z" fill="#0AA7FF" stroke="white" stroke-miterlimit="10"/>
<path d="M45.9155 92.2031H0V138.202C25.3581 138.202 45.9155 117.607 45.9155 92.2031Z" fill="#0AA7FF" stroke="white" stroke-miterlimit="10"/>
<path d="M183.665 138.202V92.2031H137.75C137.75 117.607 158.307 138.202 183.665 138.202Z" fill="white" stroke="white" stroke-miterlimit="10"/>
<path d="M183.665 138.195C158.307 138.195 137.75 158.79 137.75 184.194H183.665V138.195Z" fill="#0AA7FF" stroke="white" stroke-miterlimit="10"/>
<path d="M91.8438 138.195V184.194H137.759C137.759 158.79 117.202 138.195 91.8438 138.195Z" fill="white" stroke="white" stroke-miterlimit="10"/>
<path d="M137.759 92.2031H91.8438V138.202C117.202 138.202 137.759 117.607 137.759 92.2031Z" fill="white" stroke="white" stroke-miterlimit="10"/>
<path d="M275.495 138.202C250.137 138.202 229.58 117.607 229.58 92.2031C229.58 117.607 209.022 138.202 183.664 138.202C209.022 138.202 229.58 158.797 229.58 184.201C229.58 158.797 250.137 138.202 275.495 138.202Z" fill="#0AA7FF" stroke="white" stroke-miterlimit="10"/>
<path d="M275.501 138.202V92.2031H229.586C229.586 117.607 250.143 138.202 275.501 138.202Z" fill="white" stroke="white" stroke-miterlimit="10"/>
<path d="M275.501 138.195C250.143 138.195 229.586 158.79 229.586 184.194H275.501V138.195Z" fill="#0AA7FF" stroke="white" stroke-miterlimit="10"/>
<path d="M183.664 138.195V184.194H229.58C229.58 158.79 209.022 138.195 183.664 138.195Z" fill="#0AA7FF" stroke="white" stroke-miterlimit="10"/>
<path d="M229.58 92.2031H183.664V138.202C209.022 138.202 229.58 117.607 229.58 92.2031Z" fill="white" stroke="white" stroke-miterlimit="10"/>
<path d="M91.8309 230.194C66.4728 230.194 45.9155 209.6 45.9155 184.195C45.9155 209.6 25.3581 230.194 0 230.194C25.3581 230.194 45.9155 250.789 45.9155 276.194C45.9155 250.789 66.4728 230.194 91.8309 230.194Z" fill="#0AA7FF" stroke="white" stroke-miterlimit="10"/>
<path d="M91.8321 230.194V184.195H45.9141C45.9141 209.6 66.4714 230.194 91.8295 230.194H91.8321Z" fill="white" stroke="white" stroke-miterlimit="10"/>
<path d="M91.8295 230.195C66.4714 230.195 45.9141 250.79 45.9141 276.194H91.8295V230.195Z" fill="white" stroke="white" stroke-miterlimit="10"/>
<path d="M0 230.195V276.194H45.9155C45.9155 250.79 25.3581 230.195 0 230.195Z" fill="#0AA7FF" stroke="white" stroke-miterlimit="10"/>
<path d="M45.9155 184.195H0V230.194C25.3581 230.194 45.9155 209.6 45.9155 184.195Z" fill="#0AA7FF" stroke="white" stroke-miterlimit="10"/>
<path d="M183.675 230.194C158.317 230.194 137.759 209.6 137.759 184.195C137.759 209.6 117.202 230.194 91.8438 230.194C117.202 230.194 137.759 250.789 137.759 276.194C137.759 250.789 158.317 230.194 183.675 230.194Z" fill="#0AA7FF" stroke="white" stroke-miterlimit="10"/>
<path d="M183.665 230.194V184.195H137.75C137.75 209.6 158.307 230.194 183.665 230.194Z" fill="#0AA7FF" stroke="white" stroke-miterlimit="10"/>
<path d="M183.665 230.195C158.307 230.195 137.75 250.79 137.75 276.194H183.665V230.195Z" fill="#0AA7FF" stroke="white" stroke-miterlimit="10"/>
<path d="M91.8438 230.195V276.194H137.759C137.759 250.79 117.202 230.195 91.8438 230.195Z" fill="white" stroke="white" stroke-miterlimit="10"/>
<path d="M137.759 184.195H91.8438V230.194C117.202 230.194 137.759 209.6 137.759 184.195Z" fill="white" stroke="white" stroke-miterlimit="10"/>
<path d="M275.495 230.194C250.137 230.194 229.58 209.6 229.58 184.195C229.58 209.6 209.022 230.194 183.664 230.194C209.022 230.194 229.58 250.789 229.58 276.194C229.58 250.789 250.137 230.194 275.495 230.194Z" fill="#0AA7FF" stroke="white" stroke-miterlimit="10"/>
<path d="M275.501 230.194V184.195H229.586C229.586 209.6 250.143 230.194 275.501 230.194Z" fill="#0AA7FF" stroke="white" stroke-miterlimit="10"/>
<path d="M275.501 230.195C250.143 230.195 229.586 250.79 229.586 276.194H275.501V230.195Z" fill="#0AA7FF" stroke="white" stroke-miterlimit="10"/>
<path d="M183.664 230.195V276.194H229.58C229.58 250.79 209.022 230.195 183.664 230.195Z" fill="#0AA7FF" stroke="white" stroke-miterlimit="10"/>
<path d="M229.58 184.195H183.664V230.194C209.022 230.194 229.58 209.6 229.58 184.195Z" fill="#0AA7FF" stroke="white" stroke-miterlimit="10"/>
<path d="M91.8309 322.202C66.4728 322.202 45.9155 301.607 45.9155 276.203C45.9155 301.607 25.3581 322.202 0 322.202C25.3581 322.202 45.9155 342.797 45.9155 368.201C45.9155 342.797 66.4728 322.202 91.8309 322.202Z" fill="#0AA7FF" stroke="white" stroke-miterlimit="10"/>
<path d="M91.8321 322.202V276.203H45.9141C45.9141 301.607 66.4714 322.202 91.8295 322.202H91.8321Z" fill="white" stroke="white" stroke-miterlimit="10"/>
<path d="M91.8295 322.195C66.4714 322.195 45.9141 342.79 45.9141 368.194H91.8295V322.195Z" fill="white" stroke="white" stroke-miterlimit="10"/>
<path d="M0 322.195V368.194H45.9155C45.9155 342.79 25.3581 322.195 0 322.195Z" fill="#0AA7FF" stroke="white" stroke-miterlimit="10"/>
<path d="M45.9155 276.195H0V322.194C25.3581 322.194 45.9155 301.6 45.9155 276.195Z" fill="#0AA7FF" stroke="white" stroke-miterlimit="10"/>
<path d="M183.665 322.202V276.203H137.75C137.75 301.607 158.307 322.202 183.665 322.202Z" fill="#0AA7FF" stroke="white" stroke-miterlimit="10"/>
<path d="M91.8438 322.195V368.194H137.759C137.759 342.79 117.202 322.195 91.8438 322.195Z" fill="white" stroke="white" stroke-miterlimit="10"/>
<path d="M137.759 276.195H91.8438V322.194C117.202 322.194 137.759 301.6 137.759 276.195Z" fill="white" stroke="white" stroke-miterlimit="10"/>
<path d="M275.495 322.202C250.137 322.202 229.58 301.607 229.58 276.203C229.58 301.607 209.022 322.202 183.664 322.202C209.022 322.202 229.58 342.797 229.58 368.201C229.58 342.797 250.137 322.202 275.495 322.202Z" fill="#0AA7FF" stroke="white" stroke-miterlimit="10"/>
<path d="M275.501 322.202V276.203H229.586C229.586 301.607 250.143 322.202 275.501 322.202Z" fill="#0AA7FF" stroke="white" stroke-miterlimit="10"/>
<path d="M275.501 322.195C250.143 322.195 229.586 342.79 229.586 368.194H275.501V322.195Z" fill="white" stroke="white" stroke-miterlimit="10"/>
<path d="M229.58 276.195H183.664V322.194C209.022 322.194 229.58 301.6 229.58 276.195Z" fill="#0AA7FF" stroke="white" stroke-miterlimit="10"/>
<path d="M367.339 138.202C341.981 138.202 321.423 117.607 321.423 92.2031C321.423 117.607 300.866 138.202 275.508 138.202C300.866 138.202 321.423 158.797 321.423 184.201C321.423 158.797 341.981 138.202 367.339 138.202Z" fill="#0AA7FF" stroke="white" stroke-miterlimit="10"/>
<path d="M367.33 138.202V92.2031H321.414C321.414 117.607 341.971 138.202 367.33 138.202Z" fill="white" stroke="white" stroke-miterlimit="10"/>
<path d="M367.33 138.195C341.971 138.195 321.414 158.79 321.414 184.194H367.33V138.195Z" fill="#0AA7FF" stroke="white" stroke-miterlimit="10"/>
<path d="M275.5 138.195V184.194H321.415C321.415 158.79 300.858 138.195 275.5 138.195Z" fill="#0AA7FF" stroke="white" stroke-miterlimit="10"/>
<path d="M321.423 92.2031H275.508V138.202C300.866 138.202 321.423 117.607 321.423 92.2031Z" fill="white" stroke="white" stroke-miterlimit="10"/>
<path d="M459.159 138.202C433.801 138.202 413.244 117.607 413.244 92.2031C413.244 117.607 392.686 138.202 367.328 138.202C392.686 138.202 413.244 158.797 413.244 184.201C413.244 158.797 433.801 138.202 459.159 138.202Z" fill="white" stroke="white" stroke-miterlimit="10"/>
<path d="M459.165 138.202V92.2031H413.25C413.25 117.607 433.807 138.202 459.165 138.202Z" fill="#0AA7FF" stroke="white" stroke-miterlimit="10"/>
<path d="M459.165 138.195C433.807 138.195 413.25 158.79 413.25 184.194H459.165V138.195Z" fill="white" stroke="white" stroke-miterlimit="10"/>
<path d="M367.328 138.195V184.194H413.244C413.244 158.79 392.686 138.195 367.328 138.195Z" fill="#0AA7FF" stroke="white" stroke-miterlimit="10"/>
<path d="M413.244 92.2031H367.328V138.202C392.686 138.202 413.244 117.607 413.244 92.2031Z" fill="white" stroke="white" stroke-miterlimit="10"/>
<path d="M551.003 138.202C525.645 138.202 505.087 117.607 505.087 92.2031C505.087 117.607 484.53 138.202 459.172 138.202C484.53 138.202 505.087 158.797 505.087 184.201C505.087 158.797 525.645 138.202 551.003 138.202Z" fill="#0AA7FF" stroke="white" stroke-miterlimit="10"/>
<path d="M550.994 138.202V92.2031H505.078C505.078 117.607 525.636 138.202 550.994 138.202Z" fill="#0AA7FF" stroke="white" stroke-miterlimit="10"/>
<path d="M550.994 138.195C525.636 138.195 505.078 158.79 505.078 184.194H550.994V138.195Z" fill="#0AA7FF" stroke="white" stroke-miterlimit="10"/>
<path d="M459.172 138.195V184.194H505.087C505.087 158.79 484.53 138.195 459.172 138.195Z" fill="white" stroke="white" stroke-miterlimit="10"/>
<path d="M505.087 92.2031H459.172V138.202C484.53 138.202 505.087 117.607 505.087 92.2031Z" fill="#0AA7FF" stroke="white" stroke-miterlimit="10"/>
<path d="M367.339 230.194C341.981 230.194 321.423 209.6 321.423 184.195C321.423 209.6 300.866 230.194 275.508 230.194C300.866 230.194 321.423 250.789 321.423 276.194C321.423 250.789 341.981 230.194 367.339 230.194Z" fill="#0AA7FF" stroke="white" stroke-miterlimit="10"/>
<path d="M367.33 230.194V184.195H321.414C321.414 209.6 341.971 230.194 367.33 230.194Z" fill="#0AA7FF" stroke="white" stroke-miterlimit="10"/>
<path d="M367.33 230.195C341.971 230.195 321.414 250.79 321.414 276.194H367.33V230.195Z" fill="#0AA7FF" stroke="white" stroke-miterlimit="10"/>
<path d="M275.5 230.195V276.194H321.415C321.415 250.79 300.858 230.195 275.5 230.195Z" fill="#0AA7FF" stroke="white" stroke-miterlimit="10"/>
<path d="M321.423 184.195H275.508V230.194C300.866 230.194 321.423 209.6 321.423 184.195Z" fill="#0AA7FF" stroke="white" stroke-miterlimit="10"/>
<path d="M459.159 230.194C433.801 230.194 413.244 209.6 413.244 184.195C413.244 209.6 392.686 230.194 367.328 230.194C392.686 230.194 413.244 250.789 413.244 276.194C413.244 250.789 433.801 230.194 459.159 230.194Z" fill="#0AA7FF" stroke="white" stroke-miterlimit="10"/>
<path d="M459.165 230.194V184.195H413.25C413.25 209.6 433.807 230.194 459.165 230.194Z" fill="white" stroke="white" stroke-miterlimit="10"/>
<path d="M459.165 230.195C433.807 230.195 413.25 250.79 413.25 276.194H459.165V230.195Z" fill="white" stroke="white" stroke-miterlimit="10"/>
<path d="M367.328 230.195V276.194H413.244C413.244 250.79 392.686 230.195 367.328 230.195Z" fill="#0AA7FF" stroke="white" stroke-miterlimit="10"/>
<path d="M413.244 184.195H367.328V230.194C392.686 230.194 413.244 209.6 413.244 184.195Z" fill="#0AA7FF" stroke="white" stroke-miterlimit="10"/>
<path d="M551.003 230.194C525.645 230.194 505.087 209.6 505.087 184.195C505.087 209.6 484.53 230.194 459.172 230.194C484.53 230.194 505.087 250.789 505.087 276.194C505.087 250.789 525.645 230.194 551.003 230.194Z" fill="#0AA7FF" stroke="white" stroke-miterlimit="10"/>
<path d="M550.994 230.194V184.195H505.078C505.078 209.6 525.636 230.194 550.994 230.194Z" fill="#0AA7FF" stroke="white" stroke-miterlimit="10"/>
<path d="M550.994 230.195C525.636 230.195 505.078 250.79 505.078 276.194H550.994V230.195Z" fill="#0AA7FF" stroke="white" stroke-miterlimit="10"/>
<path d="M459.172 230.195V276.194H505.087C505.087 250.79 484.53 230.195 459.172 230.195Z" fill="white" stroke="white" stroke-miterlimit="10"/>
<path d="M505.087 184.195H459.172V230.194C484.53 230.194 505.087 209.6 505.087 184.195Z" fill="white" stroke="white" stroke-miterlimit="10"/>
<path d="M367.339 322.202C341.981 322.202 321.423 301.607 321.423 276.203C321.423 301.607 300.866 322.202 275.508 322.202C300.866 322.202 321.423 342.797 321.423 368.201C321.423 342.797 341.981 322.202 367.339 322.202Z" fill="#0AA7FF" stroke="white" stroke-miterlimit="10"/>
<path d="M367.33 322.202V276.203H321.414C321.414 301.607 341.971 322.202 367.33 322.202Z" fill="#0AA7FF" stroke="white" stroke-miterlimit="10"/>
<path d="M367.33 322.195C341.971 322.195 321.414 342.79 321.414 368.194H367.33V322.195Z" fill="white" stroke="white" stroke-miterlimit="10"/>
<path d="M275.5 322.195V368.194H321.415C321.415 342.79 300.858 322.195 275.5 322.195Z" fill="white" stroke="white" stroke-miterlimit="10"/>
<path d="M321.423 276.195H275.508V322.194C300.866 322.194 321.423 301.6 321.423 276.195Z" fill="#0AA7FF" stroke="white" stroke-miterlimit="10"/>
<path d="M459.159 322.202C433.801 322.202 413.244 301.607 413.244 276.203C413.244 301.607 392.686 322.202 367.328 322.202C392.686 322.202 413.244 342.797 413.244 368.201C413.244 342.797 433.801 322.202 459.159 322.202Z" fill="white" stroke="white" stroke-miterlimit="10"/>
<path d="M459.165 322.202V276.203H413.25C413.25 301.607 433.807 322.202 459.165 322.202Z" fill="white" stroke="white" stroke-miterlimit="10"/>
<path d="M459.165 322.195C433.807 322.195 413.25 342.79 413.25 368.194H459.165V322.195Z" fill="#0AA7FF" stroke="white" stroke-miterlimit="10"/>
<path d="M367.328 322.195V368.194H413.244C413.244 342.79 392.686 322.195 367.328 322.195Z" fill="white" stroke="white" stroke-miterlimit="10"/>
<path d="M413.244 276.195H367.328V322.194C392.686 322.194 413.244 301.6 413.244 276.195Z" fill="#0AA7FF" stroke="white" stroke-miterlimit="10"/>
<path d="M551.003 322.202C525.645 322.202 505.087 301.607 505.087 276.203C505.087 301.607 484.53 322.202 459.172 322.202C484.53 322.202 505.087 342.797 505.087 368.201C505.087 342.797 525.645 322.202 551.003 322.202Z" fill="#0AA7FF" stroke="white" stroke-miterlimit="10"/>
<path d="M550.994 322.202V276.203H505.078C505.078 301.607 525.636 322.202 550.994 322.202Z" fill="#0AA7FF" stroke="white" stroke-miterlimit="10"/>
<path d="M550.994 322.195C525.636 322.195 505.078 342.79 505.078 368.194H550.994V322.195Z" fill="#0AA7FF" stroke="white" stroke-miterlimit="10"/>
<path d="M459.172 322.195V368.194H505.087C505.087 342.79 484.53 322.195 459.172 322.195Z" fill="#0AA7FF" stroke="white" stroke-miterlimit="10"/>
<path d="M505.087 276.195H459.172V322.194C484.53 322.194 505.087 301.6 505.087 276.195Z" fill="white" stroke="white" stroke-miterlimit="10"/>
<path d="M45.7486 184.016C45.7486 209.42 66.306 230.015 91.6641 230.015C66.306 230.015 45.7486 250.61 45.7486 276.014L45.7486 184.016Z" fill="white" stroke="white" stroke-miterlimit="10"/>
<path d="M45.7486 184.016C45.7486 209.42 66.306 230.015 91.6641 230.015C66.306 230.015 45.7486 250.61 45.7486 276.014L45.7486 184.016Z" fill="white" stroke="white" stroke-miterlimit="10"/>
<path d="M45.7486 92.1953C45.7486 117.6 66.306 138.194 91.6641 138.194C66.306 138.194 45.7486 158.789 45.7486 184.194L45.7486 92.1953Z" fill="white" stroke="white" stroke-miterlimit="10"/>
<path d="M413.233 184.016C413.233 209.42 433.79 230.015 459.148 230.015C433.79 230.015 413.233 250.61 413.233 276.014L413.233 184.016Z" fill="white" stroke="white" stroke-miterlimit="10"/>
<path d="M137.665 184.016C137.665 209.42 117.108 230.015 91.75 230.015C117.108 230.015 137.665 250.61 137.665 276.014L137.665 184.016Z" fill="white" stroke="white" stroke-miterlimit="10"/>
<path d="M183.742 46.2743C209.1 46.2743 229.658 66.8692 229.658 92.2734C229.658 66.8692 250.215 46.2743 275.573 46.2743L183.742 46.2743Z" fill="white" stroke="white" stroke-miterlimit="10"/>
<path d="M183.742 598.251C209.1 598.251 229.658 618.846 229.658 644.25C229.658 618.846 250.215 598.251 275.573 598.251L183.742 598.251Z" fill="white" stroke="white" stroke-miterlimit="10"/>
<path d="M183.742 138.108C209.1 138.108 229.658 117.514 229.658 92.1094C229.658 117.514 250.215 138.108 275.573 138.108L183.742 138.108Z" fill="white" stroke="white" stroke-miterlimit="10"/>
<path d="M183.742 690.085C209.1 690.085 229.658 669.49 229.658 644.086C229.658 669.49 250.215 690.085 275.573 690.085L183.742 690.085Z" fill="white" stroke="white" stroke-miterlimit="10"/>
<path d="M275.75 598.009C301.108 598.009 321.665 618.604 321.665 644.008C321.665 618.604 342.223 598.009 367.581 598.009L275.75 598.009Z" fill="white" stroke="white" stroke-miterlimit="10"/>
<path d="M275.75 46.2743C301.108 46.2743 321.665 66.8692 321.665 92.2734C321.665 66.8692 342.223 46.2743 367.581 46.2743L275.75 46.2743Z" fill="white" stroke="white" stroke-miterlimit="10"/>
<path d="M275.492 322.017C300.85 322.017 321.408 342.611 321.408 368.016C321.408 342.611 341.965 322.017 367.323 322.017L275.492 322.017Z" fill="white" stroke="white" stroke-miterlimit="10"/>
<path d="M275.75 690.085C301.108 690.085 321.665 669.49 321.665 644.086C321.665 669.49 342.223 690.085 367.581 690.085L275.75 690.085Z" fill="white" stroke="white" stroke-miterlimit="10"/>
<path d="M275.75 138.366C301.108 138.366 321.665 117.771 321.665 92.3672C321.665 117.771 342.223 138.366 367.581 138.366L275.75 138.366Z" fill="white" stroke="white" stroke-miterlimit="10"/>
<path d="M275.492 414.343C300.85 414.343 321.408 393.748 321.408 368.344C321.408 393.748 341.965 414.343 367.323 414.343L275.492 414.343Z" fill="white" stroke="white" stroke-miterlimit="10"/>
<path d="M45.7486 460.516C45.7486 485.92 66.306 506.515 91.6641 506.515C66.306 506.515 45.7486 527.11 45.7486 552.514L45.7486 460.516Z" fill="white" stroke="white" stroke-miterlimit="10"/>
<path d="M45.7486 552.43C45.7486 577.834 66.306 598.429 91.6641 598.429C66.306 598.429 45.7486 619.024 45.7486 644.428L45.7486 552.43Z" fill="white" stroke="white" stroke-miterlimit="10"/>
<path d="M413.233 460.516C413.233 485.92 433.79 506.515 459.148 506.515C433.79 506.515 413.233 527.11 413.233 552.514L413.233 460.516Z" fill="white" stroke="white" stroke-miterlimit="10"/>
<path d="M137.665 460.516C137.665 485.92 117.108 506.515 91.75 506.515C117.108 506.515 137.665 527.11 137.665 552.514L137.665 460.516Z" fill="white" stroke="white" stroke-miterlimit="10"/>
<path d="M137.915 552.195C137.915 577.6 117.358 598.194 92 598.194C117.358 598.194 137.915 618.789 137.915 644.194L137.915 552.195Z" fill="white" stroke="white" stroke-miterlimit="10"/>
<path d="M137.915 92.1953C137.915 117.6 117.358 138.194 92 138.194C117.358 138.194 137.915 158.789 137.915 184.194L137.915 92.1953Z" fill="white" stroke="white" stroke-miterlimit="10"/>
<path d="M504.884 460.516C504.884 485.92 484.327 506.515 458.969 506.515C484.327 506.515 504.884 527.11 504.884 552.514L504.884 460.516Z" fill="white" stroke="white" stroke-miterlimit="10"/>
<path d="M504.884 184.273C504.884 209.678 484.327 230.273 458.969 230.273C484.327 230.273 504.884 250.867 504.884 276.272L504.884 184.273Z" fill="white" stroke="white" stroke-miterlimit="10"/>
<path d="M367.234 690.085C392.592 690.085 413.15 669.49 413.15 644.086C413.15 669.49 433.707 690.085 459.065 690.085L367.234 690.085Z" fill="#0AA7FF" stroke="white" stroke-miterlimit="10"/>
<path d="M459.159 690.194C433.801 690.194 413.244 669.6 413.244 644.195C413.244 669.6 392.686 690.194 367.328 690.194C392.686 690.194 413.244 710.789 413.244 736.194C413.244 710.789 433.801 690.194 459.159 690.194Z" fill="#0AA7FF" stroke="white" stroke-miterlimit="10"/>
</g>
<rect x="0.5" y="0.695312" width="550.003" height="734.999" stroke="#121212"/>
<defs>
<clipPath id="clip0_4226_14270">
<rect y="0.195312" width="551.003" height="735.999" fill="white"/>
</clipPath>
</defs>
</svg>
