<svg width="269" height="52" viewBox="0 0 269 52" fill="none" xmlns="http://www.w3.org/2000/svg">
<path d="M13.672 9.79531C11.88 9.79531 10.472 11.2673 10.472 12.9953C10.472 14.7873 11.88 16.1953 13.672 16.1953C11.88 16.1953 10.472 17.6673 10.472 19.3953C10.472 21.1873 11.88 22.5953 13.672 22.5953C15.4 22.5953 16.872 21.1873 16.872 19.3953C16.872 21.1873 18.28 22.5953 20.072 22.5953C21.8 22.5953 23.272 21.1873 23.272 19.3953C23.272 21.1873 24.68 22.5953 26.472 22.5953C28.2 22.5953 29.672 21.1873 29.672 19.3953C29.672 21.1873 31.08 22.5953 32.872 22.5953C34.6 22.5953 36.072 21.1873 36.072 19.3953C36.072 21.1873 37.48 22.5953 39.272 22.5953C37.48 22.5953 36.072 24.0673 36.072 25.7953C36.072 27.5873 37.48 28.9953 39.272 28.9953C37.48 28.9953 36.072 30.4673 36.072 32.1953C36.072 30.4673 34.6 28.9953 32.872 28.9953C31.08 28.9953 29.672 30.4673 29.672 32.1953C29.672 30.4673 28.2 28.9953 26.472 28.9953C24.68 28.9953 23.272 30.4673 23.272 32.1953C23.272 30.4673 21.8 28.9953 20.072 28.9953C18.28 28.9953 16.872 30.4673 16.872 32.1953C16.872 30.4673 15.4 28.9953 13.672 28.9953C11.88 28.9953 10.472 30.4673 10.472 32.1953C10.472 33.9873 11.88 35.3953 13.672 35.3953C11.88 35.3953 10.472 36.8673 10.472 38.5953C10.472 40.3873 11.88 41.7953 13.672 41.7953C15.4 41.7953 16.872 40.3873 16.872 38.5953C16.872 40.3873 18.28 41.7953 20.072 41.7953C21.8 41.7953 23.272 40.3873 23.272 38.5953C23.272 40.3873 24.68 41.7953 26.472 41.7953C28.2 41.7953 29.672 40.3873 29.672 38.5953C29.672 40.3873 31.08 41.7953 32.872 41.7953C34.6 41.7953 36.072 40.3873 36.072 38.5953C36.072 40.3873 37.48 41.7953 39.272 41.7953C37.48 41.7953 36.072 43.2673 36.072 44.9953C36.072 46.7873 37.48 48.1953 39.272 48.1953C37.48 48.1953 36.072 49.6673 36.072 51.3953C36.072 49.6673 34.6 48.1953 32.872 48.1953C31.08 48.1953 29.672 49.6673 29.672 51.3953C29.672 49.6673 28.2 48.1953 26.472 48.1953C24.68 48.1953 23.272 49.6673 23.272 51.3953C23.272 49.6673 21.8 48.1953 20.072 48.1953C18.28 48.1953 16.872 49.6673 16.872 51.3953C16.872 49.6673 15.4 48.1953 13.672 48.1953C11.88 48.1953 10.472 49.6673 10.472 51.3953C10.472 49.6673 9 48.1953 7.272 48.1953C9 48.1953 10.472 46.7873 10.472 44.9953C10.472 43.2673 9 41.7953 7.272 41.7953C5.48 41.7953 4.072 43.2673 4.072 44.9953C4.072 43.2673 2.6 41.7953 0.872 41.7953C2.6 41.7953 4.072 40.3873 4.072 38.5953C4.072 36.8673 2.6 35.3953 0.872 35.3953C2.6 35.3953 4.072 33.9873 4.072 32.1953C4.072 30.4673 2.6 28.9953 0.872 28.9953C2.6 28.9953 4.072 27.5873 4.072 25.7953C4.072 24.0673 2.6 22.5953 0.872 22.5953C2.6 22.5953 4.072 21.1873 4.072 19.3953C4.072 17.6673 2.6 16.1953 0.872 16.1953C2.6 16.1953 4.072 14.7873 4.072 12.9953C4.072 11.2673 2.6 9.79531 0.872 9.79531C2.6 9.79531 4.072 8.38731 4.072 6.59531C4.072 8.38731 5.48 9.79531 7.272 9.79531C9 9.79531 10.472 8.38731 10.472 6.59531C10.472 4.86731 9 3.39531 7.272 3.39531C9 3.39531 10.472 1.98731 10.472 0.195309C10.472 1.98731 11.88 3.39531 13.672 3.39531C15.4 3.39531 16.872 1.98731 16.872 0.195309C16.872 1.98731 18.28 3.39531 20.072 3.39531C21.8 3.39531 23.272 1.98731 23.272 0.195309C23.272 1.98731 24.68 3.39531 26.472 3.39531C28.2 3.39531 29.672 1.98731 29.672 0.195309C29.672 1.98731 31.08 3.39531 32.872 3.39531C34.6 3.39531 36.072 1.98731 36.072 0.195309C36.072 1.98731 37.48 3.39531 39.272 3.39531C37.48 3.39531 36.072 4.86731 36.072 6.59531C36.072 8.38731 37.48 9.79531 39.272 9.79531C37.48 9.79531 36.072 11.2673 36.072 12.9953C36.072 11.2673 34.6 9.79531 32.872 9.79531C31.08 9.79531 29.672 11.2673 29.672 12.9953C29.672 11.2673 28.2 9.79531 26.472 9.79531C24.68 9.79531 23.272 11.2673 23.272 12.9953C23.272 11.2673 21.8 9.79531 20.072 9.79531C18.28 9.79531 16.872 11.2673 16.872 12.9953C16.872 11.2673 15.4 9.79531 13.672 9.79531ZM45.4595 35.3953C43.6675 35.3953 42.2595 36.8673 42.2595 38.5953C42.2595 36.8673 40.7875 35.3953 39.0595 35.3953C40.7875 35.3953 42.2595 33.9873 42.2595 32.1953C42.2595 33.9873 43.6675 35.3953 45.4595 35.3953ZM48.6595 32.1953C48.6595 33.9873 50.0675 35.3953 51.8595 35.3953C50.0675 35.3953 48.6595 36.8673 48.6595 38.5953C48.6595 36.8673 47.1875 35.3953 45.4595 35.3953C47.1875 35.3953 48.6595 33.9873 48.6595 32.1953ZM55.0595 32.1953C55.0595 33.9873 56.4675 35.3953 58.2595 35.3953C56.4675 35.3953 55.0595 36.8673 55.0595 38.5953C55.0595 36.8673 53.5875 35.3953 51.8595 35.3953C53.5875 35.3953 55.0595 33.9873 55.0595 32.1953ZM51.8595 28.9953C50.0675 28.9953 48.6595 30.4673 48.6595 32.1953C48.6595 30.4673 47.1875 28.9953 45.4595 28.9953C47.1875 28.9953 48.6595 27.5873 48.6595 25.7953C48.6595 27.5873 50.0675 28.9953 51.8595 28.9953ZM55.0595 25.7953C55.0595 27.5873 56.4675 28.9953 58.2595 28.9953C56.4675 28.9953 55.0595 30.4673 55.0595 32.1953C55.0595 30.4673 53.5875 28.9953 51.8595 28.9953C53.5875 28.9953 55.0595 27.5873 55.0595 25.7953ZM45.4595 41.7953C43.6675 41.7953 42.2595 43.2673 42.2595 44.9953C42.2595 43.2673 40.7875 41.7953 39.0595 41.7953C40.7875 41.7953 42.2595 40.3873 42.2595 38.5953C42.2595 40.3873 43.6675 41.7953 45.4595 41.7953ZM45.4595 41.7953C47.1875 41.7953 48.6595 40.3873 48.6595 38.5953C48.6595 40.3873 50.0675 41.7953 51.8595 41.7953C50.0675 41.7953 48.6595 43.2673 48.6595 44.9953C48.6595 43.2673 47.1875 41.7953 45.4595 41.7953ZM42.2595 44.9953C42.2595 46.7873 43.6675 48.1953 45.4595 48.1953C43.6675 48.1953 42.2595 49.6673 42.2595 51.3953C42.2595 49.6673 40.7875 48.1953 39.0595 48.1953C40.7875 48.1953 42.2595 46.7873 42.2595 44.9953ZM45.4595 48.1953C47.1875 48.1953 48.6595 46.7873 48.6595 44.9953C48.6595 46.7873 50.0675 48.1953 51.8595 48.1953C50.0675 48.1953 48.6595 49.6673 48.6595 51.3953C48.6595 49.6673 47.1875 48.1953 45.4595 48.1953ZM61.4595 32.1953C61.4595 33.9873 62.8675 35.3953 64.6595 35.3953C62.8675 35.3953 61.4595 36.8673 61.4595 38.5953C61.4595 36.8673 59.9875 35.3953 58.2595 35.3953C59.9875 35.3953 61.4595 33.9873 61.4595 32.1953ZM64.6595 35.3953C66.3875 35.3953 67.8595 33.9873 67.8595 32.1953C67.8595 33.9873 69.2675 35.3953 71.0595 35.3953C69.2675 35.3953 67.8595 36.8673 67.8595 38.5953C67.8595 36.8673 66.3875 35.3953 64.6595 35.3953ZM74.2595 38.5953C74.2595 36.8673 72.7875 35.3953 71.0595 35.3953C72.7875 35.3953 74.2595 33.9873 74.2595 32.1953C74.2595 33.9873 75.6675 35.3953 77.4595 35.3953C75.6675 35.3953 74.2595 36.8673 74.2595 38.5953ZM58.2595 28.9953C59.9875 28.9953 61.4595 27.5873 61.4595 25.7953C61.4595 27.5873 62.8675 28.9953 64.6595 28.9953C62.8675 28.9953 61.4595 30.4673 61.4595 32.1953C61.4595 30.4673 59.9875 28.9953 58.2595 28.9953ZM64.6595 28.9953C66.3875 28.9953 67.8595 27.5873 67.8595 25.7953C67.8595 27.5873 69.2675 28.9953 71.0595 28.9953C69.2675 28.9953 67.8595 30.4673 67.8595 32.1953C67.8595 30.4673 66.3875 28.9953 64.6595 28.9953ZM71.0595 41.7953C69.2675 41.7953 67.8595 43.2673 67.8595 44.9953C67.8595 43.2673 66.3875 41.7953 64.6595 41.7953C66.3875 41.7953 67.8595 40.3873 67.8595 38.5953C67.8595 40.3873 69.2675 41.7953 71.0595 41.7953ZM71.0595 41.7953C72.7875 41.7953 74.2595 40.3873 74.2595 38.5953C74.2595 40.3873 75.6675 41.7953 77.4595 41.7953C75.6675 41.7953 74.2595 43.2673 74.2595 44.9953C74.2595 43.2673 72.7875 41.7953 71.0595 41.7953ZM67.8595 44.9953C67.8595 46.7873 69.2675 48.1953 71.0595 48.1953C69.2675 48.1953 67.8595 49.6673 67.8595 51.3953C67.8595 49.6673 66.3875 48.1953 64.6595 48.1953C66.3875 48.1953 67.8595 46.7873 67.8595 44.9953ZM71.0595 48.1953C72.7875 48.1953 74.2595 46.7873 74.2595 44.9953C74.2595 46.7873 75.6675 48.1953 77.4595 48.1953C75.6675 48.1953 74.2595 49.6673 74.2595 51.3953C74.2595 49.6673 72.7875 48.1953 71.0595 48.1953ZM45.4595 9.79531C43.6675 9.79531 42.2595 11.2673 42.2595 12.9953C42.2595 11.2673 40.7875 9.79531 39.0595 9.79531C40.7875 9.79531 42.2595 8.38731 42.2595 6.59531C42.2595 8.38731 43.6675 9.79531 45.4595 9.79531ZM45.4595 9.79531C47.1875 9.79531 48.6595 8.38731 48.6595 6.59531C48.6595 8.38731 50.0675 9.79531 51.8595 9.79531C50.0675 9.79531 48.6595 11.2673 48.6595 12.9953C48.6595 11.2673 47.1875 9.79531 45.4595 9.79531ZM45.4595 3.39531C43.6675 3.39531 42.2595 4.86731 42.2595 6.59531C42.2595 4.86731 40.7875 3.39531 39.0595 3.39531C40.7875 3.39531 42.2595 1.98731 42.2595 0.195309C42.2595 1.98731 43.6675 3.39531 45.4595 3.39531ZM48.6595 6.59531C48.6595 4.86731 47.1875 3.39531 45.4595 3.39531C47.1875 3.39531 48.6595 1.98731 48.6595 0.195309C48.6595 1.98731 50.0675 3.39531 51.8595 3.39531C50.0675 3.39531 48.6595 4.86731 48.6595 6.59531ZM42.2595 12.9953C42.2595 14.7873 43.6675 16.1953 45.4595 16.1953C43.6675 16.1953 42.2595 17.6673 42.2595 19.3953C42.2595 17.6673 40.7875 16.1953 39.0595 16.1953C40.7875 16.1953 42.2595 14.7873 42.2595 12.9953ZM51.8595 16.1953C50.0675 16.1953 48.6595 17.6673 48.6595 19.3953C48.6595 17.6673 47.1875 16.1953 45.4595 16.1953C47.1875 16.1953 48.6595 14.7873 48.6595 12.9953C48.6595 14.7873 50.0675 16.1953 51.8595 16.1953ZM55.0595 19.3953C55.0595 17.6673 53.5875 16.1953 51.8595 16.1953C53.5875 16.1953 55.0595 14.7873 55.0595 12.9953C55.0595 14.7873 56.4675 16.1953 58.2595 16.1953C56.4675 16.1953 55.0595 17.6673 55.0595 19.3953ZM51.8595 22.5953C50.0675 22.5953 48.6595 24.0673 48.6595 25.7953C48.6595 24.0673 47.1875 22.5953 45.4595 22.5953C47.1875 22.5953 48.6595 21.1873 48.6595 19.3953C48.6595 21.1873 50.0675 22.5953 51.8595 22.5953ZM58.2595 22.5953C56.4675 22.5953 55.0595 24.0673 55.0595 25.7953C55.0595 24.0673 53.5875 22.5953 51.8595 22.5953C53.5875 22.5953 55.0595 21.1873 55.0595 19.3953C55.0595 21.1873 56.4675 22.5953 58.2595 22.5953ZM71.0595 9.79531C69.2675 9.79531 67.8595 11.2673 67.8595 12.9953C67.8595 11.2673 66.3875 9.79531 64.6595 9.79531C66.3875 9.79531 67.8595 8.38731 67.8595 6.59531C67.8595 8.38731 69.2675 9.79531 71.0595 9.79531ZM77.4595 9.79531C75.6675 9.79531 74.2595 11.2673 74.2595 12.9953C74.2595 11.2673 72.7875 9.79531 71.0595 9.79531C72.7875 9.79531 74.2595 8.38731 74.2595 6.59531C74.2595 8.38731 75.6675 9.79531 77.4595 9.79531ZM71.0595 3.39531C69.2675 3.39531 67.8595 4.86731 67.8595 6.59531C67.8595 4.86731 66.3875 3.39531 64.6595 3.39531C66.3875 3.39531 67.8595 1.98731 67.8595 0.195309C67.8595 1.98731 69.2675 3.39531 71.0595 3.39531ZM74.2595 6.59531C74.2595 4.86731 72.7875 3.39531 71.0595 3.39531C72.7875 3.39531 74.2595 1.98731 74.2595 0.195309C74.2595 1.98731 75.6675 3.39531 77.4595 3.39531C75.6675 3.39531 74.2595 4.86731 74.2595 6.59531ZM61.4595 19.3953C61.4595 17.6673 59.9875 16.1953 58.2595 16.1953C59.9875 16.1953 61.4595 14.7873 61.4595 12.9953C61.4595 14.7873 62.8675 16.1953 64.6595 16.1953C62.8675 16.1953 61.4595 17.6673 61.4595 19.3953ZM67.8595 12.9953C67.8595 14.7873 69.2675 16.1953 71.0595 16.1953C69.2675 16.1953 67.8595 17.6673 67.8595 19.3953C67.8595 17.6673 66.3875 16.1953 64.6595 16.1953C66.3875 16.1953 67.8595 14.7873 67.8595 12.9953ZM71.0595 16.1953C72.7875 16.1953 74.2595 14.7873 74.2595 12.9953C74.2595 14.7873 75.6675 16.1953 77.4595 16.1953C75.6675 16.1953 74.2595 17.6673 74.2595 19.3953C74.2595 17.6673 72.7875 16.1953 71.0595 16.1953ZM58.2595 22.5953C59.9875 22.5953 61.4595 21.1873 61.4595 19.3953C61.4595 21.1873 62.8675 22.5953 64.6595 22.5953C62.8675 22.5953 61.4595 24.0673 61.4595 25.7953C61.4595 24.0673 59.9875 22.5953 58.2595 22.5953ZM64.6595 22.5953C66.3875 22.5953 67.8595 21.1873 67.8595 19.3953C67.8595 21.1873 69.2675 22.5953 71.0595 22.5953C69.2675 22.5953 67.8595 24.0673 67.8595 25.7953C67.8595 24.0673 66.3875 22.5953 64.6595 22.5953ZM115.585 16.1953C113.793 16.1953 112.385 17.6673 112.385 19.3953C112.385 21.1873 113.793 22.5953 115.585 22.5953C113.793 22.5953 112.385 24.0673 112.385 25.7953C112.385 24.0673 110.913 22.5953 109.185 22.5953C107.393 22.5953 105.985 24.0673 105.985 25.7953C105.985 27.5873 107.393 28.9953 109.185 28.9953C107.393 28.9953 105.985 30.4673 105.985 32.1953C105.985 30.4673 104.513 28.9953 102.785 28.9953C100.993 28.9953 99.5845 30.4673 99.5845 32.1953C99.5845 30.4673 98.1125 28.9953 96.3845 28.9953C94.5925 28.9953 93.1845 30.4673 93.1845 32.1953C93.1845 30.4673 91.7125 28.9953 89.9845 28.9953C88.1925 28.9953 86.7845 30.4673 86.7845 32.1953C86.7845 33.9873 88.1925 35.3953 89.9845 35.3953C88.1925 35.3953 86.7845 36.8673 86.7845 38.5953C86.7845 40.3873 88.1925 41.7953 89.9845 41.7953C88.1925 41.7953 86.7845 43.2673 86.7845 44.9953C86.7845 46.7873 88.1925 48.1953 89.9845 48.1953C88.1925 48.1953 86.7845 49.6673 86.7845 51.3953C86.7845 49.6673 85.3125 48.1953 83.5845 48.1953C81.7925 48.1953 80.3845 49.6673 80.3845 51.3953C80.3845 49.6673 78.9125 48.1953 77.1845 48.1953C78.9125 48.1953 80.3845 46.7873 80.3845 44.9953C80.3845 43.2673 78.9125 41.7953 77.1845 41.7953C78.9125 41.7953 80.3845 40.3873 80.3845 38.5953C80.3845 36.8673 78.9125 35.3953 77.1845 35.3953C78.9125 35.3953 80.3845 33.9873 80.3845 32.1953C80.3845 30.4673 78.9125 28.9953 77.1845 28.9953C78.9125 28.9953 80.3845 27.5873 80.3845 25.7953C80.3845 24.0673 78.9125 22.5953 77.1845 22.5953C78.9125 22.5953 80.3845 21.1873 80.3845 19.3953C80.3845 17.6673 78.9125 16.1953 77.1845 16.1953C78.9125 16.1953 80.3845 14.7873 80.3845 12.9953C80.3845 11.2673 78.9125 9.79531 77.1845 9.79531C78.9125 9.79531 80.3845 8.38731 80.3845 6.59531C80.3845 8.38731 81.7925 9.79531 83.5845 9.79531C85.3125 9.79531 86.7845 8.38731 86.7845 6.59531C86.7845 4.86731 85.3125 3.39531 83.5845 3.39531C85.3125 3.39531 86.7845 1.98731 86.7845 0.195309C86.7845 1.98731 88.1925 3.39531 89.9845 3.39531C91.7125 3.39531 93.1845 1.98731 93.1845 0.195309C93.1845 1.98731 94.5925 3.39531 96.3845 3.39531C98.1125 3.39531 99.5845 1.98731 99.5845 0.195309C99.5845 1.98731 100.993 3.39531 102.785 3.39531C104.513 3.39531 105.985 1.98731 105.985 0.195309C105.985 1.98731 107.393 3.39531 109.185 3.39531C107.393 3.39531 105.985 4.86731 105.985 6.59531C105.985 8.38731 107.393 9.79531 109.185 9.79531C110.913 9.79531 112.385 8.38731 112.385 6.59531C112.385 8.38731 113.793 9.79531 115.585 9.79531C113.793 9.79531 112.385 11.2673 112.385 12.9953C112.385 14.7873 113.793 16.1953 115.585 16.1953ZM102.785 22.5953C104.513 22.5953 105.985 21.1873 105.985 19.3953C105.985 17.6673 104.513 16.1953 102.785 16.1953C104.513 16.1953 105.985 14.7873 105.985 12.9953C105.985 11.2673 104.513 9.79531 102.785 9.79531C100.993 9.79531 99.5845 11.2673 99.5845 12.9953C99.5845 11.2673 98.1125 9.79531 96.3845 9.79531C94.5925 9.79531 93.1845 11.2673 93.1845 12.9953C93.1845 11.2673 91.7125 9.79531 89.9845 9.79531C88.1925 9.79531 86.7845 11.2673 86.7845 12.9953C86.7845 14.7873 88.1925 16.1953 89.9845 16.1953C88.1925 16.1953 86.7845 17.6673 86.7845 19.3953C86.7845 21.1873 88.1925 22.5953 89.9845 22.5953C91.7125 22.5953 93.1845 21.1873 93.1845 19.3953C93.1845 21.1873 94.5925 22.5953 96.3845 22.5953C98.1125 22.5953 99.5845 21.1873 99.5845 19.3953C99.5845 21.1873 100.993 22.5953 102.785 22.5953ZM131.372 38.5953C131.372 40.3873 132.78 41.7953 134.572 41.7953V48.1953C132.78 48.1953 131.372 49.6673 131.372 51.3953C131.372 49.6673 129.9 48.1953 128.172 48.1953C126.38 48.1953 124.972 49.6673 124.972 51.3953C124.972 49.6673 123.5 48.1953 121.772 48.1953C123.5 48.1953 124.972 46.7873 124.972 44.9953C124.972 43.2673 123.5 41.7953 121.772 41.7953C119.98 41.7953 118.572 43.2673 118.572 44.9953C118.572 43.2673 117.1 41.7953 115.372 41.7953C117.1 41.7953 118.572 40.3873 118.572 38.5953C118.572 36.8673 117.1 35.3953 115.372 35.3953C117.1 35.3953 118.572 33.9873 118.572 32.1953C118.572 30.4673 117.1 28.9953 115.372 28.9953C117.1 28.9953 118.572 27.5873 118.572 25.7953C118.572 24.0673 117.1 22.5953 115.372 22.5953C117.1 22.5953 118.572 21.1873 118.572 19.3953C118.572 17.6673 117.1 16.1953 115.372 16.1953C117.1 16.1953 118.572 14.7873 118.572 12.9953C118.572 11.2673 117.1 9.79531 115.372 9.79531C117.1 9.79531 118.572 8.38731 118.572 6.59531C118.572 4.86731 117.1 3.39531 115.372 3.39531C117.1 3.39531 118.572 1.98731 118.572 0.195309C118.572 1.98731 119.98 3.39531 121.772 3.39531C123.5 3.39531 124.972 1.98731 124.972 0.195309C124.972 1.98731 126.38 3.39531 128.172 3.39531C126.38 3.39531 124.972 4.86731 124.972 6.59531C124.972 8.38731 126.38 9.79531 128.172 9.79531C126.38 9.79531 124.972 11.2673 124.972 12.9953C124.972 14.7873 126.38 16.1953 128.172 16.1953C126.38 16.1953 124.972 17.6673 124.972 19.3953C124.972 21.1873 126.38 22.5953 128.172 22.5953C126.38 22.5953 124.972 24.0673 124.972 25.7953C124.972 27.5873 126.38 28.9953 128.172 28.9953C126.38 28.9953 124.972 30.4673 124.972 32.1953C124.972 33.9873 126.38 35.3953 128.172 35.3953C126.38 35.3953 124.972 36.8673 124.972 38.5953C124.972 40.3873 126.38 41.7953 128.172 41.7953C129.9 41.7953 131.372 40.3873 131.372 38.5953ZM150.572 44.9953C150.572 46.7873 151.98 48.1953 153.772 48.1953C151.98 48.1953 150.572 49.6673 150.572 51.3953C150.572 49.6673 149.1 48.1953 147.372 48.1953C145.58 48.1953 144.172 49.6673 144.172 51.3953C144.172 49.6673 142.7 48.1953 140.972 48.1953C139.18 48.1953 137.772 49.6673 137.772 51.3953C137.772 49.6673 136.3 48.1953 134.572 48.1953V41.7953C136.3 41.7953 137.772 40.3873 137.772 38.5953C137.772 40.3873 139.18 41.7953 140.972 41.7953C142.7 41.7953 144.172 40.3873 144.172 38.5953C144.172 40.3873 145.58 41.7953 147.372 41.7953C149.1 41.7953 150.572 40.3873 150.572 38.5953C150.572 40.3873 151.98 41.7953 153.772 41.7953C151.98 41.7953 150.572 43.2673 150.572 44.9953ZM159.96 35.3953C158.168 35.3953 156.76 36.8673 156.76 38.5953C156.76 36.8673 155.288 35.3953 153.559 35.3953C155.288 35.3953 156.76 33.9873 156.76 32.1953C156.76 33.9873 158.168 35.3953 159.96 35.3953ZM166.36 35.3953C164.568 35.3953 163.16 36.8673 163.16 38.5953C163.16 36.8673 161.688 35.3953 159.96 35.3953C161.688 35.3953 163.16 33.9873 163.16 32.1953C163.16 33.9873 164.568 35.3953 166.36 35.3953ZM159.96 28.9953C158.168 28.9953 156.76 30.4673 156.76 32.1953C156.76 30.4673 155.288 28.9953 153.559 28.9953C155.288 28.9953 156.76 27.5873 156.76 25.7953C156.76 27.5873 158.168 28.9953 159.96 28.9953ZM166.36 28.9953C164.568 28.9953 163.16 30.4673 163.16 32.1953C163.16 30.4673 161.688 28.9953 159.96 28.9953C161.688 28.9953 163.16 27.5873 163.16 25.7953C163.16 27.5873 164.568 28.9953 166.36 28.9953ZM156.76 38.5953C156.76 40.3873 158.168 41.7953 159.96 41.7953C158.168 41.7953 156.76 43.2673 156.76 44.9953C156.76 43.2673 155.288 41.7953 153.559 41.7953C155.288 41.7953 156.76 40.3873 156.76 38.5953ZM166.36 41.7953C164.568 41.7953 163.16 43.2673 163.16 44.9953C163.16 43.2673 161.688 41.7953 159.96 41.7953C161.688 41.7953 163.16 40.3873 163.16 38.5953C163.16 40.3873 164.568 41.7953 166.36 41.7953ZM169.56 38.5953C169.56 40.3873 170.968 41.7953 172.76 41.7953C170.968 41.7953 169.56 43.2673 169.56 44.9953C169.56 43.2673 168.088 41.7953 166.36 41.7953C168.088 41.7953 169.56 40.3873 169.56 38.5953ZM163.16 44.9953C163.16 46.7873 164.568 48.1953 166.36 48.1953C164.568 48.1953 163.16 49.6673 163.16 51.3953C163.16 49.6673 161.688 48.1953 159.96 48.1953C161.688 48.1953 163.16 46.7873 163.16 44.9953ZM169.56 44.9953C169.56 46.7873 170.968 48.1953 172.76 48.1953C170.968 48.1953 169.56 49.6673 169.56 51.3953C169.56 49.6673 168.088 48.1953 166.36 48.1953C168.088 48.1953 169.56 46.7873 169.56 44.9953ZM179.16 35.3953C180.888 35.3953 182.36 33.9873 182.36 32.1953C182.36 33.9873 183.768 35.3953 185.56 35.3953C183.768 35.3953 182.36 36.8673 182.36 38.5953C182.36 36.8673 180.888 35.3953 179.16 35.3953ZM185.56 35.3953C187.288 35.3953 188.76 33.9873 188.76 32.1953C188.76 33.9873 190.168 35.3953 191.96 35.3953C190.168 35.3953 188.76 36.8673 188.76 38.5953C188.76 36.8673 187.288 35.3953 185.56 35.3953ZM179.16 28.9953C180.888 28.9953 182.36 27.5873 182.36 25.7953C182.36 27.5873 183.768 28.9953 185.56 28.9953C183.768 28.9953 182.36 30.4673 182.36 32.1953C182.36 30.4673 180.888 28.9953 179.16 28.9953ZM185.56 28.9953C187.288 28.9953 188.76 27.5873 188.76 25.7953C188.76 27.5873 190.168 28.9953 191.96 28.9953C190.168 28.9953 188.76 30.4673 188.76 32.1953C188.76 30.4673 187.288 28.9953 185.56 28.9953ZM175.96 38.5953C175.96 40.3873 177.368 41.7953 179.16 41.7953C177.368 41.7953 175.96 43.2673 175.96 44.9953C175.96 43.2673 174.488 41.7953 172.76 41.7953C174.488 41.7953 175.96 40.3873 175.96 38.5953ZM182.36 38.5953C182.36 40.3873 183.768 41.7953 185.56 41.7953C183.768 41.7953 182.36 43.2673 182.36 44.9953C182.36 43.2673 180.888 41.7953 179.16 41.7953C180.888 41.7953 182.36 40.3873 182.36 38.5953ZM185.56 41.7953C187.288 41.7953 188.76 40.3873 188.76 38.5953C188.76 40.3873 190.168 41.7953 191.96 41.7953C190.168 41.7953 188.76 43.2673 188.76 44.9953C188.76 43.2673 187.288 41.7953 185.56 41.7953ZM175.96 44.9953C175.96 46.7873 177.368 48.1953 179.16 48.1953C177.368 48.1953 175.96 49.6673 175.96 51.3953C175.96 49.6673 174.488 48.1953 172.76 48.1953C174.488 48.1953 175.96 46.7873 175.96 44.9953ZM179.16 48.1953C180.888 48.1953 182.36 46.7873 182.36 44.9953C182.36 46.7873 183.768 48.1953 185.56 48.1953C183.768 48.1953 182.36 49.6673 182.36 51.3953C182.36 49.6673 180.888 48.1953 179.16 48.1953ZM159.96 9.79531C158.168 9.79531 156.76 11.2673 156.76 12.9953C156.76 11.2673 155.288 9.79531 153.559 9.79531C155.288 9.79531 156.76 8.38731 156.76 6.59531C156.76 8.38731 158.168 9.79531 159.96 9.79531ZM163.16 12.9953C163.16 11.2673 161.688 9.79531 159.96 9.79531C161.688 9.79531 163.16 8.38731 163.16 6.59531C163.16 8.38731 164.568 9.79531 166.36 9.79531C164.568 9.79531 163.16 11.2673 163.16 12.9953ZM169.56 12.9953C169.56 11.2673 168.088 9.79531 166.36 9.79531C168.088 9.79531 169.56 8.38731 169.56 6.59531C169.56 8.38731 170.968 9.79531 172.76 9.79531C170.968 9.79531 169.56 11.2673 169.56 12.9953ZM166.36 3.39531C164.568 3.39531 163.16 4.86731 163.16 6.59531C163.16 4.86731 161.688 3.39531 159.96 3.39531C161.688 3.39531 163.16 1.98731 163.16 0.195309C163.16 1.98731 164.568 3.39531 166.36 3.39531ZM169.56 6.59531C169.56 4.86731 168.088 3.39531 166.36 3.39531C168.088 3.39531 169.56 1.98731 169.56 0.195309C169.56 1.98731 170.968 3.39531 172.76 3.39531C170.968 3.39531 169.56 4.86731 169.56 6.59531ZM159.96 16.1953C158.168 16.1953 156.76 17.6673 156.76 19.3953C156.76 17.6673 155.288 16.1953 153.559 16.1953C155.288 16.1953 156.76 14.7873 156.76 12.9953C156.76 14.7873 158.168 16.1953 159.96 16.1953ZM166.36 16.1953C164.568 16.1953 163.16 17.6673 163.16 19.3953C163.16 17.6673 161.688 16.1953 159.96 16.1953C161.688 16.1953 163.16 14.7873 163.16 12.9953C163.16 14.7873 164.568 16.1953 166.36 16.1953ZM159.96 22.5953C158.168 22.5953 156.76 24.0673 156.76 25.7953C156.76 24.0673 155.288 22.5953 153.559 22.5953C155.288 22.5953 156.76 21.1873 156.76 19.3953C156.76 21.1873 158.168 22.5953 159.96 22.5953ZM166.36 22.5953C164.568 22.5953 163.16 24.0673 163.16 25.7953C163.16 24.0673 161.688 22.5953 159.96 22.5953C161.688 22.5953 163.16 21.1873 163.16 19.3953C163.16 21.1873 164.568 22.5953 166.36 22.5953ZM175.96 12.9953C175.96 11.2673 174.488 9.79531 172.76 9.79531C174.488 9.79531 175.96 8.38731 175.96 6.59531C175.96 8.38731 177.368 9.79531 179.16 9.79531C177.368 9.79531 175.96 11.2673 175.96 12.9953ZM179.16 9.79531C180.888 9.79531 182.36 8.38731 182.36 6.59531C182.36 8.38731 183.768 9.79531 185.56 9.79531C183.768 9.79531 182.36 11.2673 182.36 12.9953C182.36 11.2673 180.888 9.79531 179.16 9.79531ZM188.76 12.9953C188.76 11.2673 187.288 9.79531 185.56 9.79531C187.288 9.79531 188.76 8.38731 188.76 6.59531C188.76 8.38731 190.168 9.79531 191.96 9.79531C190.168 9.79531 188.76 11.2673 188.76 12.9953ZM175.96 6.59531C175.96 4.86731 174.488 3.39531 172.76 3.39531C174.488 3.39531 175.96 1.98731 175.96 0.195309C175.96 1.98731 177.368 3.39531 179.16 3.39531C177.368 3.39531 175.96 4.86731 175.96 6.59531ZM182.36 6.59531C182.36 4.86731 180.888 3.39531 179.16 3.39531C180.888 3.39531 182.36 1.98731 182.36 0.195309C182.36 1.98731 183.768 3.39531 185.56 3.39531C183.768 3.39531 182.36 4.86731 182.36 6.59531ZM182.36 12.9953C182.36 14.7873 183.768 16.1953 185.56 16.1953C183.768 16.1953 182.36 17.6673 182.36 19.3953C182.36 17.6673 180.888 16.1953 179.16 16.1953C180.888 16.1953 182.36 14.7873 182.36 12.9953ZM191.96 16.1953C190.168 16.1953 188.76 17.6673 188.76 19.3953C188.76 17.6673 187.288 16.1953 185.56 16.1953C187.288 16.1953 188.76 14.7873 188.76 12.9953C188.76 14.7873 190.168 16.1953 191.96 16.1953ZM179.16 22.5953C180.888 22.5953 182.36 21.1873 182.36 19.3953C182.36 21.1873 183.768 22.5953 185.56 22.5953C183.768 22.5953 182.36 24.0673 182.36 25.7953C182.36 24.0673 180.888 22.5953 179.16 22.5953ZM185.56 22.5953C187.288 22.5953 188.76 21.1873 188.76 19.3953C188.76 21.1873 190.168 22.5953 191.96 22.5953C190.168 22.5953 188.76 24.0673 188.76 25.7953C188.76 24.0673 187.288 22.5953 185.56 22.5953ZM230.085 16.1953C228.293 16.1953 226.885 17.6673 226.885 19.3953C226.885 21.1873 228.293 22.5953 230.085 22.5953C228.293 22.5953 226.885 24.0673 226.885 25.7953C226.885 27.5873 228.293 28.9953 230.085 28.9953C228.293 28.9953 226.885 30.4673 226.885 32.1953C226.885 33.9873 228.293 35.3953 230.085 35.3953C228.293 35.3953 226.885 36.8673 226.885 38.5953C226.885 40.3873 228.293 41.7953 230.085 41.7953C228.293 41.7953 226.885 43.2673 226.885 44.9953C226.885 43.2673 225.413 41.7953 223.685 41.7953C221.893 41.7953 220.485 43.2673 220.485 44.9953C220.485 46.7873 221.893 48.1953 223.685 48.1953C221.893 48.1953 220.485 49.6673 220.485 51.3953C220.485 49.6673 219.013 48.1953 217.285 48.1953C215.493 48.1953 214.085 49.6673 214.085 51.3953C214.085 49.6673 212.613 48.1953 210.885 48.1953C209.093 48.1953 207.685 49.6673 207.685 51.3953C207.685 49.6673 206.213 48.1953 204.485 48.1953C202.693 48.1953 201.285 49.6673 201.285 51.3953C201.285 49.6673 199.812 48.1953 198.085 48.1953C196.293 48.1953 194.885 49.6673 194.885 51.3953C194.885 49.6673 193.413 48.1953 191.684 48.1953C193.413 48.1953 194.885 46.7873 194.885 44.9953C194.885 43.2673 193.413 41.7953 191.684 41.7953C193.413 41.7953 194.885 40.3873 194.885 38.5953C194.885 36.8673 193.413 35.3953 191.684 35.3953C193.413 35.3953 194.885 33.9873 194.885 32.1953C194.885 30.4673 193.413 28.9953 191.684 28.9953C193.413 28.9953 194.885 27.5873 194.885 25.7953C194.885 24.0673 193.413 22.5953 191.684 22.5953C193.413 22.5953 194.885 21.1873 194.885 19.3953C194.885 17.6673 193.413 16.1953 191.684 16.1953C193.413 16.1953 194.885 14.7873 194.885 12.9953C194.885 11.2673 193.413 9.79531 191.684 9.79531C193.413 9.79531 194.885 8.38731 194.885 6.59531C194.885 4.86731 193.413 3.39531 191.684 3.39531C193.413 3.39531 194.885 1.98731 194.885 0.195309C194.885 1.98731 196.293 3.39531 198.085 3.39531C199.812 3.39531 201.285 1.98731 201.285 0.195309C201.285 1.98731 202.693 3.39531 204.485 3.39531C206.213 3.39531 207.685 1.98731 207.685 0.195309C207.685 1.98731 209.093 3.39531 210.885 3.39531C212.613 3.39531 214.085 1.98731 214.085 0.195309C214.085 1.98731 215.493 3.39531 217.285 3.39531C219.013 3.39531 220.485 1.98731 220.485 0.195309C220.485 1.98731 221.893 3.39531 223.685 3.39531C221.893 3.39531 220.485 4.86731 220.485 6.59531C220.485 8.38731 221.893 9.79531 223.685 9.79531C225.413 9.79531 226.885 8.38731 226.885 6.59531C226.885 8.38731 228.293 9.79531 230.085 9.79531C228.293 9.79531 226.885 11.2673 226.885 12.9953C226.885 14.7873 228.293 16.1953 230.085 16.1953ZM220.485 19.3953C220.485 17.6673 219.013 16.1953 217.285 16.1953C219.013 16.1953 220.485 14.7873 220.485 12.9953C220.485 11.2673 219.013 9.79531 217.285 9.79531C215.493 9.79531 214.085 11.2673 214.085 12.9953C214.085 11.2673 212.613 9.79531 210.885 9.79531C209.093 9.79531 207.685 11.2673 207.685 12.9953C207.685 11.2673 206.213 9.79531 204.485 9.79531C202.693 9.79531 201.285 11.2673 201.285 12.9953C201.285 14.7873 202.693 16.1953 204.485 16.1953C202.693 16.1953 201.285 17.6673 201.285 19.3953C201.285 21.1873 202.693 22.5953 204.485 22.5953C202.693 22.5953 201.285 24.0673 201.285 25.7953C201.285 27.5873 202.693 28.9953 204.485 28.9953C202.693 28.9953 201.285 30.4673 201.285 32.1953C201.285 33.9873 202.693 35.3953 204.485 35.3953C202.693 35.3953 201.285 36.8673 201.285 38.5953C201.285 40.3873 202.693 41.7953 204.485 41.7953C206.213 41.7953 207.685 40.3873 207.685 38.5953C207.685 40.3873 209.093 41.7953 210.885 41.7953C212.613 41.7953 214.085 40.3873 214.085 38.5953C214.085 40.3873 215.493 41.7953 217.285 41.7953C219.013 41.7953 220.485 40.3873 220.485 38.5953C220.485 36.8673 219.013 35.3953 217.285 35.3953C219.013 35.3953 220.485 33.9873 220.485 32.1953C220.485 30.4673 219.013 28.9953 217.285 28.9953C219.013 28.9953 220.485 27.5873 220.485 25.7953C220.485 24.0673 219.013 22.5953 217.285 22.5953C219.013 22.5953 220.485 21.1873 220.485 19.3953ZM236.272 35.3953C234.48 35.3953 233.072 36.8673 233.072 38.5953C233.072 36.8673 231.6 35.3953 229.872 35.3953C231.6 35.3953 233.072 33.9873 233.072 32.1953C233.072 33.9873 234.48 35.3953 236.272 35.3953ZM236.272 35.3953C238 35.3953 239.472 33.9873 239.472 32.1953C239.472 33.9873 240.88 35.3953 242.672 35.3953C240.88 35.3953 239.472 36.8673 239.472 38.5953C239.472 36.8673 238 35.3953 236.272 35.3953ZM236.272 28.9953C234.48 28.9953 233.072 30.4673 233.072 32.1953C233.072 30.4673 231.6 28.9953 229.872 28.9953C231.6 28.9953 233.072 27.5873 233.072 25.7953C233.072 27.5873 234.48 28.9953 236.272 28.9953ZM239.472 25.7953C239.472 27.5873 240.88 28.9953 242.672 28.9953C240.88 28.9953 239.472 30.4673 239.472 32.1953C239.472 30.4673 238 28.9953 236.272 28.9953C238 28.9953 239.472 27.5873 239.472 25.7953ZM245.872 25.7953C245.872 27.5873 247.28 28.9953 249.072 28.9953C247.28 28.9953 245.872 30.4673 245.872 32.1953C245.872 30.4673 244.4 28.9953 242.672 28.9953C244.4 28.9953 245.872 27.5873 245.872 25.7953ZM233.072 38.5953C233.072 40.3873 234.48 41.7953 236.272 41.7953C234.48 41.7953 233.072 43.2673 233.072 44.9953C233.072 43.2673 231.6 41.7953 229.872 41.7953C231.6 41.7953 233.072 40.3873 233.072 38.5953ZM236.272 41.7953C238 41.7953 239.472 40.3873 239.472 38.5953C239.472 40.3873 240.88 41.7953 242.672 41.7953C240.88 41.7953 239.472 43.2673 239.472 44.9953C239.472 43.2673 238 41.7953 236.272 41.7953ZM245.872 44.9953C245.872 43.2673 244.4 41.7953 242.672 41.7953C244.4 41.7953 245.872 40.3873 245.872 38.5953C245.872 40.3873 247.28 41.7953 249.072 41.7953C247.28 41.7953 245.872 43.2673 245.872 44.9953ZM239.472 44.9953C239.472 46.7873 240.88 48.1953 242.672 48.1953C240.88 48.1953 239.472 49.6673 239.472 51.3953C239.472 49.6673 238 48.1953 236.272 48.1953C238 48.1953 239.472 46.7873 239.472 44.9953ZM245.872 44.9953C245.872 46.7873 247.28 48.1953 249.072 48.1953C247.28 48.1953 245.872 49.6673 245.872 51.3953C245.872 49.6673 244.4 48.1953 242.672 48.1953C244.4 48.1953 245.872 46.7873 245.872 44.9953ZM252.272 25.7953C252.272 27.5873 253.68 28.9953 255.472 28.9953C253.68 28.9953 252.272 30.4673 252.272 32.1953C252.272 30.4673 250.8 28.9953 249.072 28.9953C250.8 28.9953 252.272 27.5873 252.272 25.7953ZM258.672 25.7953C258.672 27.5873 260.08 28.9953 261.872 28.9953C260.08 28.9953 258.672 30.4673 258.672 32.1953C258.672 30.4673 257.2 28.9953 255.472 28.9953C257.2 28.9953 258.672 27.5873 258.672 25.7953ZM252.272 44.9953C252.272 43.2673 250.8 41.7953 249.072 41.7953C250.8 41.7953 252.272 40.3873 252.272 38.5953C252.272 40.3873 253.68 41.7953 255.472 41.7953C253.68 41.7953 252.272 43.2673 252.272 44.9953ZM258.672 44.9953C258.672 43.2673 257.2 41.7953 255.472 41.7953C257.2 41.7953 258.672 40.3873 258.672 38.5953C258.672 40.3873 260.08 41.7953 261.872 41.7953C260.08 41.7953 258.672 43.2673 258.672 44.9953ZM265.072 44.9953C265.072 43.2673 263.6 41.7953 261.872 41.7953C263.6 41.7953 265.072 40.3873 265.072 38.5953C265.072 40.3873 266.48 41.7953 268.272 41.7953C266.48 41.7953 265.072 43.2673 265.072 44.9953ZM252.272 44.9953C252.272 46.7873 253.68 48.1953 255.472 48.1953C253.68 48.1953 252.272 49.6673 252.272 51.3953C252.272 49.6673 250.8 48.1953 249.072 48.1953C250.8 48.1953 252.272 46.7873 252.272 44.9953ZM258.672 44.9953C258.672 46.7873 260.08 48.1953 261.872 48.1953C260.08 48.1953 258.672 49.6673 258.672 51.3953C258.672 49.6673 257.2 48.1953 255.472 48.1953C257.2 48.1953 258.672 46.7873 258.672 44.9953ZM261.872 48.1953C263.6 48.1953 265.072 46.7873 265.072 44.9953C265.072 46.7873 266.48 48.1953 268.272 48.1953C266.48 48.1953 265.072 49.6673 265.072 51.3953C265.072 49.6673 263.6 48.1953 261.872 48.1953ZM236.272 9.79531C234.48 9.79531 233.072 11.2673 233.072 12.9953C233.072 11.2673 231.6 9.79531 229.872 9.79531C231.6 9.79531 233.072 8.38731 233.072 6.59531C233.072 8.38731 234.48 9.79531 236.272 9.79531ZM242.672 9.79531C240.88 9.79531 239.472 11.2673 239.472 12.9953C239.472 11.2673 238 9.79531 236.272 9.79531C238 9.79531 239.472 8.38731 239.472 6.59531C239.472 8.38731 240.88 9.79531 242.672 9.79531ZM245.872 6.59531C245.872 8.38731 247.28 9.79531 249.072 9.79531C247.28 9.79531 245.872 11.2673 245.872 12.9953C245.872 11.2673 244.4 9.79531 242.672 9.79531C244.4 9.79531 245.872 8.38731 245.872 6.59531ZM242.672 3.39531C240.88 3.39531 239.472 4.86731 239.472 6.59531C239.472 4.86731 238 3.39531 236.272 3.39531C238 3.39531 239.472 1.98731 239.472 0.195309C239.472 1.98731 240.88 3.39531 242.672 3.39531ZM245.872 6.59531C245.872 4.86731 244.4 3.39531 242.672 3.39531C244.4 3.39531 245.872 1.98731 245.872 0.195309C245.872 1.98731 247.28 3.39531 249.072 3.39531C247.28 3.39531 245.872 4.86731 245.872 6.59531ZM236.272 16.1953C234.48 16.1953 233.072 17.6673 233.072 19.3953C233.072 17.6673 231.6 16.1953 229.872 16.1953C231.6 16.1953 233.072 14.7873 233.072 12.9953C233.072 14.7873 234.48 16.1953 236.272 16.1953ZM236.272 16.1953C238 16.1953 239.472 14.7873 239.472 12.9953C239.472 14.7873 240.88 16.1953 242.672 16.1953C240.88 16.1953 239.472 17.6673 239.472 19.3953C239.472 17.6673 238 16.1953 236.272 16.1953ZM236.272 22.5953C234.48 22.5953 233.072 24.0673 233.072 25.7953C233.072 24.0673 231.6 22.5953 229.872 22.5953C231.6 22.5953 233.072 21.1873 233.072 19.3953C233.072 21.1873 234.48 22.5953 236.272 22.5953ZM236.272 22.5953C238 22.5953 239.472 21.1873 239.472 19.3953C239.472 21.1873 240.88 22.5953 242.672 22.5953C240.88 22.5953 239.472 24.0673 239.472 25.7953C239.472 24.0673 238 22.5953 236.272 22.5953ZM245.872 25.7953C245.872 24.0673 244.4 22.5953 242.672 22.5953C244.4 22.5953 245.872 21.1873 245.872 19.3953C245.872 21.1873 247.28 22.5953 249.072 22.5953C247.28 22.5953 245.872 24.0673 245.872 25.7953ZM252.272 6.59531C252.272 8.38731 253.68 9.79531 255.472 9.79531C253.68 9.79531 252.272 11.2673 252.272 12.9953C252.272 11.2673 250.8 9.79531 249.072 9.79531C250.8 9.79531 252.272 8.38731 252.272 6.59531ZM258.672 6.59531C258.672 8.38731 260.08 9.79531 261.872 9.79531C260.08 9.79531 258.672 11.2673 258.672 12.9953C258.672 11.2673 257.2 9.79531 255.472 9.79531C257.2 9.79531 258.672 8.38731 258.672 6.59531ZM261.872 9.79531C263.6 9.79531 265.072 8.38731 265.072 6.59531C265.072 8.38731 266.48 9.79531 268.272 9.79531C266.48 9.79531 265.072 11.2673 265.072 12.9953C265.072 11.2673 263.6 9.79531 261.872 9.79531ZM252.272 6.59531C252.272 4.86731 250.8 3.39531 249.072 3.39531C250.8 3.39531 252.272 1.98731 252.272 0.195309C252.272 1.98731 253.68 3.39531 255.472 3.39531C253.68 3.39531 252.272 4.86731 252.272 6.59531ZM258.672 6.59531C258.672 4.86731 257.2 3.39531 255.472 3.39531C257.2 3.39531 258.672 1.98731 258.672 0.195309C258.672 1.98731 260.08 3.39531 261.872 3.39531C260.08 3.39531 258.672 4.86731 258.672 6.59531ZM265.072 6.59531C265.072 4.86731 263.6 3.39531 261.872 3.39531C263.6 3.39531 265.072 1.98731 265.072 0.195309C265.072 1.98731 266.48 3.39531 268.272 3.39531C266.48 3.39531 265.072 4.86731 265.072 6.59531ZM252.272 25.7953C252.272 24.0673 250.8 22.5953 249.072 22.5953C250.8 22.5953 252.272 21.1873 252.272 19.3953C252.272 21.1873 253.68 22.5953 255.472 22.5953C253.68 22.5953 252.272 24.0673 252.272 25.7953ZM258.672 25.7953C258.672 24.0673 257.2 22.5953 255.472 22.5953C257.2 22.5953 258.672 21.1873 258.672 19.3953C258.672 21.1873 260.08 22.5953 261.872 22.5953C260.08 22.5953 258.672 24.0673 258.672 25.7953ZM261.872 28.9953C263.6 28.9953 265.072 27.5873 265.072 25.7953C265.072 27.5873 266.48 28.9953 268.272 28.9953C266.48 28.9953 265.072 30.4673 265.072 32.1953C265.072 30.4673 263.6 28.9953 261.872 28.9953ZM265.072 25.7953C265.072 24.0673 263.6 22.5953 261.872 22.5953C263.6 22.5953 265.072 21.1873 265.072 19.3953C265.072 21.1873 266.48 22.5953 268.272 22.5953C266.48 22.5953 265.072 24.0673 265.072 25.7953Z" fill="white"/>
</svg>
