<svg width="551" height="737" viewBox="0 0 551 737" fill="none" xmlns="http://www.w3.org/2000/svg">
<rect x="92" y="46.1953" width="46" height="46" fill="#FF1345"/>
<rect x="92" y="138.195" width="46" height="46" fill="#FF1345"/>
<rect x="92" y="230.195" width="46" height="46" fill="#FF1345"/>
<rect x="92" y="322.195" width="46" height="46" fill="#FF1345"/>
<rect x="92" y="414.195" width="46" height="46" fill="#FF1345"/>
<rect x="92" y="506.195" width="46" height="46" fill="#FF1345"/>
<rect x="92" y="598.195" width="46" height="46" fill="#FF1345"/>
<rect x="184" y="598.195" width="46" height="46" fill="#FF1345"/>
<rect x="276" y="598.195" width="46" height="46" fill="#FF1345"/>
<rect x="368" y="598.195" width="46" height="46" fill="#FF1345"/>
<rect x="459" y="506.195" width="46" height="46" fill="#FF1345"/>
<rect x="459" y="414.195" width="46" height="46" fill="#FF1345"/>
<rect x="459" y="138.195" width="46" height="46" fill="#FF1345"/>
<rect x="459" y="230.195" width="46" height="46" fill="#FF1345"/>
<rect x="368" y="322.195" width="46" height="46" fill="#FF1345"/>
<rect x="276" y="322.195" width="46" height="46" fill="#FF1345"/>
<rect x="46" y="92.1953" width="46" height="46" fill="#FF1345"/>
<rect x="46" y="184.195" width="46" height="46" fill="#FF1345"/>
<rect x="46" y="276.195" width="46" height="46" fill="#FF1345"/>
<rect x="46" y="368.195" width="46" height="46" fill="#FF1345"/>
<rect x="46" y="460.195" width="46" height="46" fill="#FF1345"/>
<rect x="46" y="552.195" width="46" height="46" fill="#FF1345"/>
<rect x="46" y="644.195" width="46" height="46" fill="#FF1345"/>
<rect x="138" y="644.195" width="46" height="46" fill="#FF1345"/>
<rect x="230" y="644.195" width="46" height="46" fill="#FF1345"/>
<rect x="322" y="644.195" width="46" height="46" fill="#FF1345"/>
<rect x="413" y="552.195" width="46" height="46" fill="#FF1345"/>
<rect x="413" y="460.195" width="46" height="46" fill="#FF1345"/>
<rect x="413" y="184.195" width="46" height="46" fill="#FF1345"/>
<rect x="413" y="276.195" width="46" height="46" fill="#FF1345"/>
<rect x="322" y="368.195" width="46" height="46" fill="#FF1345"/>
<rect x="230" y="368.195" width="46" height="46" fill="#FF1345"/>
<rect x="184" y="46.1953" width="46" height="46" fill="#FF1345"/>
<rect x="276" y="46.1953" width="46" height="46" fill="#FF1345"/>
<rect x="368" y="46.1953" width="46" height="46" fill="#FF1345"/>
<rect x="138" y="92.1953" width="46" height="46" fill="#FF1345"/>
<rect x="230" y="92.1953" width="46" height="46" fill="#FF1345"/>
<rect x="322" y="92.1953" width="46" height="46" fill="#FF1345"/>
</svg>
