<svg width="510" height="738" viewBox="0 0 510 738" fill="none" xmlns="http://www.w3.org/2000/svg">
<path d="M65.8295 48.1953C40.4714 48.1953 19.9141 68.7901 19.9141 94.1944H65.8295V48.1953Z" fill="#0AA7FF"/>
<path d="M157.665 48.1953C132.307 48.1953 111.75 68.7901 111.75 94.1944H157.665V48.1953Z" fill="#0AA7FF"/>
<path d="M65.8438 48.1953V94.1944H111.759C111.759 68.7901 91.2018 48.1953 65.8438 48.1953Z" fill="#0AA7FF"/>
<path d="M249.501 48.1953C224.143 48.1953 203.586 68.7901 203.586 94.1944H249.501V48.1953Z" fill="#0AA7FF"/>
<path d="M157.664 48.1953V94.1944H203.58C203.58 68.7901 183.022 48.1953 157.664 48.1953Z" fill="#0AA7FF"/>
<path d="M341.33 48.1953C315.971 48.1953 295.414 68.7901 295.414 94.1944H341.33V48.1953Z" fill="#0AA7FF"/>
<path d="M249.5 48.1953V94.1944H295.415C295.415 68.7901 274.858 48.1953 249.5 48.1953Z" fill="#0AA7FF"/>
<path d="M341.328 48.1953V94.1944H387.244C387.244 68.7901 366.686 48.1953 341.328 48.1953Z" fill="#0AA7FF"/>
<path d="M65.8321 508.202V462.203H19.9141C19.9141 487.607 40.4714 508.202 65.8295 508.202H65.8321Z" fill="#0AA7FF"/>
<path d="M65.8295 508.188C40.4714 508.188 19.9141 528.782 19.9141 554.187H65.8295V508.188Z" fill="#0AA7FF"/>
<path d="M65.8438 508.188V554.187H111.759C111.759 528.782 91.2018 508.188 65.8438 508.188Z" fill="#0AA7FF"/>
<path d="M111.759 462.203H65.8438V508.202C91.2018 508.202 111.759 487.607 111.759 462.203Z" fill="#0AA7FF"/>
<path d="M65.8321 416.194V370.195H19.9141C19.9141 395.6 40.4714 416.194 65.8295 416.194H65.8321Z" fill="#0AA7FF"/>
<path d="M65.8295 416.195C40.4714 416.195 19.9141 436.79 19.9141 462.194H65.8295V416.195Z" fill="#0AA7FF"/>
<path d="M65.8438 416.195V462.194H111.759C111.759 436.79 91.2018 416.195 65.8438 416.195Z" fill="#0AA7FF"/>
<path d="M111.759 370.195H65.8438V416.194C91.2018 416.194 111.759 395.6 111.759 370.195Z" fill="#0AA7FF"/>
<path d="M249.501 416.194V370.195H203.586C203.586 395.6 224.143 416.194 249.501 416.194Z" fill="#0AA7FF"/>
<path d="M65.8321 600.194V554.195H19.9141C19.9141 579.6 40.4714 600.194 65.8295 600.194H65.8321Z" fill="#0AA7FF"/>
<path d="M65.8295 600.195C40.4714 600.195 19.9141 620.79 19.9141 646.194H65.8295V600.195Z" fill="#0AA7FF"/>
<path d="M157.665 600.195C132.307 600.195 111.75 620.79 111.75 646.194H157.665V600.195Z" fill="#0AA7FF"/>
<path d="M65.8438 600.195V646.194H111.759C111.759 620.79 91.2018 600.195 65.8438 600.195Z" fill="#0AA7FF"/>
<path d="M111.759 554.195H65.8438V600.194C91.2018 600.194 111.759 579.6 111.759 554.195Z" fill="#0AA7FF"/>
<path d="M249.501 600.195C224.143 600.195 203.586 620.79 203.586 646.194H249.501V600.195Z" fill="#0AA7FF"/>
<path d="M157.664 600.195V646.194H203.58C203.58 620.79 183.022 600.195 157.664 600.195Z" fill="#0AA7FF"/>
<path d="M65.8321 692.194V646.195H19.9141C19.9141 671.6 40.4714 692.194 65.8295 692.194H65.8321Z" fill="#0AA7FF"/>
<path d="M157.665 692.194V646.195H111.75C111.75 671.6 132.307 692.194 157.665 692.194Z" fill="#0AA7FF"/>
<path d="M111.759 646.195H65.8438V692.194C91.2018 692.194 111.759 671.6 111.759 646.195Z" fill="#0AA7FF"/>
<path d="M249.501 692.194V646.195H203.586C203.586 671.6 224.143 692.194 249.501 692.194Z" fill="#0AA7FF"/>
<path d="M203.58 646.195H157.664V692.194C183.022 692.194 203.58 671.6 203.58 646.195Z" fill="#0AA7FF"/>
<path d="M433.165 508.202V462.203H387.25C387.25 487.607 407.807 508.202 433.165 508.202Z" fill="#0AA7FF"/>
<path d="M433.165 508.188C407.807 508.188 387.25 528.782 387.25 554.187H433.165V508.188Z" fill="#0AA7FF"/>
<path d="M433.172 508.188V554.187H479.087C479.087 528.782 458.53 508.188 433.172 508.188Z" fill="#0AA7FF"/>
<path d="M479.087 462.203H433.172V508.202C458.53 508.202 479.087 487.607 479.087 462.203Z" fill="#0AA7FF"/>
<path d="M341.33 416.194V370.195H295.414C295.414 395.6 315.971 416.194 341.33 416.194Z" fill="#0AA7FF"/>
<path d="M295.423 370.195H249.508V416.194C274.866 416.194 295.423 395.6 295.423 370.195Z" fill="#0AA7FF"/>
<path d="M433.165 416.195C407.807 416.195 387.25 436.79 387.25 462.194H433.165V416.195Z" fill="#0AA7FF"/>
<path d="M387.244 370.195H341.328V416.194C366.686 416.194 387.244 395.6 387.244 370.195Z" fill="#0AA7FF"/>
<path d="M433.172 416.195V462.194H479.087C479.087 436.79 458.53 416.195 433.172 416.195Z" fill="#0AA7FF"/>
<path d="M341.33 600.195C315.971 600.195 295.414 620.79 295.414 646.194H341.33V600.195Z" fill="#0AA7FF"/>
<path d="M249.5 600.195V646.194H295.415C295.415 620.79 274.858 600.195 249.5 600.195Z" fill="#0AA7FF"/>
<path d="M433.165 600.194V554.195H387.25C387.25 579.6 407.807 600.194 433.165 600.194Z" fill="#0AA7FF"/>
<path d="M341.328 600.195V646.194H387.244C387.244 620.79 366.686 600.195 341.328 600.195Z" fill="#0AA7FF"/>
<path d="M479.087 554.195H433.172V600.194C458.53 600.194 479.087 579.6 479.087 554.195Z" fill="#0AA7FF"/>
<path d="M341.33 692.194V646.195H295.414C295.414 671.6 315.971 692.194 341.33 692.194Z" fill="#0AA7FF"/>
<path d="M295.423 646.195H249.508V692.194C274.866 692.194 295.423 671.6 295.423 646.195Z" fill="#0AA7FF"/>
<path d="M387.244 646.195H341.328V692.194C366.686 692.194 387.244 671.6 387.244 646.195Z" fill="#0AA7FF"/>
<path d="M65.8321 140.202V94.2031H19.9141C19.9141 119.607 40.4714 140.202 65.8295 140.202H65.8321Z" fill="#0AA7FF"/>
<path d="M65.8295 140.195C40.4714 140.195 19.9141 160.79 19.9141 186.194H65.8295V140.195Z" fill="#0AA7FF"/>
<path d="M157.665 140.202V94.2031H111.75C111.75 119.607 132.307 140.202 157.665 140.202Z" fill="#0AA7FF"/>
<path d="M65.8438 140.195V186.194H111.759C111.759 160.79 91.2018 140.195 65.8438 140.195Z" fill="#0AA7FF"/>
<path d="M111.759 94.2031H65.8438V140.202C91.2018 140.202 111.759 119.607 111.759 94.2031Z" fill="#0AA7FF"/>
<path d="M249.501 140.202V94.2031H203.586C203.586 119.607 224.143 140.202 249.501 140.202Z" fill="#0AA7FF"/>
<path d="M203.58 94.2031H157.664V140.202C183.022 140.202 203.58 119.607 203.58 94.2031Z" fill="#0AA7FF"/>
<path d="M65.8321 232.194V186.195H19.9141C19.9141 211.6 40.4714 232.194 65.8295 232.194H65.8321Z" fill="#0AA7FF"/>
<path d="M65.8295 232.195C40.4714 232.195 19.9141 252.79 19.9141 278.194H65.8295V232.195Z" fill="#0AA7FF"/>
<path d="M65.8438 232.195V278.194H111.759C111.759 252.79 91.2018 232.195 65.8438 232.195Z" fill="#0AA7FF"/>
<path d="M111.759 186.195H65.8438V232.194C91.2018 232.194 111.759 211.6 111.759 186.195Z" fill="#0AA7FF"/>
<path d="M65.8321 324.202V278.203H19.9141C19.9141 303.607 40.4714 324.202 65.8295 324.202H65.8321Z" fill="#0AA7FF"/>
<path d="M65.8295 324.195C40.4714 324.195 19.9141 344.79 19.9141 370.194H65.8295V324.195Z" fill="#0AA7FF"/>
<path d="M65.8438 324.195V370.194H111.759C111.759 344.79 91.2018 324.195 65.8438 324.195Z" fill="#0AA7FF"/>
<path d="M111.759 278.195H65.8438V324.194C91.2018 324.194 111.759 303.6 111.759 278.195Z" fill="#0AA7FF"/>
<path d="M249.501 324.195C224.143 324.195 203.586 344.79 203.586 370.194H249.501V324.195Z" fill="#0AA7FF"/>
<path d="M341.33 140.202V94.2031H295.414C295.414 119.607 315.971 140.202 341.33 140.202Z" fill="#0AA7FF"/>
<path d="M295.423 94.2031H249.508V140.202C274.866 140.202 295.423 119.607 295.423 94.2031Z" fill="#0AA7FF"/>
<path d="M433.165 140.195C407.807 140.195 387.25 160.79 387.25 186.194H433.165V140.195Z" fill="#0AA7FF"/>
<path d="M387.244 94.2031H341.328V140.202C366.686 140.202 387.244 119.607 387.244 94.2031Z" fill="#0AA7FF"/>
<path d="M433.172 140.195V186.194H479.087C479.087 160.79 458.53 140.195 433.172 140.195Z" fill="#0AA7FF"/>
<path d="M433.165 232.194V186.195H387.25C387.25 211.6 407.807 232.194 433.165 232.194Z" fill="#0AA7FF"/>
<path d="M433.165 232.195C407.807 232.195 387.25 252.79 387.25 278.194H433.165V232.195Z" fill="#0AA7FF"/>
<path d="M433.172 232.195V278.194H479.087C479.087 252.79 458.53 232.195 433.172 232.195Z" fill="#0AA7FF"/>
<path d="M479.087 186.195H433.172V232.194C458.53 232.194 479.087 211.6 479.087 186.195Z" fill="#0AA7FF"/>
<path d="M341.33 324.195C315.971 324.195 295.414 344.79 295.414 370.194H341.33V324.195Z" fill="#0AA7FF"/>
<path d="M249.5 324.195V370.194H295.415C295.415 344.79 274.858 324.195 249.5 324.195Z" fill="#0AA7FF"/>
<path d="M433.165 324.202V278.203H387.25C387.25 303.607 407.807 324.202 433.165 324.202Z" fill="#0AA7FF"/>
<path d="M341.328 324.195V370.194H387.244C387.244 344.79 366.686 324.195 341.328 324.195Z" fill="#0AA7FF"/>
<path d="M479.087 278.195H433.172V324.194C458.53 324.194 479.087 303.6 479.087 278.195Z" fill="#0AA7FF"/>
</svg>
