<svg width="551" height="737" viewBox="0 0 551 737" fill="none" xmlns="http://www.w3.org/2000/svg">
<g clip-path="url(#clip0_4226_12506)">
<path d="M91.916 506.148C66.5688 506.148 46.0205 485.56 46.0205 460.164C46.0205 485.56 25.4722 506.148 0.125 506.148C25.4722 506.148 46.0205 526.736 46.0205 552.132C46.0205 526.736 66.5688 506.148 91.916 506.148Z" fill="white"/>
<path d="M91.9189 506.148V460.164H46.0234C46.0234 485.56 66.5718 506.148 91.9189 506.148Z" fill="white"/>
<path d="M91.9189 506.148C66.5718 506.148 46.0234 526.736 46.0234 552.133H91.9189V506.148Z" fill="white"/>
<path d="M0.125 506.148V552.133H46.0205C46.0205 526.736 25.4722 506.148 0.125 506.148Z" fill="#A54AFF" stroke="white" stroke-miterlimit="10"/>
<path d="M46.0205 460.164H0.125V506.148C25.4722 506.148 46.0205 485.56 46.0205 460.164Z" fill="#A54AFF" stroke="white" stroke-miterlimit="10"/>
<path d="M183.705 506.148C158.358 506.148 137.81 485.56 137.81 460.164C137.81 485.56 117.261 506.148 91.9141 506.148C117.261 506.148 137.81 526.736 137.81 552.132C137.81 526.736 158.358 506.148 183.705 506.148Z" fill="white"/>
<path d="M183.708 506.148V460.164H137.812C137.812 485.56 158.361 506.148 183.708 506.148Z" fill="#A54AFF" stroke="white" stroke-miterlimit="10"/>
<path d="M183.708 506.148C158.361 506.148 137.812 526.736 137.812 552.133H183.708V506.148Z" fill="#A54AFF" stroke="white" stroke-miterlimit="10"/>
<path d="M91.9141 506.148V552.133H137.81C137.81 526.736 117.261 506.148 91.9141 506.148Z" fill="white"/>
<path d="M137.81 460.164H91.9141V506.148C117.261 506.148 137.81 485.56 137.81 460.164Z" fill="white"/>
<path d="M275.502 506.148C250.155 506.148 229.606 485.56 229.606 460.164C229.606 485.56 209.058 506.148 183.711 506.148C209.058 506.148 229.606 526.736 229.606 552.132C229.606 526.736 250.155 506.148 275.502 506.148Z" fill="#A54AFF" stroke="white" stroke-miterlimit="10"/>
<path d="M275.497 506.148V460.164H229.602C229.602 485.56 250.15 506.148 275.497 506.148Z" fill="#A54AFF" stroke="white" stroke-miterlimit="10"/>
<path d="M275.497 506.148C250.15 506.148 229.602 526.736 229.602 552.133H275.497V506.148Z" fill="#A54AFF" stroke="white" stroke-miterlimit="10"/>
<path d="M183.711 506.148V552.133H229.606C229.606 526.736 209.058 506.148 183.711 506.148Z" fill="#A54AFF" stroke="white" stroke-miterlimit="10"/>
<path d="M229.606 460.164H183.711V506.148C209.058 506.148 229.606 485.56 229.606 460.164Z" fill="#A54AFF" stroke="white" stroke-miterlimit="10"/>
<path d="M91.916 414.179C66.5688 414.179 46.0205 393.591 46.0205 368.195C46.0205 393.591 25.4722 414.179 0.125 414.179C25.4722 414.179 46.0205 434.767 46.0205 460.164C46.0205 434.767 66.5688 414.179 91.916 414.179Z" fill="white"/>
<path d="M91.9189 414.179V368.195H46.0234C46.0234 393.591 66.5718 414.179 91.9189 414.179Z" fill="white"/>
<path d="M91.9189 414.18C66.5718 414.18 46.0234 434.768 46.0234 460.164H91.9189V414.18Z" fill="white"/>
<path d="M0.125 414.18V460.164H46.0205C46.0205 434.768 25.4722 414.18 0.125 414.18Z" fill="#A54AFF" stroke="white" stroke-miterlimit="10"/>
<path d="M46.0205 368.195H0.125V414.179C25.4722 414.179 46.0205 393.591 46.0205 368.195Z" fill="#A54AFF" stroke="white" stroke-miterlimit="10"/>
<path d="M183.705 414.179C158.358 414.179 137.81 393.591 137.81 368.195C137.81 393.591 117.261 414.179 91.9141 414.179C117.261 414.179 137.81 434.767 137.81 460.164C137.81 434.767 158.358 414.179 183.705 414.179Z" fill="white"/>
<path d="M183.708 414.179V368.195H137.812C137.812 393.591 158.361 414.179 183.708 414.179Z" fill="#A54AFF" stroke="white" stroke-miterlimit="10"/>
<path d="M183.708 414.18C158.361 414.18 137.812 434.768 137.812 460.164H183.708V414.18Z" fill="#A54AFF" stroke="white" stroke-miterlimit="10"/>
<path d="M91.9141 414.18V460.164H137.81C137.81 434.768 117.261 414.18 91.9141 414.18Z" fill="white"/>
<path d="M137.81 368.195H91.9141V414.179C117.261 414.179 137.81 393.591 137.81 368.195Z" fill="white"/>
<path d="M275.502 414.179C250.155 414.179 229.606 393.591 229.606 368.195C229.606 393.591 209.058 414.179 183.711 414.179C209.058 414.179 229.606 434.767 229.606 460.164C229.606 434.767 250.155 414.179 275.502 414.179Z" fill="white"/>
<path d="M275.497 414.179V368.195H229.602C229.602 393.591 250.15 414.179 275.497 414.179Z" fill="white"/>
<path d="M275.497 414.18C250.15 414.18 229.602 434.768 229.602 460.164H275.497V414.18Z" fill="#A54AFF" stroke="white" stroke-miterlimit="10"/>
<path d="M183.711 414.18V460.164H229.606C229.606 434.768 209.058 414.18 183.711 414.18Z" fill="#A54AFF" stroke="white" stroke-miterlimit="10"/>
<path d="M229.606 368.195H183.711V414.179C209.058 414.179 229.606 393.591 229.606 368.195Z" fill="#A54AFF" stroke="white" stroke-miterlimit="10"/>
<path d="M91.916 598.117C66.5688 598.117 46.0205 577.529 46.0205 552.133C46.0205 577.529 25.4722 598.117 0.125 598.117C25.4722 598.117 46.0205 618.705 46.0205 644.101C46.0205 618.705 66.5688 598.117 91.916 598.117Z" fill="white"/>
<path d="M91.9189 598.117V552.133H46.0234C46.0234 577.529 66.5718 598.117 91.9189 598.117Z" fill="white"/>
<path d="M91.9189 598.117C66.5718 598.117 46.0234 618.705 46.0234 644.101H91.9189V598.117Z" fill="white" stroke="white" stroke-miterlimit="10"/>
<path d="M0.125 598.117V644.101H46.0205C46.0205 618.705 25.4722 598.117 0.125 598.117Z" fill="#A54AFF" stroke="white" stroke-miterlimit="10"/>
<path d="M46.0205 552.133H0.125V598.117C25.4722 598.117 46.0205 577.529 46.0205 552.133Z" fill="#A54AFF" stroke="white" stroke-miterlimit="10"/>
<path d="M183.705 598.117C158.358 598.117 137.81 577.529 137.81 552.133C137.81 577.529 117.261 598.117 91.9141 598.117C117.261 598.117 137.81 618.705 137.81 644.101C137.81 618.705 158.358 598.117 183.705 598.117Z" fill="white"/>
<path d="M183.708 598.117V552.133H137.812C137.812 577.529 158.361 598.117 183.708 598.117Z" fill="#A54AFF" stroke="white" stroke-miterlimit="10"/>
<path d="M183.708 598.117C158.361 598.117 137.812 618.705 137.812 644.101H183.708V598.117Z" fill="white"/>
<path d="M91.9141 598.117V644.101H137.81C137.81 618.705 117.261 598.117 91.9141 598.117Z" fill="white" stroke="white" stroke-miterlimit="10"/>
<path d="M137.81 552.133H91.9141V598.117C117.261 598.117 137.81 577.529 137.81 552.133Z" fill="white"/>
<path d="M275.502 598.117C250.155 598.117 229.606 577.529 229.606 552.133C229.606 577.529 209.058 598.117 183.711 598.117C209.058 598.117 229.606 618.705 229.606 644.101C229.606 618.705 250.155 598.117 275.502 598.117Z" fill="white"/>
<path d="M275.497 598.117V552.133H229.602C229.602 577.529 250.15 598.117 275.497 598.117Z" fill="#A54AFF" stroke="white" stroke-miterlimit="10"/>
<path d="M275.497 598.117C250.15 598.117 229.602 618.705 229.602 644.101H275.497V598.117Z" fill="white"/>
<path d="M183.711 598.117V644.101H229.606C229.606 618.705 209.058 598.117 183.711 598.117Z" fill="white"/>
<path d="M229.606 552.133H183.711V598.117C209.058 598.117 229.606 577.529 229.606 552.133Z" fill="#A54AFF" stroke="white" stroke-miterlimit="10"/>
<path d="M91.916 690.086C66.5688 690.086 46.0205 669.498 46.0205 644.102C46.0205 669.498 25.4722 690.086 0.125 690.086C25.4722 690.086 46.0205 710.674 46.0205 736.07C46.0205 710.674 66.5688 690.086 91.916 690.086Z" fill="white" stroke="white" stroke-miterlimit="10"/>
<path d="M91.9189 690.086V644.102H46.0234C46.0234 669.498 66.5718 690.086 91.9189 690.086Z" fill="white" stroke="white" stroke-miterlimit="10"/>
<path d="M91.9189 690.086C66.5718 690.086 46.0234 710.674 46.0234 736.07H91.9189V690.086Z" fill="#A54AFF" stroke="white" stroke-miterlimit="10"/>
<path d="M0.125 690.086V736.07H46.0205C46.0205 710.674 25.4722 690.086 0.125 690.086Z" fill="#A54AFF" stroke="white" stroke-miterlimit="10"/>
<path d="M46.0205 644.102H0.125V690.086C25.4722 690.086 46.0205 669.498 46.0205 644.102Z" fill="#A54AFF" stroke="white" stroke-miterlimit="10"/>
<path d="M183.705 690.086C158.358 690.086 137.81 669.498 137.81 644.102C137.81 669.498 117.261 690.086 91.9141 690.086C117.261 690.086 137.81 710.674 137.81 736.07C137.81 710.674 158.358 690.086 183.705 690.086Z" fill="white"/>
<path d="M183.708 690.086V644.102H137.812C137.812 669.498 158.361 690.086 183.708 690.086Z" fill="white"/>
<path d="M183.708 690.086C158.361 690.086 137.812 710.674 137.812 736.07H183.708V690.086Z" fill="#A54AFF" stroke="white" stroke-miterlimit="10"/>
<path d="M91.9141 690.086V736.07H137.81C137.81 710.674 117.261 690.086 91.9141 690.086Z" fill="#A54AFF" stroke="white" stroke-miterlimit="10"/>
<path d="M137.81 644.102H91.9141V690.086C117.261 690.086 137.81 669.498 137.81 644.102Z" fill="white" stroke="white" stroke-miterlimit="10"/>
<path d="M275.502 690.086C250.155 690.086 229.606 669.498 229.606 644.102C229.606 669.498 209.058 690.086 183.711 690.086C209.058 690.086 229.606 710.674 229.606 736.07C229.606 710.674 250.155 690.086 275.502 690.086Z" fill="white"/>
<path d="M275.497 690.086V644.102H229.602C229.602 669.498 250.15 690.086 275.497 690.086Z" fill="white"/>
<path d="M275.497 690.086C250.15 690.086 229.602 710.674 229.602 736.07H275.497V690.086Z" fill="#A54AFF" stroke="white" stroke-miterlimit="10"/>
<path d="M183.711 690.086V736.07H229.606C229.606 710.674 209.058 690.086 183.711 690.086Z" fill="#A54AFF" stroke="white" stroke-miterlimit="10"/>
<path d="M229.606 644.102H183.711V690.086C209.058 690.086 229.606 669.498 229.606 644.102Z" fill="white"/>
<path d="M367.291 506.148C341.944 506.148 321.395 485.56 321.395 460.164C321.395 485.56 300.847 506.148 275.5 506.148C300.847 506.148 321.395 526.736 321.395 552.132C321.395 526.736 341.944 506.148 367.291 506.148Z" fill="#A54AFF" stroke="white" stroke-miterlimit="10"/>
<path d="M367.286 506.148V460.164H321.391C321.391 485.56 341.939 506.148 367.286 506.148Z" fill="#A54AFF" stroke="white" stroke-miterlimit="10"/>
<path d="M367.286 506.148C341.939 506.148 321.391 526.736 321.391 552.133H367.286V506.148Z" fill="#A54AFF" stroke="white" stroke-miterlimit="10"/>
<path d="M275.5 506.148V552.133H321.395C321.395 526.736 300.847 506.148 275.5 506.148Z" fill="#A54AFF" stroke="white" stroke-miterlimit="10"/>
<path d="M321.395 460.164H275.5V506.148C300.847 506.148 321.395 485.56 321.395 460.164Z" fill="#A54AFF" stroke="white" stroke-miterlimit="10"/>
<path d="M459.08 506.148C433.733 506.148 413.185 485.56 413.185 460.164C413.185 485.56 392.636 506.148 367.289 506.148C392.636 506.148 413.185 526.736 413.185 552.132C413.185 526.736 433.733 506.148 459.08 506.148Z" fill="white"/>
<path d="M459.083 506.148V460.164H413.188C413.188 485.56 433.736 506.148 459.083 506.148Z" fill="white"/>
<path d="M459.083 506.148C433.736 506.148 413.188 526.736 413.188 552.133H459.083V506.148Z" fill="white"/>
<path d="M367.289 506.148V552.133H413.185C413.185 526.736 392.636 506.148 367.289 506.148Z" fill="#A54AFF" stroke="white" stroke-miterlimit="10"/>
<path d="M413.185 460.164H367.289V506.148C392.636 506.148 413.185 485.56 413.185 460.164Z" fill="#A54AFF" stroke="white" stroke-miterlimit="10"/>
<path d="M550.869 506.148C525.522 506.148 504.974 485.56 504.974 460.164C504.974 485.56 484.425 506.148 459.078 506.148C484.425 506.148 504.974 526.736 504.974 552.132C504.974 526.736 525.522 506.148 550.869 506.148Z" fill="white"/>
<path d="M550.872 506.148V460.164H504.977C504.977 485.56 525.525 506.148 550.872 506.148Z" fill="#A54AFF" stroke="white" stroke-miterlimit="10"/>
<path d="M550.872 506.148C525.525 506.148 504.977 526.736 504.977 552.133H550.872V506.148Z" fill="#A54AFF" stroke="white" stroke-miterlimit="10"/>
<path d="M459.078 506.148V552.133H504.974C504.974 526.736 484.425 506.148 459.078 506.148Z" fill="white"/>
<path d="M504.974 460.164H459.078V506.148C484.425 506.148 504.974 485.56 504.974 460.164Z" fill="white"/>
<path d="M367.291 414.179C341.944 414.179 321.395 393.591 321.395 368.195C321.395 393.591 300.847 414.179 275.5 414.179C300.847 414.179 321.395 434.767 321.395 460.164C321.395 434.767 341.944 414.179 367.291 414.179Z" fill="white"/>
<path d="M367.286 414.179V368.195H321.391C321.391 393.591 341.939 414.179 367.286 414.179Z" fill="white"/>
<path d="M367.286 414.18C341.939 414.18 321.391 434.768 321.391 460.164H367.286V414.18Z" fill="#A54AFF" stroke="white" stroke-miterlimit="10"/>
<path d="M275.5 414.18V460.164H321.395C321.395 434.768 300.847 414.18 275.5 414.18Z" fill="#A54AFF" stroke="white" stroke-miterlimit="10"/>
<path d="M321.395 368.195H275.5V414.179C300.847 414.179 321.395 393.591 321.395 368.195Z" fill="white"/>
<path d="M459.08 414.179C433.733 414.179 413.185 393.591 413.185 368.195C413.185 393.591 392.636 414.179 367.289 414.179C392.636 414.179 413.185 434.767 413.185 460.164C413.185 434.767 433.733 414.179 459.08 414.179Z" fill="white"/>
<path d="M459.083 414.179V368.195H413.188C413.188 393.591 433.736 414.179 459.083 414.179Z" fill="#A54AFF" stroke="white" stroke-miterlimit="10"/>
<path d="M459.083 414.18C433.736 414.18 413.188 434.768 413.188 460.164H459.083V414.18Z" fill="white"/>
<path d="M367.289 414.18V460.164H413.185C413.185 434.768 392.636 414.18 367.289 414.18Z" fill="#A54AFF" stroke="white" stroke-miterlimit="10"/>
<path d="M413.185 368.195H367.289V414.179C392.636 414.179 413.185 393.591 413.185 368.195Z" fill="white"/>
<path d="M550.869 414.179C525.522 414.179 504.974 393.591 504.974 368.195C504.974 393.591 484.425 414.179 459.078 414.179C484.425 414.179 504.974 434.767 504.974 460.164C504.974 434.767 525.522 414.179 550.869 414.179Z" fill="white"/>
<path d="M550.872 414.179V368.195H504.977C504.977 393.591 525.525 414.179 550.872 414.179Z" fill="#A54AFF" stroke="white" stroke-miterlimit="10"/>
<path d="M550.872 414.18C525.525 414.18 504.977 434.768 504.977 460.164H550.872V414.18Z" fill="#A54AFF" stroke="white" stroke-miterlimit="10"/>
<path d="M459.078 414.18V460.164H504.974C504.974 434.768 484.425 414.18 459.078 414.18Z" fill="white"/>
<path d="M504.974 368.195H459.078V414.179C484.425 414.179 504.974 393.591 504.974 368.195Z" fill="#A54AFF" stroke="white" stroke-miterlimit="10"/>
<path d="M367.291 598.117C341.944 598.117 321.395 577.529 321.395 552.133C321.395 577.529 300.847 598.117 275.5 598.117C300.847 598.117 321.395 618.705 321.395 644.101C321.395 618.705 341.944 598.117 367.291 598.117Z" fill="white"/>
<path d="M367.286 598.117V552.133H321.391C321.391 577.529 341.939 598.117 367.286 598.117Z" fill="#A54AFF" stroke="white" stroke-miterlimit="10"/>
<path d="M367.286 598.117C341.939 598.117 321.391 618.705 321.391 644.101H367.286V598.117Z" fill="white"/>
<path d="M275.5 598.117V644.101H321.395C321.395 618.705 300.847 598.117 275.5 598.117Z" fill="white"/>
<path d="M321.395 552.133H275.5V598.117C300.847 598.117 321.395 577.529 321.395 552.133Z" fill="#A54AFF" stroke="white" stroke-miterlimit="10"/>
<path d="M459.08 598.117C433.733 598.117 413.185 577.529 413.185 552.133C413.185 577.529 392.636 598.117 367.289 598.117C392.636 598.117 413.185 618.705 413.185 644.101C413.185 618.705 433.733 598.117 459.08 598.117Z" fill="white"/>
<path d="M459.083 598.117V552.133H413.188C413.188 577.529 433.736 598.117 459.083 598.117Z" fill="white"/>
<path d="M459.083 598.117C433.736 598.117 413.188 618.705 413.188 644.101H459.083V598.117Z" fill="#A54AFF" stroke="white" stroke-miterlimit="10"/>
<path d="M367.289 598.117V644.101H413.185C413.185 618.705 392.636 598.117 367.289 598.117Z" fill="white"/>
<path d="M413.185 552.133H367.289V598.117C392.636 598.117 413.185 577.529 413.185 552.133Z" fill="#A54AFF" stroke="white" stroke-miterlimit="10"/>
<path d="M550.869 598.117C525.522 598.117 504.974 577.529 504.974 552.133C504.974 577.529 484.425 598.117 459.078 598.117C484.425 598.117 504.974 618.705 504.974 644.101C504.974 618.705 525.522 598.117 550.869 598.117Z" fill="white"/>
<path d="M550.872 598.117V552.133H504.977C504.977 577.529 525.525 598.117 550.872 598.117Z" fill="#A54AFF" stroke="white" stroke-miterlimit="10"/>
<path d="M550.872 598.117C525.525 598.117 504.977 618.705 504.977 644.101H550.872V598.117Z" fill="#A54AFF" stroke="white" stroke-miterlimit="10"/>
<path d="M459.078 598.117V644.101H504.974C504.974 618.705 484.425 598.117 459.078 598.117Z" fill="#A54AFF" stroke="white" stroke-miterlimit="10"/>
<path d="M504.974 552.133H459.078V598.117C484.425 598.117 504.974 577.529 504.974 552.133Z" fill="white"/>
<path d="M367.291 690.086C341.944 690.086 321.395 669.498 321.395 644.102C321.395 669.498 300.847 690.086 275.5 690.086C300.847 690.086 321.395 710.674 321.395 736.07C321.395 710.674 341.944 690.086 367.291 690.086Z" fill="white"/>
<path d="M367.286 690.086V644.102H321.391C321.391 669.498 341.939 690.086 367.286 690.086Z" fill="white"/>
<path d="M367.286 690.086C341.939 690.086 321.391 710.674 321.391 736.07H367.286V690.086Z" fill="#A54AFF" stroke="white" stroke-miterlimit="10"/>
<path d="M275.5 690.086V736.07H321.395C321.395 710.674 300.847 690.086 275.5 690.086Z" fill="#A54AFF" stroke="white" stroke-miterlimit="10"/>
<path d="M321.395 644.102H275.5V690.086C300.847 690.086 321.395 669.498 321.395 644.102Z" fill="white"/>
<path d="M459.08 690.086C433.733 690.086 413.185 669.498 413.185 644.102C413.185 669.498 392.636 690.086 367.289 690.086C392.636 690.086 413.185 710.674 413.185 736.07C413.185 710.674 433.733 690.086 459.08 690.086Z" fill="white"/>
<path d="M459.083 690.086V644.102H413.188C413.188 669.498 433.736 690.086 459.083 690.086Z" fill="#A54AFF" stroke="white" stroke-miterlimit="10"/>
<path d="M459.083 690.086C433.736 690.086 413.188 710.674 413.188 736.07H459.083V690.086Z" fill="#A54AFF" stroke="white" stroke-miterlimit="10"/>
<path d="M367.289 690.086V736.07H413.185C413.185 710.674 392.636 690.086 367.289 690.086Z" fill="#A54AFF" stroke="white" stroke-miterlimit="10"/>
<path d="M413.185 644.102H367.289V690.086C392.636 690.086 413.185 669.498 413.185 644.102Z" fill="white"/>
<path d="M550.869 690.086C525.522 690.086 504.974 669.498 504.974 644.102C504.974 669.498 484.425 690.086 459.078 690.086C484.425 690.086 504.974 710.674 504.974 736.07C504.974 710.674 525.522 690.086 550.869 690.086Z" fill="#A54AFF" stroke="white" stroke-miterlimit="10"/>
<path d="M550.872 690.086V644.102H504.977C504.977 669.498 525.525 690.086 550.872 690.086Z" fill="#A54AFF" stroke="white" stroke-miterlimit="10"/>
<path d="M550.872 690.086C525.525 690.086 504.977 710.674 504.977 736.07H550.872V690.086Z" fill="#A54AFF" stroke="white" stroke-miterlimit="10"/>
<path d="M459.078 690.086V736.07H504.974C504.974 710.674 484.425 690.086 459.078 690.086Z" fill="#A54AFF" stroke="white" stroke-miterlimit="10"/>
<path d="M504.974 644.102H459.078V690.086C484.425 690.086 504.974 669.498 504.974 644.102Z" fill="#A54AFF" stroke="white" stroke-miterlimit="10"/>
<path d="M91.916 138.273C66.5688 138.273 46.0205 117.685 46.0205 92.2891C46.0205 117.685 25.4722 138.273 0.125 138.273C25.4722 138.273 46.0205 158.861 46.0205 184.257C46.0205 158.861 66.5688 138.273 91.916 138.273Z" fill="white"/>
<path d="M91.7861 138.148V92.1641H45.8906C45.8906 117.56 66.4389 138.148 91.7861 138.148Z" fill="white" stroke="white" stroke-miterlimit="10"/>
<path d="M91.9189 138.273C66.5718 138.273 46.0234 158.861 46.0234 184.258H91.9189V138.273Z" fill="white"/>
<path d="M0.125 138.273V184.258H46.0205C46.0205 158.861 25.4722 138.273 0.125 138.273Z" fill="#A54AFF" stroke="white" stroke-miterlimit="10"/>
<path d="M46.0205 92.2891H0.125V138.273C25.4722 138.273 46.0205 117.685 46.0205 92.2891Z" fill="#A54AFF" stroke="white" stroke-miterlimit="10"/>
<path d="M183.705 138.273C158.358 138.273 137.81 117.685 137.81 92.2891C137.81 117.685 117.261 138.273 91.9141 138.273C117.261 138.273 137.81 158.861 137.81 184.257C137.81 158.861 158.358 138.273 183.705 138.273Z" fill="white"/>
<path d="M183.708 138.273V92.2891H137.812C137.812 117.685 158.361 138.273 183.708 138.273Z" fill="white"/>
<path d="M183.708 138.273C158.361 138.273 137.812 158.861 137.812 184.258H183.708V138.273Z" fill="#A54AFF" stroke="white" stroke-miterlimit="10"/>
<path d="M91.9141 138.273V184.258H137.81C137.81 158.861 117.261 138.273 91.9141 138.273Z" fill="white"/>
<path d="M137.685 92.1641H91.7891V138.148C117.136 138.148 137.685 117.56 137.685 92.1641Z" fill="white" stroke="white" stroke-miterlimit="10"/>
<path d="M275.502 138.273C250.155 138.273 229.606 117.685 229.606 92.2891C229.606 117.685 209.058 138.273 183.711 138.273C209.058 138.273 229.606 158.861 229.606 184.257C229.606 158.861 250.155 138.273 275.502 138.273Z" fill="white"/>
<path d="M275.497 138.273V92.2891H229.602C229.602 117.685 250.15 138.273 275.497 138.273Z" fill="white"/>
<path d="M275.497 138.273C250.15 138.273 229.602 158.861 229.602 184.258H275.497V138.273Z" fill="#A54AFF" stroke="white" stroke-miterlimit="10"/>
<path d="M183.711 138.273V184.258H229.606C229.606 158.861 209.058 138.273 183.711 138.273Z" fill="#A54AFF" stroke="white" stroke-miterlimit="10"/>
<path d="M229.606 92.2891H183.711V138.273C209.058 138.273 229.606 117.685 229.606 92.2891Z" fill="white"/>
<path d="M91.916 46.3123C66.5688 46.3123 46.0205 25.7252 46.0205 0.328125C46.0205 25.7252 25.4731 46.3123 0.125 46.3123C25.4722 46.3123 46.0205 66.9003 46.0205 92.2964C46.0205 66.9003 66.5688 46.3123 91.916 46.3123Z" fill="white" stroke="white" stroke-miterlimit="10"/>
<path d="M91.9189 46.3123V0.328125H46.0234C46.0234 25.7242 66.5718 46.3123 91.9189 46.3123Z" fill="#A54AFF" stroke="white" stroke-miterlimit="10"/>
<path d="M91.9189 46.3125C66.5718 46.3125 46.0234 66.9005 46.0234 92.2966H91.9189V46.3125Z" fill="white" stroke="white" stroke-miterlimit="10"/>
<path d="M0.125 46.3125V92.2966H46.0205C46.0205 66.9005 25.4731 46.3125 0.125 46.3125Z" fill="#A54AFF" stroke="white" stroke-miterlimit="10"/>
<path d="M46.0205 0.328125H0.125V46.3123C25.4731 46.3123 46.0205 25.7252 46.0205 0.328125Z" fill="#A54AFF" stroke="white" stroke-miterlimit="10"/>
<path d="M183.705 46.3123C158.358 46.3123 137.81 25.7242 137.81 0.328125C137.81 25.7242 117.261 46.3123 91.9141 46.3123C117.261 46.3123 137.81 66.9003 137.81 92.2964C137.81 66.9003 158.358 46.3123 183.705 46.3123Z" fill="white"/>
<path d="M183.708 46.3123V0.328125H137.812C137.812 25.7242 158.361 46.3123 183.708 46.3123Z" fill="#A54AFF" stroke="white" stroke-miterlimit="10"/>
<path d="M183.708 46.3125C158.361 46.3125 137.812 66.9005 137.812 92.2966H183.708V46.3125Z" fill="white"/>
<path d="M91.9141 46.3125V92.2966H137.81C137.81 66.9005 117.261 46.3125 91.9141 46.3125Z" fill="white" stroke="white" stroke-miterlimit="10"/>
<path d="M137.81 0.328125H91.9141V46.3123C117.261 46.3123 137.81 25.7242 137.81 0.328125Z" fill="#A54AFF" stroke="white" stroke-miterlimit="10"/>
<path d="M275.502 46.3123C250.155 46.3123 229.606 25.7242 229.606 0.328125C229.606 25.7242 209.058 46.3123 183.711 46.3123C209.058 46.3123 229.606 66.9003 229.606 92.2964C229.606 66.9003 250.155 46.3123 275.502 46.3123Z" fill="white"/>
<path d="M275.497 46.3123V0.328125H229.602C229.602 25.7242 250.15 46.3123 275.497 46.3123Z" fill="#A54AFF" stroke="white" stroke-miterlimit="10"/>
<path d="M275.497 46.3125C250.15 46.3125 229.602 66.9005 229.602 92.2966H275.497V46.3125Z" fill="white"/>
<path d="M183.711 46.3125V92.2966H229.606C229.606 66.9005 209.058 46.3125 183.711 46.3125Z" fill="white"/>
<path d="M229.606 0.328125H183.711V46.3123C209.058 46.3123 229.606 25.7242 229.606 0.328125Z" fill="#A54AFF" stroke="white" stroke-miterlimit="10"/>
<path d="M91.916 230.242C66.5688 230.242 46.0205 209.654 46.0205 184.258C46.0205 209.654 25.4722 230.242 0.125 230.242C25.4722 230.242 46.0205 250.83 46.0205 276.226C46.0205 250.83 66.5688 230.242 91.916 230.242Z" fill="white"/>
<path d="M91.9189 230.242V184.258H46.0234C46.0234 209.654 66.5718 230.242 91.9189 230.242Z" fill="white"/>
<path d="M91.9189 230.242C66.5718 230.242 46.0234 250.83 46.0234 276.226H91.9189V230.242Z" fill="white"/>
<path d="M0.125 230.242V276.226H46.0205C46.0205 250.83 25.4722 230.242 0.125 230.242Z" fill="#A54AFF" stroke="white" stroke-miterlimit="10"/>
<path d="M46.0205 184.258H0.125V230.242C25.4722 230.242 46.0205 209.654 46.0205 184.258Z" fill="#A54AFF" stroke="white" stroke-miterlimit="10"/>
<path d="M183.705 230.242C158.358 230.242 137.81 209.654 137.81 184.258C137.81 209.654 117.261 230.242 91.9141 230.242C117.261 230.242 137.81 250.83 137.81 276.226C137.81 250.83 158.358 230.242 183.705 230.242Z" fill="white"/>
<path d="M183.708 230.242V184.258H137.812C137.812 209.654 158.361 230.242 183.708 230.242Z" fill="#A54AFF" stroke="white" stroke-miterlimit="10"/>
<path d="M183.708 230.242C158.361 230.242 137.812 250.83 137.812 276.226H183.708V230.242Z" fill="#A54AFF" stroke="white" stroke-miterlimit="10"/>
<path d="M91.9141 230.242V276.226H137.81C137.81 250.83 117.261 230.242 91.9141 230.242Z" fill="white"/>
<path d="M137.81 184.258H91.9141V230.242C117.261 230.242 137.81 209.654 137.81 184.258Z" fill="white"/>
<path d="M275.502 230.242C250.155 230.242 229.606 209.654 229.606 184.258C229.606 209.654 209.058 230.242 183.711 230.242C209.058 230.242 229.606 250.83 229.606 276.226C229.606 250.83 250.155 230.242 275.502 230.242Z" fill="#A54AFF" stroke="white" stroke-miterlimit="10"/>
<path d="M275.497 230.242V184.258H229.602C229.602 209.654 250.15 230.242 275.497 230.242Z" fill="#A54AFF" stroke="white" stroke-miterlimit="10"/>
<path d="M275.497 230.242C250.15 230.242 229.602 250.83 229.602 276.226H275.497V230.242Z" fill="#A54AFF" stroke="white" stroke-miterlimit="10"/>
<path d="M183.711 230.242V276.226H229.606C229.606 250.83 209.058 230.242 183.711 230.242Z" fill="#A54AFF" stroke="white" stroke-miterlimit="10"/>
<path d="M229.606 184.258H183.711V230.242C209.058 230.242 229.606 209.654 229.606 184.258Z" fill="#A54AFF" stroke="white" stroke-miterlimit="10"/>
<path d="M91.916 322.211C66.5688 322.211 46.0205 301.623 46.0205 276.227C46.0205 301.623 25.4722 322.211 0.125 322.211C25.4722 322.211 46.0205 342.799 46.0205 368.195C46.0205 342.799 66.5688 322.211 91.916 322.211Z" fill="white"/>
<path d="M91.9189 322.211V276.227H46.0234C46.0234 301.623 66.5718 322.211 91.9189 322.211Z" fill="white"/>
<path d="M91.9189 322.211C66.5718 322.211 46.0234 342.799 46.0234 368.195H91.9189V322.211Z" fill="white"/>
<path d="M0.125 322.211V368.195H46.0205C46.0205 342.799 25.4722 322.211 0.125 322.211Z" fill="#A54AFF" stroke="white" stroke-miterlimit="10"/>
<path d="M46.0205 276.227H0.125V322.211C25.4722 322.211 46.0205 301.623 46.0205 276.227Z" fill="#A54AFF" stroke="white" stroke-miterlimit="10"/>
<path d="M183.705 322.211C158.358 322.211 137.81 301.623 137.81 276.227C137.81 301.623 117.261 322.211 91.9141 322.211C117.261 322.211 137.81 342.799 137.81 368.195C137.81 342.799 158.358 322.211 183.705 322.211Z" fill="white"/>
<path d="M183.708 322.211V276.227H137.812C137.812 301.623 158.361 322.211 183.708 322.211Z" fill="#A54AFF" stroke="white" stroke-miterlimit="10"/>
<path d="M183.708 322.211C158.361 322.211 137.812 342.799 137.812 368.195H183.708V322.211Z" fill="#A54AFF" stroke="white" stroke-miterlimit="10"/>
<path d="M91.9141 322.211V368.195H137.81C137.81 342.799 117.261 322.211 91.9141 322.211Z" fill="white"/>
<path d="M137.81 276.227H91.9141V322.211C117.261 322.211 137.81 301.623 137.81 276.227Z" fill="white"/>
<path d="M275.502 322.211C250.155 322.211 229.606 301.623 229.606 276.227C229.606 301.623 209.058 322.211 183.711 322.211C209.058 322.211 229.606 342.799 229.606 368.195C229.606 342.799 250.155 322.211 275.502 322.211Z" fill="white"/>
<path d="M275.497 322.211V276.227H229.602C229.602 301.623 250.15 322.211 275.497 322.211Z" fill="#A54AFF" stroke="white" stroke-miterlimit="10"/>
<path d="M275.497 322.211C250.15 322.211 229.602 342.799 229.602 368.195H275.497V322.211Z" fill="white"/>
<path d="M183.711 322.211V368.195H229.606C229.606 342.799 209.058 322.211 183.711 322.211Z" fill="#A54AFF" stroke="white" stroke-miterlimit="10"/>
<path d="M229.606 276.227H183.711V322.211C209.058 322.211 229.606 301.623 229.606 276.227Z" fill="#A54AFF" stroke="white" stroke-miterlimit="10"/>
<path d="M367.291 138.273C341.944 138.273 321.395 117.685 321.395 92.2891C321.395 117.685 300.847 138.273 275.5 138.273C300.847 138.273 321.395 158.861 321.395 184.257C321.395 158.861 341.944 138.273 367.291 138.273Z" fill="white"/>
<path d="M367.286 138.273V92.2891H321.391C321.391 117.685 341.939 138.273 367.286 138.273Z" fill="white"/>
<path d="M367.286 138.273C341.939 138.273 321.391 158.861 321.391 184.258H367.286V138.273Z" fill="#A54AFF" stroke="white" stroke-miterlimit="10"/>
<path d="M275.5 138.273V184.258H321.395C321.395 158.861 300.847 138.273 275.5 138.273Z" fill="#A54AFF" stroke="white" stroke-miterlimit="10"/>
<path d="M321.395 92.2891H275.5V138.273C300.847 138.273 321.395 117.685 321.395 92.2891Z" fill="white"/>
<path d="M459.08 138.273C433.733 138.273 413.185 117.685 413.185 92.2891C413.185 117.685 392.636 138.273 367.289 138.273C392.636 138.273 413.185 158.861 413.185 184.257C413.185 158.861 433.733 138.273 459.08 138.273Z" fill="white"/>
<path d="M459.083 138.273V92.2891H413.188C413.188 117.685 433.736 138.273 459.083 138.273Z" fill="#A54AFF" stroke="white" stroke-miterlimit="10"/>
<path d="M459.083 138.273C433.736 138.273 413.188 158.861 413.188 184.258H459.083V138.273Z" fill="white"/>
<path d="M367.289 138.273V184.258H413.185C413.185 158.861 392.636 138.273 367.289 138.273Z" fill="#A54AFF" stroke="white" stroke-miterlimit="10"/>
<path d="M413.185 92.2891H367.289V138.273C392.636 138.273 413.185 117.685 413.185 92.2891Z" fill="white"/>
<path d="M550.869 138.273C525.522 138.273 504.974 117.685 504.974 92.2891C504.974 117.685 484.425 138.273 459.078 138.273C484.425 138.273 504.974 158.861 504.974 184.257C504.974 158.861 525.522 138.273 550.869 138.273Z" fill="white"/>
<path d="M550.872 138.273V92.2891H504.977C504.977 117.685 525.525 138.273 550.872 138.273Z" fill="#A54AFF" stroke="white" stroke-miterlimit="10"/>
<path d="M550.872 138.273C525.525 138.273 504.977 158.861 504.977 184.258H550.872V138.273Z" fill="#A54AFF" stroke="white" stroke-miterlimit="10"/>
<path d="M459.078 138.273V184.258H504.974C504.974 158.861 484.425 138.273 459.078 138.273Z" fill="white"/>
<path d="M504.974 92.2891H459.078V138.273C484.425 138.273 504.974 117.685 504.974 92.2891Z" fill="#A54AFF" stroke="white" stroke-miterlimit="10"/>
<path d="M367.291 46.3123C341.944 46.3123 321.395 25.7242 321.395 0.328125C321.395 25.7242 300.847 46.3123 275.5 46.3123C300.847 46.3123 321.395 66.9003 321.395 92.2964C321.395 66.9003 341.944 46.3123 367.291 46.3123Z" fill="white"/>
<path d="M367.286 46.3123V0.328125H321.391C321.391 25.7242 341.939 46.3123 367.286 46.3123Z" fill="#A54AFF" stroke="white" stroke-miterlimit="10"/>
<path d="M367.286 46.3125C341.939 46.3125 321.391 66.9005 321.391 92.2966H367.286V46.3125Z" fill="white"/>
<path d="M275.5 46.3125V92.2966H321.395C321.395 66.9005 300.847 46.3125 275.5 46.3125Z" fill="white"/>
<path d="M321.395 0.328125H275.5V46.3123C300.847 46.3123 321.395 25.7242 321.395 0.328125Z" fill="#A54AFF" stroke="white" stroke-miterlimit="10"/>
<path d="M459.08 46.3123C433.733 46.3123 413.185 25.7242 413.185 0.328125C413.185 25.7242 392.636 46.3123 367.289 46.3123C392.636 46.3123 413.185 66.9003 413.185 92.2964C413.185 66.9003 433.733 46.3123 459.08 46.3123Z" fill="white"/>
<path d="M459.083 46.3123V0.328125H413.188C413.188 25.7242 433.736 46.3123 459.083 46.3123Z" fill="#A54AFF" stroke="white" stroke-miterlimit="10"/>
<path d="M459.083 46.3125C433.736 46.3125 413.188 66.9005 413.188 92.2966H459.083V46.3125Z" fill="#A54AFF" stroke="white" stroke-miterlimit="10"/>
<path d="M367.289 46.3125V92.2966H413.185C413.185 66.9005 392.636 46.3125 367.289 46.3125Z" fill="white"/>
<path d="M413.185 0.328125H367.289V46.3123C392.636 46.3123 413.185 25.7242 413.185 0.328125Z" fill="#A54AFF" stroke="white" stroke-miterlimit="10"/>
<path d="M550.869 46.3123C525.522 46.3123 504.974 25.7242 504.974 0.328125C504.974 25.7242 484.425 46.3123 459.078 46.3123C484.425 46.3123 504.974 66.9003 504.974 92.2964C504.974 66.9003 525.522 46.3123 550.869 46.3123Z" fill="#A54AFF" stroke="white" stroke-miterlimit="10"/>
<path d="M550.872 46.3123V0.328125H504.977C504.977 25.7242 525.525 46.3123 550.872 46.3123Z" fill="#A54AFF" stroke="white" stroke-miterlimit="10"/>
<path d="M550.872 46.3125C525.525 46.3125 504.977 66.9005 504.977 92.2966H550.872V46.3125Z" fill="#A54AFF" stroke="white" stroke-miterlimit="10"/>
<path d="M459.078 46.3125V92.2966H504.974C504.974 66.9005 484.425 46.3125 459.078 46.3125Z" fill="#A54AFF" stroke="white" stroke-miterlimit="10"/>
<path d="M504.974 0.328125H459.078V46.3123C484.425 46.3123 504.974 25.7242 504.974 0.328125Z" fill="#A54AFF" stroke="white" stroke-miterlimit="10"/>
<path d="M367.291 230.242C341.944 230.242 321.395 209.654 321.395 184.258C321.395 209.654 300.847 230.242 275.5 230.242C300.847 230.242 321.395 250.83 321.395 276.226C321.395 250.83 341.944 230.242 367.291 230.242Z" fill="#A54AFF" stroke="white" stroke-miterlimit="10"/>
<path d="M367.286 230.242V184.258H321.391C321.391 209.654 341.939 230.242 367.286 230.242Z" fill="#A54AFF" stroke="white" stroke-miterlimit="10"/>
<path d="M367.286 230.242C341.939 230.242 321.391 250.83 321.391 276.226H367.286V230.242Z" fill="#A54AFF" stroke="white" stroke-miterlimit="10"/>
<path d="M275.5 230.242V276.226H321.395C321.395 250.83 300.847 230.242 275.5 230.242Z" fill="#A54AFF" stroke="white" stroke-miterlimit="10"/>
<path d="M321.395 184.258H275.5V230.242C300.847 230.242 321.395 209.654 321.395 184.258Z" fill="#A54AFF" stroke="white" stroke-miterlimit="10"/>
<path d="M459.08 230.242C433.733 230.242 413.185 209.654 413.185 184.258C413.185 209.654 392.636 230.242 367.289 230.242C392.636 230.242 413.185 250.83 413.185 276.226C413.185 250.83 433.733 230.242 459.08 230.242Z" fill="white"/>
<path d="M459.083 230.242V184.258H413.188C413.188 209.654 433.736 230.242 459.083 230.242Z" fill="white"/>
<path d="M459.083 230.242C433.736 230.242 413.188 250.83 413.188 276.226H459.083V230.242Z" fill="white"/>
<path d="M367.289 230.242V276.226H413.185C413.185 250.83 392.636 230.242 367.289 230.242Z" fill="#A54AFF" stroke="white" stroke-miterlimit="10"/>
<path d="M413.185 184.258H367.289V230.242C392.636 230.242 413.185 209.654 413.185 184.258Z" fill="#A54AFF" stroke="white" stroke-miterlimit="10"/>
<path d="M550.869 230.242C525.522 230.242 504.974 209.654 504.974 184.258C504.974 209.654 484.425 230.242 459.078 230.242C484.425 230.242 504.974 250.83 504.974 276.226C504.974 250.83 525.522 230.242 550.869 230.242Z" fill="white"/>
<path d="M550.872 230.242V184.258H504.977C504.977 209.654 525.525 230.242 550.872 230.242Z" fill="#A54AFF" stroke="white" stroke-miterlimit="10"/>
<path d="M550.872 230.242C525.525 230.242 504.977 250.83 504.977 276.226H550.872V230.242Z" fill="#A54AFF" stroke="white" stroke-miterlimit="10"/>
<path d="M459.078 230.242V276.226H504.974C504.974 250.83 484.425 230.242 459.078 230.242Z" fill="white"/>
<path d="M504.974 184.258H459.078V230.242C484.425 230.242 504.974 209.654 504.974 184.258Z" fill="white"/>
<path d="M367.291 322.211C341.944 322.211 321.395 301.623 321.395 276.227C321.395 301.623 300.847 322.211 275.5 322.211C300.847 322.211 321.395 342.799 321.395 368.195C321.395 342.799 341.944 322.211 367.291 322.211Z" fill="white"/>
<path d="M367.286 322.211V276.227H321.391C321.391 301.623 341.939 322.211 367.286 322.211Z" fill="#A54AFF" stroke="white" stroke-miterlimit="10"/>
<path d="M367.286 322.211C341.939 322.211 321.391 342.799 321.391 368.195H367.286V322.211Z" fill="white"/>
<path d="M275.5 322.211V368.195H321.395C321.395 342.799 300.847 322.211 275.5 322.211Z" fill="white"/>
<path d="M321.395 276.227H275.5V322.211C300.847 322.211 321.395 301.623 321.395 276.227Z" fill="#A54AFF" stroke="white" stroke-miterlimit="10"/>
<path d="M459.08 322.211C433.733 322.211 413.185 301.623 413.185 276.227C413.185 301.623 392.636 322.211 367.289 322.211C392.636 322.211 413.185 342.799 413.185 368.195C413.185 342.799 433.733 322.211 459.08 322.211Z" fill="white"/>
<path d="M459.083 322.211V276.227H413.188C413.188 301.623 433.736 322.211 459.083 322.211Z" fill="white"/>
<path d="M459.083 322.211C433.736 322.211 413.188 342.799 413.188 368.195H459.083V322.211Z" fill="#A54AFF" stroke="white" stroke-miterlimit="10"/>
<path d="M367.289 322.211V368.195H413.185C413.185 342.799 392.636 322.211 367.289 322.211Z" fill="white"/>
<path d="M413.185 276.227H367.289V322.211C392.636 322.211 413.185 301.623 413.185 276.227Z" fill="#A54AFF" stroke="white" stroke-miterlimit="10"/>
<path d="M550.869 322.211C525.522 322.211 504.974 301.623 504.974 276.227C504.974 301.623 484.425 322.211 459.078 322.211C484.425 322.211 504.974 342.799 504.974 368.195C504.974 342.799 525.522 322.211 550.869 322.211Z" fill="white"/>
<path d="M550.872 322.211V276.227H504.977C504.977 301.623 525.525 322.211 550.872 322.211Z" fill="#A54AFF" stroke="white" stroke-miterlimit="10"/>
<path d="M550.872 322.211C525.525 322.211 504.977 342.799 504.977 368.195H550.872V322.211Z" fill="#A54AFF" stroke="white" stroke-miterlimit="10"/>
<path d="M459.078 322.211V368.195H504.974C504.974 342.799 484.425 322.211 459.078 322.211Z" fill="#A54AFF" stroke="white" stroke-miterlimit="10"/>
<path d="M504.974 276.227H459.078V322.211C484.425 322.211 504.974 301.623 504.974 276.227Z" fill="white"/>
</g>
<rect x="0.5" y="0.695312" width="550" height="735" stroke="#121212"/>
<defs>
<clipPath id="clip0_4226_12506">
<rect y="0.195312" width="551" height="736" fill="white"/>
</clipPath>
</defs>
</svg>
