<svg width="263" height="46" viewBox="0 0 263 46" fill="none" xmlns="http://www.w3.org/2000/svg">
<path d="M32.136 10.4433V16.0113C32.136 16.1393 32.2 16.2673 32.2 16.3953C32.2 16.5873 32.136 16.7153 32.136 16.8433V19.5953H25.736V22.4113C25.736 22.5393 25.8 22.6673 25.8 22.7953C25.8 22.9873 25.736 23.1153 25.736 23.2433V25.9953H22.6C22.536 25.9953 16.2 25.9953 16.2 25.9953C16.136 25.9953 9.8 25.9953 9.8 25.9953C9.736 25.9953 6.6 25.9953 6.6 25.9953V19.5953H25.736V6.79531H6.6V0.459309H9.736C9.736 0.459309 9.736 0.459309 9.8 0.459309H16.136C16.136 0.459309 16.136 0.459309 16.2 0.459309H22.536C22.536 0.459309 22.536 0.459309 22.6 0.459309H25.736V3.21131C25.736 3.33931 25.8 3.46731 25.8 3.65931C25.8 3.78731 25.736 3.91531 25.736 4.04331V6.85931H32.136V9.61131C32.136 9.73931 32.2 9.86731 32.2 9.99531C32.2 10.1873 32.136 10.3153 32.136 10.4433ZM6.6 0.459309V45.1953H0.2V0.459309H6.6ZM67.375 45.1953H64.175V41.9953H67.375V45.1953ZM70.575 41.9953H67.375V38.7953H70.575V41.9953ZM67.375 38.7953H64.175V35.5953H67.375V38.7953ZM70.575 35.5953H67.375V32.3953H70.575V35.5953ZM67.375 32.3953H64.175V29.1953H67.375V32.3953ZM70.575 29.1953H67.375V25.9953H70.575V29.1953ZM41.775 22.7953V25.9953H44.975V29.1953H41.775V32.3953H44.975V35.5953H41.775V38.7953H44.975V41.9953H41.775V45.1953H38.575V41.9953H41.775V38.7953H38.575V35.5953H41.775V32.3953H38.575V29.1953H41.775V25.9953H38.575V22.7953H41.775V19.5953H38.575V16.3953H41.775V13.1953H38.575V10.0593H41.775V6.85931H44.975V10.0593H41.775V13.1953H44.975V16.3953H41.775V19.5953H44.975V22.7953H41.775ZM48.175 25.9953H44.975V22.7953H48.175V25.9953ZM51.375 22.7953H48.175V19.5953H51.375V22.7953ZM54.575 25.9953H51.375V22.7953H54.575V25.9953ZM57.775 22.7953H54.575V19.5953H57.775V22.7953ZM60.975 19.5953H64.175V22.7953H60.975V25.9953H57.775V22.7953H60.975V19.5953ZM67.375 25.9953H64.175V22.7953H67.375V25.9953ZM70.575 22.7953H67.375V19.5953H70.575V22.7953ZM67.375 19.5953H64.175V16.3953H67.375V19.5953ZM70.575 16.3953H67.375V13.1953H70.575V16.3953ZM67.375 13.1953H64.175V10.0593H67.375V13.1953ZM70.575 10.0593H67.375V6.85931H70.575V10.0593ZM57.775 6.85931V3.65931H54.575V0.459309H57.775V3.65931H60.975V6.85931H57.775ZM64.175 3.65931H60.975V0.459309H64.175V3.65931ZM51.375 6.85931V3.65931H48.175V0.459309H51.375V3.65931H54.575V6.85931H51.375ZM48.175 6.85931H44.975V3.65931H48.175V6.85931ZM83.35 32.3953V38.7953H102.55V45.1953H83.35V38.7953H76.95V32.3953H83.35ZM83.35 25.9953V19.5953H76.95V6.85931H83.35V0.459309H102.55V6.85931H108.95V9.99531C108.95 10.0593 108.95 13.1953 108.95 13.1953H102.55V6.85931H83.35V19.5953H102.55V22.7953C102.55 22.8593 102.55 25.9953 102.55 25.9953H99.35C99.286 25.9953 92.95 25.9953 92.95 25.9953C92.886 25.9953 86.55 25.9953 86.55 25.9953C86.486 25.9953 83.35 25.9953 83.35 25.9953ZM108.95 38.7953H102.55V25.9953H108.95V38.7953ZM124.925 6.79531H121.725V3.59531H124.925V6.79531ZM128.125 3.59531H124.925V0.395309H128.125V3.59531ZM124.925 25.9953H121.725V22.7953H124.925V25.9953ZM128.125 22.7953H124.925V19.5953H128.125V22.7953ZM124.925 45.2593H121.725V42.0593H124.925V45.2593ZM128.125 42.0593H124.925V38.8593H128.125V42.0593ZM118.525 38.7953H115.325V35.5953H118.525V38.7953ZM121.725 35.5953H118.525V32.3953H121.725V35.5953ZM118.525 19.5953H115.325V16.3953H118.525V19.5953ZM115.325 13.1953V9.99531H118.525V13.1953H121.725V16.3953H118.525V13.1953H115.325ZM121.725 9.99531H118.525V6.85931H121.725V9.99531ZM131.325 6.79531H128.125V3.59531H131.325V6.79531ZM134.525 3.59531H131.325V0.395309H134.525V3.59531ZM131.325 25.9953H128.125V22.7953H131.325V25.9953ZM134.525 22.7953H131.325V19.5953H134.525V22.7953ZM131.325 45.2593H128.125V42.0593H131.325V45.2593ZM134.525 42.0593H131.325V38.8593H134.525V42.0593ZM137.725 6.79531H134.525V3.59531H137.725V6.79531ZM140.925 3.59531H137.725V0.395309H140.925V3.59531ZM137.725 25.9953H134.525V22.7953H137.725V25.9953ZM140.925 22.7953H137.725V19.5953H140.925V22.7953ZM144.061 13.1953H140.861V9.99531H144.061V13.1953ZM147.261 9.99531H144.061V6.79531H147.261V9.99531ZM144.061 32.3953H140.861V29.1953H144.061V32.3953ZM147.261 29.1953H144.061V25.9953H147.261V29.1953ZM144.061 38.7953H140.861V35.5953H144.061V38.7953ZM147.261 35.5953H144.061V32.3953H147.261V35.5953ZM137.725 45.2593H134.525V42.0593H137.725V45.2593ZM140.925 42.0593H137.725V38.8593H140.925V42.0593ZM185.7 38.7953V41.9953C185.7 42.0593 185.7 42.0593 185.7 42.0593V45.1953H153.7V38.7953H166.5V6.85931H153.7V0.459309H185.636V3.59531C185.636 3.59531 185.7 3.59531 185.7 3.65931H185.636V6.85931H172.9V38.7953H185.7ZM198.475 29.2593V35.5953C198.475 35.6593 198.475 35.6593 198.475 35.6593V38.7953H192.075V6.79531H198.475V9.99531C198.475 10.0593 198.475 10.0593 198.475 10.0593V16.3953C198.475 16.4593 198.475 16.4593 198.475 16.4593V22.7953C198.475 22.8593 198.475 22.8593 198.475 22.8593V29.1953C198.475 29.2593 198.475 29.2593 198.475 29.2593ZM224.075 6.85931V38.7953H217.675V45.1953H198.475V38.7953H217.675V6.85931H198.475V0.459309H217.675V6.85931H224.075ZM233.65 42.0593V38.8593H236.85V42.0593H233.65V45.2593H230.45V42.0593H233.65ZM233.65 35.6593V32.4593H236.85V35.6593H233.65V38.8593H230.45V35.6593H233.65ZM233.65 29.2593V26.0593H236.85V29.2593H233.65V32.4593H230.45V29.2593H233.65ZM233.65 22.8593V19.6593H236.85V22.8593H233.65V26.0593H230.45V22.8593H233.65ZM236.85 13.2593V16.4593H239.986V19.6593H236.786V16.4593H233.65V19.6593H230.45V16.4593H233.65V13.2593H236.85ZM233.65 13.2593H230.45V10.0593H233.65V13.2593ZM236.85 10.0593H233.65V6.85931H236.85V10.0593ZM243.186 16.4593H239.986V13.2593H243.186V16.4593ZM246.386 25.9953H243.186V22.7953H246.386V25.9953ZM249.586 22.7953H246.386V19.5953H249.586V22.7953ZM262.386 3.65931H259.186V6.85931H262.386V10.0593H259.186V13.1953H262.386V16.3953H259.186V19.5953H262.386V22.7953H259.186V25.9953H262.386V29.1953H259.186V32.3953H262.386V35.5953H259.186V38.7953H262.386V41.9953H259.186V45.1953H255.986V41.9953H259.186V38.7953H255.986V35.5953H259.186V32.3953H255.986V29.1953H252.786V32.3953H249.586V29.1953H252.786V25.9953H255.986V29.1953H259.186V25.9953H255.986V22.7953H259.186V19.5953H255.986V16.3953H259.186V13.2593H255.986V10.0593H259.186V6.85931H255.986V3.65931H259.186V0.459309H262.386V3.65931ZM233.65 6.85931H230.45V3.65931H233.65V6.85931ZM236.85 3.65931H233.65V0.459309H236.85V3.65931Z" fill="white"/>
</svg>
