<svg width="551" height="737" viewBox="0 0 551 737" fill="none" xmlns="http://www.w3.org/2000/svg">
<g clip-path="url(#clip0_4210_44200)">
<path d="M91.9155 506.148C66.5721 506.148 46.0202 485.556 46.0202 460.164C46.0202 485.556 25.4684 506.148 0.125 506.148C25.4684 506.148 46.0202 526.74 46.0202 552.132C46.0202 526.74 66.5721 506.148 91.9155 506.148Z" fill="#FF1345" stroke="white" stroke-miterlimit="10"/>
<path d="M91.9187 506.148V460.164H46.0234C46.0234 485.556 66.5753 506.148 91.9187 506.148Z" fill="white"/>
<path d="M91.9187 506.148C66.5753 506.148 46.0234 526.74 46.0234 552.132H91.9187V506.148Z" fill="white"/>
<path d="M0.125 506.148V552.132H46.0202C46.0202 526.74 25.4684 506.148 0.125 506.148Z" fill="#FF1345" stroke="white" stroke-miterlimit="10"/>
<path d="M46.0202 460.164H0.125V506.148C25.4684 506.148 46.0202 485.556 46.0202 460.164Z" fill="#FF1345" stroke="white" stroke-miterlimit="10"/>
<path d="M183.712 506.148C158.369 506.148 137.817 485.556 137.817 460.164C137.817 485.556 117.265 506.148 91.9219 506.148C117.265 506.148 137.817 526.74 137.817 552.132C137.817 526.74 158.369 506.148 183.712 506.148Z" fill="#FF1345" stroke="white" stroke-miterlimit="10"/>
<path d="M183.708 506.148V460.164H137.812C137.812 485.556 158.364 506.148 183.708 506.148Z" fill="#FF1345" stroke="white" stroke-miterlimit="10"/>
<path d="M183.708 506.148C158.364 506.148 137.812 526.74 137.812 552.132H183.708V506.148Z" fill="#FF1345" stroke="white" stroke-miterlimit="10"/>
<path d="M91.9219 506.148V552.132H137.817C137.817 526.74 117.265 506.148 91.9219 506.148Z" fill="white"/>
<path d="M137.817 460.164H91.9219V506.148C117.265 506.148 137.817 485.556 137.817 460.164Z" fill="white"/>
<path d="M275.501 506.148C250.158 506.148 229.606 485.556 229.606 460.164C229.606 485.556 209.054 506.148 183.711 506.148C209.054 506.148 229.606 526.74 229.606 552.132C229.606 526.74 250.158 506.148 275.501 506.148Z" fill="#FF1345" stroke="white" stroke-miterlimit="10"/>
<path d="M275.505 506.148V460.164H229.609C229.609 485.556 250.161 506.148 275.505 506.148Z" fill="#FF1345" stroke="white" stroke-miterlimit="10"/>
<path d="M275.505 506.148C250.161 506.148 229.609 526.74 229.609 552.132H275.505V506.148Z" fill="#FF1345" stroke="white" stroke-miterlimit="10"/>
<path d="M183.711 506.148V552.132H229.606C229.606 526.74 209.054 506.148 183.711 506.148Z" fill="#FF1345" stroke="white" stroke-miterlimit="10"/>
<path d="M229.606 460.164H183.711V506.148C209.054 506.148 229.606 485.556 229.606 460.164Z" fill="#FF1345" stroke="white" stroke-miterlimit="10"/>
<path d="M91.9155 414.179C66.5721 414.179 46.0202 393.588 46.0202 368.195C46.0202 393.588 25.4684 414.179 0.125 414.179C25.4684 414.179 46.0202 434.771 46.0202 460.163C46.0202 434.771 66.5721 414.179 91.9155 414.179Z" fill="#FF1345" stroke="white" stroke-miterlimit="10"/>
<path d="M91.9187 414.179V368.195H46.0234C46.0234 393.588 66.5753 414.179 91.9187 414.179Z" fill="white"/>
<path d="M91.9187 414.18C66.5753 414.18 46.0234 434.771 46.0234 460.164H91.9187V414.18Z" fill="white"/>
<path d="M0.125 414.18V460.164H46.0202C46.0202 434.771 25.4684 414.18 0.125 414.18Z" fill="#FF1345" stroke="white" stroke-miterlimit="10"/>
<path d="M46.0202 368.195H0.125V414.179C25.4684 414.179 46.0202 393.588 46.0202 368.195Z" fill="#FF1345" stroke="white" stroke-miterlimit="10"/>
<path d="M183.712 414.179C158.369 414.179 137.817 393.588 137.817 368.195C137.817 393.588 117.265 414.179 91.9219 414.179C117.265 414.179 137.817 434.771 137.817 460.163C137.817 434.771 158.369 414.179 183.712 414.179Z" fill="#FF1345" stroke="white" stroke-miterlimit="10"/>
<path d="M183.708 414.179V368.195H137.812C137.812 393.588 158.364 414.179 183.708 414.179Z" fill="#FF1345" stroke="white" stroke-miterlimit="10"/>
<path d="M183.708 414.18C158.364 414.18 137.812 434.771 137.812 460.164H183.708V414.18Z" fill="#FF1345" stroke="white" stroke-miterlimit="10"/>
<path d="M91.9219 414.18V460.164H137.817C137.817 434.771 117.265 414.18 91.9219 414.18Z" fill="white"/>
<path d="M137.817 368.195H91.9219V414.179C117.265 414.179 137.817 393.588 137.817 368.195Z" fill="white"/>
<path d="M275.501 414.179C250.158 414.179 229.606 393.588 229.606 368.195C229.606 393.588 209.054 414.179 183.711 414.179C209.054 414.179 229.606 434.771 229.606 460.163C229.606 434.771 250.158 414.179 275.501 414.179Z" fill="#FF1345" stroke="white" stroke-miterlimit="10"/>
<path d="M275.505 414.179V368.195H229.609C229.609 393.588 250.161 414.179 275.505 414.179Z" fill="white"/>
<path d="M275.505 414.18C250.161 414.18 229.609 434.771 229.609 460.164H275.505V414.18Z" fill="#FF1345" stroke="white" stroke-miterlimit="10"/>
<path d="M183.711 414.18V460.164H229.606C229.606 434.771 209.054 414.18 183.711 414.18Z" fill="#FF1345" stroke="white" stroke-miterlimit="10"/>
<path d="M229.606 368.195H183.711V414.179C209.054 414.179 229.606 393.588 229.606 368.195Z" fill="#FF1345" stroke="white" stroke-miterlimit="10"/>
<path d="M91.9155 598.117C66.5721 598.117 46.0202 577.525 46.0202 552.133C46.0202 577.525 25.4684 598.117 0.125 598.117C25.4684 598.117 46.0202 618.708 46.0202 644.101C46.0202 618.708 66.5721 598.117 91.9155 598.117Z" fill="#FF1345" stroke="white" stroke-miterlimit="10"/>
<path d="M91.9187 598.117V552.133H46.0234C46.0234 577.525 66.5753 598.117 91.9187 598.117Z" fill="white"/>
<path d="M91.9187 598.117C66.5753 598.117 46.0234 618.709 46.0234 644.101H91.9187V598.117Z" fill="#FF1345" stroke="white" stroke-miterlimit="10"/>
<path d="M0.125 598.117V644.101H46.0202C46.0202 618.709 25.4684 598.117 0.125 598.117Z" fill="#FF1345" stroke="white" stroke-miterlimit="10"/>
<path d="M46.0202 552.133H0.125V598.117C25.4684 598.117 46.0202 577.525 46.0202 552.133Z" fill="#FF1345" stroke="white" stroke-miterlimit="10"/>
<path d="M183.712 598.117C158.369 598.117 137.817 577.525 137.817 552.133C137.817 577.525 117.265 598.117 91.9219 598.117C117.265 598.117 137.817 618.708 137.817 644.101C137.817 618.708 158.369 598.117 183.712 598.117Z" fill="#FF1345" stroke="white" stroke-miterlimit="10"/>
<path d="M183.708 598.117V552.133H137.812C137.812 577.525 158.364 598.117 183.708 598.117Z" fill="#FF1345" stroke="white" stroke-miterlimit="10"/>
<path d="M183.708 598.117C158.364 598.117 137.812 618.709 137.812 644.101H183.708V598.117Z" fill="white"/>
<path d="M91.9219 598.117V644.101H137.817C137.817 618.709 117.265 598.117 91.9219 598.117Z" fill="#FF1345" stroke="white" stroke-miterlimit="10"/>
<path d="M137.817 552.133H91.9219V598.117C117.265 598.117 137.817 577.525 137.817 552.133Z" fill="white"/>
<path d="M275.501 598.117C250.158 598.117 229.606 577.525 229.606 552.133C229.606 577.525 209.054 598.117 183.711 598.117C209.054 598.117 229.606 618.708 229.606 644.101C229.606 618.708 250.158 598.117 275.501 598.117Z" fill="#FF1345" stroke="white" stroke-miterlimit="10"/>
<path d="M275.505 598.117V552.133H229.609C229.609 577.525 250.161 598.117 275.505 598.117Z" fill="#FF1345" stroke="white" stroke-miterlimit="10"/>
<path d="M275.505 598.117C250.161 598.117 229.609 618.709 229.609 644.101H275.505V598.117Z" fill="white"/>
<path d="M183.711 598.117V644.101H229.606C229.606 618.709 209.054 598.117 183.711 598.117Z" fill="white"/>
<path d="M229.606 552.133H183.711V598.117C209.054 598.117 229.606 577.525 229.606 552.133Z" fill="#FF1345" stroke="white" stroke-miterlimit="10"/>
<path d="M91.9155 690.085C66.5721 690.085 46.0202 669.494 46.0202 644.102C46.0202 669.494 25.4684 690.085 0.125 690.085C25.4684 690.085 46.0202 710.677 46.0202 736.069C46.0202 710.677 66.5721 690.085 91.9155 690.085Z" fill="#FF1345" stroke="white" stroke-miterlimit="10"/>
<path d="M91.9187 690.085V644.102H46.0234C46.0234 669.494 66.5753 690.085 91.9187 690.085Z" fill="#FF1345" stroke="white" stroke-miterlimit="10"/>
<path d="M91.9187 690.086C66.5753 690.086 46.0234 710.678 46.0234 736.07H91.9187V690.086Z" fill="#FF1345" stroke="white" stroke-miterlimit="10"/>
<path d="M0.125 690.086V736.07H46.0202C46.0202 710.678 25.4684 690.086 0.125 690.086Z" fill="#FF1345" stroke="white" stroke-miterlimit="10"/>
<path d="M46.0202 644.102H0.125V690.085C25.4684 690.085 46.0202 669.494 46.0202 644.102Z" fill="#FF1345" stroke="white" stroke-miterlimit="10"/>
<path d="M183.712 690.085C158.369 690.085 137.817 669.494 137.817 644.102C137.817 669.494 117.265 690.085 91.9219 690.085C117.265 690.085 137.817 710.677 137.817 736.069C137.817 710.677 158.369 690.085 183.712 690.085Z" fill="#FF1345" stroke="white" stroke-miterlimit="10"/>
<path d="M183.708 690.085V644.102H137.812C137.812 669.494 158.364 690.085 183.708 690.085Z" fill="white"/>
<path d="M183.708 690.086C158.364 690.086 137.812 710.678 137.812 736.07H183.708V690.086Z" fill="#FF1345" stroke="white" stroke-miterlimit="10"/>
<path d="M91.9219 690.086V736.07H137.817C137.817 710.678 117.265 690.086 91.9219 690.086Z" fill="#FF1345" stroke="white" stroke-miterlimit="10"/>
<path d="M137.817 644.102H91.9219V690.085C117.265 690.085 137.817 669.494 137.817 644.102Z" fill="#FF1345" stroke="white" stroke-miterlimit="10"/>
<path d="M275.501 690.085C250.158 690.085 229.606 669.494 229.606 644.102C229.606 669.494 209.054 690.085 183.711 690.085C209.054 690.085 229.606 710.677 229.606 736.069C229.606 710.677 250.158 690.085 275.501 690.085Z" fill="#FF1345" stroke="white" stroke-miterlimit="10"/>
<path d="M275.505 690.085V644.102H229.609C229.609 669.494 250.161 690.085 275.505 690.085Z" fill="white"/>
<path d="M275.505 690.086C250.161 690.086 229.609 710.678 229.609 736.07H275.505V690.086Z" fill="#FF1345" stroke="white" stroke-miterlimit="10"/>
<path d="M183.711 690.086V736.07H229.606C229.606 710.678 209.054 690.086 183.711 690.086Z" fill="#FF1345" stroke="white" stroke-miterlimit="10"/>
<path d="M229.606 644.102H183.711V690.085C209.054 690.085 229.606 669.494 229.606 644.102Z" fill="white"/>
<path d="M367.29 506.148C341.947 506.148 321.395 485.556 321.395 460.164C321.395 485.556 300.843 506.148 275.5 506.148C300.843 506.148 321.395 526.74 321.395 552.132C321.395 526.74 341.947 506.148 367.29 506.148Z" fill="#FF1345" stroke="white" stroke-miterlimit="10"/>
<path d="M367.286 506.148V460.164H321.391C321.391 485.556 341.943 506.148 367.286 506.148Z" fill="#FF1345" stroke="white" stroke-miterlimit="10"/>
<path d="M367.286 506.148C341.943 506.148 321.391 526.74 321.391 552.132H367.286V506.148Z" fill="#FF1345" stroke="white" stroke-miterlimit="10"/>
<path d="M275.5 506.148V552.132H321.395C321.395 526.74 300.843 506.148 275.5 506.148Z" fill="#FF1345" stroke="white" stroke-miterlimit="10"/>
<path d="M321.395 460.164H275.5V506.148C300.843 506.148 321.395 485.556 321.395 460.164Z" fill="#FF1345" stroke="white" stroke-miterlimit="10"/>
<path d="M459.08 506.148C433.736 506.148 413.184 485.556 413.184 460.164C413.184 485.556 392.632 506.148 367.289 506.148C392.632 506.148 413.184 526.74 413.184 552.132C413.184 526.74 433.736 506.148 459.08 506.148Z" fill="#FF1345" stroke="white" stroke-miterlimit="10"/>
<path d="M459.075 506.148V460.164H413.18C413.18 485.556 433.732 506.148 459.075 506.148Z" fill="white"/>
<path d="M459.075 506.148C433.732 506.148 413.18 526.74 413.18 552.132H459.075V506.148Z" fill="white"/>
<path d="M367.289 506.148V552.132H413.184C413.184 526.74 392.632 506.148 367.289 506.148Z" fill="#FF1345" stroke="white" stroke-miterlimit="10"/>
<path d="M413.184 460.164H367.289V506.148C392.632 506.148 413.184 485.556 413.184 460.164Z" fill="#FF1345" stroke="white" stroke-miterlimit="10"/>
<path d="M550.869 506.148C525.525 506.148 504.973 485.556 504.973 460.164C504.973 485.556 484.421 506.148 459.078 506.148C484.421 506.148 504.973 526.74 504.973 552.132C504.973 526.74 525.525 506.148 550.869 506.148Z" fill="#FF1345" stroke="white" stroke-miterlimit="10"/>
<path d="M550.872 506.148V460.164H504.977C504.977 485.556 525.528 506.148 550.872 506.148Z" fill="#FF1345" stroke="white" stroke-miterlimit="10"/>
<path d="M550.872 506.148C525.528 506.148 504.977 526.74 504.977 552.132H550.872V506.148Z" fill="#FF1345" stroke="white" stroke-miterlimit="10"/>
<path d="M459.078 506.148V552.132H504.973C504.973 526.74 484.421 506.148 459.078 506.148Z" fill="white"/>
<path d="M504.973 460.164H459.078V506.148C484.421 506.148 504.973 485.556 504.973 460.164Z" fill="white"/>
<path d="M367.29 414.179C341.947 414.179 321.395 393.588 321.395 368.195C321.395 393.588 300.843 414.179 275.5 414.179C300.843 414.179 321.395 434.771 321.395 460.163C321.395 434.771 341.947 414.179 367.29 414.179Z" fill="#FF1345" stroke="white" stroke-miterlimit="10"/>
<path d="M367.286 414.179V368.195H321.391C321.391 393.588 341.943 414.179 367.286 414.179Z" fill="white"/>
<path d="M367.286 414.18C341.943 414.18 321.391 434.771 321.391 460.164H367.286V414.18Z" fill="#FF1345" stroke="white" stroke-miterlimit="10"/>
<path d="M275.5 414.18V460.164H321.395C321.395 434.771 300.843 414.18 275.5 414.18Z" fill="#FF1345" stroke="white" stroke-miterlimit="10"/>
<path d="M321.395 368.195H275.5V414.179C300.843 414.179 321.395 393.588 321.395 368.195Z" fill="white"/>
<path d="M459.08 414.179C433.736 414.179 413.184 393.588 413.184 368.195C413.184 393.588 392.632 414.179 367.289 414.179C392.632 414.179 413.184 434.771 413.184 460.163C413.184 434.771 433.736 414.179 459.08 414.179Z" fill="#FF1345" stroke="white" stroke-miterlimit="10"/>
<path d="M459.075 414.179V368.195H413.18C413.18 393.588 433.732 414.179 459.075 414.179Z" fill="#FF1345" stroke="white" stroke-miterlimit="10"/>
<path d="M459.075 414.18C433.732 414.18 413.18 434.771 413.18 460.164H459.075V414.18Z" fill="white"/>
<path d="M367.289 414.18V460.164H413.184C413.184 434.771 392.632 414.18 367.289 414.18Z" fill="#FF1345" stroke="white" stroke-miterlimit="10"/>
<path d="M413.184 368.195H367.289V414.179C392.632 414.179 413.184 393.588 413.184 368.195Z" fill="white"/>
<path d="M550.869 414.179C525.525 414.179 504.973 393.588 504.973 368.195C504.973 393.588 484.421 414.179 459.078 414.179C484.421 414.179 504.973 434.771 504.973 460.163C504.973 434.771 525.525 414.179 550.869 414.179Z" fill="#FF1345" stroke="white" stroke-miterlimit="10"/>
<path d="M550.872 414.179V368.195H504.977C504.977 393.588 525.528 414.179 550.872 414.179Z" fill="#FF1345" stroke="white" stroke-miterlimit="10"/>
<path d="M550.872 414.18C525.528 414.18 504.977 434.771 504.977 460.164H550.872V414.18Z" fill="#FF1345" stroke="white" stroke-miterlimit="10"/>
<path d="M459.078 414.18V460.164H504.973C504.973 434.771 484.421 414.18 459.078 414.18Z" fill="white"/>
<path d="M504.973 368.195H459.078V414.179C484.421 414.179 504.973 393.588 504.973 368.195Z" fill="#FF1345" stroke="white" stroke-miterlimit="10"/>
<path d="M367.29 598.117C341.947 598.117 321.395 577.525 321.395 552.133C321.395 577.525 300.843 598.117 275.5 598.117C300.843 598.117 321.395 618.708 321.395 644.101C321.395 618.708 341.947 598.117 367.29 598.117Z" fill="#FF1345" stroke="white" stroke-miterlimit="10"/>
<path d="M367.286 598.117V552.133H321.391C321.391 577.525 341.943 598.117 367.286 598.117Z" fill="#FF1345" stroke="white" stroke-miterlimit="10"/>
<path d="M367.286 598.117C341.943 598.117 321.391 618.709 321.391 644.101H367.286V598.117Z" fill="white"/>
<path d="M275.5 598.117V644.101H321.395C321.395 618.709 300.843 598.117 275.5 598.117Z" fill="white"/>
<path d="M321.395 552.133H275.5V598.117C300.843 598.117 321.395 577.525 321.395 552.133Z" fill="#FF1345" stroke="white" stroke-miterlimit="10"/>
<path d="M459.08 598.117C433.736 598.117 413.184 577.525 413.184 552.133C413.184 577.525 392.632 598.117 367.289 598.117C392.632 598.117 413.184 618.708 413.184 644.101C413.184 618.708 433.736 598.117 459.08 598.117Z" fill="#FF1345" stroke="white" stroke-miterlimit="10"/>
<path d="M459.075 598.117V552.133H413.18C413.18 577.525 433.732 598.117 459.075 598.117Z" fill="white"/>
<path d="M459.075 598.117C433.732 598.117 413.18 618.709 413.18 644.101H459.075V598.117Z" fill="#FF1345" stroke="white" stroke-miterlimit="10"/>
<path d="M367.289 598.117V644.101H413.184C413.184 618.709 392.632 598.117 367.289 598.117Z" fill="white"/>
<path d="M413.184 552.133H367.289V598.117C392.632 598.117 413.184 577.525 413.184 552.133Z" fill="#FF1345" stroke="white" stroke-miterlimit="10"/>
<path d="M550.869 598.117C525.525 598.117 504.973 577.525 504.973 552.133C504.973 577.525 484.421 598.117 459.078 598.117C484.421 598.117 504.973 618.708 504.973 644.101C504.973 618.708 525.525 598.117 550.869 598.117Z" fill="#FF1345" stroke="white" stroke-miterlimit="10"/>
<path d="M550.872 598.117V552.133H504.977C504.977 577.525 525.528 598.117 550.872 598.117Z" fill="#FF1345" stroke="white" stroke-miterlimit="10"/>
<path d="M550.872 598.117C525.528 598.117 504.977 618.709 504.977 644.101H550.872V598.117Z" fill="#FF1345" stroke="white" stroke-miterlimit="10"/>
<path d="M459.078 598.117V644.101H504.973C504.973 618.709 484.421 598.117 459.078 598.117Z" fill="#FF1345" stroke="white" stroke-miterlimit="10"/>
<path d="M504.973 552.133H459.078V598.117C484.421 598.117 504.973 577.525 504.973 552.133Z" fill="white"/>
<path d="M367.29 690.085C341.947 690.085 321.395 669.494 321.395 644.102C321.395 669.494 300.843 690.085 275.5 690.085C300.843 690.085 321.395 710.677 321.395 736.069C321.395 710.677 341.947 690.085 367.29 690.085Z" fill="#FF1345" stroke="white" stroke-miterlimit="10"/>
<path d="M367.286 690.085V644.102H321.391C321.391 669.494 341.943 690.085 367.286 690.085Z" fill="white"/>
<path d="M367.286 690.086C341.943 690.086 321.391 710.678 321.391 736.07H367.286V690.086Z" fill="#FF1345" stroke="white" stroke-miterlimit="10"/>
<path d="M275.5 690.086V736.07H321.395C321.395 710.678 300.843 690.086 275.5 690.086Z" fill="#FF1345" stroke="white" stroke-miterlimit="10"/>
<path d="M321.395 644.102H275.5V690.085C300.843 690.085 321.395 669.494 321.395 644.102Z" fill="white"/>
<path d="M459.08 690.085C433.736 690.085 413.184 669.494 413.184 644.102C413.184 669.494 392.632 690.085 367.289 690.085C392.632 690.085 413.184 710.677 413.184 736.069C413.184 710.677 433.736 690.085 459.08 690.085Z" fill="#FF1345" stroke="white" stroke-miterlimit="10"/>
<path d="M459.075 690.085V644.102H413.18C413.18 669.494 433.732 690.085 459.075 690.085Z" fill="#FF1345" stroke="white" stroke-miterlimit="10"/>
<path d="M459.075 690.086C433.732 690.086 413.18 710.678 413.18 736.07H459.075V690.086Z" fill="#FF1345" stroke="white" stroke-miterlimit="10"/>
<path d="M367.289 690.086V736.07H413.184C413.184 710.678 392.632 690.086 367.289 690.086Z" fill="#FF1345" stroke="white" stroke-miterlimit="10"/>
<path d="M413.184 644.102H367.289V690.085C392.632 690.085 413.184 669.494 413.184 644.102Z" fill="white"/>
<path d="M550.869 690.085C525.525 690.085 504.973 669.494 504.973 644.102C504.973 669.494 484.421 690.085 459.078 690.085C484.421 690.085 504.973 710.677 504.973 736.069C504.973 710.677 525.525 690.085 550.869 690.085Z" fill="#FF1345" stroke="white" stroke-miterlimit="10"/>
<path d="M550.872 690.085V644.102H504.977C504.977 669.494 525.528 690.085 550.872 690.085Z" fill="#FF1345" stroke="white" stroke-miterlimit="10"/>
<path d="M550.872 690.086C525.528 690.086 504.977 710.678 504.977 736.07H550.872V690.086Z" fill="#FF1345" stroke="white" stroke-miterlimit="10"/>
<path d="M459.078 690.086V736.07H504.973C504.973 710.678 484.421 690.086 459.078 690.086Z" fill="#FF1345" stroke="white" stroke-miterlimit="10"/>
<path d="M504.973 644.102H459.078V690.085C484.421 690.085 504.973 669.494 504.973 644.102Z" fill="#FF1345" stroke="white" stroke-miterlimit="10"/>
<path d="M91.9155 138.273C66.5721 138.273 46.0202 117.681 46.0202 92.2891C46.0202 117.681 25.4684 138.273 0.125 138.273C25.4684 138.273 46.0202 158.865 46.0202 184.257C46.0202 158.865 66.5721 138.273 91.9155 138.273Z" fill="#FF1345" stroke="white" stroke-miterlimit="10"/>
<path d="M91.9187 138.273V92.2891H46.0234C46.0234 117.681 66.5753 138.273 91.9187 138.273Z" fill="#FF1345" stroke="white" stroke-miterlimit="10"/>
<path d="M91.9187 138.273C66.5753 138.273 46.0234 158.865 46.0234 184.257H91.9187V138.273Z" fill="white"/>
<path d="M0.125 138.273V184.257H46.0202C46.0202 158.865 25.4684 138.273 0.125 138.273Z" fill="#FF1345" stroke="white" stroke-miterlimit="10"/>
<path d="M46.0202 92.2891H0.125V138.273C25.4684 138.273 46.0202 117.681 46.0202 92.2891Z" fill="#FF1345" stroke="white" stroke-miterlimit="10"/>
<path d="M183.712 138.273C158.369 138.273 137.817 117.681 137.817 92.2891C137.817 117.681 117.265 138.273 91.9219 138.273C117.265 138.273 137.817 158.865 137.817 184.257C137.817 158.865 158.369 138.273 183.712 138.273Z" fill="#FF1345" stroke="white" stroke-miterlimit="10"/>
<path d="M183.708 138.273V92.2891H137.812C137.812 117.681 158.364 138.273 183.708 138.273Z" fill="white"/>
<path d="M183.708 138.273C158.364 138.273 137.812 158.865 137.812 184.257H183.708V138.273Z" fill="#FF1345" stroke="white" stroke-miterlimit="10"/>
<path d="M91.9219 138.273V184.257H137.817C137.817 158.865 117.265 138.273 91.9219 138.273Z" fill="white"/>
<path d="M137.817 92.2891H91.9219V138.273C117.265 138.273 137.817 117.681 137.817 92.2891Z" fill="#FF1345" stroke="white" stroke-miterlimit="10"/>
<path d="M275.501 138.273C250.158 138.273 229.606 117.681 229.606 92.2891C229.606 117.681 209.054 138.273 183.711 138.273C209.054 138.273 229.606 158.865 229.606 184.257C229.606 158.865 250.158 138.273 275.501 138.273Z" fill="#FF1345" stroke="white" stroke-miterlimit="10"/>
<path d="M275.505 138.273V92.2891H229.609C229.609 117.681 250.161 138.273 275.505 138.273Z" fill="white"/>
<path d="M275.505 138.273C250.161 138.273 229.609 158.865 229.609 184.257H275.505V138.273Z" fill="#FF1345" stroke="white" stroke-miterlimit="10"/>
<path d="M183.711 138.273V184.257H229.606C229.606 158.865 209.054 138.273 183.711 138.273Z" fill="#FF1345" stroke="white" stroke-miterlimit="10"/>
<path d="M229.606 92.2891H183.711V138.273C209.054 138.273 229.606 117.681 229.606 92.2891Z" fill="white"/>
<path d="M91.9155 46.3042C66.5721 46.3042 46.0202 25.7126 46.0202 0.320312C46.0202 25.7126 25.4684 46.3042 0.125 46.3042C25.4684 46.3042 46.0202 66.8958 46.0202 92.2881C46.0202 66.8958 66.5721 46.3042 91.9155 46.3042Z" fill="#FF1345" stroke="white" stroke-miterlimit="10"/>
<path d="M91.9187 46.3042V0.320312H46.0234C46.0234 25.7126 66.5753 46.3042 91.9187 46.3042Z" fill="#FF1345" stroke="white" stroke-miterlimit="10"/>
<path d="M91.9187 46.3047C66.5753 46.3047 46.0234 66.8963 46.0234 92.2886H91.9187V46.3047Z" fill="#FF1345" stroke="white" stroke-miterlimit="10"/>
<path d="M0.125 46.3047V92.2886H46.0202C46.0202 66.8963 25.4684 46.3047 0.125 46.3047Z" fill="#FF1345" stroke="white" stroke-miterlimit="10"/>
<path d="M46.0202 0.320312H0.125V46.3042C25.4684 46.3042 46.0202 25.7126 46.0202 0.320312Z" fill="#FF1345" stroke="white" stroke-miterlimit="10"/>
<path d="M183.712 46.3042C158.369 46.3042 137.817 25.7126 137.817 0.320312C137.817 25.7126 117.265 46.3042 91.9219 46.3042C117.265 46.3042 137.817 66.8958 137.817 92.2881C137.817 66.8958 158.369 46.3042 183.712 46.3042Z" fill="#FF1345" stroke="white" stroke-miterlimit="10"/>
<path d="M183.708 46.3042V0.320312H137.812C137.812 25.7126 158.364 46.3042 183.708 46.3042Z" fill="#FF1345" stroke="white" stroke-miterlimit="10"/>
<path d="M183.708 46.3047C158.364 46.3047 137.812 66.8963 137.812 92.2886H183.708V46.3047Z" fill="white"/>
<path d="M91.9219 46.3047V92.2886H137.817C137.817 66.8963 117.265 46.3047 91.9219 46.3047Z" fill="#FF1345" stroke="white" stroke-miterlimit="10"/>
<path d="M137.817 0.320312H91.9219V46.3042C117.265 46.3042 137.817 25.7126 137.817 0.320312Z" fill="#FF1345" stroke="white" stroke-miterlimit="10"/>
<path d="M275.501 46.3042C250.158 46.3042 229.606 25.7126 229.606 0.320312C229.606 25.7126 209.054 46.3042 183.711 46.3042C209.054 46.3042 229.606 66.8958 229.606 92.2881C229.606 66.8958 250.158 46.3042 275.501 46.3042Z" fill="#FF1345" stroke="white" stroke-miterlimit="10"/>
<path d="M275.505 46.3042V0.320312H229.609C229.609 25.7126 250.161 46.3042 275.505 46.3042Z" fill="#FF1345" stroke="white" stroke-miterlimit="10"/>
<path d="M275.505 46.3047C250.161 46.3047 229.609 66.8963 229.609 92.2886H275.505V46.3047Z" fill="white"/>
<path d="M183.711 46.3047V92.2886H229.606C229.606 66.8963 209.054 46.3047 183.711 46.3047Z" fill="white"/>
<path d="M229.606 0.320312H183.711V46.3042C209.054 46.3042 229.606 25.7126 229.606 0.320312Z" fill="#FF1345" stroke="white" stroke-miterlimit="10"/>
<path d="M91.9155 230.242C66.5721 230.242 46.0202 209.65 46.0202 184.258C46.0202 209.65 25.4684 230.242 0.125 230.242C25.4684 230.242 46.0202 250.833 46.0202 276.226C46.0202 250.833 66.5721 230.242 91.9155 230.242Z" fill="#FF1345" stroke="white" stroke-miterlimit="10"/>
<path d="M91.9187 230.242V184.258H46.0234C46.0234 209.65 66.5753 230.242 91.9187 230.242Z" fill="white"/>
<path d="M91.9187 230.242C66.5753 230.242 46.0234 250.834 46.0234 276.226H91.9187V230.242Z" fill="white"/>
<path d="M0.125 230.242V276.226H46.0202C46.0202 250.834 25.4684 230.242 0.125 230.242Z" fill="#FF1345" stroke="white" stroke-miterlimit="10"/>
<path d="M46.0202 184.258H0.125V230.242C25.4684 230.242 46.0202 209.65 46.0202 184.258Z" fill="#FF1345" stroke="white" stroke-miterlimit="10"/>
<path d="M183.712 230.242C158.369 230.242 137.817 209.65 137.817 184.258C137.817 209.65 117.265 230.242 91.9219 230.242C117.265 230.242 137.817 250.833 137.817 276.226C137.817 250.833 158.369 230.242 183.712 230.242Z" fill="#FF1345" stroke="white" stroke-miterlimit="10"/>
<path d="M183.708 230.242V184.258H137.812C137.812 209.65 158.364 230.242 183.708 230.242Z" fill="#FF1345" stroke="white" stroke-miterlimit="10"/>
<path d="M183.708 230.242C158.364 230.242 137.812 250.834 137.812 276.226H183.708V230.242Z" fill="#FF1345" stroke="white" stroke-miterlimit="10"/>
<path d="M91.9219 230.242V276.226H137.817C137.817 250.834 117.265 230.242 91.9219 230.242Z" fill="white"/>
<path d="M137.817 184.258H91.9219V230.242C117.265 230.242 137.817 209.65 137.817 184.258Z" fill="white"/>
<path d="M275.501 230.242C250.158 230.242 229.606 209.65 229.606 184.258C229.606 209.65 209.054 230.242 183.711 230.242C209.054 230.242 229.606 250.833 229.606 276.226C229.606 250.833 250.158 230.242 275.501 230.242Z" fill="#FF1345" stroke="white" stroke-miterlimit="10"/>
<path d="M275.505 230.242V184.258H229.609C229.609 209.65 250.161 230.242 275.505 230.242Z" fill="#FF1345" stroke="white" stroke-miterlimit="10"/>
<path d="M275.505 230.242C250.161 230.242 229.609 250.834 229.609 276.226H275.505V230.242Z" fill="#FF1345" stroke="white" stroke-miterlimit="10"/>
<path d="M183.711 230.242V276.226H229.606C229.606 250.834 209.054 230.242 183.711 230.242Z" fill="#FF1345" stroke="white" stroke-miterlimit="10"/>
<path d="M229.606 184.258H183.711V230.242C209.054 230.242 229.606 209.65 229.606 184.258Z" fill="#FF1345" stroke="white" stroke-miterlimit="10"/>
<path d="M91.9155 322.21C66.5721 322.21 46.0202 301.619 46.0202 276.227C46.0202 301.619 25.4684 322.21 0.125 322.21C25.4684 322.21 46.0202 342.802 46.0202 368.194C46.0202 342.802 66.5721 322.21 91.9155 322.21Z" fill="#FF1345" stroke="white" stroke-miterlimit="10"/>
<path d="M91.9187 322.21V276.227H46.0234C46.0234 301.619 66.5753 322.21 91.9187 322.21Z" fill="white"/>
<path d="M91.9187 322.211C66.5753 322.211 46.0234 342.803 46.0234 368.195H91.9187V322.211Z" fill="white"/>
<path d="M0.125 322.211V368.195H46.0202C46.0202 342.803 25.4684 322.211 0.125 322.211Z" fill="#FF1345" stroke="white" stroke-miterlimit="10"/>
<path d="M46.0202 276.227H0.125V322.21C25.4684 322.21 46.0202 301.619 46.0202 276.227Z" fill="#FF1345" stroke="white" stroke-miterlimit="10"/>
<path d="M183.712 322.21C158.369 322.21 137.817 301.619 137.817 276.227C137.817 301.619 117.265 322.21 91.9219 322.21C117.265 322.21 137.817 342.802 137.817 368.194C137.817 342.802 158.369 322.21 183.712 322.21Z" fill="#FF1345" stroke="white" stroke-miterlimit="10"/>
<path d="M183.708 322.21V276.227H137.812C137.812 301.619 158.364 322.21 183.708 322.21Z" fill="#FF1345" stroke="white" stroke-miterlimit="10"/>
<path d="M183.708 322.211C158.364 322.211 137.812 342.803 137.812 368.195H183.708V322.211Z" fill="#FF1345" stroke="white" stroke-miterlimit="10"/>
<path d="M91.9219 322.211V368.195H137.817C137.817 342.803 117.265 322.211 91.9219 322.211Z" fill="white"/>
<path d="M137.817 276.227H91.9219V322.21C117.265 322.21 137.817 301.619 137.817 276.227Z" fill="white"/>
<path d="M275.501 322.21C250.158 322.21 229.606 301.619 229.606 276.227C229.606 301.619 209.054 322.21 183.711 322.21C209.054 322.21 229.606 342.802 229.606 368.194C229.606 342.802 250.158 322.21 275.501 322.21Z" fill="#FF1345" stroke="white" stroke-miterlimit="10"/>
<path d="M275.505 322.21V276.227H229.609C229.609 301.619 250.161 322.21 275.505 322.21Z" fill="#FF1345" stroke="white" stroke-miterlimit="10"/>
<path d="M275.505 322.211C250.161 322.211 229.609 342.803 229.609 368.195H275.505V322.211Z" fill="white"/>
<path d="M183.711 322.211V368.195H229.606C229.606 342.803 209.054 322.211 183.711 322.211Z" fill="#FF1345" stroke="white" stroke-miterlimit="10"/>
<path d="M229.606 276.227H183.711V322.21C209.054 322.21 229.606 301.619 229.606 276.227Z" fill="#FF1345" stroke="white" stroke-miterlimit="10"/>
<path d="M367.29 138.273C341.947 138.273 321.395 117.681 321.395 92.2891C321.395 117.681 300.843 138.273 275.5 138.273C300.843 138.273 321.395 158.865 321.395 184.257C321.395 158.865 341.947 138.273 367.29 138.273Z" fill="#FF1345" stroke="white" stroke-miterlimit="10"/>
<path d="M367.286 138.273V92.2891H321.391C321.391 117.681 341.943 138.273 367.286 138.273Z" fill="white"/>
<path d="M367.286 138.273C341.943 138.273 321.391 158.865 321.391 184.257H367.286V138.273Z" fill="#FF1345" stroke="white" stroke-miterlimit="10"/>
<path d="M275.5 138.273V184.257H321.395C321.395 158.865 300.843 138.273 275.5 138.273Z" fill="#FF1345" stroke="white" stroke-miterlimit="10"/>
<path d="M321.395 92.2891H275.5V138.273C300.843 138.273 321.395 117.681 321.395 92.2891Z" fill="white"/>
<path d="M459.08 138.273C433.736 138.273 413.184 117.681 413.184 92.2891C413.184 117.681 392.632 138.273 367.289 138.273C392.632 138.273 413.184 158.865 413.184 184.257C413.184 158.865 433.736 138.273 459.08 138.273Z" fill="#FF1345" stroke="white" stroke-miterlimit="10"/>
<path d="M459.075 138.273V92.2891H413.18C413.18 117.681 433.732 138.273 459.075 138.273Z" fill="#FF1345" stroke="white" stroke-miterlimit="10"/>
<path d="M459.075 138.273C433.732 138.273 413.18 158.865 413.18 184.257H459.075V138.273Z" fill="white"/>
<path d="M367.289 138.273V184.257H413.184C413.184 158.865 392.632 138.273 367.289 138.273Z" fill="#FF1345" stroke="white" stroke-miterlimit="10"/>
<path d="M413.184 92.2891H367.289V138.273C392.632 138.273 413.184 117.681 413.184 92.2891Z" fill="white"/>
<path d="M550.869 138.273C525.525 138.273 504.973 117.681 504.973 92.2891C504.973 117.681 484.421 138.273 459.078 138.273C484.421 138.273 504.973 158.865 504.973 184.257C504.973 158.865 525.525 138.273 550.869 138.273Z" fill="#FF1345" stroke="white" stroke-miterlimit="10"/>
<path d="M550.872 138.273V92.2891H504.977C504.977 117.681 525.528 138.273 550.872 138.273Z" fill="#FF1345" stroke="white" stroke-miterlimit="10"/>
<path d="M550.872 138.273C525.528 138.273 504.977 158.865 504.977 184.257H550.872V138.273Z" fill="#FF1345" stroke="white" stroke-miterlimit="10"/>
<path d="M459.078 138.273V184.257H504.973C504.973 158.865 484.421 138.273 459.078 138.273Z" fill="white"/>
<path d="M504.973 92.2891H459.078V138.273C484.421 138.273 504.973 117.681 504.973 92.2891Z" fill="#FF1345" stroke="white" stroke-miterlimit="10"/>
<path d="M367.29 46.3042C341.947 46.3042 321.395 25.7126 321.395 0.320312C321.395 25.7126 300.843 46.3042 275.5 46.3042C300.843 46.3042 321.395 66.8958 321.395 92.2881C321.395 66.8958 341.947 46.3042 367.29 46.3042Z" fill="#FF1345" stroke="white" stroke-miterlimit="10"/>
<path d="M367.286 46.3042V0.320312H321.391C321.391 25.7126 341.943 46.3042 367.286 46.3042Z" fill="#FF1345" stroke="white" stroke-miterlimit="10"/>
<path d="M367.286 46.3047C341.943 46.3047 321.391 66.8963 321.391 92.2886H367.286V46.3047Z" fill="white"/>
<path d="M275.5 46.3047V92.2886H321.395C321.395 66.8963 300.843 46.3047 275.5 46.3047Z" fill="white"/>
<path d="M321.395 0.320312H275.5V46.3042C300.843 46.3042 321.395 25.7126 321.395 0.320312Z" fill="#FF1345" stroke="white" stroke-miterlimit="10"/>
<path d="M459.08 46.3042C433.736 46.3042 413.184 25.7126 413.184 0.320312C413.184 25.7126 392.632 46.3042 367.289 46.3042C392.632 46.3042 413.184 66.8958 413.184 92.2881C413.184 66.8958 433.736 46.3042 459.08 46.3042Z" fill="#FF1345" stroke="white" stroke-miterlimit="10"/>
<path d="M459.075 46.3042V0.320312H413.18C413.18 25.7126 433.732 46.3042 459.075 46.3042Z" fill="#FF1345" stroke="white" stroke-miterlimit="10"/>
<path d="M459.075 46.3047C433.732 46.3047 413.18 66.8963 413.18 92.2886H459.075V46.3047Z" fill="#FF1345" stroke="white" stroke-miterlimit="10"/>
<path d="M367.289 46.3047V92.2886H413.184C413.184 66.8963 392.632 46.3047 367.289 46.3047Z" fill="white"/>
<path d="M413.184 0.320312H367.289V46.3042C392.632 46.3042 413.184 25.7126 413.184 0.320312Z" fill="#FF1345" stroke="white" stroke-miterlimit="10"/>
<path d="M550.869 46.3042C525.525 46.3042 504.973 25.7126 504.973 0.320312C504.973 25.7126 484.421 46.3042 459.078 46.3042C484.421 46.3042 504.973 66.8958 504.973 92.2881C504.973 66.8958 525.525 46.3042 550.869 46.3042Z" fill="#FF1345" stroke="white" stroke-miterlimit="10"/>
<path d="M550.872 46.3042V0.320312H504.977C504.977 25.7126 525.528 46.3042 550.872 46.3042Z" fill="#FF1345" stroke="white" stroke-miterlimit="10"/>
<path d="M550.872 46.3047C525.528 46.3047 504.977 66.8963 504.977 92.2886H550.872V46.3047Z" fill="#FF1345" stroke="white" stroke-miterlimit="10"/>
<path d="M459.078 46.3047V92.2886H504.973C504.973 66.8963 484.421 46.3047 459.078 46.3047Z" fill="#FF1345" stroke="white" stroke-miterlimit="10"/>
<path d="M504.973 0.320312H459.078V46.3042C484.421 46.3042 504.973 25.7126 504.973 0.320312Z" fill="#FF1345" stroke="white" stroke-miterlimit="10"/>
<path d="M367.29 230.242C341.947 230.242 321.395 209.65 321.395 184.258C321.395 209.65 300.843 230.242 275.5 230.242C300.843 230.242 321.395 250.833 321.395 276.226C321.395 250.833 341.947 230.242 367.29 230.242Z" fill="#FF1345" stroke="white" stroke-miterlimit="10"/>
<path d="M367.286 230.242V184.258H321.391C321.391 209.65 341.943 230.242 367.286 230.242Z" fill="#FF1345" stroke="white" stroke-miterlimit="10"/>
<path d="M367.286 230.242C341.943 230.242 321.391 250.834 321.391 276.226H367.286V230.242Z" fill="#FF1345" stroke="white" stroke-miterlimit="10"/>
<path d="M275.5 230.242V276.226H321.395C321.395 250.834 300.843 230.242 275.5 230.242Z" fill="#FF1345" stroke="white" stroke-miterlimit="10"/>
<path d="M321.395 184.258H275.5V230.242C300.843 230.242 321.395 209.65 321.395 184.258Z" fill="#FF1345" stroke="white" stroke-miterlimit="10"/>
<path d="M459.08 230.242C433.736 230.242 413.184 209.65 413.184 184.258C413.184 209.65 392.632 230.242 367.289 230.242C392.632 230.242 413.184 250.833 413.184 276.226C413.184 250.833 433.736 230.242 459.08 230.242Z" fill="#FF1345" stroke="white" stroke-miterlimit="10"/>
<path d="M459.075 230.242V184.258H413.18C413.18 209.65 433.732 230.242 459.075 230.242Z" fill="white"/>
<path d="M459.075 230.242C433.732 230.242 413.18 250.834 413.18 276.226H459.075V230.242Z" fill="white"/>
<path d="M367.289 230.242V276.226H413.184C413.184 250.834 392.632 230.242 367.289 230.242Z" fill="#FF1345" stroke="white" stroke-miterlimit="10"/>
<path d="M413.184 184.258H367.289V230.242C392.632 230.242 413.184 209.65 413.184 184.258Z" fill="#FF1345" stroke="white" stroke-miterlimit="10"/>
<path d="M550.869 230.242C525.525 230.242 504.973 209.65 504.973 184.258C504.973 209.65 484.421 230.242 459.078 230.242C484.421 230.242 504.973 250.833 504.973 276.226C504.973 250.833 525.525 230.242 550.869 230.242Z" fill="#FF1345" stroke="white" stroke-miterlimit="10"/>
<path d="M550.872 230.242V184.258H504.977C504.977 209.65 525.528 230.242 550.872 230.242Z" fill="#FF1345" stroke="white" stroke-miterlimit="10"/>
<path d="M550.872 230.242C525.528 230.242 504.977 250.834 504.977 276.226H550.872V230.242Z" fill="#FF1345" stroke="white" stroke-miterlimit="10"/>
<path d="M459.078 230.242V276.226H504.973C504.973 250.834 484.421 230.242 459.078 230.242Z" fill="white"/>
<path d="M504.973 184.258H459.078V230.242C484.421 230.242 504.973 209.65 504.973 184.258Z" fill="white"/>
<path d="M367.29 322.21C341.947 322.21 321.395 301.619 321.395 276.227C321.395 301.619 300.843 322.21 275.5 322.21C300.843 322.21 321.395 342.802 321.395 368.194C321.395 342.802 341.947 322.21 367.29 322.21Z" fill="#FF1345" stroke="white" stroke-miterlimit="10"/>
<path d="M367.286 322.21V276.227H321.391C321.391 301.619 341.943 322.21 367.286 322.21Z" fill="#FF1345" stroke="white" stroke-miterlimit="10"/>
<path d="M367.286 322.211C341.943 322.211 321.391 342.803 321.391 368.195H367.286V322.211Z" fill="white"/>
<path d="M275.5 322.211V368.195H321.395C321.395 342.803 300.843 322.211 275.5 322.211Z" fill="white"/>
<path d="M321.395 276.227H275.5V322.21C300.843 322.21 321.395 301.619 321.395 276.227Z" fill="#FF1345" stroke="white" stroke-miterlimit="10"/>
<path d="M459.08 322.21C433.736 322.21 413.184 301.619 413.184 276.227C413.184 301.619 392.632 322.21 367.289 322.21C392.632 322.21 413.184 342.802 413.184 368.194C413.184 342.802 433.736 322.21 459.08 322.21Z" fill="#FF1345" stroke="white" stroke-miterlimit="10"/>
<path d="M459.075 322.21V276.227H413.18C413.18 301.619 433.732 322.21 459.075 322.21Z" fill="white"/>
<path d="M459.075 322.211C433.732 322.211 413.18 342.803 413.18 368.195H459.075V322.211Z" fill="#FF1345" stroke="white" stroke-miterlimit="10"/>
<path d="M367.289 322.211V368.195H413.184C413.184 342.803 392.632 322.211 367.289 322.211Z" fill="white"/>
<path d="M413.184 276.227H367.289V322.21C392.632 322.21 413.184 301.619 413.184 276.227Z" fill="#FF1345" stroke="white" stroke-miterlimit="10"/>
<path d="M550.869 322.21C525.525 322.21 504.973 301.619 504.973 276.227C504.973 301.619 484.421 322.21 459.078 322.21C484.421 322.21 504.973 342.802 504.973 368.194C504.973 342.802 525.525 322.21 550.869 322.21Z" fill="#FF1345" stroke="white" stroke-miterlimit="10"/>
<path d="M550.872 322.21V276.227H504.977C504.977 301.619 525.528 322.21 550.872 322.21Z" fill="#FF1345" stroke="white" stroke-miterlimit="10"/>
<path d="M550.872 322.211C525.528 322.211 504.977 342.803 504.977 368.195H550.872V322.211Z" fill="#FF1345" stroke="white" stroke-miterlimit="10"/>
<path d="M459.078 322.211V368.195H504.973C504.973 342.803 484.421 322.211 459.078 322.211Z" fill="#FF1345" stroke="white" stroke-miterlimit="10"/>
<path d="M504.973 276.227H459.078V322.21C484.421 322.21 504.973 301.619 504.973 276.227Z" fill="white"/>
<path d="M137.814 138.273H46.0234V598.112H137.814V138.273Z" fill="white"/>
<path d="M504.97 414.18H413.18V598.115H504.97V414.18Z" fill="white"/>
<path d="M504.97 138.273H413.18V322.209H504.97V138.273Z" fill="white"/>
<path d="M413.19 322.211H229.609V414.179H413.19V322.211Z" fill="white"/>
<path d="M413.185 46.3047H46.0234V138.272H413.185V46.3047Z" fill="white"/>
<path d="M413.185 598.117H46.0234V690.085H413.185V598.117Z" fill="white"/>
</g>
<rect x="0.5" y="0.695312" width="550" height="735" stroke="#121212"/>
<defs>
<clipPath id="clip0_4210_44200">
<rect y="0.195312" width="551" height="736" fill="white"/>
</clipPath>
</defs>
</svg>
