<svg width="551" height="737" viewBox="0 0 551 737" fill="none" xmlns="http://www.w3.org/2000/svg">
<path d="M91.791 46.1794C66.4438 46.1794 45.8955 25.5914 45.8955 0.195312C45.8955 25.5914 25.3472 46.1794 0 46.1794C25.3472 46.1794 45.8955 66.7675 45.8955 92.1636C45.8955 66.7675 66.4438 46.1794 91.791 46.1794Z" fill="#A54AFF"/>
<path d="M275.791 46.1794C250.444 46.1794 229.895 25.5914 229.895 0.195312C229.895 25.5914 209.347 46.1794 184 46.1794C209.347 46.1794 229.895 66.7675 229.895 92.1636C229.895 66.7675 250.444 46.1794 275.791 46.1794Z" fill="#A54AFF"/>
<path d="M275.791 138.179C250.444 138.179 229.895 117.591 229.895 92.1953C229.895 117.591 209.347 138.179 184 138.179C209.347 138.179 229.895 158.767 229.895 184.164C229.895 158.767 250.444 138.179 275.791 138.179Z" fill="#A54AFF"/>
<path d="M91.791 138.179C66.4438 138.179 45.8955 117.591 45.8955 92.1953C45.8955 117.591 25.3472 138.179 0 138.179C25.3472 138.179 45.8955 158.767 45.8955 184.164C45.8955 158.767 66.4438 138.179 91.791 138.179Z" fill="#A54AFF"/>
<path d="M91.791 230.179C66.4438 230.179 45.8955 209.591 45.8955 184.195C45.8955 209.591 25.3472 230.179 0 230.179C25.3472 230.179 45.8955 250.767 45.8955 276.164C45.8955 250.767 66.4438 230.179 91.791 230.179Z" fill="#A54AFF"/>
<path d="M91.791 322.179C66.4438 322.179 45.8955 301.591 45.8955 276.195C45.8955 301.591 25.3472 322.179 0 322.179C25.3472 322.179 45.8955 342.767 45.8955 368.164C45.8955 342.767 66.4438 322.179 91.791 322.179Z" fill="#A54AFF"/>
<path d="M91.791 414.179C66.4438 414.179 45.8955 393.591 45.8955 368.195C45.8955 393.591 25.3472 414.179 0 414.179C25.3472 414.179 45.8955 434.767 45.8955 460.164C45.8955 434.767 66.4438 414.179 91.791 414.179Z" fill="#A54AFF"/>
<path d="M91.791 506.179C66.4438 506.179 45.8955 485.591 45.8955 460.195C45.8955 485.591 25.3472 506.179 0 506.179C25.3472 506.179 45.8955 526.767 45.8955 552.164C45.8955 526.767 66.4438 506.179 91.791 506.179Z" fill="#A54AFF"/>
<path d="M91.791 598.179C66.4438 598.179 45.8955 577.591 45.8955 552.195C45.8955 577.591 25.3472 598.179 0 598.179C25.3472 598.179 45.8955 618.767 45.8955 644.164C45.8955 618.767 66.4438 598.179 91.791 598.179Z" fill="#A54AFF"/>
<path d="M91.791 690.179C66.4438 690.179 45.8955 669.591 45.8955 644.195C45.8955 669.591 25.3472 690.179 0 690.179C25.3472 690.179 45.8955 710.767 45.8955 736.164C45.8955 710.767 66.4438 690.179 91.791 690.179Z" fill="#A54AFF"/>
<path d="M183.791 46.1794C158.444 46.1794 137.895 25.5914 137.895 0.195312C137.895 25.5914 117.347 46.1794 92 46.1794C117.347 46.1794 137.895 66.7675 137.895 92.1636C137.895 66.7675 158.444 46.1794 183.791 46.1794Z" fill="#A54AFF"/>
<path d="M367.791 46.1794C342.444 46.1794 321.895 25.5914 321.895 0.195312C321.895 25.5914 301.347 46.1794 276 46.1794C301.347 46.1794 321.895 66.7675 321.895 92.1636C321.895 66.7675 342.444 46.1794 367.791 46.1794Z" fill="#A54AFF"/>
<path d="M367.791 138.179C342.444 138.179 321.895 117.591 321.895 92.1953C321.895 117.591 301.347 138.179 276 138.179C301.347 138.179 321.895 158.767 321.895 184.164C321.895 158.767 342.444 138.179 367.791 138.179Z" fill="#A54AFF"/>
<path d="M458.791 46.1794C433.444 46.1794 412.895 25.5914 412.895 0.195312C412.895 25.5914 392.347 46.1794 367 46.1794C392.347 46.1794 412.895 66.7675 412.895 92.1636C412.895 66.7675 433.444 46.1794 458.791 46.1794Z" fill="#A54AFF"/>
<path d="M458.791 138.179C433.444 138.179 412.895 117.591 412.895 92.1953C412.895 117.591 392.347 138.179 367 138.179C392.347 138.179 412.895 158.767 412.895 184.164C412.895 158.767 433.444 138.179 458.791 138.179Z" fill="#A54AFF"/>
<path d="M458.791 230.179C433.444 230.179 412.895 209.591 412.895 184.195C412.895 209.591 392.347 230.179 367 230.179C392.347 230.179 412.895 250.767 412.895 276.164C412.895 250.767 433.444 230.179 458.791 230.179Z" fill="#A54AFF"/>
<path d="M458.791 322.179C433.444 322.179 412.895 301.591 412.895 276.195C412.895 301.591 392.347 322.179 367 322.179C392.347 322.179 412.895 342.767 412.895 368.164C412.895 342.767 433.444 322.179 458.791 322.179Z" fill="#A54AFF"/>
<path d="M458.791 414.179C433.444 414.179 412.895 393.591 412.895 368.195C412.895 393.591 392.347 414.179 367 414.179C392.347 414.179 412.895 434.767 412.895 460.164C412.895 434.767 433.444 414.179 458.791 414.179Z" fill="#A54AFF"/>
<path d="M458.791 506.179C433.444 506.179 412.895 485.591 412.895 460.195C412.895 485.591 392.347 506.179 367 506.179C392.347 506.179 412.895 526.767 412.895 552.164C412.895 526.767 433.444 506.179 458.791 506.179Z" fill="#A54AFF"/>
<path d="M458.791 598.179C433.444 598.179 412.895 577.591 412.895 552.195C412.895 577.591 392.347 598.179 367 598.179C392.347 598.179 412.895 618.767 412.895 644.164C412.895 618.767 433.444 598.179 458.791 598.179Z" fill="#A54AFF"/>
<path d="M550.791 138.179C525.444 138.179 504.895 117.591 504.895 92.1953C504.895 117.591 484.347 138.179 459 138.179C484.347 138.179 504.895 158.767 504.895 184.164C504.895 158.767 525.444 138.179 550.791 138.179Z" fill="#A54AFF"/>
<path d="M550.791 230.179C525.444 230.179 504.895 209.591 504.895 184.195C504.895 209.591 484.347 230.179 459 230.179C484.347 230.179 504.895 250.767 504.895 276.164C504.895 250.767 525.444 230.179 550.791 230.179Z" fill="#A54AFF"/>
<path d="M550.791 322.179C525.444 322.179 504.895 301.591 504.895 276.195C504.895 301.591 484.347 322.179 459 322.179C484.347 322.179 504.895 342.767 504.895 368.164C504.895 342.767 525.444 322.179 550.791 322.179Z" fill="#A54AFF"/>
<path d="M550.791 414.179C525.444 414.179 504.895 393.591 504.895 368.195C504.895 393.591 484.347 414.179 459 414.179C484.347 414.179 504.895 434.767 504.895 460.164C504.895 434.767 525.444 414.179 550.791 414.179Z" fill="#A54AFF"/>
<path d="M550.791 506.179C525.444 506.179 504.895 485.591 504.895 460.195C504.895 485.591 484.347 506.179 459 506.179C484.347 506.179 504.895 526.767 504.895 552.164C504.895 526.767 525.444 506.179 550.791 506.179Z" fill="#A54AFF"/>
<path d="M550.791 598.179C525.444 598.179 504.895 577.591 504.895 552.195C504.895 577.591 484.347 598.179 459 598.179C484.347 598.179 504.895 618.767 504.895 644.164C504.895 618.767 525.444 598.179 550.791 598.179Z" fill="#A54AFF"/>
<path d="M183.791 138.179C158.444 138.179 137.895 117.591 137.895 92.1953C137.895 117.591 117.347 138.179 92 138.179C117.347 138.179 137.895 158.767 137.895 184.164C137.895 158.767 158.444 138.179 183.791 138.179Z" fill="#A54AFF"/>
<path d="M183.791 230.179C158.444 230.179 137.895 209.591 137.895 184.195C137.895 209.591 117.347 230.179 92 230.179C117.347 230.179 137.895 250.767 137.895 276.164C137.895 250.767 158.444 230.179 183.791 230.179Z" fill="#A54AFF"/>
<path d="M183.791 322.179C158.444 322.179 137.895 301.591 137.895 276.195C137.895 301.591 117.347 322.179 92 322.179C117.347 322.179 137.895 342.767 137.895 368.164C137.895 342.767 158.444 322.179 183.791 322.179Z" fill="#A54AFF"/>
<path d="M275.791 322.179C250.444 322.179 229.895 301.591 229.895 276.195C229.895 301.591 209.347 322.179 184 322.179C209.347 322.179 229.895 342.767 229.895 368.164C229.895 342.767 250.444 322.179 275.791 322.179Z" fill="#A54AFF"/>
<path d="M275.791 414.179C250.444 414.179 229.895 393.591 229.895 368.195C229.895 393.591 209.347 414.179 184 414.179C209.347 414.179 229.895 434.767 229.895 460.164C229.895 434.767 250.444 414.179 275.791 414.179Z" fill="#A54AFF"/>
<path d="M275.791 598.179C250.444 598.179 229.895 577.591 229.895 552.195C229.895 577.591 209.347 598.179 184 598.179C209.347 598.179 229.895 618.767 229.895 644.164C229.895 618.767 250.444 598.179 275.791 598.179Z" fill="#A54AFF"/>
<path d="M275.791 690.179C250.444 690.179 229.895 669.591 229.895 644.195C229.895 669.591 209.347 690.179 184 690.179C209.347 690.179 229.895 710.767 229.895 736.164C229.895 710.767 250.444 690.179 275.791 690.179Z" fill="#A54AFF"/>
<path d="M367.791 414.179C342.444 414.179 321.895 393.591 321.895 368.195C321.895 393.591 301.347 414.179 276 414.179C301.347 414.179 321.895 434.767 321.895 460.164C321.895 434.767 342.444 414.179 367.791 414.179Z" fill="#A54AFF"/>
<path d="M367.791 322.179C342.444 322.179 321.895 301.591 321.895 276.195C321.895 301.591 301.347 322.179 276 322.179C301.347 322.179 321.895 342.767 321.895 368.164C321.895 342.767 342.444 322.179 367.791 322.179Z" fill="#A54AFF"/>
<path d="M367.791 598.179C342.444 598.179 321.895 577.591 321.895 552.195C321.895 577.591 301.347 598.179 276 598.179C301.347 598.179 321.895 618.767 321.895 644.164C321.895 618.767 342.444 598.179 367.791 598.179Z" fill="#A54AFF"/>
<path d="M367.791 690.179C342.444 690.179 321.895 669.591 321.895 644.195C321.895 669.591 301.347 690.179 276 690.179C301.347 690.179 321.895 710.767 321.895 736.164C321.895 710.767 342.444 690.179 367.791 690.179Z" fill="#A54AFF"/>
<path d="M458.791 690.179C433.444 690.179 412.895 669.591 412.895 644.195C412.895 669.591 392.347 690.179 367 690.179C392.347 690.179 412.895 710.767 412.895 736.164C412.895 710.767 433.444 690.179 458.791 690.179Z" fill="#A54AFF"/>
<path d="M183.791 414.179C158.444 414.179 137.895 393.591 137.895 368.195C137.895 393.591 117.347 414.179 92 414.179C117.347 414.179 137.895 434.767 137.895 460.164C137.895 434.767 158.444 414.179 183.791 414.179Z" fill="#A54AFF"/>
<path d="M183.791 506.179C158.444 506.179 137.895 485.591 137.895 460.195C137.895 485.591 117.347 506.179 92 506.179C117.347 506.179 137.895 526.767 137.895 552.164C137.895 526.767 158.444 506.179 183.791 506.179Z" fill="#A54AFF"/>
<path d="M183.791 598.179C158.444 598.179 137.895 577.591 137.895 552.195C137.895 577.591 117.347 598.179 92 598.179C117.347 598.179 137.895 618.767 137.895 644.164C137.895 618.767 158.444 598.179 183.791 598.179Z" fill="#A54AFF"/>
<path d="M183.791 690.179C158.444 690.179 137.895 669.591 137.895 644.195C137.895 669.591 117.347 690.179 92 690.179C117.347 690.179 137.895 710.767 137.895 736.164C137.895 710.767 158.444 690.179 183.791 690.179Z" fill="#A54AFF"/>
</svg>
