<svg width="186" height="46" viewBox="0 0 186 46" fill="none" xmlns="http://www.w3.org/2000/svg">
<path d="M29 25.9953C30.728 25.9953 32.2 27.4673 32.2 29.1953V35.5953C32.2 37.3873 30.728 38.7953 29 38.7953C27.208 38.7953 25.8 40.2673 25.8 41.9953C25.8 43.7873 24.328 45.1953 22.6 45.1953H9.8C8.008 45.1953 6.6 43.7873 6.6 41.9953C6.6 40.2673 5.128 38.7953 3.4 38.7953C1.608 38.7953 0.2 37.3873 0.2 35.5953C0.2 33.8673 1.608 32.3953 3.4 32.3953C5.128 32.3953 6.6 33.8673 6.6 35.5953C6.6 37.3873 8.008 38.7953 9.8 38.7953H22.6C24.328 38.7953 25.8 37.3873 25.8 35.5953V29.1953C25.8 27.4673 24.328 25.9953 22.6 25.9953H9.8C8.008 25.9953 6.6 24.5873 6.6 22.7953C6.6 21.0673 5.128 19.5953 3.4 19.5953C1.608 19.5953 0.2 18.1873 0.2 16.3953V9.99531C0.2 8.26731 1.608 6.79531 3.4 6.79531C5.128 6.79531 6.6 5.38731 6.6 3.59531C6.6 1.86731 8.008 0.395309 9.8 0.395309H22.6C24.328 0.395309 25.8 1.86731 25.8 3.59531C25.8 5.38731 27.208 6.79531 29 6.79531C30.728 6.79531 32.2 8.26731 32.2 9.99531C32.2 11.7873 30.728 13.1953 29 13.1953C27.208 13.1953 25.8 11.7873 25.8 9.99531C25.8 8.26731 24.328 6.79531 22.6 6.79531H9.8C8.008 6.79531 6.6 8.26731 6.6 9.99531V16.3953C6.6 18.1873 8.008 19.5953 9.8 19.5953H22.6C24.328 19.5953 25.8 21.0673 25.8 22.7953C25.8 24.5873 27.208 25.9953 29 25.9953ZM51.375 35.5953C51.375 33.8673 52.783 32.3953 54.575 32.3953V38.7953C52.783 38.7953 51.375 37.3873 51.375 35.5953ZM51.375 29.1953C51.375 27.4673 52.783 25.9953 54.575 25.9953V32.3953C52.783 32.3953 51.375 30.9873 51.375 29.1953ZM51.375 41.9953C51.375 40.2673 52.783 38.7953 54.575 38.7953V45.1953C52.783 45.1953 51.375 43.7873 51.375 41.9953ZM54.575 32.3953V25.9953C56.303 25.9953 57.775 27.4673 57.775 29.1953C57.775 30.9873 56.303 32.3953 54.575 32.3953ZM54.575 25.9953V19.5953C56.303 19.5953 57.775 21.0673 57.775 22.7953C57.775 24.5873 56.303 25.9953 54.575 25.9953ZM54.575 38.7953V32.3953C56.303 32.3953 57.775 33.8673 57.775 35.5953C57.775 37.3873 56.303 38.7953 54.575 38.7953ZM54.575 45.1953V38.7953C56.303 38.7953 57.775 40.2673 57.775 41.9953C57.775 43.7873 56.303 45.1953 54.575 45.1953ZM51.375 9.99531V10.0593C51.375 8.26731 52.783 6.85931 54.575 6.85931V13.1953C52.783 13.1953 51.375 11.7873 51.375 9.99531ZM41.775 6.85931C39.983 6.85931 38.575 5.38731 38.575 3.65931C38.575 1.86731 39.983 0.459309 41.775 0.459309C43.503 0.459309 44.975 1.86731 44.975 3.65931C44.975 5.38731 43.503 6.85931 41.775 6.85931ZM51.375 3.65931C51.375 1.86731 52.783 0.459309 54.575 0.459309V6.85931C52.783 6.85931 51.375 5.38731 51.375 3.65931ZM48.175 6.85931C46.383 6.85931 44.975 5.38731 44.975 3.65931C44.975 1.86731 46.383 0.459309 48.175 0.459309C49.903 0.459309 51.375 1.86731 51.375 3.65931C51.375 5.38731 49.903 6.85931 48.175 6.85931ZM51.375 16.3953C51.375 14.6673 52.783 13.2593 54.575 13.2593V19.5953C52.783 19.5953 51.375 18.1873 51.375 16.3953ZM51.375 22.7953C51.375 21.0673 52.783 19.5953 54.575 19.5953V25.9953C52.783 25.9953 51.375 24.5873 51.375 22.7953ZM54.575 0.459309C56.303 0.459309 57.775 1.86731 57.775 3.65931C57.775 5.38731 56.303 6.85931 54.575 6.85931V0.459309ZM60.975 6.85931C59.183 6.85931 57.775 5.38731 57.775 3.65931C57.775 1.86731 59.183 0.459309 60.975 0.459309C62.703 0.459309 64.175 1.86731 64.175 3.65931C64.175 5.38731 62.703 6.85931 60.975 6.85931ZM67.375 6.85931C65.583 6.85931 64.175 5.38731 64.175 3.65931C64.175 1.86731 65.583 0.459309 67.375 0.459309C69.103 0.459309 70.575 1.86731 70.575 3.65931C70.575 5.38731 69.103 6.85931 67.375 6.85931ZM54.575 13.2593V6.85931C56.303 6.85931 57.775 8.26731 57.775 10.0593C57.775 11.7873 56.303 13.2593 54.575 13.2593ZM54.575 19.5953V13.1953C56.303 13.1953 57.775 14.6673 57.775 16.3953C57.775 18.1873 56.303 19.5953 54.575 19.5953ZM76.95 35.5953C76.95 33.8673 78.358 32.3953 80.15 32.3953C81.878 32.3953 83.35 33.8673 83.35 35.5953V41.9953C83.35 43.7873 81.878 45.1953 80.15 45.1953C78.358 45.1953 76.95 43.7873 76.95 41.9953V35.5953ZM102.55 29.1953C102.55 27.4673 103.958 25.9953 105.75 25.9953C107.478 25.9953 108.95 27.4673 108.95 29.1953V41.9953C108.95 43.7873 107.478 45.1953 105.75 45.1953C103.958 45.1953 102.55 43.7873 102.55 41.9953V29.1953ZM105.75 13.1953C107.478 13.1953 108.95 14.6673 108.95 16.3953V22.7953C108.95 24.5873 107.478 25.9953 105.75 25.9953C103.958 25.9953 102.55 24.5873 102.55 22.7953C102.55 24.5873 101.078 25.9953 99.35 25.9953H86.55C84.758 25.9953 83.35 24.5873 83.35 22.7953C83.35 21.0673 84.758 19.5953 86.55 19.5953H99.35C101.078 19.5953 102.486 21.0673 102.55 22.7953V16.3953C102.55 14.6673 101.078 13.1953 99.35 13.1953C97.558 13.1953 96.15 11.7873 96.15 9.99531C96.15 8.26731 94.678 6.85931 92.95 6.85931C91.158 6.85931 89.75 8.26731 89.75 9.99531C89.75 11.7873 88.278 13.1953 86.55 13.1953C84.758 13.1953 83.35 14.6673 83.35 16.3953V29.1953C83.35 30.9873 81.878 32.3953 80.15 32.3953C78.358 32.3953 76.95 30.9873 76.95 29.1953V16.3953C76.95 14.6673 78.358 13.1953 80.15 13.1953C81.878 13.1953 83.35 11.7873 83.35 9.99531C83.35 8.26731 84.758 6.85931 86.55 6.85931C88.278 6.85931 89.75 5.38731 89.75 3.65931C89.75 1.86731 91.158 0.459309 92.95 0.459309C94.678 0.459309 96.15 1.86731 96.15 3.65931C96.15 5.38731 97.558 6.85931 99.35 6.85931C101.078 6.85931 102.55 8.26731 102.55 9.99531C102.55 11.7873 103.958 13.1953 105.75 13.1953ZM118.525 38.7953C116.733 38.7953 115.325 37.3873 115.325 35.5953C115.325 33.8673 116.733 32.3953 118.525 32.3953C120.253 32.3953 121.725 33.8673 121.725 35.5953C121.725 37.3873 120.253 38.7953 118.525 38.7953ZM118.525 32.3953C116.733 32.3953 115.325 30.9873 115.325 29.1953C115.325 27.4673 116.733 25.9953 118.525 25.9953C120.253 25.9953 121.725 27.4673 121.725 29.1953C121.725 30.9873 120.253 32.3953 118.525 32.3953ZM128.125 29.1953C128.125 27.4673 129.533 25.9953 131.325 25.9953V32.3953C129.533 32.3953 128.125 30.9873 128.125 29.1953ZM118.525 45.1953C116.733 45.1953 115.325 43.7873 115.325 41.9953C115.325 40.2673 116.733 38.7953 118.525 38.7953C120.253 38.7953 121.725 40.2673 121.725 41.9953C121.725 43.7873 120.253 45.1953 118.525 45.1953ZM137.725 38.7953C135.933 38.7953 134.525 37.3873 134.525 35.5953C134.525 33.8673 135.933 32.3953 137.725 32.3953C139.453 32.3953 140.925 33.8673 140.925 35.5953C140.925 37.3873 139.453 38.7953 137.725 38.7953ZM137.725 25.9953C135.933 25.9953 134.525 24.5873 134.525 22.7953C134.525 21.0673 135.933 19.5953 137.725 19.5953C139.453 19.5953 140.925 21.0673 140.925 22.7953C140.925 24.5873 139.453 25.9953 137.725 25.9953ZM131.325 25.9953C133.053 25.9953 134.525 27.4673 134.525 29.1953C134.525 30.9873 133.053 32.3953 131.325 32.3953V25.9953ZM134.525 22.7953C134.525 24.5873 133.053 25.9953 131.325 25.9953V19.5953C133.053 19.5953 134.525 21.0673 134.525 22.7953ZM144.125 45.1953C142.333 45.1953 140.925 43.7873 140.925 41.9953C140.925 40.2673 142.333 38.7953 144.125 38.7953C145.853 38.7953 147.325 40.2673 147.325 41.9953C147.325 43.7873 145.853 45.1953 144.125 45.1953ZM118.525 13.1953C116.733 13.1953 115.325 11.7873 115.325 9.99531C115.325 8.26731 116.733 6.79531 118.525 6.79531C120.253 6.79531 121.725 8.26731 121.725 9.99531C121.725 11.7873 120.253 13.1953 118.525 13.1953ZM118.525 6.79531C116.733 6.79531 115.325 5.38731 115.325 3.65931C115.325 1.86731 116.733 0.459309 118.525 0.459309C120.253 0.459309 121.725 1.86731 121.725 3.65931C121.725 5.38731 120.253 6.79531 118.525 6.79531ZM128.125 3.65931C128.125 1.86731 129.533 0.459309 131.325 0.459309V6.85931C129.533 6.85931 128.125 5.38731 128.125 3.65931ZM124.925 6.85931C123.133 6.85931 121.725 5.38731 121.725 3.65931C121.725 1.86731 123.133 0.459309 124.925 0.459309C126.653 0.459309 128.125 1.86731 128.125 3.65931C128.125 5.38731 126.653 6.85931 124.925 6.85931ZM118.525 19.5953C116.733 19.5953 115.325 18.1873 115.325 16.3953C115.325 14.6673 116.733 13.1953 118.525 13.1953C120.253 13.1953 121.725 14.6673 121.725 16.3953C121.725 18.1873 120.253 19.5953 118.525 19.5953ZM118.525 25.9953C116.733 25.9953 115.325 24.5873 115.325 22.7953C115.325 21.0673 116.733 19.5953 118.525 19.5953C120.253 19.5953 121.725 21.0673 121.725 22.7953C121.725 24.5873 120.253 25.9953 118.525 25.9953ZM128.125 22.7953C128.125 21.0673 129.533 19.5953 131.325 19.5953V25.9953C129.533 25.9953 128.125 24.5873 128.125 22.7953ZM137.725 6.85931C135.933 6.85931 134.525 5.38731 134.525 3.65931C134.525 1.86731 135.933 0.459309 137.725 0.459309C139.453 0.459309 140.925 1.86731 140.925 3.65931C140.925 5.38731 139.453 6.85931 137.725 6.85931ZM134.525 3.65931C134.525 5.38731 133.053 6.85931 131.325 6.85931V0.459309C133.053 0.459309 134.525 1.86731 134.525 3.65931ZM144.125 19.5953C142.333 19.5953 140.925 18.1873 140.925 16.3953C140.925 14.6673 142.333 13.1953 144.125 13.1953C145.853 13.1953 147.325 14.6673 147.325 16.3953C147.325 18.1873 145.853 19.5953 144.125 19.5953ZM144.125 13.1953C142.333 13.1953 140.925 11.7873 140.925 9.99531C140.925 8.26731 142.333 6.85931 144.125 6.85931C145.853 6.85931 147.325 8.26731 147.325 9.99531C147.325 11.7873 145.853 13.1953 144.125 13.1953ZM166.5 29.2593C166.5 27.4673 167.908 26.0593 169.7 26.0593C171.428 26.0593 172.9 27.4673 172.9 29.2593V41.9953C172.9 43.7873 171.428 45.1953 169.7 45.1953C167.908 45.1953 166.5 43.7873 166.5 41.9953V29.2593ZM169.7 0.395309C171.428 0.395309 172.9 1.86731 172.9 3.59531C172.9 5.38731 171.428 6.79531 169.7 6.79531C171.428 6.79531 172.9 8.26731 172.9 9.99531V22.7953C172.9 24.5873 171.428 25.9953 169.7 25.9953C167.908 25.9953 166.5 24.5873 166.5 22.8593V9.99531C166.5 8.26731 165.028 6.79531 163.3 6.79531C163.236 6.79531 163.236 6.79531 163.236 6.79531H156.9C155.108 6.79531 153.7 5.38731 153.7 3.59531C153.7 1.86731 155.108 0.395309 156.9 0.395309H169.7ZM182.5 0.395309C184.228 0.395309 185.7 1.86731 185.7 3.59531C185.7 5.38731 184.228 6.79531 182.5 6.79531C182.436 6.79531 182.436 6.79531 182.436 6.79531H176.1C174.308 6.79531 172.9 5.38731 172.9 3.59531C172.9 1.86731 174.308 0.395309 176.1 0.395309H182.5Z" fill="white"/>
</svg>
