<svg width="724" height="77" viewBox="0 0 724 77" fill="none" xmlns="http://www.w3.org/2000/svg">
<path d="M48.8781 62.4H39.2781V43.2H48.8781V62.4ZM0.878125 62.4H39.2781V72H0.878125V62.4ZM39.2781 4.89599V14.496H10.4781V62.4H0.878125V4.89599H39.2781ZM39.2781 14.496H48.8781V33.6H39.2781V14.496ZM20.0781 43.2V33.6H39.2781V43.2H20.0781ZM111.049 33.6C108.361 33.6 106.249 35.808 106.249 38.4C106.249 41.088 108.361 43.2 111.049 43.2C108.361 43.2 106.249 45.408 106.249 48C106.249 50.688 108.361 52.8 111.049 52.8C108.361 52.8 106.249 55.008 106.249 57.6C106.249 60.288 108.361 62.4 111.049 62.4C108.361 62.4 106.249 64.608 106.249 67.2C106.249 69.888 108.361 72 111.049 72C108.361 72 106.249 74.208 106.249 76.8C106.249 74.208 104.041 72 101.449 72C98.7606 72 96.6486 74.208 96.6486 76.8C96.6486 74.208 94.4406 72 91.8486 72C94.4406 72 96.6486 69.888 96.6486 67.2C96.6486 64.608 94.4406 62.4 91.8486 62.4C94.4406 62.4 96.6486 60.288 96.6486 57.6C96.6486 55.008 94.4406 52.8 91.8486 52.8C94.4406 52.8 96.6486 50.688 96.6486 48C96.6486 45.408 94.4406 43.2 91.8486 43.2C89.1606 43.2 87.0486 45.408 87.0486 48C87.0486 45.408 84.8406 43.2 82.2486 43.2C79.5606 43.2 77.4486 45.408 77.4486 48C77.4486 45.408 75.2406 43.2 72.6486 43.2C69.9606 43.2 67.8486 45.408 67.8486 48C67.8486 50.688 69.9606 52.8 72.6486 52.8C69.9606 52.8 67.8486 55.008 67.8486 57.6C67.8486 60.288 69.9606 62.4 72.6486 62.4C69.9606 62.4 67.8486 64.608 67.8486 67.2C67.8486 69.888 69.9606 72 72.6486 72C69.9606 72 67.8486 74.208 67.8486 76.8C67.8486 74.208 65.6406 72 63.0486 72C60.3606 72 58.2486 74.208 58.2486 76.8C58.2486 74.208 56.0406 72 53.4486 72C56.0406 72 58.2486 69.888 58.2486 67.2C58.2486 64.608 56.0406 62.4 53.4486 62.4C56.0406 62.4 58.2486 60.288 58.2486 57.6C58.2486 55.008 56.0406 52.8 53.4486 52.8C56.0406 52.8 58.2486 50.688 58.2486 48C58.2486 45.408 56.0406 43.2 53.4486 43.2C56.0406 43.2 58.2486 41.088 58.2486 38.4C58.2486 35.808 56.0406 33.6 53.4486 33.6C56.0406 33.6 58.2486 31.488 58.2486 28.8C58.2486 26.208 56.0406 24 53.4486 24C56.0406 24 58.2486 21.888 58.2486 19.2C58.2486 21.888 60.3606 24 63.0486 24C65.6406 24 67.8486 21.888 67.8486 19.2C67.8486 16.608 65.6406 14.4 63.0486 14.4C65.6406 14.4 67.8486 12.288 67.8486 9.6C67.8486 12.288 69.9606 14.4 72.6486 14.4C75.2406 14.4 77.4486 12.288 77.4486 9.6C77.4486 7.008 75.2406 4.8 72.6486 4.8C75.2406 4.8 77.4486 2.68799 77.4486 -5.72205e-06C77.4486 2.68799 79.5606 4.8 82.2486 4.8C84.8406 4.8 87.0486 2.68799 87.0486 -5.72205e-06C87.0486 2.68799 89.1606 4.8 91.8486 4.8C89.1606 4.8 87.0486 7.008 87.0486 9.6C87.0486 12.288 89.1606 14.4 91.8486 14.4C94.4406 14.4 96.6486 12.288 96.6486 9.6C96.6486 12.288 98.7606 14.4 101.449 14.4C98.7606 14.4 96.6486 16.608 96.6486 19.2C96.6486 21.888 98.7606 24 101.449 24C104.041 24 106.249 21.888 106.249 19.2C106.249 21.888 108.361 24 111.049 24C108.361 24 106.249 26.208 106.249 28.8C106.249 31.488 108.361 33.6 111.049 33.6ZM72.6486 24C69.9606 24 67.8486 26.208 67.8486 28.8C67.8486 31.488 69.9606 33.6 72.6486 33.6C75.2406 33.6 77.4486 31.488 77.4486 28.8C77.4486 31.488 79.5606 33.6 82.2486 33.6C84.8406 33.6 87.0486 31.488 87.0486 28.8C87.0486 31.488 89.1606 33.6 91.8486 33.6C94.4406 33.6 96.6486 31.488 96.6486 28.8C96.6486 26.208 94.4406 24 91.8486 24C89.1606 24 87.0486 26.208 87.0486 28.8C87.0486 26.208 84.8406 24 82.2486 24C84.8406 24 87.0486 21.888 87.0486 19.2C87.0486 16.608 84.8406 14.4 82.2486 14.4C79.5606 14.4 77.4486 16.608 77.4486 19.2C77.4486 21.888 79.5606 24 82.2486 24C79.5606 24 77.4486 26.208 77.4486 28.8C77.4486 26.208 75.2406 24 72.6486 24ZM115.722 48C115.722 45.408 117.834 43.2 120.522 43.2C123.114 43.2 125.322 45.408 125.322 48V67.2C125.322 69.888 123.114 72 120.522 72C117.834 72 115.722 69.888 115.722 67.2V48ZM163.722 28.8C163.722 31.488 161.514 33.6 158.922 33.6C156.234 33.6 154.122 31.488 154.122 28.8V9.6C154.122 7.008 156.234 4.89599 158.922 4.89599C161.514 4.89599 163.626 7.008 163.626 9.6H163.722V9.696V19.2C163.722 19.2 163.722 19.2 163.722 19.296V28.8ZM163.722 38.4V67.2C163.722 69.888 161.514 72 158.922 72C156.234 72 154.122 69.888 154.122 67.2V57.696C154.122 57.696 154.122 57.696 154.122 57.6C154.122 55.008 151.914 52.8 149.322 52.8C146.634 52.8 144.522 50.688 144.522 48C144.522 45.408 142.314 43.2 139.722 43.2C137.034 43.2 134.922 41.088 134.922 38.4C134.922 35.808 132.714 33.6 130.122 33.6C127.434 33.6 125.322 31.488 125.322 28.8V38.4C125.322 41.088 123.114 43.2 120.522 43.2C117.834 43.2 115.722 41.088 115.722 38.4V9.6C115.722 7.008 117.834 4.89599 120.522 4.89599C123.114 4.89599 125.322 7.008 125.322 9.6V19.2C125.322 21.888 127.434 24 130.122 24C132.714 24 134.922 26.208 134.922 28.8C134.922 31.488 137.034 33.6 139.722 33.6C142.314 33.6 144.522 35.808 144.522 38.4C144.522 41.088 146.634 43.2 149.322 43.2C151.914 43.2 154.122 45.408 154.122 48V38.496C154.122 38.496 154.122 38.496 154.122 38.4C154.122 35.808 156.234 33.6 158.922 33.6C161.514 33.6 163.722 35.808 163.722 38.4ZM182.884 14.496V62.4H173.284V14.496H182.884ZM211.684 24V14.496H182.884V4.89599H211.684V14.496H221.284V24H211.684ZM211.684 43.2H192.484V33.6H211.684V43.2ZM211.684 72H182.884V62.4H211.684V72ZM221.284 62.4H211.684V43.2H221.284V62.4ZM235.647 14.496H230.847V9.696H235.647V14.496ZM240.447 9.696H235.647V4.89599H240.447V9.696ZM235.647 24H230.847V19.2H235.647V24ZM240.447 19.2H235.647V14.496H240.447V19.2ZM235.647 33.6H230.847V28.8H235.647V33.6ZM240.447 28.8H235.647V24H240.447V28.8ZM235.647 43.2H230.847V38.4H235.647V43.2ZM240.447 38.4H235.647V33.6H240.447V38.4ZM235.647 52.8H230.847V48H235.647V52.8ZM240.447 48H235.647V43.2H240.447V48ZM235.647 72H230.847V67.2H235.647V72ZM240.447 67.2H235.647V62.4H240.447V67.2ZM296.847 62.4C294.159 62.4 292.047 60.288 292.047 57.6C292.047 55.008 294.159 52.8 296.847 52.8C299.439 52.8 301.647 55.008 301.647 57.6C301.647 60.288 299.439 62.4 296.847 62.4ZM296.847 52.8C294.159 52.8 292.047 50.688 292.047 48C292.047 45.408 294.159 43.2 296.847 43.2C299.439 43.2 301.647 45.408 301.647 48C301.647 50.688 299.439 52.8 296.847 52.8ZM296.847 72C294.159 72 292.047 69.888 292.047 67.2C292.047 64.608 294.159 62.4 296.847 62.4C299.439 62.4 301.647 64.608 301.647 67.2C301.647 69.888 299.439 72 296.847 72ZM296.847 24C294.159 24 292.047 21.888 292.047 19.2C292.047 16.608 294.159 14.4 296.847 14.4C299.439 14.4 301.647 16.608 301.647 19.2C301.647 21.888 299.439 24 296.847 24ZM277.647 14.496C274.959 14.496 272.847 12.288 272.847 9.696C272.847 7.008 274.959 4.89599 277.647 4.89599C280.239 4.89599 282.447 7.008 282.447 9.696C282.447 12.288 280.239 14.496 277.647 14.496ZM287.247 14.496C284.559 14.496 282.447 12.288 282.447 9.696C282.447 7.008 284.559 4.89599 287.247 4.89599C289.839 4.89599 292.047 7.008 292.047 9.696C292.047 12.288 289.839 14.496 287.247 14.496ZM296.847 33.6C294.159 33.6 292.047 31.488 292.047 28.8C292.047 26.208 294.159 24 296.847 24C299.439 24 301.647 26.208 301.647 28.8C301.647 31.488 299.439 33.6 296.847 33.6ZM296.847 43.2C294.159 43.2 292.047 41.088 292.047 38.4C292.047 35.808 294.159 33.6 296.847 33.6C299.439 33.6 301.647 35.808 301.647 38.4C301.647 41.088 299.439 43.2 296.847 43.2ZM296.847 14.496C294.159 14.496 292.047 12.288 292.047 9.696C292.047 7.008 294.159 4.89599 296.847 4.89599C299.439 4.89599 301.647 7.008 301.647 9.696C301.647 12.288 299.439 14.496 296.847 14.496ZM306.447 14.496C303.759 14.496 301.647 12.288 301.647 9.696C301.647 7.008 303.759 4.89599 306.447 4.89599C309.039 4.89599 311.247 7.008 311.247 9.696C311.247 12.288 309.039 14.496 306.447 14.496ZM316.047 14.496C313.359 14.496 311.247 12.288 311.247 9.696C311.247 7.008 313.359 4.89599 316.047 4.89599C318.639 4.89599 320.847 7.008 320.847 9.696C320.847 12.288 318.639 14.496 316.047 14.496ZM335.209 14.496H330.409V9.696H335.209V14.496ZM340.009 9.696H335.209V4.89599H340.009V9.696ZM373.609 14.496H368.809V9.696H373.609V14.496ZM378.409 9.696H373.609V4.89599H378.409V9.696ZM335.209 24H330.409V19.2H335.209V24ZM340.009 19.2H335.209V14.496H340.009V19.2ZM344.809 28.896V24.096H349.609V28.896H344.809V33.696H340.009V28.896H344.809ZM349.609 43.296V38.496H354.409V43.2H359.209V48H354.409V43.296H349.609ZM359.209 38.496H354.409V33.696H359.209V38.496ZM364.009 33.6H359.209V28.8H364.009V33.6ZM349.609 52.8V48H354.409V52.8H359.209V57.6H354.409V52.8H349.609ZM349.609 62.4V57.6H354.409V62.4H359.209V67.2H354.409V62.4H349.609ZM354.409 72H349.609V67.2H354.409V72ZM368.809 24V19.296H373.609V24H368.809V28.8H364.009V24H368.809ZM378.409 19.296H373.609V14.496H378.409V19.296ZM392.772 62.4C390.084 62.4 387.972 60.288 387.972 57.6C387.972 55.008 390.084 52.8 392.772 52.8C395.364 52.8 397.572 55.008 397.572 57.6C397.572 60.288 395.364 62.4 392.772 62.4ZM392.772 52.8C390.084 52.8 387.972 50.688 387.972 48C387.972 45.408 390.084 43.2 392.772 43.2C395.364 43.2 397.572 45.408 397.572 48C397.572 50.688 395.364 52.8 392.772 52.8ZM392.772 72C390.084 72 387.972 69.888 387.972 67.2C387.972 64.608 390.084 62.4 392.772 62.4C395.364 62.4 397.572 64.608 397.572 67.2C397.572 69.888 395.364 72 392.772 72ZM402.372 14.496C399.684 14.496 397.572 12.288 397.572 9.696C397.572 7.008 399.684 4.89599 402.372 4.89599C404.964 4.89599 407.172 7.008 407.172 9.696C407.172 12.288 404.964 14.496 402.372 14.496ZM392.772 14.496C390.084 14.496 387.972 12.288 387.972 9.696C387.972 7.008 390.084 4.89599 392.772 4.89599C395.364 4.89599 397.572 7.008 397.572 9.696C397.572 12.288 395.364 14.496 392.772 14.496ZM412.74 14.4C410.052 14.784 407.652 13.056 407.172 10.464C406.788 7.776 408.516 5.376 411.204 4.89599C413.796 4.512 416.196 6.23999 416.676 8.928C417.06 11.52 415.332 14.016 412.74 14.4ZM392.772 24C390.084 24 387.972 21.888 387.972 19.2C387.972 16.608 390.084 14.4 392.772 14.4C395.364 14.4 397.572 16.608 397.572 19.2C397.572 21.888 395.364 24 392.772 24ZM392.772 43.2C390.084 43.2 387.972 41.088 387.972 38.4C387.972 35.808 390.084 33.6 392.772 33.6C395.364 33.6 397.572 35.808 397.572 38.4C397.572 41.088 395.364 43.2 392.772 43.2ZM392.772 33.6C390.084 33.6 387.972 31.488 387.972 28.8C387.972 26.208 390.084 24 392.772 24C395.364 24 397.572 26.208 397.572 28.8C397.572 31.488 395.364 33.6 392.772 33.6ZM402.372 43.2C399.684 43.2 397.572 41.088 397.572 38.4C397.572 35.808 399.684 33.6 402.372 33.6C404.964 33.6 407.172 35.808 407.172 38.4C407.172 41.088 404.964 43.2 402.372 43.2ZM421.572 14.496C418.884 14.496 416.772 12.288 416.772 9.696C416.772 7.008 418.884 4.89599 421.572 4.89599C424.164 4.89599 426.372 7.008 426.372 9.696C426.372 12.288 428.484 14.496 431.172 14.496C433.764 14.496 435.972 16.608 435.972 19.2C435.972 21.888 433.764 24 431.172 24C428.484 24 426.372 21.888 426.372 19.2C426.372 16.608 424.164 14.496 421.572 14.496ZM431.172 24C433.764 24 435.972 26.208 435.972 28.8C435.972 31.488 433.764 33.6 431.172 33.6C428.484 33.6 426.372 35.808 426.372 38.4C426.372 41.088 424.164 43.2 421.572 43.2C418.884 43.2 416.772 41.088 416.772 38.4C416.772 35.808 418.884 33.6 421.572 33.6C424.164 33.6 426.372 31.488 426.372 28.8C426.372 26.208 428.484 24 431.172 24ZM416.388 40.32C415.332 42.72 412.548 43.872 410.052 42.912C407.652 41.856 406.5 39.072 407.46 36.576C408.516 34.176 411.3 33.024 413.796 33.984C416.196 35.04 417.348 37.824 416.388 40.32ZM450.142 52.8C447.454 52.8 445.342 55.008 445.342 57.6C445.342 55.008 443.134 52.8 440.542 52.8C443.134 52.8 445.342 50.688 445.342 48C445.342 50.688 447.454 52.8 450.142 52.8ZM450.142 52.8C452.734 52.8 454.942 50.688 454.942 48C454.942 50.688 457.054 52.8 459.742 52.8C457.054 52.8 454.942 55.008 454.942 57.6C454.942 55.008 452.734 52.8 450.142 52.8ZM450.142 43.2C447.454 43.2 445.342 45.408 445.342 48C445.342 45.408 443.134 43.2 440.542 43.2C443.134 43.2 445.342 41.088 445.342 38.4C445.342 41.088 447.454 43.2 450.142 43.2ZM454.942 38.4C454.942 41.088 457.054 43.2 459.742 43.2C457.054 43.2 454.942 45.408 454.942 48C454.942 45.408 452.734 43.2 450.142 43.2C452.734 43.2 454.942 41.088 454.942 38.4ZM464.542 38.4C464.542 41.088 466.654 43.2 469.342 43.2C466.654 43.2 464.542 45.408 464.542 48C464.542 45.408 462.334 43.2 459.742 43.2C462.334 43.2 464.542 41.088 464.542 38.4ZM445.342 57.6C445.342 60.288 447.454 62.4 450.142 62.4C447.454 62.4 445.342 64.608 445.342 67.2C445.342 64.608 443.134 62.4 440.542 62.4C443.134 62.4 445.342 60.288 445.342 57.6ZM450.142 62.4C452.734 62.4 454.942 60.288 454.942 57.6C454.942 60.288 457.054 62.4 459.742 62.4C457.054 62.4 454.942 64.608 454.942 67.2C454.942 64.608 452.734 62.4 450.142 62.4ZM464.542 67.2C464.542 64.608 462.334 62.4 459.742 62.4C462.334 62.4 464.542 60.288 464.542 57.6C464.542 60.288 466.654 62.4 469.342 62.4C466.654 62.4 464.542 64.608 464.542 67.2ZM454.942 67.2C454.942 69.888 457.054 72 459.742 72C457.054 72 454.942 74.208 454.942 76.8C454.942 74.208 452.734 72 450.142 72C452.734 72 454.942 69.888 454.942 67.2ZM464.542 67.2C464.542 69.888 466.654 72 469.342 72C466.654 72 464.542 74.208 464.542 76.8C464.542 74.208 462.334 72 459.742 72C462.334 72 464.542 69.888 464.542 67.2ZM474.142 38.4C474.142 41.088 476.254 43.2 478.942 43.2C476.254 43.2 474.142 45.408 474.142 48C474.142 45.408 471.934 43.2 469.342 43.2C471.934 43.2 474.142 41.088 474.142 38.4ZM483.742 38.4C483.742 41.088 485.854 43.2 488.542 43.2C485.854 43.2 483.742 45.408 483.742 48C483.742 45.408 481.534 43.2 478.942 43.2C481.534 43.2 483.742 41.088 483.742 38.4ZM474.142 67.2C474.142 64.608 471.934 62.4 469.342 62.4C471.934 62.4 474.142 60.288 474.142 57.6C474.142 60.288 476.254 62.4 478.942 62.4C476.254 62.4 474.142 64.608 474.142 67.2ZM483.742 67.2C483.742 64.608 481.534 62.4 478.942 62.4C481.534 62.4 483.742 60.288 483.742 57.6C483.742 60.288 485.854 62.4 488.542 62.4C485.854 62.4 483.742 64.608 483.742 67.2ZM493.342 67.2C493.342 64.608 491.134 62.4 488.542 62.4C491.134 62.4 493.342 60.288 493.342 57.6C493.342 60.288 495.454 62.4 498.142 62.4C495.454 62.4 493.342 64.608 493.342 67.2ZM474.142 67.2C474.142 69.888 476.254 72 478.942 72C476.254 72 474.142 74.208 474.142 76.8C474.142 74.208 471.934 72 469.342 72C471.934 72 474.142 69.888 474.142 67.2ZM483.742 67.2C483.742 69.888 485.854 72 488.542 72C485.854 72 483.742 74.208 483.742 76.8C483.742 74.208 481.534 72 478.942 72C481.534 72 483.742 69.888 483.742 67.2ZM488.542 72C491.134 72 493.342 69.888 493.342 67.2C493.342 69.888 495.454 72 498.142 72C495.454 72 493.342 74.208 493.342 76.8C493.342 74.208 491.134 72 488.542 72ZM450.142 14.4C447.454 14.4 445.342 16.608 445.342 19.2C445.342 16.608 443.134 14.4 440.542 14.4C443.134 14.4 445.342 12.288 445.342 9.6C445.342 12.288 447.454 14.4 450.142 14.4ZM459.742 14.4C457.054 14.4 454.942 16.608 454.942 19.2C454.942 16.608 452.734 14.4 450.142 14.4C452.734 14.4 454.942 12.288 454.942 9.6C454.942 12.288 457.054 14.4 459.742 14.4ZM464.542 9.6C464.542 12.288 466.654 14.4 469.342 14.4C466.654 14.4 464.542 16.608 464.542 19.2C464.542 16.608 462.334 14.4 459.742 14.4C462.334 14.4 464.542 12.288 464.542 9.6ZM459.742 4.8C457.054 4.8 454.942 7.008 454.942 9.6C454.942 7.008 452.734 4.8 450.142 4.8C452.734 4.8 454.942 2.68799 454.942 -5.72205e-06C454.942 2.68799 457.054 4.8 459.742 4.8ZM464.542 9.6C464.542 7.008 462.334 4.8 459.742 4.8C462.334 4.8 464.542 2.68799 464.542 -5.72205e-06C464.542 2.68799 466.654 4.8 469.342 4.8C466.654 4.8 464.542 7.008 464.542 9.6ZM450.142 24C447.454 24 445.342 26.208 445.342 28.8C445.342 26.208 443.134 24 440.542 24C443.134 24 445.342 21.888 445.342 19.2C445.342 21.888 447.454 24 450.142 24ZM450.142 24C452.734 24 454.942 21.888 454.942 19.2C454.942 21.888 457.054 24 459.742 24C457.054 24 454.942 26.208 454.942 28.8C454.942 26.208 452.734 24 450.142 24ZM450.142 33.6C447.454 33.6 445.342 35.808 445.342 38.4C445.342 35.808 443.134 33.6 440.542 33.6C443.134 33.6 445.342 31.488 445.342 28.8C445.342 31.488 447.454 33.6 450.142 33.6ZM450.142 33.6C452.734 33.6 454.942 31.488 454.942 28.8C454.942 31.488 457.054 33.6 459.742 33.6C457.054 33.6 454.942 35.808 454.942 38.4C454.942 35.808 452.734 33.6 450.142 33.6ZM464.542 38.4C464.542 35.808 462.334 33.6 459.742 33.6C462.334 33.6 464.542 31.488 464.542 28.8C464.542 31.488 466.654 33.6 469.342 33.6C466.654 33.6 464.542 35.808 464.542 38.4ZM474.142 9.6C474.142 12.288 476.254 14.4 478.942 14.4C476.254 14.4 474.142 16.608 474.142 19.2C474.142 16.608 471.934 14.4 469.342 14.4C471.934 14.4 474.142 12.288 474.142 9.6ZM483.742 9.6C483.742 12.288 485.854 14.4 488.542 14.4C485.854 14.4 483.742 16.608 483.742 19.2C483.742 16.608 481.534 14.4 478.942 14.4C481.534 14.4 483.742 12.288 483.742 9.6ZM488.542 14.4C491.134 14.4 493.342 12.288 493.342 9.6C493.342 12.288 495.454 14.4 498.142 14.4C495.454 14.4 493.342 16.608 493.342 19.2C493.342 16.608 491.134 14.4 488.542 14.4ZM474.142 9.6C474.142 7.008 471.934 4.8 469.342 4.8C471.934 4.8 474.142 2.68799 474.142 -5.72205e-06C474.142 2.68799 476.254 4.8 478.942 4.8C476.254 4.8 474.142 7.008 474.142 9.6ZM483.742 9.6C483.742 7.008 481.534 4.8 478.942 4.8C481.534 4.8 483.742 2.68799 483.742 -5.72205e-06C483.742 2.68799 485.854 4.8 488.542 4.8C485.854 4.8 483.742 7.008 483.742 9.6ZM493.342 9.6C493.342 7.008 491.134 4.8 488.542 4.8C491.134 4.8 493.342 2.68799 493.342 -5.72205e-06C493.342 2.68799 495.454 4.8 498.142 4.8C495.454 4.8 493.342 7.008 493.342 9.6ZM474.142 38.4C474.142 35.808 471.934 33.6 469.342 33.6C471.934 33.6 474.142 31.488 474.142 28.8C474.142 31.488 476.254 33.6 478.942 33.6C476.254 33.6 474.142 35.808 474.142 38.4ZM483.742 38.4C483.742 35.808 481.534 33.6 478.942 33.6C481.534 33.6 483.742 31.488 483.742 28.8C483.742 31.488 485.854 33.6 488.542 33.6C485.854 33.6 483.742 35.808 483.742 38.4ZM488.542 43.2C491.134 43.2 493.342 41.088 493.342 38.4C493.342 41.088 495.454 43.2 498.142 43.2C495.454 43.2 493.342 45.408 493.342 48C493.342 45.408 491.134 43.2 488.542 43.2ZM493.342 38.4C493.342 35.808 491.134 33.6 488.542 33.6C491.134 33.6 493.342 31.488 493.342 28.8C493.342 31.488 495.454 33.6 498.142 33.6C495.454 33.6 493.342 35.808 493.342 38.4ZM502.722 48.096C502.722 45.408 504.834 43.296 507.522 43.296C510.114 43.296 512.322 45.408 512.322 48.096V67.2C512.322 69.888 510.114 72 507.522 72C504.834 72 502.722 69.888 502.722 67.2V48.096ZM517.122 14.4C514.434 14.4 512.322 12.288 512.322 9.6C512.322 7.008 514.434 4.8 517.122 4.8C519.714 4.8 521.922 7.008 521.922 9.6C521.922 12.288 519.714 14.4 517.122 14.4ZM526.722 14.4C524.034 14.4 521.922 12.288 521.922 9.6C521.922 7.008 524.034 4.8 526.722 4.8H545.922C548.514 4.8 550.722 7.008 550.722 9.6C550.722 12.288 548.514 14.4 545.922 14.4H526.722ZM507.522 43.2C504.834 43.2 502.722 41.088 502.722 38.4C502.722 35.808 504.834 33.6 507.522 33.6C510.114 33.6 512.322 35.808 512.322 38.4C512.322 41.088 510.114 43.2 507.522 43.2ZM512.322 28.8C512.322 31.488 510.114 33.6 507.522 33.6C504.834 33.6 502.722 31.488 502.722 28.8V9.6C502.722 7.008 504.834 4.8 507.522 4.8C510.114 4.8 512.322 7.008 512.322 9.6V28.8ZM536.322 33.6C538.914 33.6 541.122 35.808 541.122 38.4C541.122 41.088 538.914 43.2 536.322 43.2H517.122C514.434 43.2 512.322 41.088 512.322 38.4C512.322 35.808 514.434 33.6 517.122 33.6H536.322ZM545.922 43.2C543.234 43.2 541.122 41.088 541.122 38.4C541.122 35.808 543.234 33.6 545.922 33.6C548.514 33.6 550.722 35.808 550.722 38.4C550.722 41.088 548.514 43.2 545.922 43.2ZM598.684 14.496H608.284V72H598.684V43.2H569.884V72H560.284V14.496H569.884V4.89599H584.188C584.188 4.89599 584.188 4.89599 584.284 4.89599H598.684V14.496ZM598.684 33.6V14.496H569.884V33.6H598.684ZM622.647 62.4H617.847V57.6H622.647V62.4ZM617.847 52.8V48H622.647V52.8H627.447V57.6H622.647V52.8H617.847ZM617.847 43.2V38.4H622.647V43.2H627.447V48H622.647V43.2H617.847ZM617.847 33.6V28.8H622.647V33.6H627.447V38.4H622.647V33.6H617.847ZM617.847 24V19.2H622.647V24H627.447V28.8H622.647V24H617.847ZM627.447 14.496V9.696H632.247V14.496H627.447V19.2H622.647V14.496H627.447ZM637.047 9.696H632.247V4.89599H637.047V9.696ZM641.847 14.496H637.047V9.696H641.847V14.496ZM646.647 9.696H641.847V4.89599H646.647V9.696ZM651.447 14.496H646.647V9.696H651.447V14.496ZM656.247 9.696H651.447V4.89599H656.247V9.696ZM632.247 72.096H627.447V67.296H632.247V72.096ZM637.047 67.296H632.247V62.496H637.047V67.296ZM641.847 72.096H637.047V67.296H641.847V72.096ZM646.647 67.296H641.847V62.496H646.647V67.296ZM651.447 72.096H646.647V67.296H651.447V72.096ZM656.247 67.296H651.447V62.496H656.247V67.296ZM661.047 24H656.247V19.2H661.047V24ZM665.847 19.2H661.047V14.4H665.847V19.2ZM661.047 62.4H656.247V57.6H661.047V62.4ZM665.847 57.6H661.047V52.8H665.847V57.6ZM680.209 62.4C677.521 62.4 675.409 60.288 675.409 57.6C675.409 55.008 677.521 52.8 680.209 52.8C682.801 52.8 685.009 55.008 685.009 57.6C685.009 60.288 682.801 62.4 680.209 62.4ZM680.209 52.8C677.521 52.8 675.409 50.688 675.409 48C675.409 45.408 677.521 43.2 680.209 43.2C682.801 43.2 685.009 45.408 685.009 48C685.009 50.688 682.801 52.8 680.209 52.8ZM689.809 43.2C687.121 43.2 685.009 41.088 685.009 38.4C685.009 35.808 687.121 33.6 689.809 33.6C692.401 33.6 694.609 35.808 694.609 38.4C694.609 41.088 692.401 43.2 689.809 43.2ZM680.209 43.2C677.521 43.2 675.409 41.088 675.409 38.4C675.409 35.808 677.521 33.6 680.209 33.6C682.801 33.6 685.009 35.808 685.009 38.4C685.009 41.088 682.801 43.2 680.209 43.2ZM699.409 43.2C696.721 43.2 694.609 41.088 694.609 38.4C694.609 35.808 696.721 33.6 699.409 33.6C702.001 33.6 704.209 35.808 704.209 38.4C704.209 41.088 702.001 43.2 699.409 43.2ZM680.209 72C677.521 72 675.409 69.888 675.409 67.2C675.409 64.608 677.521 62.4 680.209 62.4C682.801 62.4 685.009 64.608 685.009 67.2C685.009 69.888 682.801 72 680.209 72ZM689.809 72C687.121 72 685.009 69.888 685.009 67.2C685.009 64.608 687.121 62.4 689.809 62.4C692.401 62.4 694.609 64.608 694.609 67.2C694.609 69.888 692.401 72 689.809 72ZM699.409 72C696.721 72 694.609 69.888 694.609 67.2C694.609 64.608 696.721 62.4 699.409 62.4C702.001 62.4 704.209 64.608 704.209 67.2C704.209 69.888 702.001 72 699.409 72ZM709.009 43.2C706.321 43.2 704.209 41.088 704.209 38.4C704.209 35.808 706.321 33.6 709.009 33.6C711.601 33.6 713.809 35.808 713.809 38.4C713.809 41.088 711.601 43.2 709.009 43.2ZM718.609 43.2C715.921 43.2 713.809 41.088 713.809 38.4C713.809 35.808 715.921 33.6 718.609 33.6C721.201 33.6 723.409 35.808 723.409 38.4C723.409 41.088 721.201 43.2 718.609 43.2ZM709.009 72C706.321 72 704.209 69.888 704.209 67.2C704.209 64.608 706.321 62.4 709.009 62.4C711.601 62.4 713.809 64.608 713.809 67.2C713.809 69.888 711.601 72 709.009 72ZM718.609 72C715.921 72 713.809 69.888 713.809 67.2C713.809 64.608 715.921 62.4 718.609 62.4C721.201 62.4 723.409 64.608 723.409 67.2C723.409 69.888 721.201 72 718.609 72ZM689.809 14.496C687.121 14.496 685.009 12.288 685.009 9.696C685.009 7.008 687.121 4.89599 689.809 4.89599C692.401 4.89599 694.609 7.008 694.609 9.696C694.609 12.288 692.401 14.496 689.809 14.496ZM680.209 14.496C677.521 14.496 675.409 12.288 675.409 9.696C675.409 7.008 677.521 4.89599 680.209 4.89599C682.801 4.89599 685.009 7.008 685.009 9.696C685.009 12.288 682.801 14.496 680.209 14.496ZM699.409 14.496C696.721 14.496 694.609 12.288 694.609 9.696C694.609 7.008 696.721 4.89599 699.409 4.89599C702.001 4.89599 704.209 7.008 704.209 9.696C704.209 12.288 702.001 14.496 699.409 14.496ZM680.209 24C677.521 24 675.409 21.888 675.409 19.2C675.409 16.608 677.521 14.4 680.209 14.4C682.801 14.4 685.009 16.608 685.009 19.2C685.009 21.888 682.801 24 680.209 24ZM680.209 33.6C677.521 33.6 675.409 31.488 675.409 28.8C675.409 26.208 677.521 24 680.209 24C682.801 24 685.009 26.208 685.009 28.8C685.009 31.488 682.801 33.6 680.209 33.6ZM709.009 14.496C706.321 14.496 704.209 12.288 704.209 9.696C704.209 7.008 706.321 4.89599 709.009 4.89599C711.601 4.89599 713.809 7.008 713.809 9.696C713.809 12.288 711.601 14.496 709.009 14.496ZM718.609 14.496C715.921 14.496 713.809 12.288 713.809 9.696C713.809 7.008 715.921 4.89599 718.609 4.89599C721.201 4.89599 723.409 7.008 723.409 9.696C723.409 12.288 721.201 14.496 718.609 14.496Z" fill="white"/>
</svg>
