<svg width="53" height="50" viewBox="0 0 53 50" fill="none" xmlns="http://www.w3.org/2000/svg">
<path d="M22.3364 49.1738C21.0042 49.943 19.306 49.5798 18.4049 48.333L0.213083 23.1616C-0.374547 22.3485 0.46746 21.2731 1.39778 21.6485L16.5874 27.7778C17.3024 28.0663 18.0612 27.4713 17.9514 26.7081L14.9148 5.60121C14.7862 4.7079 15.8134 4.11485 16.5228 4.67281L33.2835 17.856C33.8896 18.3327 34.7843 17.9732 34.892 17.2097L37.1786 0.990393C37.3187 -0.00298478 38.671 -0.194478 39.0814 0.720966L51.7845 29.0613C52.4137 30.465 51.8792 32.1173 50.547 32.8864L22.3364 49.1738Z" fill="#FFF50A"/>
</svg>
