<svg width="271" height="271" viewBox="0 0 271 271" fill="none" xmlns="http://www.w3.org/2000/svg">
<path d="M214.114 79.0972L158.188 135.023L214.114 190.95L270.04 135.023L214.114 79.0972Z" fill="#FF1345"/>
<path d="M134.958 0.00342347L79.0312 55.9297L134.958 111.856L190.884 55.9297L134.958 0.00342347Z" fill="#FF1345"/>
<path d="M134.958 158.3L79.0312 214.227L134.958 270.153L190.884 214.227L134.958 158.3Z" fill="#FF1345"/>
<path d="M55.9272 79.0963L0 135.023L55.9263 190.95L111.853 135.023L55.9272 79.0963Z" fill="#FF1345"/>
<path d="M214.114 79.0972L158.188 135.023L214.114 190.95L270.04 135.023L214.114 79.0972Z" fill="#FF1345"/>
<path d="M134.958 0.00342347L79.0312 55.9297L134.958 111.856L190.884 55.9297L134.958 0.00342347Z" fill="#FF1345"/>
<path d="M134.958 158.3L79.0312 214.227L134.958 270.153L190.884 214.227L134.958 158.3Z" fill="#FF1345"/>
<path d="M55.9272 79.0963L0 135.023L55.9263 190.95L111.853 135.023L55.9272 79.0963Z" fill="#FF1345"/>
<path d="M135.99 65.2472C135.99 102.546 105.752 132.784 68.4531 132.784C105.752 132.784 135.99 163.021 135.99 200.32C135.99 163.021 166.227 132.784 203.526 132.784C166.227 132.784 135.99 102.546 135.99 65.2472Z" fill="white"/>
</svg>
