<svg width="500" height="500" viewBox="0 0 500 500" fill="none" xmlns="http://www.w3.org/2000/svg">
<g clip-path="url(#clip0_3369_327)">
<path fill-rule="evenodd" clip-rule="evenodd" d="M326.31 173.539C363.286 133.025 362.183 70.1832 323.001 31.0009C282.684 -9.3164 217.316 -9.3164 176.999 31.0009C139.002 68.998 136.815 129.245 170.439 169.803L169.795 170.447C129.237 136.823 68.9901 139.01 30.9931 177.007C-9.32422 217.324 -9.32423 282.692 30.9931 323.009C69.8975 361.914 132.127 363.277 172.666 327.099L172.9 327.334C136.722 367.873 138.086 430.103 176.99 469.007C217.308 509.325 282.675 509.325 322.992 469.007C363.068 428.932 363.308 364.105 323.713 323.733L323.724 323.721C364.097 363.317 428.923 363.077 468.999 323.001C509.316 282.684 509.316 217.316 468.999 176.999C429.817 137.817 366.975 136.714 326.461 173.69L326.31 173.539Z" fill="#7000FF"/>
<path d="M21.9447 478.018C147.874 352.089 352.052 352.089 477.982 478.018C352.052 352.089 352.052 147.911 477.982 21.9816C352.052 147.911 147.874 147.911 21.9449 21.9816C147.874 147.911 147.874 352.089 21.9447 478.018Z" fill="#00FF38"/>
</g>
<defs>
<clipPath id="clip0_3369_327">
<rect width="500" height="500" fill="white"/>
</clipPath>
</defs>
</svg>
